# https://github.com/mikedh/trimesh
v 0.02984544 -0.03949396 -0.04682047
v 0.03700671 -0.01796026 -0.04682047
v 0.03421738 -0.03949396 -0.04682047
v 0.03703562 -0.03949396 -0.02296161
v 0.04300538 -0.01796026 -0.02296161
v 0.04076387 -0.01796026 -0.04682047
v 0.03526889 -0.03781612 -0.04682047
v 0.03476824 -0.03949396 -0.04642808
v 0.03961344 -0.03949396 -0.02296161
v 0.04502320 -0.01796026 -0.02296161
v 0.04076691 -0.01800663 -0.04682047
v 0.04195538 -0.01796026 -0.04587219
v 0.04212734 -0.01950531 -0.04586752
v 0.03557019 -0.03731446 -0.04682047
v 0.03636454 -0.03727019 -0.04626458
v 0.03600237 -0.03852225 -0.04597730
v 0.03509846 -0.03949396 -0.04615948
v 0.04011865 -0.03847166 -0.02296161
v 0.04004561 -0.03949396 -0.03023254
v 0.04036822 -0.03896279 -0.03023254
v 0.04502624 -0.01822796 -0.02296161
v 0.04511906 -0.01796026 -0.02452417
v 0.04077148 -0.01863477 -0.04682047
v 0.04205125 -0.01796026 -0.04579044
v 0.04275277 -0.01868957 -0.04499165
v 0.04277255 -0.02041379 -0.04499398
v 0.04212734 -0.01959805 -0.04586752
v 0.03602367 -0.03644392 -0.04682047
v 0.03813279 -0.03449417 -0.04600766
v 0.03778279 -0.03588534 -0.04569935
v 0.03740540 -0.03727019 -0.04527893
v 0.03625954 -0.03949396 -0.04509441
v 0.04042604 -0.03782456 -0.02296161
v 0.04010648 -0.03949396 -0.03231596
v 0.04041387 -0.03901759 -0.03231596
v 0.04227647 -0.03450049 -0.02814679
v 0.04222473 -0.03436770 -0.02606337
v 0.04068930 -0.03727019 -0.02296161
v 0.04502928 -0.01850830 -0.02296161
v 0.04509167 -0.01850830 -0.02397762
v 0.04520124 -0.01796026 -0.02606337
v 0.04075474 -0.01981727 -0.04682047
v 0.04250321 -0.01796026 -0.04522054
v 0.04275277 -0.01796026 -0.04488654
v 0.04395037 -0.01850830 -0.04314880
v 0.04281364 -0.02267761 -0.04463896
v 0.04206343 -0.02098923 -0.04580446
v 0.04397320 -0.02059295 -0.04303669
v 0.04072430 -0.02047070 -0.04682047
v 0.03666432 -0.03518765 -0.04682047
v 0.03984626 -0.03160010 -0.04566432
v 0.03846453 -0.03309667 -0.04624123
v 0.03950692 -0.03309667 -0.04521353
v 0.03831540 -0.03727019 -0.04423722
v 0.03801410 -0.03841264 -0.04385884
v 0.03680280 -0.03916303 -0.04471603
v 0.03669476 -0.03949396 -0.04461794
v 0.04008669 -0.03949396 -0.03440172
v 0.04041691 -0.03899019 -0.03440172
v 0.04228256 -0.03455740 -0.03023254
v 0.04279082 -0.03309667 -0.02814679
v 0.04272386 -0.03309667 -0.02606337
v 0.04254277 -0.03317466 -0.02296161
v 0.04216842 -0.03423912 -0.02438636
v 0.04125843 -0.03602024 -0.02296161
v 0.04500037 -0.01952639 -0.02296161
v 0.04502928 -0.02059295 -0.02397762
v 0.04514189 -0.02059295 -0.02606337
v 0.04520276 -0.01850830 -0.02606337
v 0.04523015 -0.01796026 -0.02660759
v 0.04363537 -0.01796026 -0.04354586
v 0.04390929 -0.01796026 -0.04310209
v 0.04432015 -0.01796026 -0.04206038
v 0.04432472 -0.01850830 -0.04210709
v 0.04266907 -0.02476226 -0.04444977
v 0.04192190 -0.02267761 -0.04568067
v 0.04048387 -0.02684903 -0.04623655
v 0.04087952 -0.02267761 -0.04650516
v 0.04045343 -0.02267761 -0.04682047
v 0.04427298 -0.02059295 -0.04199498
v 0.04422733 -0.02178178 -0.04177309
v 0.04302212 -0.02684903 -0.04273772
v 0.03735671 -0.03371427 -0.04682047
v 0.04011257 -0.03021103 -0.04593759
v 0.04221408 -0.02814957 -0.04391723
v 0.04057669 -0.03094667 -0.04490989
v 0.04029213 -0.03309667 -0.04417182
v 0.03762149 -0.03314936 -0.04682047
v 0.04005626 -0.03418221 -0.04380746
v 0.03976561 -0.03557127 -0.04325157
v 0.03721671 -0.03949396 -0.04389855
v 0.03933648 -0.03716691 -0.04263028
v 0.03826366 -0.03920730 -0.04255554
v 0.03794562 -0.03949396 -0.04282881
v 0.04001213 -0.03949396 -0.03557189
v 0.03993300 -0.03949396 -0.03648280
v 0.04032713 -0.03883843 -0.03648280
v 0.04221408 -0.03439299 -0.03648280
v 0.04224756 -0.03449417 -0.03440172
v 0.04226430 -0.03453632 -0.03231596
v 0.04278473 -0.03309667 -0.03231596
v 0.04281060 -0.03309667 -0.03023254
v 0.04432776 -0.02836667 -0.03231596
v 0.04430494 -0.02827182 -0.03023254
v 0.04320472 -0.03101412 -0.02296161
v 0.04427146 -0.02813059 -0.02814679
v 0.04496841 -0.02059295 -0.02296161
v 0.04489233 -0.02161315 -0.02296161
v 0.04522863 -0.02267761 -0.03023254
v 0.04524689 -0.02059295 -0.02814679
v 0.04530015 -0.01850830 -0.02814679
v 0.04530319 -0.01796026 -0.02814679
v 0.04468841 -0.01796026 -0.04065197
v 0.04468689 -0.01850830 -0.04065197
v 0.04242256 -0.02684903 -0.04416949
v 0.04152626 -0.02684903 -0.04521353
v 0.04170886 -0.02476226 -0.04549148
v 0.04027691 -0.02892736 -0.04607072
v 0.03990409 -0.02582251 -0.04682047
v 0.04009126 -0.02476226 -0.04682047
v 0.04506885 -0.02058663 -0.03857556
v 0.04489841 -0.02267129 -0.03857556
v 0.04440385 -0.02255957 -0.04070802
v 0.04430950 -0.02476226 -0.03997930
v 0.04422276 -0.02586677 -0.03966398
v 0.04233734 -0.03055672 -0.04212344
v 0.04252451 -0.02887466 -0.04278444
v 0.03851627 -0.03096985 -0.04682047
v 0.03912648 -0.02907701 -0.04682047
v 0.03916909 -0.02892736 -0.04682047
v 0.04031800 -0.03500005 -0.04263028
v 0.04012170 -0.03640387 -0.04186185
v 0.03819519 -0.03949396 -0.04236402
v 0.03957235 -0.03949396 -0.03875307
v 0.04017496 -0.03857284 -0.03821586
v 0.04056604 -0.03759480 -0.03857556
v 0.04216842 -0.03425598 -0.03779077
v 0.03973366 -0.03926210 -0.03857556
v 0.04267973 -0.03309667 -0.03648280
v 0.04273907 -0.03309667 -0.03440172
v 0.04431254 -0.02831819 -0.03440172
v 0.04464124 -0.02684903 -0.03231596
v 0.04461385 -0.02684903 -0.03023254
v 0.04437341 -0.02662138 -0.02296161
v 0.04423798 -0.02800412 -0.02650715
v 0.04454233 -0.02684903 -0.02814679
v 0.04472341 -0.02369570 -0.02296161
v 0.04510841 -0.02267761 -0.02814679
v 0.04532602 -0.02059295 -0.03023254
v 0.04462450 -0.02476226 -0.02296161
v 0.04498972 -0.02476226 -0.03023254
v 0.04528493 -0.02267761 -0.03231596
v 0.04535645 -0.01850830 -0.03023254
v 0.04535798 -0.01796026 -0.03023254
v 0.04516776 -0.01796026 -0.03857556
v 0.04516167 -0.01850830 -0.03856621
v 0.03947800 -0.02782496 -0.04682047
v 0.04507037 -0.02059295 -0.03856621
v 0.04518602 -0.02267761 -0.03648280
v 0.04461994 -0.02476226 -0.03856621
v 0.04258538 -0.03115745 -0.04078043
v 0.04318494 -0.02892736 -0.04065197
v 0.04432928 -0.02634104 -0.03856621
v 0.04202386 -0.03194789 -0.04156055
v 0.04229016 -0.03254230 -0.04017082
v 0.04035604 -0.03687813 -0.04065197
v 0.03984018 -0.03792362 -0.04065197
v 0.03906409 -0.03935485 -0.04065197
v 0.03898344 -0.03949396 -0.04065197
v 0.03902605 -0.03949396 -0.04051884
v 0.04003648 -0.03830936 -0.03960792
v 0.03967583 -0.03930004 -0.03877409
v 0.03985539 -0.03904078 -0.03857556
v 0.04013996 -0.03850539 -0.03857556
v 0.04044126 -0.03786671 -0.03857556
v 0.04058887 -0.03747465 -0.03877409
v 0.04243169 -0.03318309 -0.03851950
v 0.04166473 -0.03504642 -0.03851950
v 0.04205430 -0.03407471 -0.03857556
v 0.04239364 -0.03324632 -0.03857556
v 0.04426385 -0.02812216 -0.03602734
v 0.04460167 -0.02684903 -0.03440172
v 0.04502624 -0.02476226 -0.03231596
v 0.04451341 -0.02563280 -0.02296161
v 0.04536254 -0.02059295 -0.03231596
v 0.04526515 -0.02267761 -0.03440172
v 0.04537776 -0.02059295 -0.03440172
v 0.04536406 -0.01796026 -0.03077676
v 0.04516928 -0.01796026 -0.03856621
v 0.04533667 -0.01796026 -0.03702935
v 0.04538689 -0.01850830 -0.03648280
v 0.04534884 -0.02059295 -0.03648280
v 0.04496993 -0.02476226 -0.03440172
v 0.04487254 -0.02476226 -0.03648280
v 0.04308755 -0.03101412 -0.03857556
v 0.04443428 -0.02703030 -0.03662761
v 0.04414668 -0.02784603 -0.03741707
v 0.04196756 -0.03392926 -0.03918050
v 0.04242864 -0.03315780 -0.03857556
v 0.04308907 -0.03101412 -0.03856621
v 0.04537624 -0.01796026 -0.03231596
v 0.04538993 -0.01796026 -0.03648280
v 0.04538385 -0.01796026 -0.03440172
f 1 2 6
f 1 6 11
f 1 11 23
f 1 23 42
f 1 42 49
f 1 49 79
f 1 79 120
f 1 120 119
f 1 119 157
f 1 157 130
f 1 130 129
f 1 129 128
f 1 128 88
f 1 88 83
f 1 83 50
f 1 50 28
f 1 28 14
f 1 14 7
f 1 7 3
f 1 3 8
f 1 8 17
f 1 17 32
f 1 32 57
f 1 57 91
f 1 91 94
f 1 94 133
f 1 133 169
f 1 169 170
f 1 170 134
f 1 134 96
f 1 96 95
f 1 95 58
f 1 58 34
f 1 34 19
f 1 19 9
f 1 9 4
f 1 4 5
f 1 5 2
f 2 5 10
f 2 10 22
f 2 22 41
f 2 41 70
f 2 70 112
f 2 112 154
f 2 154 188
f 2 188 201
f 2 201 203
f 2 203 202
f 2 202 190
f 2 190 189
f 2 189 155
f 2 155 113
f 2 113 73
f 2 73 72
f 2 72 71
f 2 71 44
f 2 44 43
f 2 43 24
f 2 24 12
f 2 12 6
f 3 7 8
f 4 9 18
f 4 18 33
f 4 33 38
f 4 38 65
f 4 65 63
f 4 63 105
f 4 105 144
f 4 144 184
f 4 184 150
f 4 150 147
f 4 147 108
f 4 108 107
f 4 107 66
f 4 66 39
f 4 39 21
f 4 21 10
f 4 10 5
f 6 12 13
f 6 13 11
f 7 14 15
f 7 15 16
f 7 16 8
f 8 16 17
f 9 19 20
f 9 20 18
f 10 21 22
f 11 13 23
f 12 24 13
f 13 24 25
f 13 25 26
f 13 26 27
f 13 27 23
f 14 28 15
f 15 28 29
f 15 29 30
f 15 30 16
f 16 30 31
f 16 31 32
f 16 32 17
f 18 20 33
f 19 34 35
f 19 35 20
f 20 35 36
f 20 36 37
f 20 37 38
f 20 38 33
f 21 39 40
f 21 40 22
f 22 40 41
f 23 27 42
f 24 43 25
f 25 44 45
f 25 45 26
f 25 43 44
f 26 46 47
f 26 47 27
f 26 45 48
f 26 48 46
f 27 47 49
f 27 49 42
f 28 50 29
f 29 51 30
f 29 50 52
f 29 52 51
f 30 51 53
f 30 53 54
f 30 54 31
f 31 54 55
f 31 55 56
f 31 56 32
f 32 56 57
f 34 58 59
f 34 59 35
f 35 60 36
f 35 59 60
f 36 60 61
f 36 61 62
f 36 62 63
f 36 63 37
f 37 63 64
f 37 64 38
f 38 64 65
f 39 66 40
f 40 67 68
f 40 68 69
f 40 69 41
f 40 66 67
f 41 69 70
f 44 71 45
f 45 72 73
f 45 73 74
f 45 74 48
f 45 71 72
f 46 75 76
f 46 76 47
f 46 48 75
f 47 76 77
f 47 77 78
f 47 78 79
f 47 79 49
f 48 74 80
f 48 80 81
f 48 81 82
f 48 82 75
f 50 83 52
f 51 52 84
f 51 84 85
f 51 85 86
f 51 86 87
f 51 87 53
f 52 83 88
f 52 88 84
f 53 87 54
f 54 87 89
f 54 89 90
f 54 90 55
f 55 91 57
f 55 57 56
f 55 90 92
f 55 92 93
f 55 93 94
f 55 94 91
f 58 95 59
f 59 95 96
f 59 96 97
f 59 97 98
f 59 98 99
f 59 99 100
f 59 100 60
f 60 100 101
f 60 101 102
f 60 102 61
f 61 102 103
f 61 103 104
f 61 104 62
f 62 105 63
f 62 104 106
f 62 106 105
f 63 65 64
f 66 107 67
f 67 107 108
f 67 108 109
f 67 109 68
f 68 109 110
f 68 110 69
f 69 110 111
f 69 111 112
f 69 112 70
f 73 113 74
f 74 113 114
f 74 114 80
f 75 115 116
f 75 116 117
f 75 117 76
f 75 82 115
f 76 117 118
f 76 118 77
f 77 118 119
f 77 119 78
f 78 119 120
f 78 120 79
f 80 114 121
f 80 121 122
f 80 122 81
f 81 122 123
f 81 123 124
f 81 124 82
f 82 124 125
f 82 125 126
f 82 126 127
f 82 127 115
f 84 116 115
f 84 115 85
f 84 88 128
f 84 128 129
f 84 129 130
f 84 130 118
f 84 118 116
f 85 87 86
f 85 115 127
f 85 127 126
f 85 126 87
f 87 126 89
f 89 126 131
f 89 131 90
f 90 131 132
f 90 132 92
f 92 132 93
f 93 132 133
f 93 133 94
f 96 134 97
f 97 135 136
f 97 136 137
f 97 137 98
f 97 134 138
f 97 138 135
f 98 139 99
f 98 137 139
f 99 139 140
f 99 140 101
f 99 101 100
f 101 103 102
f 101 140 141
f 101 141 103
f 103 141 142
f 103 142 143
f 103 143 104
f 104 143 106
f 105 106 145
f 105 145 144
f 106 143 146
f 106 146 145
f 108 147 148
f 108 148 109
f 109 149 110
f 109 148 147
f 109 147 150
f 109 150 151
f 109 151 152
f 109 152 149
f 110 149 111
f 111 149 153
f 111 153 112
f 112 153 154
f 113 155 114
f 114 155 156
f 114 156 121
f 116 118 117
f 118 130 157
f 118 157 119
f 121 156 158
f 121 158 122
f 122 158 159
f 122 159 160
f 122 160 124
f 122 124 123
f 124 160 125
f 125 161 162
f 125 162 126
f 125 160 163
f 125 163 161
f 126 162 161
f 126 161 164
f 126 164 132
f 126 132 131
f 132 164 165
f 132 165 166
f 132 166 167
f 132 167 168
f 132 168 133
f 133 168 169
f 134 170 171
f 134 171 172
f 134 172 138
f 135 138 173
f 135 173 174
f 135 174 175
f 135 175 136
f 136 175 176
f 136 176 137
f 137 177 139
f 137 176 178
f 137 178 179
f 137 179 180
f 137 180 177
f 138 172 173
f 139 177 181
f 139 181 141
f 139 141 140
f 141 181 182
f 141 182 142
f 142 182 183
f 142 183 143
f 143 151 146
f 143 183 151
f 144 145 146
f 144 146 151
f 144 151 184
f 149 152 185
f 149 185 153
f 150 184 151
f 151 183 152
f 152 183 186
f 152 186 187
f 152 187 185
f 153 185 188
f 153 188 154
f 155 189 156
f 156 189 190
f 156 190 191
f 156 191 192
f 156 192 158
f 158 192 159
f 159 192 186
f 159 186 193
f 159 193 194
f 159 194 160
f 160 194 163
f 161 165 164
f 161 163 195
f 161 195 165
f 163 194 196
f 163 196 197
f 163 197 195
f 165 180 198
f 165 198 171
f 165 171 166
f 165 195 199
f 165 199 180
f 166 171 167
f 167 171 168
f 168 171 169
f 169 171 170
f 171 176 174
f 171 174 173
f 171 173 172
f 171 198 178
f 171 178 176
f 174 176 175
f 177 180 199
f 177 199 195
f 177 195 200
f 177 200 181
f 178 198 179
f 179 198 180
f 181 200 197
f 181 197 196
f 181 196 194
f 181 194 182
f 182 194 193
f 182 193 183
f 183 193 186
f 185 187 201
f 185 201 188
f 186 192 187
f 187 192 191
f 187 191 202
f 187 202 203
f 187 203 201
f 190 202 191
f 195 197 200

