# https://github.com/mikedh/trimesh
v -0.00061138 0.06249738 -0.00814363
v 0.00146972 0.06241434 -0.00814363
v -0.00061138 0.06231533 -0.00938293
v -0.00269582 0.06224187 -0.00938293
v -0.00269582 0.06240476 -0.00814363
v 0.00236115 0.06227062 -0.00814363
v 0.00274604 0.06182668 -0.01078038
v 0.00146972 0.06222271 -0.00938293
v 0.00045833 0.06175961 -0.01252017
v -0.00061138 0.06197359 -0.01146720
v -0.00179106 0.06177238 -0.01255917
v -0.00257085 0.06190333 -0.01150186
v -0.00401046 0.06183946 -0.01083022
v -0.00445368 0.06194804 -0.00938293
v -0.00479692 0.06201192 -0.00814363
v 0.00352417 0.06207260 -0.00814363
v 0.00127977 0.06187458 -0.01147370
v 0.00348584 0.06192249 -0.00920526
v 0.00462553 0.06176599 -0.00839062
v 0.00355582 0.06077910 -0.01355364
v 0.00184962 0.06159353 -0.01217134
v -0.00061138 0.06176919 -0.01255483
v 0.00146972 0.06041501 -0.01563791
v -0.00061138 0.06054276 -0.01563791
v -0.00269582 0.06037668 -0.01563791
v -0.00257085 0.06129970 -0.01337381
v -0.00318069 0.06160950 -0.01222118
v -0.00478025 0.06071523 -0.01355364
v -0.00473527 0.06136357 -0.01150186
v -0.00549506 0.06160950 -0.00938293
v -0.00580831 0.06174683 -0.00829746
v -0.00565168 0.06180432 -0.00814363
v 0.00438060 0.06186501 -0.00814363
v 0.00564026 0.06049805 -0.01146720
v 0.00562860 0.06003494 -0.01337598
v 0.00466219 0.06178196 -0.00814363
v 0.00490213 0.06166698 -0.00814363
v 0.00669997 0.05969001 -0.01256133
v 0.00492545 0.05985289 -0.01493160
v 0.00344585 0.06003175 -0.01563141
v 0.00267773 0.05973153 -0.01678838
v 0.00146972 0.05983373 -0.01695737
v -0.00061138 0.05990719 -0.01705054
v -0.00269582 0.05979540 -0.01686421
v -0.00376386 0.05968043 -0.01669521
v -0.00458864 0.05995829 -0.01558808
v -0.00605324 0.05979860 -0.01485793
v -0.00641648 0.06004772 -0.01355364
v -0.00582164 0.06175641 -0.00814363
v -0.00699465 0.06024254 -0.01141520
v -0.00796106 0.05974111 -0.01068722
v 0.00631674 0.05941215 -0.01395229
v 0.00566359 0.06123582 -0.00814363
v 0.00684327 0.05984012 -0.01146720
v 0.00714985 0.05868076 -0.01337598
v 0.00696990 0.05796534 -0.01563791
v 0.00674829 0.05765874 -0.01680571
v 0.00551863 0.05796854 -0.01758785
v 0.00474384 0.05766513 -0.01887265
v 0.00406902 0.05946005 -0.01632256
v 0.00344585 0.05896501 -0.01757702
v 0.00355582 0.05790466 -0.01914997
v 0.00146972 0.05919177 -0.01799734
v -0.00061138 0.05922371 -0.01809267
v -0.00269582 0.05914067 -0.01790634
v -0.00515349 0.05944089 -0.01624889
v -0.00478025 0.05786953 -0.01911531
v -0.00458864 0.05892668 -0.01752286
v -0.00594660 0.05767151 -0.01886182
v -0.00640648 0.05799728 -0.01772002
v -0.00786609 0.05753098 -0.01655438
v -0.00745786 0.05918858 -0.01355364
v -0.00777611 0.05950157 -0.01207601
v -0.00598160 0.06162866 -0.00814363
v -0.00803770 0.05781204 -0.01516559
v -0.00820599 0.05814739 -0.01355364
v -0.00832263 0.05873506 -0.01141520
v -0.00857756 0.05862966 -0.00938293
v -0.00802771 0.05983054 -0.00938293
v 0.00633341 0.06082701 -0.00814363
v 0.00706821 0.06009882 -0.00938293
v 0.00750475 0.05862966 -0.01146720
v 0.00762139 0.05654409 -0.01563791
v 0.00707487 0.05647063 -0.01758785
v 0.00682161 0.05572647 -0.01901565
v 0.00613346 0.05711579 -0.01819234
v 0.00547530 0.05638440 -0.01963746
v 0.00481882 0.05564982 -0.02096776
v 0.00355582 0.05695290 -0.02018778
v 0.00146972 0.05815059 -0.01943163
v 0.00146972 0.05720202 -0.02047377
v -0.00061138 0.05818252 -0.01947930
v -0.00269582 0.05809629 -0.01939047
v -0.00269582 0.05713814 -0.02043260
v -0.00478025 0.05682834 -0.02015528
v -0.00584830 0.05551887 -0.02086159
v -0.00659310 0.05630775 -0.01961363
v -0.00805437 0.05570731 -0.01897881
v -0.00744787 0.05717647 -0.01772002
v -0.00822432 0.05613209 -0.01772002
v -0.00676805 0.06098670 -0.00814363
v -0.00836428 0.05671975 -0.01577224
v -0.00868586 0.05654409 -0.01355364
v -0.00861755 0.05862966 -0.00814363
v -0.00829430 0.05940576 -0.00814363
v -0.00807103 0.05989122 -0.00814363
v 0.00715818 0.06020741 -0.00814363
v 0.00770137 0.05862966 -0.00938293
v 0.00788299 0.05654409 -0.01355364
v 0.00775969 0.05445852 -0.01772002
v 0.00709320 0.05437549 -0.01974579
v 0.00678662 0.05362494 -0.02098726
v 0.00620844 0.05501425 -0.02040227
v 0.00355582 0.05591171 -0.02119958
v 0.00556528 0.05437549 -0.02135124
v 0.00516372 0.05190027 -0.02327952
v 0.00428563 0.05329278 -0.02281370
v 0.00357748 0.05435313 -0.02230888
v 0.00146972 0.05616083 -0.02139891
v -0.00061138 0.05722757 -0.02052143
v -0.00269582 0.05609376 -0.02130575
v -0.00478025 0.05578396 -0.02107609
v -0.00723959 0.05492482 -0.02036977
v -0.00474193 0.05433077 -0.02218105
v -0.00540842 0.05316183 -0.02276387
v -0.00667307 0.05432119 -0.02122775
v -0.00797939 0.05353551 -0.02093742
v -0.00821766 0.05432119 -0.01972413
v -0.00872585 0.05445852 -0.01772002
v -0.00879583 0.05445852 -0.01563791
v -0.00898578 0.02987247 -0.02397283
v -0.00860755 0.05778649 -0.00814363
v 0.00777468 0.05862966 -0.00814363
v 0.00796463 0.05654409 -0.01146720
v 0.00796963 0.05445852 -0.01563791
v 0.00800129 0.05237615 -0.01772002
v 0.00797629 0.05029378 -0.01980429
v 0.00772303 0.05237615 -0.01980429
v 0.00706654 0.05237615 -0.02139458
v 0.00655335 0.05114972 -0.02282454
v 0.00577189 0.05251029 -0.02246488
v 0.00289767 0.05358661 -0.02302603
v 0.00146972 0.05479068 -0.02244321
v 0.00577189 0.05038640 -0.02361535
v 0.00500876 0.04764291 -0.02518180
v 0.00419065 0.04903222 -0.02487414
v 0.00351917 0.05015964 -0.02456648
v 0.00357748 0.05251029 -0.02345718
v -0.00061138 0.05618638 -0.02137724
v -0.00061138 0.05481623 -0.02242155
v -0.00269582 0.05471722 -0.02234788
v -0.00401879 0.05355467 -0.02302170
v -0.00474193 0.05243045 -0.02339219
v -0.00621986 0.05177252 -0.02316036
v -0.00760949 0.05074730 -0.02267287
v -0.00794273 0.04935799 -0.02297187
v -0.00815434 0.05237615 -0.02124508
v -0.00865087 0.05237615 -0.01980429
v -0.00880250 0.05029378 -0.01980429
v -0.00880750 0.05237615 -0.01772002
v -0.00869586 0.04612584 -0.02188856
v -0.00875085 0.02987247 -0.02585561
v -0.00849425 0.02987247 -0.02197739
v -0.00845426 0.05643231 -0.00814363
v 0.00779134 0.05654409 -0.00814363
v 0.00787965 0.05654409 -0.00938293
v 0.00795463 0.03361563 -0.02397283
v 0.00803628 0.04195470 -0.02189073
v 0.00797796 0.04404027 -0.02189073
v 0.00770470 0.04820502 -0.02188856
v 0.00731814 0.05038640 -0.02203156
v 0.00690492 0.04975722 -0.02316903
v 0.00639839 0.04671989 -0.02482431
v 0.00146972 0.05374950 -0.02314519
v -0.00061138 0.05377505 -0.02318419
v 0.00567858 0.04606835 -0.02538329
v 0.00265940 0.04318113 -0.02714041
v 0.00355582 0.04612584 -0.02602461
v 0.00351917 0.04828486 -0.02534646
v 0.00279936 0.04937396 -0.02506914
v 0.00146972 0.05237615 -0.02381034
v -0.00269582 0.05367284 -0.02310836
v -0.00269582 0.05237615 -0.02379951
v -0.00269582 0.05066746 -0.02466398
v -0.00398713 0.04941867 -0.02508864
v -0.00472194 0.05018519 -0.02448199
v -0.00537676 0.04885017 -0.02483948
v -0.00598493 0.04745766 -0.02512114
v -0.00689468 0.05014686 -0.02340302
v -0.00628651 0.04612584 -0.02533780
v -0.00732790 0.04612584 -0.02451015
v -0.00745953 0.04538487 -0.02460332
v -0.00769446 0.04404027 -0.02477448
v -0.00808936 0.04820502 -0.02316903
v -0.00825765 0.05014686 -0.02194273
v -0.00855590 0.04820502 -0.02188856
v -0.00870919 0.02987247 -0.02612427
v -0.00836595 0.02987247 -0.02177807
v -0.00819933 0.05587978 -0.00814363
v -0.00777944 0.02987247 -0.02098509
v -0.00681804 0.02987247 -0.01989529
v 0.00717484 0.05490247 -0.00814363
v 0.00717651 0.02987247 -0.02176290
v 0.00732980 0.02987247 -0.02222655
v 0.00783966 0.02987247 -0.02397283
v 0.00779967 0.02987247 -0.02605927
v 0.00793131 0.03570119 -0.02397283
v 0.00787299 0.03778357 -0.02397283
v 0.00780967 0.03986914 -0.02397283
v 0.00770470 0.04195470 -0.02397283
v 0.00749976 0.04404027 -0.02397283
v 0.00706987 0.04820502 -0.02348752
v 0.00674829 0.04533058 -0.02508430
v 0.00673496 0.04538487 -0.02507564
v -0.00061138 0.04972847 -0.02521430
v 0.00667165 0.04538487 -0.02510597
v 0.00459554 0.04090713 -0.02709924
v 0.00314260 0.04195470 -0.02727041
v 0.00149971 0.02987247 -0.03001549
v 0.00147139 0.04195470 -0.02754773
v 0.00147139 0.04344941 -0.02721407
v 0.00146972 0.04820502 -0.02571045
v 0.00146972 0.04957198 -0.02515147
v -0.00269582 0.04962627 -0.02517313
v -0.00269582 0.04820502 -0.02571478
v -0.00386883 0.04313003 -0.02713608
v -0.00472194 0.04817627 -0.02532046
v -0.00532011 0.04195470 -0.02689992
v -0.00571667 0.04068995 -0.02703208
v -0.00641648 0.04538487 -0.02544179
v -0.00664975 0.04404027 -0.02563029
v -0.00785942 0.04281704 -0.02495214
v -0.00825431 0.04612584 -0.02346802
v -0.00799772 0.04142772 -0.02512980
v -0.00809769 0.03986914 -0.02528796
v -0.00699465 0.02987247 -0.02834071
v -0.00796439 0.05541029 -0.00814363
v -0.00638149 0.02987247 -0.01963746
v 0.00683494 0.05448408 -0.00814363
v 0.00567192 0.02987247 -0.01995595
v 0.00592018 0.02987247 -0.02019861
v 0.00678495 0.02987247 -0.02126891
v 0.00717318 0.02987247 -0.02786839
v 0.00704988 0.04195470 -0.02544396
v 0.00687992 0.04404027 -0.02523163
v 0.00725815 0.04538487 -0.02403567
v 0.00713319 0.04606835 -0.02406600
v 0.00677662 0.04538487 -0.02501280
v 0.00559361 0.04007354 -0.02674392
v -0.00061138 0.04820502 -0.02582095
v 0.00564026 0.02987247 -0.02870903
v 0.00359915 0.02987247 -0.02946734
v 0.00376243 0.04007354 -0.02747407
v -0.00061138 0.02987247 -0.03027549
v -0.00061138 0.04195470 -0.02764306
v -0.00061138 0.04360591 -0.02725524
v -0.00269582 0.04339193 -0.02719891
v -0.00269582 0.04195470 -0.02753690
v -0.00289076 0.02987247 -0.03008699
v -0.00478192 0.02987247 -0.02971217
v -0.00427872 0.04195470 -0.02727257
v -0.00596660 0.03929744 -0.02718158
v -0.00704464 0.04205371 -0.02575812
v -0.00674139 0.03994259 -0.02644493
v -0.00706963 0.05437868 -0.00814363
v -0.00412710 0.02987247 -0.01845450
v -0.00657310 0.05382934 -0.00814363
v 0.00623177 0.05386447 -0.00814363
v 0.00355582 0.02987247 -0.01892031
v -0.00078633 0.02987247 -0.03026899
v -0.00285577 0.02987247 -0.01796484
v -0.00602492 0.05326404 -0.00814363
v 0.00518871 0.05288716 -0.00814363
v 0.00162968 0.02987247 -0.01799951
v -0.00257918 0.02987247 -0.01792151
v -0.00488356 0.05261888 -0.00814363
v 0.00450223 0.05254223 -0.00814363
v -0.00012485 0.02987247 -0.01771135
v -0.00061138 0.02987247 -0.01764852
v -0.00277746 0.05199289 -0.00814363
v 0.00356082 0.05221965 -0.00814363
v 0.00146972 0.05199928 -0.00814363
v -0.00061138 0.05193221 -0.00814363
f 1 2 3
f 1 3 4
f 1 4 5
f 1 5 15
f 1 15 32
f 1 32 49
f 1 49 74
f 1 74 101
f 1 101 106
f 1 106 105
f 1 105 104
f 1 104 132
f 1 132 164
f 1 164 199
f 1 199 237
f 1 237 265
f 1 265 267
f 1 267 272
f 1 272 276
f 1 276 280
f 1 280 283
f 1 283 282
f 1 282 281
f 1 281 277
f 1 277 273
f 1 273 268
f 1 268 239
f 1 239 202
f 1 202 165
f 1 165 133
f 1 133 107
f 1 107 80
f 1 80 53
f 1 53 37
f 1 37 36
f 1 36 33
f 1 33 16
f 1 16 6
f 1 6 2
f 2 6 7
f 2 7 8
f 2 8 3
f 3 8 9
f 3 9 10
f 3 10 11
f 3 11 4
f 4 11 12
f 4 12 13
f 4 13 5
f 5 13 14
f 5 14 15
f 6 16 7
f 7 17 8
f 7 16 18
f 7 18 19
f 7 19 20
f 7 20 21
f 7 21 9
f 7 9 17
f 8 17 9
f 9 22 10
f 9 21 20
f 9 20 23
f 9 23 24
f 9 24 22
f 10 22 11
f 11 13 12
f 11 22 24
f 11 24 25
f 11 25 26
f 11 26 27
f 11 27 13
f 13 27 28
f 13 28 29
f 13 29 30
f 13 30 31
f 13 31 14
f 14 31 32
f 14 32 15
f 16 33 18
f 18 33 19
f 19 34 35
f 19 35 20
f 19 33 36
f 19 36 37
f 19 37 38
f 19 38 34
f 20 35 39
f 20 39 40
f 20 40 23
f 23 40 41
f 23 41 42
f 23 42 24
f 24 42 43
f 24 43 25
f 25 43 44
f 25 44 45
f 25 45 46
f 25 46 26
f 26 46 28
f 26 28 27
f 28 46 47
f 28 47 29
f 29 47 48
f 29 48 30
f 30 48 31
f 31 49 32
f 31 48 50
f 31 50 51
f 31 51 49
f 34 38 35
f 35 38 52
f 35 52 39
f 37 53 38
f 38 53 54
f 38 54 55
f 38 55 56
f 38 56 57
f 38 57 52
f 39 52 57
f 39 57 58
f 39 58 59
f 39 59 60
f 39 60 41
f 39 41 40
f 41 60 61
f 41 61 62
f 41 62 63
f 41 63 42
f 42 63 43
f 43 63 64
f 43 64 65
f 43 65 44
f 44 65 45
f 45 66 46
f 45 65 67
f 45 67 68
f 45 68 66
f 46 66 47
f 47 66 69
f 47 69 70
f 47 70 71
f 47 71 72
f 47 72 48
f 48 72 73
f 48 73 50
f 49 51 74
f 50 73 51
f 51 73 75
f 51 75 76
f 51 76 77
f 51 77 78
f 51 78 79
f 51 79 74
f 53 80 54
f 54 80 81
f 54 81 55
f 55 82 83
f 55 83 56
f 55 81 82
f 56 83 84
f 56 84 57
f 57 84 85
f 57 85 86
f 57 86 59
f 57 59 58
f 59 62 61
f 59 61 60
f 59 86 87
f 59 87 88
f 59 88 89
f 59 89 62
f 62 90 63
f 62 89 91
f 62 91 90
f 63 90 64
f 64 90 92
f 64 92 93
f 64 93 65
f 65 93 67
f 66 68 69
f 67 69 68
f 67 93 94
f 67 94 95
f 67 95 69
f 69 95 96
f 69 96 97
f 69 97 98
f 69 98 99
f 69 99 70
f 70 99 71
f 71 99 98
f 71 98 100
f 71 100 75
f 71 75 73
f 71 73 72
f 74 79 101
f 75 100 102
f 75 102 76
f 76 102 77
f 77 102 103
f 77 103 78
f 78 104 105
f 78 105 79
f 78 103 104
f 79 105 106
f 79 106 101
f 80 107 81
f 81 107 82
f 82 107 108
f 82 108 109
f 82 109 83
f 83 109 110
f 83 110 84
f 84 110 111
f 84 111 85
f 85 111 112
f 85 112 113
f 85 113 86
f 86 113 87
f 87 113 88
f 88 114 89
f 88 113 115
f 88 115 116
f 88 116 117
f 88 117 118
f 88 118 114
f 89 114 91
f 90 91 92
f 91 114 119
f 91 119 120
f 91 120 92
f 92 120 93
f 93 120 94
f 94 120 121
f 94 121 122
f 94 122 95
f 95 122 96
f 96 123 97
f 96 122 124
f 96 124 125
f 96 125 126
f 96 126 123
f 97 123 98
f 98 123 127
f 98 127 128
f 98 128 129
f 98 129 100
f 100 129 102
f 102 129 103
f 103 129 130
f 103 130 104
f 104 130 131
f 104 131 132
f 107 133 108
f 108 133 109
f 109 134 135
f 109 135 110
f 109 133 134
f 110 135 136
f 110 136 137
f 110 137 138
f 110 138 111
f 111 138 139
f 111 139 112
f 112 139 140
f 112 140 141
f 112 141 115
f 112 115 113
f 114 118 142
f 114 142 143
f 114 143 119
f 115 141 116
f 116 140 144
f 116 144 145
f 116 145 146
f 116 146 147
f 116 147 148
f 116 148 117
f 116 141 140
f 117 148 142
f 117 142 118
f 119 149 120
f 119 143 150
f 119 150 149
f 120 149 121
f 121 150 151
f 121 151 152
f 121 152 122
f 121 149 150
f 122 152 124
f 123 126 127
f 124 152 125
f 125 127 126
f 125 152 153
f 125 153 154
f 125 154 127
f 127 154 155
f 127 155 156
f 127 156 157
f 127 157 128
f 128 157 158
f 128 158 129
f 129 158 159
f 129 159 160
f 129 160 130
f 130 160 131
f 131 161 162
f 131 162 197
f 131 197 236
f 131 236 260
f 131 260 259
f 131 259 270
f 131 270 254
f 131 254 219
f 131 219 252
f 131 252 251
f 131 251 243
f 131 243 206
f 131 206 205
f 131 205 204
f 131 204 203
f 131 203 242
f 131 242 241
f 131 241 240
f 131 240 269
f 131 269 274
f 131 274 278
f 131 278 279
f 131 279 275
f 131 275 271
f 131 271 266
f 131 266 238
f 131 238 201
f 131 201 200
f 131 200 198
f 131 198 163
f 131 163 164
f 131 164 132
f 131 160 159
f 131 159 161
f 133 165 166
f 133 166 134
f 134 166 167
f 134 167 168
f 134 168 136
f 134 136 135
f 136 168 137
f 137 168 169
f 137 169 170
f 137 170 138
f 138 170 171
f 138 171 139
f 139 171 172
f 139 172 140
f 140 172 173
f 140 173 144
f 142 174 143
f 142 148 174
f 143 174 175
f 143 175 150
f 144 173 145
f 145 173 176
f 145 176 177
f 145 177 178
f 145 178 179
f 145 179 146
f 146 179 180
f 146 180 147
f 147 180 148
f 148 180 181
f 148 181 174
f 150 175 151
f 151 175 182
f 151 182 152
f 152 182 183
f 152 183 184
f 152 184 185
f 152 185 153
f 153 185 186
f 153 186 154
f 154 186 187
f 154 187 188
f 154 188 189
f 154 189 155
f 155 189 188
f 155 188 156
f 156 188 190
f 156 190 191
f 156 191 192
f 156 192 193
f 156 193 194
f 156 194 157
f 157 195 158
f 157 194 195
f 158 195 196
f 158 196 159
f 159 196 161
f 161 196 197
f 161 197 162
f 163 198 164
f 164 198 200
f 164 200 201
f 164 201 199
f 165 202 203
f 165 203 204
f 165 204 205
f 165 205 166
f 166 205 167
f 167 205 206
f 167 206 207
f 167 207 168
f 168 207 169
f 169 207 208
f 169 208 209
f 169 209 210
f 169 210 170
f 170 210 211
f 170 211 212
f 170 212 171
f 171 212 172
f 172 212 213
f 172 213 214
f 172 214 173
f 173 214 176
f 174 181 215
f 174 215 175
f 175 184 183
f 175 183 182
f 175 215 184
f 176 214 216
f 176 216 217
f 176 217 177
f 177 217 218
f 177 218 219
f 177 219 220
f 177 220 221
f 177 221 222
f 177 222 179
f 177 179 178
f 179 222 180
f 180 222 223
f 180 223 181
f 181 223 215
f 184 215 224
f 184 224 185
f 185 224 225
f 185 225 226
f 185 226 227
f 185 227 187
f 185 187 186
f 187 227 188
f 188 227 226
f 188 226 228
f 188 228 190
f 190 228 229
f 190 229 230
f 190 230 191
f 191 230 231
f 191 231 192
f 192 231 193
f 193 231 232
f 193 232 194
f 194 233 196
f 194 196 195
f 194 232 234
f 194 234 233
f 196 233 197
f 197 233 235
f 197 235 236
f 199 201 237
f 201 238 237
f 202 239 240
f 202 240 241
f 202 241 242
f 202 242 203
f 206 243 210
f 206 210 209
f 206 209 208
f 206 208 207
f 210 243 211
f 211 243 244
f 211 244 245
f 211 245 246
f 211 246 212
f 212 246 247
f 212 247 248
f 212 248 213
f 213 245 243
f 213 243 249
f 213 249 217
f 213 217 216
f 213 216 214
f 213 248 245
f 215 223 222
f 215 222 250
f 215 250 224
f 217 249 251
f 217 251 252
f 217 252 219
f 217 219 253
f 217 253 218
f 218 253 219
f 219 254 220
f 220 254 255
f 220 255 221
f 221 255 256
f 221 256 250
f 221 250 222
f 224 250 225
f 225 250 256
f 225 256 257
f 225 257 226
f 226 257 258
f 226 258 259
f 226 259 260
f 226 260 261
f 226 261 228
f 228 261 260
f 228 260 229
f 229 260 262
f 229 262 231
f 229 231 230
f 231 263 232
f 231 262 263
f 232 263 264
f 232 264 236
f 232 236 234
f 233 234 235
f 234 236 235
f 236 264 262
f 236 262 260
f 237 238 265
f 238 266 267
f 238 267 265
f 239 268 240
f 240 268 269
f 243 251 249
f 243 245 244
f 245 248 246
f 246 248 247
f 254 270 255
f 255 270 258
f 255 258 256
f 256 258 257
f 258 270 259
f 262 264 263
f 266 271 272
f 266 272 267
f 268 273 274
f 268 274 269
f 271 275 276
f 271 276 272
f 273 277 274
f 274 277 278
f 275 279 276
f 276 279 280
f 277 281 278
f 278 281 279
f 279 281 282
f 279 282 283
f 279 283 280

