# https://github.com/mikedh/trimesh
v -0.01270578 -0.05394747 0.05303477
v -0.01521088 -0.05186714 0.05296888
v -0.01729482 -0.05186714 0.05308183
v -0.01312694 -0.05394747 0.05303477
v -0.01270578 -0.05531881 0.05246061
v -0.01270578 -0.05196230 0.05260180
v -0.02767896 -0.04407757 0.05274298
v -0.02354937 -0.04769529 0.05300653
v -0.02146543 -0.04978122 0.05299712
v -0.01945807 -0.05200334 0.05270533
v -0.01729482 -0.05344931 0.05258297
v -0.01515345 -0.05404263 0.05269592
v -0.01312694 -0.05527030 0.05242296
v -0.01270578 -0.05592519 0.05106757
v -0.02603806 -0.04407757 0.05247943
v -0.01270578 -0.05103128 0.05106757
v -0.01414156 -0.05081485 0.05212176
v -0.02505352 -0.04407757 0.05166055
v -0.02972461 -0.04407757 0.05264886
v -0.02788954 -0.04578661 0.05272416
v -0.02573449 -0.04780724 0.05272416
v -0.02345912 -0.04978868 0.05261121
v -0.02146543 -0.05135592 0.05251709
v -0.01881538 -0.05312654 0.05233825
v -0.01442599 -0.05507999 0.05223471
v -0.01312694 -0.05581883 0.05106757
v -0.01270578 -0.05643827 0.04900625
v -0.01270578 -0.05065999 0.04932627
v -0.02445459 -0.04407757 0.05073814
v -0.02927883 -0.04520823 0.05244179
v -0.03035635 -0.04407757 0.05216882
v -0.03066812 -0.04438729 0.05179233
v -0.02731249 -0.04718780 0.05244179
v -0.02510822 -0.04910021 0.05242296
v -0.02270157 -0.05095665 0.05225354
v -0.02020467 -0.05279070 0.05182056
v -0.01581254 -0.05480013 0.05150995
v -0.01515345 -0.05521619 0.05091697
v -0.01312694 -0.05633005 0.04898743
v -0.01270578 -0.05682075 0.04701082
v -0.01270578 -0.05060215 0.04888389
v -0.02395412 -0.04407757 0.04898743
v -0.02403617 -0.04407757 0.04929804
v -0.02870452 -0.04659822 0.05201823
v -0.03104553 -0.04407757 0.05150995
v -0.03141473 -0.04407757 0.05069107
v -0.03099357 -0.04475111 0.05039929
v -0.02649478 -0.04857780 0.05169821
v -0.02409360 -0.05048648 0.05106757
v -0.02305163 -0.05119920 0.05106757
v -0.02137791 -0.05230373 0.05110522
v -0.02062310 -0.05303325 0.05042753
v -0.01945807 -0.05339334 0.05110522
v -0.01712252 -0.05445309 0.05091697
v -0.01631302 -0.05501096 0.05011692
v -0.01521088 -0.05565651 0.04898743
v -0.01300114 -0.05676291 0.04684139
v -0.01270578 -0.05689538 0.04656843
v -0.01270578 -0.05042864 0.04689787
v -0.01270578 -0.05038199 0.04481772
v -0.02390763 -0.04407757 0.04689787
v -0.02774459 -0.04773074 0.05117111
v -0.02899714 -0.04688368 0.05063460
v -0.03200545 -0.04407757 0.04898743
v -0.03122329 -0.04499180 0.04898743
v -0.02678740 -0.04882594 0.05031458
v -0.02573449 -0.04935582 0.05103933
v -0.02442451 -0.05070664 0.04961806
v -0.02470893 -0.05090068 0.04822502
v -0.02191668 -0.05252949 0.04898743
v -0.02087471 -0.05317691 0.04898743
v -0.01938149 -0.05396613 0.04898743
v -0.01766675 -0.05474042 0.04898743
v -0.01662479 -0.05513410 0.04898743
v -0.01521088 -0.05603153 0.04689787
v -0.01270578 -0.05701293 0.04567425
v -0.01270578 -0.05037826 0.04423415
v -0.02381465 -0.04407757 0.03647832
v -0.03027157 -0.04603476 0.04898743
v -0.02923234 -0.04710571 0.04898743
v -0.02804269 -0.04814867 0.04898743
v -0.03248131 -0.04407757 0.04689787
v -0.03146122 -0.04523435 0.04689787
v -0.02700072 -0.04901252 0.04898743
v -0.02549656 -0.05013944 0.04894977
v -0.02594234 -0.05028311 0.04689787
v -0.02490311 -0.05103501 0.04689787
v -0.02354937 -0.05191006 0.04689787
v -0.02222298 -0.05273846 0.04689787
v -0.02241988 -0.05285973 0.04553307
v -0.02118101 -0.05333363 0.04689787
v -0.01917638 -0.05443444 0.04670021
v -0.01807698 -0.05488595 0.04727436
v -0.01834499 -0.05499417 0.04588132
v -0.01734678 -0.05526097 0.04670021
v -0.01729482 -0.05553710 0.04481772
v -0.01439317 -0.05714539 0.04023387
v -0.01414156 -0.05705957 0.04161750
v -0.01270578 -0.05712114 0.04481772
v -0.01270578 -0.05036147 0.03647832
v -0.02380918 -0.04407757 0.03459583
v -0.03047942 -0.04627544 0.04689787
v -0.02943745 -0.04730908 0.04689787
v -0.02830797 -0.04835204 0.04689787
v -0.02726600 -0.04924201 0.04689787
v -0.03252233 -0.04407757 0.04665314
v -0.03291068 -0.04455894 0.04163632
v -0.03087323 -0.04668591 0.04189987
v -0.02617480 -0.05044543 0.04481772
v -0.02513557 -0.05120853 0.04481772
v -0.02339348 -0.05235411 0.04482713
v -0.02259491 -0.05295862 0.04414003
v -0.02162131 -0.05339707 0.04482713
v -0.01951003 -0.05452026 0.04481772
v -0.02052738 -0.05504454 0.03597004
v -0.01896853 -0.05527963 0.04064802
v -0.01634310 -0.05710994 0.03376753
v -0.01729482 -0.05576659 0.04272816
v -0.01465571 -0.05723122 0.03855846
v -0.01312694 -0.05769580 0.03855846
v -0.01331838 -0.05739727 0.04081744
v -0.01288901 -0.05731331 0.04272816
v -0.01270578 -0.05725921 0.04367882
v -0.01270578 -0.05036893 0.03439817
v -0.02383379 -0.04407757 0.03230861
v -0.02876742 -0.04874945 0.04176810
v -0.02851581 -0.04851250 0.04481772
v -0.02747111 -0.04940247 0.04481772
v -0.03279855 -0.04407757 0.04481772
v -0.03310759 -0.04407757 0.04272816
v -0.03332364 -0.04407757 0.04116570
v -0.03445859 -0.04407757 0.03230861
v -0.03461721 -0.04407757 0.03104735
v -0.03300366 -0.04465969 0.04024328
v -0.03245123 -0.04611685 0.03439817
v -0.03231175 -0.04596573 0.03647832
v -0.03126705 -0.04709078 0.03647832
v -0.03111937 -0.04693593 0.03855846
v -0.03004731 -0.04797889 0.03855846
v -0.02989143 -0.04782403 0.04064802
v -0.02532974 -0.05134846 0.04272816
v -0.02665613 -0.05079806 0.03950911
v -0.02379003 -0.05239143 0.04272816
v -0.02274806 -0.05305377 0.04272816
v -0.02171430 -0.05455385 0.03439817
v -0.02067233 -0.05512291 0.03439817
v -0.02252654 -0.05708569 0.00429724
v -0.02161037 -0.05745698 0.00506905
v -0.02146543 -0.05771072 0.00313951
v -0.02120015 -0.05744205 0.00729980
v -0.01949909 -0.05665097 0.02396920
v -0.01938149 -0.05571995 0.03439817
v -0.01956746 -0.05542516 0.03659126
v -0.01921193 -0.05538784 0.03855846
v -0.02295317 -0.05318437 0.04064802
v -0.01834499 -0.05707823 0.02505163
v -0.01938149 -0.05985262 -0.00936960
v -0.01627746 -0.06125008 -0.01238158
v -0.01534489 -0.06150196 -0.01160035
v -0.01537224 -0.05737488 0.03443582
v -0.01495381 -0.05732824 0.03647832
v -0.01312694 -0.05788424 0.03647832
v -0.01270578 -0.05775550 0.03897261
v -0.01270578 -0.05048088 0.02605876
v -0.02392677 -0.04407757 0.03022846
v -0.03019773 -0.04813375 0.03647832
v -0.03034815 -0.04828114 0.03439817
v -0.02900535 -0.04896961 0.03855846
v -0.02794150 -0.05014877 0.03647832
v -0.02676826 -0.05089694 0.03812549
v -0.03471566 -0.04407757 0.03022846
v -0.03466643 -0.04414287 0.03022846
v -0.03362173 -0.04537988 0.03022846
v -0.03292435 -0.04665233 0.02708471
v -0.03140926 -0.04723818 0.03439817
v -0.02551844 -0.05147347 0.04064802
v -0.02463783 -0.05293996 0.03362635
v -0.02399241 -0.05251643 0.04064802
v -0.02333605 -0.05341386 0.03647832
v -0.02467885 -0.05504454 0.01307903
v -0.02374628 -0.05550539 0.01368142
v -0.02464056 -0.05710435 -0.00799539
v -0.02371893 -0.05752042 -0.00729887
v -0.02336066 -0.05751482 -0.00519990
v -0.02082001 -0.05936193 -0.01145916
v -0.02050004 -0.05919774 -0.00790127
v -0.01938149 -0.06002800 -0.01145916
v -0.01521088 -0.06166428 -0.01353931
v -0.01842157 -0.06127993 -0.02447654
v -0.01748352 -0.06155420 -0.02385533
v -0.01729208 -0.06175010 -0.02605783
v -0.01312694 -0.06221095 -0.01353931
v -0.01312694 -0.06206729 -0.01145916
v -0.01270578 -0.05793835 0.03689246
v -0.01270578 -0.05049767 0.02553166
v -0.02453937 -0.04407757 0.02187964
v -0.03049856 -0.04842108 0.03230861
v -0.02915850 -0.04910395 0.03647832
v -0.02810285 -0.05027938 0.03439817
v -0.02706362 -0.05112084 0.03439817
v -0.02579193 -0.05228694 0.03230861
v -0.03473481 -0.04407757 0.03006845
v -0.03507119 -0.04464476 0.02344211
v -0.03154327 -0.04737998 0.03230861
v -0.03428083 -0.04579967 0.02187964
v -0.03453243 -0.04609820 0.01771935
v -0.03465550 -0.04624559 0.01562979
v -0.03506025 -0.04671390 0.00877755
v -0.03527357 -0.04694898 0.00521024
v -0.03361626 -0.04739304 0.01562979
v -0.03294623 -0.04876064 0.01059415
v -0.03223244 -0.04803113 0.02187964
v -0.03085135 -0.04874758 0.02716943
v -0.02475269 -0.05301459 0.03230861
v -0.02492225 -0.05312467 0.03022846
v -0.02671903 -0.05502029 0.00030637
v -0.02681748 -0.05509119 -0.00103020
v -0.02696790 -0.05519567 -0.00311975
v -0.02578099 -0.05652223 -0.00936960
v -0.02592320 -0.05661738 -0.01145916
v -0.02473628 -0.05716032 -0.00936960
v -0.02375174 -0.05869771 -0.02188813
v -0.02259218 -0.05920520 -0.02028802
v -0.02099777 -0.05944215 -0.01353931
v -0.02146543 -0.05984143 -0.02188813
v -0.01520815 -0.06211953 -0.02188813
v -0.02146543 -0.05995524 -0.02397769
v -0.01852276 -0.06132098 -0.02605783
v -0.01729208 -0.06182287 -0.02814739
v -0.01270851 -0.06313077 -0.03022754
v -0.01520815 -0.06221282 -0.02397769
v -0.01270578 -0.06223894 -0.01312516
v -0.01270578 -0.06209900 -0.01103560
v -0.01270578 -0.05057603 0.02411980
v -0.02473355 -0.04407757 0.01979950
v -0.02467612 -0.04407757 0.02038307
v -0.02930891 -0.04923642 0.03439817
v -0.02825874 -0.05040811 0.03230861
v -0.02721950 -0.05124398 0.03230861
v -0.02596148 -0.05240448 0.03022846
v -0.03639211 -0.04407757 0.01562979
v -0.03710043 -0.04457760 0.00630208
v -0.03728367 -0.04481082 0.00313951
v -0.03516144 -0.04475858 0.02187964
v -0.03528177 -0.04490970 0.01979950
v -0.03540484 -0.04505523 0.01771935
v -0.03667927 -0.04615044 -0.00103020
v -0.03539390 -0.04708519 0.00313951
v -0.03468285 -0.04839495 -0.00103020
v -0.03443124 -0.04812815 0.00313951
v -0.03302007 -0.04883341 0.00937994
v -0.03292162 -0.05081858 -0.00627292
v -0.03145575 -0.04932224 0.01771935
v -0.03092246 -0.04881662 0.02605876
v -0.03045207 -0.05048648 0.01562979
v -0.03030986 -0.05036334 0.01771935
v -0.02945386 -0.04936515 0.03230861
v -0.02612010 -0.05251643 0.02813891
v -0.02666980 -0.05290451 0.02082545
v -0.02677099 -0.05297914 0.01943241
v -0.02689406 -0.05307056 0.01771935
v -0.02786219 -0.05433928 -0.00103020
v -0.02801260 -0.05444936 -0.00311975
v -0.02815755 -0.05455571 -0.00519990
v -0.02711285 -0.05529456 -0.00519990
v -0.02752307 -0.05557442 -0.01145916
v -0.02606814 -0.05670134 -0.01353931
v -0.02738906 -0.05548113 -0.00936960
v -0.02668895 -0.05708383 -0.02277290
v -0.02516565 -0.05740287 -0.01551592
v -0.02580013 -0.05754467 -0.02200108
v -0.02563604 -0.05777416 -0.02397769
v -0.02388849 -0.05876115 -0.02397769
v -0.02284378 -0.05933394 -0.02397769
v -0.02270977 -0.05926491 -0.02188813
v -0.02546101 -0.05756892 -0.01980798
v -0.02165687 -0.05959142 -0.01967621
v -0.02294497 -0.05938991 -0.02605783
v -0.02302428 -0.05943282 -0.02814739
v -0.01860480 -0.06135456 -0.02814739
v -0.01729208 -0.06183966 -0.03022754
v -0.01270851 -0.06313637 -0.03098994
v -0.01270578 -0.06232290 -0.01551592
v -0.01270578 -0.06231356 -0.01520531
v -0.01270578 -0.06225573 -0.01353931
v -0.01270578 -0.05147907 0.01515917
v -0.03475942 -0.04407757 -0.04307549
v -0.02560869 -0.04407757 0.01354965
v -0.02498242 -0.04407757 0.01758758
v -0.02876468 -0.05082978 0.02507046
v -0.02736718 -0.05136339 0.03022846
v -0.03663004 -0.04407757 0.01354965
v -0.03739579 -0.04407757 0.00675388
v -0.03848699 -0.04407757 -0.00311975
v -0.03871125 -0.04407757 -0.00519990
v -0.03751339 -0.04510934 -0.00103020
v -0.03655894 -0.04600304 0.00104995
v -0.03762825 -0.04524927 -0.00311975
v -0.03678319 -0.04629224 -0.00311975
v -0.03563457 -0.04735386 -0.00103020
v -0.03363814 -0.04946217 -0.00103020
v -0.03506846 -0.04880169 -0.00776949
v -0.03515324 -0.04889311 -0.00936960
v -0.03526263 -0.04900879 -0.01145916
v -0.03433552 -0.05016557 -0.01353931
v -0.03443945 -0.05026818 -0.01551592
v -0.03455158 -0.05037826 -0.01771842
v -0.03465823 -0.05047901 -0.01980798
v -0.03345491 -0.05119547 -0.01551592
v -0.03339748 -0.05124771 -0.01551592
v -0.03256882 -0.05259293 -0.02188813
v -0.03235277 -0.05239329 -0.01771842
v -0.03124517 -0.05315079 -0.01551592
v -0.03107561 -0.05310601 -0.01353931
v -0.03095801 -0.05300526 -0.01145916
v -0.03087870 -0.05293996 -0.01010377
v -0.03030165 -0.05246606 -0.00103020
v -0.03127525 -0.05120293 0.00313951
v -0.03114398 -0.05108912 0.00521024
v -0.03100997 -0.05097344 0.00729980
v -0.03090878 -0.05088388 0.00887167
v -0.02876195 -0.05291384 0.00630208
v -0.02897800 -0.05308362 0.00313951
v -0.02912021 -0.05319184 0.00104995
v -0.02953043 -0.05351648 -0.00519990
v -0.02829703 -0.05464900 -0.00728946
v -0.02764887 -0.05566025 -0.01353931
v -0.02875101 -0.05498111 -0.01462174
v -0.02779655 -0.05641401 -0.02397769
v -0.02675732 -0.05713047 -0.02397769
v -0.02686124 -0.05719391 -0.02605783
v -0.02692961 -0.05723682 -0.02814739
v -0.02306530 -0.05944029 -0.03022754
v -0.01863215 -0.06136016 -0.03022754
v -0.01863215 -0.06136576 -0.03230768
v -0.01729208 -0.06182847 -0.03230768
v -0.01270851 -0.06310652 -0.03222297
v -0.01270578 -0.06013808 -0.01551592
v -0.01270851 -0.06296472 -0.03393603
v -0.01270851 -0.06277441 -0.03578087
v -0.01270851 -0.06244977 -0.03817162
v -0.01270851 -0.06236954 -0.03856695
v -0.01270851 -0.06178369 -0.04076004
v -0.01270851 -0.06141240 -0.04186129
v -0.01270851 -0.06136016 -0.04199307
v -0.01270851 -0.06130792 -0.04211543
v -0.01270851 -0.06091051 -0.04290607
v -0.01270851 -0.06081722 -0.04307549
v -0.01270578 -0.05212649 0.00937994
v -0.01270851 -0.05807828 -0.04307549
v -0.03812599 -0.04407757 -0.04307549
v -0.02988049 -0.05213208 0.00521024
v -0.03773218 -0.04538174 -0.00519990
v -0.03892182 -0.04407757 -0.00744006
v -0.03886166 -0.04414287 -0.00728946
v -0.03714693 -0.04671576 -0.00989670
v -0.03630460 -0.04784455 -0.01145916
v -0.03640852 -0.04795650 -0.01353931
v -0.03536382 -0.04912260 -0.01353931
v -0.03545954 -0.04922708 -0.01551592
v -0.03555799 -0.04933530 -0.01771842
v -0.03565098 -0.04943418 -0.01980798
v -0.03475122 -0.05056484 -0.02188813
v -0.03370651 -0.05154810 -0.02188813
v -0.03361079 -0.05144921 -0.01980798
v -0.03268095 -0.05267502 -0.02397769
v -0.03152959 -0.05347357 -0.02188813
v -0.03142020 -0.05338774 -0.01980798
v -0.03130807 -0.05329819 -0.01771842
v -0.03119594 -0.05320490 -0.01563828
v -0.02996527 -0.05433928 -0.01771842
v -0.02964256 -0.05438593 -0.01551592
v -0.03002270 -0.05224589 0.00313951
v -0.02880023 -0.05502029 -0.01551592
v -0.02915850 -0.05528523 -0.02188813
v -0.02927336 -0.05537105 -0.02397769
v -0.02938549 -0.05545688 -0.02605783
v -0.02790595 -0.05649984 -0.02605783
v -0.02797432 -0.05656514 -0.02814739
v -0.02695149 -0.05725174 -0.03022754
v -0.02692961 -0.05724428 -0.03230768
v -0.02304342 -0.05941603 -0.03230768
v -0.01854190 -0.06132844 -0.03439724
v -0.01729208 -0.06175757 -0.03439724
v -0.01520815 -0.06215871 -0.03647739
v -0.01270578 -0.05482625 -0.00648940
v -0.01520815 -0.06182660 -0.03856695
v -0.01312421 -0.06229118 -0.03856695
v -0.01324181 -0.06166242 -0.04079769
v -0.01520815 -0.06142173 -0.04012941
v -0.01635951 -0.06128180 -0.03970585
v -0.01739601 -0.05965485 -0.04285901
v -0.01728388 -0.05959515 -0.04307549
v -0.01366844 -0.06057094 -0.04307549
v -0.01270578 -0.05241381 0.00729980
v -0.01270578 -0.05270674 0.00552085
v -0.01270578 -0.05449228 -0.00519990
v -0.01270578 -0.05457064 -0.00559522
v -0.03743135 -0.04500299 -0.04307549
v -0.03822445 -0.04407757 -0.04292490
v -0.03919531 -0.04459065 -0.01439584
v -0.03845691 -0.04570638 -0.01563828
v -0.03950708 -0.04407757 -0.01396287
v -0.03722077 -0.04680159 -0.01145916
v -0.03864288 -0.04595080 -0.01980798
v -0.03731922 -0.04691353 -0.01353931
v -0.03736298 -0.04707399 -0.01551592
v -0.03649877 -0.04806098 -0.01551592
v -0.03660270 -0.04816920 -0.01771842
v -0.03669021 -0.04827554 -0.01980798
v -0.03678046 -0.04837630 -0.02188813
v -0.03707582 -0.04872333 -0.02964396
v -0.03573302 -0.04952374 -0.02188813
v -0.03503290 -0.05084657 -0.02887215
v -0.03278761 -0.05275711 -0.02605783
v -0.03163898 -0.05355566 -0.02397769
v -0.03031533 -0.05459489 -0.02397769
v -0.03020047 -0.05451093 -0.02188813
v -0.03008287 -0.05442884 -0.01980798
v -0.03042746 -0.05466206 -0.02605783
v -0.02947574 -0.05552031 -0.02814739
v -0.02953317 -0.05553897 -0.03022754
v -0.02799073 -0.05658193 -0.03022754
v -0.02797432 -0.05656514 -0.03230768
v -0.02788954 -0.05651850 -0.03439724
v -0.02684483 -0.05718644 -0.03439724
v -0.02563604 -0.05786372 -0.03439724
v -0.02392130 -0.05879287 -0.03439724
v -0.02287934 -0.05933767 -0.03439724
v -0.01841336 -0.06127807 -0.03563968
v -0.01735772 -0.06151502 -0.03639267
v -0.01667401 -0.06139001 -0.03856695
v -0.02088565 -0.05936193 -0.04013882
v -0.01949362 -0.05969030 -0.04076004
v -0.01887555 -0.05938618 -0.04225661
v -0.01760385 -0.05949813 -0.04307549
v -0.02128767 -0.05956156 -0.03856695
v -0.03754074 -0.04515039 -0.04273665
v -0.03684609 -0.04573624 -0.04307549
v -0.03708949 -0.04664860 -0.04167304
v -0.03829555 -0.04407757 -0.04281195
v -0.04017164 -0.04407757 -0.02182224
v -0.03926642 -0.04462424 -0.01551592
v -0.03924454 -0.04465596 -0.01551592
v -0.03882337 -0.04619335 -0.02397769
v -0.03741767 -0.04702361 -0.01563828
v -0.03769116 -0.04733520 -0.02188813
v -0.03777867 -0.04743595 -0.02397769
v -0.03785798 -0.04752551 -0.02605783
v -0.03889995 -0.04630530 -0.02605783
v -0.03893277 -0.04637619 -0.02814739
v -0.03709770 -0.04874385 -0.03103700
v -0.03629093 -0.04957785 -0.03029342
v -0.03506572 -0.05087269 -0.03022754
v -0.03286145 -0.05282988 -0.02814739
v -0.03174291 -0.05362096 -0.02605783
v -0.03052044 -0.05470871 -0.02814739
v -0.03058061 -0.05474416 -0.03022754
v -0.03059428 -0.05476281 -0.03230768
v -0.02955505 -0.05552031 -0.03230768
v -0.02948941 -0.05547740 -0.03439724
v -0.02674638 -0.05712301 -0.03595029
v -0.02582201 -0.05756892 -0.03658092
v -0.02343450 -0.05878540 -0.03667505
v -0.02250466 -0.05915109 -0.03750334
v -0.02166781 -0.05965112 -0.03667505
v -0.02232963 -0.05902982 -0.03856695
v -0.02532153 -0.05747750 -0.03856695
v -0.02490037 -0.05726294 -0.04019529
v -0.02371619 -0.05769953 -0.04078828
v -0.02452296 -0.05700173 -0.04158833
v -0.02313367 -0.05739541 -0.04230368
v -0.01914083 -0.05885817 -0.04307549
v -0.03631827 -0.04636873 -0.04307549
v -0.03671209 -0.04619335 -0.04273665
v -0.03508213 -0.04881662 -0.04179541
v -0.03532553 -0.04906663 -0.04064709
v -0.03651244 -0.04765611 -0.04084475
v -0.03731375 -0.04693779 -0.04028942
v -0.03901481 -0.04433132 -0.04104241
v -0.03909686 -0.04407757 -0.04125890
v -0.03545133 -0.04736318 -0.04307549
v -0.04035214 -0.04407757 -0.02397769
v -0.03951255 -0.04502911 -0.02188813
v -0.03960006 -0.04515039 -0.02397769
v -0.03966844 -0.04526420 -0.02605783
v -0.03972313 -0.04533696 -0.02814739
v -0.03974228 -0.04535375 -0.03022754
v -0.03893277 -0.04639485 -0.03022754
v -0.03709770 -0.04874385 -0.03137585
v -0.03507392 -0.05088388 -0.03230768
v -0.03893824 -0.04639485 -0.03230768
v -0.03288880 -0.05286160 -0.03022754
v -0.03289153 -0.05286533 -0.03230768
v -0.03181675 -0.05369000 -0.03439724
v -0.03053138 -0.05473296 -0.03439724
v -0.02930618 -0.05537479 -0.03647739
v -0.02755315 -0.05652223 -0.03658092
v -0.02664793 -0.05703345 -0.03734333
v -0.02636624 -0.05685807 -0.03856695
v -0.02735898 -0.05546621 -0.04064709
v -0.02561143 -0.05657634 -0.04078828
v -0.02694876 -0.05517701 -0.04206837
v -0.02600524 -0.05527030 -0.04307549
v -0.02552938 -0.05555576 -0.04307549
v -0.02390216 -0.05652596 -0.04307549
v -0.02371619 -0.05673306 -0.04289666
v -0.02342903 -0.05679090 -0.04307549
v -0.02179087 -0.05760251 -0.04307549
v -0.03297905 -0.05086523 -0.04175776
v -0.03425074 -0.05011146 -0.04064709
v -0.03474575 -0.04813561 -0.04307549
v -0.03442851 -0.04846958 -0.04307549
v -0.03353695 -0.04935582 -0.04307549
v -0.03260985 -0.05027191 -0.04307549
v -0.03462268 -0.05047155 -0.03856695
v -0.03567559 -0.04942672 -0.03856695
v -0.03671756 -0.04828301 -0.03856695
v -0.03753800 -0.04724191 -0.03856695
v -0.03923086 -0.04407757 -0.04084475
v -0.03918984 -0.04458133 -0.03964937
v -0.03942230 -0.04407757 -0.04006352
v -0.04039316 -0.04407757 -0.02450478
v -0.04051076 -0.04407757 -0.02649080
v -0.04048888 -0.04407757 -0.02605783
v -0.04059281 -0.04407757 -0.02814739
v -0.04064477 -0.04407757 -0.03022754
v -0.03974228 -0.04535375 -0.03230768
v -0.03892456 -0.04634448 -0.03439724
v -0.03788260 -0.04759640 -0.03439724
v -0.03704300 -0.04869721 -0.03276889
v -0.03504658 -0.05086149 -0.03388897
v -0.03285872 -0.05282615 -0.03439724
v -0.03164172 -0.05357245 -0.03647739
v -0.03035088 -0.05461169 -0.03647739
v -0.02904363 -0.05519567 -0.03810574
v -0.02839821 -0.05471990 -0.04064709
v -0.03070641 -0.05277950 -0.04140008
v -0.02924875 -0.05326460 -0.04273665
v -0.02913388 -0.05317878 -0.04307549
v -0.02800713 -0.05394747 -0.04307549
v -0.02709917 -0.05454825 -0.04307549
v -0.03102365 -0.05305004 -0.04001646
v -0.03320877 -0.05106486 -0.04064709
v -0.03236918 -0.05049394 -0.04307549
v -0.03155147 -0.05122719 -0.04307549
v -0.02986682 -0.05261158 -0.04307549
v -0.03029345 -0.05245672 -0.04273665
v -0.03358345 -0.05138764 -0.03856695
v -0.03268095 -0.05267875 -0.03647739
v -0.03488796 -0.05070477 -0.03647739
v -0.03584788 -0.04966367 -0.03647739
v -0.03689259 -0.04852182 -0.03647739
v -0.03775953 -0.04748259 -0.03647739
v -0.03879876 -0.04612618 -0.03647739
v -0.03857997 -0.04579408 -0.03856695
v -0.03953169 -0.04508508 -0.03647739
v -0.04019079 -0.04407757 -0.03649621
v -0.03996653 -0.04407757 -0.03754099
v -0.04063383 -0.04407757 -0.03230768
v -0.03969305 -0.04530338 -0.03439724
v -0.03697463 -0.04863750 -0.03439724
v -0.03499188 -0.05080552 -0.03527259
v -0.03234457 -0.05242874 -0.03856695
v -0.03130534 -0.05330192 -0.03856695
v -0.02992425 -0.05360977 -0.04068474
v -0.04052990 -0.04407757 -0.03439724
v -0.04045607 -0.04407757 -0.03486786
v -0.04062016 -0.04407757 -0.03261829
f 1 2 3
f 1 3 4
f 1 4 5
f 1 5 14
f 1 14 27
f 1 27 40
f 1 40 58
f 1 58 76
f 1 76 99
f 1 99 123
f 1 123 163
f 1 163 194
f 1 194 233
f 1 233 232
f 1 232 285
f 1 285 284
f 1 284 283
f 1 283 338
f 1 338 386
f 1 386 398
f 1 398 397
f 1 397 396
f 1 396 395
f 1 395 349
f 1 349 286
f 1 286 234
f 1 234 195
f 1 195 164
f 1 164 124
f 1 124 100
f 1 100 77
f 1 77 60
f 1 60 59
f 1 59 41
f 1 41 28
f 1 28 16
f 1 16 6
f 1 6 2
f 2 7 8
f 2 8 3
f 2 6 7
f 3 8 9
f 3 9 10
f 3 10 11
f 3 11 4
f 4 11 12
f 4 12 13
f 4 13 5
f 5 13 14
f 6 15 7
f 6 16 17
f 6 17 18
f 6 18 15
f 7 15 18
f 7 18 29
f 7 29 43
f 7 43 42
f 7 42 61
f 7 61 78
f 7 78 101
f 7 101 125
f 7 125 165
f 7 165 196
f 7 196 236
f 7 236 235
f 7 235 289
f 7 289 288
f 7 288 287
f 7 287 351
f 7 351 400
f 7 400 441
f 7 441 481
f 7 481 520
f 7 520 522
f 7 522 559
f 7 559 558
f 7 558 568
f 7 568 567
f 7 567 569
f 7 569 560
f 7 560 527
f 7 527 526
f 7 526 524
f 7 524 525
f 7 525 523
f 7 523 483
f 7 483 442
f 7 442 403
f 7 403 354
f 7 354 295
f 7 295 294
f 7 294 293
f 7 293 292
f 7 292 241
f 7 241 202
f 7 202 171
f 7 171 133
f 7 133 132
f 7 132 131
f 7 131 130
f 7 130 129
f 7 129 106
f 7 106 82
f 7 82 64
f 7 64 46
f 7 46 45
f 7 45 31
f 7 31 19
f 7 19 8
f 8 19 20
f 8 20 9
f 9 20 21
f 9 21 22
f 9 22 23
f 9 23 10
f 10 23 11
f 11 23 24
f 11 24 25
f 11 25 13
f 11 13 12
f 13 25 14
f 14 25 26
f 14 26 27
f 16 18 17
f 16 28 29
f 16 29 18
f 19 30 20
f 19 31 32
f 19 32 30
f 20 30 33
f 20 33 21
f 21 33 34
f 21 34 22
f 22 34 23
f 23 34 35
f 23 35 24
f 24 35 36
f 24 36 25
f 25 36 37
f 25 37 38
f 25 38 26
f 26 38 39
f 26 39 27
f 27 39 40
f 28 41 42
f 28 42 43
f 28 43 29
f 30 32 44
f 30 44 33
f 31 45 32
f 32 45 46
f 32 46 47
f 32 47 44
f 33 44 34
f 34 44 48
f 34 48 35
f 35 48 49
f 35 49 50
f 35 50 51
f 35 51 36
f 36 51 52
f 36 52 53
f 36 53 37
f 37 53 54
f 37 54 55
f 37 55 38
f 38 55 56
f 38 56 39
f 39 56 57
f 39 57 40
f 40 57 58
f 41 59 42
f 42 59 60
f 42 60 61
f 44 62 48
f 44 47 63
f 44 63 62
f 46 64 47
f 47 64 65
f 47 65 63
f 48 62 66
f 48 66 67
f 48 67 49
f 49 67 68
f 49 68 50
f 50 68 52
f 50 52 51
f 52 68 69
f 52 69 70
f 52 70 71
f 52 71 72
f 52 72 53
f 53 72 73
f 53 73 54
f 54 73 55
f 55 73 74
f 55 74 56
f 56 74 75
f 56 75 57
f 57 76 58
f 57 75 76
f 60 77 61
f 61 77 78
f 62 63 66
f 63 65 79
f 63 79 80
f 63 80 81
f 63 81 66
f 64 82 65
f 65 82 83
f 65 83 79
f 66 68 67
f 66 81 84
f 66 84 85
f 66 85 68
f 68 85 69
f 69 85 84
f 69 84 86
f 69 86 87
f 69 87 88
f 69 88 70
f 70 88 89
f 70 89 71
f 71 89 90
f 71 90 91
f 71 91 92
f 71 92 72
f 72 93 73
f 72 92 94
f 72 94 93
f 73 93 74
f 74 93 75
f 75 93 95
f 75 95 96
f 75 96 97
f 75 97 98
f 75 98 76
f 76 98 99
f 77 100 78
f 78 100 101
f 79 83 102
f 79 102 80
f 80 102 103
f 80 103 104
f 80 104 81
f 81 104 105
f 81 105 84
f 82 106 83
f 83 106 107
f 83 107 108
f 83 108 102
f 84 105 86
f 86 105 109
f 86 109 110
f 86 110 87
f 87 110 111
f 87 111 88
f 88 111 90
f 88 90 89
f 90 111 112
f 90 112 113
f 90 113 91
f 91 113 92
f 92 113 94
f 93 94 95
f 94 113 114
f 94 114 115
f 94 115 116
f 94 116 117
f 94 117 118
f 94 118 96
f 94 96 95
f 96 118 119
f 96 119 97
f 97 119 120
f 97 120 121
f 97 121 122
f 97 122 123
f 97 123 98
f 98 123 99
f 100 124 101
f 101 124 125
f 102 108 103
f 103 108 126
f 103 126 127
f 103 127 104
f 104 127 105
f 105 127 128
f 105 128 109
f 106 129 107
f 107 129 130
f 107 130 131
f 107 131 132
f 107 132 133
f 107 133 134
f 107 134 135
f 107 135 136
f 107 136 137
f 107 137 138
f 107 138 108
f 108 138 139
f 108 139 140
f 108 140 126
f 109 141 110
f 109 128 142
f 109 142 141
f 110 141 143
f 110 143 111
f 111 143 112
f 112 143 144
f 112 144 113
f 113 144 114
f 114 144 115
f 115 145 146
f 115 146 147
f 115 147 148
f 115 148 149
f 115 149 150
f 115 150 151
f 115 151 152
f 115 152 153
f 115 153 154
f 115 154 116
f 115 144 155
f 115 155 145
f 116 154 117
f 117 156 157
f 117 157 158
f 117 158 159
f 117 159 160
f 117 160 161
f 117 161 119
f 117 119 118
f 117 154 153
f 117 153 152
f 117 152 156
f 119 161 162
f 119 162 120
f 120 163 123
f 120 123 122
f 120 122 121
f 120 162 163
f 124 164 125
f 125 164 165
f 126 128 127
f 126 140 139
f 126 139 166
f 126 166 167
f 126 167 168
f 126 168 169
f 126 169 170
f 126 170 128
f 128 170 142
f 133 171 172
f 133 172 134
f 134 172 173
f 134 173 174
f 134 174 135
f 135 174 175
f 135 175 137
f 135 137 136
f 137 166 138
f 137 175 167
f 137 167 166
f 138 166 139
f 141 142 170
f 141 170 176
f 141 176 177
f 141 177 178
f 141 178 143
f 143 178 155
f 143 155 144
f 145 155 179
f 145 179 180
f 145 180 181
f 145 181 146
f 146 181 147
f 147 181 182
f 147 182 183
f 147 183 184
f 147 184 185
f 147 185 186
f 147 186 149
f 147 149 148
f 149 186 150
f 150 186 157
f 150 157 151
f 151 157 156
f 151 156 152
f 155 178 177
f 155 177 179
f 157 186 185
f 157 185 187
f 157 187 158
f 158 188 159
f 158 187 189
f 158 189 190
f 158 190 191
f 158 191 188
f 159 188 192
f 159 192 193
f 159 193 162
f 159 162 161
f 159 161 160
f 162 194 163
f 162 193 194
f 164 195 165
f 165 195 196
f 167 175 197
f 167 197 168
f 168 198 199
f 168 199 169
f 168 197 198
f 169 199 170
f 170 199 200
f 170 200 201
f 170 201 176
f 171 202 172
f 172 202 203
f 172 203 173
f 173 203 174
f 174 204 175
f 174 203 205
f 174 205 206
f 174 206 207
f 174 207 208
f 174 208 209
f 174 209 210
f 174 210 211
f 174 211 212
f 174 212 204
f 175 204 213
f 175 213 197
f 176 201 177
f 177 201 214
f 177 214 179
f 179 214 180
f 180 214 215
f 180 215 216
f 180 216 217
f 180 217 182
f 180 182 181
f 182 217 218
f 182 218 219
f 182 219 220
f 182 220 221
f 182 221 222
f 182 222 223
f 182 223 183
f 183 223 185
f 183 185 184
f 185 224 187
f 185 223 224
f 187 224 225
f 187 225 189
f 188 191 226
f 188 226 192
f 189 225 227
f 189 227 228
f 189 228 191
f 189 191 190
f 191 228 229
f 191 229 230
f 191 230 231
f 191 231 226
f 192 232 233
f 192 233 193
f 192 226 230
f 192 230 232
f 193 233 194
f 195 234 235
f 195 235 236
f 195 236 196
f 197 237 198
f 197 213 237
f 198 237 199
f 199 237 238
f 199 238 200
f 200 238 239
f 200 239 240
f 200 240 201
f 201 240 214
f 202 241 242
f 202 242 203
f 203 242 243
f 203 243 244
f 203 244 206
f 203 206 205
f 204 212 213
f 206 244 245
f 206 245 207
f 207 245 246
f 207 246 247
f 207 247 208
f 208 247 209
f 209 247 248
f 209 248 249
f 209 249 250
f 209 250 210
f 210 250 211
f 211 251 252
f 211 252 253
f 211 253 254
f 211 254 213
f 211 213 212
f 211 250 249
f 211 249 251
f 213 254 255
f 213 255 256
f 213 256 257
f 213 257 237
f 214 240 215
f 215 240 258
f 215 258 259
f 215 259 216
f 216 259 217
f 217 259 260
f 217 260 261
f 217 261 262
f 217 262 263
f 217 263 218
f 218 263 264
f 218 264 265
f 218 265 219
f 219 265 220
f 220 266 267
f 220 267 221
f 220 265 268
f 220 268 266
f 221 267 269
f 221 269 270
f 221 270 222
f 222 271 272
f 222 272 273
f 222 273 274
f 222 274 275
f 222 275 223
f 222 270 276
f 222 276 271
f 223 275 225
f 223 225 277
f 223 277 224
f 224 277 225
f 225 275 274
f 225 274 227
f 226 231 230
f 227 274 278
f 227 278 228
f 228 278 279
f 228 279 280
f 228 280 229
f 229 280 281
f 229 281 230
f 230 281 282
f 230 282 283
f 230 283 284
f 230 284 285
f 230 285 232
f 234 286 287
f 234 287 288
f 234 288 289
f 234 289 235
f 237 257 238
f 238 257 256
f 238 256 290
f 238 290 291
f 238 291 239
f 239 291 240
f 240 291 258
f 241 292 242
f 242 292 293
f 242 293 294
f 242 294 243
f 243 294 295
f 243 295 296
f 243 296 247
f 243 247 297
f 243 297 246
f 243 246 245
f 243 245 244
f 246 297 247
f 247 296 298
f 247 298 299
f 247 299 300
f 247 300 248
f 248 300 249
f 249 301 251
f 249 300 302
f 249 302 252
f 249 252 301
f 251 301 252
f 252 302 303
f 252 303 304
f 252 304 305
f 252 305 306
f 252 306 307
f 252 307 308
f 252 308 309
f 252 309 310
f 252 310 311
f 252 311 312
f 252 312 313
f 252 313 314
f 252 314 315
f 252 315 316
f 252 316 317
f 252 317 318
f 252 318 319
f 252 319 320
f 252 320 321
f 252 321 253
f 253 321 254
f 254 321 255
f 255 321 290
f 255 290 256
f 258 291 259
f 259 322 260
f 259 291 322
f 260 322 261
f 261 322 262
f 262 322 263
f 263 322 323
f 263 323 264
f 264 323 324
f 264 324 325
f 264 325 326
f 264 326 265
f 265 326 268
f 266 327 269
f 266 269 267
f 266 268 326
f 266 326 328
f 266 328 327
f 269 329 330
f 269 330 271
f 269 271 270
f 269 327 329
f 270 271 276
f 271 330 272
f 272 330 331
f 272 331 273
f 273 331 278
f 273 278 274
f 278 331 279
f 279 331 332
f 279 332 333
f 279 333 280
f 280 333 334
f 280 334 281
f 281 334 335
f 281 335 336
f 281 336 282
f 282 336 337
f 282 337 283
f 283 337 339
f 283 339 340
f 283 340 341
f 283 341 342
f 283 342 343
f 283 343 344
f 283 344 345
f 283 345 346
f 283 346 347
f 283 347 348
f 283 348 350
f 283 350 338
f 286 349 287
f 287 350 348
f 287 348 394
f 287 394 393
f 287 393 436
f 287 436 473
f 287 473 509
f 287 509 508
f 287 508 506
f 287 506 505
f 287 505 504
f 287 504 542
f 287 542 541
f 287 541 540
f 287 540 547
f 287 547 546
f 287 546 545
f 287 545 515
f 287 515 514
f 287 514 513
f 287 513 512
f 287 512 482
f 287 482 474
f 287 474 439
f 287 439 399
f 287 399 351
f 287 349 350
f 290 321 352
f 290 352 322
f 290 322 291
f 295 353 298
f 295 298 296
f 295 354 355
f 295 355 353
f 298 353 356
f 298 356 299
f 299 356 300
f 300 356 302
f 302 356 357
f 302 357 303
f 303 357 304
f 304 357 358
f 304 358 359
f 304 359 306
f 304 306 305
f 306 360 307
f 306 359 360
f 307 360 308
f 308 360 361
f 308 361 362
f 308 362 363
f 308 363 364
f 308 364 365
f 308 365 309
f 309 365 311
f 309 311 310
f 311 365 364
f 311 364 366
f 311 366 367
f 311 367 368
f 311 368 369
f 311 369 370
f 311 370 313
f 311 313 312
f 313 370 314
f 314 370 371
f 314 371 372
f 314 372 315
f 315 325 316
f 315 372 325
f 316 325 317
f 317 325 324
f 317 324 323
f 317 323 373
f 317 373 319
f 317 319 318
f 319 373 320
f 320 373 321
f 321 373 352
f 322 352 373
f 322 373 323
f 325 372 326
f 326 372 328
f 327 328 374
f 327 374 329
f 328 372 371
f 328 371 374
f 329 374 375
f 329 375 376
f 329 376 377
f 329 377 378
f 329 378 330
f 330 378 331
f 331 378 379
f 331 379 332
f 332 379 380
f 332 380 333
f 333 380 381
f 333 381 382
f 333 382 335
f 333 335 334
f 335 382 383
f 335 383 336
f 336 383 384
f 336 384 337
f 337 384 385
f 337 385 339
f 338 350 386
f 339 385 340
f 340 385 341
f 341 387 388
f 341 388 342
f 341 385 387
f 342 388 343
f 343 389 344
f 343 388 389
f 344 389 390
f 344 390 391
f 344 391 345
f 345 391 392
f 345 392 393
f 345 393 346
f 346 393 394
f 346 394 347
f 347 394 348
f 349 395 350
f 350 395 396
f 350 396 397
f 350 397 398
f 350 398 386
f 351 399 400
f 353 355 401
f 353 401 402
f 353 402 356
f 354 403 401
f 354 401 355
f 356 404 358
f 356 358 357
f 356 402 405
f 356 405 404
f 358 406 407
f 358 407 408
f 358 408 360
f 358 360 359
f 358 404 406
f 360 408 409
f 360 409 361
f 361 409 410
f 361 410 362
f 362 410 411
f 362 411 412
f 362 412 413
f 362 413 363
f 363 413 414
f 363 414 415
f 363 415 364
f 364 415 366
f 366 415 416
f 366 416 367
f 367 416 417
f 367 417 368
f 368 417 418
f 368 418 419
f 368 419 369
f 369 371 370
f 369 419 371
f 371 419 374
f 374 419 375
f 375 419 376
f 376 419 418
f 376 418 377
f 377 420 421
f 377 421 378
f 377 418 417
f 377 417 420
f 378 421 379
f 379 421 422
f 379 422 423
f 379 423 380
f 380 423 381
f 381 423 424
f 381 424 425
f 381 425 426
f 381 426 427
f 381 427 382
f 382 427 428
f 382 428 429
f 382 429 383
f 383 429 430
f 383 430 384
f 384 430 431
f 384 431 385
f 385 431 432
f 385 432 387
f 387 432 391
f 387 391 388
f 388 391 390
f 388 390 389
f 391 433 434
f 391 434 435
f 391 435 436
f 391 436 392
f 391 432 437
f 391 437 433
f 392 436 393
f 399 438 400
f 399 439 440
f 399 440 438
f 400 438 441
f 401 403 442
f 401 442 443
f 401 443 444
f 401 444 405
f 401 405 402
f 404 405 406
f 405 444 445
f 405 445 406
f 406 445 446
f 406 446 407
f 407 446 409
f 407 409 408
f 409 447 410
f 409 446 447
f 410 447 411
f 411 447 448
f 411 448 412
f 412 414 413
f 412 448 449
f 412 449 450
f 412 450 451
f 412 451 452
f 412 452 453
f 412 453 454
f 412 454 414
f 414 455 415
f 414 454 455
f 415 456 416
f 415 455 456
f 416 456 420
f 416 420 417
f 420 456 457
f 420 457 421
f 421 457 458
f 421 458 422
f 422 458 459
f 422 459 460
f 422 460 423
f 423 460 424
f 424 460 461
f 424 461 425
f 425 461 462
f 425 462 426
f 426 462 427
f 427 462 463
f 427 463 428
f 428 463 429
f 429 463 464
f 429 464 465
f 429 465 466
f 429 466 430
f 430 466 437
f 430 437 432
f 430 432 431
f 433 437 467
f 433 467 468
f 433 468 469
f 433 469 470
f 433 470 471
f 433 471 472
f 433 472 435
f 433 435 434
f 435 472 473
f 435 473 436
f 437 466 465
f 437 465 467
f 438 440 441
f 439 474 475
f 439 475 440
f 440 476 477
f 440 477 478
f 440 478 479
f 440 479 480
f 440 480 481
f 440 481 441
f 440 475 474
f 440 474 482
f 440 482 476
f 442 483 444
f 442 444 443
f 444 483 484
f 444 484 445
f 445 484 485
f 445 485 450
f 445 450 448
f 445 448 447
f 445 447 446
f 448 450 449
f 450 485 486
f 450 486 487
f 450 487 451
f 451 487 488
f 451 488 489
f 451 489 452
f 452 490 491
f 452 491 454
f 452 454 453
f 452 489 492
f 452 492 490
f 454 491 493
f 454 493 455
f 455 493 458
f 455 458 457
f 455 457 456
f 458 493 459
f 459 493 494
f 459 494 495
f 459 495 496
f 459 496 460
f 460 496 461
f 461 496 497
f 461 497 498
f 461 498 462
f 462 498 499
f 462 499 463
f 463 499 465
f 463 465 464
f 465 499 467
f 467 499 468
f 468 499 500
f 468 500 469
f 469 501 502
f 469 502 471
f 469 471 470
f 469 500 501
f 471 502 501
f 471 501 503
f 471 503 504
f 471 504 505
f 471 505 506
f 471 506 507
f 471 507 472
f 472 507 508
f 472 508 509
f 472 509 473
f 476 510 511
f 476 511 477
f 476 482 512
f 476 512 513
f 476 513 514
f 476 514 515
f 476 515 510
f 477 511 516
f 477 516 517
f 477 517 518
f 477 518 478
f 478 518 479
f 479 518 519
f 479 519 480
f 480 520 481
f 480 519 521
f 480 521 522
f 480 522 520
f 483 523 485
f 483 485 484
f 485 523 486
f 486 524 487
f 486 523 525
f 486 525 524
f 487 524 526
f 487 526 527
f 487 527 488
f 488 527 528
f 488 528 492
f 488 492 489
f 490 492 529
f 490 529 530
f 490 530 531
f 490 531 532
f 490 532 491
f 491 532 494
f 491 494 493
f 492 528 529
f 494 532 533
f 494 533 495
f 495 533 534
f 495 534 496
f 496 534 535
f 496 535 497
f 497 535 536
f 497 536 499
f 497 499 498
f 499 536 500
f 500 536 501
f 501 537 538
f 501 538 503
f 501 536 537
f 503 539 540
f 503 540 541
f 503 541 542
f 503 542 504
f 503 538 539
f 506 508 507
f 510 538 543
f 510 543 544
f 510 544 511
f 510 515 545
f 510 545 546
f 510 546 547
f 510 547 548
f 510 548 539
f 510 539 538
f 511 544 516
f 516 549 550
f 516 550 551
f 516 551 517
f 516 544 549
f 517 551 552
f 517 552 553
f 517 553 518
f 518 553 554
f 518 554 519
f 519 554 555
f 519 555 556
f 519 556 521
f 521 556 557
f 521 557 558
f 521 558 559
f 521 559 522
f 527 560 528
f 528 560 561
f 528 561 529
f 529 561 555
f 529 555 554
f 529 554 530
f 530 562 531
f 530 554 553
f 530 553 562
f 531 562 532
f 532 562 563
f 532 563 533
f 533 563 550
f 533 550 534
f 534 550 549
f 534 549 564
f 534 564 565
f 534 565 535
f 535 565 536
f 536 565 543
f 536 543 538
f 536 538 566
f 536 566 537
f 537 566 538
f 539 548 540
f 540 548 547
f 543 565 544
f 544 565 564
f 544 564 549
f 550 563 551
f 551 563 552
f 552 563 553
f 553 563 562
f 555 561 557
f 555 557 556
f 557 561 567
f 557 567 568
f 557 568 558
f 560 569 561
f 561 569 567

