# https://github.com/mikedh/trimesh
v -0.04490190 -0.00597017 -0.04307549
v -0.04220924 -0.00597017 -0.04307549
v -0.04506245 -0.00597017 -0.04281371
v -0.04487675 -0.00587392 -0.04307549
v -0.02745957 0.01530469 -0.04307549
v -0.02745957 0.01780164 -0.01550754
v -0.04419778 -0.00597017 -0.01550754
v -0.04518625 -0.00597017 -0.04260591
v -0.04504891 -0.00583115 -0.04276513
v -0.04427516 -0.00391165 -0.04307549
v -0.02745957 0.01855286 -0.04307549
v -0.02745957 0.02054187 -0.01550754
v -0.04084356 0.00218903 -0.01550484
v -0.04174885 0.00045400 -0.01550484
v -0.04638364 -0.00597017 -0.01550754
v -0.04587683 -0.00597017 -0.04112158
v -0.04536808 -0.00502646 -0.04163705
v -0.04378963 -0.00187185 -0.04277593
v -0.04369871 -0.00206167 -0.04307549
v -0.02753307 0.01851009 -0.04307549
v -0.02745957 0.01876673 -0.04274085
v -0.03094146 0.01805561 -0.01563708
v -0.03093372 0.01804759 -0.01550754
v -0.02745957 0.02057395 -0.01586917
v -0.02877882 0.02007670 -0.02067029
v -0.03186222 0.01725092 -0.01550754
v -0.03205179 0.01708784 -0.01550754
v -0.03316213 0.01610938 -0.01550754
v -0.03427246 0.01502933 -0.01550754
v -0.03525126 0.01405087 -0.01550754
v -0.03622812 0.01298419 -0.01550754
v -0.03722240 0.01186938 -0.01550754
v -0.03979126 0.00843942 -0.01550754
v -0.04076812 0.00695569 -0.01550754
v -0.04083389 0.00685410 -0.01550754
v -0.04087451 0.00678994 -0.01550754
v -0.04147224 0.00581147 -0.01550754
v -0.04360779 0.00182812 -0.01550754
v -0.04424421 0.00025884 -0.01550754
v -0.04510501 -0.00198146 -0.01550754
v -0.04574722 -0.00367907 -0.01550754
v -0.04575883 -0.00371917 -0.01550754
v -0.04585555 -0.00406136 -0.01550754
v -0.04639331 -0.00597017 -0.01563438
v -0.04600837 -0.00391165 -0.01772323
v -0.04618052 -0.00391165 -0.01980668
v -0.04594453 -0.00597017 -0.04092997
v -0.04595033 -0.00583115 -0.04082742
v -0.04567759 -0.00391165 -0.04021480
v -0.04551123 -0.00269259 -0.03977759
v -0.04519592 -0.00391165 -0.04125652
v -0.04354009 -0.00159917 -0.04307549
v -0.04355170 -0.00025445 -0.04210663
v -0.02809018 0.01813581 -0.04307549
v -0.02771491 0.01861435 -0.04270846
v -0.02900707 0.01815987 -0.04199329
v -0.02745957 0.01971044 -0.04103792
v -0.03106332 0.01815185 -0.01772323
v -0.03210402 0.01725894 -0.01772323
v -0.03198409 0.01716002 -0.01563708
v -0.02745957 0.02073168 -0.01772323
v -0.02756983 0.02065950 -0.01772323
v -0.02883878 0.02011947 -0.02189283
v -0.02789094 0.02061137 -0.01990924
v -0.03316987 0.01611740 -0.01563708
v -0.03421250 0.01510151 -0.01563708
v -0.03442528 0.01531004 -0.01980668
v -0.03525706 0.01405889 -0.01563708
v -0.03629970 0.01292002 -0.01563708
v -0.03733266 0.01199503 -0.01772323
v -0.03846814 0.01079735 -0.01980668
v -0.03920707 0.00967185 -0.01848159
v -0.03926704 0.00975473 -0.01980668
v -0.03979706 0.00844744 -0.01563708
v -0.04083970 0.00686479 -0.01563708
v -0.04166567 0.00612693 -0.01980668
v -0.04157283 0.00597455 -0.01772323
v -0.04147804 0.00582217 -0.01563708
v -0.04337760 0.00343750 -0.02256483
v -0.04361360 0.00183881 -0.01563708
v -0.04543385 -0.00078646 -0.02502341
v -0.04572595 -0.00210177 -0.02189283
v -0.04564083 -0.00230494 -0.01980668
v -0.04555572 -0.00253486 -0.01772323
v -0.04548608 -0.00272734 -0.01607428
v -0.04631593 -0.00391165 -0.02189283
v -0.04710709 -0.00597017 -0.02789220
v -0.04580525 -0.00191730 -0.02397629
v -0.04598322 -0.00597017 -0.04081662
v -0.04650163 -0.00597017 -0.03894637
v -0.04660609 -0.00597017 -0.03856854
v -0.04613216 -0.00391165 -0.03856854
v -0.04350334 0.00163296 -0.04010684
v -0.04324026 0.00113571 -0.04149671
v -0.04563503 -0.00235307 -0.03856854
v -0.04338341 0.00344285 -0.03764286
v -0.04366002 0.00233339 -0.03843091
v -0.04329636 -0.00091745 -0.04307549
v -0.04290755 0.00036845 -0.04277593
v -0.04302168 -0.00028119 -0.04307549
v -0.02854089 0.01782837 -0.04307549
v -0.03013288 0.01666545 -0.04307549
v -0.03098595 0.01601047 -0.04307549
v -0.03125870 0.01624572 -0.04229555
v -0.03048688 0.01769203 -0.04065200
v -0.02944425 0.01848870 -0.04065200
v -0.02776520 0.01960350 -0.04082202
v -0.02745957 0.01994035 -0.04055214
v -0.03115231 0.01822403 -0.01980668
v -0.03219494 0.01734716 -0.01980668
v -0.02893550 0.02019433 -0.02397629
v -0.03338265 0.01630721 -0.01980668
v -0.03327819 0.01621632 -0.01772323
v -0.02745957 0.02089208 -0.01988495
v -0.03545437 0.01426741 -0.01980668
v -0.03451813 0.01540895 -0.02189283
v -0.03555303 0.01436633 -0.02189283
v -0.03649700 0.01314726 -0.01980668
v -0.03639835 0.01303765 -0.01772323
v -0.03659566 0.01325152 -0.02189283
v -0.03742551 0.01210464 -0.01980668
v -0.03855519 0.01091231 -0.02189283
v -0.03935409 0.00986968 -0.02189283
v -0.04128847 0.00758928 -0.02676412
v -0.04091513 0.00701717 -0.01772323
v -0.04174885 0.00627130 -0.02189283
v -0.04286306 0.00457637 -0.02397629
v -0.04342983 0.00353374 -0.02397629
v -0.04399081 0.00234408 -0.02397629
v -0.04377222 0.00218635 -0.01980668
v -0.04369484 0.00201793 -0.01772323
v -0.04548221 -0.00067685 -0.02641328
v -0.04600256 -0.00182641 -0.02814589
v -0.04641265 -0.00391165 -0.02397629
v -0.04721929 -0.00597017 -0.03022934
v -0.04580525 -0.00161788 -0.02585733
v -0.04661189 -0.00597017 -0.03854156
v -0.04643006 -0.00391165 -0.03648239
v -0.04576657 -0.00173017 -0.03648779
v -0.04313774 0.00302313 -0.03903273
v -0.04140840 0.00569652 -0.03999619
v -0.04179528 0.00450953 -0.04067629
v -0.04111824 0.00525808 -0.04138606
v -0.04152447 0.00386792 -0.04219030
v -0.04191328 0.00242161 -0.04282721
v -0.04550736 -0.00062873 -0.03579421
v -0.04344724 0.00356048 -0.03648239
v -0.04284178 0.00460310 -0.03648239
v -0.04179915 0.00633546 -0.03648239
v -0.04160571 0.00602000 -0.03856854
v -0.04183203 0.00229596 -0.04307549
v -0.03193380 0.01511755 -0.04307549
v -0.03339039 0.01424870 -0.04232253
v -0.03264952 0.01563886 -0.04103792
v -0.03081572 0.01793798 -0.03952121
v -0.02854862 0.01989758 -0.03856854
v -0.02745957 0.02055791 -0.03876286
v -0.02903029 0.02026116 -0.02606244
v -0.03007098 0.01945380 -0.02606244
v -0.03015223 0.01951796 -0.02814589
v -0.03144633 0.01847533 -0.02814589
v -0.03248896 0.01760648 -0.02814589
v -0.03226651 0.01741667 -0.02189283
v -0.03347550 0.01637405 -0.02189283
v -0.02745957 0.02092683 -0.02042200
v -0.02745957 0.02102040 -0.02189283
v -0.03458970 0.01548915 -0.02397629
v -0.03564588 0.01444653 -0.02397629
v -0.03668851 0.01335044 -0.02397629
v -0.03751256 0.01220890 -0.02189283
v -0.03863450 0.01101657 -0.02397629
v -0.03871381 0.01111816 -0.02606244
v -0.03942953 0.00997395 -0.02397629
v -0.04061724 0.00869874 -0.02814589
v -0.04133296 0.00765879 -0.02814589
v -0.04177400 0.00669637 -0.02606783
v -0.04182043 0.00639427 -0.02397629
v -0.04292689 0.00471271 -0.02606244
v -0.04357878 0.00380108 -0.02814589
v -0.04350528 0.00367009 -0.02606244
v -0.04412234 0.00234408 -0.02606244
v -0.04553444 -0.00054585 -0.02814589
v -0.04607800 -0.00182641 -0.03022934
v -0.04609734 -0.00182641 -0.03231279
v -0.04721349 -0.00597017 -0.03194576
v -0.04685176 -0.00597017 -0.03648239
v -0.04656160 -0.00391165 -0.03439894
v -0.04603351 -0.00182641 -0.03439894
v -0.04707421 -0.00597017 -0.03435576
v -0.04721155 -0.00597017 -0.03231279
v -0.04090546 0.00706262 -0.03856854
v -0.03904265 0.00948739 -0.03922435
v -0.03954946 0.00807049 -0.04065200
v -0.04063852 0.00643972 -0.04067629
v -0.03928252 0.00769889 -0.04188533
v -0.03966165 0.00645041 -0.04264369
v -0.04077393 0.00450953 -0.04282721
v -0.04127880 0.00342414 -0.04307549
v -0.04165794 0.00266489 -0.04307549
v -0.04555379 -0.00052179 -0.03439894
v -0.04352655 0.00372355 -0.03439894
v -0.04295204 0.00476618 -0.03439894
v -0.04179915 0.00669102 -0.03439894
v -0.04119369 0.00750640 -0.03509253
v -0.03940051 0.00992048 -0.03648239
v -0.03926898 0.00974671 -0.03783448
v -0.04129621 0.00760265 -0.03370266
v -0.03311184 0.01398136 -0.04307549
v -0.03541569 0.01217415 -0.04228206
v -0.03478121 0.01356431 -0.04106491
v -0.03416027 0.01296280 -0.04299723
v -0.03386238 0.01473526 -0.04035783
v -0.03294354 0.01590620 -0.03964805
v -0.03311570 0.01607195 -0.03856854
v -0.03178291 0.01726429 -0.03872238
v -0.03343101 0.01635266 -0.03648239
v -0.03101883 0.01812512 -0.03813134
v -0.02999361 0.01876941 -0.03872238
v -0.02874593 0.02003927 -0.03747014
v -0.02750599 0.02058731 -0.03856854
v -0.02745957 0.02061405 -0.03857124
v -0.02745957 0.02113536 -0.02397629
v -0.02910960 0.02031463 -0.02814589
v -0.03017738 0.01955271 -0.03022934
v -0.03151597 0.01851009 -0.03022934
v -0.03255860 0.01766530 -0.03022934
v -0.03354707 0.01643553 -0.02397629
v -0.03360897 0.01649970 -0.02606244
v -0.03366120 0.01656386 -0.02814589
v -0.03465161 0.01554262 -0.02606244
v -0.03571164 0.01450267 -0.02606244
v -0.03675428 0.01343332 -0.02606244
v -0.03759187 0.01230782 -0.02397629
v -0.03767311 0.01239069 -0.02606244
v -0.03950497 0.01007553 -0.02606244
v -0.03877958 0.01120638 -0.02814589
v -0.03957461 0.01016643 -0.02814589
v -0.04064239 0.00873884 -0.03022934
v -0.04136004 0.00769622 -0.03022934
v -0.04360199 0.00384653 -0.03022934
v -0.04557313 -0.00045763 -0.03022934
v -0.04557506 -0.00046832 -0.03231279
v -0.03977965 0.00871211 -0.03854426
v -0.03713148 0.01175977 -0.03968583
v -0.03877958 0.00911311 -0.04065200
v -0.03739262 0.00999801 -0.04214172
v -0.03813543 0.00855972 -0.04270846
v -0.03861516 0.00762403 -0.04307549
v -0.03893819 0.00719094 -0.04307549
v -0.03912970 0.00689420 -0.04307549
v -0.04089386 0.00406842 -0.04307549
v -0.04357298 0.00381445 -0.03231279
v -0.04299266 0.00485707 -0.03231279
v -0.04201580 0.00651190 -0.03231279
v -0.04066947 0.00841536 -0.03439894
v -0.03953205 0.01009692 -0.03439894
v -0.03872154 0.01113955 -0.03439894
v -0.03857066 0.01096310 -0.03648239
v -0.03729010 0.01193889 -0.03856854
v -0.04133103 0.00765612 -0.03231279
v -0.04062691 0.00869606 -0.03231279
v -0.03402293 0.01304567 -0.04307549
v -0.03680457 0.01138817 -0.04107570
v -0.03424732 0.01281309 -0.04307549
v -0.03513907 0.01186671 -0.04307549
v -0.03616623 0.01081607 -0.04290817
v -0.03522805 0.01401611 -0.03856854
v -0.03447364 0.01537152 -0.03648239
v -0.03226651 0.01739528 -0.03648239
v -0.03467869 0.01556401 -0.03439894
v -0.03363605 0.01652910 -0.03439894
v -0.03122388 0.01829354 -0.03648239
v -0.02745957 0.02099367 -0.03661193
v -0.02968024 0.01946716 -0.03665781
v -0.02890455 0.02016492 -0.03608028
v -0.02745957 0.02123695 -0.02606244
v -0.02745957 0.02131715 -0.02814589
v -0.02913474 0.02032800 -0.03022934
v -0.03013095 0.01953132 -0.03231279
v -0.03150243 0.01848870 -0.03231279
v -0.03254313 0.01765728 -0.03231279
v -0.03370182 0.01661465 -0.03231279
v -0.03369795 0.01662267 -0.03022934
v -0.03470383 0.01558540 -0.02814589
v -0.03575033 0.01454545 -0.02814589
v -0.03679103 0.01348411 -0.02814589
v -0.03773694 0.01244149 -0.02814589
v -0.03776596 0.01247624 -0.03022934
v -0.03880859 0.01123846 -0.03022934
v -0.03959976 0.01019584 -0.03022934
v -0.03958428 0.01017178 -0.03231279
v -0.03762862 0.01068774 -0.04049007
v -0.03627068 0.01298151 -0.03856854
v -0.03636740 0.01044446 -0.04307549
v -0.03707539 0.00961036 -0.04307549
v -0.03759574 0.00893934 -0.04307549
v -0.03879312 0.01121440 -0.03231279
v -0.03767891 0.01238802 -0.03439894
v -0.03775048 0.01247357 -0.03231279
v -0.03752803 0.01220890 -0.03648239
v -0.03656858 0.01325152 -0.03648239
v -0.03552788 0.01432890 -0.03648239
v -0.03589735 0.01099251 -0.04307549
v -0.03244254 0.01757173 -0.03439894
v -0.03570584 0.01452139 -0.03439894
v -0.03577935 0.01458287 -0.03231279
v -0.03474445 0.01562550 -0.03231279
v -0.03139991 0.01842454 -0.03439894
v -0.02745957 0.02122625 -0.03439894
v -0.03005744 0.01946716 -0.03439894
v -0.02901481 0.02024512 -0.03439894
v -0.02745957 0.02134121 -0.03022934
v -0.02745957 0.02133586 -0.03066924
v -0.02745957 0.02130378 -0.03231279
v -0.02908832 0.02029591 -0.03231279
v -0.03474058 0.01561748 -0.03022934
v -0.03577548 0.01457485 -0.03022934
v -0.03681811 0.01351886 -0.03022934
v -0.03682198 0.01351619 -0.03231279
v -0.03674847 0.01343064 -0.03439894
v -0.02745957 0.02129041 -0.03273380
f 1 2 7
f 1 7 15
f 1 15 44
f 1 44 87
f 1 87 135
f 1 135 185
f 1 185 190
f 1 190 189
f 1 189 186
f 1 186 137
f 1 137 91
f 1 91 90
f 1 90 89
f 1 89 47
f 1 47 16
f 1 16 8
f 1 8 3
f 1 3 4
f 1 4 10
f 1 10 19
f 1 19 52
f 1 52 98
f 1 98 100
f 1 100 151
f 1 151 199
f 1 199 198
f 1 198 251
f 1 251 250
f 1 250 249
f 1 249 248
f 1 248 296
f 1 296 295
f 1 295 294
f 1 294 303
f 1 303 265
f 1 265 264
f 1 264 262
f 1 262 208
f 1 208 152
f 1 152 103
f 1 103 102
f 1 102 101
f 1 101 54
f 1 54 20
f 1 20 11
f 1 11 5
f 1 5 2
f 2 5 6
f 2 6 7
f 3 8 9
f 3 9 4
f 4 9 10
f 5 11 21
f 5 21 57
f 5 57 108
f 5 108 157
f 5 157 221
f 5 221 273
f 5 273 309
f 5 309 321
f 5 321 314
f 5 314 313
f 5 313 312
f 5 312 277
f 5 277 276
f 5 276 222
f 5 222 166
f 5 166 165
f 5 165 114
f 5 114 61
f 5 61 24
f 5 24 12
f 5 12 6
f 6 12 13
f 6 13 14
f 6 14 7
f 7 14 15
f 8 16 17
f 8 17 18
f 8 18 19
f 8 19 10
f 8 10 9
f 11 20 21
f 12 22 23
f 12 23 13
f 12 24 25
f 12 25 22
f 13 23 26
f 13 26 27
f 13 27 28
f 13 28 29
f 13 29 30
f 13 30 31
f 13 31 32
f 13 32 33
f 13 33 34
f 13 34 35
f 13 35 36
f 13 36 37
f 13 37 38
f 13 38 14
f 14 38 39
f 14 39 40
f 14 40 41
f 14 41 42
f 14 42 43
f 14 43 15
f 15 43 45
f 15 45 46
f 15 46 44
f 16 47 48
f 16 48 49
f 16 49 17
f 17 49 50
f 17 50 51
f 17 51 18
f 18 52 19
f 18 51 50
f 18 50 53
f 18 53 52
f 20 54 21
f 21 54 55
f 21 55 56
f 21 56 57
f 22 58 59
f 22 59 60
f 22 60 26
f 22 26 23
f 22 25 58
f 24 61 62
f 24 62 25
f 25 63 58
f 25 62 64
f 25 64 63
f 26 60 27
f 27 60 59
f 27 59 65
f 27 65 28
f 28 65 29
f 29 65 66
f 29 66 67
f 29 67 68
f 29 68 30
f 30 68 31
f 31 68 69
f 31 69 32
f 32 69 70
f 32 70 71
f 32 71 72
f 32 72 33
f 33 72 73
f 33 73 74
f 33 74 75
f 33 75 34
f 34 75 35
f 35 75 36
f 36 75 76
f 36 76 77
f 36 77 78
f 36 78 37
f 37 78 79
f 37 79 38
f 38 79 80
f 38 80 81
f 38 81 82
f 38 82 83
f 38 83 39
f 39 83 84
f 39 84 85
f 39 85 40
f 40 85 41
f 41 85 45
f 41 45 42
f 42 45 43
f 44 46 86
f 44 86 87
f 45 85 46
f 46 85 84
f 46 84 83
f 46 83 82
f 46 82 88
f 46 88 86
f 47 89 48
f 48 89 90
f 48 90 91
f 48 91 49
f 49 91 92
f 49 92 50
f 50 93 94
f 50 94 53
f 50 92 95
f 50 95 96
f 50 96 97
f 50 97 93
f 52 53 98
f 53 94 99
f 53 99 100
f 53 100 98
f 54 101 55
f 55 101 56
f 56 101 102
f 56 102 103
f 56 103 104
f 56 104 105
f 56 105 106
f 56 106 107
f 56 107 57
f 57 107 108
f 58 109 110
f 58 110 59
f 58 63 111
f 58 111 109
f 59 110 112
f 59 112 113
f 59 113 65
f 61 114 62
f 62 114 64
f 63 64 111
f 64 114 111
f 65 113 67
f 65 67 66
f 67 115 68
f 67 113 112
f 67 112 116
f 67 116 117
f 67 117 115
f 68 115 118
f 68 118 119
f 68 119 69
f 69 119 70
f 70 119 118
f 70 118 120
f 70 120 121
f 70 121 71
f 71 73 72
f 71 121 122
f 71 122 123
f 71 123 73
f 73 123 124
f 73 124 74
f 74 124 125
f 74 125 75
f 75 125 126
f 75 126 76
f 76 126 127
f 76 127 79
f 76 79 77
f 77 79 78
f 79 127 128
f 79 128 129
f 79 129 130
f 79 130 131
f 79 131 80
f 80 131 81
f 81 132 88
f 81 88 82
f 81 131 130
f 81 130 132
f 86 88 133
f 86 133 134
f 86 134 135
f 86 135 87
f 88 132 136
f 88 136 133
f 91 137 92
f 92 137 138
f 92 138 139
f 92 139 95
f 93 97 96
f 93 96 140
f 93 140 141
f 93 141 142
f 93 142 94
f 94 143 144
f 94 144 145
f 94 145 99
f 94 142 143
f 95 139 146
f 95 146 96
f 96 146 147
f 96 147 148
f 96 148 149
f 96 149 150
f 96 150 141
f 96 141 140
f 99 145 151
f 99 151 100
f 103 152 153
f 103 153 104
f 104 153 154
f 104 154 105
f 105 155 106
f 105 154 155
f 106 108 107
f 106 155 108
f 108 155 156
f 108 156 157
f 109 111 158
f 109 158 159
f 109 159 160
f 109 160 161
f 109 161 162
f 109 162 163
f 109 163 110
f 110 163 164
f 110 164 112
f 111 114 165
f 111 165 166
f 111 166 158
f 112 164 116
f 115 117 120
f 115 120 118
f 116 164 167
f 116 167 168
f 116 168 117
f 117 168 169
f 117 169 120
f 120 169 121
f 121 169 170
f 121 170 122
f 122 170 171
f 122 171 123
f 123 171 172
f 123 172 173
f 123 173 174
f 123 174 124
f 124 174 175
f 124 175 176
f 124 176 177
f 124 177 126
f 124 126 125
f 126 177 127
f 127 177 178
f 127 178 179
f 127 179 180
f 127 180 128
f 128 180 129
f 129 180 179
f 129 179 181
f 129 181 182
f 129 182 132
f 129 132 130
f 132 182 136
f 133 136 182
f 133 182 183
f 133 183 135
f 133 135 134
f 135 183 184
f 135 184 185
f 137 186 138
f 138 187 188
f 138 188 139
f 138 186 189
f 138 189 190
f 138 190 187
f 139 188 146
f 141 150 191
f 141 191 192
f 141 192 193
f 141 193 194
f 141 194 143
f 141 143 142
f 143 195 196
f 143 196 197
f 143 197 144
f 143 194 195
f 144 197 198
f 144 198 145
f 145 198 199
f 145 199 151
f 146 188 200
f 146 200 201
f 146 201 147
f 147 201 202
f 147 202 148
f 148 202 203
f 148 203 149
f 149 204 205
f 149 205 206
f 149 206 150
f 149 203 207
f 149 207 204
f 150 206 191
f 152 208 153
f 153 209 210
f 153 210 154
f 153 208 211
f 153 211 209
f 154 210 212
f 154 212 213
f 154 213 155
f 155 213 214
f 155 214 215
f 155 215 216
f 155 216 217
f 155 217 218
f 155 218 156
f 156 219 220
f 156 220 157
f 156 218 219
f 157 220 221
f 158 166 222
f 158 222 223
f 158 223 160
f 158 160 159
f 160 223 224
f 160 224 225
f 160 225 161
f 161 225 226
f 161 226 162
f 162 226 227
f 162 227 164
f 162 164 163
f 164 227 167
f 167 227 228
f 167 228 229
f 167 229 230
f 167 230 231
f 167 231 168
f 168 231 232
f 168 232 169
f 169 233 170
f 169 232 234
f 169 234 233
f 170 233 172
f 170 172 171
f 172 235 173
f 172 233 234
f 172 234 236
f 172 236 237
f 172 237 235
f 173 235 174
f 174 235 237
f 174 237 238
f 174 238 239
f 174 239 175
f 175 179 176
f 175 239 240
f 175 240 179
f 176 179 178
f 176 178 177
f 179 182 181
f 179 240 241
f 179 241 182
f 182 241 183
f 183 241 184
f 184 190 185
f 184 241 242
f 184 242 200
f 184 200 188
f 184 188 190
f 187 190 188
f 191 206 243
f 191 243 192
f 192 244 245
f 192 245 193
f 192 243 206
f 192 206 244
f 193 245 195
f 193 195 194
f 195 246 247
f 195 247 248
f 195 248 249
f 195 249 196
f 195 245 246
f 196 249 250
f 196 250 197
f 197 250 251
f 197 251 198
f 200 242 252
f 200 252 201
f 201 252 202
f 202 252 253
f 202 253 254
f 202 254 207
f 202 207 203
f 204 207 255
f 204 255 205
f 205 255 256
f 205 256 257
f 205 257 258
f 205 258 206
f 206 258 259
f 206 259 244
f 207 254 260
f 207 260 261
f 207 261 256
f 207 256 255
f 208 262 211
f 209 246 263
f 209 263 210
f 209 211 264
f 209 264 265
f 209 265 266
f 209 266 246
f 210 263 244
f 210 244 212
f 211 262 264
f 212 244 213
f 213 244 267
f 213 267 214
f 214 267 268
f 214 268 216
f 214 216 215
f 216 269 217
f 216 268 270
f 216 270 271
f 216 271 269
f 217 269 272
f 217 272 219
f 217 219 218
f 219 273 220
f 219 272 274
f 219 274 275
f 219 275 273
f 220 273 221
f 222 276 223
f 223 277 278
f 223 278 224
f 223 276 277
f 224 278 279
f 224 279 280
f 224 280 225
f 225 280 281
f 225 281 226
f 226 281 282
f 226 282 283
f 226 283 229
f 226 229 228
f 226 228 227
f 229 283 230
f 230 283 284
f 230 284 231
f 231 284 285
f 231 285 286
f 231 286 232
f 232 286 287
f 232 287 234
f 234 287 236
f 236 287 288
f 236 288 289
f 236 289 237
f 237 289 290
f 237 290 238
f 238 290 291
f 238 291 261
f 238 261 239
f 239 261 260
f 239 260 254
f 239 254 253
f 239 253 240
f 240 253 252
f 240 252 242
f 240 242 241
f 244 263 292
f 244 292 245
f 244 259 293
f 244 293 267
f 245 292 246
f 246 266 294
f 246 294 295
f 246 295 247
f 246 292 263
f 247 295 296
f 247 296 248
f 256 261 291
f 256 291 297
f 256 297 257
f 257 298 258
f 257 297 299
f 257 299 298
f 258 300 259
f 258 298 300
f 259 300 301
f 259 301 302
f 259 302 293
f 265 303 266
f 266 303 294
f 267 293 302
f 267 302 268
f 268 302 270
f 269 271 304
f 269 304 272
f 270 302 305
f 270 305 306
f 270 306 307
f 270 307 282
f 270 282 271
f 271 282 281
f 271 281 304
f 272 275 274
f 272 304 308
f 272 308 275
f 273 275 309
f 275 308 310
f 275 310 311
f 275 311 309
f 277 312 278
f 278 312 313
f 278 313 314
f 278 314 315
f 278 315 279
f 279 315 311
f 279 311 310
f 279 310 280
f 280 310 308
f 280 308 281
f 281 308 304
f 282 307 283
f 283 307 316
f 283 316 284
f 284 316 285
f 285 316 317
f 285 317 318
f 285 318 286
f 286 318 288
f 286 288 287
f 288 318 319
f 288 319 299
f 288 299 289
f 289 299 297
f 289 297 291
f 289 291 290
f 298 320 300
f 298 299 319
f 298 319 320
f 300 320 301
f 301 320 305
f 301 305 302
f 305 320 319
f 305 319 306
f 306 319 318
f 306 318 317
f 306 317 316
f 306 316 307
f 309 311 315
f 309 315 321
f 314 321 315

