# https://github.com/mikedh/trimesh
v -0.00964060 0.02715156 -0.01007792
v -0.01103757 0.02691376 -0.01007792
v -0.00964060 0.02505892 -0.01007792
v -0.00964060 0.02834699 -0.02397793
v -0.01217991 0.02665925 -0.01007792
v -0.02745764 0.01723849 -0.01007792
v -0.02745764 0.01530524 -0.04307227
v -0.00964060 0.02330176 -0.04307227
v -0.00964060 0.02843568 -0.02555109
v -0.01520755 0.02669652 -0.02189115
v -0.01628711 0.02632890 -0.02066686
v -0.01534359 0.02654356 -0.01990774
v -0.01489363 0.02652300 -0.01772405
v -0.01463726 0.02645358 -0.01563728
v -0.01423090 0.02633661 -0.01224223
v -0.01325424 0.02652428 -0.01151541
v -0.01291241 0.02649214 -0.01007792
v -0.02745764 0.02002912 -0.01007792
v -0.02745764 0.01855475 -0.04307227
v -0.00964060 0.02597670 -0.04307227
v -0.01520755 0.02678779 -0.02397793
v -0.00964060 0.02748834 -0.03788116
v -0.01103757 0.02748319 -0.03648244
v -0.01312344 0.02731866 -0.03439889
v -0.01520755 0.02696903 -0.03231211
v -0.01520755 0.02699088 -0.03022857
v -0.01687659 0.02652300 -0.03022857
v -0.01677893 0.02648957 -0.02814502
v -0.01637780 0.02635975 -0.02189115
v -0.01937579 0.02510905 -0.01980760
v -0.01937579 0.02499336 -0.01772405
v -0.01937579 0.02483140 -0.01563728
v -0.01729342 0.02513218 -0.01007792
v -0.01656092 0.02536099 -0.01007792
v -0.02739136 0.02007410 -0.01007792
v -0.02745764 0.02004197 -0.01019098
v -0.02561070 0.01979774 -0.04307227
v -0.02745764 0.01876813 -0.04273954
v -0.00967723 0.02597027 -0.04307227
v -0.01123639 0.02592657 -0.04266847
v -0.00964060 0.02651014 -0.04210317
v -0.01664987 0.02644844 -0.02606147
v -0.01651732 0.02640474 -0.02397793
v -0.00964060 0.02741635 -0.03856922
v -0.01103757 0.02726082 -0.03856922
v -0.01312344 0.02716441 -0.03648244
v -0.01520755 0.02684049 -0.03439889
v -0.01663766 0.02644201 -0.03439889
v -0.01683125 0.02650757 -0.03231211
v -0.02165698 0.02462959 -0.03222813
v -0.02166222 0.02462959 -0.03027056
v -0.02141108 0.02470800 -0.02814502
v -0.02134131 0.02466687 -0.02606147
v -0.02125935 0.02460774 -0.02397793
v -0.02114075 0.02454604 -0.02189115
v -0.02098379 0.02448562 -0.01980760
v -0.02081287 0.02441364 -0.01772405
v -0.02062801 0.02432880 -0.01563728
v -0.02049546 0.02426582 -0.01420302
v -0.01902350 0.02451262 -0.01007792
v -0.02704430 0.02030676 -0.01007792
v -0.02745764 0.02016923 -0.01146695
v -0.02490612 0.02025663 -0.04307227
v -0.02580778 0.01974890 -0.04293982
v -0.02745764 0.01971291 -0.04103717
v -0.02662050 0.02000598 -0.04162832
v -0.01116663 0.02570033 -0.04307227
v -0.01312344 0.02525044 -0.04307227
v -0.01206306 0.02630705 -0.04168646
v -0.01067307 0.02642659 -0.04192551
v -0.00964060 0.02698703 -0.04071414
v -0.00964060 0.02716313 -0.03996471
v -0.01123639 0.02669267 -0.04085627
v -0.01312344 0.02647801 -0.04018114
v -0.01312344 0.02685077 -0.03856922
v -0.01538893 0.02659241 -0.03662134
v -0.01643186 0.02637646 -0.03602051
v -0.02135352 0.02466430 -0.03439889
v -0.02251156 0.02423625 -0.03147870
v -0.02248366 0.02419384 -0.03286773
v -0.02251156 0.02423625 -0.03099092
v -0.02334172 0.02379922 -0.03027056
v -0.02545374 0.02265006 -0.02814502
v -0.02539096 0.02259736 -0.02606147
v -0.02529678 0.02253823 -0.02397793
v -0.02504738 0.02240969 -0.01980760
v -0.02517644 0.02247525 -0.02189115
v -0.02490612 0.02233385 -0.01772405
v -0.02354577 0.02287244 -0.01563728
v -0.02167094 0.02382235 -0.01563728
v -0.02323533 0.02255366 -0.01007792
v -0.02463753 0.02217575 -0.01429024
v -0.02579034 0.02160760 -0.01563728
v -0.02715069 0.02037361 -0.01146695
v -0.02730416 0.02047001 -0.01355373
v -0.02745764 0.02036589 -0.01355373
v -0.02388760 0.02083378 -0.04307227
v -0.02523051 0.02045973 -0.04238098
v -0.02266503 0.02223359 -0.04183829
v -0.02745764 0.01994299 -0.04055262
v -0.02710011 0.02033504 -0.04023928
v -0.02580778 0.02083764 -0.04082074
v -0.01514302 0.02469900 -0.04307227
v -0.01312344 0.02544068 -0.04273631
v -0.01526685 0.02477741 -0.04285906
v -0.01729342 0.02448691 -0.04218070
v -0.01846017 0.02428510 -0.04179306
v -0.01312344 0.02615408 -0.04122130
v -0.01422741 0.02633533 -0.03968367
v -0.01469830 0.02645358 -0.03856922
v -0.01620340 0.02626591 -0.03740954
v -0.02110936 0.02453318 -0.03648244
v -0.02539270 0.02260379 -0.03439889
v -0.02334172 0.02377608 -0.03222813
v -0.02545200 0.02264749 -0.03231211
v -0.02547293 0.02266806 -0.03022857
v -0.02745764 0.02131838 -0.02814502
v -0.02745764 0.02123997 -0.02606147
v -0.02633971 0.02187496 -0.02397793
v -0.02621937 0.02183511 -0.02189115
v -0.02608857 0.02178241 -0.01980760
v -0.02594905 0.02170400 -0.01772405
v -0.02474741 0.02224002 -0.01563728
v -0.02371320 0.02261278 -0.01357957
v -0.02335393 0.02261793 -0.01146695
v -0.02744368 0.02056513 -0.01563728
v -0.02745764 0.02055613 -0.01563728
v -0.02354751 0.02100988 -0.04307227
v -0.02310976 0.02247653 -0.04065276
v -0.02125237 0.02245211 -0.04261679
v -0.02190464 0.02185696 -0.04307227
v -0.02745764 0.02055999 -0.03876304
v -0.02745764 0.02061655 -0.03857245
v -0.02453987 0.02207548 -0.03949308
v -0.01649988 0.02425039 -0.04307227
v -0.01741550 0.02390333 -0.04307227
v -0.01928336 0.02311152 -0.04307227
v -0.01924324 0.02343030 -0.04258772
v -0.01890490 0.02446763 -0.04065276
v -0.01954845 0.02473114 -0.03871781
v -0.02076927 0.02438150 -0.03812344
v -0.02514679 0.02246496 -0.03648244
v -0.02618973 0.02182097 -0.03648244
v -0.02745764 0.02099574 -0.03661165
v -0.02643389 0.02191352 -0.03439889
v -0.02745764 0.02130553 -0.03231211
v -0.02745764 0.02133766 -0.03067112
v -0.02745764 0.02129267 -0.03273529
v -0.02745764 0.02134152 -0.03022857
v -0.02745764 0.02132352 -0.02859403
v -0.02745764 0.02113714 -0.02397793
v -0.02745764 0.02104459 -0.02228525
v -0.02745764 0.02102145 -0.02189115
v -0.02745764 0.02093019 -0.02042136
v -0.02745764 0.02089420 -0.01988513
v -0.02745764 0.02074509 -0.01787911
v -0.02745764 0.02073223 -0.01772405
v -0.02745764 0.02057670 -0.01586986
v -0.02035942 0.02415399 -0.03951247
v -0.02372541 0.02273490 -0.03870489
v -0.02092449 0.02233257 -0.04307227
v -0.02482763 0.02228501 -0.03810405
v -0.02556536 0.02169243 -0.03870489
v -0.02745764 0.02122969 -0.03439889
f 1 2 5
f 1 5 17
f 1 17 34
f 1 34 33
f 1 33 60
f 1 60 91
f 1 91 61
f 1 61 35
f 1 35 18
f 1 18 6
f 1 6 3
f 1 3 8
f 1 8 20
f 1 20 41
f 1 41 71
f 1 71 72
f 1 72 44
f 1 44 22
f 1 22 9
f 1 9 4
f 1 4 2
f 2 4 5
f 3 6 7
f 3 7 8
f 4 9 10
f 4 10 11
f 4 11 12
f 4 12 13
f 4 13 14
f 4 14 15
f 4 15 16
f 4 16 17
f 4 17 5
f 6 18 36
f 6 36 62
f 6 62 96
f 6 96 127
f 6 127 158
f 6 158 157
f 6 157 156
f 6 156 155
f 6 155 154
f 6 154 153
f 6 153 152
f 6 152 151
f 6 151 118
f 6 118 117
f 6 117 150
f 6 150 149
f 6 149 147
f 6 147 146
f 6 146 148
f 6 148 164
f 6 164 144
f 6 144 133
f 6 133 132
f 6 132 100
f 6 100 65
f 6 65 38
f 6 38 19
f 6 19 7
f 7 19 37
f 7 37 63
f 7 63 97
f 7 97 128
f 7 128 131
f 7 131 161
f 7 161 137
f 7 137 136
f 7 136 135
f 7 135 103
f 7 103 68
f 7 68 67
f 7 67 39
f 7 39 20
f 7 20 8
f 9 21 10
f 9 22 23
f 9 23 24
f 9 24 25
f 9 25 26
f 9 26 27
f 9 27 28
f 9 28 21
f 10 29 11
f 10 21 29
f 11 30 31
f 11 31 32
f 11 32 33
f 11 33 15
f 11 15 14
f 11 14 13
f 11 13 12
f 11 29 30
f 15 33 34
f 15 34 17
f 15 17 16
f 18 35 36
f 19 38 37
f 20 39 40
f 20 40 41
f 21 42 43
f 21 43 29
f 21 28 42
f 22 44 23
f 23 44 45
f 23 45 46
f 23 46 24
f 24 46 47
f 24 47 25
f 25 47 48
f 25 48 49
f 25 49 27
f 25 27 26
f 27 49 50
f 27 50 51
f 27 51 52
f 27 52 53
f 27 53 28
f 28 53 42
f 29 43 54
f 29 54 55
f 29 55 30
f 30 55 31
f 31 55 56
f 31 56 57
f 31 57 58
f 31 58 32
f 32 58 59
f 32 59 60
f 32 60 33
f 35 61 36
f 36 61 62
f 37 38 64
f 37 64 63
f 38 65 66
f 38 66 64
f 39 67 40
f 40 67 68
f 40 68 69
f 40 69 70
f 40 70 41
f 41 70 71
f 42 53 54
f 42 54 43
f 44 72 45
f 45 72 73
f 45 73 74
f 45 74 75
f 45 75 46
f 46 75 76
f 46 76 47
f 47 76 77
f 47 77 48
f 48 77 78
f 48 78 49
f 49 78 50
f 50 79 51
f 50 78 80
f 50 80 79
f 51 79 81
f 51 81 52
f 52 81 82
f 52 82 83
f 52 83 53
f 53 84 54
f 53 83 84
f 54 84 85
f 54 85 55
f 55 86 56
f 55 85 87
f 55 87 86
f 56 86 88
f 56 88 89
f 56 89 90
f 56 90 57
f 57 90 58
f 58 90 59
f 59 90 91
f 59 91 60
f 61 91 92
f 61 92 93
f 61 93 94
f 61 94 62
f 62 94 95
f 62 95 96
f 63 64 66
f 63 66 98
f 63 98 99
f 63 99 97
f 65 100 66
f 66 100 101
f 66 101 102
f 66 102 99
f 66 99 98
f 68 103 104
f 68 104 69
f 69 104 103
f 69 103 105
f 69 105 106
f 69 106 107
f 69 107 108
f 69 108 109
f 69 109 74
f 69 74 73
f 69 73 71
f 69 71 70
f 71 73 72
f 74 109 75
f 75 109 110
f 75 110 111
f 75 111 76
f 76 111 77
f 77 111 112
f 77 112 78
f 78 112 113
f 78 113 80
f 79 82 81
f 79 80 114
f 79 114 115
f 79 115 116
f 79 116 82
f 80 113 114
f 82 116 83
f 83 117 118
f 83 118 84
f 83 116 117
f 84 118 119
f 84 119 120
f 84 120 85
f 85 120 121
f 85 121 87
f 86 121 88
f 86 87 121
f 88 121 122
f 88 122 123
f 88 123 124
f 88 124 89
f 89 124 125
f 89 125 90
f 90 125 91
f 91 125 92
f 92 123 93
f 92 125 123
f 93 123 122
f 93 122 94
f 94 122 95
f 95 126 127
f 95 127 96
f 95 122 126
f 97 99 128
f 99 102 101
f 99 101 129
f 99 129 107
f 99 107 130
f 99 130 131
f 99 131 128
f 100 132 101
f 101 132 133
f 101 133 134
f 101 134 129
f 103 135 105
f 105 135 106
f 106 135 107
f 107 135 136
f 107 136 137
f 107 137 138
f 107 138 130
f 107 129 139
f 107 139 109
f 107 109 108
f 109 139 111
f 109 111 110
f 111 139 140
f 111 140 141
f 111 141 112
f 112 141 142
f 112 142 113
f 113 142 143
f 113 143 144
f 113 144 145
f 113 145 115
f 113 115 114
f 115 146 147
f 115 147 116
f 115 145 148
f 115 148 146
f 116 147 149
f 116 149 150
f 116 150 117
f 118 151 119
f 119 151 152
f 119 152 120
f 120 152 153
f 120 153 154
f 120 154 121
f 121 154 155
f 121 155 156
f 121 156 122
f 122 156 157
f 122 157 158
f 122 158 126
f 123 125 124
f 126 158 127
f 129 159 139
f 129 134 160
f 129 160 141
f 129 141 159
f 130 161 131
f 130 138 161
f 133 144 143
f 133 143 142
f 133 142 162
f 133 162 163
f 133 163 134
f 134 163 162
f 134 162 160
f 137 161 138
f 139 159 141
f 139 141 140
f 141 160 142
f 142 160 162
f 144 164 145
f 145 164 148

