# https://github.com/mikedh/trimesh
v -0.04670553 -0.01835130 -0.04307649
v -0.04666122 -0.01657070 -0.04307649
v -0.04591035 -0.01641886 -0.04450572
v -0.04591282 -0.01711362 -0.04451570
v -0.04591774 -0.01850314 -0.04453365
v -0.04589066 -0.02058741 -0.04447680
v -0.04668830 -0.01893563 -0.04307649
v -0.04621317 -0.01225032 -0.04307649
v -0.04585127 -0.01433459 -0.04441097
v -0.04517426 -0.01641886 -0.04554798
v -0.04567402 -0.01711362 -0.04486278
v -0.04519641 -0.01850314 -0.04557591
v -0.04581927 -0.02267628 -0.04434315
v -0.04516195 -0.02058741 -0.04552005
v -0.04636333 -0.02267628 -0.04307649
v -0.04595467 -0.01021666 -0.04307649
v -0.04571587 -0.01225032 -0.04421948
v -0.04500686 -0.01225032 -0.04526273
v -0.04511025 -0.01433459 -0.04545423
v -0.04413043 -0.01641886 -0.04669296
v -0.04518164 -0.01711362 -0.04555795
v -0.04406642 -0.01433459 -0.04663013
v -0.04415505 -0.01850314 -0.04668199
v -0.04412058 -0.02058741 -0.04663212
v -0.04507579 -0.02267628 -0.04538541
v -0.04494777 -0.02475595 -0.04518893
v -0.04568633 -0.02475595 -0.04414667
v -0.04617870 -0.02475595 -0.04307649
v -0.04403688 -0.02267628 -0.04658525
v -0.04556323 -0.01054794 -0.04398909
v -0.04592759 -0.01005102 -0.04307649
v -0.04493546 -0.00997741 -0.04474110
v -0.04378085 -0.01016605 -0.04631695
v -0.04396549 -0.01225032 -0.04650745
v -0.04310876 -0.01641886 -0.04773422
v -0.04302752 -0.01433459 -0.04767238
v -0.04309645 -0.01850314 -0.04772524
v -0.04302998 -0.02058741 -0.04767637
v -0.04296105 -0.02267628 -0.04762650
v -0.04390640 -0.02475595 -0.04647952
v -0.04373161 -0.02684482 -0.04628903
v -0.04486407 -0.02696445 -0.04471717
v -0.04554600 -0.02634791 -0.04395019
v -0.04587835 -0.02686783 -0.04307649
v -0.04283303 -0.02475595 -0.04752078
v -0.04565925 -0.00856949 -0.04307649
v -0.04541552 -0.00915842 -0.04377266
v -0.04338695 -0.00689471 -0.04591102
v -0.04353466 -0.00808178 -0.04606861
v -0.04263609 -0.01016605 -0.04735921
v -0.04286257 -0.01225032 -0.04754970
v -0.04125744 -0.00706495 -0.04794367
v -0.04206493 -0.01641886 -0.04854409
v -0.04275425 -0.01711362 -0.04801149
v -0.04181875 -0.01225032 -0.04837752
v -0.04198369 -0.01433459 -0.04847826
v -0.04205263 -0.01850314 -0.04855905
v -0.04198615 -0.02058741 -0.04852813
v -0.04191968 -0.02267628 -0.04846430
v -0.04263855 -0.02684482 -0.04733128
v -0.04349527 -0.02892909 -0.04602472
v -0.04432984 -0.02892909 -0.04482489
v -0.04536382 -0.02774202 -0.04372678
v -0.04582419 -0.02711628 -0.04307649
v -0.04179167 -0.02475595 -0.04834062
v -0.04159472 -0.02684482 -0.04819700
v -0.04553861 -0.00808178 -0.04307649
v -0.04527519 -0.00808178 -0.04354924
v -0.04385963 -0.00612174 -0.04491365
v -0.04319493 -0.00550980 -0.04566667
v -0.04242190 -0.00612174 -0.04662813
v -0.04111466 -0.00600211 -0.04782797
v -0.04159472 -0.01016605 -0.04821495
v -0.03793148 -0.00808178 -0.05064655
v -0.03914764 -0.00932866 -0.04998329
v -0.03961292 -0.01641886 -0.05035930
v -0.03964985 -0.01850314 -0.05038025
v -0.04068876 -0.01850314 -0.04960130
v -0.03926580 -0.01071817 -0.05009300
v -0.04041795 -0.01225032 -0.04941978
v -0.03711168 -0.01526400 -0.05212764
v -0.04065675 -0.02058741 -0.04957138
v -0.04054843 -0.02267628 -0.04950655
v -0.04141747 -0.02834476 -0.04806734
v -0.04332541 -0.03000574 -0.04588808
v -0.04335249 -0.02997813 -0.04587013
v -0.04336479 -0.03000574 -0.04584220
v -0.04403688 -0.03000574 -0.04484782
v -0.04442093 -0.03000574 -0.04425938
v -0.04522596 -0.02892909 -0.04345649
v -0.04542537 -0.02892909 -0.04307649
v -0.03950706 -0.02267628 -0.05027552
v -0.03657745 -0.02684482 -0.05173269
v -0.04034410 -0.02475595 -0.04938387
v -0.03930273 -0.02475595 -0.05012093
v -0.04538844 -0.00754346 -0.04307649
v -0.04364791 -0.00391784 -0.04425638
v -0.04343865 -0.00260194 -0.04392126
v -0.04290689 -0.00391784 -0.04529963
v -0.04186552 -0.00391784 -0.04646955
v -0.04074292 -0.00391784 -0.04751280
v -0.03970401 -0.00391784 -0.04833164
v -0.03733325 -0.00439174 -0.05020371
v -0.03761143 -0.00600211 -0.05040917
v -0.03650606 -0.00808178 -0.05168880
v -0.03674732 -0.01016605 -0.05183342
v -0.03817274 -0.01641886 -0.05140056
v -0.03712891 -0.01641886 -0.05213862
v -0.03817274 -0.01850314 -0.05142250
v -0.03793886 -0.02072084 -0.05154019
v -0.03961539 -0.02058741 -0.05035830
v -0.03937658 -0.01225032 -0.05017579
v -0.03621310 -0.01447262 -0.05248071
v -0.03605554 -0.01641886 -0.05260638
v -0.03570350 -0.01016605 -0.05251762
v -0.03584874 -0.01225032 -0.05254355
v -0.03527759 -0.02853340 -0.05229221
v -0.04090294 -0.03000574 -0.04797459
v -0.04117374 -0.02973427 -0.04785889
v -0.04334756 -0.03000574 -0.04586514
v -0.04112204 -0.03000574 -0.04781999
v -0.04509056 -0.03000574 -0.04308547
v -0.04509302 -0.03000574 -0.04307649
v -0.03709444 -0.02149841 -0.05211268
v -0.03700335 -0.02267628 -0.05202392
v -0.03680887 -0.02475595 -0.05187730
v -0.03553363 -0.02684482 -0.05243982
v -0.04427322 -0.00391784 -0.04307649
v -0.04364298 -0.00217404 -0.04325203
v -0.04290689 -0.00217404 -0.04438903
v -0.04246622 -0.00217404 -0.04495953
v -0.04165134 -0.00217404 -0.04593795
v -0.04152333 -0.00226146 -0.04613244
v -0.04136084 -0.00217404 -0.04624714
v -0.04040072 -0.00217404 -0.04710488
v -0.03968678 -0.00217404 -0.04772225
v -0.03937658 -0.00244090 -0.04809726
v -0.03519635 -0.00653123 -0.05223935
v -0.03704521 -0.00300223 -0.04996235
v -0.03297822 -0.00070171 -0.05215457
v -0.03323425 -0.00183357 -0.05229919
v -0.03469906 -0.00391784 -0.05187830
v -0.03546223 -0.00808178 -0.05240092
v -0.03605554 -0.01711362 -0.05261436
v -0.03605554 -0.01850314 -0.05262932
v -0.03712891 -0.01850314 -0.05213862
v -0.03711168 -0.02011350 -0.05212764
v -0.03397281 -0.01016605 -0.05298638
v -0.03397281 -0.00808178 -0.05287567
v -0.03477784 -0.02879106 -0.05243184
v -0.03393834 -0.03000574 -0.05254854
v -0.03489354 -0.03000574 -0.05211667
v -0.03496986 -0.03000574 -0.05207578
v -0.04233820 -0.03000574 -0.04307649
v -0.03626234 -0.02072084 -0.05251762
v -0.03596199 -0.02267628 -0.05257546
v -0.03576750 -0.02475595 -0.05252659
v -0.03397035 -0.02684482 -0.05292355
v -0.03416237 -0.02910853 -0.05260239
v -0.04372669 -0.00217404 -0.04307649
v -0.03091026 0.00972885 -0.04849721
v -0.03281081 0.00749274 -0.04849721
v -0.03380048 0.00627347 -0.04849721
v -0.03466705 0.00516922 -0.04849721
v -0.03520374 0.00440545 -0.04849721
v -0.03538099 0.00412018 -0.04849721
v -0.03631157 0.00253282 -0.04849721
v -0.03646667 0.00226596 -0.04849721
v -0.03697874 0.00138256 -0.04849721
v -0.03764344 0.00010807 -0.04849721
v -0.03330565 -0.00217404 -0.05233211
v -0.03365769 -0.00391784 -0.05249268
v -0.02882999 0.00555571 -0.05216654
v -0.02919435 0.00442385 -0.05236801
v -0.02766799 0.00635169 -0.05250066
v -0.03183099 0.00009887 -0.05242287
v -0.03188516 -0.00183357 -0.05278790
v -0.03397035 -0.02475135 -0.05296444
v -0.03477784 -0.02391396 -0.05280685
v -0.03188516 -0.00391784 -0.05298339
v -0.02355177 0.00859239 -0.05326365
v -0.03309393 -0.03000574 -0.05271110
v -0.02531446 -0.03000574 -0.04867574
v -0.02155767 -0.01711362 -0.04737516
v -0.02155767 -0.01651089 -0.04736419
v -0.04082908 -0.00217404 -0.04307649
v -0.03188516 -0.03000574 -0.05283079
v -0.02155767 0.01699849 -0.04849721
v -0.02318249 0.01615650 -0.04849721
v -0.02430510 0.01554917 -0.04849721
v -0.02673249 0.01377316 -0.04849721
v -0.02780093 0.01287136 -0.04849721
v -0.02890631 0.01186833 -0.04849721
v -0.03011016 0.01058464 -0.04849721
v -0.02254733 0.01383298 -0.05215258
v -0.02499442 0.01021196 -0.05243284
v -0.02693682 0.00786083 -0.05232413
v -0.02566897 0.00856939 -0.05266523
v -0.02563450 0.00650812 -0.05314197
v -0.02771969 0.00442385 -0.05291158
v -0.02980489 0.00025531 -0.05297342
v -0.02155767 0.00859239 -0.05326166
v -0.02368963 0.01081469 -0.05274402
v -0.02155767 0.01276093 -0.05289363
v -0.02155767 0.01068126 -0.05324769
v -0.02531446 -0.03000574 -0.05087395
v -0.02155767 -0.01711362 -0.04924424
v -0.02155767 -0.01641886 -0.04736320
v -0.02155767 -0.01443121 -0.04735622
v -0.02155767 -0.01432999 -0.04735622
v -0.02155767 -0.01233774 -0.04739711
v -0.02155767 -0.01025807 -0.04746294
v -0.02155767 -0.01016605 -0.04746593
v -0.03079455 -0.03000574 -0.05262334
v -0.02155767 0.01405383 -0.05237699
v -0.02155767 0.01285296 -0.05286071
v -0.02297323 0.01276093 -0.05236901
v -0.02155767 0.00650812 -0.05296444
v -0.02998952 -0.03000574 -0.05238696
f 1 2 3
f 1 3 4
f 1 4 5
f 1 5 6
f 1 6 7
f 1 7 15
f 1 15 28
f 1 28 44
f 1 44 64
f 1 64 91
f 1 91 123
f 1 123 154
f 1 154 186
f 1 186 160
f 1 160 128
f 1 128 96
f 1 96 67
f 1 67 46
f 1 46 31
f 1 31 16
f 1 16 8
f 1 8 2
f 2 8 9
f 2 9 3
f 3 10 11
f 3 11 4
f 3 9 10
f 4 11 5
f 5 12 6
f 5 11 12
f 6 13 7
f 6 12 14
f 6 14 13
f 7 13 15
f 8 16 17
f 8 17 9
f 9 17 18
f 9 18 19
f 9 19 10
f 10 20 21
f 10 21 11
f 10 19 22
f 10 22 20
f 11 21 12
f 12 21 20
f 12 20 23
f 12 23 24
f 12 24 14
f 13 14 25
f 13 25 26
f 13 26 27
f 13 27 28
f 13 28 15
f 14 24 29
f 14 29 25
f 16 30 17
f 16 31 30
f 17 30 18
f 18 30 32
f 18 32 33
f 18 33 34
f 18 34 19
f 19 34 22
f 20 35 23
f 20 22 35
f 22 34 36
f 22 36 35
f 23 35 37
f 23 37 24
f 24 38 39
f 24 39 29
f 24 37 38
f 25 29 40
f 25 40 26
f 26 40 41
f 26 41 42
f 26 42 43
f 26 43 27
f 27 43 44
f 27 44 28
f 29 39 45
f 29 45 40
f 30 31 46
f 30 46 47
f 30 47 32
f 32 47 48
f 32 48 49
f 32 49 33
f 33 50 51
f 33 51 34
f 33 49 52
f 33 52 50
f 34 51 36
f 35 53 54
f 35 54 37
f 35 36 53
f 36 51 55
f 36 55 56
f 36 56 53
f 37 54 57
f 37 57 58
f 37 58 38
f 38 58 39
f 39 58 59
f 39 59 45
f 40 45 41
f 41 45 60
f 41 60 61
f 41 61 42
f 42 61 43
f 43 61 62
f 43 62 63
f 43 63 44
f 44 63 64
f 45 65 66
f 45 66 60
f 45 59 65
f 46 67 68
f 46 68 47
f 47 68 69
f 47 69 70
f 47 70 48
f 48 70 71
f 48 71 49
f 49 71 72
f 49 72 52
f 50 52 51
f 51 52 73
f 51 73 55
f 52 72 74
f 52 74 75
f 52 75 73
f 53 76 77
f 53 77 78
f 53 78 57
f 53 57 54
f 53 56 76
f 55 73 75
f 55 75 79
f 55 79 80
f 55 80 56
f 56 80 81
f 56 81 76
f 57 78 82
f 57 82 58
f 58 82 59
f 59 82 83
f 59 83 65
f 60 66 84
f 60 84 61
f 61 85 86
f 61 86 62
f 61 84 85
f 62 86 87
f 62 87 88
f 62 88 63
f 63 88 89
f 63 89 90
f 63 90 91
f 63 91 64
f 65 83 92
f 65 92 66
f 66 93 84
f 66 92 94
f 66 94 95
f 66 95 93
f 67 96 68
f 68 96 97
f 68 97 69
f 69 97 70
f 70 97 98
f 70 98 99
f 70 99 100
f 70 100 71
f 71 100 72
f 72 100 101
f 72 101 102
f 72 102 103
f 72 103 104
f 72 104 74
f 74 105 75
f 74 104 105
f 75 105 106
f 75 106 79
f 76 81 107
f 76 107 77
f 77 107 108
f 77 108 109
f 77 109 110
f 77 110 111
f 77 111 78
f 78 111 82
f 79 106 81
f 79 81 112
f 79 112 80
f 80 112 81
f 81 113 114
f 81 114 108
f 81 108 107
f 81 106 115
f 81 115 116
f 81 116 113
f 82 111 83
f 83 111 92
f 84 93 117
f 84 117 118
f 84 118 119
f 84 119 85
f 85 120 86
f 85 119 121
f 85 121 118
f 85 118 153
f 85 153 152
f 85 152 151
f 85 151 182
f 85 182 187
f 85 187 214
f 85 214 219
f 85 219 206
f 85 206 183
f 85 183 154
f 85 154 123
f 85 123 122
f 85 122 89
f 85 89 88
f 85 88 87
f 85 87 120
f 86 120 87
f 89 122 90
f 90 122 91
f 91 122 123
f 92 111 124
f 92 124 125
f 92 125 126
f 92 126 95
f 92 95 94
f 93 127 117
f 93 95 126
f 93 126 127
f 96 128 98
f 96 98 97
f 98 129 130
f 98 130 99
f 98 128 129
f 99 130 131
f 99 131 132
f 99 132 133
f 99 133 100
f 100 133 101
f 101 133 134
f 101 134 135
f 101 135 136
f 101 136 137
f 101 137 102
f 102 137 103
f 103 138 104
f 103 137 139
f 103 139 140
f 103 140 141
f 103 141 142
f 103 142 138
f 104 138 105
f 105 143 106
f 105 138 143
f 106 143 115
f 108 114 144
f 108 144 145
f 108 145 146
f 108 146 109
f 109 146 147
f 109 147 124
f 109 124 110
f 110 124 111
f 113 116 114
f 114 116 148
f 114 148 144
f 115 143 149
f 115 149 148
f 115 148 116
f 117 150 151
f 117 151 152
f 117 152 153
f 117 153 118
f 117 127 150
f 118 121 119
f 124 147 155
f 124 155 156
f 124 156 157
f 124 157 127
f 124 127 125
f 125 127 126
f 127 157 158
f 127 158 159
f 127 159 150
f 128 160 129
f 129 160 161
f 129 161 162
f 129 162 163
f 129 163 164
f 129 164 130
f 130 164 165
f 130 165 131
f 131 165 132
f 132 165 166
f 132 166 133
f 133 166 134
f 134 166 167
f 134 167 168
f 134 168 169
f 134 169 135
f 135 169 170
f 135 170 136
f 136 170 137
f 137 170 140
f 137 140 139
f 138 142 141
f 138 141 171
f 138 171 172
f 138 172 143
f 140 170 169
f 140 169 168
f 140 168 167
f 140 167 166
f 140 166 165
f 140 165 173
f 140 173 174
f 140 174 175
f 140 175 176
f 140 176 141
f 141 176 177
f 141 177 171
f 143 172 149
f 144 148 145
f 145 178 179
f 145 179 156
f 145 156 155
f 145 155 146
f 145 148 178
f 146 155 147
f 148 149 180
f 148 180 181
f 148 181 178
f 149 172 177
f 149 177 180
f 150 159 151
f 151 159 158
f 151 158 182
f 154 183 184
f 154 184 185
f 154 185 186
f 156 179 158
f 156 158 157
f 158 179 178
f 158 178 187
f 158 187 182
f 160 186 188
f 160 188 189
f 160 189 190
f 160 190 191
f 160 191 192
f 160 192 193
f 160 193 194
f 160 194 161
f 161 194 195
f 161 195 162
f 162 195 163
f 163 195 196
f 163 196 164
f 164 196 197
f 164 197 173
f 164 173 165
f 171 177 172
f 173 197 175
f 173 175 174
f 175 197 196
f 175 196 198
f 175 198 199
f 175 199 200
f 175 200 176
f 176 200 177
f 177 200 199
f 177 199 201
f 177 201 180
f 178 181 202
f 178 202 187
f 180 201 199
f 180 199 181
f 181 199 203
f 181 203 204
f 181 204 205
f 181 205 202
f 183 206 207
f 183 207 184
f 184 207 218
f 184 218 202
f 184 202 205
f 184 205 204
f 184 204 216
f 184 216 215
f 184 215 188
f 184 188 213
f 184 213 212
f 184 212 211
f 184 211 210
f 184 210 209
f 184 209 208
f 184 208 185
f 185 208 186
f 186 209 210
f 186 210 211
f 186 211 212
f 186 212 213
f 186 213 188
f 186 208 209
f 187 202 214
f 188 215 195
f 188 195 189
f 189 195 190
f 190 195 191
f 191 195 192
f 192 195 193
f 193 195 194
f 195 215 216
f 195 216 204
f 195 204 217
f 195 217 196
f 196 217 203
f 196 203 198
f 198 203 199
f 202 218 206
f 202 206 219
f 202 219 214
f 203 217 204
f 206 218 207

