# https://github.com/mikedh/trimesh
v 0.00933187 -0.04493427 -0.04938163
v 0.00933187 -0.04493427 -0.05175589
v 0.00839927 -0.04493427 -0.04923779
v 0.00933187 -0.05820606 -0.04307549
v 0.00933187 -0.04613147 -0.05231326
v -0.02004995 -0.04493427 -0.05266434
v 0.00772441 -0.04493427 -0.04918385
v 0.00933187 -0.06094180 -0.04307549
v -0.02531318 -0.05256475 -0.04307549
v 0.00933187 -0.04769523 -0.05262365
v -0.01520385 -0.04769523 -0.05268421
v -0.01937509 -0.04561021 -0.05265015
v -0.02228818 -0.04493427 -0.05248454
v -0.00478592 -0.04978024 -0.05274288
v -0.00686815 -0.04978024 -0.05273910
v 0.00631365 -0.04493427 -0.04907976
v 0.00933187 -0.06089472 -0.04316728
v 0.00772441 -0.06126632 -0.04307549
v -0.02531318 -0.04493427 -0.04861702
v -0.02531318 -0.05568554 -0.04307549
v 0.00143364 -0.04493427 -0.04880817
v -0.00061468 -0.04493427 -0.04873152
v 0.00933187 -0.04989290 -0.05248738
v 0.00772441 -0.04978024 -0.05262933
v 0.00563879 -0.04978024 -0.05266528
v -0.00895038 -0.04978024 -0.05271544
v -0.01103600 -0.04978024 -0.05263690
v -0.01728947 -0.04769523 -0.05257160
v -0.02147767 -0.04567915 -0.05246088
v -0.02310886 -0.04493427 -0.05234733
v -0.00270030 -0.05158613 -0.05241357
v -0.00478592 -0.05153233 -0.05242114
v 0.00933187 -0.05976645 -0.04491888
v 0.00772441 -0.06103596 -0.04349943
v 0.00708007 -0.06138402 -0.04307549
v -0.02531318 -0.04493427 -0.05136791
v -0.02531318 -0.05543837 -0.04351931
v -0.02389902 -0.05652795 -0.04307549
v 0.00933187 -0.05093036 -0.05224229
v 0.00772441 -0.05116913 -0.05232178
v 0.00563879 -0.05130533 -0.05234638
v 0.00147094 -0.05158277 -0.05235869
v -0.00895038 -0.05133896 -0.05240221
v -0.00686815 -0.05143312 -0.05241357
v -0.01103600 -0.05117249 -0.05233219
v -0.01520385 -0.04936828 -0.05238045
v -0.01728947 -0.04898323 -0.05225175
v -0.01918518 -0.04762965 -0.05233124
v -0.02079264 -0.04689149 -0.05225081
v -0.02306478 -0.04503011 -0.05233408
v -0.02329538 -0.04493427 -0.05228014
v -0.00061468 -0.05158950 -0.05238424
v 0.00147094 -0.05262528 -0.05194515
v -0.00061468 -0.05263201 -0.05192528
v -0.00478592 -0.05257483 -0.05187702
v -0.00270030 -0.05262696 -0.05190825
v 0.00933187 -0.05947724 -0.04533715
v 0.00642217 -0.06115870 -0.04370857
v 0.00503176 -0.06131172 -0.04388269
v 0.00557436 -0.06162951 -0.04307549
v -0.02531318 -0.04677547 -0.05043675
v -0.02531318 -0.05517101 -0.04399719
v -0.02501135 -0.05526854 -0.04414292
v -0.02240348 -0.05699540 -0.04370194
v -0.02342764 -0.05679194 -0.04307549
v 0.00933187 -0.05103966 -0.05218740
v 0.00929456 -0.05099426 -0.05222999
v 0.00772441 -0.05221164 -0.05162436
v 0.00563879 -0.05234784 -0.05176819
v 0.00355317 -0.05250589 -0.05189121
v -0.00895038 -0.05238146 -0.05175779
v -0.00686815 -0.05247563 -0.05182497
v -0.01103600 -0.05221332 -0.05161206
v -0.01250780 -0.05097408 -0.05222053
v -0.01836450 -0.04875623 -0.05213252
v -0.02218305 -0.04642068 -0.05194894
v -0.02495370 -0.05106320 -0.04811927
v -0.02356329 -0.04777930 -0.05060803
v -0.02515040 -0.04714034 -0.05032414
v 0.00147094 -0.05394859 -0.05104617
v -0.00061468 -0.05522986 -0.05021342
v -0.00061468 -0.05394859 -0.05106131
v -0.00270030 -0.05519623 -0.05018409
v 0.00933187 -0.05837084 -0.04656828
v 0.00887066 -0.05917962 -0.04589073
v 0.00537088 -0.06165642 -0.04307549
v 0.00355317 -0.06142438 -0.04404734
v 0.00355317 -0.06069462 -0.04509016
v 0.00569305 -0.06062568 -0.04467663
v -0.02531318 -0.04707141 -0.05027683
v -0.02531318 -0.05481959 -0.04445615
v -0.02413980 -0.05470188 -0.04553208
v -0.02348529 -0.05561324 -0.04483182
v -0.02101646 -0.05736364 -0.04419402
v -0.01815763 -0.05907201 -0.04364895
v -0.02178288 -0.05760409 -0.04307549
v 0.00933187 -0.05642539 -0.04828581
v 0.00876553 -0.05707611 -0.04795083
v 0.00563879 -0.05383761 -0.05072537
v 0.00371595 -0.05414868 -0.05073011
v -0.00895038 -0.05384602 -0.05071496
v -0.00478592 -0.05614122 -0.04938163
v -0.00686815 -0.05749984 -0.04826500
v -0.01103600 -0.05720390 -0.04804829
v -0.01212459 -0.05708956 -0.04796123
v -0.01520385 -0.05555607 -0.04837666
v -0.01728947 -0.05519960 -0.04811359
v -0.01837128 -0.05500623 -0.04796313
v -0.01919196 -0.05396877 -0.04838991
v -0.02108089 -0.05329114 -0.04820065
v -0.02354633 -0.05151047 -0.04839842
v -0.02246791 -0.05288759 -0.04792433
v -0.02354633 -0.05255298 -0.04767167
v -0.02531318 -0.05145330 -0.04763666
v -0.02531318 -0.05093709 -0.04803126
v -0.02531318 -0.05042424 -0.04833313
v 0.00147094 -0.05517270 -0.05017841
v -0.00061468 -0.05627237 -0.04941380
v -0.00270030 -0.05762595 -0.04838234
v -0.00270030 -0.05623874 -0.04942421
v -0.00478592 -0.05759905 -0.04833881
v 0.00933187 -0.05781259 -0.04711051
v 0.00772441 -0.05929228 -0.04601848
v 0.00355317 -0.06188005 -0.04307549
v 0.00147094 -0.06154880 -0.04421011
v 0.00147094 -0.06077029 -0.04525198
v 0.00355317 -0.05965211 -0.04636199
v 0.00563879 -0.05949237 -0.04622288
v -0.02531318 -0.05425462 -0.04515073
v -0.02531318 -0.05328777 -0.04619165
v -0.02274939 -0.05513402 -0.04600334
v -0.02160993 -0.05656326 -0.04486305
v -0.01992787 -0.05685248 -0.04558318
v -0.01853745 -0.05715850 -0.04595508
v -0.01739460 -0.05852722 -0.04476274
v -0.01676722 -0.05932255 -0.04402747
v -0.01728269 -0.05959662 -0.04307549
v -0.01759807 -0.05950078 -0.04307549
v -0.01913770 -0.05885846 -0.04307549
v 0.00563879 -0.05834898 -0.04726570
v 0.00772441 -0.05716187 -0.04801707
v 0.00312926 -0.05508022 -0.05010839
v -0.00895038 -0.05737541 -0.04817604
v -0.00478592 -0.05864155 -0.04749660
v -0.00686815 -0.05854067 -0.04739345
v -0.01103600 -0.05824641 -0.04703954
v -0.00895038 -0.05841792 -0.04724962
v -0.01208051 -0.05916113 -0.04586708
v -0.01279606 -0.05803623 -0.04682284
v -0.01520385 -0.05772011 -0.04650583
v -0.01351162 -0.05687266 -0.04777765
v -0.01520385 -0.05659858 -0.04754865
v -0.01728947 -0.05624211 -0.04722407
v -0.01728947 -0.05739391 -0.04618125
v -0.01914788 -0.05592935 -0.04683325
v -0.01976169 -0.05467835 -0.04771047
v -0.02164723 -0.05396877 -0.04745591
v -0.02348529 -0.05398390 -0.04655787
v -0.02522839 -0.05331300 -0.04621437
v -0.02531318 -0.05311458 -0.04632982
v -0.02531318 -0.05209057 -0.04713985
v 0.00355317 -0.05846500 -0.04740481
v 0.00147094 -0.05621520 -0.04934945
v -0.00061468 -0.05759064 -0.04837098
v -0.00270030 -0.05866846 -0.04752310
v 0.00307840 -0.06192545 -0.04307549
v 0.00147094 -0.06205661 -0.04307549
v -0.00061468 -0.06158916 -0.04427540
v -0.00061468 -0.06080055 -0.04531822
v 0.00147094 -0.05972778 -0.04642728
v 0.00147094 -0.05856757 -0.04746916
v -0.02146071 -0.05545350 -0.04630994
v -0.01520385 -0.05876262 -0.04536743
v -0.01520385 -0.05953777 -0.04432555
v -0.01103600 -0.06107967 -0.04348240
v -0.01222633 -0.06096029 -0.04307549
v -0.01366422 -0.06057356 -0.04307549
v -0.01561419 -0.06004726 -0.04307549
v 0.00563879 -0.05730647 -0.04813062
v -0.00270030 -0.05977486 -0.04648122
v -0.00478592 -0.05971265 -0.04645378
v -0.00686815 -0.05958485 -0.04635158
v -0.01103600 -0.05926369 -0.04599672
v -0.00895038 -0.05944193 -0.04620680
v -0.01291136 -0.05967397 -0.04490374
v -0.01346753 -0.05898289 -0.04565132
v -0.00983889 -0.06120410 -0.04374358
v 0.00147094 -0.05752506 -0.04830758
v -0.00061468 -0.05863315 -0.04749755
v -0.00061468 -0.05975804 -0.04645473
v 0.00101312 -0.06207174 -0.04307549
v -0.00061468 -0.06211209 -0.04307549
v -0.00270030 -0.06156226 -0.04427446
v -0.00270030 -0.06081737 -0.04531728
v -0.01103600 -0.06126464 -0.04307549
v -0.00478592 -0.06075515 -0.04521697
v -0.00906907 -0.06061223 -0.04467001
v -0.00686815 -0.06062568 -0.04504853
v -0.00845186 -0.06130836 -0.04387228
v -0.00921151 -0.06159589 -0.04307549
v -0.00107250 -0.06210537 -0.04307549
v -0.00270030 -0.06207678 -0.04307549
v -0.00478592 -0.06199607 -0.04307549
v -0.00478592 -0.06150004 -0.04417509
v -0.00686815 -0.06140084 -0.04400571
v -0.00733953 -0.06180438 -0.04307549
v -0.00897073 -0.06162447 -0.04307549
v -0.00686815 -0.06184979 -0.04307549
f 1 2 6
f 1 6 13
f 1 13 30
f 1 30 51
f 1 51 36
f 1 36 19
f 1 19 22
f 1 22 21
f 1 21 16
f 1 16 7
f 1 7 3
f 1 3 4
f 1 4 8
f 1 8 17
f 1 17 33
f 1 33 57
f 1 57 84
f 1 84 122
f 1 122 97
f 1 97 66
f 1 66 39
f 1 39 23
f 1 23 10
f 1 10 5
f 1 5 2
f 2 5 6
f 3 7 4
f 4 7 9
f 4 9 20
f 4 20 38
f 4 38 65
f 4 65 96
f 4 96 139
f 4 139 138
f 4 138 137
f 4 137 178
f 4 178 177
f 4 177 176
f 4 176 195
f 4 195 200
f 4 200 207
f 4 207 206
f 4 206 208
f 4 208 203
f 4 203 202
f 4 202 201
f 4 201 192
f 4 192 191
f 4 191 167
f 4 167 166
f 4 166 124
f 4 124 86
f 4 86 60
f 4 60 35
f 4 35 18
f 4 18 8
f 5 10 6
f 6 11 12
f 6 12 13
f 6 10 14
f 6 14 15
f 6 15 11
f 7 16 9
f 8 18 17
f 9 19 36
f 9 36 61
f 9 61 90
f 9 90 116
f 9 116 115
f 9 115 114
f 9 114 161
f 9 161 160
f 9 160 130
f 9 130 129
f 9 129 91
f 9 91 62
f 9 62 37
f 9 37 20
f 9 16 21
f 9 21 22
f 9 22 19
f 10 23 24
f 10 24 25
f 10 25 14
f 11 26 27
f 11 27 28
f 11 28 12
f 11 15 26
f 12 28 13
f 13 28 29
f 13 29 30
f 14 31 32
f 14 32 15
f 14 25 31
f 15 32 26
f 17 18 34
f 17 34 33
f 18 35 34
f 20 37 38
f 23 39 40
f 23 40 24
f 24 40 41
f 24 41 25
f 25 41 42
f 25 42 31
f 26 43 27
f 26 32 44
f 26 44 43
f 27 43 45
f 27 45 46
f 27 46 28
f 28 46 47
f 28 47 48
f 28 48 29
f 29 48 49
f 29 49 50
f 29 50 30
f 30 50 51
f 31 42 52
f 31 52 53
f 31 53 54
f 31 54 32
f 32 55 44
f 32 54 56
f 32 56 55
f 33 34 58
f 33 58 59
f 33 59 57
f 34 35 58
f 35 60 59
f 35 59 58
f 36 51 61
f 37 62 38
f 38 63 64
f 38 64 65
f 38 62 63
f 39 66 67
f 39 67 40
f 40 68 69
f 40 69 70
f 40 70 53
f 40 53 41
f 40 67 68
f 41 53 42
f 42 53 52
f 43 71 45
f 43 44 55
f 43 55 72
f 43 72 71
f 45 73 74
f 45 74 46
f 45 71 73
f 46 74 47
f 47 74 75
f 47 75 48
f 48 75 49
f 49 76 50
f 49 75 77
f 49 77 78
f 49 78 79
f 49 79 76
f 50 79 51
f 50 76 79
f 51 79 61
f 53 80 81
f 53 81 82
f 53 82 54
f 53 70 80
f 54 82 56
f 55 56 83
f 55 83 72
f 56 82 81
f 56 81 83
f 57 59 85
f 57 85 84
f 59 60 86
f 59 86 87
f 59 87 88
f 59 88 89
f 59 89 85
f 61 79 90
f 62 91 63
f 63 91 92
f 63 92 93
f 63 93 64
f 64 94 95
f 64 95 96
f 64 96 65
f 64 93 94
f 66 97 67
f 67 98 68
f 67 97 98
f 68 98 99
f 68 99 100
f 68 100 69
f 69 100 70
f 70 100 80
f 71 101 73
f 71 72 83
f 71 83 102
f 71 102 103
f 71 103 101
f 73 104 105
f 73 105 74
f 73 101 104
f 74 105 106
f 74 106 107
f 74 107 108
f 74 108 75
f 75 108 109
f 75 109 110
f 75 110 111
f 75 111 77
f 77 111 112
f 77 112 113
f 77 113 114
f 77 114 115
f 77 115 116
f 77 116 79
f 77 79 78
f 79 116 90
f 80 117 81
f 80 100 117
f 81 117 118
f 81 118 119
f 81 119 120
f 81 120 83
f 83 120 121
f 83 121 102
f 84 85 122
f 85 98 122
f 85 89 123
f 85 123 98
f 86 124 87
f 87 124 125
f 87 125 88
f 88 125 126
f 88 126 127
f 88 127 128
f 88 128 123
f 88 123 89
f 91 129 92
f 92 129 130
f 92 130 131
f 92 131 93
f 93 131 94
f 94 131 132
f 94 132 133
f 94 133 95
f 95 134 135
f 95 135 136
f 95 136 137
f 95 137 138
f 95 138 139
f 95 139 96
f 95 133 134
f 97 122 98
f 98 123 128
f 98 128 140
f 98 140 141
f 98 141 99
f 99 141 100
f 100 141 142
f 100 142 117
f 101 143 104
f 101 103 143
f 102 121 103
f 103 121 144
f 103 144 145
f 103 145 143
f 104 146 105
f 104 143 147
f 104 147 146
f 105 146 148
f 105 148 149
f 105 149 150
f 105 150 151
f 105 151 106
f 106 151 107
f 107 151 152
f 107 152 108
f 108 152 153
f 108 153 154
f 108 154 134
f 108 134 155
f 108 155 156
f 108 156 109
f 109 156 110
f 110 156 157
f 110 157 112
f 110 112 111
f 112 157 131
f 112 131 113
f 113 158 159
f 113 159 130
f 113 130 160
f 113 160 161
f 113 161 114
f 113 131 158
f 117 142 162
f 117 162 163
f 117 163 164
f 117 164 118
f 118 164 119
f 119 164 165
f 119 165 144
f 119 144 121
f 119 121 120
f 124 166 125
f 125 166 167
f 125 167 168
f 125 168 126
f 126 168 169
f 126 169 170
f 126 170 127
f 127 170 171
f 127 171 162
f 127 162 140
f 127 140 128
f 130 159 131
f 131 157 156
f 131 156 172
f 131 172 133
f 131 133 132
f 131 159 158
f 133 172 134
f 134 154 135
f 134 172 155
f 135 154 173
f 135 173 136
f 136 173 174
f 136 174 175
f 136 175 176
f 136 176 177
f 136 177 178
f 136 178 137
f 140 162 141
f 141 162 179
f 141 179 142
f 142 179 162
f 143 145 147
f 144 165 180
f 144 180 181
f 144 181 145
f 145 181 182
f 145 182 147
f 146 183 148
f 146 147 184
f 146 184 183
f 147 182 184
f 148 185 186
f 148 186 150
f 148 150 149
f 148 183 187
f 148 187 185
f 150 152 151
f 150 186 173
f 150 173 154
f 150 154 152
f 152 154 153
f 155 172 156
f 162 171 188
f 162 188 163
f 163 188 164
f 164 188 171
f 164 171 189
f 164 189 165
f 165 189 170
f 165 170 190
f 165 190 180
f 167 191 168
f 168 191 192
f 168 192 193
f 168 193 194
f 168 194 169
f 169 190 170
f 169 194 180
f 169 180 190
f 170 189 171
f 173 186 174
f 174 186 185
f 174 185 187
f 174 187 175
f 175 187 195
f 175 195 176
f 180 194 181
f 181 194 196
f 181 196 182
f 182 196 184
f 183 184 187
f 184 197 187
f 184 196 198
f 184 198 197
f 187 197 199
f 187 199 200
f 187 200 195
f 192 201 193
f 193 201 202
f 193 202 203
f 193 203 204
f 193 204 194
f 194 204 196
f 196 204 205
f 196 205 199
f 196 199 198
f 197 198 199
f 199 206 207
f 199 207 200
f 199 205 206
f 203 208 204
f 204 208 205
f 205 208 206

