# https://github.com/mikedh/trimesh
v 0.00933187 -0.05810499 -0.04682047
v 0.00933187 -0.05444373 -0.04682047
v 0.00952768 -0.05806312 -0.04682047
v 0.00933187 -0.05837016 -0.04656610
v 0.00933187 -0.06057064 -0.02298192
v 0.03703448 -0.03949629 -0.02298192
v 0.02984072 -0.03949397 -0.04682047
v 0.01146168 -0.05751881 -0.04682047
v 0.01189849 -0.05773746 -0.04649609
v 0.01026573 -0.05902379 -0.04570731
v 0.00933187 -0.05947505 -0.04533625
v 0.00933187 -0.06269203 -0.02298192
v 0.03961315 -0.03949629 -0.02298192
v 0.03626932 -0.03949397 -0.04037251
v 0.03421481 -0.03949397 -0.04682047
v 0.01189849 -0.05737692 -0.04682047
v 0.01297092 -0.05697684 -0.04682047
v 0.01398311 -0.05735366 -0.04614137
v 0.01189849 -0.05877955 -0.04538993
v 0.01189849 -0.05953320 -0.04434677
v 0.00966926 -0.05968905 -0.04493719
v 0.00933187 -0.05976349 -0.04491619
v 0.00933187 -0.06313166 -0.02836572
v 0.01189849 -0.06224775 -0.02298192
v 0.03960110 -0.03951955 -0.02298192
v 0.03963123 -0.03958003 -0.02397607
v 0.04004394 -0.03949629 -0.03023033
v 0.03907091 -0.03949397 -0.04037251
v 0.03460041 -0.03949397 -0.04654510
v 0.03374487 -0.04024529 -0.04682047
v 0.01407047 -0.05654651 -0.04682047
v 0.01515195 -0.05712338 -0.04591734
v 0.01334447 -0.05929594 -0.04399905
v 0.01401625 -0.05846321 -0.04474583
v 0.01092546 -0.06126381 -0.04174005
v 0.00981386 -0.06084977 -0.04306558
v 0.00933187 -0.06089164 -0.04316593
v 0.00933187 -0.06319679 -0.02931086
v 0.00933187 -0.06325494 -0.03023033
v 0.01398311 -0.06185464 -0.02606238
v 0.01398311 -0.06172903 -0.02397607
v 0.01405240 -0.06163134 -0.02298192
v 0.03850457 -0.04150603 -0.02298192
v 0.03872749 -0.04144323 -0.02606238
v 0.04010720 -0.03949629 -0.03231665
v 0.03812500 -0.04274583 -0.02814636
v 0.03818223 -0.04284586 -0.03023033
v 0.04008309 -0.03949629 -0.03440062
v 0.04001080 -0.03949629 -0.03557213
v 0.03993247 -0.03949629 -0.03648226
v 0.03957098 -0.03949629 -0.03875060
v 0.03846842 -0.04154790 -0.03851490
v 0.03825453 -0.04091288 -0.04037251
v 0.03898355 -0.03949397 -0.04065255
v 0.03476309 -0.03949397 -0.04642841
v 0.03417264 -0.04100825 -0.04617404
v 0.03298272 -0.04139671 -0.04682047
v 0.01448921 -0.05637205 -0.04682047
v 0.01571227 -0.05583473 -0.04682047
v 0.01593519 -0.05608827 -0.04651476
v 0.01815537 -0.05537882 -0.04621138
v 0.01654069 -0.05682099 -0.04557429
v 0.01593519 -0.05761651 -0.04485784
v 0.01768543 -0.05737925 -0.04418575
v 0.01473322 -0.05901681 -0.04358832
v 0.01568515 -0.05941225 -0.04219978
v 0.01401625 -0.05967277 -0.04283221
v 0.01173280 -0.06142431 -0.04053587
v 0.00981386 -0.06184766 -0.04065255
v 0.00981386 -0.06139640 -0.04202476
v 0.01231722 -0.06101492 -0.04115429
v 0.01275403 -0.06117310 -0.04037251
v 0.01309142 -0.06129406 -0.03976342
v 0.00933187 -0.06144292 -0.04212277
v 0.00933187 -0.06325029 -0.03087910
v 0.01398311 -0.06196397 -0.03023033
v 0.01398311 -0.06194070 -0.02814636
v 0.01533571 -0.06137081 -0.02606238
v 0.01517002 -0.06130336 -0.02397607
v 0.01507965 -0.06126614 -0.02298192
v 0.03798341 -0.04233644 -0.02298192
v 0.03799244 -0.04254579 -0.02451048
v 0.03805269 -0.04263418 -0.02606238
v 0.03821236 -0.04289238 -0.03231665
v 0.03742610 -0.04378792 -0.02814636
v 0.03749840 -0.04388794 -0.03023033
v 0.03819730 -0.04285516 -0.03440062
v 0.03812198 -0.04272490 -0.03648226
v 0.03802257 -0.04258301 -0.03778679
v 0.03779965 -0.04231318 -0.03917533
v 0.03822139 -0.04081751 -0.04065255
v 0.03797738 -0.04043371 -0.04173771
v 0.03819428 -0.03949397 -0.04236314
v 0.03509446 -0.03949397 -0.04615770
v 0.03556139 -0.03991499 -0.04557429
v 0.03372379 -0.04239925 -0.04580765
v 0.03286222 -0.04156883 -0.04682047
v 0.01597134 -0.05571377 -0.04682047
v 0.01729080 -0.05508107 -0.04682047
v 0.01823972 -0.05461120 -0.04682047
v 0.01933023 -0.05506712 -0.04594067
v 0.01829094 -0.05785144 -0.04288589
v 0.01707390 -0.05912381 -0.04166303
v 0.01625752 -0.05881677 -0.04283221
v 0.02171309 -0.05523692 -0.04409473
v 0.01907719 -0.05698381 -0.04367700
v 0.01189849 -0.06188720 -0.03856857
v 0.00981386 -0.06191047 -0.04037251
v 0.00933187 -0.06241988 -0.03853123
v 0.00933187 -0.06199653 -0.04037251
v 0.00933187 -0.06193140 -0.04065255
v 0.01625752 -0.05973092 -0.04084158
v 0.01736008 -0.05947040 -0.04037251
v 0.01759807 -0.05941225 -0.04026983
v 0.01350112 -0.06143595 -0.03856857
v 0.00933187 -0.06323866 -0.03231665
v 0.01398311 -0.06193373 -0.03231665
v 0.01545621 -0.06141268 -0.03231665
v 0.01547729 -0.06142431 -0.03023033
v 0.01544717 -0.06141501 -0.02814636
v 0.01964654 -0.05939131 -0.02606238
v 0.01815537 -0.05996818 -0.02397607
v 0.01815537 -0.05990305 -0.02298192
v 0.01714017 -0.06035431 -0.02298192
v 0.03681457 -0.04408333 -0.02298192
v 0.03617894 -0.04502540 -0.02298192
v 0.03734778 -0.04367627 -0.02606238
v 0.03752552 -0.04393447 -0.03231665
v 0.03630245 -0.04519986 -0.02606238
v 0.03638078 -0.04529755 -0.02814636
v 0.03645609 -0.04537431 -0.03023033
v 0.03747731 -0.04389725 -0.03440062
v 0.03643802 -0.04535803 -0.03440062
v 0.03736284 -0.04376699 -0.03648226
v 0.03632053 -0.04518590 -0.03648226
v 0.03612773 -0.04491142 -0.03856857
v 0.03596204 -0.04469045 -0.03981710
v 0.03583552 -0.04450668 -0.04037251
v 0.03563971 -0.04422988 -0.04120797
v 0.03760082 -0.03980566 -0.04312859
v 0.03794424 -0.03949397 -0.04282988
v 0.03611267 -0.04283888 -0.04216945
v 0.03573611 -0.04231551 -0.04355799
v 0.03625425 -0.03949397 -0.04509355
v 0.03668805 -0.03949397 -0.04461748
v 0.03621208 -0.04092451 -0.04418575
v 0.03326589 -0.04352508 -0.04534325
v 0.03176568 -0.04464625 -0.04592200
v 0.03222358 -0.04352508 -0.04624639
v 0.03137708 -0.04353903 -0.04682047
v 0.03186208 -0.04290169 -0.04682047
v 0.03424494 -0.04352508 -0.04430010
v 0.03383223 -0.04463927 -0.04383803
v 0.01870364 -0.05435766 -0.04682047
v 0.01988151 -0.05370170 -0.04682047
v 0.02011046 -0.05395525 -0.04649375
v 0.02186070 -0.05326905 -0.04619038
v 0.02072199 -0.05465773 -0.04548327
v 0.01981524 -0.05740484 -0.04228846
v 0.02120700 -0.05699544 -0.04158836
v 0.01755890 -0.05939131 -0.04037251
v 0.02248127 -0.05404364 -0.04493719
v 0.02310184 -0.05482055 -0.04349964
v 0.01412771 -0.06159179 -0.03652660
v 0.01189849 -0.06222449 -0.03648226
v 0.00933187 -0.06306653 -0.03400390
v 0.01823972 -0.05954251 -0.03844256
v 0.02160766 -0.05724201 -0.04037251
v 0.02166188 -0.05727923 -0.04019515
v 0.02208664 -0.05748857 -0.03856857
v 0.01491999 -0.06112657 -0.03725471
v 0.01398311 -0.06185929 -0.03440062
v 0.01533571 -0.06136616 -0.03440062
v 0.01971282 -0.05942388 -0.03440062
v 0.01975800 -0.05944481 -0.03231665
v 0.01973692 -0.05942853 -0.03023033
v 0.01970679 -0.05941225 -0.02814636
v 0.02362902 -0.05725132 -0.02814636
v 0.02355973 -0.05720246 -0.02606238
v 0.02056836 -0.05875629 -0.02397607
v 0.01952303 -0.05933549 -0.02397607
v 0.01944772 -0.05929362 -0.02298192
v 0.03544691 -0.04606749 -0.02298192
v 0.03621810 -0.04508355 -0.02397607
v 0.03648019 -0.04541386 -0.03231665
v 0.03548608 -0.04612564 -0.02397607
v 0.03555536 -0.04624195 -0.02606238
v 0.03560356 -0.04633964 -0.02814636
v 0.03563670 -0.04641873 -0.03023033
v 0.03566682 -0.04645594 -0.03231665
v 0.03563670 -0.04640012 -0.03440062
v 0.03552825 -0.04622799 -0.03648226
v 0.03529629 -0.04595351 -0.03856857
v 0.03425699 -0.04720727 -0.03856857
v 0.03399792 -0.04691651 -0.04014381
v 0.03394972 -0.04686068 -0.04037251
v 0.03369366 -0.04656992 -0.04153468
v 0.03416963 -0.04507890 -0.04273886
v 0.03526617 -0.04352973 -0.04281354
v 0.03721222 -0.03949397 -0.04389870
v 0.03117825 -0.04603725 -0.04533392
v 0.02978650 -0.04684905 -0.04601302
v 0.03055166 -0.04545108 -0.04630940
v 0.03250976 -0.04533942 -0.04458714
v 0.03059082 -0.04449506 -0.04682047
v 0.03331710 -0.04612099 -0.04273886
v 0.03186208 -0.04684207 -0.04394538
v 0.02115277 -0.05291549 -0.04682047
v 0.02246621 -0.05199668 -0.04682047
v 0.02324945 -0.05281547 -0.04577965
v 0.02367722 -0.05520901 -0.04211110
v 0.02234270 -0.05662094 -0.04079724
v 0.02186372 -0.05708616 -0.04037251
v 0.02402667 -0.05343188 -0.04438877
v 0.02540939 -0.05286664 -0.04374001
v 0.02598175 -0.05331790 -0.04235147
v 0.01516098 -0.06130103 -0.03586384
v 0.01815537 -0.05988910 -0.03648226
v 0.02336091 -0.05706988 -0.03751375
v 0.01924589 -0.05918429 -0.03766077
v 0.01946881 -0.05929827 -0.03648226
v 0.02438515 -0.05543697 -0.04048686
v 0.02312895 -0.05692101 -0.03856857
v 0.02350250 -0.05716292 -0.03612521
v 0.02363203 -0.05725596 -0.03440062
v 0.02368626 -0.05729318 -0.03231665
v 0.02467133 -0.05651860 -0.02814636
v 0.02460204 -0.05649301 -0.02606238
v 0.02344225 -0.05712338 -0.02397607
v 0.02232462 -0.05776538 -0.02397607
v 0.02448757 -0.05642788 -0.02397607
v 0.02155946 -0.05812360 -0.02298192
v 0.02049003 -0.05872373 -0.02298192
v 0.03494685 -0.04669786 -0.02298192
v 0.03440460 -0.04736777 -0.02298192
v 0.03444376 -0.04741197 -0.02397607
v 0.03451606 -0.04750501 -0.02606238
v 0.03456125 -0.04758642 -0.02814636
v 0.03372981 -0.04869131 -0.03023033
v 0.03372680 -0.04868666 -0.03231665
v 0.03459740 -0.04758875 -0.03440062
v 0.03448293 -0.04746547 -0.03648226
v 0.03334723 -0.04824936 -0.03856857
v 0.03201873 -0.04905651 -0.04029550
v 0.03285620 -0.04782368 -0.04091626
v 0.03169037 -0.04873086 -0.04168637
v 0.03135900 -0.04835171 -0.04273886
v 0.03227479 -0.04730962 -0.04273886
v 0.03052153 -0.04753990 -0.04468049
v 0.02911472 -0.04824005 -0.04541793
v 0.02772296 -0.04893323 -0.04600368
v 0.02847909 -0.04760503 -0.04635607
v 0.02853933 -0.04676531 -0.04682047
v 0.02911773 -0.04617216 -0.04682047
v 0.03013293 -0.04503936 -0.04682047
v 0.02986181 -0.04896812 -0.04402706
v 0.02274336 -0.05178966 -0.04682047
v 0.02440322 -0.05133375 -0.04625105
v 0.02555097 -0.05090110 -0.04593134
v 0.02737050 -0.05277360 -0.04144367
v 0.02505994 -0.05470657 -0.04107028
v 0.02634325 -0.05132910 -0.04470382
v 0.02766572 -0.05092901 -0.04392904
v 0.02660232 -0.05245260 -0.04292323
v 0.02548168 -0.05501595 -0.03967707
v 0.02566846 -0.05516481 -0.03856857
v 0.02593355 -0.05536253 -0.03648226
v 0.02427971 -0.05653721 -0.03668530
v 0.02527081 -0.05486242 -0.04037251
v 0.02467736 -0.05649999 -0.03440062
v 0.02471953 -0.05653255 -0.03231665
v 0.02470146 -0.05653023 -0.03023033
v 0.02608418 -0.05547651 -0.02814636
v 0.02603899 -0.05545092 -0.02606238
v 0.02595464 -0.05538579 -0.02397607
v 0.02349948 -0.05700707 -0.02298192
v 0.02338200 -0.05708384 -0.02298192
v 0.02240596 -0.05764442 -0.02298192
v 0.02513826 -0.05588590 -0.02298192
v 0.03347676 -0.04841218 -0.02298192
v 0.03358521 -0.04854710 -0.02606238
v 0.03365450 -0.04862851 -0.02814636
v 0.03147649 -0.05060103 -0.02397607
v 0.03159699 -0.05071733 -0.02814636
v 0.03164217 -0.05076386 -0.03023033
v 0.03163314 -0.05075455 -0.03231665
v 0.03158192 -0.05070571 -0.03440062
v 0.03366353 -0.04863084 -0.03440062
v 0.03355509 -0.04850755 -0.03648226
v 0.03230491 -0.04933796 -0.03856857
v 0.03122344 -0.05038005 -0.03856857
v 0.02990097 -0.05108718 -0.04022315
v 0.02986482 -0.05105462 -0.04037251
v 0.03079567 -0.04991483 -0.04095360
v 0.02956960 -0.05077083 -0.04161403
v 0.03031669 -0.04939379 -0.04273886
v 0.02693972 -0.05032423 -0.04531992
v 0.02634325 -0.04968921 -0.04629773
v 0.02592150 -0.04925190 -0.04682047
v 0.02703612 -0.04823773 -0.04682047
v 0.02762656 -0.04766086 -0.04682047
v 0.02808445 -0.04721192 -0.04682047
v 0.02915990 -0.05043821 -0.04273886
v 0.02380675 -0.05099414 -0.04682047
v 0.02483400 -0.05017769 -0.04682047
v 0.02536721 -0.04973340 -0.04682047
v 0.02811759 -0.05132677 -0.04273886
v 0.02767175 -0.05302714 -0.04037251
v 0.02642760 -0.05390640 -0.04056154
v 0.02622576 -0.05414366 -0.04037251
v 0.02671077 -0.05435766 -0.03856857
v 0.02775911 -0.05310390 -0.04005280
v 0.02697587 -0.05455770 -0.03648226
v 0.02709938 -0.05465773 -0.03440062
v 0.02605707 -0.05545790 -0.03440062
v 0.02609623 -0.05549047 -0.03231665
v 0.02609924 -0.05548582 -0.03023033
v 0.02714457 -0.05468331 -0.03023033
v 0.02712950 -0.05467168 -0.02814636
v 0.02708130 -0.05462516 -0.02606238
v 0.02699695 -0.05455538 -0.02397607
v 0.02694273 -0.05452049 -0.02298192
v 0.02590042 -0.05534160 -0.02298192
v 0.03297669 -0.04894486 -0.02298192
v 0.03243445 -0.04952173 -0.02298192
v 0.03144034 -0.05056381 -0.02298192
v 0.03094328 -0.05103833 -0.02298192
v 0.03043417 -0.05157799 -0.02397607
v 0.02945512 -0.05272475 -0.02814636
v 0.02948826 -0.05275266 -0.03023033
v 0.02948826 -0.05275266 -0.03231665
v 0.02947922 -0.05275266 -0.03440062
v 0.03146143 -0.05058940 -0.03648226
v 0.03251278 -0.04954731 -0.03648226
v 0.03041610 -0.05160125 -0.03648226
v 0.02933764 -0.05264334 -0.03648226
v 0.03018113 -0.05135701 -0.03856857
v 0.02905748 -0.05239444 -0.03856857
v 0.02801215 -0.05331558 -0.03856857
v 0.02829834 -0.05351329 -0.03648226
v 0.02843992 -0.05361564 -0.03440062
v 0.02713553 -0.05467866 -0.03231665
v 0.02844595 -0.05363657 -0.03231665
v 0.02844595 -0.05364123 -0.03023033
v 0.02840980 -0.05362960 -0.02814636
v 0.02833449 -0.05358307 -0.02606238
v 0.02821399 -0.05347840 -0.02298192
v 0.02755426 -0.05402038 -0.02298192
v 0.03040104 -0.05154542 -0.02298192
v 0.02937680 -0.05267590 -0.02606238
v 0.02929245 -0.05262008 -0.02397607
v 0.02925329 -0.05258751 -0.02298192
v 0.02980457 -0.05208973 -0.02298192
f 1 2 7
f 1 7 15
f 1 15 30
f 1 30 57
f 1 57 97
f 1 97 151
f 1 151 150
f 1 150 205
f 1 205 255
f 1 255 254
f 1 254 253
f 1 253 302
f 1 302 301
f 1 301 300
f 1 300 299
f 1 299 306
f 1 306 305
f 1 305 304
f 1 304 257
f 1 257 209
f 1 209 208
f 1 208 155
f 1 155 154
f 1 154 100
f 1 100 99
f 1 99 98
f 1 98 59
f 1 59 58
f 1 58 31
f 1 31 17
f 1 17 16
f 1 16 8
f 1 8 3
f 1 3 4
f 1 4 11
f 1 11 22
f 1 22 37
f 1 37 74
f 1 74 111
f 1 111 110
f 1 110 109
f 1 109 166
f 1 166 116
f 1 116 75
f 1 75 39
f 1 39 38
f 1 38 23
f 1 23 12
f 1 12 5
f 1 5 2
f 2 5 6
f 2 6 7
f 3 8 9
f 3 9 10
f 3 10 4
f 4 10 11
f 5 12 24
f 5 24 42
f 5 42 80
f 5 80 124
f 5 124 123
f 5 123 182
f 5 182 233
f 5 233 232
f 5 232 278
f 5 278 277
f 5 277 276
f 5 276 279
f 5 279 323
f 5 323 322
f 5 322 348
f 5 348 347
f 5 347 352
f 5 352 353
f 5 353 349
f 5 349 327
f 5 327 326
f 5 326 325
f 5 325 324
f 5 324 280
f 5 280 235
f 5 235 234
f 5 234 183
f 5 183 126
f 5 126 125
f 5 125 81
f 5 81 43
f 5 43 25
f 5 25 13
f 5 13 6
f 6 13 28
f 6 28 14
f 6 14 7
f 7 14 28
f 7 28 54
f 7 54 93
f 7 93 141
f 7 141 200
f 7 200 145
f 7 145 144
f 7 144 94
f 7 94 55
f 7 55 29
f 7 29 15
f 8 16 9
f 9 16 17
f 9 17 18
f 9 18 19
f 9 19 10
f 10 19 20
f 10 20 21
f 10 21 11
f 11 21 22
f 12 23 24
f 13 25 26
f 13 26 27
f 13 27 28
f 15 29 30
f 17 31 18
f 18 31 32
f 18 32 19
f 19 33 20
f 19 32 34
f 19 34 33
f 20 33 35
f 20 35 36
f 20 36 21
f 21 36 37
f 21 37 22
f 23 38 24
f 24 38 39
f 24 39 40
f 24 40 41
f 24 41 42
f 25 43 26
f 26 43 44
f 26 44 27
f 27 45 28
f 27 44 46
f 27 46 47
f 27 47 45
f 28 45 48
f 28 48 49
f 28 49 50
f 28 50 51
f 28 51 52
f 28 52 53
f 28 53 54
f 29 55 56
f 29 56 30
f 30 56 57
f 31 58 32
f 32 58 59
f 32 59 60
f 32 60 61
f 32 61 62
f 32 62 63
f 32 63 34
f 33 34 63
f 33 63 64
f 33 64 65
f 33 65 66
f 33 66 67
f 33 67 35
f 35 68 69
f 35 69 70
f 35 70 36
f 35 67 66
f 35 66 71
f 35 71 72
f 35 72 73
f 35 73 68
f 36 74 37
f 36 70 74
f 39 75 76
f 39 76 77
f 39 77 40
f 40 77 78
f 40 78 41
f 41 78 79
f 41 79 80
f 41 80 42
f 43 81 82
f 43 82 83
f 43 83 46
f 43 46 44
f 45 47 84
f 45 84 48
f 46 83 85
f 46 85 86
f 46 86 47
f 47 86 84
f 48 84 87
f 48 87 49
f 49 87 88
f 49 88 50
f 50 88 89
f 50 89 51
f 51 89 52
f 52 89 90
f 52 90 53
f 53 91 54
f 53 90 91
f 54 91 92
f 54 92 93
f 55 94 95
f 55 95 56
f 56 95 96
f 56 96 57
f 57 96 97
f 59 98 60
f 60 98 61
f 61 98 99
f 61 99 100
f 61 100 101
f 61 101 62
f 62 101 64
f 62 64 63
f 64 102 103
f 64 103 104
f 64 104 65
f 64 101 105
f 64 105 106
f 64 106 102
f 65 104 66
f 66 104 103
f 66 103 73
f 66 73 72
f 66 72 71
f 68 73 107
f 68 107 69
f 69 108 109
f 69 109 110
f 69 110 111
f 69 111 70
f 69 107 108
f 70 111 74
f 73 103 112
f 73 112 113
f 73 113 114
f 73 114 115
f 73 115 107
f 75 116 76
f 76 117 118
f 76 118 119
f 76 119 120
f 76 120 77
f 76 116 117
f 77 120 78
f 78 120 121
f 78 121 122
f 78 122 123
f 78 123 79
f 79 123 124
f 79 124 80
f 81 125 82
f 82 125 126
f 82 126 127
f 82 127 83
f 83 127 85
f 84 86 128
f 84 128 87
f 85 127 129
f 85 129 130
f 85 130 86
f 86 130 131
f 86 131 128
f 87 128 132
f 87 132 88
f 88 132 133
f 88 133 134
f 88 134 89
f 89 134 135
f 89 135 136
f 89 136 137
f 89 137 90
f 90 137 91
f 91 137 138
f 91 138 139
f 91 139 92
f 92 140 141
f 92 141 93
f 92 139 142
f 92 142 143
f 92 143 140
f 94 144 95
f 95 144 145
f 95 145 146
f 95 146 96
f 96 147 148
f 96 148 149
f 96 149 150
f 96 150 151
f 96 151 97
f 96 146 152
f 96 152 153
f 96 153 147
f 100 154 101
f 101 155 156
f 101 156 157
f 101 157 158
f 101 158 105
f 101 154 155
f 102 106 159
f 102 159 103
f 103 113 112
f 103 159 160
f 103 160 161
f 103 161 113
f 105 158 162
f 105 162 163
f 105 163 106
f 106 163 159
f 107 115 164
f 107 164 165
f 107 165 109
f 107 109 108
f 109 165 166
f 113 161 114
f 114 167 115
f 114 161 160
f 114 160 168
f 114 168 169
f 114 169 170
f 114 170 167
f 115 167 171
f 115 171 164
f 116 166 165
f 116 165 172
f 116 172 117
f 117 172 118
f 118 172 173
f 118 173 174
f 118 174 175
f 118 175 119
f 119 175 120
f 120 175 176
f 120 176 177
f 120 177 121
f 121 177 178
f 121 178 179
f 121 179 180
f 121 180 181
f 121 181 122
f 122 181 123
f 123 181 182
f 126 183 186
f 126 186 184
f 126 184 127
f 127 184 129
f 128 131 185
f 128 185 132
f 129 184 186
f 129 186 187
f 129 187 130
f 130 187 131
f 131 187 188
f 131 188 189
f 131 189 190
f 131 190 185
f 132 185 133
f 133 185 191
f 133 191 192
f 133 192 135
f 133 135 134
f 135 192 136
f 136 192 193
f 136 193 137
f 137 193 194
f 137 194 195
f 137 195 196
f 137 196 197
f 137 197 138
f 138 197 139
f 139 198 199
f 139 199 143
f 139 143 142
f 139 197 198
f 140 200 141
f 140 143 146
f 140 146 200
f 143 199 198
f 143 198 153
f 143 153 146
f 145 200 146
f 146 153 152
f 147 153 148
f 148 201 202
f 148 202 203
f 148 203 149
f 148 153 204
f 148 204 201
f 149 203 150
f 150 203 205
f 153 198 206
f 153 206 207
f 153 207 204
f 155 208 157
f 155 157 156
f 157 208 209
f 157 209 210
f 157 210 158
f 158 210 162
f 159 163 160
f 160 163 211
f 160 211 212
f 160 212 213
f 160 213 168
f 162 210 163
f 163 210 214
f 163 214 215
f 163 215 216
f 163 216 211
f 164 171 167
f 164 167 217
f 164 217 172
f 164 172 165
f 167 218 217
f 167 170 219
f 167 219 220
f 167 220 221
f 167 221 218
f 168 213 169
f 169 213 222
f 169 222 223
f 169 223 170
f 170 223 219
f 172 217 173
f 173 217 174
f 174 221 219
f 174 219 224
f 174 224 225
f 174 225 226
f 174 226 175
f 174 217 218
f 174 218 221
f 175 226 176
f 176 226 177
f 177 226 178
f 178 226 227
f 178 227 228
f 178 228 179
f 179 229 230
f 179 230 180
f 179 228 231
f 179 231 229
f 180 232 233
f 180 233 181
f 180 230 232
f 181 233 182
f 183 234 186
f 185 190 191
f 186 234 187
f 187 234 235
f 187 235 236
f 187 236 237
f 187 237 188
f 188 237 238
f 188 238 189
f 189 238 239
f 189 239 190
f 190 239 240
f 190 240 191
f 191 240 241
f 191 241 242
f 191 242 192
f 192 242 194
f 192 194 193
f 194 242 243
f 194 243 195
f 195 243 244
f 195 244 245
f 195 245 196
f 196 245 197
f 197 245 246
f 197 246 247
f 197 247 248
f 197 248 206
f 197 206 198
f 201 204 207
f 201 207 249
f 201 249 202
f 202 250 251
f 202 251 252
f 202 252 253
f 202 253 254
f 202 254 255
f 202 255 203
f 202 249 250
f 203 255 205
f 206 248 207
f 207 247 256
f 207 256 249
f 207 248 247
f 209 257 258
f 209 258 210
f 210 258 259
f 210 259 214
f 211 216 260
f 211 260 261
f 211 261 222
f 211 222 212
f 212 222 213
f 214 259 262
f 214 262 263
f 214 263 215
f 215 264 216
f 215 263 264
f 216 264 260
f 219 221 220
f 219 223 265
f 219 265 266
f 219 266 267
f 219 267 268
f 219 268 224
f 222 261 269
f 222 269 265
f 222 265 223
f 224 268 267
f 224 267 270
f 224 270 225
f 225 270 226
f 226 270 271
f 226 271 272
f 226 272 227
f 227 272 273
f 227 273 274
f 227 274 228
f 228 274 275
f 228 275 231
f 229 276 277
f 229 277 230
f 229 231 276
f 230 277 278
f 230 278 232
f 231 275 279
f 231 279 276
f 235 280 236
f 236 280 237
f 237 280 281
f 237 281 282
f 237 282 239
f 237 239 238
f 239 282 283
f 239 283 284
f 239 284 285
f 239 285 240
f 240 285 286
f 240 286 287
f 240 287 288
f 240 288 241
f 241 288 289
f 241 289 242
f 242 289 243
f 243 289 290
f 243 290 244
f 244 290 291
f 244 291 292
f 244 292 293
f 244 293 294
f 244 294 246
f 244 246 245
f 246 294 295
f 246 295 296
f 246 296 247
f 247 296 256
f 249 256 250
f 250 256 251
f 251 256 297
f 251 297 259
f 251 259 298
f 251 298 299
f 251 299 300
f 251 300 252
f 252 300 301
f 252 301 302
f 252 302 253
f 256 296 303
f 256 303 263
f 256 263 297
f 257 304 258
f 258 304 259
f 259 304 305
f 259 305 306
f 259 306 298
f 259 297 262
f 260 307 303
f 260 303 295
f 260 295 308
f 260 308 309
f 260 309 261
f 260 264 307
f 261 309 310
f 261 310 269
f 262 297 263
f 263 303 307
f 263 307 264
f 265 311 266
f 265 269 310
f 265 310 312
f 265 312 311
f 266 311 313
f 266 313 267
f 267 313 314
f 267 314 315
f 267 315 270
f 270 315 271
f 271 315 316
f 271 316 317
f 271 317 272
f 272 317 273
f 273 317 318
f 273 318 319
f 273 319 274
f 274 319 320
f 274 320 275
f 275 320 321
f 275 321 322
f 275 322 323
f 275 323 279
f 280 324 281
f 281 324 325
f 281 325 283
f 281 283 282
f 283 326 327
f 283 327 328
f 283 328 284
f 283 325 326
f 284 328 329
f 284 329 285
f 285 329 330
f 285 330 331
f 285 331 332
f 285 332 286
f 286 332 287
f 287 333 334
f 287 334 288
f 287 332 333
f 288 334 289
f 289 334 290
f 290 334 333
f 290 333 335
f 290 335 336
f 290 336 291
f 291 336 337
f 291 337 292
f 292 337 338
f 292 338 312
f 292 312 293
f 293 312 295
f 293 295 294
f 295 312 308
f 295 303 296
f 298 306 299
f 308 312 309
f 309 312 310
f 311 312 339
f 311 339 340
f 311 340 313
f 312 338 339
f 313 340 341
f 313 341 314
f 314 316 315
f 314 341 316
f 316 341 342
f 316 342 318
f 316 318 317
f 318 343 344
f 318 344 319
f 318 342 343
f 319 344 345
f 319 345 320
f 320 345 346
f 320 346 347
f 320 347 321
f 321 347 348
f 321 348 322
f 327 349 328
f 328 349 350
f 328 350 329
f 329 350 346
f 329 346 345
f 329 345 330
f 330 345 344
f 330 344 331
f 331 344 343
f 331 343 332
f 332 343 341
f 332 341 340
f 332 340 336
f 332 336 335
f 332 335 333
f 336 340 339
f 336 339 338
f 336 338 337
f 341 343 342
f 346 350 351
f 346 351 352
f 346 352 347
f 349 353 350
f 350 353 351
f 351 353 352

