# https://github.com/mikedh/trimesh
v 0.03033696 0.00377996 -0.04681980
v 0.03655222 0.00377996 -0.03991621
v 0.03453027 0.00377996 -0.04681980
v 0.03700471 -0.01796026 -0.04681980
v 0.04266930 -0.01796026 -0.03991621
v 0.03924721 0.00377996 -0.03991621
v 0.03553342 0.00377996 -0.04609058
v 0.03594322 0.00349267 -0.04592365
v 0.03478639 0.00335009 -0.04681980
v 0.04076403 -0.01796026 -0.04681980
v 0.04485774 -0.01796026 -0.03991621
v 0.04005542 0.00232224 -0.03991621
v 0.04022190 0.00170085 -0.04065421
v 0.03904373 0.00377996 -0.04073869
v 0.03585073 0.00377996 -0.04584187
v 0.03768628 0.00069640 -0.04559046
v 0.03624487 0.00234139 -0.04616762
v 0.03536836 0.00236693 -0.04681980
v 0.03612250 0.00377996 -0.04552761
v 0.04005115 -0.00076344 -0.04379614
v 0.04077115 -0.01796026 -0.04681439
v 0.04066300 -0.01598968 -0.04681980
v 0.04468983 -0.01796026 -0.04065421
v 0.04487196 -0.01642168 -0.03991621
v 0.04026174 0.00192642 -0.03991621
v 0.04009526 0.00140717 -0.04180380
v 0.04076688 0.00025590 -0.04065421
v 0.03854145 0.00377996 -0.04196937
v 0.03799505 -0.00069322 -0.04590135
v 0.03696060 0.00010268 -0.04643728
v 0.03690084 -0.00078260 -0.04681980
v 0.03645831 0.00015375 -0.04681980
v 0.03669451 0.00377996 -0.04483827
v 0.03828390 0.00185832 -0.04420096
v 0.04026459 0.00006012 -0.04259519
v 0.04221540 -0.00467907 -0.04193558
v 0.04191232 -0.00563669 -0.04332576
v 0.04212860 -0.00702631 -0.04378668
v 0.04024752 -0.00182960 -0.04403673
v 0.03970539 -0.00391509 -0.04552491
v 0.03927709 -0.00182960 -0.04507886
v 0.03967408 0.00062618 -0.04319398
v 0.04195643 -0.01796026 -0.04587296
v 0.04054490 -0.01433618 -0.04681980
v 0.04432130 -0.01796026 -0.04206196
v 0.04469553 -0.01642168 -0.04065421
v 0.04472256 -0.01425319 -0.03991621
v 0.04087502 0.00025590 -0.03991621
v 0.03810177 0.00377996 -0.04281957
v 0.03839346 0.00377996 -0.04232689
v 0.04216986 -0.00334052 -0.03991621
v 0.04241887 -0.00404490 -0.03991621
v 0.04235342 -0.00424707 -0.04065421
v 0.03823552 -0.00182960 -0.04611896
v 0.03736328 -0.00178917 -0.04681980
v 0.03712565 0.00377996 -0.04425503
v 0.03775031 0.00377996 -0.04334469
v 0.04288132 -0.00599846 -0.04065421
v 0.04428573 -0.01078233 -0.03991688
v 0.04235769 -0.00619850 -0.04267426
v 0.04274614 -0.00808183 -0.04273914
v 0.04417758 -0.01341048 -0.04166390
v 0.04376636 -0.01419786 -0.04258235
v 0.04220970 -0.00808183 -0.04389211
v 0.04170315 -0.01225069 -0.04536136
v 0.04132181 -0.00808183 -0.04493423
v 0.04013510 -0.00664113 -0.04595812
v 0.03995582 -0.00525151 -0.04578037
v 0.04060039 -0.00391509 -0.04448278
v 0.03866382 -0.00391509 -0.04648391
v 0.04205034 -0.01796026 -0.04579119
v 0.04082237 -0.01433618 -0.04658191
v 0.04048087 -0.01379991 -0.04681980
v 0.04391008 -0.01796026 -0.04310409
v 0.04430992 -0.01642168 -0.04193153
v 0.04425442 -0.01480010 -0.04178284
v 0.04449347 -0.01419786 -0.04084344
v 0.04455181 -0.01274653 -0.03991621
v 0.04299088 -0.00599846 -0.03991621
v 0.03826683 -0.00391509 -0.04681980
v 0.04320147 -0.00676669 -0.03991621
v 0.04428573 -0.01078233 -0.03991621
v 0.04439387 -0.01225069 -0.04033725
v 0.04251278 -0.01225069 -0.04431856
v 0.04186394 -0.01433618 -0.04556614
v 0.04066016 -0.01225069 -0.04646431
v 0.04047375 -0.01016732 -0.04628116
v 0.04028024 -0.00808183 -0.04609599
v 0.03940088 -0.00801586 -0.04681980
v 0.03906223 -0.00660070 -0.04681980
v 0.03890998 -0.00597292 -0.04681980
v 0.03915614 -0.00596654 -0.04661502
v 0.03876911 -0.00550475 -0.04681980
v 0.04250567 -0.01796026 -0.04522282
v 0.04198062 -0.01642168 -0.04571009
v 0.04026317 -0.01225069 -0.04681980
v 0.04363688 -0.01796026 -0.04354811
v 0.04263800 -0.01433618 -0.04452401
v 0.03986333 -0.01016732 -0.04681980
v 0.04275326 -0.01796026 -0.04488828
v 0.04275326 -0.01642168 -0.04466796
f 1 2 6
f 1 6 14
f 1 14 28
f 1 28 50
f 1 50 49
f 1 49 57
f 1 57 56
f 1 56 33
f 1 33 19
f 1 19 15
f 1 15 7
f 1 7 3
f 1 3 9
f 1 9 18
f 1 18 32
f 1 32 31
f 1 31 55
f 1 55 80
f 1 80 93
f 1 93 91
f 1 91 90
f 1 90 89
f 1 89 99
f 1 99 96
f 1 96 73
f 1 73 44
f 1 44 22
f 1 22 10
f 1 10 4
f 1 4 5
f 1 5 2
f 2 5 11
f 2 11 24
f 2 24 47
f 2 47 78
f 2 78 82
f 2 82 81
f 2 81 79
f 2 79 52
f 2 52 51
f 2 51 48
f 2 48 25
f 2 25 12
f 2 12 6
f 3 7 8
f 3 8 9
f 4 10 21
f 4 21 43
f 4 43 71
f 4 71 94
f 4 94 100
f 4 100 97
f 4 97 74
f 4 74 45
f 4 45 23
f 4 23 11
f 4 11 5
f 6 12 13
f 6 13 14
f 7 15 8
f 8 16 17
f 8 17 18
f 8 18 9
f 8 15 19
f 8 19 20
f 8 20 16
f 10 22 21
f 11 23 24
f 12 25 13
f 13 26 14
f 13 25 27
f 13 27 26
f 14 26 28
f 16 20 29
f 16 29 17
f 17 29 30
f 17 30 31
f 17 31 32
f 17 32 18
f 19 33 34
f 19 34 20
f 20 35 36
f 20 36 37
f 20 37 38
f 20 38 39
f 20 39 40
f 20 40 41
f 20 41 29
f 20 34 42
f 20 42 26
f 20 26 35
f 21 22 43
f 22 44 43
f 23 45 46
f 23 46 24
f 24 46 47
f 25 48 27
f 26 42 49
f 26 49 50
f 26 50 28
f 26 27 36
f 26 36 35
f 27 48 51
f 27 51 52
f 27 52 53
f 27 53 36
f 29 41 40
f 29 40 54
f 29 54 55
f 29 55 31
f 29 31 30
f 33 56 34
f 34 56 57
f 34 57 42
f 36 53 58
f 36 58 59
f 36 59 60
f 36 60 37
f 37 60 38
f 38 60 61
f 38 61 62
f 38 62 63
f 38 63 64
f 38 64 65
f 38 65 66
f 38 66 67
f 38 67 68
f 38 68 69
f 38 69 39
f 39 69 40
f 40 69 68
f 40 68 70
f 40 70 54
f 42 57 49
f 43 44 72
f 43 72 71
f 44 73 72
f 45 74 75
f 45 75 46
f 46 75 76
f 46 76 77
f 46 77 47
f 47 77 78
f 52 79 58
f 52 58 53
f 54 70 80
f 54 80 55
f 58 79 81
f 58 81 59
f 59 82 78
f 59 78 83
f 59 83 62
f 59 62 61
f 59 61 60
f 59 81 82
f 62 83 77
f 62 77 76
f 62 76 74
f 62 74 63
f 63 74 84
f 63 84 64
f 64 84 85
f 64 85 65
f 65 86 87
f 65 87 88
f 65 88 66
f 65 85 86
f 66 88 67
f 67 88 89
f 67 89 90
f 67 90 91
f 67 91 92
f 67 92 68
f 68 92 91
f 68 91 93
f 68 93 80
f 68 80 70
f 71 72 95
f 71 95 94
f 72 73 96
f 72 96 86
f 72 86 85
f 72 85 95
f 74 97 98
f 74 98 84
f 74 76 75
f 77 83 78
f 84 98 85
f 85 98 95
f 86 96 87
f 87 96 99
f 87 99 88
f 88 99 89
f 94 95 98
f 94 98 101
f 94 101 100
f 97 100 101
f 97 101 98

