# https://github.com/mikedh/trimesh
v 0.00933187 -0.05408454 0.05268312
v 0.00933187 -0.05243536 0.05262268
v 0.00772477 -0.05395046 0.05286444
v 0.00933187 -0.05449585 0.05256895
v -0.01103613 -0.05395046 0.05308605
v 0.00933187 -0.05198629 0.05253538
v 0.00147114 -0.05594198 0.05261596
v 0.00355497 -0.05582483 0.05260925
v 0.00563879 -0.05563479 0.05255552
v 0.00772477 -0.05538878 0.05244807
v 0.00933187 -0.05517922 0.05228690
v -0.01270578 -0.05395046 0.05303904
v -0.00895015 -0.05569206 0.05265625
v -0.00686632 -0.05586648 0.05262940
v -0.00269651 -0.05603440 0.05260925
v -0.01270578 -0.05196286 0.05260253
v 0.00933187 -0.05115063 0.05166908
v -0.00184227 -0.05611249 0.05256895
v -0.00130514 -0.05709263 0.05213916
v 0.00008408 -0.05704056 0.05205858
v 0.00147114 -0.05698199 0.05190412
v 0.00355497 -0.05686484 0.05155491
v 0.00933187 -0.05520655 0.05223990
v -0.01270578 -0.05532109 0.05245479
v -0.01103613 -0.05551374 0.05260925
v -0.00396061 -0.05708872 0.05212573
v -0.00470699 -0.05621272 0.05251523
v -0.00269651 -0.05709914 0.05213916
v -0.00184227 -0.05709523 0.05213916
v 0.00933187 -0.05110508 0.05160192
v -0.01270578 -0.05103218 0.05107140
v -0.00184227 -0.05723060 0.05172952
v -0.00061269 -0.05732953 0.05124600
v 0.00147114 -0.05728918 0.05085650
v 0.00355497 -0.05718635 0.05050730
v 0.00479102 -0.05711346 0.05020510
v 0.00554819 -0.05669693 0.05096395
v 0.00772477 -0.05616847 0.05107140
v 0.00933187 -0.05568946 0.05119899
v -0.00534983 -0.05702364 0.05202500
v -0.01270578 -0.05592766 0.05107140
v -0.01103613 -0.05635720 0.05107140
v -0.00907311 -0.05678154 0.05108483
v -0.00686632 -0.05690780 0.05180339
v -0.00470699 -0.05733474 0.05122585
v -0.00269651 -0.05744798 0.05107140
v 0.00933187 -0.05076925 0.05099081
v 0.00933187 -0.05062087 0.05067518
v 0.00933187 -0.05034492 0.04941939
v -0.01270578 -0.05065992 0.04931866
v -0.00061484 -0.05785799 0.04898288
v 0.00147114 -0.05769529 0.04898288
v 0.00355497 -0.05750395 0.04898288
v 0.00618024 -0.05697418 0.04946640
v 0.00554819 -0.05722019 0.04885529
v 0.00757593 -0.05677243 0.04885529
v 0.00933187 -0.05627910 0.04895602
v -0.00686632 -0.05731782 0.05076248
v -0.01270578 -0.05644311 0.04900303
v -0.00984969 -0.05703796 0.04984918
v -0.00846047 -0.05721108 0.05039985
v -0.00478250 -0.05783457 0.04898288
v -0.00269651 -0.05791787 0.04898288
v 0.00933187 -0.05030196 0.04898288
v -0.01270578 -0.05060134 0.04887543
v -0.00061484 -0.05818210 0.04690108
v 0.00147114 -0.05804413 0.04690108
v 0.00355497 -0.05783847 0.04690108
v 0.00678209 -0.05709784 0.04807629
v 0.00563879 -0.05750395 0.04690108
v 0.00821445 -0.05692862 0.04690108
v 0.00933187 -0.05638063 0.04835834
v -0.00686632 -0.05768878 0.04898288
v -0.01107712 -0.05687395 0.04908361
v -0.01270578 -0.05682449 0.04700853
v -0.01179977 -0.05700282 0.04750547
v -0.01041055 -0.05717984 0.04845907
v -0.00907311 -0.05735426 0.04908361
v -0.00686632 -0.05794911 0.04690108
v -0.00478250 -0.05809229 0.04690108
v -0.00269651 -0.05819121 0.04690108
v 0.00933187 -0.05025250 0.04753234
v -0.01270578 -0.05042952 0.04690108
v -0.00061484 -0.05840989 0.04481927
v 0.00147114 -0.05829014 0.04481927
v 0.00355497 -0.05807537 0.04481927
v 0.00563879 -0.05774475 0.04481927
v 0.00717254 -0.05717854 0.04690108
v 0.00862647 -0.05703666 0.04557813
v 0.00784773 -0.05728267 0.04485957
v 0.00933187 -0.05669172 0.04636383
v -0.00895015 -0.05770050 0.04690108
v -0.01270578 -0.05689738 0.04656530
v -0.01222042 -0.05711736 0.04611537
v -0.01107712 -0.05728267 0.04684735
v -0.00895015 -0.05795562 0.04481256
v -0.00686632 -0.05819382 0.04481256
v -0.00478250 -0.05832659 0.04481256
v -0.00375784 -0.05916094 0.03753296
v -0.00184227 -0.05840859 0.04481927
v 0.00933187 -0.05023167 0.04690108
v 0.00933187 -0.05019523 0.04540352
v -0.01270578 -0.05038136 0.04481256
v -0.00164813 -0.05915964 0.03752625
v -0.00025891 -0.05914011 0.03742552
v 0.00110658 -0.05921561 0.03602869
v 0.00249580 -0.05915573 0.03542430
v 0.00563879 -0.05796083 0.04273075
v 0.00297253 -0.05922081 0.03402748
v 0.00772477 -0.05774866 0.04064895
v 0.00772477 -0.05753258 0.04273075
v 0.00890906 -0.05711736 0.04418802
v 0.00933187 -0.05692081 0.04455065
v -0.01103613 -0.05755862 0.04481256
v -0.01270578 -0.05701323 0.04567214
v -0.01248791 -0.05719676 0.04481256
v -0.01103613 -0.05779161 0.04273075
v -0.01103613 -0.05799467 0.04064224
v -0.00895015 -0.05815087 0.04273075
v -0.00796216 -0.05916614 0.03342979
v -0.00588481 -0.05916354 0.03549145
v -0.00458404 -0.05920129 0.03630403
v -0.00686632 -0.05988335 0.02605618
v -0.00686632 -0.06005517 0.02396767
v -0.00651255 -0.06129693 0.00897868
v -0.00478250 -0.06221980 -0.00103412
v -0.00391100 -0.06333791 -0.01447853
v -0.00269651 -0.06335353 -0.01427036
v -0.00269651 -0.05960610 0.03230831
v -0.00269651 -0.05943689 0.03439011
v -0.00269651 -0.05925466 0.03647863
v -0.00184227 -0.05917786 0.03733150
v 0.00933187 -0.05018351 0.04481927
v -0.01270578 -0.05037746 0.04422831
v -0.00061484 -0.05943559 0.03439011
v -0.00081762 -0.05923123 0.03662637
v -0.00061484 -0.05962042 0.03230831
v 0.00147114 -0.05952800 0.03230831
v 0.00166960 -0.05930282 0.03459158
v 0.00147114 -0.05970893 0.03022651
v 0.00475219 -0.05918697 0.03158304
v 0.00772477 -0.05795432 0.03856044
v 0.00355497 -0.05947594 0.03022651
v 0.00362400 -0.05928720 0.03229488
v 0.00933187 -0.05723321 0.04195176
v 0.00933187 -0.05716813 0.04251586
v -0.01270578 -0.05712257 0.04481256
v -0.01270578 -0.05725924 0.04367764
v -0.01270578 -0.05735947 0.04273075
v -0.01270578 -0.05775647 0.03897679
v -0.01011502 -0.05918567 0.02952138
v -0.00831810 -0.05921431 0.03230831
v -0.00789961 -0.06124227 0.00834071
v -0.00686632 -0.05953060 0.03021979
v -0.00686632 -0.05935358 0.03230831
v -0.00669375 -0.05920519 0.03422894
v -0.00707125 -0.06137503 0.00750799
v -0.00686632 -0.06208312 -0.00103412
v -0.00459267 -0.06337956 -0.01551272
v -0.00269651 -0.06344855 -0.01551272
v -0.00253688 -0.06345115 -0.01551272
v -0.00184227 -0.06346157 -0.01551272
v -0.00061484 -0.06347849 -0.01551944
v -0.00184227 -0.06335874 -0.01420992
v -0.00061484 -0.05978963 0.03022651
v 0.00933187 -0.05018091 0.04330157
v -0.01270578 -0.05036054 0.03647863
v 0.00078732 -0.06335223 -0.01429050
v 0.00144525 -0.06341340 -0.01551944
v 0.00355497 -0.06223412 -0.00311592
v 0.00355497 -0.06206490 -0.00103412
v 0.00563879 -0.06235257 -0.00728624
v 0.00355497 -0.05965166 0.02813799
v 0.00563879 -0.06217945 -0.00520444
v 0.00772477 -0.06201674 -0.00728624
v 0.00678641 -0.05918046 0.02735227
v 0.00933187 -0.05754820 0.03868131
v 0.00933187 -0.05738680 0.04036690
v 0.00897593 -0.05921691 0.02149636
v 0.00933187 -0.05775777 0.03647863
v -0.01270578 -0.05793740 0.03689499
v -0.01270578 -0.06210005 -0.01104020
v -0.01103613 -0.06190871 -0.00520444
v -0.00903643 -0.05928980 0.03021979
v -0.00895015 -0.06187096 -0.00103412
v -0.00895015 -0.06203887 -0.00311592
v -0.00895015 -0.06220678 -0.00520444
v -0.00686632 -0.06224713 -0.00311592
v -0.01103613 -0.06223021 -0.00937476
v -0.00563242 -0.06325460 -0.01551272
v -0.00184227 -0.06346026 -0.01551944
v -0.00686632 -0.06240203 -0.00520444
v -0.00049189 -0.06347588 -0.01551944
v 0.00933187 -0.05021475 0.03647863
v -0.01270578 -0.05036965 0.03439011
v 0.00933187 -0.06229659 -0.01551944
v 0.00772477 -0.06231091 -0.01145656
v 0.00772477 -0.06218205 -0.00937476
v 0.00933187 -0.06202325 -0.01145656
v 0.00933187 -0.06184883 -0.00937476
v 0.00889612 -0.06127611 -0.00171238
v 0.00933187 -0.06138024 -0.00406281
v 0.00933187 -0.05931453 0.01926010
v -0.01270578 -0.06223802 -0.01312201
v -0.01103613 -0.06207922 -0.00728624
v -0.01103613 -0.06235127 -0.01145656
v -0.01270578 -0.06231352 -0.01521052
v -0.01270578 -0.06232263 -0.01551272
v -0.01270578 -0.06225494 -0.01353837
v -0.00184227 -0.06115896 -0.01551944
v 0.00933187 -0.05022647 0.03439011
v -0.01270578 -0.05048029 0.02605618
v 0.00933187 -0.06012936 -0.01551944
v 0.00933187 -0.06218335 -0.01354508
v -0.01270578 -0.06013717 -0.01551272
v 0.00933187 -0.05026552 0.03230831
v 0.00933187 -0.05043603 0.02674788
v -0.01270578 -0.05049721 0.02553238
v 0.00933187 -0.05605913 -0.00898526
v -0.01270578 -0.05483038 -0.00648710
v 0.00933187 -0.05046337 0.02605618
v 0.00933187 -0.05053756 0.02439074
v 0.00933187 -0.05055708 0.02399453
v -0.01270578 -0.05057661 0.02412212
v 0.00933187 -0.05506727 -0.00728624
v -0.01270578 -0.05457265 -0.00559394
v 0.00933187 -0.05059483 0.02355802
v 0.00933187 -0.05129902 0.01564717
v -0.01270578 -0.05147735 0.01517037
v 0.00933187 -0.05461430 -0.00527831
v -0.01270578 -0.05449585 -0.00520444
v 0.00933187 -0.05457395 -0.00509028
v 0.00933187 -0.05152811 0.01366610
v -0.01270578 -0.05212687 0.00939504
v -0.01270578 -0.05270479 0.00552692
v 0.00933187 -0.05270740 0.00555378
v 0.00933187 -0.05423032 -0.00314278
v 0.00933187 -0.05235205 0.00776318
v -0.01270578 -0.05241453 0.00730653
v 0.00933187 -0.05265924 0.00584255
v 0.00933187 -0.05242364 0.00730653
f 1 2 3
f 1 3 4
f 1 4 11
f 1 11 23
f 1 23 39
f 1 39 57
f 1 57 72
f 1 72 91
f 1 91 113
f 1 113 146
f 1 146 145
f 1 145 178
f 1 178 177
f 1 177 180
f 1 180 203
f 1 203 202
f 1 202 200
f 1 200 199
f 1 199 214
f 1 214 196
f 1 196 213
f 1 213 219
f 1 219 225
f 1 225 230
f 1 230 232
f 1 232 237
f 1 237 236
f 1 236 240
f 1 240 241
f 1 241 238
f 1 238 233
f 1 233 228
f 1 228 227
f 1 227 223
f 1 223 222
f 1 222 221
f 1 221 217
f 1 217 216
f 1 216 211
f 1 211 194
f 1 194 166
f 1 166 133
f 1 133 102
f 1 102 101
f 1 101 82
f 1 82 64
f 1 64 49
f 1 49 48
f 1 48 47
f 1 47 30
f 1 30 17
f 1 17 6
f 1 6 2
f 2 5 3
f 2 6 5
f 3 5 7
f 3 7 8
f 3 8 9
f 3 9 4
f 4 9 10
f 4 10 11
f 5 12 13
f 5 13 14
f 5 14 15
f 5 15 7
f 5 6 16
f 5 16 12
f 6 17 16
f 7 15 18
f 7 18 19
f 7 19 8
f 8 19 20
f 8 20 9
f 9 20 21
f 9 21 10
f 10 21 22
f 10 22 11
f 11 22 23
f 12 16 31
f 12 31 50
f 12 50 65
f 12 65 83
f 12 83 103
f 12 103 134
f 12 134 167
f 12 167 195
f 12 195 212
f 12 212 218
f 12 218 224
f 12 224 229
f 12 229 234
f 12 234 239
f 12 239 235
f 12 235 231
f 12 231 226
f 12 226 220
f 12 220 215
f 12 215 208
f 12 208 207
f 12 207 209
f 12 209 204
f 12 204 182
f 12 182 181
f 12 181 150
f 12 150 149
f 12 149 148
f 12 148 147
f 12 147 115
f 12 115 93
f 12 93 75
f 12 75 59
f 12 59 41
f 12 41 24
f 12 24 25
f 12 25 13
f 13 25 26
f 13 26 14
f 14 26 27
f 14 27 15
f 15 27 28
f 15 28 29
f 15 29 19
f 15 19 18
f 16 17 30
f 16 30 31
f 19 29 32
f 19 32 33
f 19 33 20
f 20 33 34
f 20 34 21
f 21 34 35
f 21 35 22
f 22 35 36
f 22 36 37
f 22 37 38
f 22 38 23
f 23 38 39
f 24 40 25
f 24 41 42
f 24 42 43
f 24 43 44
f 24 44 40
f 25 40 26
f 26 28 27
f 26 40 45
f 26 45 46
f 26 46 28
f 28 46 32
f 28 32 29
f 30 47 31
f 31 47 48
f 31 48 49
f 31 49 50
f 32 46 33
f 33 46 51
f 33 51 34
f 34 51 52
f 34 52 35
f 35 52 53
f 35 53 36
f 36 54 38
f 36 38 37
f 36 53 55
f 36 55 54
f 38 54 56
f 38 56 57
f 38 57 39
f 40 44 58
f 40 58 45
f 41 59 60
f 41 60 42
f 42 60 61
f 42 61 43
f 43 61 44
f 44 61 58
f 45 58 62
f 45 62 63
f 45 63 46
f 46 63 51
f 49 64 65
f 49 65 50
f 51 63 66
f 51 66 67
f 51 67 52
f 52 67 53
f 53 67 68
f 53 68 55
f 54 55 69
f 54 69 56
f 55 68 70
f 55 70 69
f 56 69 71
f 56 71 72
f 56 72 57
f 58 61 73
f 58 73 62
f 59 74 60
f 59 75 76
f 59 76 74
f 60 74 77
f 60 77 78
f 60 78 61
f 61 78 73
f 62 73 79
f 62 79 80
f 62 80 81
f 62 81 63
f 63 81 66
f 64 82 83
f 64 83 65
f 66 81 84
f 66 84 85
f 66 85 67
f 67 85 68
f 68 85 86
f 68 86 87
f 68 87 70
f 69 70 88
f 69 88 89
f 69 89 71
f 70 87 90
f 70 90 89
f 70 89 88
f 71 89 72
f 72 89 91
f 73 92 79
f 73 78 92
f 74 76 77
f 75 93 94
f 75 94 76
f 76 94 95
f 76 95 77
f 77 95 92
f 77 92 78
f 79 92 96
f 79 96 97
f 79 97 80
f 80 97 98
f 80 98 81
f 81 98 99
f 81 99 100
f 81 100 84
f 82 101 83
f 83 101 102
f 83 102 103
f 84 100 99
f 84 99 104
f 84 104 105
f 84 105 106
f 84 106 85
f 85 106 107
f 85 107 86
f 86 108 87
f 86 107 109
f 86 109 108
f 87 108 110
f 87 110 111
f 87 111 90
f 89 90 111
f 89 111 110
f 89 110 112
f 89 112 91
f 91 112 113
f 92 95 114
f 92 114 96
f 93 115 94
f 94 115 116
f 94 116 114
f 94 114 95
f 96 114 117
f 96 117 118
f 96 118 119
f 96 119 120
f 96 120 97
f 97 120 121
f 97 121 99
f 97 99 98
f 99 121 122
f 99 122 123
f 99 123 124
f 99 124 125
f 99 125 126
f 99 126 127
f 99 127 128
f 99 128 129
f 99 129 130
f 99 130 131
f 99 131 132
f 99 132 104
f 102 133 103
f 103 133 134
f 104 132 135
f 104 135 136
f 104 136 105
f 105 136 135
f 105 135 106
f 106 135 137
f 106 137 138
f 106 138 139
f 106 139 107
f 107 139 138
f 107 138 140
f 107 140 109
f 108 109 141
f 108 141 142
f 108 142 110
f 109 140 143
f 109 143 144
f 109 144 141
f 110 142 112
f 112 142 145
f 112 145 146
f 112 146 113
f 114 116 117
f 115 147 116
f 116 147 148
f 116 148 149
f 116 149 150
f 116 150 117
f 117 150 118
f 118 150 151
f 118 151 119
f 119 151 152
f 119 152 120
f 120 152 153
f 120 153 123
f 120 123 154
f 120 154 155
f 120 155 156
f 120 156 121
f 121 156 122
f 122 156 123
f 123 156 154
f 123 153 124
f 124 153 157
f 124 157 158
f 124 158 125
f 125 158 126
f 126 158 159
f 126 159 127
f 127 159 160
f 127 160 128
f 128 160 161
f 128 161 162
f 128 162 163
f 128 163 164
f 128 164 129
f 129 165 137
f 129 137 130
f 129 164 163
f 129 163 165
f 130 137 131
f 131 137 132
f 132 137 135
f 133 166 167
f 133 167 134
f 137 165 140
f 137 140 138
f 140 165 168
f 140 168 169
f 140 169 170
f 140 170 171
f 140 171 172
f 140 172 173
f 140 173 143
f 141 144 143
f 141 143 174
f 141 174 175
f 141 175 176
f 141 176 142
f 142 177 178
f 142 178 145
f 142 176 179
f 142 179 180
f 142 180 177
f 143 173 174
f 150 181 151
f 151 181 182
f 151 182 183
f 151 183 184
f 151 184 152
f 152 184 153
f 153 185 186
f 153 186 187
f 153 187 158
f 153 158 157
f 153 184 185
f 154 156 155
f 158 187 188
f 158 188 159
f 159 189 190
f 159 190 191
f 159 191 160
f 159 188 192
f 159 192 187
f 159 187 189
f 160 191 161
f 161 191 162
f 162 191 163
f 163 191 210
f 163 210 213
f 163 213 196
f 163 196 169
f 163 169 193
f 163 193 168
f 163 168 165
f 166 194 195
f 166 195 167
f 168 193 169
f 169 196 197
f 169 197 172
f 169 172 170
f 170 172 171
f 172 197 198
f 172 198 175
f 172 175 174
f 172 174 173
f 175 198 199
f 175 199 200
f 175 200 201
f 175 201 176
f 176 201 179
f 179 201 200
f 179 200 202
f 179 202 203
f 179 203 180
f 182 204 189
f 182 189 205
f 182 205 183
f 183 205 185
f 183 185 184
f 185 205 186
f 186 205 187
f 187 192 188
f 187 205 189
f 189 204 206
f 189 206 190
f 190 207 208
f 190 208 191
f 190 206 204
f 190 204 209
f 190 209 207
f 191 208 215
f 191 215 210
f 194 211 195
f 195 211 212
f 196 214 197
f 197 214 198
f 198 214 199
f 210 215 213
f 211 216 212
f 212 216 217
f 212 217 218
f 213 215 219
f 215 220 219
f 217 221 218
f 218 221 222
f 218 222 223
f 218 223 224
f 219 220 225
f 220 226 225
f 223 227 224
f 224 227 228
f 224 228 229
f 225 226 230
f 226 231 232
f 226 232 230
f 228 233 234
f 228 234 229
f 231 235 236
f 231 236 237
f 231 237 232
f 233 238 239
f 233 239 234
f 235 239 240
f 235 240 236
f 238 241 239
f 239 241 240

