# https://github.com/mikedh/trimesh
v -0.04596956 -0.02623410 -0.04307549
v -0.04331918 -0.02623410 -0.04307549
v -0.04607126 -0.02623410 -0.04285432
v -0.04618058 -0.02476032 -0.04307549
v -0.04220946 -0.00597016 -0.04307549
v -0.04480327 -0.02623410 -0.01552068
v -0.04633502 -0.02476032 -0.04273834
v -0.04636235 -0.02623410 -0.04209101
v -0.04758776 -0.02424063 -0.03980646
v -0.04752165 -0.01746483 -0.04169452
v -0.04636553 -0.02267561 -0.04307549
v -0.04490369 -0.00597016 -0.04307549
v -0.04420646 -0.00597016 -0.01563666
v -0.04419946 -0.00597215 -0.01552068
v -0.04686637 -0.02623410 -0.01552068
v -0.04767229 -0.02267561 -0.04005460
v -0.04711933 -0.02623410 -0.04007618
v -0.04743140 -0.02563110 -0.03950977
v -0.04777843 -0.02486545 -0.03871678
v -0.04807779 -0.02267561 -0.03856844
v -0.04775491 -0.02059090 -0.04033512
v -0.04773521 -0.01829792 -0.04078825
v -0.04828944 -0.01850619 -0.03856844
v -0.04752165 -0.01746285 -0.04169452
v -0.04670747 -0.01835346 -0.04307549
v -0.04669095 -0.01894059 -0.04307549
v -0.04513949 -0.00672391 -0.04307549
v -0.04506386 -0.00597016 -0.04281387
v -0.04432023 -0.00597016 -0.01552068
v -0.04688162 -0.02623410 -0.01562318
v -0.04747462 -0.02375268 -0.01552068
v -0.04755661 -0.02398277 -0.01624623
v -0.04736594 -0.02623410 -0.03926432
v -0.04766530 -0.02623410 -0.03820431
v -0.04776890 -0.02623410 -0.03753810
v -0.04814008 -0.02476032 -0.03648349
v -0.04840893 -0.02267561 -0.03648349
v -0.04823414 -0.02059090 -0.03856844
v -0.04821762 -0.01642148 -0.03856844
v -0.04856147 -0.02059090 -0.03648349
v -0.04860278 -0.01850619 -0.03648349
v -0.04854240 -0.01642148 -0.03648349
v -0.04771106 -0.01662976 -0.04070194
v -0.04768754 -0.01433876 -0.04010585
v -0.04758839 -0.01225405 -0.03979028
v -0.04752547 -0.01119086 -0.03962035
v -0.04598545 -0.00998090 -0.04294063
v -0.04595685 -0.01021893 -0.04307549
v -0.04621426 -0.01225405 -0.04307549
v -0.04625875 -0.01267258 -0.04307549
v -0.04666298 -0.01657223 -0.04307549
v -0.04539309 -0.00754510 -0.04307549
v -0.04563461 -0.00641845 -0.04208831
v -0.04518716 -0.00597016 -0.04260618
v -0.04638523 -0.00597016 -0.01552068
v -0.04745810 -0.02573821 -0.01890300
v -0.04755979 -0.02601591 -0.02029476
v -0.04745365 -0.02623410 -0.02011675
v -0.04764559 -0.02275495 -0.01552068
v -0.04761636 -0.02438940 -0.01772161
v -0.04799898 -0.02267561 -0.01980657
v -0.04790555 -0.02623410 -0.03648349
v -0.04806381 -0.02623410 -0.03439853
v -0.04827672 -0.02476032 -0.03439853
v -0.04853858 -0.02267561 -0.03439853
v -0.04807016 -0.01433876 -0.03856844
v -0.04841338 -0.01433876 -0.03648349
v -0.04867015 -0.02059090 -0.03439853
v -0.04869049 -0.01850619 -0.03439853
v -0.04867587 -0.01642148 -0.03439853
v -0.04861676 -0.01433876 -0.03439853
v -0.04788203 -0.01225405 -0.03856844
v -0.04598482 -0.00597016 -0.04081522
v -0.04651172 -0.00808264 -0.04065339
v -0.04586088 -0.00808264 -0.04250368
v -0.04764559 -0.01036372 -0.03846324
v -0.04756233 -0.00889193 -0.03769993
v -0.04593143 -0.01005429 -0.04307549
v -0.04554118 -0.00808264 -0.04307549
v -0.04587677 -0.00597016 -0.04112270
v -0.04639286 -0.00599793 -0.01552068
v -0.04639349 -0.00597016 -0.01563666
v -0.04803457 -0.02476032 -0.02397647
v -0.04818711 -0.02476032 -0.02606142
v -0.04791826 -0.02623410 -0.02606142
v -0.04759856 -0.02623410 -0.02143839
v -0.04768818 -0.02493090 -0.01968249
v -0.04782673 -0.02059090 -0.01552068
v -0.04783627 -0.02059090 -0.01563666
v -0.04783118 -0.02267561 -0.01772161
v -0.04815660 -0.02267561 -0.02189152
v -0.04787885 -0.02476032 -0.02189152
v -0.04800216 -0.02059090 -0.01772161
v -0.04816232 -0.02059090 -0.01980657
v -0.04809368 -0.02623410 -0.03378626
v -0.04837651 -0.02476032 -0.03231358
v -0.04861168 -0.02267561 -0.03231358
v -0.04823223 -0.01225405 -0.03648349
v -0.04845723 -0.01225405 -0.03439853
v -0.04869812 -0.02059090 -0.03231358
v -0.04870257 -0.01642148 -0.03231358
v -0.04868477 -0.01433876 -0.03231358
v -0.04854621 -0.01225405 -0.03231358
v -0.04594541 -0.00597016 -0.04092851
v -0.04660769 -0.00597016 -0.03856844
v -0.04566130 -0.00856861 -0.04307549
v -0.04791826 -0.01016934 -0.03648349
v -0.04761826 -0.00855671 -0.03648349
v -0.04753945 -0.00696392 -0.03362443
v -0.04661150 -0.00597016 -0.03854146
v -0.04754009 -0.01109169 -0.01646201
v -0.04761063 -0.01231950 -0.01552068
v -0.04640112 -0.00599793 -0.01563666
v -0.04753182 -0.00907839 -0.02070474
v -0.04710853 -0.00597016 -0.02789283
v -0.04755026 -0.00693615 -0.02867503
v -0.04844198 -0.02267561 -0.02606142
v -0.04832058 -0.02476032 -0.02814637
v -0.04805427 -0.02623410 -0.02814637
v -0.04801486 -0.02623410 -0.02753410
v -0.04830279 -0.02267561 -0.02397647
v -0.04783118 -0.02047586 -0.01552068
v -0.04789792 -0.01850619 -0.01552068
v -0.04807270 -0.01850619 -0.01772161
v -0.04822906 -0.01850619 -0.01980657
v -0.04837588 -0.01850619 -0.02189152
v -0.04830723 -0.02059090 -0.02189152
v -0.04814389 -0.02623410 -0.03231358
v -0.04815025 -0.02623410 -0.03170131
v -0.04839685 -0.02476032 -0.03022863
v -0.04861549 -0.02267561 -0.03022863
v -0.04810385 -0.01016934 -0.03439853
v -0.04822397 -0.01016934 -0.03231358
v -0.04869049 -0.02059090 -0.03022863
v -0.04869621 -0.01850619 -0.03022863
v -0.04869240 -0.01642148 -0.03022863
v -0.04868223 -0.01642148 -0.02814637
v -0.04865935 -0.01433876 -0.03022863
v -0.04862630 -0.01433876 -0.02814637
v -0.04850617 -0.01225405 -0.03022863
v -0.04822206 -0.01016934 -0.03022863
v -0.04782546 -0.00808264 -0.03231358
v -0.04757504 -0.00683301 -0.03231358
v -0.04707421 -0.00597016 -0.03435538
v -0.04685238 -0.00597016 -0.03648349
v -0.04759030 -0.01078027 -0.01772161
v -0.04808605 -0.01225405 -0.02189152
v -0.04793033 -0.01225405 -0.01980657
v -0.04777207 -0.01225405 -0.01772161
v -0.04778224 -0.01423958 -0.01552068
v -0.04795893 -0.01433876 -0.01772161
v -0.04757060 -0.00890383 -0.02189152
v -0.04793542 -0.01016934 -0.02397647
v -0.04779813 -0.01016934 -0.02189152
v -0.04764750 -0.01010388 -0.01992794
v -0.04721912 -0.00597016 -0.03022863
v -0.04758330 -0.00681317 -0.03022863
v -0.04772250 -0.00790412 -0.02804658
v -0.04769707 -0.00830282 -0.02606142
v -0.04763670 -0.00860035 -0.02397647
v -0.04785406 -0.00808264 -0.03022863
v -0.04856719 -0.02059090 -0.02606142
v -0.04855448 -0.02267561 -0.02814637
v -0.04844007 -0.02059090 -0.02397647
v -0.04813817 -0.02623410 -0.03022863
v -0.04811529 -0.02623410 -0.02961636
v -0.04788711 -0.01642148 -0.01552068
v -0.04789665 -0.01642148 -0.01563666
v -0.04806253 -0.01642148 -0.01772161
v -0.04821825 -0.01642148 -0.01980657
v -0.04836634 -0.01642148 -0.02189152
v -0.04851698 -0.01850619 -0.02397647
v -0.04865617 -0.02059090 -0.02814637
v -0.04868477 -0.01850619 -0.02814637
v -0.04863202 -0.01850619 -0.02606142
v -0.04862693 -0.01642148 -0.02606142
v -0.04854431 -0.01433876 -0.02606142
v -0.04844833 -0.01225405 -0.02814637
v -0.04815025 -0.01016934 -0.02814637
v -0.04721213 -0.00597016 -0.03231358
v -0.04823351 -0.01225405 -0.02397647
v -0.04826338 -0.01433876 -0.02189152
v -0.04811275 -0.01433876 -0.01980657
v -0.04778923 -0.01433280 -0.01552068
v -0.04779877 -0.01433876 -0.01563666
v -0.04805364 -0.01016934 -0.02606142
v -0.04836062 -0.01225405 -0.02606142
v -0.04721467 -0.00597016 -0.03194676
v -0.04788203 -0.01630644 -0.01552068
v -0.04840829 -0.01433876 -0.02397647
v -0.04850744 -0.01642148 -0.02397647
f 1 2 6
f 1 6 15
f 1 15 30
f 1 30 58
f 1 58 86
f 1 86 85
f 1 85 120
f 1 120 119
f 1 119 166
f 1 166 165
f 1 165 129
f 1 129 128
f 1 128 95
f 1 95 63
f 1 63 62
f 1 62 35
f 1 35 34
f 1 34 33
f 1 33 17
f 1 17 8
f 1 8 3
f 1 3 4
f 1 4 11
f 1 11 26
f 1 26 25
f 1 25 51
f 1 51 50
f 1 50 49
f 1 49 48
f 1 48 78
f 1 78 106
f 1 106 79
f 1 79 52
f 1 52 27
f 1 27 12
f 1 12 5
f 1 5 2
f 2 5 6
f 3 7 4
f 3 8 9
f 3 9 7
f 4 7 10
f 4 10 11
f 5 12 28
f 5 28 54
f 5 54 80
f 5 80 104
f 5 104 73
f 5 73 105
f 5 105 110
f 5 110 145
f 5 145 144
f 5 144 180
f 5 180 188
f 5 188 156
f 5 156 115
f 5 115 82
f 5 82 55
f 5 55 29
f 5 29 13
f 5 13 14
f 5 14 6
f 6 14 29
f 6 29 55
f 6 55 81
f 6 81 112
f 6 112 150
f 6 150 184
f 6 184 189
f 6 189 167
f 6 167 123
f 6 123 122
f 6 122 88
f 6 88 59
f 6 59 31
f 6 31 15
f 7 9 16
f 7 16 10
f 8 17 9
f 9 17 18
f 9 18 19
f 9 19 20
f 9 20 16
f 10 16 21
f 10 21 22
f 10 22 23
f 10 23 24
f 10 24 25
f 10 25 26
f 10 26 11
f 12 27 28
f 13 29 14
f 15 31 32
f 15 32 30
f 16 20 21
f 17 33 18
f 18 33 34
f 18 34 19
f 19 34 35
f 19 35 36
f 19 36 37
f 19 37 20
f 20 37 38
f 20 38 21
f 21 38 22
f 22 38 23
f 23 39 24
f 23 38 40
f 23 40 41
f 23 41 42
f 23 42 39
f 24 43 44
f 24 44 45
f 24 45 46
f 24 46 47
f 24 47 48
f 24 48 49
f 24 49 50
f 24 50 51
f 24 51 25
f 24 39 43
f 27 52 28
f 28 52 53
f 28 53 54
f 30 32 56
f 30 56 57
f 30 57 58
f 31 59 32
f 32 60 57
f 32 57 56
f 32 59 61
f 32 61 60
f 35 62 36
f 36 62 63
f 36 63 64
f 36 64 37
f 37 64 65
f 37 65 40
f 37 40 38
f 39 66 43
f 39 42 67
f 39 67 66
f 40 65 68
f 40 68 41
f 41 68 69
f 41 69 70
f 41 70 71
f 41 71 42
f 42 71 67
f 43 66 44
f 44 66 45
f 45 66 72
f 45 72 46
f 46 73 74
f 46 74 75
f 46 75 47
f 46 72 76
f 46 76 77
f 46 77 73
f 47 78 48
f 47 75 78
f 52 79 75
f 52 75 53
f 53 75 80
f 53 80 54
f 55 82 113
f 55 113 81
f 57 83 84
f 57 84 85
f 57 85 86
f 57 86 58
f 57 60 87
f 57 87 83
f 59 88 89
f 59 89 90
f 59 90 61
f 60 61 91
f 60 91 92
f 60 92 87
f 61 90 89
f 61 89 93
f 61 93 94
f 61 94 91
f 63 95 64
f 64 95 96
f 64 96 65
f 65 96 97
f 65 97 68
f 66 67 98
f 66 98 72
f 67 71 99
f 67 99 98
f 68 97 100
f 68 100 69
f 69 100 101
f 69 101 70
f 70 101 102
f 70 102 71
f 71 102 103
f 71 103 99
f 72 98 76
f 73 104 74
f 73 77 105
f 74 104 75
f 75 104 80
f 75 79 106
f 75 106 78
f 76 98 77
f 77 98 107
f 77 107 108
f 77 108 109
f 77 109 110
f 77 110 105
f 81 111 112
f 81 113 114
f 81 114 111
f 82 115 116
f 82 116 113
f 83 87 92
f 83 92 91
f 83 91 84
f 84 117 118
f 84 118 119
f 84 119 120
f 84 120 85
f 84 91 121
f 84 121 117
f 88 122 89
f 89 122 93
f 91 94 121
f 93 122 123
f 93 123 124
f 93 124 94
f 94 124 125
f 94 125 126
f 94 126 127
f 94 127 121
f 95 128 96
f 96 128 129
f 96 129 130
f 96 130 97
f 97 130 131
f 97 131 100
f 98 99 107
f 99 132 107
f 99 103 133
f 99 133 132
f 100 131 134
f 100 134 135
f 100 135 101
f 101 135 136
f 101 136 102
f 102 136 137
f 102 137 138
f 102 138 103
f 103 138 139
f 103 139 140
f 103 140 141
f 103 141 133
f 107 132 108
f 108 132 109
f 109 132 133
f 109 133 142
f 109 142 143
f 109 143 144
f 109 144 145
f 109 145 110
f 111 146 147
f 111 147 148
f 111 148 149
f 111 149 112
f 111 114 146
f 112 149 151
f 112 151 150
f 113 116 114
f 114 116 152
f 114 152 153
f 114 153 154
f 114 154 155
f 114 155 146
f 115 156 157
f 115 157 116
f 116 158 159
f 116 159 160
f 116 160 152
f 116 157 161
f 116 161 158
f 117 162 163
f 117 163 118
f 117 121 127
f 117 127 164
f 117 164 162
f 118 163 130
f 118 130 165
f 118 165 166
f 118 166 119
f 123 167 168
f 123 168 169
f 123 169 124
f 124 169 125
f 125 170 171
f 125 171 126
f 125 169 170
f 126 171 191
f 126 191 172
f 126 172 127
f 127 172 164
f 129 165 130
f 130 163 131
f 131 163 173
f 131 173 134
f 133 141 161
f 133 161 142
f 134 173 174
f 134 174 135
f 135 174 137
f 135 137 136
f 137 174 175
f 137 175 176
f 137 176 139
f 137 139 138
f 139 176 177
f 139 177 178
f 139 178 140
f 140 178 141
f 141 178 179
f 141 179 161
f 142 161 143
f 143 180 144
f 143 161 157
f 143 157 180
f 146 155 154
f 146 154 181
f 146 181 147
f 147 181 182
f 147 182 183
f 147 183 151
f 147 151 148
f 148 151 149
f 150 151 185
f 150 185 184
f 151 183 170
f 151 170 169
f 151 169 185
f 152 160 153
f 153 160 186
f 153 186 187
f 153 187 181
f 153 181 154
f 156 188 157
f 157 188 180
f 158 161 179
f 158 179 186
f 158 186 159
f 159 186 160
f 162 175 173
f 162 173 163
f 162 164 172
f 162 172 175
f 167 189 168
f 168 189 169
f 169 189 185
f 170 183 182
f 170 182 171
f 171 182 190
f 171 190 191
f 172 191 176
f 172 176 175
f 173 175 174
f 176 191 177
f 177 187 178
f 177 191 190
f 177 190 181
f 177 181 187
f 178 187 179
f 179 187 186
f 181 190 182
f 184 185 189

