# https://github.com/mikedh/trimesh
v 0.04266888 -0.01796026 -0.03991620
v 0.03655176 0.00377996 -0.03991620
v 0.04485597 -0.01796026 -0.03991620
v 0.04300398 -0.01796026 -0.02293601
v 0.03260983 -0.01795813 0.04689774
v 0.03260587 -0.01795813 0.04481165
v 0.03263164 -0.01795813 0.03855339
v 0.03264156 -0.01795813 0.03646731
v 0.03267329 -0.01795813 0.03439033
v 0.03271889 -0.01795813 0.03230425
v 0.03275458 -0.01795813 0.03076474
v 0.03282597 -0.01795813 0.02868776
v 0.03285373 -0.01795813 0.02813208
v 0.03296080 -0.01795813 0.02604599
v 0.03320271 -0.01795813 0.02187382
v 0.03332565 -0.01795813 0.01979685
v 0.03343470 -0.01795813 0.01825734
v 0.03348229 -0.01795813 0.01771076
v 0.03363101 -0.01795813 0.01617125
v 0.03369644 -0.01795813 0.01562468
v 0.03480684 -0.01795813 0.00729856
v 0.02727793 0.00377996 0.00951217
v 0.02846169 0.00377996 0.00313550
v 0.03924845 0.00377996 -0.03991620
v 0.04486985 -0.01642168 -0.03991620
v 0.04519108 -0.01642168 -0.03856799
v 0.04516926 -0.01796026 -0.03856799
v 0.04502055 -0.01796026 -0.02293601
v 0.03483064 -0.01795813 0.05281894
v 0.03397801 -0.01795813 0.05237257
v 0.03368851 -0.01795813 0.05220860
v 0.03324038 -0.01795813 0.05106991
v 0.03275458 -0.01795813 0.04897471
v 0.03264552 -0.01795813 0.04744431
v 0.02520385 0.00377996 0.04481165
v 0.02514040 0.00377996 0.04272556
v 0.02519592 0.00377996 0.03439033
v 0.02520385 0.00377996 0.03366157
v 0.02523161 0.00377996 0.03229514
v 0.02525342 0.00377996 0.03163014
v 0.02569560 0.00377996 0.02187382
v 0.02583242 0.00377996 0.01979685
v 0.02604657 0.00377996 0.01771076
v 0.02632219 0.00377996 0.01562468
v 0.02663944 0.00377996 0.01354770
v 0.03958355 0.00377996 -0.03862264
v 0.04005547 0.00232224 -0.03991620
v 0.04472312 -0.01425106 -0.03991620
v 0.04505624 -0.01433618 -0.03856799
v 0.04531401 -0.01433618 -0.03648190
v 0.04539531 -0.01642168 -0.03648190
v 0.04538936 -0.01796026 -0.03648190
v 0.04533583 -0.01796026 -0.03702847
v 0.04508599 -0.01796026 -0.02397450
v 0.04502055 -0.01795813 -0.02292690
v 0.04498883 -0.01795813 -0.02242588
v 0.04480839 -0.01795813 -0.01979322
v 0.04465967 -0.01795813 -0.01770714
v 0.04450501 -0.01795813 -0.01562105
v 0.04438802 -0.01795813 -0.01409065
v 0.04426310 -0.01795813 -0.01247826
v 0.04423534 -0.01795813 -0.01214121
v 0.04309718 -0.01795813 0.00104941
v 0.04233972 -0.01795813 0.00938464
v 0.04222274 -0.01795813 0.01065087
v 0.04098742 -0.01795813 0.02395991
v 0.04021212 -0.01795813 0.03230425
v 0.04007728 -0.01795813 0.03375267
v 0.03895102 -0.01795813 0.04481165
v 0.03875670 -0.01795813 0.04635116
v 0.03868730 -0.01795813 0.04689774
v 0.03847712 -0.01795813 0.04843725
v 0.03839582 -0.01795813 0.04897471
v 0.03817572 -0.01795813 0.05033203
v 0.03809839 -0.01795813 0.05077840
v 0.03792588 -0.01795813 0.05154360
v 0.03786044 -0.01795813 0.05181689
v 0.03682143 -0.01795813 0.05271873
v 0.03534221 -0.01795813 0.05280983
v 0.03483064 -0.01016519 0.05305579
v 0.03274467 -0.00391509 0.05314688
v 0.02854695 0.00377996 0.05303757
v 0.02674850 0.00377996 0.05255476
v 0.02577492 0.00377996 0.05106079
v 0.02549930 0.00377996 0.04897471
v 0.02546361 0.00377996 0.04859211
v 0.03975606 0.00377996 -0.03794854
v 0.04004952 0.00340116 -0.03757505
v 0.04026169 0.00192642 -0.03991620
v 0.04455061 -0.01274653 -0.03991620
v 0.04428491 -0.01078233 -0.03991620
v 0.04475485 -0.01224856 -0.03856799
v 0.04505823 -0.01224856 -0.03648190
v 0.04521091 -0.01224856 -0.03439581
v 0.04537747 -0.01433618 -0.03439581
v 0.04539134 -0.01642168 -0.03439581
v 0.04538341 -0.01796026 -0.03439581
v 0.04511969 -0.01796026 -0.02452107
v 0.04519703 -0.01642168 -0.02606058
v 0.04506814 -0.01642168 -0.02397450
v 0.04501460 -0.01745804 -0.02292690
v 0.04479252 -0.01641955 -0.01979322
v 0.04464777 -0.01641955 -0.01770714
v 0.04449509 -0.01641955 -0.01562105
v 0.04422741 -0.01641955 -0.01225052
v 0.04433051 -0.01641955 -0.01354407
v 0.04307933 -0.01641955 0.00104941
v 0.04270457 -0.01641955 0.00523069
v 0.04232584 -0.01641955 0.00938464
v 0.04217713 -0.01641955 0.01101525
v 0.04007134 -0.01641955 0.03368890
v 0.03894705 -0.01641955 0.04481165
v 0.03868135 -0.01641955 0.04689774
v 0.03837202 -0.01641955 0.04897471
v 0.03808253 -0.01641955 0.05067819
v 0.03783467 -0.01641955 0.05171668
v 0.03662512 -0.01225069 0.05268229
v 0.03674211 -0.01433406 0.05270962
v 0.03679367 -0.01641955 0.05272784
v 0.03483064 -0.00807970 0.05301934
v 0.03274467 -0.00182960 0.05303757
v 0.03066267 0.00233926 0.05301024
v 0.03064284 0.00377996 0.05267318
v 0.03988494 0.00377996 -0.03721977
v 0.04011099 0.00351608 -0.03648190
v 0.04064438 0.00234139 -0.03648190
v 0.04034497 0.00238821 -0.03838580
v 0.04223265 -0.00255952 -0.03816717
v 0.04087439 0.00025590 -0.03991620
v 0.04320227 -0.00676882 -0.03991620
v 0.04424129 -0.00898625 -0.03780278
v 0.04438207 -0.01011625 -0.03852244
v 0.04465570 -0.01016519 -0.03648190
v 0.04482028 -0.01016519 -0.03439581
v 0.04483813 -0.01016519 -0.03230973
v 0.04519108 -0.01224856 -0.03230973
v 0.04535566 -0.01433618 -0.03230973
v 0.04536755 -0.01642168 -0.03022364
v 0.04538341 -0.01642168 -0.03230973
v 0.04537548 -0.01796026 -0.03230973
v 0.04523073 -0.01796026 -0.02660716
v 0.04531005 -0.01642168 -0.02813756
v 0.04522875 -0.01433618 -0.02813756
v 0.04511374 -0.01433618 -0.02606058
v 0.04497891 -0.01433618 -0.02397450
v 0.04495512 -0.01537255 -0.02293601
v 0.04490753 -0.01433618 -0.02293601
v 0.04454070 -0.01433406 -0.01770714
v 0.04421353 -0.01531083 -0.01242360
v 0.04296433 -0.01433406 0.00104941
v 0.04214739 -0.01514059 0.01069641
v 0.04005151 -0.01521933 0.03349760
v 0.03883998 -0.01433406 0.04481165
v 0.03858617 -0.01433406 0.04689774
v 0.03827288 -0.01433406 0.04897471
v 0.03802701 -0.01433406 0.05043224
v 0.03778311 -0.01433406 0.05147073
v 0.03645262 -0.01016519 0.05260942
v 0.03453717 -0.00391509 0.05271873
v 0.03417034 -0.00182960 0.05248188
v 0.03280019 0.00018354 0.05263675
v 0.03207645 0.00233926 0.05244545
v 0.03135072 0.00377996 0.05231791
v 0.03996822 0.00377996 -0.03648190
v 0.04000788 0.00377996 -0.03602642
v 0.04013677 0.00377996 -0.03439581
v 0.04019031 0.00367781 -0.03439581
v 0.04080301 0.00234139 -0.03439581
v 0.04215334 -0.00072088 -0.03363972
v 0.04235360 -0.00220626 -0.03648190
v 0.04252017 -0.00372144 -0.03874107
v 0.04241706 -0.00404490 -0.03991620
v 0.04216920 -0.00334052 -0.03991620
v 0.04291079 -0.00391509 -0.03648190
v 0.04299010 -0.00600059 -0.03991620
v 0.04431862 -0.00870109 -0.03648190
v 0.04439198 -0.00844147 -0.03439581
v 0.04441380 -0.00836273 -0.03230973
v 0.04441578 -0.00830527 -0.03022364
v 0.04478856 -0.01016519 -0.03022364
v 0.04469933 -0.01016519 -0.02813756
v 0.04509986 -0.01224856 -0.03022364
v 0.04530608 -0.01433618 -0.03022364
v 0.04531798 -0.01796026 -0.02868413
v 0.04535763 -0.01796026 -0.03022364
v 0.04530212 -0.01796026 -0.02813756
v 0.04500270 -0.01224856 -0.02813756
v 0.04488968 -0.01224856 -0.02606058
v 0.04475683 -0.01224856 -0.02397450
v 0.04468743 -0.01225069 -0.02292690
v 0.04447526 -0.01225069 -0.01979322
v 0.04426111 -0.01281888 -0.01599454
v 0.04435035 -0.01413827 -0.01543886
v 0.04426111 -0.01482138 -0.01354407
v 0.04293062 -0.01225069 -0.00102756
v 0.04274224 -0.01225069 0.00104941
v 0.04255189 -0.01225069 0.00314461
v 0.04005547 -0.01317214 0.03143884
v 0.04066619 -0.01433406 0.02604599
v 0.04047386 -0.01433406 0.02813208
v 0.04027954 -0.01433406 0.03021816
v 0.04010306 -0.01444897 0.03220404
v 0.03882610 -0.01225069 0.04273467
v 0.03859410 -0.01225069 0.04481165
v 0.03835021 -0.01225069 0.04689774
v 0.03808054 -0.01231240 0.04897471
v 0.03798140 -0.01305084 0.05020450
v 0.03769389 -0.01231240 0.05096970
v 0.03734292 -0.01016519 0.05106991
v 0.03623648 -0.00807970 0.05248188
v 0.03602828 -0.00655601 0.05229058
v 0.03391456 -0.00055702 0.05224503
v 0.03176712 0.00348841 0.05218127
v 0.03195351 0.00377996 0.05106079
v 0.04019625 0.00377996 -0.03230973
v 0.04022005 0.00373314 -0.03230973
v 0.04085060 0.00234139 -0.03230973
v 0.04216523 -0.00068683 -0.03230973
v 0.04253801 -0.00182960 -0.03230973
v 0.04306347 -0.00391509 -0.03439581
v 0.04240318 -0.00169340 -0.03435938
v 0.04256379 -0.00182960 -0.03022364
v 0.04313287 -0.00391509 -0.02813756
v 0.04437810 -0.00836911 -0.02813756
v 0.04431664 -0.00860746 -0.02606058
v 0.04422146 -0.00906286 -0.02292690
v 0.04458035 -0.01016519 -0.02606058
v 0.04445345 -0.01016519 -0.02397450
v 0.04438405 -0.01012689 -0.02293601
v 0.04427896 -0.01072913 -0.01979322
v 0.04423336 -0.01103557 -0.01839035
v 0.04431664 -0.01217408 -0.01770714
v 0.04298614 -0.01016519 -0.00519973
v 0.04212954 -0.01117389 0.00634205
v 0.04008125 -0.01093555 0.02756729
v 0.03871506 -0.01016519 0.04064859
v 0.03849694 -0.01016519 0.04273467
v 0.03789614 -0.00950337 0.04736232
v 0.03799925 -0.01089299 0.04826416
v 0.03789812 -0.01166335 0.04965792
v 0.03690669 -0.00807970 0.05106991
v 0.03779898 -0.01018435 0.04897471
v 0.03736077 -0.00807970 0.04897471
v 0.03578836 -0.00516426 0.05187154
v 0.03483460 -0.00182960 0.05106079
v 0.03411284 -0.00017184 0.05106079
v 0.03355169 0.00087090 0.05106079
v 0.03275458 0.00233926 0.05106079
v 0.03373412 0.00119224 0.04971258
v 0.03331771 0.00220945 0.04901115
v 0.03242146 0.00377996 0.04897471
v 0.04018039 0.00377996 -0.03022364
v 0.04022005 0.00370973 -0.03022364
v 0.04085853 0.00234139 -0.03022364
v 0.04171909 0.00034953 -0.03022364
v 0.04216127 -0.00069109 -0.03022364
v 0.04245671 -0.00162531 -0.02797359
v 0.04307537 -0.00391509 -0.02606058
v 0.04298812 -0.00391509 -0.02397450
v 0.04293260 -0.00391509 -0.02293601
v 0.04287510 -0.00391509 -0.02187930
v 0.04299208 -0.00600059 -0.01562105
v 0.04421551 -0.00908414 -0.02278115
v 0.04297821 -0.00807970 -0.00937190
v 0.04279975 -0.01016519 -0.00311365
v 0.04218308 -0.01090576 0.00523069
v 0.04002969 -0.00913309 0.02498929
v 0.03796554 -0.00907350 0.04596856
v 0.03626424 -0.00598569 0.05113367
v 0.03665487 -0.00598569 0.04934820
v 0.03767207 -0.00825846 0.04676109
v 0.03703161 -0.00600059 0.04689774
v 0.03673418 -0.00598569 0.04897471
v 0.03624243 -0.00591547 0.05113367
v 0.03598466 -0.00460033 0.05047779
v 0.03556628 -0.00390871 0.05113367
v 0.03576853 -0.00316815 0.04897471
v 0.03525894 -0.00182960 0.04897471
v 0.03425362 0.00040060 0.04901115
v 0.03389869 0.00354374 0.04225187
v 0.03369049 0.00377996 0.04243406
v 0.04013677 0.00377996 -0.02813756
v 0.04020220 0.00366717 -0.02813756
v 0.04083672 0.00234139 -0.02813756
v 0.04214739 -0.00072514 -0.02856571
v 0.04210971 -0.00079536 -0.02717195
v 0.04247059 -0.00192749 -0.02606058
v 0.04263914 -0.00300854 -0.02293601
v 0.04236749 -0.00219350 -0.02293601
v 0.04232981 -0.00228500 -0.02187930
v 0.04225843 -0.00247866 -0.01979322
v 0.04273431 -0.00391509 -0.01979322
v 0.04298812 -0.00598569 -0.01562105
v 0.04282751 -0.00598569 -0.01354407
v 0.04234766 -0.00618360 -0.00728582
v 0.04225050 -0.00654750 -0.00519973
v 0.04217713 -0.00683904 -0.00359646
v 0.04212557 -0.00911606 0.00211523
v 0.04264509 -0.00598569 -0.01129402
v 0.04010108 -0.00887559 0.02359553
v 0.03868333 -0.00807970 0.03646731
v 0.03802502 -0.00883516 0.04481165
v 0.03800519 -0.00685819 0.04012024
v 0.03725171 -0.00598569 0.04481165
v 0.03658349 -0.00391509 0.04481165
v 0.03624640 -0.00374059 0.04699794
v 0.03613536 -0.00421089 0.04897471
v 0.03584586 -0.00292980 0.04776314
v 0.03593310 -0.00270423 0.04637849
v 0.03603027 -0.00245312 0.04481165
v 0.03428337 0.00252015 0.04285310
v 0.03821934 0.00377996 -0.00513597
v 0.03388283 0.00377996 0.04063948
v 0.03458278 0.00233926 0.04063948
v 0.04006340 -0.00073152 -0.00183831
v 0.04008521 0.00139653 -0.01199545
v 0.04015858 0.00154550 -0.01354407
v 0.04025574 0.00174128 -0.01563016
v 0.03962717 0.00258825 -0.01354407
v 0.04012685 0.00377996 -0.02790071
v 0.04004952 0.00377996 -0.02606058
v 0.04015660 0.00359056 -0.02606058
v 0.04179047 0.00008352 -0.02797359
v 0.04074749 0.00234139 -0.02606058
v 0.04087836 0.00025590 -0.01563016
v 0.04240119 -0.00210199 -0.02397450
v 0.04217911 -0.00271274 -0.01770714
v 0.04071576 0.00025590 -0.01354407
v 0.04257172 -0.00391509 -0.01770714
v 0.04217911 -0.00478334 -0.00974540
v 0.04238335 -0.00598569 -0.00825143
v 0.04210575 -0.00496635 -0.00836075
v 0.03873290 -0.00598569 0.03021816
v 0.03873687 -0.00600059 0.03021816
v 0.04241111 -0.00579629 -0.00918060
v 0.03820943 -0.00791584 0.04074879
v 0.03853065 -0.00598569 0.03230425
v 0.03808451 -0.00658793 0.03855339
v 0.03823520 -0.00598569 0.03530129
v 0.03800916 -0.00479611 0.03390753
v 0.03620872 -0.00166787 0.04065770
v 0.03615519 -0.00211689 0.04272556
v 0.03590535 -0.00069960 0.03998359
v 0.03896886 0.00377996 -0.01342565
v 0.04035290 -0.00169553 -0.00110044
v 0.04059481 -0.00182960 -0.00312276
v 0.04077921 -0.00182960 -0.00520884
v 0.04012289 -0.00059320 -0.00312276
v 0.03797743 -0.00281702 0.02730311
v 0.04033109 0.00191791 -0.01770714
v 0.04003564 0.00337988 -0.02293601
v 0.04000590 0.00377996 -0.02543203
v 0.03991270 0.00377996 -0.02412025
v 0.04009314 0.00348203 -0.02432977
v 0.04048575 0.00254781 -0.02377409
v 0.04212954 -0.00285319 -0.01659577
v 0.04225248 -0.00456202 -0.01144888
v 0.04069395 -0.00391509 0.00313550
v 0.03826297 -0.00581758 0.03450876
v 0.03847712 -0.00391509 0.02603688
v 0.03823719 -0.00378741 0.02805009
v 0.03984529 0.00377996 -0.02330950
v 0.04030729 -0.00215732 0.00104941
f 1 2 24
f 1 24 47
f 1 47 89
f 1 89 129
f 1 129 173
f 1 173 172
f 1 172 175
f 1 175 130
f 1 130 91
f 1 91 90
f 1 90 48
f 1 48 25
f 1 25 3
f 1 3 27
f 1 27 53
f 1 53 52
f 1 52 97
f 1 97 140
f 1 140 185
f 1 185 184
f 1 184 186
f 1 186 141
f 1 141 98
f 1 98 54
f 1 54 28
f 1 28 4
f 1 4 5
f 1 5 6
f 1 6 7
f 1 7 8
f 1 8 9
f 1 9 10
f 1 10 11
f 1 11 12
f 1 12 13
f 1 13 14
f 1 14 15
f 1 15 16
f 1 16 17
f 1 17 18
f 1 18 19
f 1 19 20
f 1 20 21
f 1 21 22
f 1 22 23
f 1 23 2
f 2 23 22
f 2 22 45
f 2 45 44
f 2 44 43
f 2 43 42
f 2 42 41
f 2 41 40
f 2 40 39
f 2 39 38
f 2 38 37
f 2 37 36
f 2 36 35
f 2 35 86
f 2 86 85
f 2 85 84
f 2 84 83
f 2 83 82
f 2 82 123
f 2 123 163
f 2 163 214
f 2 214 251
f 2 251 281
f 2 281 313
f 2 313 312
f 2 312 344
f 2 344 362
f 2 362 353
f 2 353 352
f 2 352 321
f 2 321 320
f 2 320 282
f 2 282 252
f 2 252 215
f 2 215 166
f 2 166 165
f 2 165 164
f 2 164 124
f 2 124 87
f 2 87 46
f 2 46 24
f 3 25 26
f 3 26 27
f 4 28 29
f 4 29 30
f 4 30 31
f 4 31 32
f 4 32 33
f 4 33 34
f 4 34 5
f 5 35 36
f 5 36 6
f 5 34 35
f 6 36 7
f 7 36 8
f 8 37 38
f 8 38 9
f 8 36 37
f 9 38 39
f 9 39 10
f 10 39 11
f 11 39 40
f 11 40 12
f 12 40 41
f 12 41 13
f 13 41 14
f 14 41 15
f 15 41 16
f 16 41 42
f 16 42 17
f 17 42 18
f 18 42 19
f 19 42 43
f 19 43 20
f 20 43 44
f 20 44 21
f 21 44 45
f 21 45 22
f 24 46 47
f 25 48 49
f 25 49 26
f 26 49 50
f 26 50 51
f 26 51 52
f 26 52 53
f 26 53 27
f 28 54 55
f 28 55 56
f 28 56 57
f 28 57 58
f 28 58 59
f 28 59 60
f 28 60 61
f 28 61 62
f 28 62 63
f 28 63 64
f 28 64 65
f 28 65 66
f 28 66 67
f 28 67 68
f 28 68 69
f 28 69 70
f 28 70 71
f 28 71 72
f 28 72 73
f 28 73 74
f 28 74 75
f 28 75 76
f 28 76 77
f 28 77 78
f 28 78 79
f 28 79 29
f 29 79 80
f 29 80 81
f 29 81 82
f 29 82 83
f 29 83 30
f 30 83 31
f 31 83 84
f 31 84 32
f 32 84 33
f 33 85 86
f 33 86 34
f 33 84 85
f 34 86 35
f 46 87 47
f 47 87 88
f 47 88 89
f 48 90 49
f 49 90 91
f 49 91 92
f 49 92 93
f 49 93 50
f 50 93 94
f 50 94 95
f 50 95 51
f 51 95 96
f 51 96 52
f 52 96 97
f 54 98 99
f 54 99 100
f 54 100 55
f 55 100 101
f 55 101 56
f 56 102 57
f 56 101 102
f 57 102 103
f 57 103 58
f 58 103 104
f 58 104 59
f 59 104 60
f 60 104 61
f 61 105 62
f 61 104 106
f 61 106 105
f 62 105 63
f 63 107 108
f 63 108 64
f 63 105 107
f 64 108 109
f 64 109 110
f 64 110 65
f 65 110 66
f 66 111 67
f 66 110 111
f 67 111 68
f 68 111 112
f 68 112 69
f 69 112 70
f 70 112 71
f 71 112 113
f 71 113 72
f 72 114 73
f 72 113 114
f 73 114 74
f 74 115 75
f 74 114 115
f 75 115 76
f 76 116 77
f 76 115 116
f 77 116 117
f 77 117 118
f 77 118 119
f 77 119 78
f 78 119 80
f 78 80 79
f 80 120 81
f 80 119 118
f 80 118 120
f 81 120 121
f 81 121 122
f 81 122 82
f 82 122 123
f 87 124 88
f 88 124 125
f 88 125 126
f 88 126 127
f 88 127 89
f 89 127 128
f 89 128 129
f 91 130 131
f 91 131 132
f 91 132 92
f 92 132 93
f 93 133 134
f 93 134 94
f 93 132 133
f 94 134 135
f 94 135 136
f 94 136 95
f 95 136 137
f 95 137 138
f 95 138 139
f 95 139 96
f 96 139 140
f 96 140 97
f 98 141 142
f 98 142 99
f 99 142 143
f 99 143 144
f 99 144 100
f 100 145 146
f 100 146 102
f 100 102 101
f 100 144 145
f 102 146 145
f 102 145 147
f 102 147 103
f 103 148 149
f 103 149 104
f 103 147 148
f 104 149 106
f 105 106 149
f 105 149 107
f 107 150 151
f 107 151 108
f 107 149 150
f 108 151 109
f 109 151 110
f 110 151 152
f 110 152 111
f 111 152 112
f 112 153 154
f 112 154 113
f 112 152 153
f 113 154 114
f 114 154 155
f 114 155 156
f 114 156 115
f 115 156 157
f 115 157 116
f 116 157 158
f 116 158 117
f 117 158 120
f 117 120 118
f 120 158 159
f 120 159 121
f 121 159 160
f 121 160 161
f 121 161 122
f 122 161 162
f 122 162 123
f 123 162 163
f 124 164 125
f 125 164 165
f 125 165 166
f 125 166 167
f 125 167 168
f 125 168 126
f 126 168 169
f 126 169 170
f 126 170 127
f 127 170 128
f 128 171 172
f 128 172 173
f 128 173 129
f 128 170 174
f 128 174 171
f 130 175 131
f 131 174 176
f 131 176 133
f 131 133 132
f 131 175 172
f 131 172 171
f 131 171 174
f 133 176 134
f 134 177 178
f 134 178 135
f 134 176 177
f 135 178 179
f 135 179 180
f 135 180 136
f 136 180 181
f 136 181 182
f 136 182 143
f 136 143 183
f 136 183 137
f 137 183 138
f 138 183 142
f 138 142 184
f 138 184 185
f 138 185 140
f 138 140 139
f 141 186 142
f 142 186 184
f 142 183 143
f 143 187 188
f 143 188 144
f 143 182 187
f 144 188 189
f 144 189 145
f 145 189 190
f 145 190 191
f 145 191 147
f 147 191 148
f 148 191 192
f 148 192 193
f 148 193 194
f 148 194 149
f 149 194 150
f 150 195 196
f 150 196 197
f 150 197 198
f 150 198 199
f 150 199 151
f 150 194 195
f 151 199 200
f 151 200 152
f 152 200 201
f 152 201 202
f 152 202 198
f 152 198 153
f 153 198 203
f 153 203 204
f 153 204 205
f 153 205 154
f 154 205 206
f 154 206 207
f 154 207 155
f 155 207 156
f 156 207 157
f 157 207 208
f 157 208 209
f 157 209 210
f 157 210 158
f 158 210 159
f 159 210 211
f 159 211 160
f 160 211 212
f 160 212 162
f 160 162 161
f 162 212 213
f 162 213 163
f 163 213 214
f 166 215 167
f 167 215 216
f 167 216 168
f 168 216 217
f 168 217 169
f 169 217 218
f 169 218 219
f 169 219 220
f 169 220 221
f 169 221 170
f 170 221 174
f 174 221 220
f 174 220 176
f 176 220 177
f 177 220 219
f 177 219 178
f 178 219 222
f 178 222 179
f 179 222 223
f 179 223 224
f 179 224 180
f 180 224 181
f 181 224 225
f 181 225 226
f 181 226 227
f 181 227 188
f 181 188 187
f 181 187 182
f 188 227 228
f 188 228 229
f 188 229 230
f 188 230 231
f 188 231 189
f 189 231 190
f 190 231 191
f 191 231 232
f 191 232 192
f 192 194 193
f 192 232 231
f 192 231 195
f 192 195 194
f 195 231 233
f 195 233 234
f 195 234 196
f 196 234 197
f 197 234 198
f 198 202 201
f 198 201 200
f 198 200 199
f 198 234 235
f 198 235 236
f 198 236 203
f 203 237 238
f 203 238 204
f 203 236 237
f 204 238 239
f 204 239 205
f 205 239 206
f 206 239 240
f 206 240 207
f 207 240 208
f 208 240 209
f 209 241 211
f 209 211 210
f 209 240 242
f 209 242 243
f 209 243 241
f 211 241 244
f 211 244 212
f 212 244 245
f 212 245 246
f 212 246 213
f 213 246 247
f 213 247 248
f 213 248 214
f 214 248 249
f 214 249 250
f 214 250 251
f 215 252 253
f 215 253 216
f 216 253 254
f 216 254 217
f 217 254 218
f 218 254 255
f 218 255 256
f 218 256 222
f 218 222 219
f 222 256 257
f 222 257 223
f 223 257 258
f 223 258 224
f 224 258 259
f 224 259 260
f 224 260 261
f 224 261 225
f 225 261 262
f 225 262 226
f 226 262 263
f 226 263 230
f 226 230 229
f 226 229 228
f 226 228 227
f 230 263 231
f 231 263 264
f 231 264 233
f 233 264 265
f 233 265 266
f 233 266 234
f 234 266 267
f 234 267 235
f 235 267 236
f 236 267 268
f 236 268 238
f 236 238 237
f 238 243 242
f 238 242 239
f 238 268 243
f 239 242 240
f 241 269 244
f 241 243 270
f 241 270 269
f 243 268 271
f 243 271 272
f 243 272 273
f 243 273 270
f 244 269 274
f 244 274 275
f 244 275 276
f 244 276 245
f 245 275 277
f 245 277 278
f 245 278 246
f 245 276 275
f 246 278 279
f 246 279 249
f 246 249 247
f 247 249 248
f 249 279 280
f 249 280 250
f 250 280 251
f 251 280 281
f 252 282 283
f 252 283 253
f 253 283 284
f 253 284 254
f 254 284 255
f 255 284 285
f 255 285 256
f 256 285 257
f 257 286 287
f 257 287 258
f 257 285 286
f 258 287 259
f 259 287 260
f 260 287 261
f 261 287 288
f 261 288 289
f 261 289 290
f 261 290 291
f 261 291 292
f 261 292 262
f 262 293 294
f 262 294 264
f 262 264 263
f 262 292 293
f 264 295 296
f 264 296 297
f 264 297 267
f 264 267 298
f 264 298 266
f 264 266 265
f 264 294 299
f 264 299 295
f 266 298 267
f 267 297 300
f 267 300 301
f 267 301 268
f 268 302 271
f 268 301 302
f 269 270 275
f 269 275 274
f 270 273 275
f 271 302 303
f 271 303 272
f 272 303 304
f 272 304 305
f 272 305 306
f 272 306 307
f 272 307 273
f 273 307 275
f 275 307 277
f 277 307 306
f 277 306 308
f 277 308 278
f 278 308 309
f 278 309 310
f 278 310 311
f 278 311 279
f 279 311 280
f 280 312 313
f 280 313 281
f 280 311 314
f 280 314 315
f 280 315 316
f 280 316 317
f 280 317 318
f 280 318 319
f 280 319 312
f 282 320 283
f 283 320 321
f 283 321 322
f 283 322 284
f 284 323 285
f 284 322 324
f 284 324 323
f 285 323 286
f 286 323 324
f 286 324 325
f 286 325 290
f 286 290 289
f 286 289 326
f 286 326 287
f 287 326 288
f 288 326 289
f 290 325 291
f 291 327 292
f 291 325 328
f 291 328 327
f 292 327 329
f 292 329 294
f 292 294 293
f 294 329 330
f 294 330 299
f 295 299 331
f 295 331 332
f 295 332 333
f 295 333 296
f 296 333 297
f 297 333 334
f 297 334 301
f 297 301 300
f 299 330 335
f 299 335 331
f 301 334 303
f 301 303 336
f 301 336 302
f 302 336 303
f 303 334 333
f 303 333 337
f 303 337 338
f 303 338 304
f 304 338 339
f 304 339 340
f 304 340 305
f 305 310 309
f 305 309 306
f 305 340 341
f 305 341 342
f 305 342 310
f 306 309 308
f 310 342 311
f 311 342 343
f 311 343 314
f 312 319 344
f 314 343 315
f 315 345 346
f 315 346 347
f 315 347 328
f 315 328 348
f 315 348 316
f 315 343 349
f 315 349 345
f 316 328 317
f 316 348 328
f 317 328 318
f 318 328 325
f 318 325 350
f 318 350 351
f 318 351 319
f 319 351 344
f 321 352 322
f 322 352 353
f 322 353 354
f 322 354 324
f 324 354 355
f 324 355 350
f 324 350 325
f 327 328 347
f 327 347 356
f 327 356 330
f 327 330 357
f 327 357 329
f 329 357 330
f 330 356 347
f 330 347 346
f 330 346 358
f 330 358 332
f 330 332 331
f 330 331 335
f 332 358 333
f 333 340 337
f 333 358 340
f 337 340 359
f 337 359 339
f 337 339 338
f 339 359 340
f 340 358 360
f 340 360 361
f 340 361 349
f 340 349 341
f 341 349 343
f 341 343 342
f 344 351 362
f 345 349 363
f 345 363 346
f 346 363 358
f 349 361 360
f 349 360 363
f 350 355 354
f 350 354 351
f 351 354 353
f 351 353 362
f 358 363 360

