# https://github.com/mikedh/trimesh
v -0.00208147 0.02673414 -0.04307549
v -0.00269825 0.02637284 -0.04387528
v -0.00269825 0.02673264 -0.04307549
v -0.00061512 0.02671909 -0.04307549
v -0.00061512 0.02637434 -0.04387428
v -0.00269825 0.02566227 -0.04491801
v -0.00417064 0.02634574 -0.04383229
v -0.00449717 0.02668296 -0.04307549
v -0.00061512 0.02566529 -0.04491600
v -0.00020999 0.02670554 -0.04307549
v 0.00070006 0.02634725 -0.04383029
v -0.00061512 0.02462202 -0.04631064
v -0.00269825 0.02461901 -0.04630464
v -0.00478440 0.02456632 -0.04624366
v -0.00483277 0.02571948 -0.04464608
v -0.00555839 0.02626595 -0.04374732
v -0.00472393 0.02667543 -0.04307549
v 0.00147102 0.02455729 -0.04623466
v 0.00128055 0.02661822 -0.04307549
v 0.00355415 0.02629907 -0.04307549
v 0.00208780 0.02620875 -0.04368433
v 0.00772342 0.02476202 -0.04462708
v 0.00651103 0.02418996 -0.04583176
v 0.00512027 0.02431190 -0.04595373
v 0.00355415 0.02442631 -0.04608270
v -0.00061512 0.02357574 -0.04735336
v -0.00269825 0.02359983 -0.04734736
v 0.00147102 0.02352305 -0.04727738
v -0.00478440 0.02356822 -0.04728638
v -0.00686752 0.02446997 -0.04613068
v -0.00628703 0.02652639 -0.04307549
v -0.00496278 0.02665436 -0.04307549
v -0.00895064 0.02433147 -0.04597373
v -0.01003302 0.02424114 -0.04587775
v -0.00895064 0.02599046 -0.04326444
v 0.00355415 0.02340563 -0.04712542
v 0.00553750 0.02598745 -0.04307549
v 0.00564029 0.02595282 -0.04310949
v 0.00933187 0.02458890 -0.04435016
v 0.00772342 0.02407253 -0.04566981
v 0.00933187 0.02307594 -0.04631564
v 0.00933187 0.02283657 -0.04655957
v 0.00772342 0.02303077 -0.04673052
v 0.00505375 0.02223590 -0.04802618
v 0.00147102 0.02248129 -0.04822513
v -0.00061512 0.02253248 -0.04826712
v -0.00269825 0.02255807 -0.04828711
v -0.00478440 0.02252495 -0.04826412
v 0.00355415 0.02236236 -0.04813016
v -0.00686752 0.02238946 -0.04815715
v -0.00686752 0.02343122 -0.04717341
v -0.00895064 0.02609433 -0.04307549
v -0.00846690 0.02224644 -0.04803818
v -0.01103679 0.02200106 -0.04781424
v -0.01311991 0.02175417 -0.04761729
v -0.01311991 0.02280948 -0.04657557
v -0.01520606 0.02252043 -0.04626765
v -0.01142379 0.02406200 -0.04564281
v -0.01311991 0.02456030 -0.04429617
v -0.01085236 0.02468675 -0.04489901
v -0.00967626 0.02597089 -0.04307549
v 0.00564029 0.02596938 -0.04307549
v 0.00827972 0.02543345 -0.04307549
v 0.00933187 0.02481773 -0.04389428
v 0.00933187 0.02387833 -0.04539188
v 0.00933187 0.02176621 -0.04760130
v 0.00772342 0.02196041 -0.04777325
v 0.00933187 0.01619159 -0.05237003
v 0.00147102 0.01775122 -0.05189516
v -0.00061512 0.02119716 -0.04930984
v 0.00355415 0.01766089 -0.05185217
v -0.00061512 0.01780541 -0.05192315
v -0.00269825 0.01781746 -0.05193915
v -0.00478440 0.01777079 -0.05191315
v -0.00686752 0.01765938 -0.05185017
v -0.00895064 0.01750884 -0.05174620
v -0.00895064 0.01882911 -0.05070448
v -0.01937533 0.01436098 -0.05266196
v -0.02146148 0.01407796 -0.05239903
v -0.01311991 0.02385274 -0.04533889
v -0.01661194 0.02228559 -0.04600572
v -0.01460743 0.02436610 -0.04399725
v -0.01311991 0.02524979 -0.04307549
v -0.01116377 0.02569991 -0.04307549
v 0.00933187 0.02518957 -0.04307549
v 0.00933187 0.02096231 -0.04829911
v 0.00933187 0.01518445 -0.05282691
v 0.00564029 0.01646558 -0.05252199
v 0.00147102 0.01670795 -0.05265496
v 0.00355415 0.01661762 -0.05259997
v -0.00061512 0.01676214 -0.05266895
v -0.00269825 0.01677569 -0.05265796
v -0.00478440 0.01672903 -0.05263896
v -0.00686752 0.01661762 -0.05259997
v -0.00895064 0.01646558 -0.05252999
v -0.01103679 0.01627589 -0.05242402
v -0.01937533 0.01276672 -0.05326280
v -0.02146148 0.01276672 -0.05292889
v -0.02155520 0.01405839 -0.05237803
v -0.01799968 0.02201611 -0.04569080
v -0.01513955 0.02469880 -0.04307549
v -0.01599819 0.02410114 -0.04363934
v -0.01649705 0.02425018 -0.04307549
v -0.01546607 0.02459191 -0.04307549
v 0.00933187 0.02258818 -0.04307549
v 0.00933187 0.01485175 -0.05296388
v 0.00147102 0.01485175 -0.05326879
v 0.00355415 0.01485175 -0.05321081
v 0.00772342 0.01485175 -0.05303386
v 0.00564029 0.01485175 -0.05312384
v -0.00061512 0.01485175 -0.05328079
v -0.00269825 0.01485175 -0.05325780
v -0.00478440 0.01485175 -0.05322681
v -0.00686752 0.01485175 -0.05318882
v -0.00895064 0.01485175 -0.05311683
v -0.01103679 0.01485175 -0.05300387
v -0.01728918 0.01276672 -0.05328579
v -0.01937533 0.01135463 -0.05328879
v -0.02146148 0.01135463 -0.05315983
v -0.02155520 0.01135463 -0.05312583
v -0.02155520 0.01276672 -0.05289389
v -0.02155520 0.01285855 -0.05286190
v -0.02155520 0.01909557 -0.04688049
v -0.02095355 0.02032400 -0.04613768
v -0.01937533 0.02172406 -0.04521393
v -0.01937533 0.02239247 -0.04417120
v -0.01741314 0.02390393 -0.04307549
v -0.01728918 0.02385876 -0.04322645
v 0.00933187 0.01135463 -0.05091042
v -0.02155520 0.01907750 -0.04307549
v 0.00933187 0.01324545 -0.05321181
v 0.00933187 0.01276672 -0.05324880
v 0.00933187 0.01135463 -0.05314183
v -0.02155520 0.01135463 -0.04987469
v -0.02155520 0.02086897 -0.04493900
v -0.02137985 0.02106468 -0.04476305
v -0.02041841 0.02214709 -0.04378231
v -0.01928161 0.02311056 -0.04307549
v 0.00632358 0.01135463 -0.05067848
v -0.02155520 0.02202514 -0.04307549
v -0.00478440 0.01135463 -0.05008764
v -0.00269825 0.01135463 -0.05018161
v -0.02155520 0.02136576 -0.04414321
v -0.02092331 0.02233225 -0.04307549
f 1 2 3
f 1 3 8
f 1 8 17
f 1 17 32
f 1 32 31
f 1 31 52
f 1 52 61
f 1 61 84
f 1 84 83
f 1 83 101
f 1 101 104
f 1 104 103
f 1 103 127
f 1 127 138
f 1 138 144
f 1 144 140
f 1 140 130
f 1 130 105
f 1 105 85
f 1 85 63
f 1 63 62
f 1 62 37
f 1 37 20
f 1 20 19
f 1 19 10
f 1 10 4
f 1 4 5
f 1 5 2
f 2 6 7
f 2 7 8
f 2 8 3
f 2 5 9
f 2 9 6
f 4 10 5
f 5 10 11
f 5 11 9
f 6 9 12
f 6 12 13
f 6 13 14
f 6 14 15
f 6 15 7
f 7 15 16
f 7 16 17
f 7 17 8
f 9 11 18
f 9 18 12
f 10 19 11
f 11 19 20
f 11 20 21
f 11 21 22
f 11 22 23
f 11 23 24
f 11 24 25
f 11 25 18
f 12 26 27
f 12 27 13
f 12 18 28
f 12 28 26
f 13 27 29
f 13 29 14
f 14 29 30
f 14 30 15
f 15 30 16
f 16 31 32
f 16 32 17
f 16 30 33
f 16 33 34
f 16 34 35
f 16 35 31
f 18 25 36
f 18 36 28
f 20 37 21
f 21 37 38
f 21 38 22
f 22 38 39
f 22 39 40
f 22 40 23
f 23 40 41
f 23 41 42
f 23 42 43
f 23 43 44
f 23 44 24
f 24 44 36
f 24 36 25
f 26 28 45
f 26 45 46
f 26 46 47
f 26 47 27
f 27 47 48
f 27 48 29
f 28 36 49
f 28 49 45
f 29 48 50
f 29 50 51
f 29 51 30
f 30 51 33
f 31 35 52
f 33 53 34
f 33 51 53
f 34 53 54
f 34 54 55
f 34 55 56
f 34 56 57
f 34 57 58
f 34 58 59
f 34 59 60
f 34 60 35
f 35 60 61
f 35 61 52
f 36 44 49
f 37 62 38
f 38 62 63
f 38 63 64
f 38 64 39
f 39 64 85
f 39 85 105
f 39 105 129
f 39 129 133
f 39 133 132
f 39 132 131
f 39 131 106
f 39 106 87
f 39 87 68
f 39 68 86
f 39 86 66
f 39 66 42
f 39 42 41
f 39 41 65
f 39 65 40
f 40 65 41
f 42 66 67
f 42 67 43
f 43 67 44
f 44 67 68
f 44 68 49
f 45 69 70
f 45 70 46
f 45 49 71
f 45 71 69
f 46 70 47
f 47 70 72
f 47 72 73
f 47 73 48
f 48 74 75
f 48 75 50
f 48 73 74
f 49 68 71
f 50 75 76
f 50 76 77
f 50 77 53
f 50 53 51
f 53 77 78
f 53 78 54
f 54 78 55
f 55 57 56
f 55 78 79
f 55 79 57
f 57 80 58
f 57 79 81
f 57 81 80
f 58 80 59
f 59 80 82
f 59 82 83
f 59 83 84
f 59 84 60
f 60 84 61
f 63 85 64
f 66 86 67
f 67 86 68
f 68 87 88
f 68 88 71
f 69 89 72
f 69 72 70
f 69 71 89
f 71 88 90
f 71 90 89
f 72 89 91
f 72 91 73
f 73 91 92
f 73 92 93
f 73 93 74
f 74 93 94
f 74 94 75
f 75 94 95
f 75 95 76
f 76 95 96
f 76 96 77
f 77 96 78
f 78 97 98
f 78 98 79
f 78 96 95
f 78 95 97
f 79 98 99
f 79 99 100
f 79 100 81
f 80 81 82
f 81 100 82
f 82 101 83
f 82 100 102
f 82 102 103
f 82 103 104
f 82 104 101
f 87 106 90
f 87 90 88
f 89 107 91
f 89 90 108
f 89 108 107
f 90 106 109
f 90 109 110
f 90 110 108
f 91 107 111
f 91 111 92
f 92 111 112
f 92 112 113
f 92 113 93
f 93 113 114
f 93 114 115
f 93 115 94
f 94 115 116
f 94 116 95
f 95 116 97
f 97 117 118
f 97 118 119
f 97 119 98
f 97 116 115
f 97 115 114
f 97 114 113
f 97 113 112
f 97 112 111
f 97 111 117
f 98 119 120
f 98 120 121
f 98 121 122
f 98 122 99
f 99 122 121
f 99 121 120
f 99 120 134
f 99 134 130
f 99 130 140
f 99 140 143
f 99 143 135
f 99 135 123
f 99 123 124
f 99 124 100
f 100 125 126
f 100 126 127
f 100 127 128
f 100 128 102
f 100 124 125
f 102 128 127
f 102 127 103
f 105 130 129
f 106 131 109
f 107 108 131
f 107 131 132
f 107 132 111
f 108 110 131
f 109 131 110
f 111 132 118
f 111 118 117
f 118 132 133
f 118 133 129
f 118 129 139
f 118 139 142
f 118 142 141
f 118 141 134
f 118 134 120
f 118 120 119
f 123 135 124
f 124 135 125
f 125 135 126
f 126 135 136
f 126 136 137
f 126 137 138
f 126 138 127
f 129 130 139
f 130 134 141
f 130 141 142
f 130 142 139
f 135 143 136
f 136 143 137
f 137 143 140
f 137 140 144
f 137 144 138

