# https://github.com/mikedh/trimesh
v 0.00933187 0.02762818 -0.02560391
v 0.00933187 0.02528479 -0.02560391
v 0.00933187 0.02767167 -0.02605991
v 0.00933001 0.02646825 -0.01026869
v 0.00933001 0.02616312 -0.00746448
v 0.00933001 0.02607757 -0.00686845
v 0.00933001 0.02599487 -0.00639450
v 0.00933001 0.02373846 -0.00639450
v 0.00933187 0.02258923 -0.04307549
v 0.00783873 0.02987175 -0.02397380
v 0.00933001 0.02736297 -0.02189128
v 0.00933001 0.02654453 -0.01125250
v 0.00933187 0.02765670 -0.02739559
v 0.00732802 0.02987175 -0.02222520
v 0.00717574 0.02987175 -0.02176561
v 0.00873387 0.02625366 -0.00639450
v -0.00963874 0.02479430 -0.00639450
v -0.00964060 0.02330286 -0.04307549
v 0.00933187 0.02519140 -0.04307549
v 0.00779973 0.02987247 -0.02605991
v 0.00779045 0.02987247 -0.02560391
v 0.00933187 0.02731948 -0.03439715
v 0.00678388 0.02987175 -0.02127012
v 0.00871901 0.02625936 -0.00639450
v -0.00963874 0.02685323 -0.00639450
v -0.00964060 0.02584587 -0.02560391
v -0.00964060 0.02597847 -0.04307549
v 0.00693802 0.02636773 -0.04180803
v 0.00933187 0.02535894 -0.04270567
v 0.00828073 0.02543522 -0.04307549
v 0.00933187 0.02712129 -0.03648326
v 0.00933187 0.02675698 -0.03861604
v 0.00717202 0.02987247 -0.02786595
v -0.00878261 0.02987247 -0.02560391
v -0.00061122 0.02987175 -0.01764726
v -0.00012651 0.02987175 -0.01770830
v 0.00162848 0.02987175 -0.01799913
v 0.00355618 0.02987175 -0.01891831
v 0.00567146 0.02987175 -0.01995598
v 0.00591846 0.02987175 -0.02020014
v 0.00771988 0.02651673 -0.00639450
v -0.00963874 0.02693308 -0.00729931
v -0.00964060 0.02842951 -0.02560391
v -0.00894975 0.02697870 -0.00639450
v -0.00681776 0.02987175 -0.01989494
v -0.00777790 0.02987175 -0.02098647
v -0.00836475 0.02987175 -0.02177998
v -0.00849289 0.02987175 -0.02197746
v -0.00898318 0.02987175 -0.02397380
v -0.00964060 0.02651031 -0.04210246
v -0.00895161 0.02656592 -0.04221735
v -0.00895161 0.02609610 -0.04307549
v 0.00563989 0.02649249 -0.04206296
v 0.00563989 0.02696872 -0.04065188
v 0.00766973 0.02659872 -0.04070932
v 0.00929658 0.02646682 -0.04005226
v 0.00933187 0.02552148 -0.04231789
v 0.00563989 0.02597063 -0.04307549
v 0.00933187 0.02647538 -0.03996967
v 0.00563989 0.02987247 -0.02870973
v 0.00772545 0.02712557 -0.03856577
v -0.00638133 0.02987175 -0.01963642
v -0.00412677 0.02987175 -0.01845154
v -0.00285464 0.02987175 -0.01796323
v -0.00257978 0.02987175 -0.01792014
v -0.00875103 0.02987247 -0.02585883
v -0.00964060 0.02741573 -0.03856577
v -0.00478049 0.02737652 -0.00639450
v -0.00269678 0.02741074 -0.00639450
v -0.00151565 0.02740289 -0.00639450
v -0.00061122 0.02739077 -0.00639450
v -0.00003365 0.02737723 -0.00639450
v 0.00056620 0.02736226 -0.00639450
v 0.00147062 0.02732305 -0.00639450
v 0.00265176 0.02724320 -0.00639450
v 0.00355618 0.02717262 -0.00639450
v 0.00563989 0.02690242 -0.00639450
v -0.00963874 0.02834609 -0.02397380
v -0.00963874 0.02843664 -0.02554646
v -0.00964060 0.02748916 -0.03787998
v -0.00686605 0.02723536 -0.00639450
v -0.00964060 0.02698726 -0.04071292
v -0.00895161 0.02711487 -0.04065188
v -0.00686605 0.02673132 -0.04254050
v -0.00628848 0.02652528 -0.04307549
v 0.00553774 0.02598916 -0.04307549
v 0.00355618 0.02665646 -0.04242561
v 0.00355618 0.02723251 -0.04065188
v 0.00933187 0.02645898 -0.04003430
v 0.00359890 0.02987247 -0.02946733
v -0.00870832 0.02987247 -0.02612454
v -0.00964060 0.02716335 -0.03996608
v -0.00710747 0.02987247 -0.02819628
v -0.00699419 0.02987247 -0.02833990
v -0.00478234 0.02987247 -0.02971508
v -0.00686605 0.02737081 -0.04065188
v -0.00483063 0.02673916 -0.04292469
v -0.00496248 0.02665432 -0.04307549
v 0.00355618 0.02629786 -0.04307549
v 0.00128120 0.02661868 -0.04307549
v 0.00142420 0.02668640 -0.04288520
v 0.00147062 0.02737366 -0.04065188
v 0.00149848 0.02987247 -0.03001669
v -0.00289178 0.02987247 -0.03008850
v -0.00478234 0.02748488 -0.04065188
v -0.00269678 0.02688460 -0.04273798
v -0.00449634 0.02668284 -0.04307549
v -0.00472106 0.02667571 -0.04307549
v -0.00020637 0.02670565 -0.04307549
v -0.00061308 0.02686535 -0.04273798
v -0.00061308 0.02745636 -0.04065188
v -0.00061308 0.02987247 -0.03027520
v -0.00078765 0.02987247 -0.03026802
v -0.00269678 0.02749130 -0.04065188
v -0.00207836 0.02673275 -0.04307549
v -0.00269678 0.02673275 -0.04307549
v -0.00061308 0.02671920 -0.04307549
f 1 2 9
f 1 9 19
f 1 19 29
f 1 29 57
f 1 57 89
f 1 89 59
f 1 59 32
f 1 32 31
f 1 31 22
f 1 22 13
f 1 13 3
f 1 3 4
f 1 4 5
f 1 5 6
f 1 6 7
f 1 7 8
f 1 8 2
f 2 8 9
f 3 10 11
f 3 11 12
f 3 12 4
f 3 13 10
f 4 12 10
f 4 10 5
f 5 10 6
f 6 10 14
f 6 14 7
f 7 14 15
f 7 15 16
f 7 16 24
f 7 24 41
f 7 41 77
f 7 77 76
f 7 76 75
f 7 75 74
f 7 74 73
f 7 73 72
f 7 72 71
f 7 71 70
f 7 70 69
f 7 69 68
f 7 68 81
f 7 81 44
f 7 44 25
f 7 25 17
f 7 17 8
f 8 17 18
f 8 18 9
f 9 18 27
f 9 27 52
f 9 52 85
f 9 85 98
f 9 98 108
f 9 108 107
f 9 107 116
f 9 116 115
f 9 115 117
f 9 117 109
f 9 109 100
f 9 100 99
f 9 99 86
f 9 86 58
f 9 58 30
f 9 30 19
f 10 12 11
f 10 13 20
f 10 20 21
f 10 21 14
f 13 22 20
f 14 21 15
f 15 21 23
f 15 23 24
f 15 24 16
f 17 25 43
f 17 43 26
f 17 26 18
f 18 26 43
f 18 43 80
f 18 80 67
f 18 67 92
f 18 92 82
f 18 82 50
f 18 50 27
f 19 28 29
f 19 30 28
f 20 22 31
f 20 31 32
f 20 32 33
f 20 33 60
f 20 60 90
f 20 90 103
f 20 103 112
f 20 112 113
f 20 113 104
f 20 104 95
f 20 95 94
f 20 94 93
f 20 93 91
f 20 91 66
f 20 66 34
f 20 34 21
f 21 34 35
f 21 35 36
f 21 36 37
f 21 37 38
f 21 38 39
f 21 39 40
f 21 40 23
f 23 40 24
f 24 40 41
f 25 42 43
f 25 44 45
f 25 45 46
f 25 46 47
f 25 47 48
f 25 48 49
f 25 49 42
f 27 50 51
f 27 51 52
f 28 53 54
f 28 54 55
f 28 55 56
f 28 56 57
f 28 57 29
f 28 30 58
f 28 58 53
f 32 59 33
f 33 59 56
f 33 56 61
f 33 61 54
f 33 54 60
f 34 49 48
f 34 48 47
f 34 47 46
f 34 46 45
f 34 45 62
f 34 62 63
f 34 63 64
f 34 64 65
f 34 65 35
f 34 66 67
f 34 67 49
f 35 65 68
f 35 68 69
f 35 69 70
f 35 70 71
f 35 71 72
f 35 72 73
f 35 73 36
f 36 73 37
f 37 73 74
f 37 74 75
f 37 75 76
f 37 76 38
f 38 76 39
f 39 76 77
f 39 77 41
f 39 41 40
f 42 49 78
f 42 78 43
f 43 78 79
f 43 79 49
f 43 49 80
f 44 81 45
f 45 81 62
f 49 67 80
f 49 79 78
f 50 82 83
f 50 83 51
f 51 84 52
f 51 83 84
f 52 84 85
f 53 58 86
f 53 86 87
f 53 87 54
f 54 88 60
f 54 61 55
f 54 87 88
f 55 61 56
f 56 59 89
f 56 89 57
f 60 88 90
f 62 81 63
f 63 81 64
f 64 81 68
f 64 68 65
f 66 91 67
f 67 91 93
f 67 93 92
f 82 92 83
f 83 92 94
f 83 94 95
f 83 95 96
f 83 96 84
f 84 97 98
f 84 98 85
f 84 96 97
f 86 99 87
f 87 99 100
f 87 100 101
f 87 101 88
f 88 101 102
f 88 102 90
f 90 102 103
f 92 93 94
f 95 104 105
f 95 105 96
f 96 105 97
f 97 105 106
f 97 106 107
f 97 107 108
f 97 108 98
f 100 109 110
f 100 110 101
f 101 110 102
f 102 110 111
f 102 111 103
f 103 111 112
f 104 113 105
f 105 114 106
f 105 113 112
f 105 112 114
f 106 110 115
f 106 115 116
f 106 116 107
f 106 114 110
f 109 117 110
f 110 117 115
f 110 114 111
f 111 114 112

