# https://github.com/mikedh/trimesh
v -0.00891616 0.05446096 0.02039753
v -0.00855468 0.05226027 0.02039753
v -0.00827650 0.02987247 0.02866611
v -0.00838810 0.02987247 0.02898319
v -0.00880289 0.02987247 0.03023018
v -0.00885619 0.03569866 0.03023018
v -0.00887285 0.03778367 0.03023018
v -0.00887951 0.04612373 0.02814627
v -0.00888118 0.05029094 0.02606236
v -0.00888284 0.05237595 0.02397692
v -0.00875125 0.05446096 0.02189301
v -0.00826150 0.05632308 0.02039753
v -0.00803329 0.05107246 0.02039753
v -0.00732699 0.02987247 0.02762644
v -0.00874791 0.02987247 0.03065703
v -0.00851137 0.03153145 0.03231410
v -0.00851970 0.03361646 0.03231410
v -0.00883787 0.04195652 0.03022866
v -0.00874125 0.04404153 0.03022866
v -0.00876291 0.04820874 0.02814627
v -0.00832314 0.05026836 0.02817829
v -0.00836645 0.05243802 0.02610352
v -0.00827316 0.05442146 0.02380924
v -0.00814990 0.05583498 0.02189301
v -0.00758519 0.05709897 0.02039753
v -0.00799997 0.05102168 0.02039753
v -0.00628588 0.02987247 0.02678495
v -0.00847639 0.02987247 0.03231410
v -0.00797665 0.03153145 0.03343304
v -0.00836811 0.02987247 0.03254429
v -0.00797665 0.03361646 0.03343609
v -0.00849305 0.03569866 0.03231410
v -0.00841476 0.03986868 0.03218452
v -0.00834479 0.04195652 0.03196957
v -0.00819654 0.04404153 0.03168145
v -0.00840476 0.04619708 0.03038415
v -0.00825651 0.04820874 0.02978047
v -0.00802996 0.04956019 0.02937192
v -0.00809992 0.05178627 0.02750753
v -0.00807827 0.05369636 0.02543582
v -0.00793667 0.05553591 0.02300128
v -0.00739862 0.05723722 0.02039753
v -0.00725203 0.05001161 0.02039753
v -0.00509484 0.02987247 0.02628798
v -0.00795167 0.02987247 0.03340407
v -0.00772345 0.02987247 0.03356566
v -0.00686724 0.03153145 0.03421812
v -0.00686724 0.03361646 0.03423184
v -0.00794667 0.03569866 0.03340255
v -0.00834646 0.03774699 0.03250618
v -0.00788337 0.03841849 0.03332937
v -0.00780674 0.03950472 0.03325163
v -0.00777842 0.03986868 0.03322724
v -0.00751689 0.04195652 0.03301229
v -0.00803329 0.04555380 0.03143602
v -0.00782673 0.04694476 0.03118296
v -0.00744693 0.04820874 0.03082319
v -0.00767348 0.05095114 0.02889477
v -0.00773345 0.05317440 0.02682611
v -0.00608931 0.05564313 0.02528794
v -0.00747858 0.05508731 0.02439157
v -0.00714542 0.05740650 0.02039753
v -0.00618593 0.04892820 0.02039753
v -0.00478000 0.02987247 0.02616297
v -0.00686724 0.02987247 0.03416782
v -0.00527141 0.03153145 0.03518310
v -0.00526641 0.03361646 0.03519224
v -0.00686724 0.03569866 0.03417544
v -0.00792002 0.03702753 0.03337053
v -0.00679228 0.03950472 0.03397117
v -0.00702549 0.03950472 0.03381262
v -0.00706047 0.03774699 0.03394830
v -0.00673730 0.03986868 0.03397422
v -0.00647244 0.04195652 0.03377146
v -0.00611597 0.04404153 0.03354127
v -0.00589775 0.04520113 0.03340102
v -0.00715708 0.04404153 0.03272417
v -0.00640415 0.04820874 0.03169517
v -0.00598104 0.04942194 0.03137504
v -0.00682892 0.05018654 0.03014634
v -0.00628421 0.05176088 0.02953047
v -0.00700716 0.05246905 0.02822097
v -0.00634251 0.05382051 0.02755022
v -0.00691055 0.05445532 0.02605626
v -0.00478000 0.05583216 0.02572241
v -0.00610430 0.05772250 0.02110640
v -0.00478000 0.05526224 0.02676360
v -0.00644413 0.05780432 0.02039753
v -0.00614428 0.04889998 0.02039753
v -0.00312421 0.02987247 0.02581997
v -0.00653741 0.02987247 0.03436599
v -0.00518979 0.02987247 0.03516023
v -0.00497490 0.02987247 0.03524408
v -0.00422862 0.03153145 0.03558555
v -0.00422363 0.03361646 0.03557793
v -0.00511483 0.03569866 0.03517090
v -0.00490827 0.03778367 0.03512822
v -0.00458177 0.03967965 0.03497882
v -0.00478000 0.04404153 0.03405501
v -0.00464507 0.04598548 0.03357633
v -0.00386049 0.04727204 0.03339645
v -0.00524809 0.04658926 0.03312358
v -0.00464507 0.04806485 0.03270588
v -0.00457178 0.05018654 0.03159456
v -0.00512815 0.05081289 0.03092076
v -0.00534804 0.05315183 0.02893746
v -0.00470338 0.05411957 0.02820420
v -0.00355231 0.05547667 0.02707611
v -0.00478000 0.05787768 0.02144178
v -0.00538135 0.05814571 0.02039753
v -0.00479832 0.04810717 0.02039753
v -0.00269610 0.02987247 0.02573918
v -0.00414700 0.02987247 0.03556268
v -0.00383217 0.02987247 0.03562061
v -0.00269610 0.03153145 0.03586300
v -0.00269610 0.03361646 0.03582946
v -0.00407204 0.03569866 0.03552762
v -0.00386382 0.03778367 0.03547274
v -0.00375221 0.03885298 0.03544378
v -0.00440853 0.03950472 0.03507638
v -0.00269610 0.04404153 0.03445899
v -0.00269610 0.04612373 0.03394830
v -0.00269610 0.04743568 0.03346353
v -0.00269610 0.04847960 0.03299552
v -0.00373888 0.05133203 0.03126985
v -0.00395710 0.05351579 0.02928808
v -0.00216304 0.05553874 0.02715386
v -0.00061053 0.05720901 0.02425895
v -0.00197314 0.05765197 0.02308208
v -0.00269610 0.05364558 0.02942833
v -0.00279271 0.05483339 0.02796639
v -0.00267944 0.05799900 0.02200277
v -0.00478000 0.05827267 0.02039753
v -0.00414367 0.04782503 0.02039753
v -0.00061053 0.02987247 0.02569954
v -0.00324581 0.04744978 0.02039753
v -0.00235461 0.04708018 0.02039753
v -0.00061053 0.04682061 0.02039753
v -0.00269610 0.02987247 0.03582031
v -0.00061053 0.02987247 0.03594379
v -0.00061053 0.03153145 0.03596971
v -0.00061053 0.03361646 0.03593007
v -0.00061053 0.03569866 0.03582793
v -0.00269610 0.03569866 0.03571360
v -0.00269610 0.03778367 0.03559469
v -0.00269610 0.03913512 0.03548799
v -0.00061053 0.04404153 0.03453064
v -0.00061053 0.04612373 0.03405196
v -0.00061053 0.03945112 0.03554134
v -0.00061053 0.04754571 0.03350621
v -0.00061053 0.04858681 0.03302449
v -0.00269610 0.05029094 0.03199244
v -0.00269610 0.05139128 0.03131101
v -0.00269610 0.05243238 0.03047105
v -0.00061053 0.05372458 0.02950760
v -0.00061053 0.05476567 0.02821182
v -0.00061053 0.05555284 0.02717215
v -0.00061053 0.05621587 0.02606236
v 0.00147004 0.05715540 0.02418120
v 0.00147004 0.05768300 0.02314001
v -0.00061053 0.05771686 0.02321623
v -0.00061053 0.05826985 0.02189301
v -0.00269110 0.05854353 0.02039753
v 0.00104194 0.02987247 0.02581388
v 0.00147004 0.04700118 0.02039753
v 0.00358726 0.04733693 0.02039753
v 0.00147004 0.02987247 0.03586605
v 0.00147004 0.03153145 0.03588434
v 0.00147004 0.03361646 0.03587062
v 0.00147004 0.03569866 0.03577915
v -0.00061053 0.03778367 0.03570750
v 0.00147004 0.04404153 0.03448948
v 0.00147004 0.04612373 0.03397879
v 0.00147004 0.04745260 0.03347877
v 0.00104693 0.03927337 0.03551390
v 0.00147004 0.04849652 0.03297266
v -0.00061053 0.05029094 0.03207476
v -0.00061053 0.05145899 0.03136437
v -0.00061053 0.05250291 0.03055032
v 0.00147004 0.05365122 0.02941918
v 0.00069045 0.05553027 0.02714471
v 0.00141840 0.05600709 0.02622243
v 0.00355561 0.05590552 0.02566448
v 0.00259778 0.05760964 0.02297842
v 0.00147004 0.05821906 0.02189301
v 0.00088202 0.05869588 0.02039753
v -0.00061053 0.05869024 0.02039753
v 0.00147004 0.02987247 0.02584589
v 0.00390710 0.04750621 0.02039753
v 0.00355561 0.02987247 0.02609590
v 0.00312584 0.02987247 0.02604254
v 0.00374718 0.02987247 0.03559012
v 0.00339403 0.03361646 0.03563281
v 0.00372719 0.03148913 0.03560079
v 0.00318248 0.03569866 0.03557793
v 0.00286265 0.03734635 0.03550018
v 0.00163329 0.03793885 0.03559317
v 0.00355561 0.04404153 0.03428977
v 0.00349398 0.04614630 0.03366932
v 0.00275770 0.04729743 0.03342084
v 0.00243787 0.03873730 0.03537518
v 0.00248618 0.05132921 0.03126528
v 0.00166328 0.05049689 0.03184152
v 0.00109524 0.05142514 0.03134303
v 0.00141840 0.05480235 0.02796029
v 0.00166328 0.05222359 0.03062044
v 0.00276603 0.05352708 0.02928808
v 0.00207972 0.05541459 0.02702428
v 0.00487825 0.05567981 0.02526355
v 0.00339736 0.05696355 0.02379399
v 0.00355561 0.05516913 0.02670720
v 0.00398872 0.05739804 0.02255157
v 0.00339736 0.05787768 0.02187167
v 0.00296759 0.05850120 0.02039753
v 0.00147004 0.05867895 0.02039753
v 0.00546461 0.04845138 0.02039753
v 0.00496654 0.02987247 0.02657000
v 0.00617590 0.04909466 0.02039753
v 0.00449679 0.02987247 0.03546817
v 0.00461672 0.02996275 0.03544987
v 0.00461672 0.03076685 0.03544987
v 0.00453676 0.03215498 0.03538890
v 0.00422360 0.03569866 0.03524865
v 0.00355728 0.03793885 0.03521511
v 0.00355561 0.04195652 0.03464192
v 0.00533968 0.04404153 0.03374250
v 0.00489824 0.04546352 0.03350621
v 0.00414697 0.04685447 0.03316169
v 0.00507148 0.04964765 0.03150309
v 0.00355561 0.05006522 0.03175158
v 0.00355561 0.05110632 0.03110369
v 0.00349898 0.05246341 0.02994664
v 0.00415696 0.05321672 0.02894051
v 0.00349898 0.05405186 0.02820573
v 0.00685388 0.05568263 0.02321623
v 0.00559954 0.05602120 0.02393729
v 0.00486659 0.05770839 0.02116280
v 0.00515477 0.05375561 0.02755479
v 0.00654404 0.05329290 0.02695873
v 0.00626752 0.05516913 0.02460652
v 0.00351064 0.05840246 0.02039753
v 0.00532302 0.02987247 0.02669348
v 0.00646242 0.04945862 0.02039753
v 0.00461506 0.02987247 0.03544835
v 0.00473333 0.02987247 0.03539195
v 0.00544295 0.02987247 0.03502303
v 0.00544295 0.03148913 0.03499254
v 0.00563952 0.03778367 0.03449710
v 0.00563952 0.03950472 0.03433246
v 0.00563952 0.03986868 0.03429740
v 0.00524639 0.03950472 0.03447118
v 0.00584441 0.04214555 0.03389799
v 0.00667564 0.04296658 0.03334767
v 0.00637913 0.04404153 0.03317388
v 0.00691884 0.04761343 0.03149395
v 0.00571614 0.04826799 0.03184457
v 0.00646242 0.04900155 0.03109607
v 0.00571614 0.05032197 0.03062654
v 0.00563952 0.05171292 0.02955486
v 0.00669230 0.05134614 0.02919814
v 0.00576612 0.05281327 0.02820573
v 0.00709209 0.05597605 0.02189301
v 0.00617757 0.05730493 0.02039753
v 0.00559288 0.05701997 0.02187167
v 0.00696715 0.05378100 0.02556997
v 0.00726200 0.05446942 0.02393729
v 0.00522807 0.05780996 0.02039753
v 0.00636580 0.02987247 0.02736119
v 0.00726033 0.05047715 0.02039753
v 0.00587939 0.02987247 0.03475015
v 0.00722202 0.03153145 0.03387818
v 0.00720369 0.03361646 0.03383397
v 0.00715872 0.03569866 0.03377146
v 0.00708709 0.03778367 0.03368762
v 0.00695716 0.03986868 0.03357024
v 0.00680724 0.04157845 0.03344981
v 0.00729698 0.04404153 0.03213269
v 0.00715872 0.04612373 0.03178207
v 0.00726533 0.04826799 0.03033232
v 0.00693384 0.05029094 0.02958535
v 0.00748855 0.05029094 0.02814627
v 0.00692884 0.05176935 0.02814627
v 0.00716538 0.05639362 0.02039753
v 0.00779672 0.05446096 0.02189301
v 0.00731530 0.05250855 0.02618279
v 0.00799994 0.05237595 0.02397692
v 0.00728199 0.02987247 0.02840238
v 0.00773508 0.05169881 0.02039753
v 0.00721036 0.02987247 0.03389342
v 0.00788167 0.03153145 0.03231410
v 0.00785502 0.03361646 0.03231410
v 0.00788167 0.02987247 0.03231410
v 0.00780838 0.03569866 0.03231410
v 0.00772675 0.03778367 0.03231410
v 0.00750687 0.03950472 0.03255343
v 0.00698048 0.03950472 0.03359005
v 0.00759516 0.03986868 0.03231257
v 0.00777173 0.04612373 0.03022866
v 0.00789333 0.04820874 0.02814627
v 0.00740526 0.05587731 0.02039753
v 0.00794331 0.05446096 0.02039753
v 0.00810156 0.05237595 0.02189301
v 0.00802993 0.05387129 0.02039753
v 0.00791999 0.04404153 0.03022866
v 0.00781837 0.02987247 0.02985822
v 0.00793664 0.05237595 0.02039753
v 0.00799495 0.03986868 0.03022866
v 0.00796996 0.04195652 0.03022866
v 0.00795497 0.02987247 0.03023018
v 0.00798329 0.03569866 0.03023018
v 0.00798995 0.03778367 0.03023018
v 0.00761848 0.03950472 0.03231257
f 1 2 3
f 1 3 4
f 1 4 5
f 1 5 6
f 1 6 7
f 1 7 8
f 1 8 9
f 1 9 10
f 1 10 11
f 1 11 12
f 1 12 25
f 1 25 42
f 1 42 62
f 1 62 88
f 1 88 110
f 1 110 133
f 1 133 163
f 1 163 187
f 1 187 186
f 1 186 215
f 1 215 214
f 1 214 241
f 1 241 267
f 1 267 263
f 1 263 283
f 1 283 300
f 1 300 301
f 1 301 303
f 1 303 306
f 1 306 288
f 1 288 269
f 1 269 243
f 1 243 218
f 1 218 216
f 1 216 189
f 1 189 166
f 1 166 165
f 1 165 138
f 1 138 137
f 1 137 136
f 1 136 134
f 1 134 111
f 1 111 89
f 1 89 63
f 1 63 43
f 1 43 26
f 1 26 13
f 1 13 2
f 2 13 14
f 2 14 3
f 3 14 27
f 3 27 44
f 3 44 64
f 3 64 90
f 3 90 112
f 3 112 135
f 3 135 164
f 3 164 188
f 3 188 191
f 3 191 190
f 3 190 217
f 3 217 242
f 3 242 268
f 3 268 287
f 3 287 305
f 3 305 309
f 3 309 292
f 3 292 289
f 3 289 270
f 3 270 246
f 3 246 245
f 3 245 244
f 3 244 219
f 3 219 192
f 3 192 167
f 3 167 140
f 3 140 139
f 3 139 114
f 3 114 113
f 3 113 93
f 3 93 92
f 3 92 91
f 3 91 65
f 3 65 46
f 3 46 45
f 3 45 30
f 3 30 28
f 3 28 15
f 3 15 5
f 3 5 4
f 5 15 6
f 6 15 7
f 7 15 16
f 7 16 17
f 7 17 18
f 7 18 8
f 8 19 20
f 8 20 9
f 8 18 19
f 9 20 21
f 9 21 22
f 9 22 10
f 10 22 11
f 11 22 23
f 11 23 24
f 11 24 12
f 12 24 25
f 13 26 27
f 13 27 14
f 15 28 16
f 16 29 17
f 16 28 30
f 16 30 29
f 17 29 31
f 17 31 32
f 17 32 18
f 18 32 33
f 18 33 19
f 19 34 35
f 19 35 36
f 19 36 20
f 19 33 34
f 20 37 21
f 20 36 37
f 21 37 38
f 21 38 39
f 21 39 22
f 22 39 40
f 22 40 23
f 23 40 41
f 23 41 24
f 24 41 25
f 25 41 42
f 26 43 27
f 27 43 44
f 29 30 45
f 29 45 46
f 29 46 47
f 29 47 48
f 29 48 31
f 31 48 49
f 31 49 32
f 32 49 50
f 32 50 33
f 33 50 51
f 33 51 34
f 34 51 52
f 34 52 53
f 34 53 35
f 35 53 54
f 35 54 55
f 35 55 36
f 36 55 37
f 37 55 56
f 37 56 38
f 38 56 57
f 38 57 58
f 38 58 39
f 39 59 40
f 39 58 59
f 40 59 41
f 41 60 42
f 41 59 61
f 41 61 60
f 42 60 62
f 43 63 64
f 43 64 44
f 46 65 47
f 47 65 66
f 47 66 48
f 48 66 67
f 48 67 68
f 48 68 49
f 49 68 69
f 49 69 50
f 50 69 51
f 51 70 71
f 51 71 52
f 51 69 72
f 51 72 70
f 52 71 53
f 53 71 73
f 53 73 74
f 53 74 54
f 54 74 75
f 54 75 76
f 54 76 77
f 54 77 55
f 55 77 56
f 56 77 76
f 56 76 78
f 56 78 57
f 57 78 79
f 57 79 80
f 57 80 58
f 58 80 81
f 58 81 82
f 58 82 59
f 59 82 83
f 59 83 84
f 59 84 61
f 60 85 86
f 60 86 62
f 60 61 84
f 60 84 83
f 60 83 87
f 60 87 85
f 62 86 88
f 63 89 64
f 64 89 90
f 65 91 66
f 66 91 92
f 66 92 93
f 66 93 94
f 66 94 67
f 67 94 95
f 67 95 96
f 67 96 68
f 68 96 72
f 68 72 69
f 70 73 71
f 70 72 96
f 70 96 73
f 73 96 97
f 73 97 74
f 74 97 98
f 74 98 75
f 75 98 76
f 76 98 99
f 76 99 100
f 76 100 101
f 76 101 102
f 76 102 79
f 76 79 78
f 79 102 103
f 79 103 104
f 79 104 105
f 79 105 81
f 79 81 80
f 81 106 83
f 81 83 82
f 81 105 106
f 83 107 87
f 83 106 107
f 85 87 108
f 85 108 109
f 85 109 86
f 86 109 110
f 86 110 88
f 87 107 108
f 89 111 112
f 89 112 90
f 93 113 94
f 94 113 114
f 94 114 115
f 94 115 95
f 95 115 116
f 95 116 117
f 95 117 96
f 96 117 97
f 97 117 118
f 97 118 119
f 97 119 120
f 97 120 98
f 98 120 99
f 99 121 122
f 99 122 100
f 99 120 119
f 99 119 121
f 100 122 101
f 101 122 123
f 101 123 124
f 101 124 125
f 101 125 103
f 101 103 102
f 103 125 104
f 104 125 105
f 105 125 106
f 106 125 126
f 106 126 107
f 107 126 108
f 108 127 128
f 108 128 129
f 108 129 109
f 108 126 130
f 108 130 131
f 108 131 127
f 109 129 132
f 109 132 133
f 109 133 110
f 111 134 112
f 112 134 136
f 112 136 137
f 112 137 138
f 112 138 135
f 114 139 115
f 115 139 140
f 115 140 141
f 115 141 116
f 116 141 142
f 116 142 143
f 116 143 144
f 116 144 119
f 116 119 118
f 116 118 117
f 119 144 145
f 119 145 146
f 119 146 121
f 121 147 148
f 121 148 122
f 121 146 149
f 121 149 147
f 122 148 123
f 123 148 150
f 123 150 124
f 124 151 152
f 124 152 125
f 124 150 151
f 125 152 153
f 125 153 154
f 125 154 130
f 125 130 126
f 127 131 155
f 127 155 156
f 127 156 157
f 127 157 158
f 127 158 128
f 128 158 159
f 128 159 160
f 128 160 161
f 128 161 129
f 129 161 162
f 129 162 132
f 130 154 155
f 130 155 131
f 132 162 163
f 132 163 133
f 135 138 165
f 135 165 166
f 135 166 164
f 140 167 141
f 141 167 168
f 141 168 169
f 141 169 142
f 142 169 170
f 142 170 143
f 143 170 171
f 143 171 145
f 143 145 144
f 145 171 146
f 146 171 149
f 147 172 148
f 147 149 172
f 148 173 174
f 148 174 150
f 148 172 173
f 149 171 175
f 149 175 172
f 150 174 151
f 151 174 176
f 151 176 177
f 151 177 152
f 152 177 178
f 152 178 153
f 153 178 179
f 153 179 154
f 154 179 155
f 155 180 156
f 155 179 180
f 156 180 181
f 156 181 157
f 157 181 158
f 158 181 159
f 159 181 182
f 159 182 183
f 159 183 184
f 159 184 160
f 160 184 185
f 160 185 161
f 161 185 162
f 162 185 186
f 162 186 187
f 162 187 163
f 164 166 188
f 166 189 190
f 166 190 191
f 166 191 188
f 167 192 168
f 168 193 169
f 168 192 194
f 168 194 193
f 169 193 195
f 169 195 170
f 170 195 196
f 170 196 197
f 170 197 175
f 170 175 171
f 172 198 173
f 172 175 198
f 173 199 200
f 173 200 174
f 173 198 199
f 174 200 176
f 175 197 196
f 175 196 201
f 175 201 198
f 176 202 203
f 176 203 177
f 176 200 202
f 177 203 204
f 177 204 178
f 178 204 179
f 179 204 180
f 180 205 181
f 180 204 206
f 180 206 202
f 180 202 207
f 180 207 205
f 181 205 208
f 181 208 182
f 182 208 183
f 183 209 210
f 183 210 184
f 183 208 211
f 183 211 209
f 184 210 212
f 184 212 213
f 184 213 185
f 185 213 214
f 185 214 215
f 185 215 186
f 189 216 190
f 190 216 218
f 190 218 217
f 192 219 220
f 192 220 194
f 193 194 221
f 193 221 195
f 194 220 221
f 195 221 222
f 195 222 223
f 195 223 196
f 196 223 224
f 196 224 225
f 196 225 201
f 198 226 227
f 198 227 199
f 198 201 225
f 198 225 226
f 199 228 200
f 199 227 228
f 200 228 229
f 200 229 230
f 200 230 202
f 202 204 203
f 202 230 231
f 202 231 207
f 202 206 204
f 205 207 208
f 207 232 233
f 207 233 234
f 207 234 211
f 207 211 208
f 207 231 232
f 209 235 236
f 209 236 237
f 209 237 212
f 209 212 210
f 209 211 233
f 209 233 238
f 209 238 239
f 209 239 240
f 209 240 235
f 211 234 233
f 212 237 213
f 213 241 214
f 213 237 241
f 217 218 242
f 218 243 242
f 219 244 220
f 220 244 245
f 220 245 221
f 221 245 246
f 221 246 247
f 221 247 248
f 221 248 222
f 222 248 223
f 223 248 249
f 223 249 250
f 223 250 251
f 223 251 224
f 224 251 225
f 225 252 226
f 225 251 250
f 225 250 252
f 226 252 253
f 226 253 254
f 226 254 227
f 227 254 255
f 227 255 256
f 227 256 229
f 227 229 228
f 229 256 257
f 229 257 258
f 229 258 259
f 229 259 231
f 229 231 230
f 231 259 232
f 232 259 233
f 233 259 260
f 233 260 261
f 233 261 238
f 235 262 263
f 235 263 264
f 235 264 236
f 235 240 239
f 235 239 265
f 235 265 266
f 235 266 262
f 236 264 237
f 237 264 263
f 237 263 267
f 237 267 241
f 238 261 239
f 239 261 260
f 239 260 265
f 242 243 269
f 242 269 268
f 246 270 247
f 247 270 271
f 247 271 272
f 247 272 273
f 247 273 274
f 247 274 248
f 248 274 275
f 248 275 249
f 249 275 250
f 250 275 276
f 250 276 253
f 250 253 252
f 253 277 278
f 253 278 255
f 253 255 254
f 253 276 277
f 255 278 279
f 255 279 280
f 255 280 260
f 255 260 257
f 255 257 256
f 257 260 258
f 258 260 259
f 260 280 281
f 260 281 282
f 260 282 265
f 262 283 263
f 262 266 284
f 262 284 283
f 265 282 266
f 266 282 285
f 266 285 286
f 266 286 284
f 268 269 288
f 268 288 287
f 270 289 271
f 271 290 291
f 271 291 272
f 271 289 292
f 271 292 290
f 272 291 293
f 272 293 273
f 273 293 294
f 273 294 274
f 274 294 295
f 274 295 296
f 274 296 275
f 275 296 295
f 275 295 297
f 275 297 277
f 275 277 276
f 277 298 278
f 277 297 298
f 278 298 279
f 279 281 280
f 279 298 281
f 281 298 299
f 281 299 286
f 281 286 285
f 281 285 282
f 283 284 300
f 284 286 301
f 284 301 300
f 286 302 303
f 286 303 301
f 286 299 304
f 286 304 302
f 287 288 306
f 287 306 305
f 290 292 307
f 290 307 308
f 290 308 291
f 291 308 293
f 292 309 310
f 292 310 311
f 292 311 307
f 293 308 304
f 293 304 294
f 294 312 295
f 294 304 312
f 295 312 297
f 297 312 304
f 297 304 298
f 298 304 299
f 302 309 303
f 302 304 308
f 302 308 307
f 302 307 311
f 302 311 310
f 302 310 309
f 303 309 306
f 305 306 309

