# https://github.com/mikedh/trimesh
v 0.03978777 0.00378180 -0.02293171
v 0.03947476 0.00434653 -0.02293171
v 0.03838070 0.00617726 -0.02188887
v 0.03829723 0.00603608 -0.01980320
v 0.03897096 0.00378180 -0.01343445
v 0.03723000 0.00378180 -0.02293171
v 0.03841946 0.00624438 -0.02293171
v 0.03756687 0.00692946 -0.01771753
v 0.03819885 0.00588564 -0.01771753
v 0.03849995 0.00433727 -0.01146051
v 0.03830916 0.00400399 -0.00728916
v 0.03821972 0.00378180 -0.00514390
v 0.00933304 0.02514889 -0.02293171
v 0.03122014 0.00378180 -0.00914392
v 0.03806769 0.00676745 -0.02293171
v 0.03762947 0.00707990 -0.01980320
v 0.03652349 0.00847784 -0.01771753
v 0.03643107 0.00834591 -0.01563185
v 0.03632674 0.00820242 -0.01353873
v 0.03747445 0.00676282 -0.01563185
v 0.03810048 0.00571900 -0.01563185
v 0.03820482 0.00382577 -0.00521094
v 0.03387629 0.00378180 0.04065152
v 0.00933304 0.02742632 -0.02293171
v 0.00933304 0.01803424 -0.00005635
v 0.03086539 0.00378180 -0.00811598
v 0.03771294 0.00728589 -0.02293171
v 0.03595112 0.00975079 -0.02188887
v 0.03589746 0.00967904 -0.02050339
v 0.03547415 0.00909811 -0.01146051
v 0.03622240 0.00805429 -0.01146051
v 0.03323536 0.00470064 0.04065152
v 0.03368550 0.00378180 0.04244669
v 0.00933304 0.02736152 -0.02188887
v 0.01158972 0.02655608 -0.01979575
v 0.01176262 0.02660700 -0.02188887
v 0.01192360 0.02660006 -0.02293171
v 0.03065076 0.00378180 -0.00735620
v 0.00933304 0.01776577 0.00123975
v 0.03598987 0.00980171 -0.02293171
v 0.03516709 0.01079230 -0.02188887
v 0.03404323 0.01203285 -0.01980320
v 0.03394783 0.01192175 -0.01771753
v 0.03384648 0.01179909 -0.01563185
v 0.03443375 0.01048679 -0.01146051
v 0.03432643 0.01035024 -0.00937483
v 0.03421911 0.01021137 -0.00728916
v 0.03536981 0.00894536 -0.00937483
v 0.03219198 0.00612635 0.04065152
v 0.03206975 0.00592730 0.04273719
v 0.02962526 0.00757057 0.05006684
v 0.03150335 0.00521213 0.04897931
v 0.03219496 0.00417063 0.04897931
v 0.03241556 0.00378180 0.04898676
v 0.00933304 0.02654220 -0.01123704
v 0.00952085 0.02651674 -0.01146051
v 0.00996801 0.02656303 -0.01351639
v 0.01095773 0.02634778 -0.01418678
v 0.01113063 0.02640333 -0.01563185
v 0.01137210 0.02648202 -0.01771008
v 0.01606731 0.02482024 -0.01771008
v 0.01606731 0.02496142 -0.01979575
v 0.01398353 0.02511880 -0.01146051
v 0.01606731 0.02509566 -0.02293171
v 0.01606731 0.02506326 -0.02188887
v 0.03019465 0.00378180 -0.00548654
v 0.00933304 0.01745331 0.00313920
v 0.03520287 0.01084322 -0.02293171
v 0.03412372 0.01213237 -0.02188887
v 0.03311313 0.01307436 -0.01980320
v 0.03302668 0.01296326 -0.01771753
v 0.03319958 0.01317619 -0.02188887
v 0.03292830 0.01284059 -0.01563185
v 0.03378983 0.01173197 -0.01453687
v 0.03339335 0.01125519 -0.00728916
v 0.03138112 0.00716785 0.04065152
v 0.02988760 0.00788302 0.04690854
v 0.02972364 0.00768398 0.04897931
v 0.02763986 0.00975773 0.05043183
v 0.02741330 0.00951934 0.05182477
v 0.02939274 0.00729515 0.05146722
v 0.03011416 0.00656609 0.05089366
v 0.03127082 0.00483025 0.05107243
v 0.02882633 0.00872548 0.04897931
v 0.03194753 0.00378180 0.05107243
v 0.00933304 0.02646582 -0.01025380
v 0.00933304 0.02320012 0.03086375
v 0.01398353 0.02496142 -0.00937483
v 0.01729551 0.02431337 -0.01771008
v 0.01587353 0.02459111 -0.01354618
v 0.01624021 0.02459574 -0.01561696
v 0.01717329 0.02426014 -0.01628735
v 0.01745351 0.02438281 -0.01979575
v 0.01758468 0.02444530 -0.02188887
v 0.01688710 0.02478089 -0.02293171
v 0.03012907 0.00378180 -0.00519604
v 0.02845966 0.00378180 0.00313175
v 0.00933304 0.01663399 0.00886735
v 0.03415949 0.01217866 -0.02293171
v 0.03324430 0.01322017 -0.02293171
v 0.03198330 0.01410429 -0.01771753
v 0.03188493 0.01400477 -0.01563185
v 0.03177164 0.01388673 -0.01353873
v 0.03170904 0.01381730 -0.01241396
v 0.03234997 0.01245177 -0.00728916
v 0.03223073 0.01231753 -0.00521094
v 0.03210851 0.01218560 -0.00312526
v 0.03034072 0.00837600 0.04065152
v 0.03018869 0.00823019 0.04273719
v 0.02899626 0.00892684 0.04690854
v 0.02915127 0.00910737 0.04482287
v 0.02778296 0.00991280 0.04897931
v 0.02678728 0.01095662 0.04897931
v 0.02574390 0.01201433 0.04897931
v 0.02556801 0.01184769 0.05045418
v 0.02649215 0.01068583 0.05113947
v 0.02992039 0.00590647 0.05238343
v 0.02532654 0.01161624 0.05184711
v 0.02602412 0.01022526 0.05245792
v 0.02800356 0.00812835 0.05246536
v 0.03134535 0.00378180 0.05232384
v 0.03194157 0.00378180 0.05108733
v 0.00933304 0.02306588 0.03230883
v 0.01353041 0.02029084 0.04481542
v 0.01512528 0.02010800 0.04008540
v 0.01509249 0.02426014 -0.00594092
v 0.01523559 0.02432263 -0.00728916
v 0.01545022 0.02441521 -0.00937483
v 0.01566188 0.02450779 -0.01146051
v 0.01833889 0.02382965 -0.01771008
v 0.01937631 0.02223730 -0.00520349
v 0.01956113 0.02233451 -0.00728916
v 0.01593018 0.02047137 0.03230883
v 0.01720310 0.02011031 0.02975388
v 0.02171049 0.02238311 -0.02188887
v 0.01764728 0.02447076 -0.02293171
v 0.02023486 0.02288766 -0.01771008
v 0.02727617 0.00378180 0.00952285
v 0.00933304 0.01655993 0.00947071
v 0.03220092 0.01432879 -0.02293171
v 0.03118437 0.01537030 -0.02293171
v 0.03113667 0.01532632 -0.02188887
v 0.03103532 0.01523837 -0.01980320
v 0.03093098 0.01514580 -0.01771753
v 0.03081770 0.01504396 -0.01563185
v 0.03011416 0.01430102 -0.00312526
v 0.02999194 0.01418067 -0.00103959
v 0.02986375 0.01405800 0.00104608
v 0.02965507 0.01384507 0.00447999
v 0.03115456 0.01322479 -0.00312526
v 0.02964017 0.01175048 0.02103130
v 0.02968787 0.00972302 0.03604814
v 0.02928840 0.00927170 0.04273719
v 0.02795288 0.01009565 0.04690854
v 0.02811088 0.01025997 0.04482287
v 0.02697508 0.01113947 0.04690854
v 0.02457233 0.01305815 0.04897931
v 0.02341269 0.01384507 0.05019347
v 0.02593469 0.01219255 0.04690854
v 0.02436962 0.01273644 0.05101284
v 0.02864747 0.00656609 0.05273352
v 0.03063287 0.00428172 0.05256220
v 0.02175223 0.01411586 0.05235363
v 0.02394034 0.01223421 0.05242812
v 0.02314141 0.01362288 0.05158640
v 0.02454252 0.01082470 0.05274842
v 0.02662630 0.00873243 0.05276332
v 0.03063883 0.00378180 0.05268883
v 0.00933304 0.02117265 0.04898676
v 0.00981300 0.02106387 0.04898676
v 0.01189677 0.02066578 0.04690109
v 0.01326509 0.02018901 0.04690109
v 0.01430847 0.01971917 0.04690109
v 0.01606731 0.01890679 0.04690109
v 0.01776056 0.01834438 0.04481542
v 0.01591825 0.01965668 0.04072601
v 0.01571852 0.02037416 0.03439450
v 0.01974000 0.02243172 -0.00937483
v 0.01991588 0.02252892 -0.01146051
v 0.02008580 0.02262382 -0.01354618
v 0.02041670 0.02262613 -0.01559461
v 0.02041670 0.02169340 -0.00520349
v 0.01796029 0.01844622 0.04273719
v 0.01838361 0.01962428 0.02813748
v 0.02134978 0.02242477 -0.01941586
v 0.02160019 0.02232062 -0.01980320
v 0.02264059 0.02172349 -0.01980320
v 0.02275387 0.02178135 -0.02188887
v 0.02176117 0.02241320 -0.02293171
v 0.02134978 0.02228359 -0.01749406
v 0.02134978 0.02229979 -0.01771008
v 0.02663524 0.00378180 0.01355267
v 0.00933304 0.01575682 0.01621190
v 0.03014397 0.01637709 -0.02293171
v 0.03009627 0.01633543 -0.02188887
v 0.02999790 0.01624285 -0.01980320
v 0.02989058 0.01614564 -0.01771753
v 0.02977730 0.01604149 -0.01563185
v 0.02968190 0.01595354 -0.01402291
v 0.02927350 0.01557860 -0.00728916
v 0.02914531 0.01546056 -0.00521094
v 0.02901414 0.01534253 -0.00312526
v 0.02887999 0.01522449 -0.00103959
v 0.02685882 0.01316925 0.03230138
v 0.02778892 0.01199582 0.03439450
v 0.02896048 0.01100986 0.03230138
v 0.02882932 0.01087562 0.03439450
v 0.02824502 0.01039884 0.04273719
v 0.02757428 0.01177131 0.03785821
v 0.02725829 0.01144266 0.04273719
v 0.02711817 0.01129916 0.04482287
v 0.02353491 0.01394459 0.04897931
v 0.02475716 0.01323174 0.04690854
v 0.02104571 0.01572210 0.04898676
v 0.01968634 0.01621508 0.05106498
v 0.02135276 0.01505090 0.05103519
v 0.02134978 0.01593966 0.04637222
v 0.02121861 0.01583319 0.04766087
v 0.02607778 0.01232910 0.04482287
v 0.02546964 0.01382656 0.03767944
v 0.02508508 0.01350484 0.04273719
v 0.02492410 0.01336829 0.04482287
v 0.02857294 0.00442753 0.05316556
v 0.01940612 0.01603224 0.05224190
v 0.02015437 0.01482872 0.05257710
v 0.02239614 0.01286374 0.05270373
v 0.02023486 0.01276885 0.05307617
v 0.02648917 0.00651518 0.05314321
v 0.02854313 0.00378180 0.05303148
v 0.00933304 0.02079076 0.05106498
v 0.00981300 0.02068661 0.05106498
v 0.01128863 0.02023992 0.05106498
v 0.01199515 0.02038805 0.04894207
v 0.01306238 0.02011031 0.04821953
v 0.01751313 0.01820551 0.04690109
v 0.01623723 0.01847168 0.04909849
v 0.01728060 0.01806896 0.04847279
v 0.01855353 0.01758061 0.04690109
v 0.02040776 0.01644189 0.04693833
v 0.02134978 0.01595354 0.04627538
v 0.01924812 0.01800878 0.03993643
v 0.02134382 0.02218176 -0.01625755
v 0.02209207 0.02055006 -0.00312526
v 0.02247365 0.02054080 -0.00534502
v 0.01832398 0.01845085 0.04063662
v 0.02145710 0.02224193 -0.01771753
v 0.02249750 0.02163786 -0.01771753
v 0.02391649 0.02041582 -0.01353873
v 0.02404468 0.02050609 -0.01563185
v 0.02416989 0.02059635 -0.01771753
v 0.02429211 0.02068198 -0.01980320
v 0.02507912 0.02037879 -0.02293171
v 0.02357963 0.02131152 -0.02293171
v 0.02280455 0.02179293 -0.02293171
v 0.02228286 0.02211232 -0.02293171
v 0.02135276 0.02218638 -0.01636929
v 0.02631925 0.00378180 0.01562344
v 0.02604200 0.00378180 0.01771657
v 0.00933304 0.01561795 0.01769422
v 0.02894856 0.01742091 -0.02293171
v 0.02890086 0.01737694 -0.02188887
v 0.02880249 0.01728436 -0.01980320
v 0.02868324 0.01718946 -0.01771753
v 0.02823012 0.01649513 -0.00728916
v 0.02810193 0.01638403 -0.00521094
v 0.02797076 0.01627294 -0.00312526
v 0.02783960 0.01615490 -0.00103959
v 0.02568726 0.01401634 0.03439450
v 0.02555013 0.01389830 0.03647272
v 0.02673063 0.01303732 0.03439450
v 0.02766073 0.01186158 0.03647272
v 0.02371974 0.01409503 0.04690854
v 0.02136171 0.01594660 0.04626794
v 0.02000233 0.01640486 0.04898676
v 0.01815108 0.01705060 0.05106498
v 0.01804376 0.01753663 0.04909849
v 0.01704510 0.01794629 0.04986572
v 0.02454252 0.01517126 0.03230138
v 0.02340673 0.01592114 0.03363472
v 0.02420864 0.01447923 0.04065152
v 0.02404766 0.01435657 0.04273719
v 0.02388370 0.01423159 0.04482287
v 0.00933304 0.01901789 0.05288995
v 0.00933304 0.01716401 0.05267393
v 0.01677084 0.01776808 0.05106498
v 0.01533098 0.01811756 0.05226425
v 0.01815108 0.01633312 0.05243557
v 0.01604048 0.01699505 0.05263669
v 0.01815108 0.01485186 0.05299423
v 0.01398353 0.01693487 0.05296444
v 0.02674554 0.00378180 0.05255475
v 0.00933304 0.02028621 0.05233129
v 0.00981300 0.02023067 0.05227915
v 0.01092494 0.02008717 0.05214507
v 0.01233201 0.01980018 0.05106498
v 0.01275532 0.01997839 0.04961246
v 0.01384938 0.01961733 0.04894207
v 0.02149287 0.01603686 0.04482287
v 0.02135276 0.01609241 0.04509102
v 0.02040478 0.01743480 0.03855840
v 0.02057470 0.01754126 0.03648017
v 0.02338288 0.02007097 -0.00612714
v 0.02347231 0.02012883 -0.00728916
v 0.02362435 0.02022835 -0.00937483
v 0.02377340 0.02032556 -0.01146051
v 0.02495391 0.01970991 -0.01353873
v 0.02548752 0.02008948 -0.02255182
v 0.02550541 0.02010337 -0.02293171
v 0.00933304 0.01545130 0.01979479
v 0.02582737 0.00378180 0.01980224
v 0.00933304 0.01529392 0.02188791
v 0.00933304 0.01534484 0.02120262
v 0.02790518 0.01827958 -0.02293171
v 0.02786046 0.01824486 -0.02188887
v 0.02775911 0.01816154 -0.01980320
v 0.02763986 0.01806433 -0.01771753
v 0.02698701 0.01753895 -0.00728916
v 0.02685584 0.01742785 -0.00521094
v 0.02671573 0.01731445 -0.00312526
v 0.02253327 0.01527078 0.04482287
v 0.01572746 0.01830041 0.05106498
v 0.02350212 0.01599289 0.03230138
v 0.02567533 0.01814997 -0.00312526
v 0.02214573 0.01649744 0.03647272
v 0.02198177 0.01639098 0.03856585
v 0.02182079 0.01627757 0.04065152
v 0.02166280 0.01615953 0.04273719
v 0.02286417 0.01552305 0.04065152
v 0.02451271 0.01940440 -0.00728916
v 0.02270319 0.01539807 0.04273719
v 0.00981300 0.01901789 0.05286015
v 0.00933304 0.01610167 0.05163854
v 0.01398353 0.01840456 0.05248771
v 0.01398353 0.01908269 0.05106498
v 0.00933304 0.01597206 0.05137039
v 0.02577371 0.00378180 0.05107243
v 0.01172983 0.01906649 0.05256220
v 0.02135276 0.01680758 0.03856585
v 0.02134978 0.01702745 0.03648017
v 0.02466176 0.01950855 -0.00937483
v 0.02481082 0.01961039 -0.01146051
v 0.02633415 0.01866841 -0.01353873
v 0.02581246 0.01825875 -0.00521094
v 0.02594363 0.01836290 -0.00728916
v 0.02620298 0.01857120 -0.01146051
v 0.02569322 0.00378180 0.02188046
v 0.00933304 0.01517126 0.02397358
v 0.00933304 0.01563183 0.05064040
v 0.00933304 0.01529624 0.04894952
v 0.02549647 0.00378180 0.04897931
v 0.00933304 0.01508794 0.02603691
v 0.02524904 0.00378180 0.03164588
v 0.02546069 0.00378180 0.04859942
v 0.00933304 0.01516431 0.04690109
v 0.00933304 0.01502544 0.02813748
v 0.02522817 0.00378180 0.03230138
v 0.02519836 0.00378180 0.04482287
v 0.00933304 0.01507173 0.04481542
v 0.00933304 0.01499073 0.03022315
v 0.02520134 0.00378180 0.03367196
v 0.00933304 0.01505553 0.04433124
v 0.02513576 0.00378180 0.04273719
v 0.00933304 0.01497453 0.03182465
v 0.02519240 0.00378180 0.03439450
v 0.00933304 0.01496990 0.03230883
v 0.00933304 0.01501619 0.04225302
v 0.00933304 0.01497221 0.03439450
f 1 2 3
f 1 3 4
f 1 4 5
f 1 5 12
f 1 12 23
f 1 23 33
f 1 33 54
f 1 54 85
f 1 85 122
f 1 122 121
f 1 121 168
f 1 168 229
f 1 229 291
f 1 291 336
f 1 336 350
f 1 350 353
f 1 353 357
f 1 357 362
f 1 362 364
f 1 364 360
f 1 360 356
f 1 356 352
f 1 352 346
f 1 346 310
f 1 310 258
f 1 258 257
f 1 257 192
f 1 192 138
f 1 138 97
f 1 97 96
f 1 96 66
f 1 66 38
f 1 38 26
f 1 26 14
f 1 14 6
f 1 6 13
f 1 13 24
f 1 24 37
f 1 37 64
f 1 64 95
f 1 95 136
f 1 136 189
f 1 189 255
f 1 255 254
f 1 254 253
f 1 253 252
f 1 252 308
f 1 308 313
f 1 313 260
f 1 260 194
f 1 194 141
f 1 141 140
f 1 140 100
f 1 100 99
f 1 99 68
f 1 68 40
f 1 40 27
f 1 27 15
f 1 15 7
f 1 7 2
f 2 7 3
f 3 7 8
f 3 8 4
f 4 8 9
f 4 9 10
f 4 10 5
f 5 10 11
f 5 11 12
f 6 14 13
f 7 15 16
f 7 16 8
f 8 16 17
f 8 17 18
f 8 18 19
f 8 19 20
f 8 20 9
f 9 20 21
f 9 21 11
f 9 11 10
f 11 22 12
f 11 21 23
f 11 23 22
f 12 22 23
f 13 14 25
f 13 25 39
f 13 39 67
f 13 67 98
f 13 98 139
f 13 139 193
f 13 193 259
f 13 259 309
f 13 309 312
f 13 312 311
f 13 311 347
f 13 347 351
f 13 351 355
f 13 355 359
f 13 359 363
f 13 363 365
f 13 365 367
f 13 367 366
f 13 366 361
f 13 361 358
f 13 358 354
f 13 354 349
f 13 349 348
f 13 348 335
f 13 335 332
f 13 332 284
f 13 284 283
f 13 283 292
f 13 292 230
f 13 230 169
f 13 169 123
f 13 123 87
f 13 87 86
f 13 86 55
f 13 55 34
f 13 34 24
f 14 26 25
f 15 27 17
f 15 17 16
f 17 27 28
f 17 28 29
f 17 29 18
f 18 29 30
f 18 30 19
f 19 30 31
f 19 31 20
f 20 31 23
f 20 23 21
f 23 32 33
f 23 31 32
f 24 34 35
f 24 35 36
f 24 36 37
f 25 26 38
f 25 38 39
f 27 40 28
f 28 40 41
f 28 41 29
f 29 41 42
f 29 42 43
f 29 43 44
f 29 44 45
f 29 45 30
f 30 45 46
f 30 46 47
f 30 47 48
f 30 48 31
f 31 48 32
f 32 49 33
f 32 48 49
f 33 49 50
f 33 50 51
f 33 51 52
f 33 52 53
f 33 53 54
f 34 55 56
f 34 56 57
f 34 57 58
f 34 58 59
f 34 59 60
f 34 60 35
f 35 61 62
f 35 62 36
f 35 60 63
f 35 63 61
f 36 62 37
f 37 62 65
f 37 65 64
f 38 66 39
f 39 66 67
f 40 68 41
f 41 69 42
f 41 68 69
f 42 70 71
f 42 71 43
f 42 69 72
f 42 72 70
f 43 71 73
f 43 73 44
f 44 73 74
f 44 74 45
f 45 74 46
f 46 74 47
f 47 74 75
f 47 75 76
f 47 76 49
f 47 49 48
f 49 76 50
f 50 76 77
f 50 77 78
f 50 78 51
f 51 79 80
f 51 80 81
f 51 81 82
f 51 82 83
f 51 83 52
f 51 78 84
f 51 84 79
f 52 83 53
f 53 83 85
f 53 85 54
f 55 86 56
f 56 86 87
f 56 87 57
f 57 87 58
f 58 88 59
f 58 87 88
f 59 88 60
f 60 88 63
f 61 89 62
f 61 63 90
f 61 90 91
f 61 91 92
f 61 92 89
f 62 89 93
f 62 93 94
f 62 94 95
f 62 95 65
f 63 88 90
f 64 65 95
f 66 96 67
f 67 96 97
f 67 97 98
f 68 99 69
f 69 99 100
f 69 100 72
f 70 101 71
f 70 72 101
f 71 101 102
f 71 102 73
f 72 100 101
f 73 102 103
f 73 103 74
f 74 103 104
f 74 104 105
f 74 105 75
f 75 105 106
f 75 106 107
f 75 107 108
f 75 108 76
f 76 108 109
f 76 109 77
f 77 110 78
f 77 109 111
f 77 111 110
f 78 110 84
f 79 84 112
f 79 112 113
f 79 113 114
f 79 114 115
f 79 115 116
f 79 116 80
f 80 117 81
f 80 116 118
f 80 118 119
f 80 119 120
f 80 120 117
f 81 117 83
f 81 83 82
f 83 117 121
f 83 121 122
f 83 122 85
f 84 110 112
f 87 123 124
f 87 124 125
f 87 125 126
f 87 126 88
f 88 126 127
f 88 127 128
f 88 128 129
f 88 129 90
f 89 92 130
f 89 130 93
f 90 92 91
f 90 129 92
f 92 131 132
f 92 132 130
f 92 129 133
f 92 133 134
f 92 134 131
f 93 130 94
f 94 135 136
f 94 136 95
f 94 130 137
f 94 137 135
f 97 138 98
f 98 138 139
f 100 140 101
f 101 140 141
f 101 141 142
f 101 142 143
f 101 143 144
f 101 144 102
f 102 145 103
f 102 144 145
f 103 145 146
f 103 146 147
f 103 147 104
f 104 147 148
f 104 148 149
f 104 149 150
f 104 150 107
f 104 107 106
f 104 106 105
f 107 150 151
f 107 151 152
f 107 152 108
f 108 153 109
f 108 152 153
f 109 153 111
f 110 111 154
f 110 154 112
f 111 153 155
f 111 155 154
f 112 154 156
f 112 156 113
f 113 156 114
f 114 157 158
f 114 158 115
f 114 156 159
f 114 159 157
f 115 158 160
f 115 160 118
f 115 118 116
f 117 120 161
f 117 161 162
f 117 162 121
f 118 163 164
f 118 164 119
f 118 160 165
f 118 165 163
f 119 166 167
f 119 167 120
f 119 164 166
f 120 167 161
f 121 162 168
f 123 169 170
f 123 170 171
f 123 171 172
f 123 172 124
f 124 172 125
f 125 172 173
f 125 173 174
f 125 174 175
f 125 175 176
f 125 176 134
f 125 134 177
f 125 177 127
f 125 127 126
f 127 177 133
f 127 133 128
f 128 133 129
f 130 132 178
f 130 178 179
f 130 179 180
f 130 180 181
f 130 181 137
f 131 182 132
f 131 134 182
f 132 182 178
f 133 177 134
f 134 176 175
f 134 175 183
f 134 183 184
f 134 184 182
f 135 137 185
f 135 185 186
f 135 186 187
f 135 187 188
f 135 188 255
f 135 255 189
f 135 189 136
f 137 181 190
f 137 190 191
f 137 191 185
f 138 192 193
f 138 193 139
f 141 194 195
f 141 195 142
f 142 195 143
f 143 195 196
f 143 196 144
f 144 196 197
f 144 197 145
f 145 198 199
f 145 199 146
f 145 197 198
f 146 200 147
f 146 199 200
f 147 200 201
f 147 201 202
f 147 202 148
f 148 202 203
f 148 203 204
f 148 204 149
f 149 151 150
f 149 204 205
f 149 205 151
f 151 205 206
f 151 206 152
f 152 206 207
f 152 207 153
f 153 207 208
f 153 208 155
f 154 155 156
f 155 208 209
f 155 209 210
f 155 210 211
f 155 211 156
f 156 211 159
f 157 212 158
f 157 159 213
f 157 213 212
f 158 214 215
f 158 215 216
f 158 216 165
f 158 165 160
f 158 212 217
f 158 217 218
f 158 218 214
f 159 211 210
f 159 210 219
f 159 219 220
f 159 220 221
f 159 221 222
f 159 222 213
f 161 168 162
f 161 167 223
f 161 223 168
f 163 165 224
f 163 224 225
f 163 225 226
f 163 226 164
f 164 226 166
f 165 215 224
f 165 216 215
f 166 226 227
f 166 227 228
f 166 228 223
f 166 223 167
f 168 223 229
f 169 230 231
f 169 231 170
f 170 231 232
f 170 232 233
f 170 233 171
f 171 233 234
f 171 234 172
f 172 234 173
f 173 234 174
f 174 235 175
f 174 234 236
f 174 236 237
f 174 237 235
f 175 235 238
f 175 238 239
f 175 239 240
f 175 240 241
f 175 241 183
f 178 182 179
f 179 182 180
f 180 242 181
f 180 182 242
f 181 242 190
f 182 243 244
f 182 244 242
f 182 184 241
f 182 241 243
f 183 241 245
f 183 245 184
f 184 245 241
f 185 191 186
f 186 191 190
f 186 190 246
f 186 246 187
f 187 246 247
f 187 247 248
f 187 248 249
f 187 249 250
f 187 250 251
f 187 251 188
f 188 251 252
f 188 252 253
f 188 253 254
f 188 254 255
f 190 242 256
f 190 256 246
f 192 257 193
f 193 257 258
f 193 258 259
f 194 260 195
f 195 261 262
f 195 262 196
f 195 260 261
f 196 262 197
f 197 263 198
f 197 262 263
f 198 263 264
f 198 264 199
f 199 264 265
f 199 265 266
f 199 266 200
f 200 266 201
f 201 266 267
f 201 267 202
f 202 267 203
f 203 267 268
f 203 268 204
f 204 268 269
f 204 269 270
f 204 270 205
f 205 270 271
f 205 271 206
f 206 271 207
f 207 271 209
f 207 209 208
f 209 271 270
f 209 270 219
f 209 219 210
f 212 213 272
f 212 272 273
f 212 273 217
f 213 222 272
f 214 218 274
f 214 274 215
f 215 275 224
f 215 274 276
f 215 276 277
f 215 277 275
f 217 273 240
f 217 240 274
f 217 274 218
f 219 270 220
f 220 270 269
f 220 269 278
f 220 278 279
f 220 279 280
f 220 280 281
f 220 281 282
f 220 282 221
f 221 282 222
f 222 282 272
f 223 228 227
f 223 227 283
f 223 283 284
f 223 284 229
f 224 275 285
f 224 285 286
f 224 286 287
f 224 287 225
f 225 287 288
f 225 288 289
f 225 289 226
f 226 289 227
f 227 289 290
f 227 290 283
f 229 284 291
f 230 292 293
f 230 293 294
f 230 294 231
f 231 294 232
f 232 294 295
f 232 295 296
f 232 296 233
f 233 296 234
f 234 296 297
f 234 297 236
f 235 237 276
f 235 276 274
f 235 274 238
f 236 277 237
f 236 297 277
f 237 277 276
f 238 274 239
f 239 274 240
f 240 273 298
f 240 298 299
f 240 299 241
f 241 299 298
f 241 298 300
f 241 300 301
f 241 301 302
f 241 302 244
f 241 244 243
f 242 247 256
f 242 244 247
f 244 302 303
f 244 303 304
f 244 304 247
f 246 256 247
f 247 304 305
f 247 305 248
f 248 306 249
f 248 305 306
f 249 306 250
f 250 306 307
f 250 307 251
f 251 307 308
f 251 308 252
f 258 309 259
f 258 310 311
f 258 311 312
f 258 312 309
f 260 313 314
f 260 314 261
f 261 314 315
f 261 315 262
f 262 315 263
f 263 315 316
f 263 316 317
f 263 317 264
f 264 317 265
f 265 317 266
f 266 317 318
f 266 318 267
f 267 318 319
f 267 319 268
f 268 319 278
f 268 278 269
f 272 282 320
f 272 320 273
f 273 320 298
f 275 277 285
f 277 297 321
f 277 321 285
f 278 322 279
f 278 319 323
f 278 323 322
f 279 324 325
f 279 325 326
f 279 326 327
f 279 327 328
f 279 328 280
f 279 322 329
f 279 329 302
f 279 302 324
f 280 328 281
f 281 328 330
f 281 330 282
f 282 330 320
f 283 290 331
f 283 331 292
f 284 332 291
f 285 321 286
f 286 294 333
f 286 333 287
f 286 321 334
f 286 334 294
f 287 333 288
f 288 333 290
f 288 290 289
f 290 333 331
f 291 332 335
f 291 335 336
f 292 331 337
f 292 337 293
f 293 337 294
f 294 337 333
f 294 334 295
f 295 334 296
f 296 334 321
f 296 321 297
f 298 320 330
f 298 330 327
f 298 327 300
f 300 338 301
f 300 327 326
f 300 326 338
f 301 338 325
f 301 325 339
f 301 339 302
f 302 329 303
f 302 339 325
f 302 325 324
f 303 329 340
f 303 340 341
f 303 341 304
f 304 341 305
f 305 341 306
f 306 342 316
f 306 316 315
f 306 315 307
f 306 341 343
f 306 343 344
f 306 344 345
f 306 345 342
f 307 315 314
f 307 314 308
f 308 314 313
f 310 346 347
f 310 347 311
f 316 342 345
f 316 345 344
f 316 344 317
f 317 344 343
f 317 343 318
f 318 343 323
f 318 323 319
f 322 323 329
f 323 343 341
f 323 341 340
f 323 340 329
f 325 338 326
f 327 330 328
f 331 333 337
f 335 348 336
f 336 348 349
f 336 349 350
f 346 351 347
f 346 352 351
f 349 353 350
f 349 354 353
f 351 352 355
f 352 356 355
f 353 354 357
f 354 358 357
f 355 356 359
f 356 360 359
f 357 358 361
f 357 361 362
f 359 360 363
f 360 364 365
f 360 365 363
f 361 366 362
f 362 366 367
f 362 367 365
f 362 365 364

