# https://github.com/mikedh/trimesh
v -0.02380699 -0.04407570 0.03459106
v -0.02381376 -0.04407570 0.03647800
v -0.02380924 -0.04407570 0.03438961
v -0.03489026 -0.02623410 0.03158270
v -0.03487672 -0.02623410 0.03321447
v -0.03486317 -0.02623410 0.04064137
v -0.03486543 -0.02623410 0.04160163
v -0.03486994 -0.02623410 0.04272976
v -0.02390405 -0.04407570 0.04690656
v -0.02383407 -0.04407570 0.03230793
v -0.03490832 -0.02623410 0.03066273
v -0.03488575 -0.02623410 0.04395863
v -0.02395371 -0.04407570 0.04898152
v -0.03489478 -0.02623410 0.04465700
v -0.03490606 -0.02623410 0.04532179
v -0.02392888 -0.04407570 0.03022625
v -0.03497378 -0.02623410 0.02912497
v -0.03500087 -0.02623410 0.04689984
v -0.03520628 -0.02623410 0.04909568
v -0.03552230 -0.02623410 0.05106992
v -0.02403497 -0.04407570 0.04929042
v -0.02453834 -0.04407570 0.02188609
v -0.03511599 -0.02623410 0.02604945
v -0.02445483 -0.04407570 0.05074088
v -0.03641393 -0.02623410 0.05268826
v -0.02467604 -0.04407570 0.02038862
v -0.03615885 -0.02623410 0.01355265
v -0.03566225 -0.02623410 0.01916647
v -0.02505075 -0.04407570 0.05166085
v -0.03814075 -0.02623410 0.05298372
v -0.03605502 -0.03101759 0.05307774
v -0.02760148 -0.04341206 0.05274869
v -0.02603718 -0.04407570 0.05248009
v -0.02605299 -0.04403204 0.05247338
v -0.02473247 -0.04407570 0.01979769
v -0.03636427 -0.02623410 0.01147097
v -0.03814075 -0.02684710 0.05295015
v -0.03950641 -0.02623410 0.05241294
v -0.03188807 -0.03935508 0.05301730
v -0.02980234 -0.04143858 0.05293672
v -0.03605502 -0.03310109 0.05293000
v -0.03397155 -0.03717553 0.05298372
v -0.02768500 -0.04407570 0.05274198
v -0.02498077 -0.04407570 0.01759514
v -0.03663063 -0.02623410 0.00942286
v -0.03827168 -0.02888693 0.05266811
v -0.03775927 -0.03101759 0.05264797
v -0.03943418 -0.02684710 0.05235922
v -0.04019940 -0.02623410 0.05106992
v -0.03397155 -0.03726983 0.05297701
v -0.02990843 -0.04362337 0.05272855
v -0.03608662 -0.03501693 0.05258082
v -0.02973010 -0.04407570 0.05264797
v -0.02561056 -0.04407570 0.01355937
v -0.03692182 -0.02623410 0.00750906
v -0.03925360 -0.02816042 0.05219134
v -0.03735522 -0.03310109 0.05233907
v -0.03541847 -0.03717553 0.05244652
v -0.04077726 -0.02623410 0.04902181
v -0.04004590 -0.02684710 0.05106992
v -0.03538686 -0.03726983 0.05243980
v -0.03393768 -0.03924680 0.05256067
v -0.03191064 -0.04142461 0.05267483
v -0.03123120 -0.04299466 0.05243980
v -0.03036215 -0.04407570 0.05217120
v -0.02598978 -0.04407570 0.01147097
v -0.03875474 -0.02623410 -0.00312095
v -0.03905270 -0.02955058 0.05182873
v -0.03712723 -0.03420833 0.05214434
v -0.04110909 -0.02623410 0.04716845
v -0.04063280 -0.02684710 0.04898152
v -0.03932357 -0.03040284 0.05043870
v -0.03950190 -0.02888693 0.05111021
v -0.03511599 -0.03848012 0.05222491
v -0.03322213 -0.04072080 0.05236593
v -0.03105287 -0.04407570 0.05150640
v -0.02723806 -0.04407570 0.00537366
v -0.03906173 -0.02623410 -0.00477286
v -0.03882245 -0.03106649 0.05111021
v -0.03803918 -0.03310109 0.05106992
v -0.03734844 -0.03467463 0.05106992
v -0.04121518 -0.02623410 0.04639621
v -0.04103008 -0.02674930 0.04687970
v -0.04045447 -0.02893234 0.04689984
v -0.04008428 -0.02893234 0.04898152
v -0.03908882 -0.03179301 0.04948516
v -0.03617240 -0.03717553 0.05106992
v -0.03612725 -0.03726983 0.05106992
v -0.03532592 -0.03883989 0.05106992
v -0.03463745 -0.03988251 0.05106992
v -0.03348623 -0.04142461 0.05090876
v -0.03296931 -0.04252662 0.05010295
v -0.03142081 -0.04407570 0.05068045
v -0.02780690 -0.04407570 0.00313081
v -0.03915879 -0.02623410 -0.00512204
v -0.03707306 -0.03617482 0.04992835
v -0.04136416 -0.02623410 0.04523450
v -0.04113392 -0.02739024 0.04481816
v -0.04121292 -0.02773429 0.04342142
v -0.04130321 -0.02801721 0.04203140
v -0.04005719 -0.03101759 0.04481816
v -0.03979534 -0.03101759 0.04689984
v -0.03944321 -0.03106649 0.04886065
v -0.03920619 -0.03211959 0.04808841
v -0.03873668 -0.03292819 0.04886065
v -0.03763061 -0.03536098 0.04913597
v -0.03491283 -0.04023878 0.04945158
v -0.03674124 -0.03717553 0.04909568
v -0.03311829 -0.04272571 0.04898152
v -0.03226955 -0.04376833 0.04898152
v -0.03200771 -0.04407570 0.04898152
v -0.02856083 -0.04407570 0.00104913
v -0.03935066 -0.02623410 -0.00578013
v -0.03724461 -0.03649617 0.04853833
v -0.04139350 -0.02623410 0.04496589
v -0.04138899 -0.02634761 0.04481816
v -0.04148831 -0.02696236 0.04272976
v -0.04174112 -0.02684710 0.04064137
v -0.04195557 -0.02684710 0.03855969
v -0.04183367 -0.02893234 0.03438961
v -0.04148605 -0.02864942 0.03855969
v -0.04131676 -0.03013389 0.03594080
v -0.03945450 -0.03275180 0.04481816
v -0.03979309 -0.03310109 0.04064137
v -0.03930551 -0.03236409 0.04689984
v -0.03888115 -0.03340672 0.04689984
v -0.03812495 -0.03518284 0.04689984
v -0.03547941 -0.03946860 0.04885394
v -0.03503247 -0.04042565 0.04806827
v -0.03437334 -0.04160624 0.04690656
v -0.03333273 -0.04300689 0.04690656
v -0.03250657 -0.04405126 0.04690656
v -0.03248625 -0.04407570 0.04690656
v -0.02893328 -0.04407570 0.00025003
v -0.03910461 -0.02758584 -0.00645835
v -0.04479975 -0.02623410 -0.01552374
v -0.03738231 -0.03674765 0.04689984
v -0.04186076 -0.02623410 0.04064137
v -0.04201200 -0.02623410 0.03917076
v -0.04344537 -0.02623410 0.02474001
v -0.04348375 -0.02640699 0.02396777
v -0.04356050 -0.02697109 0.02189952
v -0.04338894 -0.02803293 0.02121458
v -0.04156054 -0.02910349 0.03657873
v -0.04341378 -0.03017231 0.01522471
v -0.04156506 -0.03116778 0.03023968
v -0.04130321 -0.03216849 0.02956145
v -0.04182916 -0.03101759 0.02813785
v -0.03951544 -0.03323906 0.04268947
v -0.03913396 -0.03402495 0.04336770
v -0.03903916 -0.03379442 0.04481816
v -0.03921296 -0.03421357 0.04197096
v -0.04137770 -0.03236933 0.02813785
v -0.04148379 -0.03265575 0.02604945
v -0.04132578 -0.03429041 0.02144961
v -0.03840711 -0.03518284 0.04481816
v -0.03512727 -0.04056362 0.04690656
v -0.03453587 -0.04183503 0.04481816
v -0.03349526 -0.04321296 0.04481816
v -0.03280453 -0.04407570 0.04481816
v -0.03252463 -0.04407570 0.04665810
v -0.03679767 -0.04407570 -0.01552374
v -0.04686742 -0.02623410 -0.01552374
v -0.03921071 -0.03628485 0.03361066
v -0.03712949 -0.03837009 0.04194410
v -0.04551982 -0.02623410 0.00300994
v -0.04399164 -0.02684710 0.01772273
v -0.04544308 -0.02792639 0.00009559
v -0.04410451 -0.02893234 0.01147097
v -0.04363273 -0.02912445 0.01580892
v -0.04349504 -0.03043253 0.01355265
v -0.04339572 -0.03218421 0.00880507
v -0.04547016 -0.03008848 -0.00588085
v -0.03874345 -0.03501868 0.04268947
v -0.03983597 -0.03518284 0.03230793
v -0.03955382 -0.03532431 0.03433589
v -0.04159214 -0.03293343 0.02396777
v -0.04164858 -0.03329669 0.02204054
v -0.04341152 -0.03428867 0.00063280
v -0.04151314 -0.03474449 0.01772273
v -0.03528528 -0.04079240 0.04481816
v -0.03502344 -0.04249693 0.03761957
v -0.03363069 -0.04341031 0.04272976
v -0.03311152 -0.04407570 0.04272976
v -0.03961927 -0.04407570 -0.01552374
v -0.04646111 -0.02893234 -0.01552374
v -0.04658301 -0.02684710 -0.01146110
v -0.04647466 -0.02684710 -0.00937942
v -0.04650851 -0.02623410 -0.00876834
v -0.04130999 -0.03631803 0.01296844
v -0.03928068 -0.03642107 0.03230793
v -0.03896241 -0.03717553 0.03158270
v -0.03888340 -0.03717553 0.03230793
v -0.03872991 -0.03746544 0.03230793
v -0.03720624 -0.03850806 0.04064808
v -0.03659226 -0.03955069 0.04064808
v -0.04622184 -0.02623410 -0.00459827
v -0.04616992 -0.02684710 -0.00520934
v -0.04597579 -0.02684710 -0.00312095
v -0.04558529 -0.02689425 0.00089469
v -0.04549725 -0.02814645 -0.00103926
v -0.04411805 -0.03101759 0.00521249
v -0.04359661 -0.03075213 0.01147097
v -0.04553562 -0.03029806 -0.00729102
v -0.04401647 -0.03310109 -0.00103926
v -0.04357178 -0.03266448 0.00521249
v -0.04566203 -0.02906682 -0.00519591
v -0.04588776 -0.02893234 -0.00729102
v -0.04606609 -0.02893234 -0.00937942
v -0.04161923 -0.03498724 0.01564105
v -0.04372528 -0.03330018 0.00121701
v -0.04358984 -0.03472353 -0.00312095
v -0.04338443 -0.03630056 -0.00796253
v -0.04165986 -0.03536098 0.01361980
v -0.04367336 -0.03294042 0.00313081
v -0.03541847 -0.04099499 0.04272976
v -0.03521757 -0.04276238 0.03438961
v -0.03454264 -0.04397616 0.03230793
v -0.03441172 -0.04380675 0.03438961
v -0.03427854 -0.04363385 0.03647800
v -0.03332822 -0.04407570 0.04115843
v -0.03554713 -0.04118710 0.04064808
v -0.03650874 -0.04159751 0.03022625
v -0.03663289 -0.04177565 0.02813785
v -0.03954253 -0.04407570 -0.01442246
v -0.04095333 -0.04205158 -0.01552374
v -0.04598934 -0.03090407 -0.01552374
v -0.04636405 -0.02893234 -0.01354950
v -0.04634373 -0.02684710 -0.00729102
v -0.04638888 -0.02623410 -0.00667995
v -0.04173887 -0.03747242 0.00331884
v -0.04133481 -0.03844170 0.00274805
v -0.03939129 -0.03663413 0.03021953
v -0.03921522 -0.03837883 0.02326940
v -0.03757192 -0.03914027 0.03438961
v -0.03745228 -0.03893768 0.03647800
v -0.03732813 -0.03872462 0.03856640
v -0.03670964 -0.03976724 0.03856640
v -0.04562366 -0.03057749 -0.00937942
v -0.04548145 -0.03219818 -0.01400612
v -0.04397810 -0.03518284 -0.00937942
v -0.04368916 -0.03496105 -0.00520934
v -0.04622861 -0.02893234 -0.01146110
v -0.04371851 -0.03535050 -0.00727759
v -0.04344763 -0.03644028 -0.00937942
v -0.04173661 -0.03919790 -0.00520934
v -0.04163503 -0.03899706 -0.00312095
v -0.04142285 -0.03860411 0.00104913
v -0.03712723 -0.04044312 0.03154241
v -0.03534172 -0.04293353 0.03230793
v -0.03472096 -0.04407570 0.03022625
v -0.03461939 -0.04407570 0.03105220
v -0.03445912 -0.04407570 0.03230793
v -0.03546813 -0.04309770 0.03022625
v -0.03743197 -0.04091116 0.02604945
v -0.03713626 -0.04253884 0.01911947
v -0.03950641 -0.04407570 -0.01395912
v -0.03978406 -0.04337189 -0.01146110
v -0.04090367 -0.04191361 -0.01354950
v -0.04158989 -0.04106659 -0.01552374
v -0.04595548 -0.03102632 -0.01552374
v -0.03962153 -0.03911407 0.01564776
v -0.03951093 -0.03891847 0.01772273
v -0.03940032 -0.03871763 0.01979769
v -0.03928971 -0.03851330 0.02188609
v -0.03870282 -0.03955592 0.02188609
v -0.04554240 -0.03238155 -0.01552374
v -0.04414739 -0.03518284 -0.01146110
v -0.04363725 -0.03682624 -0.01354950
v -0.04354244 -0.03663588 -0.01146110
v -0.04316096 -0.03717553 -0.01013151
v -0.04174564 -0.03954021 -0.00721044
v -0.04131224 -0.04047629 -0.00784166
v -0.03919716 -0.04042565 0.01268640
v -0.03656517 -0.04385390 0.01564776
v -0.03639361 -0.04407570 0.01564776
v -0.03721301 -0.04265061 0.01772273
v -0.03766221 -0.04126569 0.02188609
v -0.03859447 -0.04156956 0.01147097
v -0.03920168 -0.04251264 0.00020303
v -0.03969151 -0.04323916 -0.00937270
v -0.03890597 -0.04407570 -0.00729102
v -0.04082692 -0.04176866 -0.01146110
v -0.04162375 -0.04100896 -0.01552374
v -0.04137770 -0.04058632 -0.00937270
v -0.03963282 -0.03950527 0.01345192
v -0.04372528 -0.03700088 -0.01552374
v -0.04073438 -0.04162720 -0.00937270
v -0.03948610 -0.04294401 -0.00520934
v -0.03938000 -0.04278159 -0.00312095
v -0.03732813 -0.04281128 0.01564776
v -0.03744100 -0.04407570 0.00634735
v -0.03668255 -0.04400934 0.01355937
v -0.03663063 -0.04407570 0.01355937
v -0.03926714 -0.04261394 -0.00103255
v -0.03867122 -0.04382422 -0.00312095
v -0.03959445 -0.04309595 -0.00729102
v -0.03882471 -0.04407570 -0.00640463
v -0.03877731 -0.04398664 -0.00520934
v -0.03848612 -0.04407570 -0.00312095
v -0.03871185 -0.04407570 -0.00520934
f 1 2 9
f 1 9 13
f 1 13 21
f 1 21 24
f 1 24 29
f 1 29 33
f 1 33 43
f 1 43 53
f 1 53 65
f 1 65 76
f 1 76 93
f 1 93 111
f 1 111 133
f 1 133 161
f 1 161 160
f 1 160 184
f 1 184 221
f 1 221 253
f 1 253 252
f 1 252 251
f 1 251 276
f 1 276 294
f 1 294 292
f 1 292 300
f 1 300 301
f 1 301 298
f 1 298 282
f 1 282 257
f 1 257 225
f 1 225 185
f 1 185 162
f 1 162 134
f 1 134 112
f 1 112 94
f 1 94 77
f 1 77 66
f 1 66 54
f 1 54 44
f 1 44 35
f 1 35 26
f 1 26 22
f 1 22 16
f 1 16 10
f 1 10 3
f 1 3 4
f 1 4 5
f 1 5 6
f 1 6 7
f 1 7 2
f 2 7 8
f 2 8 9
f 3 10 4
f 4 11 17
f 4 17 23
f 4 23 28
f 4 28 27
f 4 27 36
f 4 36 45
f 4 45 55
f 4 55 67
f 4 67 78
f 4 78 95
f 4 95 113
f 4 113 136
f 4 136 163
f 4 163 189
f 4 189 230
f 4 230 197
f 4 197 166
f 4 166 140
f 4 140 139
f 4 139 138
f 4 138 115
f 4 115 97
f 4 97 82
f 4 82 70
f 4 70 59
f 4 59 49
f 4 49 38
f 4 38 30
f 4 30 25
f 4 25 20
f 4 20 19
f 4 19 18
f 4 18 15
f 4 15 14
f 4 14 12
f 4 12 8
f 4 8 7
f 4 7 6
f 4 6 5
f 4 10 11
f 8 12 9
f 9 12 14
f 9 14 15
f 9 15 13
f 10 16 17
f 10 17 11
f 13 15 18
f 13 18 19
f 13 19 20
f 13 20 21
f 16 22 23
f 16 23 17
f 20 24 21
f 20 25 24
f 22 26 27
f 22 27 28
f 22 28 23
f 24 25 29
f 25 30 31
f 25 31 32
f 25 32 33
f 25 33 34
f 25 34 29
f 26 35 27
f 27 35 36
f 29 34 33
f 30 37 31
f 30 38 37
f 31 39 40
f 31 40 32
f 31 37 41
f 31 41 42
f 31 42 39
f 32 40 43
f 32 43 33
f 35 44 36
f 36 44 45
f 37 38 46
f 37 46 47
f 37 47 41
f 38 48 47
f 38 47 46
f 38 49 48
f 39 42 50
f 39 50 51
f 39 51 40
f 40 51 43
f 41 50 42
f 41 47 52
f 41 52 50
f 43 51 53
f 44 54 55
f 44 55 45
f 47 48 56
f 47 56 57
f 47 57 58
f 47 58 52
f 48 49 56
f 49 59 60
f 49 60 56
f 50 52 58
f 50 58 61
f 50 61 62
f 50 62 63
f 50 63 51
f 51 63 64
f 51 64 53
f 53 64 65
f 54 66 67
f 54 67 55
f 56 68 69
f 56 69 57
f 56 60 68
f 57 69 61
f 57 61 58
f 59 70 71
f 59 71 72
f 59 72 60
f 60 72 73
f 60 73 68
f 61 69 74
f 61 74 62
f 62 74 75
f 62 75 64
f 62 64 63
f 64 75 76
f 64 76 65
f 66 77 78
f 66 78 67
f 68 73 72
f 68 72 79
f 68 79 69
f 69 79 80
f 69 80 81
f 69 81 74
f 70 82 83
f 70 83 71
f 71 83 84
f 71 84 85
f 71 85 72
f 72 86 80
f 72 80 79
f 72 85 86
f 74 76 75
f 74 81 87
f 74 87 88
f 74 88 89
f 74 89 90
f 74 90 76
f 76 90 91
f 76 91 92
f 76 92 93
f 77 94 78
f 78 94 95
f 80 86 96
f 80 96 81
f 81 96 87
f 82 97 83
f 83 97 98
f 83 98 84
f 84 98 99
f 84 99 100
f 84 100 101
f 84 101 102
f 84 102 103
f 84 103 85
f 85 103 86
f 86 103 102
f 86 102 104
f 86 104 105
f 86 105 106
f 86 106 96
f 87 96 88
f 88 96 89
f 89 107 90
f 89 96 108
f 89 108 107
f 90 107 92
f 90 92 91
f 92 107 109
f 92 109 110
f 92 110 111
f 92 111 93
f 94 112 113
f 94 113 95
f 96 106 114
f 96 114 108
f 97 115 116
f 97 116 98
f 98 116 117
f 98 117 99
f 99 117 100
f 100 117 118
f 100 118 119
f 100 119 120
f 100 120 121
f 100 121 122
f 100 122 101
f 101 123 102
f 101 122 124
f 101 124 123
f 102 123 125
f 102 125 104
f 104 125 126
f 104 126 105
f 105 126 127
f 105 127 106
f 106 127 114
f 107 108 128
f 107 128 129
f 107 129 130
f 107 130 131
f 107 131 109
f 108 114 128
f 109 132 110
f 109 131 132
f 110 132 133
f 110 133 111
f 112 134 113
f 113 134 135
f 113 135 136
f 114 127 137
f 114 137 128
f 115 138 116
f 116 138 118
f 116 118 117
f 118 138 119
f 119 138 139
f 119 139 140
f 119 140 141
f 119 141 142
f 119 142 143
f 119 143 120
f 120 144 121
f 120 143 145
f 120 145 144
f 121 144 122
f 122 146 147
f 122 147 124
f 122 144 145
f 122 145 148
f 122 148 146
f 123 124 149
f 123 149 150
f 123 150 151
f 123 151 125
f 124 152 149
f 124 147 153
f 124 153 154
f 124 154 155
f 124 155 152
f 125 151 126
f 126 151 127
f 127 151 150
f 127 150 156
f 127 156 137
f 128 137 157
f 128 157 129
f 129 157 130
f 130 157 158
f 130 158 131
f 131 158 159
f 131 159 132
f 132 159 160
f 132 160 161
f 132 161 133
f 134 162 135
f 135 162 136
f 136 162 185
f 136 185 226
f 136 226 260
f 136 260 284
f 136 284 287
f 136 287 267
f 136 267 261
f 136 261 227
f 136 227 186
f 136 186 163
f 137 156 164
f 137 164 165
f 137 165 157
f 140 166 167
f 140 167 141
f 141 167 142
f 142 167 143
f 143 167 168
f 143 168 169
f 143 169 170
f 143 170 145
f 145 171 172
f 145 172 148
f 145 170 169
f 145 169 173
f 145 173 171
f 146 148 147
f 147 148 172
f 147 172 153
f 149 152 150
f 150 152 174
f 150 174 156
f 152 155 175
f 152 175 176
f 152 176 164
f 152 164 174
f 153 172 154
f 154 177 155
f 154 172 177
f 155 177 178
f 155 178 179
f 155 179 180
f 155 180 175
f 156 174 164
f 157 165 181
f 157 181 158
f 158 181 182
f 158 182 159
f 159 182 183
f 159 183 184
f 159 184 160
f 163 186 187
f 163 187 188
f 163 188 189
f 164 176 175
f 164 175 190
f 164 190 191
f 164 191 192
f 164 192 193
f 164 193 194
f 164 194 195
f 164 195 165
f 165 195 196
f 165 196 181
f 166 197 198
f 166 198 199
f 166 199 200
f 166 200 167
f 167 200 168
f 168 200 199
f 168 199 198
f 168 198 201
f 168 201 169
f 169 201 173
f 171 173 202
f 171 202 203
f 171 203 172
f 172 203 202
f 172 202 204
f 172 204 205
f 172 205 206
f 172 206 179
f 172 179 178
f 172 178 177
f 173 201 207
f 173 207 208
f 173 208 209
f 173 209 204
f 173 204 202
f 175 180 210
f 175 210 190
f 179 211 205
f 179 205 212
f 179 212 213
f 179 213 190
f 179 190 214
f 179 214 210
f 179 210 180
f 179 206 215
f 179 215 211
f 181 196 216
f 181 216 182
f 182 217 218
f 182 218 219
f 182 219 220
f 182 220 221
f 182 221 183
f 182 216 222
f 182 222 223
f 182 223 224
f 182 224 217
f 183 221 184
f 185 225 226
f 186 227 228
f 186 228 187
f 187 228 188
f 188 229 230
f 188 230 189
f 188 228 229
f 190 210 214
f 190 213 231
f 190 231 232
f 190 232 191
f 191 232 233
f 191 233 192
f 192 194 193
f 192 233 234
f 192 234 194
f 194 235 236
f 194 236 237
f 194 237 195
f 194 234 235
f 195 237 196
f 196 237 236
f 196 236 238
f 196 238 216
f 197 230 229
f 197 229 198
f 198 229 209
f 198 209 208
f 198 208 201
f 201 208 207
f 204 209 239
f 204 239 240
f 204 240 205
f 205 240 241
f 205 241 242
f 205 242 212
f 205 211 215
f 205 215 206
f 209 243 239
f 209 229 243
f 212 242 213
f 213 242 244
f 213 244 241
f 213 241 245
f 213 245 246
f 213 246 247
f 213 247 248
f 213 248 231
f 216 238 249
f 216 249 222
f 217 250 218
f 217 224 250
f 218 250 251
f 218 251 252
f 218 252 253
f 218 253 221
f 218 221 219
f 219 221 220
f 222 249 223
f 223 249 224
f 224 254 250
f 224 249 255
f 224 255 256
f 224 256 254
f 225 257 258
f 225 258 259
f 225 259 226
f 226 259 260
f 227 261 239
f 227 239 243
f 227 243 228
f 228 243 229
f 231 248 232
f 232 248 262
f 232 262 263
f 232 263 264
f 232 264 265
f 232 265 234
f 232 234 233
f 234 265 266
f 234 266 235
f 235 266 249
f 235 249 236
f 236 249 238
f 239 261 267
f 239 267 240
f 240 267 241
f 241 267 268
f 241 268 269
f 241 269 270
f 241 270 245
f 241 244 242
f 245 270 271
f 245 271 246
f 246 272 273
f 246 273 247
f 246 271 269
f 246 269 272
f 247 273 248
f 248 273 262
f 249 266 274
f 249 274 255
f 250 254 251
f 251 254 275
f 251 275 276
f 254 256 277
f 254 277 275
f 255 274 278
f 255 278 256
f 256 278 279
f 256 279 280
f 256 280 277
f 257 281 258
f 257 282 281
f 258 281 283
f 258 283 259
f 259 283 260
f 260 283 285
f 260 285 284
f 262 286 274
f 262 274 263
f 262 273 286
f 263 274 266
f 263 266 264
f 264 266 265
f 267 287 268
f 268 287 269
f 269 287 272
f 269 271 270
f 272 287 273
f 273 287 285
f 273 285 288
f 273 288 289
f 273 289 290
f 273 290 280
f 273 280 274
f 273 274 286
f 274 279 278
f 274 280 279
f 275 277 291
f 275 291 292
f 275 292 293
f 275 293 276
f 276 293 294
f 277 280 295
f 277 295 290
f 277 290 296
f 277 296 291
f 280 290 295
f 281 297 288
f 281 288 283
f 281 282 298
f 281 298 299
f 281 299 297
f 283 288 285
f 284 285 287
f 288 297 289
f 289 299 296
f 289 296 290
f 289 297 299
f 291 296 292
f 292 294 293
f 292 296 300
f 296 299 301
f 296 301 300
f 298 301 299

