# https://github.com/mikedh/trimesh
v -0.04373097 -0.00217368 -0.04307602
v -0.04364414 -0.00217368 -0.04325009
v -0.04082876 -0.00217368 -0.04307602
v -0.04369841 -0.00206235 -0.04307602
v -0.04318395 -0.00120722 -0.04349899
v -0.04290611 -0.00217368 -0.04438739
v -0.03455981 -0.00217368 -0.04849718
v -0.02155520 0.01907659 -0.04307602
v -0.04353995 -0.00159807 -0.04307602
v -0.04329683 -0.00091823 -0.04307602
v -0.04302115 -0.00028340 -0.04307602
v -0.04149950 0.00177744 -0.04409179
v -0.04183813 0.00025668 -0.04450468
v -0.04246763 -0.00217368 -0.04495897
v -0.03869280 -0.00217368 -0.04849718
v -0.02155520 0.01297226 -0.04849718
v -0.02155520 0.02202572 -0.04307602
v -0.04183162 0.00229383 -0.04307602
v -0.04098505 0.00025668 -0.04554699
v -0.04165796 0.00266573 -0.04307602
v -0.04113700 0.00316791 -0.04358285
v -0.04057479 0.00242174 -0.04480135
v -0.04122165 -0.00086375 -0.04582508
v -0.04165362 -0.00217368 -0.04593599
v -0.03893158 -0.00217368 -0.04832576
v -0.03860163 -0.00197233 -0.04849718
v -0.02155520 0.01699681 -0.04849718
v -0.02155520 0.02161118 -0.04374524
v -0.02167025 0.02197124 -0.04307602
v -0.03918338 0.00338583 -0.04586700
v -0.03945471 0.00234357 -0.04612970
v -0.04127809 0.00342374 -0.04307602
v -0.04089388 0.00406804 -0.04307602
v -0.03933532 0.00571434 -0.04397504
v -0.03961317 0.00421964 -0.04473182
v -0.03994312 0.00025668 -0.04656117
v -0.04136058 -0.00217368 -0.04624540
v -0.03968697 -0.00217368 -0.04772076
v -0.03906182 -0.00104851 -0.04783221
v -0.03771382 0.00025668 -0.04840006
v -0.03764653 0.00011219 -0.04849718
v -0.02163335 0.01695891 -0.04849718
v -0.02155520 0.01716499 -0.04837565
v -0.02155520 0.02136483 -0.04414274
v -0.02181135 0.02180779 -0.04323099
v -0.02190686 0.02185517 -0.04307602
v -0.03698230 0.00317265 -0.04784759
v -0.03808067 0.00242411 -0.04726594
v -0.03875358 0.00477631 -0.04536496
v -0.03736434 0.00587779 -0.04611537
v -0.03809152 0.00421964 -0.04637117
v -0.03875575 0.00025668 -0.04760347
v -0.03955673 0.00621178 -0.04307602
v -0.03912911 0.00689636 -0.04307602
v -0.03887948 0.00710481 -0.04327769
v -0.03748807 0.00803337 -0.04425154
v -0.03812191 0.00649130 -0.04480824
v -0.04040113 -0.00217368 -0.04710354
v -0.03734480 0.00178454 -0.04812993
v -0.03698230 0.00138659 -0.04849718
v -0.02318105 0.01615826 -0.04849718
v -0.02205880 0.01772639 -0.04776375
v -0.02155520 0.01892262 -0.04702288
v -0.02155520 0.02100241 -0.04472333
v -0.02319190 0.02041732 -0.04435290
v -0.02389087 0.02083186 -0.04307602
v -0.03657638 0.00442810 -0.04753925
v -0.03512636 0.00563617 -0.04802910
v -0.03553228 0.00442810 -0.04829286
v -0.03688678 0.00726589 -0.04564145
v -0.03549754 0.00818023 -0.04628042
v -0.03600549 0.00645103 -0.04689286
v -0.03893809 0.00719009 -0.04307602
v -0.03861466 0.00762357 -0.04307602
v -0.03691501 0.00942384 -0.04353455
v -0.03552576 0.01024344 -0.04441606
v -0.03495487 0.00957070 -0.04580544
v -0.03647001 0.00227014 -0.04849718
v -0.03595556 0.00314896 -0.04849718
v -0.03631373 0.00253781 -0.04849718
v -0.02430113 0.01554949 -0.04849718
v -0.02473092 0.01597824 -0.04801530
v -0.02155520 0.01902922 -0.04693690
v -0.02155520 0.02086739 -0.04493827
v -0.02234534 0.01996725 -0.04574282
v -0.02458115 0.02005253 -0.04377337
v -0.02490675 0.02025624 -0.04307602
v -0.03467051 0.00517189 -0.04849718
v -0.03458369 0.00702664 -0.04767034
v -0.03262789 0.00928171 -0.04776268
v -0.03319444 0.00789124 -0.04810499
v -0.03380006 0.00627574 -0.04849718
v -0.03520450 0.00440915 -0.04849718
v -0.03538250 0.00412252 -0.04849718
v -0.03407357 0.00872979 -0.04702129
v -0.03759443 0.00894298 -0.04307602
v -0.03707347 0.00961334 -0.04307602
v -0.03589695 0.01099197 -0.04307602
v -0.03492882 0.01163154 -0.04367466
v -0.03451205 0.01083563 -0.04499612
v -0.03293179 0.01172629 -0.04587019
v -0.03340934 0.01067929 -0.04624911
v -0.02673013 0.01377291 -0.04849718
v -0.02706224 0.01410217 -0.04813418
v -0.02612016 0.01549264 -0.04764115
v -0.02548849 0.01682863 -0.04684085
v -0.02485899 0.01815988 -0.04604054
v -0.02354790 0.01856257 -0.04637807
v -0.02155520 0.01909555 -0.04688012
v -0.02374977 0.01969247 -0.04495844
v -0.02561222 0.01979670 -0.04307602
v -0.02558401 0.01864074 -0.04481567
v -0.02701883 0.01821436 -0.04411514
v -0.03191374 0.01071956 -0.04732273
v -0.03057442 0.01143967 -0.04778338
v -0.03123865 0.01004920 -0.04816655
v -0.03091088 0.00973889 -0.04849718
v -0.03281023 0.00749566 -0.04849718
v -0.03513721 0.01186605 -0.04307602
v -0.03424506 0.01281356 -0.04307602
v -0.03287318 0.01375159 -0.04371499
v -0.03338980 0.01220478 -0.04482417
v -0.03081103 0.01377528 -0.04583357
v -0.03188769 0.01222373 -0.04626450
v -0.03076978 0.01582427 -0.04368739
v -0.02779811 0.01287041 -0.04849718
v -0.02845149 0.01354077 -0.04777754
v -0.02719683 0.01628855 -0.04625124
v -0.02782416 0.01493124 -0.04701439
v -0.02624824 0.01767665 -0.04550506
v -0.02753328 0.01851046 -0.04307602
v -0.02938054 0.01634303 -0.04433645
v -0.02840807 0.01773350 -0.04338489
v -0.02918518 0.01215030 -0.04819149
v -0.02890516 0.01186841 -0.04849718
v -0.03010989 0.01059401 -0.04849718
v -0.03402147 0.01304570 -0.04307602
v -0.03310979 0.01398136 -0.04307602
v -0.02942178 0.01436984 -0.04638763
v -0.03009470 0.01509705 -0.04508527
v -0.02858607 0.01576031 -0.04572637
v -0.03193544 0.01511837 -0.04307602
v -0.03098468 0.01600903 -0.04307602
v -0.03013377 0.01666755 -0.04307602
v -0.02854265 0.01782825 -0.04307602
v -0.02809115 0.01813619 -0.04307602
f 1 2 6
f 1 6 14
f 1 14 24
f 1 24 37
f 1 37 58
f 1 58 38
f 1 38 25
f 1 25 15
f 1 15 7
f 1 7 3
f 1 3 8
f 1 8 17
f 1 17 29
f 1 29 46
f 1 46 66
f 1 66 87
f 1 87 111
f 1 111 131
f 1 131 146
f 1 146 145
f 1 145 144
f 1 144 143
f 1 143 142
f 1 142 138
f 1 138 137
f 1 137 120
f 1 120 119
f 1 119 98
f 1 98 97
f 1 97 96
f 1 96 74
f 1 74 73
f 1 73 54
f 1 54 53
f 1 53 33
f 1 33 32
f 1 32 20
f 1 20 18
f 1 18 11
f 1 11 10
f 1 10 9
f 1 9 4
f 1 4 2
f 2 4 5
f 2 5 6
f 3 7 8
f 4 9 5
f 5 9 10
f 5 10 11
f 5 11 12
f 5 12 13
f 5 13 6
f 6 13 14
f 7 15 26
f 7 26 41
f 7 41 60
f 7 60 78
f 7 78 80
f 7 80 79
f 7 79 94
f 7 94 93
f 7 93 88
f 7 88 92
f 7 92 118
f 7 118 117
f 7 117 136
f 7 136 135
f 7 135 126
f 7 126 103
f 7 103 81
f 7 81 61
f 7 61 42
f 7 42 27
f 7 27 16
f 7 16 8
f 8 16 27
f 8 27 43
f 8 43 63
f 8 63 83
f 8 83 109
f 8 109 84
f 8 84 64
f 8 64 44
f 8 44 28
f 8 28 17
f 11 18 12
f 12 19 13
f 12 18 20
f 12 20 21
f 12 21 22
f 12 22 19
f 13 19 23
f 13 23 14
f 14 23 24
f 15 25 26
f 17 28 29
f 19 22 30
f 19 30 31
f 19 31 23
f 20 32 21
f 21 32 33
f 21 33 34
f 21 34 35
f 21 35 30
f 21 30 22
f 23 31 36
f 23 36 37
f 23 37 24
f 25 38 39
f 25 39 40
f 25 40 41
f 25 41 26
f 27 42 43
f 28 44 29
f 29 44 45
f 29 45 46
f 30 47 48
f 30 48 31
f 30 35 34
f 30 34 49
f 30 49 50
f 30 50 51
f 30 51 47
f 31 52 36
f 31 48 52
f 33 53 34
f 34 53 54
f 34 54 55
f 34 55 56
f 34 56 57
f 34 57 49
f 36 52 58
f 36 58 37
f 38 58 52
f 38 52 39
f 39 52 40
f 40 52 59
f 40 59 41
f 41 59 60
f 42 61 43
f 43 61 62
f 43 62 63
f 44 64 45
f 45 64 65
f 45 65 46
f 46 65 66
f 47 51 67
f 47 67 68
f 47 68 69
f 47 69 59
f 47 59 48
f 48 59 52
f 49 57 70
f 49 70 50
f 50 67 51
f 50 70 71
f 50 71 72
f 50 72 67
f 54 73 55
f 55 73 74
f 55 74 75
f 55 75 56
f 56 70 57
f 56 75 76
f 56 76 77
f 56 77 70
f 59 78 60
f 59 69 79
f 59 79 80
f 59 80 78
f 61 81 82
f 61 82 62
f 62 82 63
f 63 82 83
f 64 84 85
f 64 85 65
f 65 86 66
f 65 85 86
f 66 86 87
f 67 72 68
f 68 88 69
f 68 72 89
f 68 89 90
f 68 90 91
f 68 91 92
f 68 92 88
f 69 88 93
f 69 93 94
f 69 94 79
f 70 77 71
f 71 77 95
f 71 95 89
f 71 89 72
f 74 96 75
f 75 96 97
f 75 97 98
f 75 98 99
f 75 99 76
f 76 99 77
f 77 90 95
f 77 99 100
f 77 100 101
f 77 101 102
f 77 102 90
f 81 103 104
f 81 104 82
f 82 104 105
f 82 105 106
f 82 106 107
f 82 107 108
f 82 108 83
f 83 108 109
f 84 109 85
f 85 110 86
f 85 109 108
f 85 108 107
f 85 107 110
f 86 111 87
f 86 110 112
f 86 112 113
f 86 113 111
f 89 95 90
f 90 102 114
f 90 114 115
f 90 115 116
f 90 116 117
f 90 117 91
f 91 118 92
f 91 117 118
f 98 119 99
f 99 119 120
f 99 120 121
f 99 121 122
f 99 122 101
f 99 101 100
f 101 123 124
f 101 124 115
f 101 115 114
f 101 114 102
f 101 122 121
f 101 121 125
f 101 125 123
f 103 126 127
f 103 127 104
f 104 127 105
f 105 128 106
f 105 127 129
f 105 129 128
f 106 128 107
f 107 130 112
f 107 112 110
f 107 128 130
f 111 113 131
f 112 130 113
f 113 130 132
f 113 132 125
f 113 125 133
f 113 133 131
f 115 124 127
f 115 127 134
f 115 134 116
f 116 134 135
f 116 135 136
f 116 136 117
f 120 137 121
f 121 137 138
f 121 138 125
f 123 139 127
f 123 127 124
f 123 125 140
f 123 140 141
f 123 141 139
f 125 142 143
f 125 143 144
f 125 144 145
f 125 145 133
f 125 132 141
f 125 141 140
f 125 138 142
f 126 135 127
f 127 139 129
f 127 135 134
f 128 129 139
f 128 139 141
f 128 141 130
f 130 141 132
f 131 133 146
f 133 145 146

