# https://github.com/mikedh/trimesh
v 0.00810796 0.05654645 0.01146503
v 0.00769479 0.05862956 0.00729774
v 0.00759778 0.05862956 0.00938138
v 0.00800425 0.05654645 0.01354867
v 0.00800091 0.05446178 0.01980240
v 0.00808120 0.05446178 0.01771875
v 0.00810127 0.05654645 0.00938138
v 0.00793400 0.05863112 -0.00312606
v 0.00793902 0.05863112 -0.00103963
v 0.00793065 0.05863112 0.00104402
v 0.00786542 0.05863112 0.00312766
v 0.00729668 0.06035195 0.00104402
v 0.00705413 0.06003964 0.00655199
v 0.00730337 0.05878259 0.01146782
v 0.00733014 0.05835785 0.01354867
v 0.00784032 0.05654645 0.01563511
v 0.00723144 0.06024889 0.00312766
v 0.00713275 0.06013021 0.00521130
v 0.00794403 0.05446178 0.02039453
v 0.00802934 0.05387620 0.02039453
v 0.00793734 0.05238024 0.02039453
v 0.00779181 0.05654645 -0.00813966
v 0.00790891 0.05863112 -0.00520971
v 0.00732010 0.06043315 -0.00312606
v 0.00731843 0.06041753 -0.00103963
v 0.00610234 0.06146065 -0.00103963
v 0.00700897 0.05999123 0.00729774
v 0.00686678 0.05984445 0.00938138
v 0.00717624 0.05808146 0.01563511
v 0.00758272 0.05654645 0.01771875
v 0.00675638 0.05973982 0.01077234
v 0.00593841 0.06139507 0.00104402
v 0.00740541 0.05587655 0.02039453
v 0.00773494 0.05170252 0.02039453
v 0.00717457 0.05490682 -0.00813966
v 0.00777341 0.05863112 -0.00813966
v 0.00782527 0.05863112 -0.00729614
v 0.00730170 0.06039567 -0.00520971
v 0.00615587 0.06147627 -0.00312606
v 0.00511374 0.06195879 -0.00312606
v 0.00506022 0.06193848 -0.00103963
v 0.00574437 0.06129044 0.00312766
v 0.00688853 0.05777383 0.01771875
v 0.00716621 0.05639342 0.02039453
v 0.00720301 0.05660735 0.01962085
v 0.00651718 0.05957742 0.01216330
v 0.00574939 0.06002715 0.01146782
v 0.00460857 0.06176203 0.00420300
v 0.00489629 0.06187134 0.00104402
v 0.00725988 0.05048139 0.02039453
v 0.00683500 0.05448677 -0.00813966
v 0.00646365 0.04946170 0.02039453
v 0.00617594 0.04909629 0.02039453
v 0.00715951 0.06020829 -0.00813966
v 0.00721973 0.06028324 -0.00729614
v 0.00606721 0.06143723 -0.00520971
v 0.00502509 0.06191975 -0.00520971
v 0.00355474 0.06235073 -0.00520971
v 0.00355474 0.06238196 -0.00312606
v 0.00355474 0.06232731 -0.00103963
v 0.00669951 0.05760362 0.01880247
v 0.00625623 0.05734441 0.02019343
v 0.00617761 0.05730693 0.02039453
v 0.00508363 0.05985225 0.01354867
v 0.00471730 0.05971796 0.01479160
v 0.00612576 0.05939941 0.01354867
v 0.00355474 0.06218677 0.00104402
v 0.00355474 0.06201500 0.00312766
v 0.00343932 0.06183855 0.00502417
v 0.00266818 0.06178233 0.00645702
v 0.00355474 0.06033946 0.01354867
v 0.00623281 0.05386527 -0.00813966
v 0.00546502 0.04845450 0.02039453
v 0.00519069 0.05288930 -0.00813966
v 0.00633318 0.06082822 -0.00813966
v 0.00583303 0.06132479 -0.00729614
v 0.00479090 0.06183230 -0.00729614
v 0.00355474 0.06219302 -0.00729614
v 0.00146882 0.06254437 -0.00729614
v 0.00146882 0.06269740 -0.00520971
v 0.00146882 0.06267397 -0.00312606
v 0.00146882 0.06260370 -0.00103963
v 0.00146882 0.06247097 0.00104402
v 0.00564066 0.05844218 0.01771875
v 0.00559215 0.05790968 0.01962085
v 0.00522749 0.05780974 0.02039453
v 0.00354638 0.05991628 0.01554573
v 0.00284550 0.05977418 0.01704282
v 0.00146882 0.06226329 0.00312766
v 0.00146882 0.06201188 0.00521130
v 0.00227007 0.06179482 0.00655199
v 0.00147050 0.06067207 0.01354867
v 0.00390769 0.04750976 0.02039453
v 0.00450152 0.05254264 -0.00813966
v 0.00358652 0.04733955 0.02039453
v 0.00566408 0.06123891 -0.00813966
v 0.00490130 0.06166678 -0.00813966
v 0.00466377 0.06178233 -0.00813966
v 0.00438275 0.06186509 -0.00813966
v 0.00352463 0.06207434 -0.00813966
v 0.00236207 0.06226954 -0.00813966
v 0.00146882 0.06241475 -0.00813966
v -0.00061208 0.06249908 -0.00813966
v -0.00061208 0.06262401 -0.00729614
v -0.00061208 0.06277391 -0.00520971
v -0.00061208 0.06271457 -0.00312606
v -0.00061208 0.06252251 0.00104402
v -0.00061208 0.06234917 0.00312766
v 0.00355474 0.05861395 0.01980240
v 0.00351125 0.05840314 0.02039453
v 0.00147050 0.06024733 0.01563511
v 0.00147050 0.05983820 0.01725231
v 0.00147050 0.05867953 0.02039453
v 0.00296761 0.05850308 0.02039453
v 0.00147050 0.06181981 0.00674192
v -0.00061040 0.06185260 0.00698491
v -0.00061040 0.06068924 0.01354867
v 0.00355976 0.05222252 -0.00813966
v 0.00147050 0.04700538 0.02039453
v -0.00269632 0.06240382 -0.00813966
v -0.00269632 0.06251469 -0.00729614
v -0.00269632 0.06263338 -0.00520971
v -0.00269632 0.06258184 -0.00312606
v -0.00269632 0.06241475 0.00104402
v -0.00269632 0.06228671 0.00312766
v -0.00061208 0.06190882 0.00655199
v -0.00061040 0.06025982 0.01563511
v -0.00061040 0.05983820 0.01725510
v 0.00088169 0.05869514 0.02039453
v -0.00269632 0.06181200 0.00667488
v -0.00269632 0.06061117 0.01354867
v -0.00269632 0.06201188 0.00521130
v -0.00269632 0.06182917 0.00655199
v 0.00146882 0.05200078 -0.00813966
v -0.00061040 0.04682112 0.02039453
v -0.00479729 0.06201344 -0.00813966
v -0.00478056 0.06222737 -0.00520971
v -0.00498129 0.06204780 -0.00747769
v -0.00478056 0.06223362 -0.00312606
v -0.00478056 0.06219302 -0.00103963
v -0.00498129 0.06203218 0.00123115
v -0.00455809 0.06198690 0.00312766
v -0.00406296 0.06184479 0.00521130
v -0.00376186 0.06176203 0.00628664
v -0.00269632 0.06016300 0.01563511
v -0.00269632 0.05978979 0.01707913
v -0.00061040 0.05869202 0.02039453
v -0.00303589 0.06179638 0.00655199
v -0.00478056 0.06029261 0.01354867
v -0.00396092 0.05972421 0.01684451
v -0.00061208 0.05193363 -0.00813966
v -0.00235508 0.04708190 0.02039453
v -0.00277828 0.05199297 -0.00813966
v -0.00565039 0.06180575 -0.00813966
v -0.00592305 0.06181824 -0.00690232
v -0.00599665 0.06185885 -0.00520971
v -0.00603847 0.06187446 -0.00312606
v -0.00582101 0.06175734 -0.00813966
v -0.00602676 0.06187134 -0.00103963
v -0.00594145 0.06182606 0.00066136
v -0.00581098 0.06174954 0.00204953
v -0.00653528 0.06006931 0.01146503
v -0.00478056 0.06064240 0.01146503
v -0.00269130 0.05854211 0.02039453
v -0.00616895 0.05985850 0.01354867
v -0.00592305 0.05972265 0.01481115
v -0.00470696 0.05986787 0.01555690
v -0.00535097 0.05948997 0.01620210
v -0.00538108 0.05814704 0.02039453
v -0.00478056 0.05849839 0.01980240
v -0.00478056 0.05827509 0.02039453
v -0.00324665 0.04744886 0.02039453
v -0.00488428 0.05262228 -0.00813966
v -0.00703878 0.06107495 -0.00520971
v -0.00598327 0.06163086 -0.00813966
v -0.00671593 0.06112648 -0.00747769
v -0.00708059 0.06114522 -0.00312606
v -0.00707056 0.06114990 -0.00103963
v -0.00672764 0.06121549 0.00123115
v -0.00794039 0.05970547 0.00855742
v -0.00701201 0.06015051 0.00930318
v -0.00780322 0.05957430 0.00994838
v -0.00757907 0.05941346 0.01146503
v -0.00720940 0.05919172 0.01354867
v -0.00791028 0.05758801 0.01876337
v -0.00682634 0.05789875 0.01959850
v -0.00644495 0.05780506 0.02039453
v -0.00414157 0.04782832 0.02039453
v -0.00602342 0.05326564 -0.00813966
v -0.00479562 0.04811096 0.02039453
v -0.00807086 0.05989129 -0.00813966
v -0.00810264 0.05993189 -0.00729614
v -0.00816955 0.06003183 -0.00520971
v -0.00821472 0.06010210 -0.00312606
v -0.00676946 0.06098750 -0.00813966
v -0.00823981 0.06010835 -0.00103963
v -0.00822810 0.06004432 0.00104402
v -0.00817123 0.05995219 0.00312766
v -0.00809093 0.05986162 0.00521130
v -0.00800228 0.05976793 0.00729774
v -0.00839537 0.05837190 0.01146503
v -0.00833850 0.05815016 0.01354867
v -0.00820635 0.05792842 0.01563511
v -0.00801566 0.05770200 0.01771875
v -0.00832010 0.05658237 0.01959850
v -0.00826155 0.05632315 0.02039453
v -0.00758242 0.05709924 0.02039453
v -0.00749376 0.05730224 0.02015433
v -0.00714583 0.05740687 0.02039453
v -0.00657208 0.05383248 -0.00813966
v -0.00614385 0.04890110 0.02039453
v -0.00618567 0.04892765 0.02039453
v -0.00725289 0.05001449 0.02039453
v -0.00829334 0.05940721 -0.00813966
v -0.00861785 0.05863112 -0.00813966
v -0.00873494 0.05863112 -0.00312606
v -0.00864629 0.05863112 -0.00729614
v -0.00870149 0.05863112 -0.00520971
v -0.00874832 0.05863112 -0.00103963
v -0.00872825 0.05863112 0.00104402
v -0.00868811 0.05863112 0.00312766
v -0.00863290 0.05863112 0.00521130
v -0.00853756 0.05862956 0.00729774
v -0.00890556 0.05654645 0.01354867
v -0.00878345 0.05654645 0.01563511
v -0.00859443 0.05654645 0.01771875
v -0.00891560 0.05446178 0.02039453
v -0.00740009 0.05723978 0.02039453
v -0.00707056 0.05438058 -0.00813966
v -0.00800228 0.05102481 0.02039453
v -0.00796548 0.05541121 -0.00813966
v -0.00860781 0.05778788 -0.00813966
v -0.00891894 0.05654645 0.01146503
v -0.00895407 0.05446178 0.01771875
v -0.00898084 0.05446178 0.01980240
v -0.00855429 0.05226468 0.02039453
v -0.00803406 0.05107478 0.02039453
v -0.00819966 0.05588123 -0.00813966
v -0.00845225 0.05643402 -0.00813966
f 1 2 3
f 1 3 4
f 1 4 5
f 1 5 6
f 1 6 7
f 1 7 8
f 1 8 9
f 1 9 10
f 1 10 11
f 1 11 2
f 2 11 12
f 2 12 3
f 3 13 14
f 3 14 15
f 3 15 16
f 3 16 4
f 3 12 17
f 3 17 18
f 3 18 13
f 4 16 5
f 5 16 19
f 5 19 20
f 5 20 6
f 6 20 21
f 6 21 22
f 6 22 7
f 7 22 23
f 7 23 8
f 8 23 24
f 8 24 9
f 9 24 25
f 9 25 10
f 10 25 12
f 10 12 11
f 12 25 26
f 12 26 17
f 13 27 14
f 13 18 27
f 14 27 28
f 14 28 15
f 15 29 30
f 15 30 16
f 15 28 31
f 15 31 29
f 16 30 19
f 17 26 32
f 17 32 18
f 18 32 27
f 19 30 33
f 19 33 44
f 19 44 63
f 19 63 86
f 19 86 110
f 19 110 114
f 19 114 113
f 19 113 129
f 19 129 147
f 19 147 164
f 19 164 171
f 19 171 169
f 19 169 187
f 19 187 209
f 19 209 228
f 19 228 207
f 19 207 206
f 19 206 227
f 19 227 236
f 19 236 237
f 19 237 230
f 19 230 213
f 19 213 212
f 19 212 211
f 19 211 190
f 19 190 188
f 19 188 172
f 19 172 152
f 19 152 135
f 19 135 119
f 19 119 95
f 19 95 93
f 19 93 73
f 19 73 53
f 19 53 52
f 19 52 50
f 19 50 34
f 19 34 21
f 19 21 20
f 21 34 22
f 22 35 51
f 22 51 72
f 22 72 74
f 22 74 94
f 22 94 118
f 22 118 134
f 22 134 151
f 22 151 153
f 22 153 173
f 22 173 189
f 22 189 210
f 22 210 229
f 22 229 231
f 22 231 238
f 22 238 239
f 22 239 232
f 22 232 215
f 22 215 214
f 22 214 191
f 22 191 195
f 22 195 175
f 22 175 158
f 22 158 154
f 22 154 136
f 22 136 120
f 22 120 103
f 22 103 102
f 22 102 101
f 22 101 100
f 22 100 99
f 22 99 98
f 22 98 97
f 22 97 96
f 22 96 75
f 22 75 54
f 22 54 36
f 22 36 37
f 22 37 23
f 22 34 35
f 23 38 24
f 23 37 38
f 24 38 39
f 24 39 25
f 25 39 26
f 26 39 40
f 26 40 41
f 26 41 32
f 27 32 42
f 27 42 28
f 28 42 31
f 29 43 44
f 29 44 45
f 29 45 30
f 29 31 46
f 29 46 43
f 30 45 44
f 30 44 33
f 31 47 46
f 31 42 48
f 31 48 47
f 32 41 49
f 32 49 48
f 32 48 42
f 34 50 35
f 35 50 52
f 35 52 53
f 35 53 51
f 36 54 55
f 36 55 37
f 37 55 38
f 38 55 56
f 38 56 39
f 39 56 57
f 39 57 40
f 40 57 58
f 40 58 59
f 40 59 41
f 41 59 60
f 41 60 49
f 43 61 44
f 43 46 61
f 44 61 62
f 44 62 63
f 46 47 64
f 46 64 65
f 46 65 66
f 46 66 61
f 47 48 64
f 48 49 60
f 48 60 67
f 48 67 68
f 48 68 69
f 48 69 70
f 48 70 71
f 48 71 64
f 51 53 72
f 53 73 74
f 53 74 72
f 54 75 76
f 54 76 55
f 55 76 56
f 56 76 77
f 56 77 57
f 57 77 58
f 58 77 78
f 58 78 79
f 58 79 80
f 58 80 59
f 59 80 81
f 59 81 60
f 60 81 82
f 60 82 83
f 60 83 67
f 61 66 84
f 61 84 85
f 61 85 62
f 62 85 86
f 62 86 63
f 64 71 65
f 65 71 87
f 65 87 88
f 65 88 85
f 65 85 84
f 65 84 66
f 67 83 68
f 68 89 69
f 68 83 89
f 69 89 70
f 70 89 90
f 70 90 91
f 70 91 92
f 70 92 71
f 71 92 88
f 71 88 87
f 73 93 74
f 74 93 95
f 74 95 94
f 75 96 76
f 76 96 97
f 76 97 77
f 77 97 98
f 77 98 99
f 77 99 78
f 78 99 100
f 78 100 79
f 79 100 101
f 79 101 102
f 79 102 103
f 79 103 104
f 79 104 80
f 80 105 81
f 80 104 105
f 81 105 106
f 81 106 82
f 82 107 83
f 82 106 107
f 83 107 108
f 83 108 89
f 85 88 86
f 86 88 109
f 86 109 110
f 88 92 111
f 88 111 112
f 88 112 113
f 88 113 114
f 88 114 110
f 88 110 109
f 89 108 90
f 90 108 115
f 90 115 91
f 91 115 92
f 92 115 116
f 92 116 117
f 92 117 111
f 94 95 118
f 95 119 118
f 103 120 104
f 104 120 121
f 104 121 105
f 105 122 123
f 105 123 106
f 105 121 122
f 106 123 124
f 106 124 107
f 107 124 125
f 107 125 108
f 108 125 126
f 108 126 115
f 111 127 112
f 111 117 127
f 112 127 128
f 112 128 129
f 112 129 113
f 115 126 116
f 116 130 131
f 116 131 117
f 116 126 125
f 116 125 132
f 116 132 133
f 116 133 130
f 117 131 127
f 118 119 134
f 119 135 134
f 120 136 121
f 121 137 122
f 121 136 138
f 121 138 137
f 122 137 139
f 122 139 140
f 122 140 123
f 123 140 124
f 124 140 141
f 124 141 142
f 124 142 125
f 125 142 143
f 125 143 144
f 125 144 132
f 127 145 146
f 127 146 128
f 127 131 145
f 128 146 147
f 128 147 129
f 130 133 148
f 130 148 131
f 131 149 150
f 131 150 145
f 131 148 144
f 131 144 149
f 132 144 148
f 132 148 133
f 134 135 151
f 135 152 153
f 135 153 151
f 136 154 138
f 137 138 155
f 137 155 156
f 137 156 157
f 137 157 139
f 138 154 158
f 138 158 155
f 139 157 159
f 139 159 140
f 140 159 160
f 140 160 141
f 141 161 142
f 141 160 161
f 142 161 143
f 143 161 162
f 143 162 163
f 143 163 144
f 144 163 149
f 145 150 146
f 146 150 164
f 146 164 147
f 149 163 165
f 149 165 166
f 149 166 167
f 149 167 150
f 150 167 166
f 150 166 168
f 150 168 169
f 150 169 170
f 150 170 171
f 150 171 164
f 152 172 173
f 152 173 153
f 155 174 156
f 155 158 175
f 155 175 176
f 155 176 174
f 156 174 177
f 156 177 157
f 157 177 178
f 157 178 159
f 159 178 160
f 160 178 179
f 160 179 180
f 160 180 161
f 161 180 181
f 161 181 162
f 162 181 182
f 162 182 183
f 162 183 165
f 162 165 163
f 165 184 185
f 165 185 166
f 165 183 184
f 166 185 186
f 166 186 187
f 166 187 168
f 168 187 169
f 169 171 170
f 172 188 173
f 173 188 190
f 173 190 189
f 174 176 191
f 174 191 192
f 174 192 193
f 174 193 194
f 174 194 177
f 175 195 176
f 176 195 191
f 177 194 196
f 177 196 178
f 178 196 197
f 178 197 198
f 178 198 199
f 178 199 200
f 178 200 179
f 179 200 180
f 180 200 201
f 180 201 202
f 180 202 203
f 180 203 182
f 180 182 181
f 182 203 204
f 182 204 185
f 182 185 183
f 183 185 184
f 185 204 205
f 185 205 206
f 185 206 207
f 185 207 208
f 185 208 186
f 186 208 209
f 186 209 187
f 189 190 211
f 189 211 212
f 189 212 213
f 189 213 210
f 191 214 192
f 192 214 193
f 193 214 215
f 193 215 194
f 194 216 196
f 194 215 217
f 194 217 218
f 194 218 216
f 196 219 220
f 196 220 197
f 196 216 219
f 197 220 221
f 197 221 222
f 197 222 198
f 198 222 223
f 198 223 199
f 199 223 201
f 199 201 200
f 201 224 225
f 201 225 202
f 201 223 224
f 202 225 226
f 202 226 203
f 203 226 205
f 203 205 204
f 205 226 227
f 205 227 206
f 207 228 208
f 208 228 209
f 210 213 229
f 213 230 231
f 213 231 229
f 215 232 217
f 216 233 219
f 216 218 233
f 217 232 218
f 218 232 234
f 218 234 233
f 219 233 224
f 219 224 220
f 220 224 221
f 221 224 222
f 222 224 223
f 224 233 235
f 224 235 225
f 225 235 226
f 226 235 227
f 227 235 236
f 230 237 231
f 231 237 238
f 232 239 234
f 233 234 235
f 234 236 235
f 234 239 236
f 236 239 237
f 237 239 238

