# https://github.com/mikedh/trimesh
v -0.04686506 -0.02623306 -0.01552068
v -0.04747343 -0.02375177 -0.01552068
v -0.04480131 -0.02623306 -0.01552068
v -0.04650915 -0.02623306 -0.00876454
v -0.04764449 -0.02275409 -0.01552068
v -0.04638913 -0.02623306 -0.00667591
v -0.04419846 -0.00597215 -0.01552068
v -0.03873420 -0.00599992 -0.00709229
v -0.03935498 -0.02623306 -0.00578270
v -0.04782658 -0.02059015 -0.01552068
v -0.04634499 -0.02475936 -0.00312323
v -0.04757000 -0.02205394 -0.01354622
v -0.04622221 -0.02623306 -0.00459400
v -0.04431710 -0.00597017 -0.01552068
v -0.03873420 -0.00597017 -0.00708558
v -0.03816722 -0.00597017 -0.00520514
v -0.03816860 -0.00599992 -0.00520514
v -0.03916047 -0.02623306 -0.00512455
v -0.04752585 -0.02167708 -0.01244482
v -0.04766932 -0.02059015 -0.01354622
v -0.04774106 -0.01850753 -0.01354622
v -0.04789694 -0.01850753 -0.01552068
v -0.04545658 -0.02590381 0.00438509
v -0.04615185 -0.02475936 -0.00104131
v -0.04549796 -0.02411871 0.00691696
v -0.04622773 -0.02267476 0.00104731
v -0.04552004 -0.02623306 0.00301506
v -0.04638499 -0.00597017 -0.01552068
v -0.03657526 -0.00597017 0.00275314
v -0.03906528 -0.02623306 -0.00477533
v -0.04755482 -0.02059015 -0.01210903
v -0.04544692 -0.02173262 0.01055024
v -0.04639189 -0.02059015 0.00104731
v -0.04758931 -0.01850753 -0.01167250
v -0.04788590 -0.01642095 -0.01552068
v -0.04789694 -0.01839051 -0.01552068
v -0.04575869 -0.02475936 0.00312923
v -0.04595596 -0.02475936 0.00104731
v -0.04344662 -0.02623306 0.02474754
v -0.04340524 -0.02604860 0.02556687
v -0.04417777 -0.02475936 0.01979796
v -0.04583732 -0.02267476 0.00522457
v -0.04338317 -0.02392036 0.02951579
v -0.04560143 -0.02286517 0.00748781
v -0.04639327 -0.00599992 -0.01552068
v -0.04624980 -0.00597017 -0.01354622
v -0.03653801 -0.00597017 0.00296133
v -0.03875765 -0.02623306 -0.00311651
v -0.04386738 -0.02059015 0.02813904
v -0.04399567 -0.01850753 0.02813904
v -0.04548003 -0.02059015 0.01090618
v -0.04562074 -0.02059015 0.00938840
v -0.04550072 -0.02220468 0.00938840
v -0.04339834 -0.02203212 0.03178575
v -0.04367010 -0.02059015 0.03022767
v -0.04646362 -0.01850753 0.00104731
v -0.04418742 -0.01850753 0.02605713
v -0.04757965 -0.01642095 -0.01179339
v -0.04772450 -0.01642095 -0.01354622
v -0.04645259 -0.01642095 0.00104731
v -0.04754654 -0.01483816 -0.01220305
v -0.04779485 -0.01563749 -0.01483566
v -0.04778796 -0.01433238 -0.01552068
v -0.04201193 -0.02623306 0.03917989
v -0.04353767 -0.02491804 0.02618473
v -0.04397774 -0.02475936 0.02188659
v -0.04214712 -0.02475936 0.04064395
v -0.04201193 -0.02267476 0.04481449
v -0.04761000 -0.01231918 -0.01552068
v -0.04638085 -0.00808452 -0.00937568
v -0.04625670 -0.00599992 -0.01354622
v -0.04607598 -0.00599992 -0.01145759
v -0.04606770 -0.00597017 -0.01145759
v -0.04621807 -0.00808452 -0.00729377
v -0.03617382 -0.00597017 0.00521786
v -0.03692290 -0.02623306 0.00751467
v -0.04421088 -0.01642095 0.02605713
v -0.04338179 -0.02000305 0.03364604
v -0.04379288 -0.01850753 0.03022767
v -0.04221196 -0.02059015 0.04481449
v -0.04345628 -0.02065561 0.03241032
v -0.04548555 -0.01478460 0.01097334
v -0.04641396 -0.01563749 0.00104731
v -0.04761414 -0.01422130 -0.01339847
v -0.04634912 -0.01433634 0.00104731
v -0.04778106 -0.01423717 -0.01552068
v -0.04186018 -0.02623306 0.04064395
v -0.04179534 -0.02623306 0.04126181
v -0.04192502 -0.02475936 0.04272586
v -0.04168774 -0.02475936 0.04481449
v -0.04177189 -0.02267476 0.04689640
v -0.04197606 -0.02059015 0.04689640
v -0.04756448 -0.01292810 -0.01398947
v -0.04626083 -0.01016912 -0.00311651
v -0.04584836 -0.00597017 -0.00894587
v -0.04548417 -0.00891955 0.00258524
v -0.04555728 -0.00859823 0.00104731
v -0.04583181 -0.00808452 -0.00311651
v -0.04545796 -0.00695991 -0.00185393
v -0.04551728 -0.00672784 -0.00311651
v -0.04561384 -0.00636090 -0.00520514
v -0.03473636 -0.00597017 0.01689671
v -0.03636695 -0.02623306 0.01147031
v -0.03663320 -0.02623306 0.00942869
v -0.04400809 -0.01642095 0.02813904
v -0.04417363 -0.01563749 0.02605713
v -0.04341627 -0.01850753 0.03399526
v -0.04207676 -0.01850753 0.04689640
v -0.04229749 -0.01850753 0.04481449
v -0.04411155 -0.01433634 0.02605041
v -0.04636154 -0.01225373 -0.00103460
v -0.04141184 -0.02623306 0.04481449
v -0.04130700 -0.02598711 0.04617781
v -0.04143805 -0.02481886 0.04688297
v -0.04135252 -0.02416432 0.04848806
v -0.04124354 -0.02350979 0.04987824
v -0.04145047 -0.02275806 0.04910592
v -0.04168498 -0.02059015 0.04899174
v -0.04179396 -0.01850753 0.04899174
v -0.04387565 -0.01225373 0.02605041
v -0.04337351 -0.01109341 0.02940833
v -0.04343697 -0.01077606 0.02813904
v -0.04565936 -0.00597017 -0.00685724
v -0.04350870 -0.01009970 0.02594967
v -0.04336661 -0.00906236 0.02518407
v -0.04562350 -0.00799328 -0.00110847
v -0.04205745 -0.00808452 0.03648012
v -0.04340110 -0.00686668 0.01926069
v -0.04147392 -0.00597017 0.03666145
v -0.03466325 -0.00597017 0.01752800
v -0.03616140 -0.02623306 0.01355222
v -0.03443839 -0.00597017 0.01979796
v -0.04390600 -0.01433634 0.02813904
v -0.04341489 -0.01642095 0.03399526
v -0.04339696 -0.01563749 0.03381393
v -0.04338041 -0.01495518 0.03365275
v -0.04205607 -0.01642095 0.04689640
v -0.04229335 -0.01642095 0.04481449
v -0.04340386 -0.01293206 0.03177903
v -0.04136356 -0.02623306 0.04524430
v -0.04121733 -0.02623306 0.04640614
v -0.04111249 -0.02623306 0.04717847
v -0.04122009 -0.02555274 0.04756799
v -0.04110696 -0.02481886 0.04910592
v -0.04132355 -0.02211939 0.05023418
v -0.04078002 -0.02623306 0.04902533
v -0.04020200 -0.02623306 0.05107366
v -0.04056758 -0.02475936 0.05107366
v -0.04097177 -0.02275806 0.05098635
v -0.04139391 -0.02059015 0.05047595
v -0.04144771 -0.01850753 0.05064384
v -0.04142839 -0.01642095 0.05059012
v -0.04175810 -0.01642095 0.04899174
v -0.04367562 -0.01225373 0.02813904
v -0.04197882 -0.01225373 0.04482120
v -0.04207538 -0.01016912 0.04064395
v -0.04185328 -0.00808452 0.03856204
v -0.04127113 -0.00702337 0.04173863
v -0.04132631 -0.00683098 0.04064395
v -0.04058965 -0.00597017 0.04482120
v -0.03423284 -0.00597017 0.02188659
v -0.03566478 -0.02623306 0.01916667
v -0.04219402 -0.01433634 0.04482120
v -0.04201055 -0.01563749 0.04690311
v -0.04104075 -0.02059015 0.05151690
v -0.03951087 -0.02623306 0.05241683
v -0.03969158 -0.02475936 0.05255786
v -0.04109455 -0.01850753 0.05169151
v -0.04127803 -0.01563749 0.05091919
v -0.04140356 -0.01563749 0.05052296
v -0.04107386 -0.01642095 0.05163779
v -0.04136218 -0.01433634 0.05040207
v -0.04170843 -0.01563749 0.04899174
v -0.04193467 -0.01433634 0.04690311
v -0.04171947 -0.01225373 0.04690311
v -0.04164360 -0.01016912 0.04482120
v -0.04136494 -0.00873509 0.04482120
v -0.04164360 -0.00808452 0.04064395
v -0.04143529 -0.00804287 0.04255124
v -0.04036203 -0.00599992 0.04690311
v -0.04035375 -0.00597017 0.04690311
v -0.03409351 -0.00597017 0.02394164
v -0.03511573 -0.02623306 0.02605713
v -0.03987506 -0.02267476 0.05267875
v -0.03814239 -0.02623306 0.05298768
v -0.04000059 -0.02059015 0.05276605
v -0.04005440 -0.01850753 0.05277948
v -0.04003370 -0.01642095 0.05273919
v -0.04102420 -0.01433634 0.05144974
v -0.04066414 -0.01563749 0.05204074
v -0.03984885 -0.01225373 0.05266531
v -0.04130562 -0.01306694 0.05020060
v -0.04162566 -0.01433634 0.04898503
v -0.04140908 -0.01232513 0.04893802
v -0.04131527 -0.01097043 0.04820599
v -0.04140218 -0.01023259 0.04678895
v -0.04129458 -0.00902071 0.04601663
v -0.04004612 -0.00599992 0.04898503
v -0.04003784 -0.00597017 0.04898503
v -0.03409213 -0.00597017 0.02396850
v -0.03504675 -0.02623306 0.02753461
v -0.03814239 -0.02475936 0.05307498
v -0.03641523 -0.02623306 0.05268546
v -0.03814239 -0.02267476 0.05308841
v -0.03814101 -0.01225373 0.05300111
v -0.03814101 -0.01016912 0.05296753
v -0.03998542 -0.01433634 0.05270561
v -0.04091521 -0.01232513 0.05096620
v -0.03961157 -0.01016912 0.05255115
v -0.03927083 -0.00654735 0.05222878
v -0.03814101 -0.00808452 0.05283992
v -0.03951500 -0.00597017 0.05119454
v -0.04118284 -0.01167853 0.04959617
v -0.04101040 -0.01023259 0.04893802
v -0.04117180 -0.00958004 0.04740681
v -0.04003232 -0.00597017 0.04901861
v -0.04052757 -0.00808452 0.04898503
v -0.03403143 -0.00597017 0.02605041
v -0.03490743 -0.02623306 0.03066420
v -0.03497364 -0.02623306 0.02913299
v -0.03496950 -0.00597017 0.05209447
v -0.03581514 -0.00597017 0.05257129
v -0.03589516 -0.00597017 0.05260487
v -0.03595034 -0.00597017 0.05261830
v -0.03552269 -0.02623306 0.05107366
v -0.03920737 -0.00597017 0.05212804
v -0.03830517 -0.00597017 0.05255786
v -0.03833966 -0.00597017 0.05254443
v -0.03939774 -0.00808452 0.05237653
v -0.03839898 -0.00597017 0.05251756
v -0.03953018 -0.00597017 0.05114082
v -0.03987368 -0.00597017 0.04969019
v -0.03395969 -0.00597017 0.03018737
v -0.03488949 -0.02623306 0.03158427
v -0.03452530 -0.00597017 0.05107366
v -0.03520678 -0.02623306 0.04910592
v -0.03396384 -0.00597017 0.04898503
v -0.03393487 -0.00597017 0.03227600
v -0.03488259 -0.02623306 0.03230958
v -0.03500123 -0.02623306 0.04689640
v -0.03380519 -0.00597017 0.04690311
v -0.03487569 -0.02623306 0.03322294
v -0.03490467 -0.02623306 0.04532489
v -0.03489501 -0.02623306 0.04466002
v -0.03486742 -0.02623306 0.04272586
v -0.03486328 -0.02623306 0.04064395
f 1 2 5
f 1 5 10
f 1 10 22
f 1 22 36
f 1 36 35
f 1 35 63
f 1 63 86
f 1 86 69
f 1 69 45
f 1 45 28
f 1 28 14
f 1 14 7
f 1 7 3
f 1 3 9
f 1 9 18
f 1 18 30
f 1 30 48
f 1 48 76
f 1 76 104
f 1 104 103
f 1 103 131
f 1 131 162
f 1 162 183
f 1 183 201
f 1 201 220
f 1 220 219
f 1 219 234
f 1 234 239
f 1 239 242
f 1 242 246
f 1 246 245
f 1 245 244
f 1 244 243
f 1 243 240
f 1 240 236
f 1 236 225
f 1 225 203
f 1 203 185
f 1 185 166
f 1 166 147
f 1 147 146
f 1 146 142
f 1 142 141
f 1 141 140
f 1 140 112
f 1 112 88
f 1 88 87
f 1 87 64
f 1 64 39
f 1 39 27
f 1 27 13
f 1 13 6
f 1 6 4
f 1 4 2
f 2 4 6
f 2 6 5
f 3 7 8
f 3 8 9
f 5 6 11
f 5 11 12
f 5 12 10
f 6 13 11
f 7 14 15
f 7 15 8
f 8 15 16
f 8 16 17
f 8 17 9
f 9 17 18
f 10 12 19
f 10 19 20
f 10 20 21
f 10 21 22
f 11 13 23
f 11 23 24
f 11 24 25
f 11 25 26
f 11 26 19
f 11 19 12
f 13 27 23
f 14 28 46
f 14 46 73
f 14 73 95
f 14 95 123
f 14 123 129
f 14 129 160
f 14 160 181
f 14 181 199
f 14 199 216
f 14 216 232
f 14 232 231
f 14 231 212
f 14 212 226
f 14 226 230
f 14 230 228
f 14 228 227
f 14 227 224
f 14 224 223
f 14 223 222
f 14 222 221
f 14 221 235
f 14 235 237
f 14 237 241
f 14 241 238
f 14 238 233
f 14 233 218
f 14 218 200
f 14 200 182
f 14 182 161
f 14 161 132
f 14 132 130
f 14 130 102
f 14 102 75
f 14 75 47
f 14 47 29
f 14 29 16
f 14 16 15
f 16 29 17
f 17 30 18
f 17 29 30
f 19 31 20
f 19 26 32
f 19 32 33
f 19 33 31
f 20 31 21
f 21 31 34
f 21 34 35
f 21 35 36
f 21 36 22
f 23 37 38
f 23 38 24
f 23 27 39
f 23 39 40
f 23 40 41
f 23 41 37
f 24 38 25
f 25 42 26
f 25 38 37
f 25 37 41
f 25 41 43
f 25 43 44
f 25 44 42
f 26 42 32
f 28 45 46
f 29 47 48
f 29 48 30
f 31 33 34
f 32 49 50
f 32 50 51
f 32 51 52
f 32 52 33
f 32 42 53
f 32 53 54
f 32 54 55
f 32 55 49
f 33 56 34
f 33 52 50
f 33 50 57
f 33 57 56
f 34 58 59
f 34 59 35
f 34 56 60
f 34 60 58
f 35 59 61
f 35 61 62
f 35 62 63
f 39 64 40
f 40 43 65
f 40 65 66
f 40 66 41
f 40 64 67
f 40 67 43
f 41 66 43
f 42 44 53
f 43 66 65
f 43 67 68
f 43 68 54
f 43 54 44
f 44 54 53
f 45 69 70
f 45 70 71
f 45 71 46
f 46 72 73
f 46 71 74
f 46 74 72
f 47 75 76
f 47 76 48
f 49 55 50
f 50 77 57
f 50 52 51
f 50 55 78
f 50 78 79
f 50 79 77
f 54 68 80
f 54 80 81
f 54 81 55
f 55 81 78
f 56 57 77
f 56 77 60
f 58 61 59
f 58 60 61
f 60 77 82
f 60 82 83
f 60 83 61
f 61 84 62
f 61 83 85
f 61 85 84
f 62 84 63
f 63 84 86
f 64 87 67
f 67 87 88
f 67 88 89
f 67 89 68
f 68 89 90
f 68 90 91
f 68 91 92
f 68 92 80
f 69 86 93
f 69 93 94
f 69 94 70
f 70 94 74
f 70 74 71
f 72 74 95
f 72 95 73
f 74 94 96
f 74 96 97
f 74 97 98
f 74 98 99
f 74 99 100
f 74 100 101
f 74 101 95
f 75 102 103
f 75 103 104
f 75 104 76
f 77 79 105
f 77 105 106
f 77 106 82
f 78 107 79
f 78 81 80
f 78 80 107
f 79 107 105
f 80 92 108
f 80 108 109
f 80 109 107
f 82 106 110
f 82 110 85
f 82 85 83
f 84 93 86
f 84 85 93
f 85 110 111
f 85 111 93
f 88 112 89
f 89 112 113
f 89 113 90
f 90 113 114
f 90 114 91
f 91 114 115
f 91 115 116
f 91 116 117
f 91 117 118
f 91 118 92
f 92 118 119
f 92 119 108
f 93 111 94
f 94 111 120
f 94 120 121
f 94 121 122
f 94 122 96
f 95 101 123
f 96 122 124
f 96 124 125
f 96 125 97
f 97 125 99
f 97 99 126
f 97 126 98
f 98 126 99
f 99 125 127
f 99 127 128
f 99 128 100
f 100 128 129
f 100 129 101
f 101 129 123
f 102 130 103
f 103 130 132
f 103 132 131
f 105 133 110
f 105 110 106
f 105 107 134
f 105 134 135
f 105 135 136
f 105 136 133
f 107 109 134
f 108 137 138
f 108 138 109
f 108 119 137
f 109 138 134
f 110 120 111
f 110 133 139
f 110 139 120
f 112 140 113
f 113 140 141
f 113 141 142
f 113 142 143
f 113 143 114
f 114 143 115
f 115 143 144
f 115 144 116
f 116 145 117
f 116 144 146
f 116 146 147
f 116 147 148
f 116 148 149
f 116 149 145
f 117 145 118
f 118 145 150
f 118 150 119
f 119 150 151
f 119 151 152
f 119 152 153
f 119 153 137
f 120 139 154
f 120 154 121
f 121 154 155
f 121 155 156
f 121 156 122
f 122 156 157
f 122 157 127
f 122 127 125
f 122 125 124
f 127 157 158
f 127 158 128
f 128 158 159
f 128 159 129
f 129 159 160
f 131 132 161
f 131 161 162
f 133 136 163
f 133 163 139
f 134 138 135
f 135 138 163
f 135 163 136
f 137 164 163
f 137 163 138
f 137 153 164
f 139 163 155
f 139 155 154
f 142 146 143
f 143 146 144
f 145 149 165
f 145 165 150
f 147 166 148
f 148 166 167
f 148 167 165
f 148 165 149
f 150 165 168
f 150 168 151
f 151 168 152
f 152 169 170
f 152 170 153
f 152 168 171
f 152 171 169
f 153 170 172
f 153 172 173
f 153 173 174
f 153 174 164
f 155 163 174
f 155 174 175
f 155 175 176
f 155 176 156
f 156 176 177
f 156 177 157
f 157 177 178
f 157 178 158
f 158 178 179
f 158 179 177
f 158 177 180
f 158 180 181
f 158 181 160
f 158 160 159
f 161 182 183
f 161 183 162
f 163 164 174
f 165 167 184
f 165 184 168
f 166 185 167
f 167 185 184
f 168 184 186
f 168 186 187
f 168 187 188
f 168 188 171
f 169 189 172
f 169 172 170
f 169 171 189
f 171 188 190
f 171 190 191
f 171 191 189
f 172 189 192
f 172 192 193
f 172 193 173
f 173 193 174
f 174 193 175
f 175 193 192
f 175 192 194
f 175 194 195
f 175 195 196
f 175 196 176
f 176 196 197
f 176 197 177
f 177 197 180
f 177 179 178
f 180 197 198
f 180 198 199
f 180 199 181
f 182 200 183
f 183 200 201
f 184 185 186
f 185 202 186
f 185 203 202
f 186 202 187
f 187 202 204
f 187 204 205
f 187 205 206
f 187 206 207
f 187 207 188
f 188 207 190
f 189 208 192
f 189 191 209
f 189 209 210
f 189 210 208
f 190 207 191
f 191 207 206
f 191 206 211
f 191 211 209
f 192 208 212
f 192 212 213
f 192 213 195
f 192 195 194
f 195 213 214
f 195 214 215
f 195 215 197
f 195 197 196
f 197 215 198
f 198 216 199
f 198 215 217
f 198 217 216
f 200 218 219
f 200 219 220
f 200 220 201
f 202 203 204
f 203 221 222
f 203 222 223
f 203 223 224
f 203 224 204
f 203 225 221
f 204 224 205
f 205 224 206
f 206 224 211
f 208 210 226
f 208 226 212
f 209 211 227
f 209 227 228
f 209 228 229
f 209 229 210
f 210 229 228
f 210 228 230
f 210 230 226
f 211 224 227
f 212 231 213
f 213 231 217
f 213 217 214
f 214 217 215
f 216 217 232
f 217 231 232
f 218 233 234
f 218 234 219
f 221 225 235
f 225 236 237
f 225 237 235
f 233 238 234
f 234 238 239
f 236 240 237
f 237 240 241
f 238 241 239
f 239 241 242
f 240 243 241
f 241 243 244
f 241 244 245
f 241 245 246
f 241 246 242

