# https://github.com/mikedh/trimesh
v 0.00933187 -0.06269550 -0.02297045
v 0.00933187 -0.06057046 -0.02297045
v 0.03255228 -0.04598071 -0.02297789
v 0.03549922 -0.04598071 -0.02297789
v 0.01189716 -0.06224676 -0.02297045
v 0.01189716 -0.06220225 -0.02188391
v 0.00933187 -0.06257683 -0.02022433
v 0.04104132 -0.03087547 -0.02295556
v 0.03703243 -0.03949803 -0.02297789
v 0.00933187 -0.05505943 -0.00729002
v 0.03499479 -0.02481186 0.00312888
v 0.03558882 -0.02481186 0.00188605
v 0.03617290 -0.04502389 -0.02297789
v 0.03544280 -0.04606601 -0.02297045
v 0.03440075 -0.04736403 -0.02297045
v 0.03347486 -0.04840245 -0.02297045
v 0.03297043 -0.04894020 -0.02297045
v 0.03143722 -0.05055716 -0.02297045
v 0.03094275 -0.05103186 -0.02297045
v 0.03039849 -0.05154365 -0.02297045
v 0.02980778 -0.05208511 -0.02297045
v 0.02925357 -0.05258949 -0.02297045
v 0.02821484 -0.05347585 -0.02297045
v 0.02755443 -0.05402102 -0.02297045
v 0.02694712 -0.05451427 -0.02297045
v 0.02591503 -0.05533758 -0.02297045
v 0.02514843 -0.05587904 -0.02297045
v 0.02350239 -0.05700275 -0.02297045
v 0.02338292 -0.05708063 -0.02297045
v 0.02326345 -0.05715481 -0.02297045
v 0.02241388 -0.05764064 -0.02297045
v 0.02049240 -0.05871985 -0.02297045
v 0.01945367 -0.05928727 -0.02297045
v 0.01814945 -0.05990290 -0.02297045
v 0.01714059 -0.06035165 -0.02297045
v 0.01507972 -0.06126397 -0.02297045
v 0.01485738 -0.06134556 -0.02297045
v 0.01405427 -0.06162741 -0.02297045
v 0.01189716 -0.06207616 -0.01980013
v 0.00981307 -0.06224676 -0.01562513
v 0.00933187 -0.06218000 -0.01353391
v 0.04323493 -0.03087547 -0.02295556
v 0.03961100 -0.03949803 -0.02297789
v 0.00933187 -0.05461069 -0.00527322
v 0.03366070 -0.02481186 0.00963324
v 0.03619945 -0.02481186 0.00188605
v 0.03798487 -0.04233513 -0.02297789
v 0.03585431 -0.04456401 -0.01463534
v 0.03541626 -0.04598071 -0.02188391
v 0.03531670 -0.04588058 -0.01980013
v 0.03417841 -0.04713039 -0.01770891
v 0.03426801 -0.04723052 -0.01980013
v 0.03328902 -0.04816880 -0.01770891
v 0.03335871 -0.04826893 -0.01980013
v 0.03224365 -0.04931106 -0.01770891
v 0.03140072 -0.05051265 -0.02188391
v 0.03036199 -0.05150657 -0.02188391
v 0.02921043 -0.05254869 -0.02188391
v 0.02808209 -0.05336459 -0.01980013
v 0.02689403 -0.05447718 -0.02188391
v 0.02677788 -0.05440301 -0.01980013
v 0.02585861 -0.05529308 -0.02188391
v 0.02561967 -0.05510394 -0.01770891
v 0.02552012 -0.05503718 -0.01613119
v 0.02337628 -0.05707693 -0.02285138
v 0.02249021 -0.05753309 -0.02204763
v 0.02181653 -0.05737732 -0.01562513
v 0.02041275 -0.05868276 -0.02188391
v 0.01936407 -0.05924647 -0.02188391
v 0.01814945 -0.05982873 -0.02188391
v 0.01505981 -0.06125655 -0.02274719
v 0.01412728 -0.06153099 -0.02198065
v 0.01369254 -0.06150503 -0.01980013
v 0.01189716 -0.06190927 -0.01770891
v 0.00981307 -0.06210954 -0.01353391
v 0.00933187 -0.06202053 -0.01145013
v 0.04319843 -0.03102010 -0.02295556
v 0.03950811 -0.02481186 0.00219862
v 0.03950811 -0.02481186 0.03120035
v 0.04318183 -0.03087547 -0.01980013
v 0.04314865 -0.03102010 -0.01980013
v 0.03959772 -0.03952399 -0.02297789
v 0.04254134 -0.03317853 -0.02295556
v 0.04125371 -0.03603046 -0.02295556
v 0.04068623 -0.03727285 -0.02295556
v 0.04042406 -0.03782915 -0.02295556
v 0.04010879 -0.03847816 -0.02295556
v 0.03961100 -0.03949803 -0.02295556
v 0.00933187 -0.05456990 -0.00508716
v 0.00933187 -0.05422499 -0.00314479
v 0.00933187 -0.05270446 0.00555499
v 0.03339189 -0.02481186 0.01147143
v 0.03850257 -0.04150811 -0.02297789
v 0.03852249 -0.04134492 -0.02188391
v 0.03843952 -0.04121883 -0.01980013
v 0.03755345 -0.04184188 -0.01354135
v 0.03651472 -0.04345514 -0.01354135
v 0.03642180 -0.04331050 -0.01144269
v 0.03622932 -0.04301381 -0.00727513
v 0.03549258 -0.04404852 -0.00727513
v 0.03413859 -0.04502759 -0.00103124
v 0.03445053 -0.04544667 -0.00727513
v 0.03380672 -0.04668535 -0.01017754
v 0.03397929 -0.04688933 -0.01354135
v 0.03408217 -0.04701542 -0.01562513
v 0.03522377 -0.04576190 -0.01770891
v 0.03319277 -0.04805383 -0.01562513
v 0.03215405 -0.04920722 -0.01562513
v 0.03122151 -0.05035318 -0.01770891
v 0.03131775 -0.05043106 -0.01980013
v 0.03027571 -0.05142869 -0.01980013
v 0.02912414 -0.05247081 -0.01980013
v 0.02798254 -0.05327558 -0.01770891
v 0.02665841 -0.05432142 -0.01770891
v 0.02402342 -0.05542659 -0.00937379
v 0.02430882 -0.05561944 -0.01354135
v 0.02629999 -0.05356486 -0.00728257
v 0.02617389 -0.05345360 -0.00519880
v 0.02491613 -0.05460698 -0.00728257
v 0.02270260 -0.05666156 -0.01354135
v 0.02212848 -0.05755163 -0.01980013
v 0.02165724 -0.05728461 -0.01354135
v 0.01925124 -0.05918714 -0.02046247
v 0.01833198 -0.05957283 -0.01977780
v 0.01798020 -0.05956913 -0.01770891
v 0.01779768 -0.05948383 -0.01562513
v 0.01761183 -0.05939853 -0.01353391
v 0.01741935 -0.05930581 -0.01145013
v 0.01606536 -0.05986211 -0.01145013
v 0.01343369 -0.06141973 -0.01770891
v 0.01301554 -0.06126768 -0.01429300
v 0.01189716 -0.06173497 -0.01562513
v 0.00981307 -0.06193523 -0.01145013
v 0.00933187 -0.06184622 -0.00937379
v 0.04306236 -0.03087547 -0.01770891
v 0.03899041 -0.02481186 0.03856055
v 0.04249820 -0.03288555 -0.01980013
v 0.04255462 -0.03301906 -0.02188391
v 0.04302586 -0.03102010 -0.01770891
v 0.04044065 -0.03710225 -0.01770891
v 0.04004241 -0.03834094 -0.02066341
v 0.04008224 -0.03841511 -0.02188391
v 0.03954462 -0.03949803 -0.02188391
v 0.00933187 -0.05241889 0.00730387
v 0.03318614 -0.02481186 0.01351056
v 0.00933187 -0.05234843 0.00776528
v 0.00933187 -0.05152140 0.01366684
v 0.00933187 -0.05129518 0.01562411
v 0.03835324 -0.04108532 -0.01770891
v 0.03818067 -0.04079976 -0.01354135
v 0.03746384 -0.04168612 -0.01144269
v 0.03612644 -0.04285805 -0.00519880
v 0.03528683 -0.04374812 -0.00311502
v 0.03539302 -0.04389646 -0.00519880
v 0.03330229 -0.04606972 -0.00103124
v 0.03341844 -0.04621065 -0.00311502
v 0.03401911 -0.04487925 0.00105998
v 0.03308658 -0.04793145 -0.01354135
v 0.03214077 -0.04716376 0.00105998
v 0.03225692 -0.04730098 -0.00103124
v 0.03204121 -0.04909225 -0.01354135
v 0.03110204 -0.05024934 -0.01562513
v 0.02964185 -0.05084643 -0.00805655
v 0.03017615 -0.05133968 -0.01770891
v 0.02902458 -0.05237809 -0.01770891
v 0.02891175 -0.05227796 -0.01562513
v 0.02786307 -0.05317916 -0.01562513
v 0.02774360 -0.05307532 -0.01354135
v 0.02387740 -0.05532646 -0.00728257
v 0.02603118 -0.05334605 -0.00311502
v 0.02761085 -0.05296776 -0.01145013
v 0.02753784 -0.05290843 -0.01033382
v 0.02706328 -0.05252644 -0.00311502
v 0.02338956 -0.05291214 0.01886884
v 0.02344266 -0.05503348 -0.00160428
v 0.02253335 -0.05656514 -0.01145013
v 0.02149131 -0.05719190 -0.01145013
v 0.02042935 -0.05757018 -0.00926961
v 0.01802998 -0.05879402 -0.00916542
v 0.01716714 -0.05709918 0.01281100
v 0.01710740 -0.05915376 -0.00833190
v 0.01504654 -0.05708434 0.02302896
v 0.01398790 -0.05969893 -0.00103124
v 0.01398790 -0.06008092 -0.00520624
v 0.01158189 -0.06146794 -0.01145013
v 0.01203986 -0.06151245 -0.01357112
v 0.01300558 -0.05918343 0.00862112
v 0.01189716 -0.05757388 0.03021800
v 0.01102437 -0.05713256 0.03814380
v 0.01128322 -0.06137152 -0.00937379
v 0.01103764 -0.06129735 -0.00774398
v 0.01081197 -0.06123430 -0.00635232
v 0.00981307 -0.05784461 0.03439300
v 0.00933187 -0.05930952 0.01925583
v 0.00933187 -0.06137893 -0.00406016
v 0.03881453 -0.02481186 0.04064433
v 0.03881453 -0.02684790 0.03648421
v 0.03861873 -0.02684790 0.03856055
v 0.03870169 -0.02893215 0.03230922
v 0.04240859 -0.03272978 -0.01770891
v 0.04036764 -0.03694278 -0.01562513
v 0.03821054 -0.03087547 0.03146082
v 0.03798155 -0.03214753 0.02947379
v 0.04005569 -0.03212528 0.00856158
v 0.04008888 -0.03426886 0.00051671
v 0.03800810 -0.03013374 0.03594094
v 0.03819062 -0.03068262 0.03230922
v 0.03961100 -0.03743232 -0.00937379
v 0.03851253 -0.03949803 -0.00920263
v 0.03302021 -0.02481186 0.01558689
v 0.00933187 -0.05059053 0.02354990
v 0.03847935 -0.03949803 -0.00880076
v 0.03808775 -0.04064400 -0.01144269
v 0.03801142 -0.04051048 -0.00978311
v 0.03593064 -0.04258361 -0.00147776
v 0.03389964 -0.04472349 0.00313632
v 0.03311977 -0.04598071 0.00117905
v 0.03170935 -0.04666681 0.00844995
v 0.03177572 -0.04674469 0.00731132
v 0.03176245 -0.04464931 0.02188288
v 0.03192174 -0.04897357 -0.01145013
v 0.03133766 -0.04834311 -0.00103124
v 0.03087638 -0.05001570 -0.01145013
v 0.03098921 -0.05013437 -0.01354135
v 0.03029230 -0.04940377 -0.00103124
v 0.02934981 -0.05056458 -0.00311502
v 0.02830776 -0.05148431 -0.00311502
v 0.02691394 -0.05241147 -0.00103124
v 0.02548361 -0.05083901 0.02310338
v 0.02548693 -0.05292697 0.00441635
v 0.02817502 -0.05136935 -0.00103124
v 0.02789625 -0.05113571 0.00313632
v 0.02407320 -0.05135451 0.02812678
v 0.02391390 -0.05123584 0.03021800
v 0.02280880 -0.05251532 0.02604300
v 0.02142825 -0.05299373 0.03021800
v 0.02210525 -0.05343876 0.02187544
v 0.02254995 -0.05445864 0.00939510
v 0.02137847 -0.05504089 0.01103979
v 0.02136520 -0.05711772 -0.00990218
v 0.02010080 -0.05755905 -0.00728257
v 0.01991828 -0.05745521 -0.00519880
v 0.01953995 -0.05725123 -0.00103124
v 0.01776781 -0.05533016 0.02813422
v 0.01736294 -0.05511877 0.03230922
v 0.01298235 -0.05708434 0.03142361
v 0.01313169 -0.05714368 0.03021800
v 0.01364276 -0.05734024 0.02604300
v 0.01624788 -0.05541175 0.03447486
v 0.01587951 -0.05536725 0.03647677
v 0.01201663 -0.05734766 0.03219759
v 0.01398790 -0.05572328 0.04063689
v 0.01083520 -0.05705839 0.03953546
v 0.00981307 -0.05765177 0.03647677
v 0.00933187 -0.05775561 0.03647677
v 0.03859218 -0.02481186 0.04273555
v 0.03806783 -0.02632127 0.04481933
v 0.03839970 -0.02684790 0.04064433
v 0.03815744 -0.02695545 0.04271323
v 0.03798487 -0.02799757 0.04200623
v 0.03849594 -0.02893215 0.03439300
v 0.04016521 -0.03444688 -0.00103124
v 0.04035768 -0.03491416 -0.00519880
v 0.04062649 -0.03518860 -0.00937379
v 0.04080902 -0.03518860 -0.01145013
v 0.04019839 -0.03657934 -0.01145013
v 0.04028468 -0.03676106 -0.01353391
v 0.03805124 -0.03232554 0.02812678
v 0.03640188 -0.03310436 0.04064433
v 0.03587090 -0.03416131 0.04173831
v 0.03593396 -0.03429853 0.04064433
v 0.03815080 -0.03260740 0.02604300
v 0.03798819 -0.03423178 0.02122798
v 0.03628241 -0.03504768 0.03438556
v 0.03813421 -0.03660159 0.00939510
v 0.03823045 -0.02909904 0.03657352
v 0.03648485 -0.03087547 0.04690311
v 0.03643507 -0.03102010 0.04690311
v 0.03609657 -0.03264078 0.04481189
v 0.04010547 -0.03639020 -0.00937379
v 0.04005569 -0.03626781 -0.00815330
v 0.03825036 -0.03680927 0.00730387
v 0.03836651 -0.03907154 -0.00519880
v 0.03847271 -0.03925326 -0.00728257
v 0.00933187 -0.05055345 0.02398899
v 0.03286423 -0.02481186 0.01767812
v 0.03631560 -0.04114837 0.00313632
v 0.03642180 -0.04132638 0.00105998
v 0.03620277 -0.04096664 0.00522010
v 0.03609325 -0.04077751 0.00731132
v 0.03383991 -0.04049565 0.02971938
v 0.03335871 -0.04184930 0.02605044
v 0.03183214 -0.04266149 0.03438556
v 0.03120492 -0.04820589 0.00105998
v 0.02949583 -0.04598071 0.03076127
v 0.02929339 -0.04629224 0.03021800
v 0.03169607 -0.04457143 0.02293966
v 0.02966840 -0.04878814 0.00878485
v 0.03016287 -0.04927397 0.00105998
v 0.02921706 -0.05044590 -0.00103124
v 0.02755111 -0.04875848 0.02518716
v 0.02615729 -0.04937411 0.03021800
v 0.02495595 -0.05041623 0.03021800
v 0.02753452 -0.05082047 0.00839786
v 0.02359200 -0.05099107 0.03438556
v 0.02246698 -0.05227796 0.03021800
v 0.02132206 -0.05292326 0.03146082
v 0.02039616 -0.05340909 0.03220503
v 0.02042935 -0.05447718 0.02187544
v 0.01945367 -0.05493334 0.02305129
v 0.01926119 -0.05502235 0.02328943
v 0.01945367 -0.05513361 0.02110146
v 0.01840499 -0.05456248 0.03230922
v 0.01720696 -0.05503718 0.03382740
v 0.01538172 -0.05514844 0.04063689
v 0.01416378 -0.05540805 0.04284718
v 0.01375227 -0.05533758 0.04481189
v 0.01189716 -0.05601255 0.04481189
v 0.01189716 -0.05574553 0.04690311
v 0.00933187 -0.05668752 0.04636728
v 0.00933187 -0.05691745 0.04455142
v 0.00933187 -0.05716222 0.04251229
v 0.00933187 -0.05722898 0.04193925
v 0.00958408 -0.05729574 0.04063689
v 0.01000887 -0.05737732 0.03872428
v 0.00933187 -0.05735878 0.04063689
v 0.03836983 -0.02481186 0.04481933
v 0.03799150 -0.02596895 0.04610681
v 0.03780898 -0.02736340 0.04481933
v 0.03789858 -0.02771943 0.04339790
v 0.03709548 -0.02893215 0.04690311
v 0.03616626 -0.03480661 0.03647677
v 0.03614967 -0.03319336 0.04254950
v 0.03589414 -0.03212528 0.04813849
v 0.03554236 -0.03336025 0.04690311
v 0.03468616 -0.03518860 0.04690311
v 0.03535652 -0.03499205 0.04254950
v 0.03542621 -0.03534066 0.04064433
v 0.03593064 -0.03635682 0.03187757
v 0.03632556 -0.03538516 0.03245806
v 0.03624591 -0.03087547 0.04867432
v 0.03579790 -0.03186196 0.04953016
v 0.03624923 -0.03740636 0.02380294
v 0.03587090 -0.03832610 0.02298431
v 0.00933187 -0.05053491 0.02438342
v 0.03251909 -0.02481186 0.02396666
v 0.03261534 -0.02481186 0.02189032
v 0.03273149 -0.02481186 0.01979910
v 0.03433106 -0.03923101 0.03230177
v 0.03323592 -0.04167129 0.02813422
v 0.03345495 -0.03949803 0.03855311
v 0.03333880 -0.03968346 0.03855311
v 0.03229675 -0.04125963 0.03855311
v 0.03174254 -0.04255394 0.03581443
v 0.03005999 -0.04509435 0.03230177
v 0.02979119 -0.04477911 0.03647677
v 0.02915069 -0.04614018 0.03229433
v 0.02796594 -0.04707846 0.03438556
v 0.02810864 -0.04722681 0.03229433
v 0.02824471 -0.04737145 0.03021800
v 0.03096930 -0.04370732 0.03438556
v 0.02704668 -0.04826893 0.03229433
v 0.02586525 -0.04910708 0.03438556
v 0.02601459 -0.04924059 0.03229433
v 0.02463736 -0.05014921 0.03438556
v 0.02346589 -0.05089093 0.03603025
v 0.02220481 -0.05145094 0.03854567
v 0.02045590 -0.05236326 0.04063689
v 0.01945367 -0.05300485 0.04063689
v 0.02000788 -0.05340538 0.03438556
v 0.01926783 -0.05294922 0.04205833
v 0.01831870 -0.05338684 0.04274299
v 0.01642709 -0.05462552 0.04063689
v 0.01594920 -0.05459586 0.04284718
v 0.01517596 -0.05505572 0.04222949
v 0.01498017 -0.05496672 0.04362116
v 0.01479100 -0.05487771 0.04481189
v 0.01337063 -0.05517811 0.04690311
v 0.01200336 -0.05535612 0.04897200
v 0.00981307 -0.05613865 0.04898689
v 0.00981307 -0.05645017 0.04690311
v 0.00933187 -0.05637229 0.04836176
v 0.03811761 -0.02481186 0.04682125
v 0.03811098 -0.02481186 0.04687334
v 0.03788863 -0.02547571 0.04749847
v 0.03732778 -0.02684790 0.04898689
v 0.03768619 -0.02673664 0.04684357
v 0.03678685 -0.02893215 0.04898689
v 0.03544280 -0.03293376 0.04889758
v 0.03428128 -0.03534437 0.04904643
v 0.03386314 -0.03639020 0.04838408
v 0.03396601 -0.03660530 0.04690311
v 0.03424810 -0.03712822 0.04272811
v 0.03431115 -0.03747683 0.04081550
v 0.03545608 -0.03714305 0.03245806
v 0.03620940 -0.03086805 0.04890502
v 0.03596383 -0.03087547 0.05027437
v 0.03484545 -0.03310436 0.05107067
v 0.03410540 -0.03477694 0.05107067
v 0.03409212 -0.03884531 0.03647677
v 0.03421159 -0.03904187 0.03438556
v 0.00933187 -0.05046073 0.02604300
v 0.00933187 -0.05043106 0.02674255
v 0.03204121 -0.02481186 0.03655864
v 0.03396601 -0.03863763 0.03855311
v 0.03386314 -0.03845590 0.04023502
v 0.03342176 -0.03949803 0.03880614
v 0.03333216 -0.03949803 0.03948337
v 0.03216068 -0.04106307 0.04064433
v 0.03126797 -0.04190122 0.04272811
v 0.03007659 -0.04304348 0.04481189
v 0.03022593 -0.04322891 0.04272811
v 0.02968499 -0.04464931 0.03803961
v 0.02900799 -0.04598071 0.03438556
v 0.02689735 -0.04812430 0.03438556
v 0.02781329 -0.04693012 0.03646933
v 0.02570596 -0.04896616 0.03646933
v 0.02546038 -0.04873993 0.03964709
v 0.02334974 -0.05079080 0.03741447
v 0.02199574 -0.05132114 0.04063689
v 0.02178335 -0.05116908 0.04272067
v 0.02156763 -0.05101703 0.04481189
v 0.02139838 -0.05089835 0.04638216
v 0.01912513 -0.05282684 0.04344999
v 0.01731316 -0.05301598 0.04898689
v 0.01715718 -0.05293068 0.05010320
v 0.01441268 -0.05471453 0.04690311
v 0.01386511 -0.05458102 0.04897200
v 0.01308523 -0.05504831 0.04826501
v 0.01276664 -0.05491480 0.04965667
v 0.01137614 -0.05520778 0.05066879
v 0.00998232 -0.05549334 0.05124183
v 0.00933187 -0.05568248 0.05119718
v 0.00933187 -0.05627215 0.04895712
v 0.03795500 -0.02481186 0.04789290
v 0.03776252 -0.02481186 0.04899433
v 0.03775588 -0.02481186 0.04903154
v 0.03686981 -0.02684790 0.05107067
v 0.03603020 -0.03047123 0.05057949
v 0.03373703 -0.03614172 0.04977574
v 0.03331888 -0.03715788 0.04904643
v 0.03340849 -0.03764372 0.04690311
v 0.03376358 -0.03830014 0.04162668
v 0.03575143 -0.03086805 0.05096648
v 0.03558551 -0.03110911 0.05118974
v 0.03562865 -0.03087547 0.05133114
v 0.03389632 -0.03438383 0.05223163
v 0.03354787 -0.03582278 0.05107067
v 0.00933187 -0.05026047 0.03230922
v 0.03196820 -0.02481186 0.03856055
v 0.03175913 -0.04049565 0.04624821
v 0.03185869 -0.04064770 0.04481189
v 0.03228347 -0.03949803 0.04692544
v 0.03111864 -0.04168983 0.04481189
v 0.02989074 -0.04281354 0.04690311
v 0.02920047 -0.04408189 0.04481189
v 0.02935313 -0.04427103 0.04272811
v 0.02885533 -0.04581753 0.03647677
v 0.02865290 -0.04598071 0.03683399
v 0.02756107 -0.04668535 0.03980338
v 0.02674469 -0.04797224 0.03646933
v 0.02613406 -0.04730469 0.04481189
v 0.02500573 -0.04834682 0.04481189
v 0.02414952 -0.04937040 0.04272067
v 0.02396368 -0.04921093 0.04481189
v 0.02282539 -0.05040882 0.04272067
v 0.02260968 -0.05025305 0.04481189
v 0.02218822 -0.05020855 0.04700730
v 0.02124573 -0.05077597 0.04777383
v 0.02003443 -0.05136193 0.04897944
v 0.01945367 -0.05172909 0.04898689
v 0.01835853 -0.05241147 0.04898689
v 0.01945367 -0.05135822 0.05071345
v 0.01967934 -0.05113941 0.05105578
v 0.01945367 -0.05127663 0.05104834
v 0.01937734 -0.05094656 0.05222419
v 0.01666935 -0.05264512 0.05149486
v 0.01601226 -0.05319028 0.05090694
v 0.01398790 -0.05400618 0.05107067
v 0.01078211 -0.05495188 0.05205301
v 0.00933187 -0.05520036 0.05223163
v 0.03727800 -0.02481186 0.05107067
v 0.03601692 -0.02841665 0.05226883
v 0.03580453 -0.02980738 0.05197116
v 0.03626250 -0.02903970 0.05119718
v 0.03271821 -0.03727285 0.05107067
v 0.03191179 -0.03865617 0.05107067
v 0.03219719 -0.03907525 0.04898689
v 0.03413195 -0.03310436 0.05241768
v 0.03278790 -0.03512185 0.05263350
v 0.03204785 -0.03727285 0.05238047
v 0.03174254 -0.03838173 0.05215720
v 0.00933187 -0.05021967 0.03439300
v 0.03192174 -0.02481186 0.04064433
v 0.03162638 -0.04032876 0.04763987
v 0.03104563 -0.04129301 0.04692544
v 0.02897480 -0.04385196 0.04690311
v 0.02972149 -0.04261328 0.04841385
v 0.02815510 -0.04523899 0.04481189
v 0.02716615 -0.04628111 0.04481189
v 0.02592167 -0.04710443 0.04689567
v 0.02479666 -0.04815026 0.04689567
v 0.02375129 -0.04904775 0.04689567
v 0.02355217 -0.04888828 0.04861478
v 0.02107648 -0.05066100 0.04897944
v 0.02071807 -0.05039027 0.05105578
v 0.02166388 -0.04902549 0.05234326
v 0.01945367 -0.05082047 0.05226139
v 0.01814945 -0.05124325 0.05243257
v 0.01527884 -0.05302340 0.05223163
v 0.02208866 -0.04935186 0.05105578
v 0.02532764 -0.04653330 0.05171812
v 0.01398790 -0.05329784 0.05242512
v 0.00939160 -0.05516328 0.05226883
v 0.00933187 -0.05517440 0.05227628
v 0.03726141 -0.02481186 0.05110043
v 0.03622600 -0.02684790 0.05243257
v 0.03456337 -0.03086805 0.05265583
v 0.03132107 -0.03949803 0.05123439
v 0.03137085 -0.03949803 0.05107067
v 0.03149032 -0.04012108 0.04897944
v 0.03124142 -0.03970200 0.05106323
v 0.03452022 -0.03102010 0.05264839
v 0.03273812 -0.03310436 0.05299072
v 0.03066067 -0.03727285 0.05293862
v 0.03062748 -0.03919021 0.05255164
v 0.03049142 -0.03949803 0.05252187
v 0.02990734 -0.04081088 0.05237302
v 0.03020270 -0.04118174 0.05106323
v 0.00933187 -0.05017517 0.04329371
v 0.03188856 -0.02481186 0.04481933
v 0.03034871 -0.04161195 0.04905387
v 0.02887193 -0.04339951 0.04905387
v 0.02792944 -0.04500534 0.04690311
v 0.02955556 -0.04242414 0.04979807
v 0.02701350 -0.04598071 0.04689567
v 0.02552675 -0.04672615 0.05032646
v 0.02336633 -0.04873251 0.04999156
v 0.02393713 -0.04707846 0.05240279
v 0.02014394 -0.04974497 0.05255908
v 0.01945367 -0.04975609 0.05269304
v 0.01814945 -0.04977464 0.05294606
v 0.02313071 -0.04853225 0.05105578
v 0.02734204 -0.04437117 0.05147998
v 0.02797258 -0.04298785 0.05240279
v 0.02557985 -0.04598071 0.05199348
v 0.02754448 -0.04458627 0.05008831
v 0.01398790 -0.05186259 0.05287909
v 0.01189716 -0.05369837 0.05257396
v 0.00933187 -0.05449201 0.05255908
v 0.03642180 -0.02481186 0.05255164
v 0.03638861 -0.02481186 0.05256652
v 0.03482554 -0.02684790 0.05302793
v 0.03499479 -0.02903970 0.05271536
v 0.03482554 -0.02481186 0.05305025
v 0.02857657 -0.03936081 0.05298328
v 0.02862967 -0.04148214 0.05267815
v 0.02938300 -0.04222758 0.05106323
v 0.00933187 -0.05017888 0.04481189
v 0.00933187 -0.05022709 0.04690311
v 0.03189519 -0.02481186 0.04513190
v 0.02699027 -0.04598071 0.04699986
v 0.02595817 -0.04513885 0.05241024
v 0.02454444 -0.04574707 0.05267815
v 0.02428227 -0.04598071 0.05267815
v 0.02234751 -0.04773860 0.05265583
v 0.01945367 -0.04847662 0.05295350
v 0.02818497 -0.04361832 0.05089205
v 0.01189716 -0.05186259 0.05280467
v 0.00933187 -0.05407665 0.05267815
v 0.03478572 -0.02481186 0.05304281
v 0.00933187 -0.05243373 0.05261861
v 0.02658539 -0.04361832 0.05268559
v 0.00933187 -0.05029755 0.04898689
v 0.03194497 -0.02481186 0.04696264
v 0.03327242 -0.02481186 0.05261117
v 0.00933187 -0.05198127 0.05252187
v 0.00933187 -0.05034206 0.04941853
v 0.03194829 -0.02481186 0.04704451
v 0.03324919 -0.02481186 0.05257396
v 0.00933187 -0.05114683 0.05165859
v 0.00933187 -0.05061650 0.05067623
v 0.03251246 -0.02481186 0.05107067
v 0.03213413 -0.02481186 0.04898689
v 0.03212750 -0.02481186 0.04893480
v 0.00933187 -0.05076484 0.05098880
v 0.00933187 -0.05110233 0.05159161
f 1 2 3
f 1 3 4
f 1 4 5
f 1 5 6
f 1 6 7
f 1 7 41
f 1 41 76
f 1 76 134
f 1 134 195
f 1 195 194
f 1 194 255
f 1 255 326
f 1 326 323
f 1 323 322
f 1 322 321
f 1 321 320
f 1 320 382
f 1 382 434
f 1 434 433
f 1 433 481
f 1 481 515
f 1 515 550
f 1 550 570
f 1 570 572
f 1 572 577
f 1 577 581
f 1 581 587
f 1 587 586
f 1 586 582
f 1 582 578
f 1 578 574
f 1 574 560
f 1 560 559
f 1 559 530
f 1 530 493
f 1 493 449
f 1 449 403
f 1 403 402
f 1 402 345
f 1 345 285
f 1 285 211
f 1 211 148
f 1 148 147
f 1 147 146
f 1 146 144
f 1 144 91
f 1 91 90
f 1 90 89
f 1 89 44
f 1 44 10
f 1 10 2
f 2 8 9
f 2 9 3
f 2 10 11
f 2 11 12
f 2 12 8
f 3 9 43
f 3 43 82
f 3 82 93
f 3 93 47
f 3 47 13
f 3 13 4
f 4 13 14
f 4 14 15
f 4 15 16
f 4 16 17
f 4 17 18
f 4 18 19
f 4 19 20
f 4 20 21
f 4 21 22
f 4 22 23
f 4 23 24
f 4 24 25
f 4 25 26
f 4 26 27
f 4 27 28
f 4 28 29
f 4 29 30
f 4 30 31
f 4 31 32
f 4 32 33
f 4 33 34
f 4 34 35
f 4 35 36
f 4 36 37
f 4 37 38
f 4 38 5
f 5 38 6
f 6 39 40
f 6 40 7
f 6 38 39
f 7 40 41
f 8 42 43
f 8 43 9
f 8 12 46
f 8 46 42
f 10 44 45
f 10 45 11
f 11 45 92
f 11 92 145
f 11 145 210
f 11 210 286
f 11 286 348
f 11 348 347
f 11 347 346
f 11 346 404
f 11 404 450
f 11 450 494
f 11 494 531
f 11 531 561
f 11 561 575
f 11 575 579
f 11 579 585
f 11 585 584
f 11 584 583
f 11 583 580
f 11 580 576
f 11 576 571
f 11 571 555
f 11 555 552
f 11 552 551
f 11 551 516
f 11 516 482
f 11 482 437
f 11 437 436
f 11 436 435
f 11 435 384
f 11 384 383
f 11 383 327
f 11 327 256
f 11 256 196
f 11 196 136
f 11 136 79
f 11 79 78
f 11 78 46
f 11 46 12
f 13 47 48
f 13 48 14
f 14 48 49
f 14 49 50
f 14 50 51
f 14 51 52
f 14 52 15
f 15 52 53
f 15 53 54
f 15 54 16
f 16 54 55
f 16 55 17
f 17 55 18
f 18 55 56
f 18 56 19
f 19 56 57
f 19 57 20
f 20 57 21
f 21 57 22
f 22 57 58
f 22 58 59
f 22 59 23
f 23 59 24
f 24 59 25
f 25 59 60
f 25 60 26
f 26 60 61
f 26 61 62
f 26 62 27
f 27 62 63
f 27 63 64
f 27 64 28
f 28 65 29
f 28 64 65
f 29 65 30
f 30 66 31
f 30 65 67
f 30 67 66
f 31 66 32
f 32 66 68
f 32 68 33
f 33 68 69
f 33 69 70
f 33 70 34
f 34 70 35
f 35 70 36
f 36 70 71
f 36 71 37
f 37 71 72
f 37 72 38
f 38 72 39
f 39 72 73
f 39 73 74
f 39 74 75
f 39 75 40
f 40 75 41
f 41 75 76
f 42 77 43
f 42 46 78
f 42 78 79
f 42 79 80
f 42 80 81
f 42 81 77
f 43 77 83
f 43 83 84
f 43 84 85
f 43 85 86
f 43 86 87
f 43 87 88
f 43 88 82
f 44 89 45
f 45 89 90
f 45 90 91
f 45 91 92
f 47 93 94
f 47 94 95
f 47 95 96
f 47 96 97
f 47 97 48
f 48 97 98
f 48 98 99
f 48 99 100
f 48 100 101
f 48 101 102
f 48 102 103
f 48 103 104
f 48 104 105
f 48 105 106
f 48 106 50
f 48 50 49
f 50 106 51
f 51 106 105
f 51 105 107
f 51 107 53
f 51 53 52
f 53 107 108
f 53 108 55
f 53 55 54
f 55 108 109
f 55 109 110
f 55 110 56
f 56 110 111
f 56 111 57
f 57 111 112
f 57 112 58
f 58 112 59
f 59 112 113
f 59 113 61
f 59 61 60
f 61 113 114
f 61 114 62
f 62 114 63
f 63 114 64
f 64 115 116
f 64 116 65
f 64 114 117
f 64 117 118
f 64 118 119
f 64 119 115
f 65 116 115
f 65 115 120
f 65 120 67
f 66 121 68
f 66 67 121
f 67 120 122
f 67 122 68
f 67 68 121
f 68 122 123
f 68 123 69
f 69 123 70
f 70 123 124
f 70 124 125
f 70 125 126
f 70 126 71
f 71 126 127
f 71 127 128
f 71 128 129
f 71 129 130
f 71 130 73
f 71 73 72
f 73 130 74
f 74 130 131
f 74 131 132
f 74 132 133
f 74 133 75
f 75 133 76
f 76 133 134
f 77 81 83
f 79 135 80
f 79 136 135
f 80 135 81
f 81 137 138
f 81 138 83
f 81 135 139
f 81 139 137
f 82 88 93
f 83 138 84
f 84 138 137
f 84 137 85
f 85 137 140
f 85 140 141
f 85 141 86
f 86 141 142
f 86 142 87
f 87 142 88
f 88 142 143
f 88 143 93
f 91 144 92
f 92 144 146
f 92 146 147
f 92 147 148
f 92 148 145
f 93 143 94
f 94 143 95
f 95 143 149
f 95 149 96
f 96 149 150
f 96 150 151
f 96 151 98
f 96 98 97
f 98 151 99
f 99 152 153
f 99 153 154
f 99 154 100
f 99 151 152
f 100 154 101
f 101 155 156
f 101 156 103
f 101 103 102
f 101 154 153
f 101 153 157
f 101 157 155
f 103 158 104
f 103 156 159
f 103 159 160
f 103 160 158
f 104 158 107
f 104 107 105
f 107 158 161
f 107 161 108
f 108 162 109
f 108 161 224
f 108 224 162
f 109 162 163
f 109 163 164
f 109 164 111
f 109 111 110
f 111 164 112
f 112 164 165
f 112 165 113
f 113 165 166
f 113 166 167
f 113 167 114
f 114 167 168
f 114 168 117
f 115 119 169
f 115 169 120
f 117 168 118
f 118 170 119
f 118 168 171
f 118 171 172
f 118 172 173
f 118 173 170
f 119 170 174
f 119 174 175
f 119 175 169
f 120 169 176
f 120 176 177
f 120 177 122
f 122 177 123
f 123 177 178
f 123 178 179
f 123 179 127
f 123 127 126
f 123 126 124
f 124 126 125
f 127 179 128
f 128 179 180
f 128 180 181
f 128 181 129
f 129 181 182
f 129 182 183
f 129 183 184
f 129 184 130
f 130 184 131
f 131 185 186
f 131 186 132
f 131 184 187
f 131 187 188
f 131 188 189
f 131 189 185
f 132 186 185
f 132 185 133
f 133 185 190
f 133 190 191
f 133 191 192
f 133 192 193
f 133 193 194
f 133 194 195
f 133 195 134
f 135 136 196
f 135 196 197
f 135 197 198
f 135 198 199
f 135 199 139
f 137 139 200
f 137 200 201
f 137 201 140
f 139 202 203
f 139 203 204
f 139 204 205
f 139 205 200
f 139 199 206
f 139 206 207
f 139 207 202
f 140 201 141
f 141 143 142
f 141 201 143
f 143 201 208
f 143 208 209
f 143 209 150
f 143 150 149
f 145 148 210
f 148 211 210
f 150 209 212
f 150 212 213
f 150 213 151
f 151 213 214
f 151 214 215
f 151 215 152
f 152 215 153
f 153 215 216
f 153 216 157
f 155 157 217
f 155 217 218
f 155 218 219
f 155 219 159
f 155 159 156
f 157 216 220
f 157 220 217
f 158 221 161
f 158 160 222
f 158 222 221
f 159 219 222
f 159 222 160
f 161 221 223
f 161 223 224
f 162 224 163
f 163 168 166
f 163 166 164
f 163 224 223
f 163 223 225
f 163 225 226
f 163 226 227
f 163 227 168
f 164 166 165
f 166 168 167
f 168 227 171
f 169 175 176
f 170 173 228
f 170 228 229
f 170 229 230
f 170 230 174
f 171 227 172
f 172 227 173
f 173 227 231
f 173 231 232
f 173 232 229
f 173 229 228
f 174 233 234
f 174 234 235
f 174 235 236
f 174 236 237
f 174 237 175
f 174 230 233
f 175 238 239
f 175 239 176
f 175 237 238
f 176 240 177
f 176 239 240
f 177 240 178
f 178 240 241
f 178 241 179
f 179 241 242
f 179 242 243
f 179 243 244
f 179 244 180
f 180 182 181
f 180 244 245
f 180 245 182
f 182 246 247
f 182 247 248
f 182 248 183
f 182 245 249
f 182 249 250
f 182 250 246
f 183 187 184
f 183 248 187
f 185 189 190
f 187 248 247
f 187 247 246
f 187 246 188
f 188 246 251
f 188 251 189
f 189 252 253
f 189 253 254
f 189 254 193
f 189 193 190
f 189 251 246
f 189 246 252
f 190 193 191
f 191 193 192
f 193 254 255
f 193 255 194
f 196 256 257
f 196 257 258
f 196 258 198
f 196 198 197
f 198 258 259
f 198 259 260
f 198 260 199
f 199 260 261
f 199 261 206
f 200 205 262
f 200 262 263
f 200 263 264
f 200 264 265
f 200 265 266
f 200 266 267
f 200 267 201
f 201 267 208
f 202 207 203
f 203 268 205
f 203 205 204
f 203 207 206
f 203 206 269
f 203 269 270
f 203 270 271
f 203 271 268
f 205 268 272
f 205 272 273
f 205 273 274
f 205 274 275
f 205 275 262
f 206 261 276
f 206 276 260
f 206 260 277
f 206 277 278
f 206 278 279
f 206 279 269
f 208 267 266
f 208 266 280
f 208 280 281
f 208 281 282
f 208 282 283
f 208 283 284
f 208 284 212
f 208 212 209
f 210 211 285
f 210 285 286
f 212 214 213
f 212 284 214
f 214 284 283
f 214 283 287
f 214 287 288
f 214 288 215
f 215 288 287
f 215 287 289
f 215 289 290
f 215 290 291
f 215 291 292
f 215 292 216
f 216 292 293
f 216 293 220
f 217 220 218
f 218 294 222
f 218 222 219
f 218 220 295
f 218 295 296
f 218 296 294
f 220 297 295
f 220 293 297
f 221 222 225
f 221 225 223
f 222 294 298
f 222 298 299
f 222 299 225
f 225 299 300
f 225 300 226
f 226 300 231
f 226 231 227
f 229 301 302
f 229 302 303
f 229 303 234
f 229 234 233
f 229 233 230
f 229 232 304
f 229 304 301
f 231 300 232
f 232 300 301
f 232 301 304
f 234 303 305
f 234 305 235
f 235 306 236
f 235 305 306
f 236 306 307
f 236 307 308
f 236 308 309
f 236 309 239
f 236 239 237
f 237 239 238
f 239 309 310
f 239 310 311
f 239 311 312
f 239 312 240
f 240 312 241
f 241 312 242
f 242 312 243
f 243 312 311
f 243 311 244
f 244 311 313
f 244 313 245
f 245 313 314
f 245 314 249
f 246 250 315
f 246 315 252
f 249 314 250
f 250 314 315
f 252 315 316
f 252 316 253
f 253 316 317
f 253 317 318
f 253 318 319
f 253 319 320
f 253 320 321
f 253 321 322
f 253 322 323
f 253 323 324
f 253 324 325
f 253 325 254
f 254 325 324
f 254 324 326
f 254 326 255
f 256 327 257
f 257 327 328
f 257 328 329
f 257 329 330
f 257 330 259
f 257 259 258
f 259 330 260
f 260 330 331
f 260 331 277
f 260 276 261
f 262 275 281
f 262 281 263
f 263 281 264
f 264 281 265
f 265 281 280
f 265 280 266
f 268 271 332
f 268 332 273
f 268 273 272
f 269 279 333
f 269 333 270
f 270 333 279
f 270 279 334
f 270 334 335
f 270 335 336
f 270 336 337
f 270 337 338
f 270 338 271
f 271 338 332
f 273 332 274
f 274 332 339
f 274 339 340
f 274 340 275
f 275 339 282
f 275 282 281
f 275 340 339
f 277 331 341
f 277 341 342
f 277 342 334
f 277 334 278
f 278 334 279
f 282 339 343
f 282 343 344
f 282 344 283
f 283 344 287
f 285 345 346
f 285 346 347
f 285 347 348
f 285 348 286
f 287 344 289
f 289 344 290
f 290 344 349
f 290 349 291
f 291 350 292
f 291 349 351
f 291 351 352
f 291 352 353
f 291 353 350
f 292 350 354
f 292 354 293
f 293 354 297
f 294 296 298
f 295 297 355
f 295 355 356
f 295 356 357
f 295 357 296
f 296 357 358
f 296 358 359
f 296 359 360
f 296 360 298
f 297 354 361
f 297 361 355
f 298 300 299
f 298 360 301
f 298 301 300
f 301 360 359
f 301 359 358
f 301 358 362
f 301 362 363
f 301 363 364
f 301 364 302
f 302 364 303
f 303 364 363
f 303 363 365
f 303 365 366
f 303 366 305
f 305 366 306
f 306 366 307
f 307 366 367
f 307 367 368
f 307 368 369
f 307 369 370
f 307 370 308
f 308 311 310
f 308 310 309
f 308 370 311
f 311 370 313
f 313 370 371
f 313 371 372
f 313 372 314
f 314 373 315
f 314 372 373
f 315 373 374
f 315 374 375
f 315 375 316
f 316 375 376
f 316 376 317
f 317 376 377
f 317 377 378
f 317 378 319
f 317 319 318
f 319 378 379
f 319 379 380
f 319 380 381
f 319 381 320
f 320 381 380
f 320 380 382
f 323 326 324
f 327 383 328
f 328 383 384
f 328 384 385
f 328 385 386
f 328 386 387
f 328 387 329
f 329 387 331
f 329 331 330
f 331 388 341
f 331 387 388
f 332 338 339
f 334 342 389
f 334 389 335
f 335 389 336
f 336 389 390
f 336 390 391
f 336 391 392
f 336 392 393
f 336 393 337
f 337 393 338
f 338 393 394
f 338 394 339
f 339 344 343
f 339 394 395
f 339 395 344
f 341 388 396
f 341 396 342
f 342 397 398
f 342 398 399
f 342 399 389
f 342 396 388
f 342 388 397
f 344 395 400
f 344 400 401
f 344 401 349
f 345 402 346
f 346 402 403
f 346 403 404
f 349 401 351
f 350 353 354
f 351 401 400
f 351 400 405
f 351 405 406
f 351 406 407
f 351 407 352
f 352 407 408
f 352 408 409
f 352 409 353
f 353 409 354
f 354 409 410
f 354 410 411
f 354 411 412
f 354 412 413
f 354 413 356
f 354 356 361
f 355 361 356
f 356 413 414
f 356 414 357
f 357 414 358
f 358 415 362
f 358 414 416
f 358 416 415
f 362 415 363
f 363 415 417
f 363 417 365
f 365 417 418
f 365 418 366
f 366 418 419
f 366 419 367
f 367 419 420
f 367 420 368
f 368 420 421
f 368 421 422
f 368 422 371
f 368 371 369
f 369 371 370
f 371 422 423
f 371 423 424
f 371 424 372
f 372 374 373
f 372 424 425
f 372 425 374
f 374 376 375
f 374 425 426
f 374 426 376
f 376 426 377
f 377 427 378
f 377 426 427
f 378 427 426
f 378 426 428
f 378 428 429
f 378 429 379
f 379 429 430
f 379 430 431
f 379 431 380
f 380 431 432
f 380 432 433
f 380 433 434
f 380 434 382
f 384 435 385
f 385 435 436
f 385 436 437
f 385 437 386
f 386 437 438
f 386 438 388
f 386 388 387
f 388 438 439
f 388 439 397
f 389 399 390
f 390 399 440
f 390 440 391
f 391 440 441
f 391 441 442
f 391 442 392
f 392 442 393
f 393 443 406
f 393 406 394
f 393 442 443
f 394 406 405
f 394 405 395
f 395 405 400
f 397 439 398
f 398 439 444
f 398 444 445
f 398 445 446
f 398 446 447
f 398 447 399
f 399 447 448
f 399 448 440
f 403 449 450
f 403 450 404
f 406 408 407
f 406 443 408
f 408 451 452
f 408 452 409
f 408 443 453
f 408 453 451
f 409 452 410
f 410 452 454
f 410 454 411
f 411 454 455
f 411 455 456
f 411 456 457
f 411 457 412
f 412 457 413
f 413 458 414
f 413 457 458
f 414 458 459
f 414 459 460
f 414 460 416
f 415 416 461
f 415 461 417
f 416 460 461
f 417 461 418
f 418 461 460
f 418 460 462
f 418 462 463
f 418 463 464
f 418 464 419
f 419 464 465
f 419 465 466
f 419 466 420
f 420 466 421
f 421 466 422
f 422 466 467
f 422 467 423
f 423 467 468
f 423 468 469
f 423 469 424
f 424 469 470
f 424 470 471
f 424 471 472
f 424 472 425
f 425 472 426
f 426 472 471
f 426 471 473
f 426 473 474
f 426 474 475
f 426 475 476
f 426 476 477
f 426 477 478
f 426 478 479
f 426 479 430
f 426 430 428
f 428 430 429
f 430 479 431
f 431 479 480
f 431 480 432
f 432 480 433
f 433 480 481
f 437 482 438
f 438 482 483
f 438 483 484
f 438 484 485
f 438 485 439
f 439 485 484
f 439 484 446
f 439 446 444
f 440 448 486
f 440 486 487
f 440 487 488
f 440 488 441
f 441 488 442
f 442 488 453
f 442 453 443
f 444 446 445
f 446 484 447
f 447 484 483
f 447 483 489
f 447 489 490
f 447 490 491
f 447 491 492
f 447 492 448
f 448 492 486
f 449 493 494
f 449 494 450
f 451 454 452
f 451 453 495
f 451 495 496
f 451 496 454
f 453 488 495
f 454 496 455
f 455 497 456
f 455 496 498
f 455 498 497
f 456 499 457
f 456 497 499
f 457 499 459
f 457 459 458
f 459 499 460
f 460 499 500
f 460 500 462
f 462 500 501
f 462 501 502
f 462 502 463
f 463 502 503
f 463 503 465
f 463 465 464
f 465 503 467
f 465 467 466
f 467 503 468
f 468 504 469
f 468 503 504
f 469 504 505
f 469 505 470
f 470 505 474
f 470 474 473
f 470 473 471
f 474 505 506
f 474 506 476
f 474 476 475
f 476 507 508
f 476 508 509
f 476 509 510
f 476 510 477
f 476 506 511
f 476 511 512
f 476 512 507
f 477 510 478
f 478 510 479
f 479 510 480
f 480 510 513
f 480 513 514
f 480 514 515
f 480 515 481
f 482 516 517
f 482 517 483
f 483 517 518
f 483 518 489
f 486 492 487
f 487 492 519
f 487 519 520
f 487 520 488
f 488 521 495
f 488 520 522
f 488 522 521
f 489 518 523
f 489 523 490
f 490 523 524
f 490 524 525
f 490 525 526
f 490 526 491
f 491 526 527
f 491 527 492
f 492 527 528
f 492 528 529
f 492 529 519
f 493 530 531
f 493 531 494
f 495 521 532
f 495 532 496
f 496 532 498
f 497 498 533
f 497 533 534
f 497 534 499
f 498 532 535
f 498 535 533
f 499 534 536
f 499 536 500
f 500 536 501
f 501 536 537
f 501 537 502
f 502 537 504
f 502 504 503
f 504 537 538
f 504 538 505
f 505 538 506
f 506 538 511
f 507 512 539
f 507 539 540
f 507 540 508
f 508 540 509
f 509 513 510
f 509 540 541
f 509 541 542
f 509 542 513
f 511 538 543
f 511 543 512
f 512 544 528
f 512 528 545
f 512 545 546
f 512 546 539
f 512 543 538
f 512 538 537
f 512 537 547
f 512 547 544
f 513 515 514
f 513 542 548
f 513 548 549
f 513 549 515
f 515 549 550
f 516 551 517
f 517 551 552
f 517 552 553
f 517 553 554
f 517 554 518
f 518 554 553
f 518 553 524
f 518 524 523
f 519 529 522
f 519 522 520
f 521 522 529
f 521 529 532
f 524 553 555
f 524 555 556
f 524 556 525
f 525 556 557
f 525 557 526
f 526 557 527
f 527 557 528
f 528 557 545
f 528 544 558
f 528 558 529
f 529 558 535
f 529 535 532
f 530 559 531
f 531 559 560
f 531 560 561
f 533 535 547
f 533 547 534
f 534 547 537
f 534 537 562
f 534 562 536
f 535 558 547
f 536 562 537
f 539 546 563
f 539 563 564
f 539 564 565
f 539 565 566
f 539 566 540
f 540 566 541
f 541 566 542
f 542 566 565
f 542 565 564
f 542 564 567
f 542 567 555
f 542 555 548
f 544 547 568
f 544 568 558
f 545 563 546
f 545 557 563
f 547 558 568
f 548 555 569
f 548 569 570
f 548 570 549
f 549 570 550
f 552 555 553
f 555 571 572
f 555 572 569
f 555 567 556
f 556 567 564
f 556 564 573
f 556 573 557
f 557 573 563
f 560 574 575
f 560 575 561
f 563 573 564
f 569 572 570
f 571 576 577
f 571 577 572
f 574 578 579
f 574 579 575
f 576 580 581
f 576 581 577
f 578 582 583
f 578 583 584
f 578 584 585
f 578 585 579
f 580 583 586
f 580 586 587
f 580 587 581
f 582 586 583

