# https://github.com/mikedh/trimesh
v 0.00933187 0.02766716 -0.02606345
v 0.00933187 0.02765313 -0.02740080
v 0.00933187 0.02742162 -0.02293750
v 0.01192411 0.02659615 -0.02293750
v 0.01299665 0.02633191 -0.02461621
v 0.01308427 0.02636231 -0.02606345
v 0.01318397 0.02639505 -0.02814897
v 0.01320512 0.02640206 -0.03023216
v 0.00933187 0.02731639 -0.03439852
v 0.01189692 0.02676452 -0.03231300
v 0.01189692 0.02669671 -0.03439852
v 0.00981225 0.02725559 -0.03439852
v 0.00933187 0.02514632 -0.02293750
v 0.01606927 0.02509487 -0.02293750
v 0.01782765 0.02453832 -0.02606345
v 0.01793943 0.02457340 -0.02814897
v 0.01800590 0.02458977 -0.03023216
v 0.01313563 0.02637634 -0.03231300
v 0.01796663 0.02458509 -0.03231300
v 0.00933187 0.02711762 -0.03648171
v 0.01301176 0.02633658 -0.03439852
v 0.01294227 0.02631320 -0.03544128
v 0.00981225 0.02703344 -0.03648171
v 0.00933187 0.01906636 -0.04682047
v 0.03723017 0.00378230 -0.02293750
v 0.01688804 0.02477684 -0.02293750
v 0.01770982 0.02449623 -0.02398026
v 0.02189728 0.02249686 -0.02606345
v 0.02198188 0.02254830 -0.02814897
v 0.02204230 0.02258572 -0.03023216
v 0.02207856 0.02258338 -0.03231300
v 0.01785786 0.02456638 -0.03439852
v 0.02202720 0.02254830 -0.03439852
v 0.00933187 0.02675517 -0.03861399
v 0.01115973 0.02640206 -0.03798038
v 0.01187275 0.02650261 -0.03627362
v 0.01606927 0.02502472 -0.03648171
v 0.01615991 0.02461549 -0.03854385
v 0.00992101 0.02661954 -0.03863035
v 0.03033264 0.00377996 -0.04682047
v 0.00933187 0.02256467 -0.04682047
v 0.03629962 0.00377996 -0.04064106
v 0.03887071 0.00377996 -0.04062937
v 0.03978313 0.00378230 -0.02293750
v 0.01764637 0.02447051 -0.02293750
v 0.02175830 0.02241034 -0.02293750
v 0.02180664 0.02244074 -0.02398026
v 0.02228098 0.02210868 -0.02293750
v 0.02565270 0.02021220 -0.02606345
v 0.02572824 0.02026365 -0.02814897
v 0.02576147 0.02028703 -0.03023216
v 0.02575845 0.02028703 -0.03231300
v 0.01757688 0.02444244 -0.03648171
v 0.02183686 0.02245711 -0.03648171
v 0.02306953 0.02188653 -0.03439852
v 0.02287617 0.02180936 -0.03648171
v 0.00933187 0.02647221 -0.03997005
v 0.01552243 0.02444946 -0.04023191
v 0.01459490 0.02464823 -0.04062937
v 0.01414775 0.02474176 -0.04081875
v 0.01727476 0.02429980 -0.03783309
v 0.02125677 0.02211569 -0.03956790
v 0.03452614 0.00377996 -0.04682047
v 0.00933187 0.02283359 -0.04655627
v 0.00981225 0.02277747 -0.04650717
v 0.00981225 0.02245477 -0.04682047
v 0.03907011 0.00377996 -0.04062937
v 0.03984356 0.00378230 -0.02331860
v 0.03947496 0.00434586 -0.02293750
v 0.02280366 0.02179065 -0.02293750
v 0.02555905 0.02013971 -0.02398026
v 0.02659836 0.01935399 -0.02398026
v 0.02669806 0.01941947 -0.02606345
v 0.02676755 0.01948260 -0.02814897
v 0.02357710 0.02131127 -0.02293750
v 0.02514211 0.02034783 -0.02307311
v 0.02680683 0.01953171 -0.03023216
v 0.02680381 0.01952236 -0.03231300
v 0.02567385 0.02023091 -0.03439852
v 0.02155890 0.02230745 -0.03817911
v 0.02554696 0.02013503 -0.03595565
v 0.02514211 0.02036420 -0.03622219
v 0.02458922 0.02067054 -0.03658458
v 0.02540798 0.02000174 -0.03734678
v 0.02417229 0.02057933 -0.03856489
v 0.00933187 0.02645585 -0.04003317
v 0.01986700 0.02243138 -0.04065275
v 0.01941683 0.02223729 -0.04188021
v 0.01495443 0.02416183 -0.04162537
v 0.01356465 0.02445180 -0.04215143
v 0.02043197 0.02267692 -0.03875193
v 0.02091537 0.02196369 -0.04062937
v 0.02228098 0.02171114 -0.03875193
v 0.02378859 0.02031977 -0.04026931
v 0.03552920 0.00377996 -0.04608867
v 0.03419380 0.00434118 -0.04682047
v 0.00933187 0.02307445 -0.04631312
v 0.00981225 0.02382042 -0.04530777
v 0.01189692 0.02243138 -0.04616582
v 0.01074280 0.02214843 -0.04682047
v 0.03907011 0.00378230 -0.04062937
v 0.03975594 0.00378230 -0.03794765
v 0.03988283 0.00378230 -0.03722052
v 0.03996441 0.00378230 -0.03648171
v 0.04000670 0.00378230 -0.03602813
v 0.04013360 0.00378230 -0.03439852
v 0.04013964 0.00378230 -0.03420680
v 0.04019704 0.00378230 -0.03231300
v 0.04017589 0.00378230 -0.03023216
v 0.04013360 0.00378230 -0.02814897
v 0.04012755 0.00378230 -0.02790815
v 0.04004296 0.00378230 -0.02606345
v 0.04000066 0.00378230 -0.02543686
v 0.03991002 0.00378230 -0.02412990
v 0.03903990 0.00377996 -0.04073692
v 0.03960488 0.00428038 -0.02377919
v 0.03841752 0.00624468 -0.02293750
v 0.02550164 0.02010229 -0.02293750
v 0.02790052 0.01827597 -0.02293750
v 0.02794886 0.01831105 -0.02398026
v 0.02803346 0.01837652 -0.02606345
v 0.02811805 0.01843966 -0.02814897
v 0.02818150 0.01848877 -0.03023216
v 0.02507867 0.02037823 -0.02293750
v 0.02817848 0.01848175 -0.03231300
v 0.02671921 0.01945221 -0.03439852
v 0.02810295 0.01840926 -0.03439852
v 0.02794584 0.01829000 -0.03648171
v 0.02773133 0.01813332 -0.03820250
v 0.02514211 0.01991990 -0.03856489
v 0.01189390 0.02468798 -0.04280374
v 0.00933187 0.02643480 -0.04008695
v 0.02090933 0.02195902 -0.04065275
v 0.02016308 0.02143754 -0.04264007
v 0.01861317 0.02185846 -0.04327134
v 0.01722642 0.02219520 -0.04386053
v 0.01801497 0.02245944 -0.04264007
v 0.02181571 0.02043435 -0.04273827
v 0.01258576 0.02406596 -0.04354021
v 0.01119598 0.02434891 -0.04396106
v 0.02299098 0.02068457 -0.04062937
v 0.02251966 0.02089970 -0.04084213
v 0.02334446 0.02003214 -0.04166278
v 0.02752589 0.01796496 -0.03959362
v 0.02722074 0.01777320 -0.04065275
v 0.02420552 0.01988482 -0.04062937
v 0.03584643 0.00377996 -0.04584084
v 0.03409712 0.00592431 -0.04612608
v 0.03285539 0.00641304 -0.04682047
v 0.00933187 0.02387654 -0.04538960
v 0.00981225 0.02453364 -0.04426501
v 0.01311448 0.02220923 -0.04593436
v 0.01189692 0.02176259 -0.04682047
v 0.03816374 0.00580739 -0.04020852
v 0.03835407 0.00612308 -0.03856489
v 0.03953841 0.00456334 -0.03648171
v 0.03962905 0.00472235 -0.03439852
v 0.03965624 0.00477847 -0.03231300
v 0.03959279 0.00471300 -0.02814897
v 0.03851420 0.00643643 -0.02606345
v 0.03955956 0.00463817 -0.02606345
v 0.03854139 0.00377996 -0.04196906
v 0.03788578 0.00540518 -0.04159965
v 0.03845680 0.00631249 -0.02398026
v 0.03785557 0.00747704 -0.02606345
v 0.03771357 0.00728762 -0.02293750
v 0.02894890 0.01741776 -0.02293750
v 0.02899422 0.01746219 -0.02398026
v 0.02907881 0.01753468 -0.02606345
v 0.02915736 0.01759314 -0.02814897
v 0.02922081 0.01763523 -0.03023216
v 0.02921779 0.01763757 -0.03231300
v 0.02914528 0.01758847 -0.03439852
v 0.02898817 0.01745050 -0.03648171
v 0.02848665 0.01735462 -0.03876362
v 0.00981225 0.02522816 -0.04273827
v 0.00933187 0.02551813 -0.04231976
v 0.02131720 0.02008359 -0.04381143
v 0.01606927 0.02163865 -0.04522360
v 0.01606927 0.02241969 -0.04418084
v 0.02023861 0.02038291 -0.04420188
v 0.01807841 0.02106807 -0.04477937
v 0.01754365 0.02028235 -0.04609334
v 0.02285804 0.01975153 -0.04273827
v 0.02520254 0.01780594 -0.04346306
v 0.02381880 0.01828766 -0.04419486
v 0.00933187 0.02481660 -0.04389092
v 0.00933187 0.02535678 -0.04270554
v 0.01450426 0.02194265 -0.04562574
v 0.02445024 0.01962759 -0.04084213
v 0.02573730 0.01816840 -0.04207427
v 0.02645334 0.01732188 -0.04275698
v 0.02991872 0.01616435 -0.03856489
v 0.02971630 0.01597962 -0.03989523
v 0.02945949 0.01575045 -0.04128870
v 0.02797605 0.01624386 -0.04273827
v 0.03548690 0.00488838 -0.04552520
v 0.03616064 0.00601083 -0.04413408
v 0.03611834 0.00377996 -0.04552754
v 0.03222092 0.00821131 -0.04628740
v 0.03360768 0.00731335 -0.04570991
v 0.03277079 0.00652763 -0.04682047
v 0.00933187 0.02458743 -0.04434918
v 0.01606927 0.02059570 -0.04640664
v 0.01379729 0.02104001 -0.04682047
v 0.03607303 0.00784885 -0.04218182
v 0.03636609 0.00827445 -0.04065275
v 0.03582830 0.00960970 -0.03947438
v 0.03849305 0.00635692 -0.03648171
v 0.03765919 0.00716602 -0.03856489
v 0.03846586 0.00669366 -0.03428396
v 0.03796433 0.00757057 -0.03351241
v 0.03796433 0.00757057 -0.03302376
v 0.03848399 0.00671237 -0.03232469
v 0.03855046 0.00648787 -0.02814897
v 0.03791297 0.00753316 -0.02814897
v 0.03839033 0.00377996 -0.04232678
v 0.03575579 0.00739987 -0.04357061
v 0.03615158 0.01001425 -0.02814897
v 0.03610022 0.00994409 -0.02606345
v 0.03599145 0.00980145 -0.02293750
v 0.03014230 0.01637481 -0.02293750
v 0.03018761 0.01641924 -0.02398026
v 0.03026919 0.01649174 -0.02606345
v 0.03032659 0.01655020 -0.02814897
v 0.03038098 0.01659229 -0.03023216
v 0.03038400 0.01659463 -0.03231300
v 0.03031149 0.01654552 -0.03439852
v 0.03016345 0.01640755 -0.03648171
v 0.02213898 0.01890969 -0.04469754
v 0.02023861 0.01955977 -0.04524464
v 0.01893040 0.01992223 -0.04570056
v 0.02156796 0.01814034 -0.04602554
v 0.02023861 0.01851683 -0.04636689
v 0.01807841 0.01919264 -0.04682047
v 0.01606927 0.02015140 -0.04682047
v 0.02758329 0.01593051 -0.04382779
v 0.02296076 0.01771708 -0.04558599
v 0.03095803 0.01520793 -0.03856489
v 0.03186743 0.01398025 -0.04002616
v 0.03157437 0.01368794 -0.04141962
v 0.03014532 0.01433101 -0.04273827
v 0.02901839 0.01537162 -0.04273827
v 0.03492797 0.00666092 -0.04492199
v 0.03774680 0.00377996 -0.04334382
v 0.03712140 0.00377996 -0.04425331
v 0.03669238 0.00377996 -0.04483782
v 0.03810029 0.00377996 -0.04281776
v 0.03264088 0.00670301 -0.04682047
v 0.03115744 0.00859014 -0.04682047
v 0.03166501 0.00960034 -0.04583148
v 0.03423610 0.00859715 -0.04420188
v 0.03284632 0.00878189 -0.04534751
v 0.03522405 0.00856441 -0.04282244
v 0.03364696 0.01156931 -0.04125596
v 0.03562286 0.00931739 -0.04065275
v 0.03562890 0.00932207 -0.04062937
v 0.03595520 0.00975702 -0.03808326
v 0.03385240 0.01180783 -0.03986249
v 0.03400044 0.01197153 -0.03856489
v 0.03419380 0.01220537 -0.03648171
v 0.03778306 0.00739987 -0.03648171
v 0.03788276 0.00750744 -0.03489886
v 0.03616668 0.01002594 -0.03439852
v 0.03621502 0.01007972 -0.03231300
v 0.03618783 0.01005634 -0.03023216
v 0.03380406 0.00966582 -0.04380207
v 0.03410619 0.01006102 -0.04273827
v 0.03535397 0.01105485 -0.02814897
v 0.03530562 0.01098704 -0.02606345
v 0.03523916 0.01089584 -0.02398026
v 0.03520290 0.01084440 -0.02293750
v 0.03118161 0.01537162 -0.02293750
v 0.03122995 0.01541605 -0.02398026
v 0.03130850 0.01549556 -0.02606345
v 0.03137195 0.01556571 -0.02814897
v 0.03142633 0.01562417 -0.03023216
v 0.03143237 0.01562651 -0.03231300
v 0.03135684 0.01554934 -0.03439852
v 0.03120880 0.01540202 -0.03648171
v 0.03204267 0.01416732 -0.03856489
v 0.02396684 0.01632571 -0.04622661
v 0.02228702 0.01698515 -0.04658667
v 0.02182175 0.01698982 -0.04682047
v 0.02031716 0.01791585 -0.04682047
v 0.01856785 0.01892372 -0.04682047
v 0.02975255 0.01394985 -0.04392132
v 0.02827516 0.01459526 -0.04456895
v 0.02757725 0.01385397 -0.04590163
v 0.02648657 0.01535291 -0.04532881
v 0.02535360 0.01582294 -0.04579875
v 0.03308500 0.01301447 -0.03856489
v 0.03118765 0.01330444 -0.04273827
v 0.03221488 0.01226149 -0.04273827
v 0.03060455 0.00923321 -0.04682047
v 0.02932958 0.01071110 -0.04682047
v 0.03013927 0.01068304 -0.04625233
v 0.02965285 0.01176574 -0.04589461
v 0.03118161 0.01068304 -0.04542467
v 0.03183118 0.01186863 -0.04392132
v 0.03261066 0.01048895 -0.04427436
v 0.03325721 0.01110396 -0.04273827
v 0.03523312 0.01093092 -0.03648171
v 0.03605792 0.00989031 -0.03648171
v 0.03326930 0.01324598 -0.03648171
v 0.03341130 0.01339798 -0.03439852
v 0.03430861 0.01235503 -0.03439852
v 0.03534792 0.01106655 -0.03439852
v 0.03537511 0.01112267 -0.03231300
v 0.03537209 0.01109929 -0.03023216
v 0.03430861 0.01236438 -0.02814897
v 0.03426631 0.01231060 -0.02606345
v 0.03419682 0.01222408 -0.02398026
v 0.03416057 0.01217965 -0.02293750
v 0.03220279 0.01432868 -0.02293750
v 0.03224509 0.01437311 -0.02398026
v 0.03232364 0.01445495 -0.02606345
v 0.03238105 0.01452277 -0.02814897
v 0.03240824 0.01458123 -0.03023216
v 0.03241428 0.01458590 -0.03231300
v 0.03236594 0.01450640 -0.03439852
v 0.03222696 0.01435908 -0.03648171
v 0.02439586 0.01525002 -0.04682047
v 0.02229609 0.01667881 -0.04682047
v 0.02896703 0.01315712 -0.04531010
v 0.02742920 0.01269410 -0.04682047
v 0.02651679 0.01354530 -0.04682047
v 0.02648657 0.01431231 -0.04627103
v 0.02839299 0.01258420 -0.04623362
v 0.02464361 0.01506295 -0.04682047
v 0.02849269 0.01160673 -0.04682047
v 0.03345964 0.01343305 -0.03231300
v 0.03433580 0.01238777 -0.03231300
v 0.03432976 0.01238075 -0.03023216
v 0.03345057 0.01342136 -0.03023216
v 0.03342338 0.01340499 -0.02814897
v 0.03336598 0.01335355 -0.02606345
v 0.03328440 0.01326702 -0.02398026
v 0.03324211 0.01322025 -0.02293750
v 0.02499105 0.01478467 -0.04682047
f 1 2 9
f 1 9 20
f 1 20 34
f 1 34 57
f 1 57 86
f 1 86 132
f 1 132 177
f 1 177 188
f 1 188 187
f 1 187 203
f 1 203 150
f 1 150 97
f 1 97 64
f 1 64 41
f 1 41 24
f 1 24 13
f 1 13 3
f 1 3 4
f 1 4 5
f 1 5 6
f 1 6 7
f 1 7 8
f 1 8 2
f 2 8 10
f 2 10 11
f 2 11 12
f 2 12 9
f 3 13 25
f 3 25 44
f 3 44 69
f 3 69 117
f 3 117 166
f 3 166 221
f 3 221 272
f 3 272 314
f 3 314 339
f 3 339 315
f 3 315 273
f 3 273 222
f 3 222 167
f 3 167 119
f 3 119 118
f 3 118 124
f 3 124 75
f 3 75 70
f 3 70 48
f 3 48 46
f 3 46 45
f 3 45 26
f 3 26 14
f 3 14 4
f 4 14 5
f 5 14 6
f 6 14 15
f 6 15 16
f 6 16 7
f 7 16 17
f 7 17 8
f 8 18 10
f 8 17 19
f 8 19 18
f 9 12 20
f 10 18 11
f 11 18 21
f 11 21 22
f 11 22 12
f 12 22 23
f 12 23 20
f 13 24 25
f 14 26 15
f 15 26 27
f 15 27 28
f 15 28 29
f 15 29 16
f 16 29 30
f 16 30 17
f 17 30 31
f 17 31 19
f 18 19 32
f 18 32 21
f 19 31 33
f 19 33 32
f 20 23 34
f 21 32 22
f 22 35 36
f 22 36 23
f 22 32 37
f 22 37 38
f 22 38 35
f 23 36 35
f 23 35 39
f 23 39 34
f 24 40 25
f 24 41 66
f 24 66 100
f 24 100 153
f 24 153 205
f 24 205 236
f 24 236 235
f 24 235 286
f 24 286 285
f 24 285 284
f 24 284 324
f 24 324 323
f 24 323 330
f 24 330 340
f 24 340 327
f 24 327 326
f 24 326 331
f 24 331 296
f 24 296 295
f 24 295 250
f 24 250 249
f 24 249 202
f 24 202 149
f 24 149 96
f 24 96 63
f 24 63 40
f 25 40 42
f 25 42 43
f 25 43 67
f 25 67 44
f 26 45 27
f 27 45 46
f 27 46 47
f 27 47 28
f 28 47 48
f 28 48 49
f 28 49 29
f 29 49 50
f 29 50 30
f 30 50 51
f 30 51 31
f 31 51 52
f 31 52 33
f 32 53 37
f 32 33 54
f 32 54 53
f 33 52 55
f 33 55 56
f 33 56 54
f 34 39 57
f 35 57 39
f 35 38 58
f 35 58 59
f 35 59 60
f 35 60 57
f 37 53 38
f 38 53 61
f 38 61 62
f 38 62 58
f 40 63 95
f 40 95 147
f 40 147 199
f 40 199 247
f 40 247 246
f 40 246 245
f 40 245 248
f 40 248 217
f 40 217 162
f 40 162 115
f 40 115 67
f 40 67 43
f 40 43 42
f 41 64 65
f 41 65 66
f 44 67 68
f 44 68 69
f 46 48 47
f 48 70 49
f 49 71 72
f 49 72 73
f 49 73 74
f 49 74 50
f 49 70 75
f 49 75 76
f 49 76 71
f 50 74 77
f 50 77 51
f 51 77 52
f 52 77 78
f 52 78 79
f 52 79 55
f 53 54 80
f 53 80 61
f 54 56 80
f 55 79 56
f 56 79 81
f 56 81 82
f 56 82 83
f 56 83 84
f 56 84 85
f 56 85 80
f 57 60 86
f 58 87 88
f 58 88 89
f 58 89 59
f 58 62 87
f 59 89 60
f 60 89 90
f 60 90 86
f 61 80 91
f 61 91 62
f 62 92 87
f 62 91 80
f 62 80 93
f 62 93 85
f 62 85 94
f 62 94 92
f 63 96 95
f 64 97 65
f 65 97 98
f 65 98 99
f 65 99 100
f 65 100 66
f 67 101 102
f 67 102 103
f 67 103 104
f 67 104 105
f 67 105 106
f 67 106 107
f 67 107 108
f 67 108 109
f 67 109 110
f 67 110 111
f 67 111 112
f 67 112 113
f 67 113 114
f 67 114 68
f 67 115 101
f 68 116 117
f 68 117 69
f 68 114 116
f 71 76 118
f 71 118 72
f 72 118 119
f 72 119 120
f 72 120 73
f 73 120 121
f 73 121 122
f 73 122 74
f 74 122 123
f 74 123 77
f 75 124 76
f 76 124 118
f 77 123 125
f 77 125 78
f 78 126 79
f 78 125 127
f 78 127 126
f 79 126 128
f 79 128 81
f 80 85 93
f 81 84 82
f 81 128 84
f 82 84 83
f 84 128 129
f 84 129 130
f 84 130 85
f 85 130 94
f 86 131 132
f 86 90 131
f 87 92 133
f 87 133 88
f 88 134 135
f 88 135 136
f 88 136 137
f 88 137 89
f 88 133 138
f 88 138 134
f 89 137 136
f 89 136 90
f 90 136 139
f 90 139 140
f 90 140 131
f 92 94 141
f 92 141 142
f 92 142 133
f 94 143 141
f 94 130 144
f 94 144 145
f 94 145 146
f 94 146 143
f 95 96 148
f 95 148 147
f 96 149 148
f 97 150 98
f 98 151 140
f 98 140 152
f 98 152 99
f 98 150 151
f 99 153 100
f 99 152 153
f 101 115 154
f 101 154 102
f 102 154 155
f 102 155 103
f 103 155 156
f 103 156 104
f 104 156 105
f 105 156 157
f 105 157 106
f 106 157 107
f 107 157 108
f 108 157 158
f 108 158 109
f 109 158 110
f 110 158 159
f 110 159 111
f 111 159 160
f 111 160 161
f 111 161 112
f 112 161 113
f 113 161 116
f 113 116 114
f 115 162 163
f 115 163 154
f 116 161 164
f 116 164 117
f 117 164 165
f 117 165 166
f 119 167 168
f 119 168 120
f 120 168 169
f 120 169 121
f 121 169 122
f 122 169 170
f 122 170 123
f 123 170 171
f 123 171 172
f 123 172 125
f 125 172 173
f 125 173 127
f 126 127 128
f 127 173 128
f 128 173 174
f 128 174 129
f 129 174 175
f 129 175 144
f 129 144 130
f 131 140 176
f 131 176 132
f 132 176 177
f 133 142 143
f 133 143 138
f 134 138 178
f 134 178 135
f 135 178 136
f 136 179 180
f 136 180 140
f 136 140 139
f 136 178 181
f 136 181 182
f 136 182 183
f 136 183 179
f 138 143 184
f 138 184 185
f 138 185 186
f 138 186 178
f 140 151 187
f 140 187 188
f 140 188 176
f 140 180 189
f 140 189 152
f 141 143 142
f 143 146 190
f 143 190 145
f 143 145 191
f 143 191 192
f 143 192 185
f 143 185 184
f 144 175 193
f 144 193 194
f 144 194 195
f 144 195 145
f 145 196 191
f 145 190 146
f 145 195 196
f 147 148 197
f 147 197 198
f 147 198 199
f 148 149 200
f 148 200 201
f 148 201 197
f 149 202 200
f 150 203 151
f 151 203 187
f 152 189 204
f 152 204 205
f 152 205 153
f 154 163 206
f 154 206 207
f 154 207 208
f 154 208 155
f 155 209 156
f 155 208 210
f 155 210 209
f 156 209 157
f 157 209 211
f 157 211 158
f 158 211 212
f 158 212 213
f 158 213 214
f 158 214 215
f 158 215 159
f 159 215 160
f 160 215 216
f 160 216 165
f 160 165 164
f 160 164 161
f 162 217 163
f 163 217 218
f 163 218 206
f 165 216 219
f 165 219 220
f 165 220 221
f 165 221 166
f 167 222 223
f 167 223 168
f 168 223 169
f 169 223 224
f 169 224 170
f 170 224 225
f 170 225 171
f 171 225 226
f 171 226 227
f 171 227 172
f 172 227 228
f 172 228 173
f 173 228 229
f 173 229 174
f 174 229 193
f 174 193 175
f 176 188 177
f 178 186 230
f 178 230 231
f 178 231 181
f 179 189 180
f 179 183 189
f 181 231 232
f 181 232 182
f 182 232 183
f 183 232 233
f 183 233 234
f 183 234 235
f 183 235 236
f 183 236 204
f 183 204 189
f 185 192 237
f 185 237 186
f 186 238 230
f 186 237 238
f 191 196 192
f 192 196 237
f 193 229 239
f 193 239 240
f 193 240 194
f 194 240 195
f 195 240 241
f 195 241 242
f 195 242 243
f 195 243 196
f 196 243 237
f 197 244 198
f 197 201 244
f 198 245 246
f 198 246 247
f 198 247 199
f 198 244 218
f 198 218 217
f 198 217 248
f 198 248 245
f 200 202 249
f 200 249 250
f 200 250 251
f 200 251 201
f 201 252 244
f 201 251 253
f 201 253 252
f 204 236 205
f 206 218 254
f 206 254 255
f 206 255 256
f 206 256 257
f 206 257 207
f 207 257 208
f 208 258 210
f 208 257 255
f 208 255 259
f 208 259 260
f 208 260 261
f 208 261 258
f 209 210 262
f 209 262 263
f 209 263 212
f 209 212 211
f 210 258 262
f 212 263 264
f 212 264 265
f 212 265 213
f 213 265 216
f 213 216 214
f 214 216 215
f 216 265 266
f 216 266 219
f 218 244 252
f 218 252 267
f 218 267 268
f 218 268 254
f 219 266 269
f 219 269 270
f 219 270 220
f 220 270 271
f 220 271 221
f 221 271 272
f 222 273 274
f 222 274 223
f 223 274 275
f 223 275 224
f 224 275 276
f 224 276 225
f 225 276 277
f 225 277 226
f 226 277 278
f 226 278 227
f 227 278 228
f 228 278 279
f 228 279 229
f 229 279 280
f 229 280 281
f 229 281 239
f 230 238 231
f 231 238 232
f 232 238 233
f 233 238 282
f 233 282 283
f 233 283 284
f 233 284 285
f 233 285 234
f 234 286 235
f 234 285 286
f 237 243 287
f 237 287 288
f 237 288 289
f 237 289 290
f 237 290 291
f 237 291 238
f 238 291 282
f 239 281 240
f 240 281 292
f 240 292 259
f 240 259 255
f 240 255 241
f 241 293 242
f 241 255 294
f 241 294 293
f 242 287 243
f 242 293 287
f 250 295 251
f 251 295 296
f 251 296 297
f 251 297 298
f 251 298 299
f 251 299 300
f 251 300 301
f 251 301 267
f 251 267 252
f 251 252 253
f 254 268 255
f 255 257 256
f 255 268 302
f 255 302 294
f 258 261 303
f 258 303 304
f 258 304 262
f 259 292 260
f 260 292 261
f 261 292 305
f 261 305 306
f 261 306 307
f 261 307 303
f 262 304 263
f 263 304 264
f 264 304 308
f 264 308 265
f 265 308 309
f 265 309 310
f 265 310 266
f 266 310 269
f 267 301 300
f 267 300 302
f 267 302 268
f 269 310 311
f 269 311 312
f 269 312 270
f 270 312 313
f 270 313 271
f 271 313 314
f 271 314 272
f 273 315 274
f 274 315 316
f 274 316 317
f 274 317 275
f 275 317 276
f 276 317 318
f 276 318 277
f 277 318 319
f 277 319 320
f 277 320 278
f 278 320 321
f 278 321 279
f 279 321 322
f 279 322 280
f 280 322 281
f 281 322 305
f 281 305 292
f 282 323 324
f 282 324 283
f 282 291 323
f 283 324 284
f 287 325 289
f 287 289 288
f 287 293 300
f 287 300 325
f 289 326 327
f 289 327 328
f 289 328 291
f 289 291 290
f 289 325 298
f 289 298 329
f 289 329 326
f 291 328 330
f 291 330 323
f 293 294 300
f 294 302 300
f 296 298 297
f 296 331 298
f 298 331 329
f 298 325 300
f 298 300 299
f 303 308 304
f 303 307 308
f 305 322 306
f 306 332 307
f 306 322 321
f 306 321 320
f 306 320 332
f 307 332 333
f 307 333 309
f 307 309 308
f 309 333 334
f 309 334 310
f 310 334 311
f 311 334 335
f 311 335 336
f 311 336 312
f 312 336 337
f 312 337 313
f 313 337 314
f 314 337 338
f 314 338 339
f 315 339 338
f 315 338 316
f 316 338 337
f 316 337 317
f 317 337 318
f 318 337 336
f 318 336 319
f 319 336 335
f 319 335 332
f 319 332 320
f 326 329 331
f 327 340 328
f 328 340 330
f 332 335 334
f 332 334 333

