# https://github.com/mikedh/trimesh
v -0.04638253 -0.00597017 -0.01549818
v -0.04575898 -0.00371802 -0.01549818
v -0.04419609 -0.00597017 -0.01549818
v -0.04624604 -0.00597017 -0.01351587
v -0.04570813 -0.00408493 -0.01354275
v -0.04574560 -0.00367626 -0.01549818
v -0.02746194 0.01780115 -0.01549818
v -0.01904268 0.02208469 -0.01006866
v -0.03873133 -0.00597017 -0.00707840
v -0.04588476 -0.00597017 -0.00936982
v -0.04546192 -0.00486050 -0.00800572
v -0.04552347 -0.00466661 -0.00936982
v -0.04539502 -0.00289174 -0.01467166
v -0.04395523 -0.00182383 -0.00312050
v -0.04510331 -0.00197895 -0.01549818
v -0.02746194 0.02054250 -0.01549818
v -0.01904268 0.02450389 -0.01006866
v -0.01904268 0.01550425 0.00142873
v -0.03816398 -0.00597017 -0.00520361
v -0.01904268 0.01474360 0.00320945
v -0.04565996 -0.00597017 -0.00684993
v -0.04567066 -0.00585980 -0.00730015
v -0.04128173 -0.00490524 0.03561854
v -0.04408101 -0.00391191 0.00313553
v -0.04394720 0.00026126 -0.01145964
v -0.04412383 0.00026126 -0.01354275
v -0.04337718 -0.00279927 0.00652226
v -0.04344140 -0.00262924 0.00522536
v -0.04148779 -0.00228023 0.02397330
v -0.04159217 -0.00202071 0.02189020
v -0.04424426 0.00026126 -0.01549818
v -0.03093562 0.01804575 -0.01549818
v -0.02835043 0.01975499 -0.01354275
v -0.02819521 0.01967147 -0.01145964
v -0.02746194 0.02036352 -0.01354275
v -0.02704713 0.02030386 -0.01006866
v -0.02323625 0.02255004 -0.01006866
v -0.02317737 0.02252021 -0.00936982
v -0.02146194 0.02277078 -0.00312050
v -0.01904268 0.02405942 -0.00520361
v -0.01904268 0.01463323 0.00361263
v -0.03657433 -0.00597017 0.00275251
v -0.04147441 -0.00597017 0.03666009
v -0.04058592 -0.00597017 0.04481108
v -0.03992758 -0.00391191 0.04481108
v -0.03947531 -0.00209528 0.04272797
v -0.03981251 -0.00182383 0.03856848
v -0.04131117 -0.00274855 0.02755490
v -0.04336915 0.00133812 -0.01024338
v -0.04343070 0.00146340 -0.01145964
v -0.04352704 0.00165730 -0.01354275
v -0.04131384 -0.00067539 0.01926952
v -0.04360733 0.00183031 -0.01549818
v -0.03922375 -0.00069030 0.03999977
v -0.03205426 0.01708523 -0.01549818
v -0.03298022 0.01593977 -0.01200394
v -0.03086604 0.01798907 -0.01443647
v -0.02961626 0.01862743 -0.01145964
v -0.02746194 0.02003837 -0.01017618
v -0.02746194 0.02016366 -0.01145964
v -0.02946907 0.01851408 -0.00936982
v -0.02670458 0.01591292 0.03356231
v -0.02699360 0.02027105 -0.00936982
v -0.02299539 0.02241580 -0.00728671
v -0.02580271 0.02057829 -0.00523049
v -0.02544945 0.02058426 -0.00312050
v -0.02385177 0.02172375 -0.00520361
v -0.02366176 0.02162532 -0.00312050
v -0.02262073 0.02220998 -0.00312050
v -0.02045302 0.02007715 0.02934906
v -0.02073135 0.02229947 0.00521864
v -0.02055739 0.02221296 0.00693216
v -0.01910690 0.02041721 0.03230572
v -0.01904268 0.02039036 0.03285674
v -0.01904268 0.01429019 0.00521192
v -0.03653686 -0.00597017 0.00296082
v -0.04034506 -0.00597017 0.04693450
v -0.03959038 -0.00371205 0.04708905
v -0.03936023 -0.00239358 0.04481108
v -0.03952883 -0.00166872 0.04067846
v -0.03980448 0.00026126 0.03022934
v -0.03919163 0.00132320 0.03137841
v -0.04128708 0.00342918 0.00022591
v -0.04135399 0.00354552 -0.00103068
v -0.04290082 0.00250446 -0.01145964
v -0.03929868 -0.00052027 0.03856848
v -0.03940840 -0.00027865 0.03647866
v -0.03951813 -0.00004598 0.03439555
v -0.04147174 0.00581258 -0.01549818
v -0.04176879 0.00462535 -0.01133197
v -0.03926121 -0.00265310 0.04651116
v -0.03740930 0.00188400 0.04481108
v -0.03754310 0.00213755 0.04272797
v -0.03316220 0.01610980 -0.01549818
v -0.03410421 0.01499118 -0.01354275
v -0.03507299 0.01386660 -0.01195690
v -0.03289993 0.01585625 -0.01061296
v -0.03413901 0.01515525 -0.01549818
v -0.03427014 0.01502698 -0.01549818
v -0.03163678 0.01655426 -0.00728671
v -0.03036292 0.01759830 -0.00728671
v -0.02683036 0.02016366 -0.00728671
v -0.02745926 0.01579360 0.02932890
v -0.02813901 0.01539090 0.02813952
v -0.02798914 0.01527159 0.03022934
v -0.02746194 0.01539985 0.03272907
v -0.02745926 0.01444828 0.04062471
v -0.02613990 0.01549829 0.04064487
v -0.02509619 0.01623210 0.04064487
v -0.02527282 0.01634546 0.03856176
v -0.02543875 0.01645881 0.03647866
v -0.02527550 0.02047985 -0.00103068
v -0.02510422 0.02037247 0.00105243
v -0.02492759 0.02026806 0.00313553
v -0.02278130 0.01813822 0.03647866
v -0.02262876 0.01804873 0.03820562
v -0.02096417 0.01826649 0.04481780
v -0.01937720 0.01878254 0.04690090
v -0.01904268 0.01892871 0.04692778
v -0.01904268 0.01427527 0.00530599
v -0.03617023 -0.00597017 0.00521864
v -0.04003463 -0.00597017 0.04899073
v -0.03948333 -0.00417442 0.04899073
v -0.03917558 -0.00288279 0.04790213
v -0.03954489 0.00039252 0.03217133
v -0.03869119 0.00247761 0.03022934
v -0.03925051 0.00143656 0.03022934
v -0.03757254 0.00251639 0.04067846
v -0.03713900 0.00345901 0.03999977
v -0.04086157 0.00478047 -0.00312050
v -0.04145835 0.00373643 -0.00312050
v -0.03721661 0.00358728 0.03856848
v -0.04156005 0.00393032 -0.00520361
v -0.04165907 0.00411825 -0.00728671
v -0.04175809 0.00430319 -0.00936982
v -0.04138342 0.00567238 -0.01354275
v -0.04083213 0.00685662 -0.01549818
v -0.04131384 0.00555008 -0.01194346
v -0.03785622 0.00026126 0.04690762
v -0.03724070 0.00157676 0.04690762
v -0.03668673 0.00261781 0.04690762
v -0.03549583 0.00419282 0.04899073
v -0.03554400 0.00459552 0.04690090
v -0.03515328 0.01395013 -0.01354275
v -0.03498468 0.01378010 -0.01057264
v -0.03089548 0.01177256 0.03791667
v -0.03622642 0.01298364 -0.01549818
v -0.03721661 0.01186801 -0.01549818
v -0.03714435 0.01177852 -0.01412736
v -0.03572063 0.01251532 -0.00728671
v -0.03560287 0.01237512 -0.00520361
v -0.03014079 0.01316262 0.03231245
v -0.02923624 0.01423053 0.03022934
v -0.03524962 0.01405155 -0.01549818
v -0.02672331 0.02009207 -0.00594277
v -0.02909708 0.01409928 0.03231245
v -0.02895257 0.01397101 0.03439555
v -0.02783928 0.01514332 0.03231245
v -0.02884017 0.01387257 0.03597468
v -0.02800252 0.01318052 0.04690762
v -0.02746194 0.01362498 0.04690762
v -0.02695882 0.01403663 0.04690090
v -0.02678754 0.01389942 0.04898400
v -0.02595525 0.01535809 0.04272797
v -0.02472421 0.01598750 0.04481780
v -0.02491421 0.01611278 0.04272797
v -0.02341288 0.01750285 0.03876335
v -0.02382233 0.01749986 0.03647866
v -0.02250298 0.01797117 0.03959659
v -0.02178041 0.01755952 0.04690090
v -0.02073937 0.01814717 0.04690090
v -0.01953509 0.01844845 0.04903104
v -0.01904268 0.01866919 0.04901761
v -0.01904268 0.01334757 0.01180394
v -0.03473579 -0.00597017 0.01690419
v -0.04002928 -0.00597017 0.04902433
v -0.03932544 -0.00459501 0.05058329
v -0.03906317 -0.00313336 0.04899073
v -0.03845836 -0.00182383 0.04899073
v -0.03713097 0.00137093 0.04811716
v -0.03656898 0.00462834 0.03856848
v -0.03668940 0.00481328 0.03647866
v -0.03505426 0.00553218 0.04620206
v -0.03743338 0.00395419 0.03439555
v -0.03971081 0.00630775 -0.00103068
v -0.03978842 0.00844058 -0.01549818
v -0.04074114 0.00671045 -0.01354275
v -0.03959841 0.00816614 -0.01145964
v -0.03969743 0.00831231 -0.01354275
v -0.03970546 0.00667466 -0.00319442
v -0.03949671 0.00801103 -0.00936982
v -0.03658503 0.00217633 0.04888321
v -0.03525497 0.00379310 0.05107383
v -0.03483749 0.00523686 0.04899073
v -0.03494186 0.00540391 0.04759303
v -0.03292402 0.00963377 0.03751349
v -0.03241287 0.01115806 0.03022934
v -0.03261358 0.00926984 0.04272797
v -0.03157255 0.01039144 0.04272797
v -0.03143339 0.01024229 0.04481108
v -0.03055560 0.01143548 0.04272797
v -0.02922019 0.01213648 0.04690762
v -0.02999628 0.01303435 0.03439555
v -0.03885176 0.00920720 -0.01145964
v -0.03770903 0.01041530 -0.00936982
v -0.03676434 0.01131020 -0.00728671
v -0.02745926 0.01327598 0.04934015
v -0.02461448 0.01590994 0.04599374
v -0.02576792 0.01521789 0.04481780
v -0.02669120 0.01381888 0.05005916
v -0.02368852 0.01640213 0.04677322
v -0.02327104 0.01638125 0.04898400
v -0.02133081 0.01749390 0.04903104
v -0.02054937 0.01804575 0.04836580
v -0.02033527 0.01790853 0.04975677
v -0.01904268 0.01818893 0.05089240
v -0.01904268 0.01255708 0.01777103
v -0.03466353 -0.00597017 0.01753584
v -0.03987138 -0.00597017 0.04968957
v -0.03949939 -0.00590752 0.05120151
v -0.03911135 -0.00515283 0.05198099
v -0.03712830 -0.00070820 0.05216242
v -0.03728351 -0.00037709 0.05107383
v -0.03746550 0.00032987 0.04888321
v -0.03698646 0.00107263 0.04950142
v -0.03526835 0.00584539 0.04272797
v -0.03539949 0.00602437 0.04065159
v -0.03552526 0.00619141 0.03856848
v -0.03564569 0.00635548 0.03647866
v -0.03920501 0.00758745 -0.00394030
v -0.03438521 0.00670150 0.04481108
v -0.03452170 0.00688943 0.04272797
v -0.03875006 0.00905507 -0.00936982
v -0.03938432 0.00784995 -0.00728671
v -0.03598289 0.00234338 0.05107383
v -0.03507299 0.00347989 0.05218258
v -0.03454578 0.00483416 0.05107383
v -0.03291599 0.00753972 0.04995836
v -0.03368405 0.00671343 0.04915200
v -0.03317826 0.00786785 0.04690762
v -0.03360644 0.00838092 0.04065159
v -0.03452705 0.00904015 0.02813952
v -0.03440662 0.00889101 0.03022934
v -0.03347799 0.00822879 0.04272797
v -0.03247710 0.00910876 0.04481108
v -0.03040573 0.01128633 0.04481108
v -0.03127282 0.01008121 0.04690762
v -0.03026122 0.01112525 0.04690762
v -0.02902750 0.01196645 0.04899073
v -0.03759128 0.01026616 -0.00728671
v -0.03505158 0.00760833 0.03371014
v -0.02431475 0.01565937 0.04898400
v -0.02885890 0.01181134 0.05022715
v -0.02746194 0.01281660 0.05072441
v -0.02625230 0.01347285 0.05145014
v -0.02256453 0.01593082 0.05215570
v -0.02287764 0.01612770 0.05107383
v -0.02146194 0.01688239 0.05107383
v -0.01904268 0.01812629 0.05107383
v -0.01904268 0.01252128 0.01823469
v -0.03409083 -0.00597017 0.02397330
v -0.03423267 -0.00597017 0.02188348
v -0.03443874 -0.00597017 0.01977350
v -0.03952615 -0.00597017 0.05114103
v -0.03951277 -0.00597017 0.05119479
v -0.03920234 -0.00597017 0.05212882
v -0.03736112 -0.00182383 0.05237073
v -0.03534596 0.00234338 0.05241777
v -0.03464748 0.00706841 0.04065159
v -0.03334151 0.00806770 0.04481108
v -0.03390350 0.00427635 0.05251857
v -0.03316220 0.00581854 0.05231697
v -0.03067068 0.00945479 0.05172564
v -0.03272331 0.00728617 0.05107383
v -0.03350207 0.00624213 0.05107383
v -0.03094632 0.00974414 0.05033467
v -0.03108816 0.00989925 0.04899073
v -0.03228441 0.00846742 0.04915200
v -0.03231385 0.00890592 0.04690762
v -0.03157790 0.00869413 0.05104695
v -0.03428352 0.00874484 0.03231245
v -0.03006854 0.01094031 0.04899073
v -0.02848959 0.01146829 0.05161141
v -0.02745926 0.01192469 0.05221618
v -0.02710065 0.01208577 0.05241777
v -0.02486337 0.01402172 0.05231026
v -0.02337541 0.01476746 0.05249841
v -0.02146194 0.01620525 0.05238417
v -0.01904268 0.01786677 0.05167860
v -0.01904268 0.01242284 0.01981381
v -0.01904268 0.01221702 0.02396658
v -0.01904268 0.01211858 0.02604969
v -0.01904268 0.01192171 0.03022262
v -0.01904268 0.01190381 0.03071988
v -0.03402928 -0.00597017 0.02605641
v -0.03839681 -0.00597017 0.05252528
v -0.03780805 -0.00391191 0.05256560
v -0.03607656 0.00009720 0.05258576
v -0.03397041 0.00234338 0.05300910
v -0.03194186 0.00651358 0.05267984
v -0.03128084 0.00806770 0.05243121
v -0.02928174 0.01007823 0.05244465
v -0.02745926 0.01135792 0.05259248
v -0.02558861 0.01277484 0.05265296
v -0.02146194 0.01484800 0.05292175
v -0.01904268 0.01706137 0.05253872
v -0.01904268 0.01716279 0.05246481
v -0.01904268 0.01186205 0.03230572
v -0.03395703 -0.00597017 0.03019574
v -0.03833526 -0.00597017 0.05255216
v -0.03830582 -0.00590752 0.05255888
v -0.03605515 -0.00182383 0.05294862
v -0.03830046 -0.00597017 0.05256560
v -0.03188834 0.00443146 0.05312334
v -0.02990797 0.00869413 0.05274704
v -0.02776434 0.01073448 0.05273360
v -0.02746194 0.01101787 0.05272688
v -0.02354669 0.01276589 0.05307630
v -0.01904268 0.01518210 0.05296879
v -0.01904268 0.01694802 0.05257904
v -0.03393294 -0.00597017 0.03227885
v -0.01904268 0.01186205 0.03288362
v -0.03380448 -0.00597017 0.04686730
v -0.03605515 -0.00391191 0.05300238
v -0.03594810 -0.00597017 0.05262608
v -0.02980359 0.00651358 0.05314350
v -0.01937720 0.01484800 0.05298222
v -0.01904268 0.01483309 0.05292847
v -0.01904268 0.01187398 0.03438883
v -0.03380448 -0.00597017 0.04690762
v -0.03581162 -0.00597017 0.05257904
v -0.01904268 0.01350268 0.05248497
v -0.01904268 0.01200523 0.04690090
v -0.01904268 0.01216929 0.04898400
v -0.03396238 -0.00597017 0.04899073
v -0.03481608 -0.00538550 0.05231697
v -0.03496594 -0.00597017 0.05208851
v -0.01904268 0.01335950 0.05240433
v -0.01904268 0.01217228 0.04901088
v -0.01904268 0.01257199 0.05106039
v -0.03452437 -0.00597017 0.05107383
v -0.03459128 -0.00597017 0.05122839
v -0.01904268 0.01274799 0.05144341
f 1 2 6
f 1 6 15
f 1 15 31
f 1 31 53
f 1 53 89
f 1 89 137
f 1 137 186
f 1 186 148
f 1 148 147
f 1 147 154
f 1 154 99
f 1 99 98
f 1 98 94
f 1 94 55
f 1 55 32
f 1 32 16
f 1 16 7
f 1 7 3
f 1 3 9
f 1 9 19
f 1 19 42
f 1 42 76
f 1 76 121
f 1 121 175
f 1 175 218
f 1 218 263
f 1 263 262
f 1 262 261
f 1 261 295
f 1 295 309
f 1 309 321
f 1 321 323
f 1 323 330
f 1 330 335
f 1 335 341
f 1 341 342
f 1 342 337
f 1 337 331
f 1 331 325
f 1 325 313
f 1 313 310
f 1 310 296
f 1 296 266
f 1 266 265
f 1 265 264
f 1 264 219
f 1 219 176
f 1 176 122
f 1 122 77
f 1 77 44
f 1 44 43
f 1 43 21
f 1 21 10
f 1 10 4
f 1 4 2
f 2 4 5
f 2 5 6
f 3 7 8
f 3 8 9
f 4 10 11
f 4 11 12
f 4 12 5
f 5 13 6
f 5 12 14
f 5 14 13
f 6 13 15
f 7 16 17
f 7 17 8
f 8 17 40
f 8 40 74
f 8 74 119
f 8 119 173
f 8 173 216
f 8 216 259
f 8 259 289
f 8 289 307
f 8 307 306
f 8 306 320
f 8 320 319
f 8 319 328
f 8 328 332
f 8 332 338
f 8 338 343
f 8 343 340
f 8 340 339
f 8 339 334
f 8 334 333
f 8 333 329
f 8 329 322
f 8 322 308
f 8 308 294
f 8 294 293
f 8 293 292
f 8 292 291
f 8 291 290
f 8 290 260
f 8 260 217
f 8 217 174
f 8 174 120
f 8 120 75
f 8 75 41
f 8 41 20
f 8 20 18
f 8 18 9
f 9 18 20
f 9 20 19
f 10 21 22
f 10 22 11
f 11 22 21
f 11 21 23
f 11 23 24
f 11 24 14
f 11 14 12
f 13 25 26
f 13 26 15
f 13 14 25
f 14 24 27
f 14 27 28
f 14 28 29
f 14 29 30
f 14 30 25
f 15 26 31
f 16 32 33
f 16 33 34
f 16 34 35
f 16 35 36
f 16 36 37
f 16 37 17
f 17 37 38
f 17 38 39
f 17 39 40
f 19 20 41
f 19 41 42
f 21 43 23
f 23 43 44
f 23 44 45
f 23 45 46
f 23 46 47
f 23 47 48
f 23 48 27
f 23 27 24
f 25 49 50
f 25 50 51
f 25 51 26
f 25 30 52
f 25 52 49
f 26 51 53
f 26 53 31
f 27 48 28
f 28 48 29
f 29 52 30
f 29 48 54
f 29 54 52
f 32 55 56
f 32 56 57
f 32 57 58
f 32 58 34
f 32 34 33
f 34 59 60
f 34 60 35
f 34 58 61
f 34 61 62
f 34 62 59
f 35 60 36
f 36 63 37
f 36 60 59
f 36 59 63
f 37 63 38
f 38 64 39
f 38 63 65
f 38 65 66
f 38 66 67
f 38 67 68
f 38 68 64
f 39 64 69
f 39 69 70
f 39 70 71
f 39 71 40
f 40 71 72
f 40 72 73
f 40 73 74
f 41 75 42
f 42 75 76
f 44 77 45
f 45 77 78
f 45 78 79
f 45 79 46
f 46 80 47
f 46 79 54
f 46 54 80
f 47 80 54
f 47 54 48
f 49 52 81
f 49 81 82
f 49 82 50
f 50 82 83
f 50 83 84
f 50 84 85
f 50 85 51
f 51 85 53
f 52 54 86
f 52 86 87
f 52 87 88
f 52 88 81
f 53 85 90
f 53 90 89
f 54 79 91
f 54 91 92
f 54 92 93
f 54 93 86
f 55 94 56
f 56 95 96
f 56 96 97
f 56 97 57
f 56 94 98
f 56 98 99
f 56 99 95
f 57 97 100
f 57 100 101
f 57 101 61
f 57 61 58
f 59 62 102
f 59 102 63
f 61 101 62
f 62 101 103
f 62 103 104
f 62 104 105
f 62 105 106
f 62 106 107
f 62 107 108
f 62 108 109
f 62 109 110
f 62 110 111
f 62 111 102
f 63 102 66
f 63 66 65
f 64 68 69
f 66 112 67
f 66 102 112
f 67 112 113
f 67 113 114
f 67 114 68
f 68 114 115
f 68 115 69
f 69 115 116
f 69 116 117
f 69 117 70
f 70 73 71
f 70 117 73
f 71 73 72
f 73 117 74
f 74 117 118
f 74 118 119
f 75 120 121
f 75 121 76
f 77 122 123
f 77 123 78
f 78 123 124
f 78 124 91
f 78 91 79
f 81 88 125
f 81 125 82
f 82 126 127
f 82 127 83
f 82 125 88
f 82 88 87
f 82 87 86
f 82 86 93
f 82 93 128
f 82 128 129
f 82 129 126
f 83 127 126
f 83 126 84
f 84 130 131
f 84 131 85
f 84 126 129
f 84 129 132
f 84 132 130
f 85 131 133
f 85 133 134
f 85 134 135
f 85 135 90
f 89 90 136
f 89 136 137
f 90 138 136
f 90 135 138
f 91 124 92
f 92 124 139
f 92 139 140
f 92 140 141
f 92 141 142
f 92 142 143
f 92 143 93
f 93 143 129
f 93 129 128
f 95 144 96
f 95 99 144
f 96 145 146
f 96 146 97
f 96 144 147
f 96 147 148
f 96 148 149
f 96 149 150
f 96 150 151
f 96 151 145
f 97 152 153
f 97 153 100
f 97 146 152
f 99 154 144
f 100 153 104
f 100 104 101
f 101 104 103
f 102 155 113
f 102 113 112
f 102 111 155
f 104 153 105
f 105 153 156
f 105 156 157
f 105 157 158
f 105 158 106
f 106 158 107
f 107 159 160
f 107 160 161
f 107 161 162
f 107 162 108
f 107 158 159
f 108 162 163
f 108 163 164
f 108 164 165
f 108 165 166
f 108 166 109
f 109 166 167
f 109 167 168
f 109 168 110
f 110 168 111
f 111 168 155
f 113 155 114
f 114 155 168
f 114 168 115
f 115 168 116
f 116 168 167
f 116 167 169
f 116 169 117
f 117 169 170
f 117 170 171
f 117 171 118
f 118 171 172
f 118 172 119
f 119 172 173
f 120 174 175
f 120 175 121
f 122 176 123
f 123 176 177
f 123 177 178
f 123 178 124
f 124 178 179
f 124 179 180
f 124 180 140
f 124 140 139
f 129 181 182
f 129 182 132
f 129 143 183
f 129 183 181
f 130 133 131
f 130 132 184
f 130 184 185
f 130 185 138
f 130 138 133
f 132 182 184
f 133 138 134
f 134 138 135
f 136 138 137
f 137 138 187
f 137 187 188
f 137 188 189
f 137 189 186
f 138 185 190
f 138 190 191
f 138 191 187
f 140 180 192
f 140 192 142
f 140 142 141
f 142 193 194
f 142 194 195
f 142 195 143
f 142 192 193
f 143 195 183
f 144 154 147
f 145 151 196
f 145 196 197
f 145 197 146
f 146 196 198
f 146 198 199
f 146 199 200
f 146 200 201
f 146 201 202
f 146 202 203
f 146 203 152
f 146 197 196
f 148 186 204
f 148 204 205
f 148 205 149
f 149 205 206
f 149 206 151
f 149 151 150
f 151 206 196
f 152 203 157
f 152 157 156
f 152 156 153
f 157 159 158
f 157 203 159
f 159 202 160
f 159 203 202
f 160 202 207
f 160 207 163
f 160 163 161
f 161 163 162
f 163 208 209
f 163 209 164
f 163 207 210
f 163 210 208
f 164 209 165
f 165 209 208
f 165 208 211
f 165 211 166
f 166 169 167
f 166 211 169
f 169 211 170
f 170 211 212
f 170 212 213
f 170 213 214
f 170 214 171
f 171 214 172
f 172 215 216
f 172 216 173
f 172 214 215
f 174 217 218
f 174 218 175
f 176 219 220
f 176 220 177
f 177 220 221
f 177 221 222
f 177 222 223
f 177 223 178
f 178 223 179
f 179 224 180
f 179 223 225
f 179 225 224
f 180 224 225
f 180 225 192
f 181 226 227
f 181 227 182
f 181 183 226
f 182 227 228
f 182 228 229
f 182 229 230
f 182 230 185
f 182 185 184
f 183 195 231
f 183 231 232
f 183 232 226
f 185 230 190
f 186 189 204
f 187 191 188
f 188 204 189
f 188 191 233
f 188 233 204
f 190 230 234
f 190 234 191
f 191 234 233
f 192 225 235
f 192 235 193
f 193 235 236
f 193 236 237
f 193 237 194
f 194 237 238
f 194 238 239
f 194 239 240
f 194 240 195
f 195 240 231
f 196 241 198
f 196 206 242
f 196 242 243
f 196 243 241
f 198 241 244
f 198 244 270
f 198 270 245
f 198 245 200
f 198 200 199
f 200 246 201
f 200 245 247
f 200 247 248
f 200 248 246
f 201 246 202
f 202 246 248
f 202 248 249
f 202 249 207
f 204 233 205
f 205 233 250
f 205 250 206
f 206 250 251
f 206 251 242
f 207 249 210
f 208 210 252
f 208 252 212
f 208 212 211
f 210 249 253
f 210 253 254
f 210 254 255
f 210 255 256
f 210 256 257
f 210 257 212
f 210 212 252
f 212 257 215
f 212 215 213
f 213 215 214
f 215 257 258
f 215 258 216
f 216 258 259
f 217 260 261
f 217 261 262
f 217 262 263
f 217 263 218
f 219 264 220
f 220 264 265
f 220 265 221
f 221 265 266
f 221 266 267
f 221 267 222
f 222 267 268
f 222 268 236
f 222 236 235
f 222 235 223
f 223 235 225
f 226 232 227
f 227 232 269
f 227 269 228
f 228 269 251
f 228 251 229
f 229 251 233
f 229 233 230
f 230 233 234
f 231 240 270
f 231 270 232
f 232 270 269
f 233 251 250
f 236 268 271
f 236 271 272
f 236 272 273
f 236 273 274
f 236 274 275
f 236 275 237
f 237 275 238
f 238 276 277
f 238 277 278
f 238 278 279
f 238 279 240
f 238 240 239
f 238 275 274
f 238 274 280
f 238 280 276
f 240 279 245
f 240 245 270
f 241 269 244
f 241 243 281
f 241 281 251
f 241 251 269
f 242 251 243
f 243 251 281
f 244 269 270
f 245 279 247
f 247 279 277
f 247 277 248
f 248 277 282
f 248 282 249
f 249 282 276
f 249 276 253
f 253 276 273
f 253 273 283
f 253 283 254
f 254 283 255
f 255 283 284
f 255 284 285
f 255 285 286
f 255 286 256
f 256 286 287
f 256 287 288
f 256 288 289
f 256 289 259
f 256 259 258
f 256 258 257
f 260 290 261
f 261 290 291
f 261 291 292
f 261 292 293
f 261 293 294
f 261 294 295
f 266 296 297
f 266 297 267
f 267 297 298
f 267 298 268
f 268 298 299
f 268 299 271
f 271 299 300
f 271 300 272
f 272 300 301
f 272 301 273
f 273 276 280
f 273 280 274
f 273 301 302
f 273 302 285
f 273 285 284
f 273 284 283
f 276 282 277
f 277 279 278
f 285 302 303
f 285 303 304
f 285 304 286
f 286 304 287
f 287 304 305
f 287 305 288
f 288 306 307
f 288 307 289
f 288 305 306
f 294 308 295
f 295 308 309
f 296 310 311
f 296 311 297
f 297 312 298
f 297 311 313
f 297 313 312
f 298 312 299
f 299 312 314
f 299 314 300
f 300 314 315
f 300 315 301
f 301 315 302
f 302 315 316
f 302 316 303
f 303 316 317
f 303 317 304
f 304 317 318
f 304 318 305
f 305 318 319
f 305 319 320
f 305 320 306
f 308 321 309
f 308 322 330
f 308 330 323
f 308 323 321
f 310 313 311
f 312 324 314
f 312 313 324
f 313 325 324
f 314 324 326
f 314 326 315
f 315 326 318
f 315 318 316
f 316 318 317
f 318 326 327
f 318 327 319
f 319 327 328
f 322 329 330
f 324 325 328
f 324 328 327
f 324 327 326
f 325 331 328
f 328 331 332
f 329 333 330
f 330 333 334
f 330 334 335
f 331 336 332
f 331 337 336
f 332 336 337
f 332 337 338
f 334 339 335
f 335 339 340
f 335 340 341
f 337 342 343
f 337 343 338
f 340 343 341
f 341 343 342

