# https://github.com/mikedh/trimesh
v 0.04502869 -0.01850731 -0.02295775
v 0.04500040 -0.01952688 -0.02295775
v 0.04502226 -0.01796026 -0.02295775
v 0.04496309 -0.01850731 -0.02188628
v 0.04496824 -0.02059193 -0.02295775
v 0.04490521 -0.02059193 -0.02188628
v 0.04499010 -0.01796026 -0.02243690
v 0.04300546 -0.01796026 -0.02295775
v 0.04495538 -0.01796026 -0.02188628
v 0.04481003 -0.01796026 -0.01980288
v 0.04481646 -0.01850731 -0.01980288
v 0.04489364 -0.02161023 -0.02295775
v 0.04423123 -0.01981620 -0.01222824
v 0.04475344 -0.02059193 -0.01980288
v 0.04460809 -0.02267781 -0.01980288
v 0.04475087 -0.02267781 -0.02188628
v 0.04104397 -0.03086719 -0.02295775
v 0.03575758 -0.01796026 0.00257879
v 0.04465954 -0.01796026 -0.01771948
v 0.04466340 -0.01850731 -0.01771948
v 0.04472385 -0.02369611 -0.02295775
v 0.04458366 -0.02475990 -0.02188628
v 0.04423380 -0.02396017 -0.01638015
v 0.04445118 -0.02475990 -0.01980288
v 0.04450777 -0.01850731 -0.01562864
v 0.04435085 -0.01850731 -0.01354524
v 0.04424023 -0.01850731 -0.01210174
v 0.04310321 -0.01850731 0.00104600
v 0.04302604 -0.02059193 0.00104600
v 0.04302990 -0.02267781 -0.00103740
v 0.03499743 -0.02480791 0.00312940
v 0.03500000 -0.02476116 0.00312940
v 0.03566626 -0.01796026 0.00292850
v 0.04323569 -0.03086719 -0.02295775
v 0.03972816 -0.03086719 -0.00949005
v 0.03318642 -0.02480791 0.01350920
v 0.03339350 -0.02480791 0.01147044
v 0.03339993 -0.02480791 0.01142579
v 0.03366361 -0.02480791 0.00963258
v 0.04438944 -0.01796026 -0.01408841
v 0.04462610 -0.02475990 -0.02295775
v 0.04429040 -0.02638590 -0.01980288
v 0.04435471 -0.02654004 -0.02188628
v 0.04423252 -0.02610921 -0.01852308
v 0.04426467 -0.01796026 -0.01248122
v 0.04423766 -0.01796026 -0.01214639
v 0.04309807 -0.01796026 0.00104600
v 0.04291414 -0.01850731 0.00313684
v 0.04216170 -0.02013584 0.01081566
v 0.04264660 -0.02059193 0.00522024
v 0.04218227 -0.02215981 0.00896292
v 0.04265432 -0.02267781 0.00313684
v 0.03516463 -0.01796026 0.00522024
v 0.04437400 -0.02661710 -0.02295775
v 0.04318553 -0.03086719 -0.01980288
v 0.03950693 -0.03086719 -0.00713879
v 0.03302307 -0.02480791 0.01558516
v 0.03343338 -0.01796026 0.01826381
v 0.03348096 -0.01796026 0.01772064
v 0.03363017 -0.01796026 0.01618041
v 0.03369448 -0.01796026 0.01563724
v 0.03480449 -0.01796026 0.00730364
v 0.04451420 -0.02562912 -0.02295775
v 0.04335274 -0.02893040 -0.01562864
v 0.04354181 -0.02893040 -0.01771948
v 0.04306591 -0.03086719 -0.01771948
v 0.04225816 -0.02278520 0.00738549
v 0.04217070 -0.02399933 0.00675303
v 0.04007030 -0.02389447 0.02948441
v 0.04013461 -0.02425707 0.02813764
v 0.04007673 -0.02597403 0.02540690
v 0.04083303 -0.02684451 0.01562980
v 0.04290899 -0.01796026 0.00313684
v 0.04272506 -0.01850731 0.00522024
v 0.04073013 -0.02059193 0.02605424
v 0.04224144 -0.02073596 0.00954329
v 0.04234563 -0.01850731 0.00938704
v 0.04218742 -0.01850731 0.01110584
v 0.04006644 -0.01993749 0.03360657
v 0.04008573 -0.02201073 0.03174639
v 0.04034812 -0.02267781 0.02813764
v 0.03950693 -0.03086719 0.01633667
v 0.03189119 -0.02480791 0.04481228
v 0.03190791 -0.02480791 0.04272888
v 0.03192592 -0.02480791 0.04064548
v 0.03196837 -0.02480791 0.03856208
v 0.03204297 -0.02480791 0.03655309
v 0.03252273 -0.02480791 0.02397084
v 0.03261791 -0.02480791 0.02188744
v 0.03273110 -0.02480791 0.01980404
v 0.03286487 -0.02480791 0.01767600
v 0.03332276 -0.01796026 0.01980404
v 0.04006515 -0.02797274 0.02109128
v 0.04026580 -0.03086719 0.01039898
v 0.04015133 -0.02269550 0.03019872
v 0.03890626 -0.02267655 0.04272888
v 0.03869661 -0.02267655 0.04481228
v 0.03882266 -0.02476116 0.04064548
v 0.04043301 -0.02684451 0.01979660
v 0.04063366 -0.02684451 0.01771320
v 0.03881365 -0.02480791 0.04064548
v 0.04257972 -0.01796026 0.00676047
v 0.04053719 -0.02059193 0.02813764
v 0.04234048 -0.01796026 0.00938704
v 0.04218614 -0.01796026 0.01107608
v 0.04099509 -0.01850731 0.02397084
v 0.03888697 -0.02059193 0.04481228
v 0.04013718 -0.02061594 0.03238629
v 0.04034297 -0.02059193 0.03022848
v 0.04041372 -0.01850731 0.03022848
v 0.04021950 -0.01850731 0.03230444
v 0.04008058 -0.01850731 0.03377770
v 0.03895514 -0.01850731 0.04481228
v 0.03960597 -0.03086719 0.01557027
v 0.04006386 -0.03004977 0.01482620
v 0.03812167 -0.02480791 0.04682127
v 0.03795703 -0.02480791 0.04789274
v 0.03777824 -0.02480791 0.04892700
v 0.03775766 -0.02480791 0.04903116
v 0.03728047 -0.02480791 0.05106992
v 0.03726504 -0.02480791 0.05109968
v 0.03642256 -0.02480791 0.05255062
v 0.03639169 -0.02480791 0.05256551
v 0.03482893 -0.02480791 0.05304915
v 0.03478906 -0.02480791 0.05304171
v 0.03327517 -0.02480791 0.05261015
v 0.03325331 -0.02480791 0.05258039
v 0.03251501 -0.02480791 0.05107736
v 0.03213686 -0.02480791 0.04898653
v 0.03213043 -0.02480791 0.04893444
v 0.03195036 -0.02480791 0.04704449
v 0.03194521 -0.02480791 0.04697009
v 0.03189634 -0.02480791 0.04513223
v 0.03260762 -0.01796026 0.04690312
v 0.03260376 -0.01796026 0.04481228
v 0.03262949 -0.01796026 0.03856208
v 0.03264106 -0.01796026 0.03647868
v 0.03267193 -0.01796026 0.03439528
v 0.03271566 -0.01796026 0.03231188
v 0.03275296 -0.01796026 0.03077165
v 0.03277226 -0.01796026 0.03022104
v 0.03282628 -0.01796026 0.02868825
v 0.03285200 -0.01796026 0.02813764
v 0.03296005 -0.01796026 0.02606168
v 0.03307966 -0.01796026 0.02397084
v 0.03320057 -0.01796026 0.02188744
v 0.04023622 -0.03060820 0.01147044
v 0.03859371 -0.02480791 0.04272888
v 0.03837248 -0.02480791 0.04481228
v 0.03844965 -0.02267655 0.04690312
v 0.03838148 -0.02476116 0.04481228
v 0.03860271 -0.02476116 0.04272888
v 0.04040857 -0.01796026 0.03022848
v 0.03863873 -0.02059193 0.04690312
v 0.04007930 -0.01796026 0.03375538
v 0.03895385 -0.01796026 0.04481228
v 0.03869146 -0.01850731 0.04690312
v 0.03836605 -0.02480791 0.04486437
v 0.03812424 -0.02477253 0.04684359
v 0.03802906 -0.02408524 0.04830941
v 0.03777181 -0.02477253 0.04899397
v 0.03789014 -0.02323876 0.04970083
v 0.03728819 -0.02476116 0.05106992
v 0.03778982 -0.02059193 0.05159077
v 0.03642770 -0.02476116 0.05255806
v 0.03482893 -0.02476116 0.05305659
v 0.03482893 -0.02059193 0.05292266
v 0.03482893 -0.01796026 0.05283337
v 0.03328160 -0.02476116 0.05261015
v 0.03368676 -0.01796026 0.05222323
v 0.03323658 -0.01796026 0.05106992
v 0.03275296 -0.01796026 0.04898653
v 0.03264492 -0.01796026 0.04744629
v 0.03833132 -0.02059193 0.04898653
v 0.03811523 -0.02259695 0.04899397
v 0.03840721 -0.01850731 0.04898653
v 0.03868889 -0.01796026 0.04690312
v 0.03798532 -0.02184902 0.05017704
v 0.03805735 -0.02059193 0.05054907
v 0.03787342 -0.01850731 0.05185864
v 0.03674798 -0.02059193 0.05268455
v 0.03683158 -0.01850731 0.05272176
v 0.03682129 -0.01796026 0.05272920
v 0.03534599 -0.01796026 0.05281849
v 0.03397616 -0.01796026 0.05237949
v 0.03810880 -0.01850731 0.05081694
v 0.03847795 -0.01796026 0.04843591
v 0.03839820 -0.01796026 0.04898653
v 0.03810237 -0.01796026 0.05077974
v 0.03792744 -0.01796026 0.05154613
v 0.03786313 -0.01796026 0.05182143
v 0.03817826 -0.01796026 0.05033329
f 1 2 5
f 1 5 12
f 1 12 21
f 1 21 41
f 1 41 63
f 1 63 54
f 1 54 34
f 1 34 17
f 1 17 8
f 1 8 3
f 1 3 4
f 1 4 2
f 2 4 6
f 2 6 5
f 3 7 4
f 3 8 18
f 3 18 33
f 3 33 53
f 3 53 62
f 3 62 61
f 3 61 60
f 3 60 59
f 3 59 58
f 3 58 92
f 3 92 146
f 3 146 145
f 3 145 144
f 3 144 143
f 3 143 142
f 3 142 141
f 3 141 140
f 3 140 139
f 3 139 138
f 3 138 137
f 3 137 136
f 3 136 135
f 3 135 134
f 3 134 173
f 3 173 172
f 3 172 171
f 3 171 170
f 3 170 185
f 3 185 168
f 3 168 184
f 3 184 183
f 3 183 191
f 3 191 190
f 3 190 189
f 3 189 192
f 3 192 188
f 3 188 187
f 3 187 177
f 3 177 156
f 3 156 155
f 3 155 153
f 3 153 105
f 3 105 104
f 3 104 102
f 3 102 73
f 3 73 47
f 3 47 46
f 3 46 45
f 3 45 40
f 3 40 19
f 3 19 10
f 3 10 9
f 3 9 7
f 4 7 9
f 4 9 10
f 4 10 11
f 4 11 6
f 5 6 12
f 6 11 13
f 6 13 14
f 6 14 15
f 6 15 16
f 6 16 12
f 8 17 18
f 10 19 11
f 11 19 20
f 11 20 13
f 12 16 22
f 12 22 21
f 13 23 24
f 13 24 15
f 13 15 14
f 13 20 25
f 13 25 26
f 13 26 27
f 13 27 28
f 13 28 29
f 13 29 30
f 13 30 23
f 15 24 16
f 16 24 22
f 17 31 32
f 17 32 33
f 17 33 18
f 17 34 55
f 17 55 66
f 17 66 94
f 17 94 114
f 17 114 82
f 17 82 56
f 17 56 35
f 17 35 36
f 17 36 37
f 17 37 38
f 17 38 39
f 17 39 31
f 19 40 20
f 20 40 25
f 21 22 41
f 22 24 42
f 22 42 43
f 22 43 41
f 23 30 44
f 23 44 24
f 24 44 42
f 25 40 26
f 26 40 27
f 27 40 45
f 27 45 46
f 27 46 47
f 27 47 28
f 28 47 73
f 28 73 48
f 28 48 49
f 28 49 29
f 29 49 50
f 29 50 51
f 29 51 30
f 30 51 52
f 30 52 44
f 31 39 32
f 32 39 53
f 32 53 33
f 34 54 55
f 35 56 36
f 36 57 58
f 36 58 59
f 36 59 60
f 36 60 37
f 36 56 57
f 37 60 61
f 37 61 62
f 37 62 38
f 38 62 39
f 39 62 53
f 41 43 63
f 42 44 64
f 42 64 65
f 42 65 66
f 42 66 55
f 42 55 43
f 43 54 63
f 43 55 54
f 44 52 67
f 44 67 68
f 44 68 69
f 44 69 70
f 44 70 71
f 44 71 72
f 44 72 64
f 48 73 74
f 48 74 49
f 49 75 76
f 49 76 50
f 49 74 77
f 49 77 78
f 49 78 79
f 49 79 75
f 50 76 51
f 51 67 52
f 51 76 75
f 51 75 80
f 51 80 81
f 51 81 67
f 56 82 83
f 56 83 84
f 56 84 85
f 56 85 86
f 56 86 87
f 56 87 88
f 56 88 89
f 56 89 90
f 56 90 91
f 56 91 57
f 57 91 58
f 58 91 92
f 64 66 65
f 64 72 93
f 64 93 66
f 66 93 94
f 67 81 68
f 68 81 69
f 69 81 95
f 69 95 80
f 69 80 96
f 69 96 97
f 69 97 98
f 69 98 70
f 70 98 71
f 71 93 99
f 71 99 100
f 71 100 72
f 71 98 101
f 71 101 93
f 72 100 93
f 73 102 74
f 74 102 77
f 75 79 103
f 75 103 80
f 77 102 104
f 77 104 105
f 77 105 78
f 78 105 106
f 78 106 79
f 79 107 108
f 79 108 109
f 79 109 103
f 79 106 110
f 79 110 111
f 79 111 112
f 79 112 113
f 79 113 107
f 80 95 81
f 80 103 109
f 80 109 108
f 80 108 107
f 80 107 97
f 80 97 96
f 82 114 115
f 82 115 116
f 82 116 117
f 82 117 118
f 82 118 119
f 82 119 120
f 82 120 121
f 82 121 122
f 82 122 123
f 82 123 124
f 82 124 125
f 82 125 126
f 82 126 127
f 82 127 128
f 82 128 129
f 82 129 130
f 82 130 131
f 82 131 132
f 82 132 133
f 82 133 83
f 83 133 134
f 83 134 135
f 83 135 136
f 83 136 137
f 83 137 84
f 84 137 85
f 85 137 138
f 85 138 86
f 86 138 139
f 86 139 140
f 86 140 141
f 86 141 142
f 86 142 87
f 87 142 88
f 88 142 89
f 89 142 143
f 89 143 144
f 89 144 90
f 90 144 145
f 90 145 146
f 90 146 92
f 90 92 91
f 93 115 147
f 93 147 94
f 93 100 99
f 93 101 148
f 93 148 149
f 93 149 115
f 94 147 115
f 94 115 114
f 97 107 150
f 97 150 151
f 97 151 152
f 97 152 98
f 98 152 148
f 98 148 101
f 105 153 106
f 106 153 110
f 107 113 154
f 107 154 150
f 110 153 155
f 110 155 111
f 111 155 112
f 112 155 156
f 112 156 113
f 113 157 154
f 113 156 157
f 115 149 158
f 115 158 116
f 116 158 151
f 116 151 150
f 116 150 159
f 116 159 160
f 116 160 117
f 117 160 118
f 118 160 161
f 118 161 119
f 119 161 162
f 119 162 120
f 120 162 163
f 120 163 164
f 120 164 121
f 121 164 165
f 121 165 122
f 122 165 123
f 123 165 166
f 123 166 124
f 124 166 125
f 125 166 126
f 126 166 167
f 126 167 168
f 126 168 169
f 126 169 170
f 126 170 127
f 127 170 128
f 128 170 171
f 128 171 172
f 128 172 129
f 129 172 130
f 130 172 131
f 131 172 173
f 131 173 132
f 132 173 134
f 132 134 133
f 148 152 151
f 148 151 149
f 149 151 158
f 150 154 174
f 150 174 175
f 150 175 160
f 150 160 159
f 154 157 176
f 154 176 174
f 156 177 157
f 157 177 176
f 160 175 162
f 160 162 161
f 162 175 178
f 162 178 163
f 163 178 164
f 164 178 179
f 164 179 180
f 164 180 165
f 165 181 166
f 165 180 181
f 166 181 182
f 166 182 183
f 166 183 184
f 166 184 167
f 167 184 168
f 168 185 169
f 169 185 170
f 174 176 186
f 174 186 179
f 174 179 175
f 175 179 178
f 176 177 187
f 176 187 188
f 176 188 186
f 179 186 180
f 180 186 189
f 180 189 190
f 180 190 191
f 180 191 183
f 180 183 182
f 180 182 181
f 186 188 192
f 186 192 189

