# https://github.com/mikedh/trimesh
v -0.03812764 -0.04407570 -0.04307549
v -0.03476360 -0.04407570 -0.04307549
v -0.03822593 -0.04407570 -0.04292716
v -0.03876716 -0.04322170 -0.04307549
v -0.04331851 -0.02623584 -0.04307549
v -0.04480330 -0.02623584 -0.01552374
v -0.03680011 -0.04407570 -0.01552374
v -0.03830063 -0.04407570 -0.04281389
v -0.03864005 -0.04359020 -0.04284895
v -0.03947614 -0.04294052 -0.04222866
v -0.03973038 -0.04178263 -0.04307549
v -0.04596964 -0.02623584 -0.04307549
v -0.04686733 -0.02623584 -0.01552374
v -0.03962160 -0.04407570 -0.01552374
v -0.03910134 -0.04407570 -0.04126047
v -0.04131607 -0.04047630 -0.04178097
v -0.04001869 -0.04129014 -0.04307549
v -0.04587790 -0.02687329 -0.04307549
v -0.04593950 -0.02696934 -0.04291368
v -0.04601682 -0.02623584 -0.04297301
v -0.04646238 -0.02893234 -0.01552374
v -0.04688174 -0.02623584 -0.01562353
v -0.04095569 -0.04205333 -0.01552374
v -0.04131214 -0.04254757 -0.02241168
v -0.04017595 -0.04407570 -0.02183184
v -0.03923370 -0.04407570 -0.04084514
v -0.04148775 -0.04072254 -0.04065366
v -0.04346397 -0.03852029 -0.03801607
v -0.04324119 -0.03820767 -0.03940768
v -0.04357143 -0.03670224 -0.04065366
v -0.04337224 -0.03626913 -0.04174052
v -0.04351901 -0.03471654 -0.04307549
v -0.04110901 -0.03935334 -0.04307549
v -0.04066738 -0.04014098 -0.04307549
v -0.04582548 -0.02712478 -0.04307549
v -0.04607054 -0.02623584 -0.04285435
v -0.04577438 -0.02893234 -0.04241205
v -0.04680180 -0.02684709 -0.04065366
v -0.04711894 -0.02623584 -0.04007652
v -0.04636279 -0.02623584 -0.04209112
v -0.04599061 -0.03090407 -0.01552374
v -0.04745312 -0.02623584 -0.02011660
v -0.04759858 -0.02623584 -0.02143809
v -0.04752519 -0.02790718 -0.02494948
v -0.04159128 -0.04106659 -0.01552374
v -0.04178392 -0.04163244 -0.02178599
v -0.04356226 -0.03871239 -0.02397590
v -0.04297647 -0.03975502 -0.02397590
v -0.04136063 -0.04262267 -0.02397590
v -0.04064379 -0.04366529 -0.02397590
v -0.04035548 -0.04407570 -0.02397590
v -0.04162535 -0.04101071 -0.01552374
v -0.03942372 -0.04407570 -0.04007112
v -0.04175640 -0.04111200 -0.03856894
v -0.04550965 -0.03430264 -0.03782998
v -0.04384140 -0.03741479 -0.03865524
v -0.04298695 -0.03980566 -0.03648422
v -0.04358192 -0.03876304 -0.03648422
v -0.04562498 -0.03454539 -0.03648422
v -0.04526459 -0.03388524 -0.03921890
v -0.04559615 -0.03249682 -0.04005494
v -0.04359764 -0.03503440 -0.04255499
v -0.04398817 -0.03344514 -0.04307549
v -0.04558042 -0.03040110 -0.04201021
v -0.04542709 -0.02893234 -0.04307549
v -0.04641914 -0.02893234 -0.04065366
v -0.04736531 -0.02623584 -0.03926474
v -0.04595784 -0.03102632 -0.01552374
v -0.04613476 -0.03101584 -0.01772173
v -0.04596964 -0.03101584 -0.01563701
v -0.04791834 -0.02623584 -0.02606061
v -0.04780564 -0.02684709 -0.02606061
v -0.04765755 -0.02692394 -0.02414310
v -0.04794324 -0.02684709 -0.02814534
v -0.04756058 -0.02805214 -0.02606061
v -0.04628678 -0.03101584 -0.01980645
v -0.04292143 -0.03961181 -0.02189117
v -0.04348756 -0.03856919 -0.02189117
v -0.04408384 -0.03726984 -0.02189117
v -0.04562891 -0.03461350 -0.02814534
v -0.04569050 -0.03473925 -0.03022736
v -0.04361206 -0.03881893 -0.02606061
v -0.04146678 -0.04278159 -0.02814534
v -0.04071718 -0.04374563 -0.02606061
v -0.04049046 -0.04407570 -0.02606061
v -0.04039480 -0.04407570 -0.02451258
v -0.04372607 -0.03700088 -0.01552374
v -0.04335520 -0.03831770 -0.01873038
v -0.04283887 -0.03944590 -0.01980645
v -0.03997020 -0.04407570 -0.03754411
v -0.04135277 -0.04260695 -0.03582887
v -0.04616359 -0.03310109 -0.03648422
v -0.04576782 -0.03315523 -0.03854197
v -0.04143533 -0.04273269 -0.03439950
v -0.04305117 -0.03997507 -0.03439950
v -0.04365924 -0.03893245 -0.03439950
v -0.04571802 -0.03474449 -0.03439950
v -0.04584121 -0.03106474 -0.04071029
v -0.04639948 -0.03101584 -0.03856894
v -0.04461852 -0.03157296 -0.04307549
v -0.04752257 -0.02789321 -0.03753062
v -0.04761431 -0.02684709 -0.03797562
v -0.04766542 -0.02623584 -0.03820485
v -0.04555814 -0.03233440 -0.01552374
v -0.04563153 -0.03264702 -0.01772173
v -0.04554373 -0.03238155 -0.01552374
v -0.04801532 -0.02623584 -0.02753583
v -0.04762217 -0.02829140 -0.02814534
v -0.04805332 -0.02623584 -0.02814534
v -0.04811492 -0.02623584 -0.02961785
v -0.04802974 -0.02684709 -0.03022736
v -0.04571278 -0.03287230 -0.01980645
v -0.04616883 -0.03310109 -0.02814534
v -0.04604040 -0.03310109 -0.02606061
v -0.04591067 -0.03310109 -0.02397590
v -0.04372214 -0.03741130 -0.01791052
v -0.04393182 -0.03726984 -0.01980645
v -0.04545330 -0.03418388 -0.02268407
v -0.04549524 -0.03428867 -0.02397590
v -0.04556338 -0.03445458 -0.02606061
v -0.04367889 -0.03897436 -0.03022736
v -0.04364744 -0.03890450 -0.02814534
v -0.04627498 -0.03310109 -0.03022736
v -0.04572589 -0.03478640 -0.03231478
v -0.04076698 -0.04382422 -0.02814534
v -0.04150741 -0.04283050 -0.03022736
v -0.04059399 -0.04407570 -0.02814534
v -0.04373131 -0.03700962 -0.01563701
v -0.04019298 -0.04407570 -0.03649770
v -0.04046163 -0.04407570 -0.03487685
v -0.04053240 -0.04407570 -0.03439950
v -0.04073684 -0.04377532 -0.03439950
v -0.04757892 -0.02813073 -0.03648422
v -0.04631823 -0.03310109 -0.03439950
v -0.04767066 -0.02845207 -0.03439950
v -0.04149823 -0.04282002 -0.03231478
v -0.04368414 -0.03898309 -0.03231478
v -0.04780826 -0.02684709 -0.03648422
v -0.04790524 -0.02623584 -0.03648422
v -0.04776895 -0.02623584 -0.03753602
v -0.04766542 -0.02843286 -0.03022736
v -0.04813719 -0.02623584 -0.03022736
v -0.04815030 -0.02623584 -0.03170258
v -0.04804677 -0.02684709 -0.03231478
v -0.04769425 -0.02850272 -0.03231478
v -0.04572589 -0.03326002 -0.02195051
v -0.04632609 -0.03310109 -0.03231478
v -0.04078794 -0.04387312 -0.03022736
v -0.04078532 -0.04386264 -0.03231478
v -0.04064510 -0.04407570 -0.03022736
v -0.04062413 -0.04407570 -0.03262222
v -0.04797600 -0.02684709 -0.03439950
v -0.04806381 -0.02623584 -0.03439950
v -0.04814375 -0.02623584 -0.03231478
v -0.04064510 -0.04407570 -0.03051323
v -0.04063724 -0.04407570 -0.03231478
v -0.04809264 -0.02623584 -0.03378730
f 1 2 7
f 1 7 14
f 1 14 25
f 1 25 51
f 1 51 86
f 1 86 85
f 1 85 127
f 1 127 150
f 1 150 155
f 1 155 156
f 1 156 151
f 1 151 131
f 1 131 130
f 1 130 129
f 1 129 90
f 1 90 53
f 1 53 26
f 1 26 15
f 1 15 8
f 1 8 3
f 1 3 4
f 1 4 11
f 1 11 17
f 1 17 34
f 1 34 33
f 1 33 32
f 1 32 63
f 1 63 100
f 1 100 65
f 1 65 35
f 1 35 18
f 1 18 12
f 1 12 5
f 1 5 2
f 2 5 6
f 2 6 7
f 3 8 4
f 4 8 9
f 4 9 10
f 4 10 11
f 5 12 20
f 5 20 36
f 5 36 40
f 5 40 39
f 5 39 67
f 5 67 103
f 5 103 140
f 5 140 139
f 5 139 153
f 5 153 157
f 5 157 154
f 5 154 143
f 5 143 142
f 5 142 110
f 5 110 109
f 5 109 107
f 5 107 71
f 5 71 43
f 5 43 42
f 5 42 22
f 5 22 13
f 5 13 6
f 6 13 21
f 6 21 41
f 6 41 68
f 6 68 104
f 6 104 106
f 6 106 87
f 6 87 52
f 6 52 45
f 6 45 23
f 6 23 14
f 6 14 7
f 8 15 10
f 8 10 9
f 10 15 16
f 10 16 11
f 11 16 17
f 12 18 19
f 12 19 20
f 13 22 21
f 14 23 24
f 14 24 25
f 15 26 16
f 16 26 27
f 16 27 28
f 16 28 29
f 16 29 30
f 16 30 31
f 16 31 32
f 16 32 33
f 16 33 34
f 16 34 17
f 18 35 19
f 19 36 20
f 19 35 37
f 19 37 38
f 19 38 39
f 19 39 40
f 19 40 36
f 21 22 42
f 21 42 43
f 21 43 44
f 21 44 41
f 23 45 24
f 24 46 47
f 24 47 48
f 24 48 49
f 24 49 50
f 24 50 51
f 24 51 25
f 24 45 52
f 24 52 46
f 26 53 54
f 26 54 27
f 27 54 28
f 28 55 56
f 28 56 29
f 28 54 57
f 28 57 58
f 28 58 59
f 28 59 55
f 29 56 30
f 30 56 55
f 30 55 60
f 30 60 61
f 30 61 31
f 31 62 32
f 31 61 62
f 32 62 61
f 32 61 64
f 32 64 63
f 35 65 37
f 37 64 66
f 37 66 38
f 37 65 64
f 38 66 39
f 39 66 67
f 41 44 69
f 41 69 70
f 41 70 68
f 43 71 72
f 43 72 73
f 43 73 44
f 44 73 72
f 44 72 74
f 44 74 75
f 44 75 76
f 44 76 69
f 46 77 47
f 46 52 77
f 47 77 78
f 47 78 79
f 47 79 80
f 47 80 81
f 47 81 82
f 47 82 48
f 48 82 49
f 49 82 83
f 49 83 84
f 49 84 85
f 49 85 86
f 49 86 50
f 50 86 51
f 52 87 88
f 52 88 89
f 52 89 77
f 53 90 91
f 53 91 54
f 54 91 57
f 55 59 92
f 55 92 93
f 55 93 61
f 55 61 60
f 57 91 94
f 57 94 95
f 57 95 96
f 57 96 58
f 58 96 97
f 58 97 59
f 59 97 92
f 61 98 64
f 61 93 99
f 61 99 98
f 63 64 100
f 64 98 66
f 64 65 100
f 66 98 101
f 66 101 102
f 66 102 67
f 67 102 103
f 68 70 69
f 68 69 104
f 69 76 105
f 69 105 106
f 69 106 104
f 71 107 74
f 71 74 72
f 74 108 75
f 74 107 109
f 74 109 110
f 74 110 111
f 74 111 108
f 75 108 76
f 76 112 105
f 76 108 113
f 76 113 114
f 76 114 115
f 76 115 112
f 77 89 78
f 78 89 88
f 78 88 116
f 78 116 117
f 78 117 79
f 79 118 119
f 79 119 120
f 79 120 80
f 79 117 118
f 80 120 113
f 80 113 81
f 81 121 122
f 81 122 82
f 81 113 123
f 81 123 124
f 81 124 121
f 82 122 83
f 83 125 84
f 83 122 121
f 83 121 126
f 83 126 125
f 84 125 85
f 85 125 127
f 87 128 88
f 87 106 105
f 87 105 118
f 87 118 128
f 88 128 116
f 90 129 91
f 91 130 131
f 91 131 132
f 91 132 94
f 91 129 130
f 92 133 101
f 92 101 93
f 92 97 134
f 92 134 135
f 92 135 133
f 93 101 99
f 94 132 136
f 94 136 95
f 95 136 96
f 96 136 137
f 96 137 97
f 97 137 124
f 97 124 134
f 98 99 101
f 101 133 138
f 101 138 139
f 101 139 140
f 101 140 102
f 102 140 103
f 105 112 118
f 108 111 141
f 108 141 123
f 108 123 113
f 110 142 111
f 111 142 143
f 111 143 144
f 111 144 145
f 111 145 141
f 112 115 146
f 112 146 118
f 113 120 119
f 113 119 118
f 113 118 114
f 114 118 115
f 115 118 146
f 116 128 117
f 117 128 118
f 121 124 137
f 121 137 126
f 123 147 124
f 123 141 147
f 124 147 134
f 125 126 127
f 126 148 127
f 126 137 136
f 126 136 149
f 126 149 148
f 127 148 150
f 131 151 136
f 131 136 132
f 133 135 152
f 133 152 138
f 134 147 145
f 134 145 135
f 135 145 144
f 135 144 152
f 136 151 149
f 138 152 139
f 139 152 153
f 141 145 147
f 143 154 144
f 144 154 152
f 148 155 150
f 148 149 156
f 148 156 155
f 149 151 156
f 152 154 157
f 152 157 153

