# https://github.com/mikedh/trimesh
v 0.00933495 -0.05810836 -0.04682047
v 0.00933495 -0.05780827 -0.04710983
v 0.00950421 -0.05806888 -0.04682047
v 0.00933495 0.02256827 -0.04682047
v 0.00933495 -0.05642628 -0.04828685
v 0.01015973 -0.05686062 -0.04778332
v 0.01146153 -0.05751608 -0.04682047
v 0.00981196 0.02245771 -0.04682047
v 0.01533923 0.01595052 -0.05218941
v 0.00933495 0.02176277 -0.04760136
v 0.00933495 -0.05103257 -0.05218751
v 0.01189854 -0.05656843 -0.04754071
v 0.01189854 -0.05552601 -0.04833361
v 0.01189854 -0.05737393 -0.04682047
v 0.01074138 0.02214973 -0.04682047
v 0.01398203 0.01600580 -0.05224247
v 0.00933495 0.02095727 -0.04829949
v 0.01189854 0.02176277 -0.04682047
v 0.01389279 0.02100465 -0.04682047
v 0.01606553 0.02015177 -0.04682047
v 0.01672720 0.01572150 -0.05178253
v 0.01939235 0.01398414 -0.05220520
v 0.01815210 0.01433162 -0.05235620
v 0.01604707 0.01495548 -0.05247561
v 0.01398203 0.01484492 -0.05271758
v 0.01189854 0.01484492 -0.05283383
v 0.01353271 -0.05522592 -0.04812069
v 0.00933495 -0.05092991 -0.05224247
v 0.01068599 -0.05072459 -0.05204536
v 0.01406821 -0.05654474 -0.04682047
v 0.01296952 -0.05697118 -0.04682047
v 0.01412976 -0.05596825 -0.04730569
v 0.00981196 0.01484492 -0.05294313
v 0.00933495 0.01517660 -0.05282751
v 0.00933495 0.01618743 -0.05237010
v 0.01807516 0.01918832 -0.04682047
v 0.02014635 0.01269692 -0.05239221
v 0.01815210 0.01276009 -0.05281866
v 0.01856757 0.01891982 -0.04682047
v 0.02031562 0.01791689 -0.04682047
v 0.02182054 0.01698504 -0.04682047
v 0.02229448 0.01667705 -0.04682047
v 0.02439644 0.01524768 -0.04682047
v 0.02464572 0.01505815 -0.04682047
v 0.02499656 0.01478175 -0.04682047
v 0.02651686 0.01354191 -0.04682047
v 0.02742782 0.01268902 -0.04682047
v 0.02144200 0.01196249 -0.05223300
v 0.01606553 0.01276009 -0.05307264
v 0.01492376 -0.05494163 -0.04789704
v 0.01189854 -0.05045608 -0.05188109
v 0.00933495 -0.04988749 -0.05248761
v 0.00991968 -0.04992698 -0.05243580
v 0.01189854 -0.04941367 -0.05239347
v 0.01361273 -0.04903461 -0.05227343
v 0.01500070 -0.04871873 -0.05210538
v 0.01448675 -0.05637100 -0.04682047
v 0.01398203 0.01276009 -0.05317499
v 0.00933495 0.01484492 -0.05296398
v 0.02023560 0.01067526 -0.05285847
v 0.01815210 0.01067526 -0.05315604
v 0.02849573 0.01159922 -0.04682047
v 0.02932974 0.01070685 -0.04682047
v 0.03060384 0.00923010 -0.04682047
v 0.03116088 0.00858253 -0.04682047
v 0.03264425 0.00669513 -0.04682047
v 0.03270888 0.00646612 -0.04690324
v 0.03125936 0.00701102 -0.04767908
v 0.03180408 0.00562113 -0.04802277
v 0.03217339 0.00442077 -0.04827548
v 0.03019145 0.00233594 -0.05039702
v 0.02768941 0.00156992 -0.05221152
v 0.02988677 -0.00235493 -0.05229807
v 0.02808949 0.00025111 -0.05241811
v 0.02871731 -0.00173106 -0.05263734
v 0.02648917 0.00025111 -0.05296335
v 0.01606553 -0.05361492 -0.04843217
v 0.01772433 -0.05320427 -0.04816618
v 0.01911538 -0.05285680 -0.04790399
v 0.01606553 -0.05465733 -0.04768034
v 0.01597013 -0.05571554 -0.04682047
v 0.01571161 -0.05583400 -0.04682047
v 0.01417592 -0.04974535 -0.05167387
v 0.00933495 -0.04769211 -0.05262408
v 0.00981196 -0.04769211 -0.05265566
v 0.01189854 -0.04769211 -0.05273085
v 0.01417592 -0.04788953 -0.05248761
v 0.01606553 -0.04736043 -0.05238463
v 0.01746889 -0.04691819 -0.05225638
v 0.01606553 -0.04840284 -0.05190763
v 0.01189854 0.01276009 -0.05325397
v 0.01606553 0.01067526 -0.05325839
v 0.00933495 0.01324182 -0.05321164
v 0.02023560 0.00859043 -0.05311371
v 0.02023560 0.00650560 -0.05322743
v 0.01815210 0.00859043 -0.05326913
v 0.03285660 0.00640294 -0.04682047
v 0.03304126 0.00611864 -0.04682047
v 0.03419533 0.00433390 -0.04682047
v 0.03321667 0.00442077 -0.04751481
v 0.03402299 0.00171207 -0.04813017
v 0.03161635 0.00112769 -0.04993898
v 0.03608494 -0.00242600 -0.04810616
v 0.03131783 -0.00391855 -0.05182423
v 0.03161327 -0.00521368 -0.05202451
v 0.03027454 -0.00391855 -0.05249456
v 0.03268734 0.00036167 -0.04949862
v 0.03439845 0.00025111 -0.04839426
v 0.02857266 -0.00391855 -0.05305243
v 0.02148508 -0.05096939 -0.04804804
v 0.02023560 -0.05246194 -0.04763801
v 0.02115271 -0.05291208 -0.04682047
v 0.01987861 -0.05370179 -0.04682047
v 0.01870298 -0.05435724 -0.04682047
v 0.01823520 -0.05460995 -0.04682047
v 0.01831214 -0.05391501 -0.04736697
v 0.02088188 -0.04846602 -0.04984927
v 0.01729039 -0.05507588 -0.04682047
v 0.00933495 0.01276009 -0.05324955
v 0.03065616 -0.02267413 -0.05305495
v 0.01606553 -0.04560727 -0.05275296
v 0.00981196 0.01276009 -0.05326471
v 0.01398203 0.01067526 -0.05327418
v 0.03065616 -0.01642754 -0.05311624
v 0.01815826 -0.04563886 -0.05247371
v 0.02178668 -0.04707613 -0.05028773
v 0.02232217 -0.04291437 -0.05229870
v 0.02339624 -0.04251161 -0.05213949
v 0.02857266 -0.00600338 -0.05309728
v 0.03065616 -0.01225788 -0.05310550
v 0.03065616 -0.01434271 -0.05313140
v 0.03478622 0.00334677 -0.04682047
v 0.03476160 0.00238332 -0.04727031
v 0.03536480 0.00235963 -0.04682047
v 0.03543866 0.00025111 -0.04759631
v 0.03645733 0.00014845 -0.04682047
v 0.03689741 -0.00078341 -0.04682047
v 0.03683279 -0.00177055 -0.04724630
v 0.03736212 -0.00179424 -0.04682047
v 0.03743291 -0.00391855 -0.04752681
v 0.03639270 -0.00391855 -0.04832792
v 0.03183486 -0.00660356 -0.05221215
v 0.03081311 -0.00594810 -0.05258680
v 0.03065616 -0.00808821 -0.05289322
v 0.03065616 -0.01017304 -0.05302779
v 0.02223600 -0.04976904 -0.04844291
v 0.02376246 -0.04906620 -0.04816555
v 0.02287613 -0.05045608 -0.04770498
v 0.02236834 -0.05189335 -0.04694810
v 0.02246374 -0.05199601 -0.04682047
v 0.03253038 -0.02267413 -0.05257669
v 0.03065616 -0.02475896 -0.05298230
v 0.02857266 -0.03101346 -0.05287868
v 0.02648917 -0.03518312 -0.05281803
v 0.02023560 -0.04143761 -0.05279087
v 0.01815210 -0.04352244 -0.05277634
v 0.03274273 -0.01850447 -0.05263229
v 0.02232217 -0.04143761 -0.05267904
v 0.02387326 -0.04143761 -0.05231892
v 0.02598753 -0.03895003 -0.05236378
v 0.02539664 -0.04033992 -0.05207379
v 0.02933589 -0.04425687 -0.04779090
v 0.02861267 -0.04565465 -0.04742889
v 0.02726471 -0.04638119 -0.04778648
v 0.02587366 -0.04705244 -0.04817187
v 0.02515044 -0.04844233 -0.04777384
v 0.03267810 -0.01434271 -0.05260196
v 0.03826692 -0.00391855 -0.04682047
v 0.03876856 -0.00550587 -0.04682047
v 0.03776528 -0.00600338 -0.04777637
v 0.03672199 -0.00600338 -0.04856547
v 0.03307818 -0.00808821 -0.05161322
v 0.03336440 -0.01017304 -0.05181286
v 0.03203490 -0.00808821 -0.05233219
v 0.03232111 -0.01017304 -0.05245855
v 0.03254269 -0.01225788 -0.05255268
v 0.02592290 -0.04924783 -0.04682047
v 0.02536894 -0.04972955 -0.04682047
v 0.02443644 -0.04976904 -0.04731959
v 0.02483960 -0.05017179 -0.04682047
v 0.02380863 -0.05098519 -0.04682047
v 0.02274072 -0.05179069 -0.04682047
v 0.03291507 -0.02043136 -0.05251098
v 0.03379218 -0.01963375 -0.05212496
v 0.03372755 -0.02102364 -0.05205547
v 0.03227803 -0.02475896 -0.05248066
v 0.03065616 -0.02684380 -0.05283257
v 0.03028993 -0.03101346 -0.05249014
v 0.02877886 -0.03329572 -0.05257353
v 0.02826183 -0.03518312 -0.05246297
v 0.02660304 -0.03734692 -0.05253183
v 0.03294893 -0.01624591 -0.05252678
v 0.03381372 -0.01681449 -0.05214013
v 0.03381064 -0.01850447 -0.05213823
v 0.02458417 -0.03952652 -0.05255711
v 0.02781867 -0.03670725 -0.05228228
v 0.02737550 -0.03809714 -0.05200240
v 0.02660304 -0.03952652 -0.05175916
v 0.02991447 -0.04286699 -0.04813649
v 0.03062846 -0.04354613 -0.04732654
v 0.03059153 -0.04449378 -0.04682047
v 0.03013298 -0.04503079 -0.04682047
v 0.02912046 -0.04616796 -0.04682047
v 0.02853881 -0.04676025 -0.04682047
v 0.02762786 -0.04765262 -0.04682047
v 0.02653533 -0.04772369 -0.04741309
v 0.02703697 -0.04822910 -0.04682047
v 0.03378294 -0.01542461 -0.05211738
v 0.03891013 -0.00597180 -0.04682047
v 0.03807303 -0.00860152 -0.04804614
v 0.03594645 -0.01093906 -0.05009440
v 0.03358598 -0.01225788 -0.05194238
v 0.04075358 -0.01980749 -0.04682047
v 0.04072588 -0.02046295 -0.04682047
v 0.04045506 -0.02267413 -0.04682047
v 0.03930405 -0.02475896 -0.04742320
v 0.03357059 -0.02267413 -0.05193606
v 0.03202259 -0.02684380 -0.05232524
v 0.03080388 -0.02896022 -0.05254826
v 0.03182870 -0.02828896 -0.05220141
v 0.02992370 -0.03273502 -0.05231387
v 0.02960979 -0.03412491 -0.05211170
v 0.04076589 -0.01799906 -0.04682047
v 0.04076896 -0.01863083 -0.04682047
v 0.03960565 -0.01434271 -0.04762537
v 0.03964258 -0.01642754 -0.04765380
v 0.02930512 -0.03518312 -0.05191205
v 0.03165944 -0.03614656 -0.04998004
v 0.03407223 -0.03672305 -0.04814660
v 0.03366292 -0.03811294 -0.04783260
v 0.03220108 -0.03935278 -0.04826979
v 0.03179793 -0.04053734 -0.04801203
v 0.03130552 -0.04192723 -0.04770814
v 0.03137938 -0.04353034 -0.04682047
v 0.03939946 -0.00801714 -0.04682047
v 0.03886089 -0.00797766 -0.04726525
v 0.03929174 -0.01017304 -0.04732401
v 0.03825153 -0.01017304 -0.04818703
v 0.03949486 -0.01225788 -0.04750723
v 0.03845157 -0.01225788 -0.04831339
v 0.04009190 -0.02475896 -0.04682047
v 0.03990417 -0.02581717 -0.04682047
v 0.03810073 -0.02638576 -0.04805056
v 0.03947640 -0.02782303 -0.04682047
v 0.03332131 -0.02475896 -0.05177116
v 0.03306587 -0.02684380 -0.05159931
v 0.03916864 -0.02892863 -0.04682047
v 0.03912555 -0.02907867 -0.04682047
v 0.03398298 -0.03050015 -0.05018727
v 0.03159789 -0.02967885 -0.05200745
v 0.03063462 -0.03329572 -0.05167513
v 0.03133322 -0.03101346 -0.05183876
v 0.03240420 -0.03309829 -0.05052780
v 0.03201335 -0.03475667 -0.05025929
v 0.03084081 -0.03534106 -0.05083738
v 0.04066125 -0.01599320 -0.04682047
v 0.04054430 -0.01434271 -0.04682047
v 0.03602032 -0.03643876 -0.04682047
v 0.03556792 -0.03730743 -0.04682047
v 0.03478930 -0.03735482 -0.04736571
v 0.03446000 -0.03518312 -0.04841700
v 0.03550329 -0.03518312 -0.04766897
v 0.03666045 -0.03518312 -0.04682047
v 0.03526632 -0.03781285 -0.04682047
v 0.03433690 -0.03929750 -0.04682047
v 0.03324437 -0.03935278 -0.04757357
v 0.03276120 -0.04146130 -0.04694241
v 0.03286276 -0.04156397 -0.04682047
v 0.03186563 -0.04289067 -0.04682047
v 0.03986417 -0.01017304 -0.04682047
v 0.04026117 -0.01225788 -0.04682047
v 0.04047967 -0.01380571 -0.04682047
v 0.03851620 -0.03096607 -0.04682047
v 0.03609418 -0.03256918 -0.04811185
v 0.03762064 -0.03314567 -0.04682047
v 0.03735289 -0.03371426 -0.04682047
v 0.03374293 -0.04023725 -0.04682047
v 0.03298586 -0.04139023 -0.04682047
f 1 2 3
f 1 3 7
f 1 7 14
f 1 14 31
f 1 31 30
f 1 30 57
f 1 57 82
f 1 82 81
f 1 81 118
f 1 118 115
f 1 115 114
f 1 114 113
f 1 113 112
f 1 112 150
f 1 150 182
f 1 182 181
f 1 181 180
f 1 180 178
f 1 178 177
f 1 177 207
f 1 207 205
f 1 205 204
f 1 204 203
f 1 203 202
f 1 202 201
f 1 201 234
f 1 234 269
f 1 269 268
f 1 268 278
f 1 278 277
f 1 277 265
f 1 265 264
f 1 264 259
f 1 259 258
f 1 258 263
f 1 263 276
f 1 276 275
f 1 275 273
f 1 273 248
f 1 248 247
f 1 247 244
f 1 244 242
f 1 242 241
f 1 241 215
f 1 215 214
f 1 214 213
f 1 213 224
f 1 224 223
f 1 223 256
f 1 256 257
f 1 257 272
f 1 272 271
f 1 271 270
f 1 270 235
f 1 235 209
f 1 209 169
f 1 169 168
f 1 168 139
f 1 139 137
f 1 137 136
f 1 136 134
f 1 134 132
f 1 132 99
f 1 99 98
f 1 98 97
f 1 97 66
f 1 66 65
f 1 65 64
f 1 64 63
f 1 63 62
f 1 62 47
f 1 47 46
f 1 46 45
f 1 45 44
f 1 44 43
f 1 43 42
f 1 42 41
f 1 41 40
f 1 40 39
f 1 39 36
f 1 36 20
f 1 20 19
f 1 19 18
f 1 18 15
f 1 15 8
f 1 8 4
f 1 4 10
f 1 10 17
f 1 17 35
f 1 35 34
f 1 34 59
f 1 59 93
f 1 93 119
f 1 119 84
f 1 84 52
f 1 52 28
f 1 28 11
f 1 11 5
f 1 5 2
f 2 5 6
f 2 6 3
f 3 6 7
f 4 8 9
f 4 9 10
f 5 11 6
f 6 12 7
f 6 11 13
f 6 13 12
f 7 12 14
f 8 15 9
f 9 16 17
f 9 17 10
f 9 15 18
f 9 18 19
f 9 19 20
f 9 20 21
f 9 21 22
f 9 22 23
f 9 23 24
f 9 24 25
f 9 25 26
f 9 26 16
f 11 27 13
f 11 28 29
f 11 29 27
f 12 30 31
f 12 31 14
f 12 13 27
f 12 27 32
f 12 32 30
f 16 26 33
f 16 33 34
f 16 34 35
f 16 35 17
f 20 36 21
f 21 36 22
f 22 37 38
f 22 38 23
f 22 36 39
f 22 39 40
f 22 40 41
f 22 41 42
f 22 42 43
f 22 43 44
f 22 44 45
f 22 45 46
f 22 46 47
f 22 47 48
f 22 48 37
f 23 38 24
f 24 38 49
f 24 49 25
f 25 49 26
f 26 49 33
f 27 50 32
f 27 29 51
f 27 51 50
f 28 52 53
f 28 53 54
f 28 54 55
f 28 55 29
f 29 55 56
f 29 56 51
f 30 32 57
f 32 50 57
f 33 49 58
f 33 58 59
f 33 59 34
f 37 48 60
f 37 60 38
f 38 60 61
f 38 61 49
f 47 62 48
f 48 62 63
f 48 63 64
f 48 64 65
f 48 65 66
f 48 66 67
f 48 67 68
f 48 68 69
f 48 69 70
f 48 70 71
f 48 71 72
f 48 72 73
f 48 73 74
f 48 74 75
f 48 75 76
f 48 76 60
f 49 61 58
f 50 77 78
f 50 78 79
f 50 79 80
f 50 80 81
f 50 81 82
f 50 82 57
f 50 51 83
f 50 83 77
f 51 56 83
f 52 84 85
f 52 85 86
f 52 86 54
f 52 54 53
f 54 86 87
f 54 87 88
f 54 88 55
f 55 88 56
f 56 88 89
f 56 89 90
f 56 90 79
f 56 79 78
f 56 78 77
f 56 77 83
f 58 91 59
f 58 61 92
f 58 92 91
f 59 91 93
f 60 76 94
f 60 94 61
f 61 94 95
f 61 95 96
f 61 96 92
f 66 97 67
f 67 97 98
f 67 98 69
f 67 69 68
f 69 98 99
f 69 99 100
f 69 100 101
f 69 101 70
f 70 101 102
f 70 102 71
f 71 102 73
f 71 73 72
f 73 103 104
f 73 104 105
f 73 105 106
f 73 106 75
f 73 75 74
f 73 102 107
f 73 107 108
f 73 108 103
f 75 106 109
f 75 109 76
f 76 109 94
f 79 110 111
f 79 111 112
f 79 112 113
f 79 113 114
f 79 114 115
f 79 115 116
f 79 116 80
f 79 90 89
f 79 89 117
f 79 117 110
f 80 115 118
f 80 118 81
f 80 116 115
f 84 119 85
f 85 119 86
f 86 120 121
f 86 121 87
f 86 119 122
f 86 122 123
f 86 123 124
f 86 124 120
f 87 121 88
f 88 125 89
f 88 121 125
f 89 126 117
f 89 125 127
f 89 127 128
f 89 128 126
f 91 122 93
f 91 92 123
f 91 123 122
f 92 96 123
f 93 122 119
f 94 109 95
f 95 109 129
f 95 129 130
f 95 130 131
f 95 131 96
f 96 131 124
f 96 124 123
f 99 132 101
f 99 101 100
f 101 132 133
f 101 133 134
f 101 134 135
f 101 135 108
f 101 108 107
f 101 107 102
f 103 136 137
f 103 137 138
f 103 138 139
f 103 139 140
f 103 140 141
f 103 141 105
f 103 105 104
f 103 108 135
f 103 135 136
f 105 142 106
f 105 141 142
f 106 142 143
f 106 143 109
f 109 143 144
f 109 144 145
f 109 145 130
f 109 130 129
f 110 117 146
f 110 146 147
f 110 147 148
f 110 148 111
f 111 148 149
f 111 149 112
f 112 149 150
f 117 126 146
f 120 151 152
f 120 152 153
f 120 153 154
f 120 154 155
f 120 155 156
f 120 156 121
f 120 124 157
f 120 157 151
f 121 156 158
f 121 158 125
f 124 131 157
f 125 158 127
f 126 147 146
f 126 128 147
f 127 158 159
f 127 159 128
f 128 159 160
f 128 160 161
f 128 161 162
f 128 162 163
f 128 163 164
f 128 164 165
f 128 165 166
f 128 166 147
f 130 145 167
f 130 167 131
f 131 167 157
f 132 134 133
f 134 136 135
f 137 139 138
f 139 168 140
f 140 168 169
f 140 169 170
f 140 170 141
f 141 170 171
f 141 171 142
f 142 172 173
f 142 173 174
f 142 174 143
f 142 171 172
f 143 174 175
f 143 175 144
f 144 175 176
f 144 176 145
f 145 176 167
f 147 166 177
f 147 177 178
f 147 178 179
f 147 179 148
f 148 179 180
f 148 180 181
f 148 181 182
f 148 182 149
f 149 182 150
f 151 157 183
f 151 183 184
f 151 184 185
f 151 185 186
f 151 186 187
f 151 187 152
f 152 187 153
f 153 188 189
f 153 189 190
f 153 190 154
f 153 187 188
f 154 190 191
f 154 191 158
f 154 158 155
f 155 158 156
f 157 167 192
f 157 192 193
f 157 193 194
f 157 194 184
f 157 184 183
f 158 191 195
f 158 195 160
f 158 160 159
f 160 195 191
f 160 191 196
f 160 196 197
f 160 197 161
f 161 197 198
f 161 198 199
f 161 199 162
f 162 199 200
f 162 200 201
f 162 201 202
f 162 202 203
f 162 203 163
f 163 203 204
f 163 204 164
f 164 204 205
f 164 205 206
f 164 206 166
f 164 166 165
f 166 207 177
f 166 206 207
f 167 208 193
f 167 193 192
f 167 176 208
f 169 209 170
f 170 209 210
f 170 210 171
f 171 210 211
f 171 211 172
f 172 211 173
f 173 211 212
f 173 212 175
f 173 175 174
f 175 212 176
f 176 212 208
f 178 180 179
f 184 213 214
f 184 214 185
f 184 194 213
f 185 215 216
f 185 216 217
f 185 217 186
f 185 214 215
f 186 218 219
f 186 219 187
f 186 217 218
f 187 219 188
f 188 219 218
f 188 218 220
f 188 220 221
f 188 221 190
f 188 190 189
f 190 221 222
f 190 222 196
f 190 196 191
f 193 223 224
f 193 224 194
f 193 208 225
f 193 225 226
f 193 226 223
f 194 224 213
f 196 222 227
f 196 227 228
f 196 228 197
f 197 228 229
f 197 229 230
f 197 230 231
f 197 231 232
f 197 232 233
f 197 233 199
f 197 199 198
f 199 233 200
f 200 234 201
f 200 233 234
f 205 207 206
f 208 212 211
f 208 211 225
f 209 235 236
f 209 236 210
f 210 237 238
f 210 238 211
f 210 236 237
f 211 238 239
f 211 239 240
f 211 240 225
f 215 241 216
f 216 241 242
f 216 242 243
f 216 243 217
f 217 243 244
f 217 244 245
f 217 245 218
f 218 245 246
f 218 246 220
f 220 244 247
f 220 247 248
f 220 248 249
f 220 249 250
f 220 250 221
f 220 246 244
f 221 251 222
f 221 250 252
f 221 252 249
f 221 249 251
f 222 251 253
f 222 253 254
f 222 254 255
f 222 255 227
f 223 226 225
f 223 225 256
f 225 240 239
f 225 239 257
f 225 257 256
f 227 255 228
f 228 255 229
f 229 258 259
f 229 259 260
f 229 260 230
f 229 255 254
f 229 254 261
f 229 261 262
f 229 262 263
f 229 263 258
f 230 260 264
f 230 264 265
f 230 265 266
f 230 266 231
f 231 266 232
f 232 266 267
f 232 267 233
f 233 267 268
f 233 268 269
f 233 269 234
f 235 270 237
f 235 237 236
f 237 270 239
f 237 239 238
f 239 271 272
f 239 272 257
f 239 270 271
f 242 244 243
f 244 246 245
f 248 273 249
f 249 252 250
f 249 273 274
f 249 274 253
f 249 253 251
f 253 274 261
f 253 261 254
f 259 264 260
f 261 274 262
f 262 274 275
f 262 275 276
f 262 276 263
f 265 277 266
f 266 277 278
f 266 278 267
f 267 278 268
f 273 275 274

