# https://github.com/mikedh/trimesh
v -0.02531318 -0.04493154 -0.05136755
v -0.02531318 -0.04493154 -0.04861823
v -0.02531318 -0.04395083 -0.05187550
v -0.02329538 -0.04493154 -0.05227995
v -0.00061807 -0.04493154 -0.04873324
v -0.00061807 -0.04252935 -0.04793968
v -0.00196440 -0.04251283 -0.04794479
v -0.00687154 -0.03935031 -0.04769689
v -0.00687154 -0.03726768 -0.04750521
v -0.00895038 -0.03726768 -0.04755888
v -0.00895038 -0.03517953 -0.04739851
v -0.00895038 -0.03309690 -0.04725219
v -0.00895038 -0.03101427 -0.04712185
v -0.01103600 -0.03101427 -0.04721641
v -0.01103600 -0.02893164 -0.04711418
v -0.01728947 -0.02893164 -0.04743748
v -0.01937170 -0.02684350 -0.04745473
v -0.02146071 -0.02684350 -0.04761191
v -0.02354633 -0.02267272 -0.04764897
v -0.02531318 -0.02268925 -0.04781382
v -0.02531318 -0.04301971 -0.05234448
v -0.02523518 -0.04305277 -0.05236109
v -0.02310886 -0.04493154 -0.05234767
v 0.00143025 -0.04493154 -0.04880927
v 0.00057565 -0.04251283 -0.04794352
v -0.00061807 -0.04143294 -0.04783426
v -0.00478931 -0.03935031 -0.04767005
v -0.00270369 -0.03935031 -0.04765600
v -0.00478931 -0.03726768 -0.04749435
v -0.00061807 -0.03517953 -0.04731353
v -0.00270369 -0.03101427 -0.04701451
v -0.00687154 -0.03517953 -0.04735314
v -0.00687154 -0.03309690 -0.04720619
v -0.00687154 -0.03101427 -0.04706307
v -0.00687154 -0.02893164 -0.04696020
v -0.00895038 -0.02893164 -0.04702346
v -0.01103600 -0.02684350 -0.04702090
v -0.01312162 -0.02476086 -0.04702793
v -0.01312162 -0.02267272 -0.04693784
v -0.01728947 -0.02476086 -0.04725667
v -0.01937170 -0.02476086 -0.04738126
v -0.02146071 -0.02476086 -0.04753716
v -0.02146071 -0.02267272 -0.04747837
v -0.02354633 -0.02059009 -0.04759338
v -0.02531318 -0.02059009 -0.04774864
v -0.02531318 -0.04285993 -0.05238793
v -0.02367181 -0.04365882 -0.05252530
v -0.02228818 -0.04493154 -0.05248504
v 0.00631026 -0.04493154 -0.04908082
v 0.00495715 -0.04055691 -0.04792754
v 0.00772441 -0.03726768 -0.04770775
v 0.00354978 -0.03935031 -0.04774928
v 0.00146755 -0.03935031 -0.04768092
v -0.00061807 -0.03935031 -0.04765088
v 0.00772441 -0.04493154 -0.04918432
v 0.00839927 -0.04493154 -0.04923863
v 0.00933187 -0.04400042 -0.04908976
v 0.00933187 -0.04352108 -0.04897539
v -0.00061807 -0.03726768 -0.04747582
v 0.00146755 -0.03517953 -0.04733398
v -0.00061807 -0.03309690 -0.04715827
v -0.00061807 -0.03101427 -0.04700429
v -0.00061807 -0.02893164 -0.04686372
v -0.00270369 -0.02893164 -0.04687714
v -0.00478931 -0.03101427 -0.04703496
v -0.00478931 -0.02893164 -0.04691164
v -0.01103600 -0.02267272 -0.04685414
v -0.00895038 -0.02684350 -0.04694423
v -0.01103600 -0.02476086 -0.04693145
v -0.01728947 -0.02267272 -0.04718574
v -0.01312162 -0.02059009 -0.04688097
v -0.01937170 -0.02267272 -0.04732184
v -0.02146071 -0.02059009 -0.04743110
v -0.02354633 -0.01850746 -0.04755441
v -0.02531318 -0.02027053 -0.04774162
v -0.02531318 -0.04209410 -0.05254958
v -0.02004995 -0.04493154 -0.05266395
v -0.02354633 -0.04143294 -0.05274381
v 0.00924030 -0.03853489 -0.04791860
v 0.00772441 -0.03887097 -0.04787771
v 0.00933187 -0.03565887 -0.04763044
v 0.00563879 -0.03726768 -0.04763236
v 0.00933187 -0.03737236 -0.04779401
v 0.00354978 -0.03726768 -0.04756399
v 0.00146755 -0.03726768 -0.04750074
v 0.00933187 -0.04493154 -0.04938303
v 0.00933187 -0.03851285 -0.04792690
v 0.00354978 -0.03517953 -0.04739659
v 0.00354978 -0.03309690 -0.04724261
v 0.00146755 -0.03309690 -0.04718063
v 0.00146755 -0.03101427 -0.04703176
v 0.00146755 -0.02893164 -0.04688800
v 0.00146755 -0.02684350 -0.04681069
v -0.00061807 -0.02684350 -0.04679855
v -0.00270369 -0.02684350 -0.04680941
v -0.00478931 -0.02684350 -0.04684456
v -0.01103600 -0.02059009 -0.04680813
v -0.01520385 -0.01642482 -0.04692442
v -0.01312162 -0.01850746 -0.04684775
v -0.01937170 -0.02059009 -0.04728094
v -0.02146071 -0.01850746 -0.04739212
v -0.02354633 -0.01711353 -0.04753460
v -0.02531318 -0.01829258 -0.04771158
v -0.02531318 -0.01850746 -0.04771478
v -0.02146071 -0.01711353 -0.04736720
v -0.02146071 -0.01642482 -0.04735506
v -0.02531318 -0.04157619 -0.05259814
v 0.00933187 0.01134912 -0.05314123
v 0.00933187 -0.04493154 -0.05175539
v -0.02531318 -0.03966987 -0.05274126
v -0.02155227 0.00859431 -0.05326135
v -0.01937509 0.01067694 -0.05330032
v 0.00933187 -0.03837511 -0.04790518
v 0.00933187 -0.03778007 -0.04783745
v 0.00933187 -0.03517953 -0.04759019
v 0.00772441 -0.03517953 -0.04753332
v 0.00563879 -0.03517953 -0.04746496
v 0.00563879 -0.03309690 -0.04731034
v 0.00563879 -0.03101427 -0.04715699
v 0.00354978 -0.03101427 -0.04709054
v 0.00354978 -0.02893164 -0.04693976
v 0.00354978 -0.02684350 -0.04684136
v 0.00354978 -0.02476086 -0.04680941
v -0.00131328 -0.01711353 -0.04678130
v -0.00270369 -0.01850746 -0.04678322
v -0.00478931 -0.01850746 -0.04678258
v -0.00478931 -0.02059009 -0.04678705
v -0.00895038 -0.01642482 -0.04678130
v -0.00964559 -0.01711353 -0.04678513
v -0.01103600 -0.01711353 -0.04678833
v -0.01103600 -0.01850746 -0.04679344
v -0.00895038 -0.02059009 -0.04679664
v 0.00354978 -0.02267272 -0.04679855
v 0.00354978 -0.02059009 -0.04679472
v 0.00146755 -0.02059009 -0.04679088
v -0.00061807 -0.01642482 -0.04678066
v -0.01311823 -0.01433668 -0.04680430
v -0.01311823 -0.01642482 -0.04682091
v -0.01312162 -0.01711353 -0.04682986
v -0.01520385 -0.01433668 -0.04689120
v -0.01937509 -0.01642482 -0.04721130
v -0.02423815 -0.01711353 -0.04759785
v -0.02155227 -0.01642482 -0.04736273
v -0.02155227 -0.01443035 -0.04735570
v -0.02155227 -0.01433668 -0.04735570
v -0.02531318 -0.01818790 -0.04771031
v -0.01728608 -0.01433668 -0.04703687
v -0.01937509 -0.01433668 -0.04718766
v -0.02146071 -0.01433668 -0.04734803
v -0.01937509 0.01134912 -0.05328754
v 0.00933187 0.01134912 -0.05091008
v -0.02531318 -0.03935031 -0.05270931
v -0.02155227 0.01068245 -0.05324793
v -0.02146071 0.01067694 -0.05327029
v 0.00933187 -0.03309690 -0.04744260
v 0.00772441 -0.03101427 -0.04723302
v 0.00772441 -0.03309690 -0.04738126
v 0.00563879 -0.02893164 -0.04700620
v 0.00563879 -0.02684350 -0.04690270
v 0.00563879 -0.02476086 -0.04684647
v 0.00563879 -0.02267272 -0.04681005
v -0.00270030 -0.01433668 -0.04677683
v -0.00478592 -0.01225405 -0.04677363
v -0.00686815 -0.01225405 -0.04677363
v -0.00686815 -0.01642482 -0.04678002
v -0.00895038 -0.01433668 -0.04677810
v -0.01103600 -0.01642482 -0.04678641
v 0.00563879 -0.02059009 -0.04680047
v 0.00147094 -0.01711353 -0.04678641
v 0.00146755 -0.01850746 -0.04678769
v -0.00061807 -0.01433668 -0.04678002
v -0.01103600 -0.01433668 -0.04678449
v -0.01103600 -0.01225405 -0.04679088
v -0.01311823 -0.01225405 -0.04681516
v -0.01520385 -0.01225405 -0.04690206
v -0.02531318 -0.01711353 -0.04770264
v -0.01937509 -0.01225405 -0.04721002
v -0.02155227 -0.01234771 -0.04739659
v -0.01728608 -0.01225405 -0.04704837
v -0.02146071 0.01134912 -0.05315976
v 0.00632043 0.01134912 -0.05067815
v 0.00147094 0.01010395 -0.04990759
v 0.00355317 0.00982847 -0.04998363
v 0.00464516 0.00965216 -0.05003154
v 0.00563879 0.00650617 -0.04942264
v 0.00772102 0.00442354 -0.04920413
v 0.00933187 -0.00249102 -0.04788729
v -0.02531318 -0.01711353 -0.04986351
v -0.02155227 0.01134912 -0.05312526
v 0.00933187 -0.03101427 -0.04729756
v 0.00772441 -0.02893164 -0.04709182
v 0.00772441 -0.02684350 -0.04699854
v 0.00772441 -0.02267272 -0.04687586
v 0.00772441 -0.02059009 -0.04684008
v -0.00270030 -0.01225405 -0.04677875
v -0.00478592 -0.01017142 -0.04678130
v -0.00686815 -0.01017142 -0.04678130
v -0.00895038 -0.01225405 -0.04678194
v 0.00772441 -0.01850746 -0.04683817
v 0.00355317 -0.01433668 -0.04679919
v 0.00147094 -0.01433668 -0.04678769
v 0.00147094 -0.01642482 -0.04678641
v -0.00895038 -0.01017142 -0.04678961
v -0.01103600 -0.01017142 -0.04680430
v -0.01311823 -0.01017142 -0.04686181
v -0.01520385 -0.01017142 -0.04696979
v -0.01728608 -0.01017142 -0.04710460
v -0.02155227 -0.01225405 -0.04739915
v -0.02155227 -0.01025957 -0.04746240
v -0.02155227 -0.01017142 -0.04746560
v -0.02155227 -0.00808328 -0.04754738
v -0.02155227 -0.00600064 -0.04770392
v -0.02155227 -0.00447999 -0.04788346
v -0.02155227 0.01134912 -0.04987565
v -0.01937509 -0.01017142 -0.04726497
v -0.02146071 -0.01225405 -0.04739084
v -0.00270030 0.01134912 -0.05018170
v -0.00061807 0.01030780 -0.04986415
v 0.00147094 0.00859431 -0.04953574
v 0.00355317 0.00859431 -0.04969099
v 0.00355317 0.00650617 -0.04922138
v 0.00772102 -0.00216044 -0.04782467
v 0.00772102 -0.00391801 -0.04755569
v 0.00933187 -0.00289322 -0.04782595
v 0.00933187 -0.02893164 -0.04716658
v 0.00933187 -0.02684350 -0.04708224
v 0.00933187 -0.02267272 -0.04696723
v 0.00933187 -0.02106943 -0.04692761
v 0.00933187 -0.02059009 -0.04691931
v 0.00933187 -0.01898128 -0.04690270
v 0.00933187 -0.01850746 -0.04690206
v -0.00061807 -0.01225405 -0.04678641
v -0.00061807 -0.01017142 -0.04679408
v -0.00270030 -0.01017142 -0.04678769
v -0.00478592 -0.00808328 -0.04680941
v 0.00933187 -0.01711353 -0.04690398
v 0.00933187 -0.01689865 -0.04690461
v 0.00772441 -0.01711353 -0.04685030
v 0.00563879 -0.01433668 -0.04683689
v 0.00147094 -0.01017142 -0.04682091
v 0.00147094 -0.01225405 -0.04679472
v -0.00686815 -0.00808328 -0.04681836
v -0.00895038 -0.00808328 -0.04683689
v -0.01103600 -0.00808328 -0.04687906
v -0.01311823 -0.00808328 -0.04696084
v -0.01520385 -0.00808328 -0.04707393
v -0.01728608 -0.00808328 -0.04719661
v -0.01937509 -0.00808328 -0.04734931
v -0.02146071 -0.01017142 -0.04745665
v -0.02146071 -0.00808328 -0.04753843
v -0.01937509 -0.00600064 -0.04750074
v -0.02146071 -0.00444693 -0.04787898
v -0.01236537 0.00139325 -0.04793393
v -0.01103600 0.00145937 -0.04792052
v -0.00895038 0.00149793 -0.04791157
v -0.00686815 0.00150895 -0.04790838
v -0.00270030 0.00152548 -0.04790774
v -0.00686815 0.00859431 -0.04934853
v -0.00478592 0.00859431 -0.04935939
v -0.00478592 0.01055022 -0.04981431
v -0.00478592 0.01134912 -0.05008777
v -0.01948361 -0.00377476 -0.04778059
v -0.01728608 -0.00391801 -0.04757230
v -0.01520385 -0.00035880 -0.04789240
v -0.00270030 0.01045656 -0.04983923
v -0.00061807 0.00859431 -0.04944373
v 0.00147094 0.00650617 -0.04908465
v -0.00103180 0.00145937 -0.04792115
v 0.00035861 0.00127204 -0.04797802
v 0.00355317 -0.00037533 -0.04787643
v 0.00563879 -0.00391801 -0.04742726
v 0.00147094 0.00003238 -0.04781317
v 0.00566253 -0.00168662 -0.04777739
v 0.00355317 -0.00183538 -0.04762725
v 0.00933187 -0.00600064 -0.04744004
v 0.00933187 -0.00391801 -0.04767133
v -0.00270030 -0.00808328 -0.04682155
v -0.00478592 -0.00600064 -0.04693912
v 0.00933187 -0.01642482 -0.04690909
v 0.00772102 -0.01642482 -0.04685669
v 0.00772102 -0.01433668 -0.04690270
v 0.00147094 -0.00808328 -0.04690461
v -0.00061807 -0.00808328 -0.04685158
v -0.00686815 -0.00600064 -0.04695381
v -0.00895038 -0.00600064 -0.04699215
v -0.01103600 -0.00600064 -0.04705860
v -0.01311823 -0.00600064 -0.04714230
v -0.01520385 -0.00600064 -0.04723558
v -0.01728608 -0.00600064 -0.04734548
v -0.01308432 0.00034643 -0.04784448
v -0.01311823 -0.00183538 -0.04759658
v -0.01103600 -0.00183538 -0.04751735
v -0.01103600 0.00025276 -0.04776078
v -0.00895038 0.00025276 -0.04772884
v -0.00686815 0.00025276 -0.04771670
v -0.00478592 0.00025276 -0.04770967
v -0.00270030 0.00025276 -0.04770967
v -0.00270030 0.00859431 -0.04939389
v -0.01520385 -0.00391801 -0.04745282
v -0.01520385 -0.00183538 -0.04770008
v -0.00044851 0.00045111 -0.04779017
v 0.00355317 -0.00391801 -0.04733462
v 0.00355317 -0.00600064 -0.04714485
v 0.00147094 -0.00183538 -0.04753524
v 0.00933187 -0.01433668 -0.04697618
v -0.00270030 -0.00600064 -0.04696084
v -0.00270030 -0.00391801 -0.04719277
v -0.00478592 -0.00391801 -0.04717360
v -0.00686815 -0.00391801 -0.04717744
v 0.00147094 -0.00600064 -0.04706371
v -0.00061807 -0.00600064 -0.04701004
v -0.00895038 -0.00391801 -0.04721513
v -0.00895038 -0.00183538 -0.04745665
v -0.00686815 -0.00183538 -0.04743173
v -0.00478592 -0.00183538 -0.04742534
v -0.00270030 -0.00183538 -0.04743493
v -0.00061807 -0.00183538 -0.04747326
v 0.00147094 -0.00391801 -0.04727903
v -0.00061807 -0.00391801 -0.04723239
f 1 2 20
f 1 20 45
f 1 45 75
f 1 75 104
f 1 104 103
f 1 103 146
f 1 146 176
f 1 176 188
f 1 188 152
f 1 152 110
f 1 110 107
f 1 107 76
f 1 76 46
f 1 46 21
f 1 21 3
f 1 3 4
f 1 4 23
f 1 23 48
f 1 48 77
f 1 77 109
f 1 109 86
f 1 86 56
f 1 56 55
f 1 55 49
f 1 49 24
f 1 24 5
f 1 5 2
f 2 5 6
f 2 6 7
f 2 7 8
f 2 8 9
f 2 9 10
f 2 10 11
f 2 11 12
f 2 12 13
f 2 13 14
f 2 14 15
f 2 15 16
f 2 16 17
f 2 17 18
f 2 18 19
f 2 19 20
f 3 21 4
f 4 21 22
f 4 22 23
f 5 24 25
f 5 25 6
f 6 25 26
f 6 26 7
f 7 26 27
f 7 27 8
f 8 27 9
f 9 27 28
f 9 28 29
f 9 29 30
f 9 30 31
f 9 31 32
f 9 32 11
f 9 11 10
f 11 32 33
f 11 33 12
f 12 33 34
f 12 34 13
f 13 34 35
f 13 35 36
f 13 36 15
f 13 15 14
f 15 36 37
f 15 37 38
f 15 38 16
f 16 38 17
f 17 38 39
f 17 39 40
f 17 40 41
f 17 41 42
f 17 42 18
f 18 42 19
f 19 43 44
f 19 44 45
f 19 45 20
f 19 42 43
f 21 46 22
f 22 46 47
f 22 47 23
f 23 47 48
f 24 49 25
f 25 50 51
f 25 51 52
f 25 52 53
f 25 53 54
f 25 54 26
f 25 49 55
f 25 55 56
f 25 56 57
f 25 57 58
f 25 58 50
f 26 54 28
f 26 28 27
f 28 54 59
f 28 59 29
f 29 59 30
f 30 59 60
f 30 60 61
f 30 61 31
f 31 61 62
f 31 62 63
f 31 63 64
f 31 64 65
f 31 65 32
f 32 65 33
f 33 65 34
f 34 65 64
f 34 64 66
f 34 66 35
f 35 66 67
f 35 67 68
f 35 68 36
f 36 68 69
f 36 69 37
f 37 69 39
f 37 39 38
f 39 70 40
f 39 69 67
f 39 67 71
f 39 71 70
f 40 70 41
f 41 70 72
f 41 72 42
f 42 72 43
f 43 72 73
f 43 73 44
f 44 73 101
f 44 101 74
f 44 74 75
f 44 75 45
f 46 76 47
f 47 77 48
f 47 76 78
f 47 78 77
f 50 58 79
f 50 79 80
f 50 80 51
f 51 81 82
f 51 82 52
f 51 80 83
f 51 83 81
f 52 82 53
f 53 82 84
f 53 84 85
f 53 85 54
f 54 85 59
f 56 86 57
f 57 86 109
f 57 109 108
f 57 108 151
f 57 151 187
f 57 187 224
f 57 224 276
f 57 276 275
f 57 275 305
f 57 305 279
f 57 279 237
f 57 237 236
f 57 236 231
f 57 231 230
f 57 230 229
f 57 229 228
f 57 228 227
f 57 227 226
f 57 226 225
f 57 225 190
f 57 190 155
f 57 155 115
f 57 115 81
f 57 81 83
f 57 83 114
f 57 114 113
f 57 113 87
f 57 87 58
f 58 87 79
f 59 85 60
f 60 85 88
f 60 88 89
f 60 89 90
f 60 90 62
f 60 62 61
f 62 91 92
f 62 92 63
f 62 90 91
f 63 92 93
f 63 93 94
f 63 94 95
f 63 95 64
f 64 95 66
f 66 95 96
f 66 96 67
f 67 97 71
f 67 69 68
f 67 96 95
f 67 95 97
f 70 71 98
f 70 98 72
f 71 97 99
f 71 99 98
f 72 100 73
f 72 98 100
f 73 100 101
f 74 102 103
f 74 103 104
f 74 104 75
f 74 101 105
f 74 105 106
f 74 106 102
f 76 107 78
f 77 78 108
f 77 108 109
f 78 107 110
f 78 110 111
f 78 111 112
f 78 112 108
f 79 87 113
f 79 113 80
f 80 113 114
f 80 114 83
f 81 115 82
f 82 115 116
f 82 116 117
f 82 117 88
f 82 88 84
f 84 88 85
f 88 117 118
f 88 118 89
f 89 118 119
f 89 119 120
f 89 120 90
f 90 120 121
f 90 121 91
f 91 121 92
f 92 121 122
f 92 122 93
f 93 122 123
f 93 123 94
f 94 124 125
f 94 125 126
f 94 126 127
f 94 127 128
f 94 128 129
f 94 129 130
f 94 130 131
f 94 131 132
f 94 132 95
f 94 123 133
f 94 133 134
f 94 134 135
f 94 135 136
f 94 136 124
f 95 132 97
f 97 132 131
f 97 131 137
f 97 137 138
f 97 138 139
f 97 139 99
f 98 140 141
f 98 141 100
f 98 99 140
f 99 139 140
f 100 105 101
f 100 141 106
f 100 106 105
f 102 142 103
f 102 106 143
f 102 143 144
f 102 144 145
f 102 145 142
f 103 142 146
f 106 141 140
f 106 140 147
f 106 147 148
f 106 148 149
f 106 149 144
f 106 144 143
f 108 112 150
f 108 150 180
f 108 180 189
f 108 189 214
f 108 214 261
f 108 261 217
f 108 217 181
f 108 181 151
f 110 152 153
f 110 153 154
f 110 154 111
f 111 154 112
f 112 154 150
f 115 155 156
f 115 156 157
f 115 157 116
f 116 157 119
f 116 119 118
f 116 118 117
f 119 158 121
f 119 121 120
f 119 157 158
f 121 158 159
f 121 159 122
f 122 159 160
f 122 160 161
f 122 161 123
f 123 161 133
f 124 126 125
f 124 136 162
f 124 162 126
f 126 162 163
f 126 163 164
f 126 164 165
f 126 165 128
f 126 128 127
f 128 165 164
f 128 164 166
f 128 166 167
f 128 167 130
f 128 130 129
f 130 167 137
f 130 137 131
f 133 161 168
f 133 168 134
f 134 168 169
f 134 169 170
f 134 170 135
f 135 170 136
f 136 169 171
f 136 171 162
f 136 170 169
f 137 172 173
f 137 173 174
f 137 174 175
f 137 175 140
f 137 140 138
f 137 167 172
f 138 140 139
f 140 175 147
f 142 145 176
f 142 176 146
f 144 149 145
f 145 149 177
f 145 177 178
f 145 178 176
f 147 175 179
f 147 179 148
f 148 179 149
f 149 179 177
f 150 154 180
f 151 181 182
f 151 182 183
f 151 183 184
f 151 184 185
f 151 185 186
f 151 186 187
f 152 188 153
f 153 189 180
f 153 180 154
f 153 188 189
f 155 190 156
f 156 190 158
f 156 158 157
f 158 191 159
f 158 190 191
f 159 192 193
f 159 193 160
f 159 191 192
f 160 193 161
f 161 193 194
f 161 194 168
f 162 171 163
f 163 171 195
f 163 195 196
f 163 196 197
f 163 197 164
f 164 197 203
f 164 203 198
f 164 198 172
f 164 172 166
f 166 172 167
f 168 194 199
f 168 199 200
f 168 200 201
f 168 201 202
f 168 202 169
f 169 202 171
f 171 202 201
f 171 201 195
f 172 198 173
f 173 198 203
f 173 203 204
f 173 204 174
f 174 204 205
f 174 205 175
f 175 205 206
f 175 206 207
f 175 207 179
f 176 178 208
f 176 208 209
f 176 209 210
f 176 210 211
f 176 211 212
f 176 212 213
f 176 213 214
f 176 214 189
f 176 189 188
f 177 179 215
f 177 215 216
f 177 216 178
f 178 216 208
f 179 207 215
f 181 217 218
f 181 218 182
f 182 218 219
f 182 219 183
f 183 219 220
f 183 220 184
f 184 220 221
f 184 221 185
f 185 221 187
f 185 187 186
f 187 222 223
f 187 223 224
f 187 221 222
f 190 225 191
f 191 225 192
f 192 225 226
f 192 226 193
f 193 227 228
f 193 228 229
f 193 229 194
f 193 226 227
f 194 229 230
f 194 230 231
f 194 231 199
f 195 232 233
f 195 233 234
f 195 234 196
f 195 201 232
f 196 234 235
f 196 235 197
f 197 235 203
f 199 231 236
f 199 236 237
f 199 237 238
f 199 238 200
f 200 238 239
f 200 239 240
f 200 240 241
f 200 241 201
f 201 241 232
f 203 235 242
f 203 242 204
f 204 242 243
f 204 243 244
f 204 244 205
f 205 244 245
f 205 245 206
f 206 245 246
f 206 246 247
f 206 247 207
f 207 247 248
f 207 248 215
f 208 216 215
f 208 215 249
f 208 249 209
f 209 249 210
f 210 249 250
f 210 250 211
f 211 250 212
f 212 250 251
f 212 251 213
f 213 252 214
f 213 251 252
f 214 253 254
f 214 254 255
f 214 255 256
f 214 256 257
f 214 257 258
f 214 258 259
f 214 259 260
f 214 260 261
f 214 252 262
f 214 262 263
f 214 263 264
f 214 264 253
f 215 248 250
f 215 250 249
f 217 261 218
f 218 265 266
f 218 266 219
f 218 261 265
f 219 266 267
f 219 267 221
f 219 221 220
f 221 267 268
f 221 268 269
f 221 269 270
f 221 270 222
f 222 271 223
f 222 270 272
f 222 272 273
f 222 273 274
f 222 274 271
f 223 271 275
f 223 275 276
f 223 276 224
f 232 241 233
f 233 241 240
f 233 240 277
f 233 277 235
f 233 235 234
f 235 277 278
f 235 278 242
f 237 279 280
f 237 280 238
f 238 280 239
f 239 280 281
f 239 281 240
f 240 282 283
f 240 283 277
f 240 281 282
f 242 278 284
f 242 284 243
f 243 284 285
f 243 285 244
f 244 285 286
f 244 286 245
f 245 286 287
f 245 287 288
f 245 288 289
f 245 289 246
f 246 289 247
f 247 289 248
f 248 289 251
f 248 251 250
f 251 289 263
f 251 263 262
f 251 262 252
f 253 264 290
f 253 290 291
f 253 291 292
f 253 292 293
f 253 293 254
f 254 293 294
f 254 294 255
f 255 294 295
f 255 295 296
f 255 296 256
f 256 296 257
f 257 259 258
f 257 296 297
f 257 297 268
f 257 268 259
f 259 298 260
f 259 268 298
f 260 265 261
f 260 298 265
f 263 299 300
f 263 300 264
f 263 289 299
f 264 300 290
f 265 298 266
f 266 298 268
f 266 268 267
f 268 297 301
f 268 301 272
f 268 272 269
f 269 272 270
f 271 302 303
f 271 303 275
f 271 274 302
f 272 274 273
f 272 301 274
f 274 301 304
f 274 304 302
f 275 303 282
f 275 282 305
f 277 283 306
f 277 306 278
f 278 306 307
f 278 307 308
f 278 308 309
f 278 309 284
f 279 305 281
f 279 281 280
f 281 305 282
f 282 303 310
f 282 310 311
f 282 311 283
f 283 311 306
f 284 309 312
f 284 312 285
f 285 312 286
f 286 299 287
f 286 312 292
f 286 292 291
f 286 291 299
f 287 299 288
f 288 299 289
f 290 300 299
f 290 299 291
f 292 313 293
f 292 312 313
f 293 313 294
f 294 313 314
f 294 314 295
f 295 314 296
f 296 314 315
f 296 315 297
f 297 315 316
f 297 316 317
f 297 317 301
f 301 317 304
f 302 304 317
f 302 317 318
f 302 318 310
f 302 310 303
f 306 311 318
f 306 318 319
f 306 319 307
f 307 319 317
f 307 317 316
f 307 316 308
f 308 316 315
f 308 315 309
f 309 315 314
f 309 314 313
f 309 313 312
f 310 318 311
f 317 319 318

