# https://github.com/mikedh/trimesh
v -0.00964060 0.01901972 0.05285650
v -0.01103766 0.01901972 0.05282117
v -0.01520675 0.01693481 0.05298774
v -0.00964060 0.01841763 0.05279593
v -0.00964060 0.02001778 0.05257889
v -0.01729129 0.01693481 0.05289688
v -0.01311944 0.01917208 0.05260413
v -0.01520675 0.01867998 0.05259908
v -0.01904175 0.01483604 0.05292717
v -0.01904175 0.01518475 0.05297260
v -0.00964060 0.01732751 0.05256375
v -0.00964060 0.02018643 0.05251327
v -0.01904175 0.01695191 0.05258394
v -0.01120976 0.02018643 0.05233156
v -0.01729129 0.01825143 0.05235175
v -0.01904175 0.01706435 0.05253851
v -0.01189725 0.02018643 0.05223061
v -0.01242183 0.02013022 0.05218518
v -0.01904175 0.01350394 0.05249308
v -0.01904175 0.01336217 0.05241232
v -0.01800362 0.01366852 0.05225585
v -0.00964060 0.01692340 0.05202870
v -0.00964060 0.02018643 0.03782987
v -0.01381153 0.01996890 0.05190756
v -0.01839661 0.01800700 0.05214984
v -0.01904175 0.01716619 0.05247289
v -0.01231968 0.02018643 0.05210442
v -0.01904175 0.01274949 0.05144823
v -0.00964060 0.01633679 0.05110500
v -0.01115638 0.02018643 0.03247944
v -0.00964060 0.01970899 0.00938173
v -0.01522239 0.01971470 0.05116052
v -0.01729129 0.01891299 0.05107471
v -0.01344432 0.02018643 0.05150880
v -0.01454871 0.02018643 0.05052957
v -0.01904175 0.01786931 0.05168042
v -0.01883744 0.01823513 0.05107471
v -0.01904175 0.01257351 0.05106462
v -0.00964060 0.01610051 0.05034281
v -0.01904175 0.02018643 0.00836213
v -0.00964060 0.01892440 0.00736270
v -0.01729129 0.01945968 0.04899006
v -0.01459013 0.02018643 0.05046395
v -0.01904175 0.01812758 0.05107471
v -0.01904175 0.01867102 0.04902539
v -0.01904175 0.01819032 0.05089300
v -0.01904175 0.01217510 0.04901530
v -0.00964060 0.01596119 0.04962606
v -0.01904175 0.02018643 0.03465999
v -0.01904175 0.01620561 0.00142171
v -0.00964060 0.01768681 0.00768070
v -0.01817757 0.01574610 0.00192647
v -0.01817757 0.01610703 0.00192647
v -0.01599823 0.01996401 0.04899006
v -0.01623660 0.02005770 0.04790988
v -0.01718914 0.01973344 0.04709217
v -0.01904175 0.01893010 0.04693570
v -0.01535308 0.02018643 0.04899006
v -0.01904175 0.01217021 0.04899006
v -0.00964060 0.01592942 0.04914149
v -0.01904175 0.01200645 0.04690541
v -0.01866626 0.02018643 0.03648217
v -0.01904175 0.01550657 0.00142171
v -0.01904175 0.01463480 0.00360731
v -0.01904175 0.01474642 0.00320350
v -0.00964060 0.01727374 0.00938173
v -0.01561721 0.02018643 0.04843483
v -0.01593473 0.02018643 0.04761208
v -0.01631482 0.02018643 0.04636532
v -0.01642618 0.02013266 0.04652180
v -0.01655595 0.02018643 0.04551228
v -0.01671885 0.02018643 0.04482076
v -0.01858895 0.02018643 0.03683550
v -0.00964060 0.01581617 0.04689027
v -0.00964060 0.01567766 0.04273611
v -0.00964060 0.01572655 0.04461382
v -0.01904175 0.01187283 0.03439752
v -0.00964060 0.01558886 0.03856682
v -0.00964060 0.01562552 0.04065147
v -0.01904175 0.01429016 0.00520739
v -0.00964060 0.01708553 0.01077991
v -0.01904175 0.01334914 0.01179952
v -0.01904175 0.01186305 0.03288325
v -0.00964060 0.01558071 0.03648217
v -0.01904175 0.01306072 0.01397503
v -0.00964060 0.01608911 0.01942641
v -0.01004279 0.01595793 0.01911851
v -0.01904175 0.01255803 0.01777081
v -0.01904175 0.01186387 0.03231287
v -0.00964060 0.01558315 0.03590674
v -0.00964060 0.01602474 0.02024412
v -0.00995075 0.01588298 0.02050659
v -0.01904175 0.01252218 0.01823014
v -0.01904175 0.01190379 0.03072289
v -0.00964060 0.01565648 0.02814357
v -0.00964060 0.01562959 0.02968813
v -0.00964060 0.01562308 0.03022822
v -0.00964060 0.01560923 0.03175259
v -0.00964060 0.01559293 0.03381200
v -0.00964060 0.01574692 0.02606397
v -0.01904175 0.01242359 0.01981507
v -0.01904175 0.01192334 0.03022822
v -0.01904175 0.01211644 0.02610435
v -0.01904175 0.01221339 0.02407018
v -0.00964060 0.01567522 0.02768929
f 1 2 3
f 1 3 4
f 1 4 11
f 1 11 22
f 1 22 29
f 1 29 39
f 1 39 48
f 1 48 60
f 1 60 74
f 1 74 76
f 1 76 75
f 1 75 79
f 1 79 78
f 1 78 84
f 1 84 90
f 1 90 99
f 1 99 98
f 1 98 97
f 1 97 96
f 1 96 95
f 1 95 105
f 1 105 100
f 1 100 91
f 1 91 86
f 1 86 81
f 1 81 66
f 1 66 51
f 1 51 41
f 1 41 31
f 1 31 23
f 1 23 12
f 1 12 5
f 1 5 2
f 2 6 3
f 2 5 7
f 2 7 8
f 2 8 6
f 3 9 4
f 3 6 10
f 3 10 9
f 4 9 11
f 5 12 7
f 6 8 13
f 6 13 10
f 7 12 14
f 7 14 8
f 8 15 16
f 8 16 13
f 8 14 17
f 8 17 18
f 8 18 15
f 9 10 13
f 9 13 16
f 9 16 26
f 9 26 36
f 9 36 44
f 9 44 46
f 9 46 45
f 9 45 57
f 9 57 49
f 9 49 40
f 9 40 50
f 9 50 63
f 9 63 65
f 9 65 64
f 9 64 80
f 9 80 82
f 9 82 85
f 9 85 88
f 9 88 93
f 9 93 101
f 9 101 104
f 9 104 103
f 9 103 102
f 9 102 94
f 9 94 89
f 9 89 83
f 9 83 77
f 9 77 61
f 9 61 59
f 9 59 47
f 9 47 38
f 9 38 28
f 9 28 20
f 9 20 19
f 9 19 11
f 11 19 20
f 11 20 21
f 11 21 22
f 12 23 30
f 12 30 40
f 12 40 49
f 12 49 62
f 12 62 73
f 12 73 72
f 12 72 71
f 12 71 69
f 12 69 68
f 12 68 67
f 12 67 58
f 12 58 43
f 12 43 35
f 12 35 34
f 12 34 27
f 12 27 17
f 12 17 14
f 15 18 24
f 15 24 25
f 15 25 16
f 16 25 26
f 17 27 18
f 18 27 24
f 20 28 21
f 21 28 29
f 21 29 22
f 23 31 30
f 24 32 33
f 24 33 25
f 24 27 34
f 24 34 35
f 24 35 32
f 25 36 26
f 25 33 37
f 25 37 36
f 28 38 29
f 29 38 39
f 30 31 40
f 31 41 40
f 32 35 33
f 33 35 42
f 33 42 37
f 35 43 42
f 36 37 44
f 37 42 45
f 37 45 46
f 37 46 44
f 38 47 39
f 39 47 48
f 40 41 50
f 41 51 52
f 41 52 53
f 41 53 50
f 42 43 54
f 42 54 55
f 42 55 56
f 42 56 57
f 42 57 45
f 43 58 54
f 47 59 48
f 48 59 61
f 48 61 60
f 49 57 62
f 50 53 52
f 50 52 63
f 51 64 65
f 51 65 63
f 51 63 52
f 51 66 64
f 54 58 67
f 54 67 55
f 55 67 68
f 55 68 69
f 55 69 70
f 55 70 56
f 56 70 71
f 56 71 57
f 57 71 72
f 57 72 73
f 57 73 62
f 60 61 74
f 61 75 76
f 61 76 74
f 61 77 78
f 61 78 79
f 61 79 75
f 64 66 80
f 66 81 82
f 66 82 80
f 69 71 70
f 77 83 78
f 78 83 84
f 81 85 82
f 81 86 87
f 81 87 88
f 81 88 85
f 83 89 84
f 84 89 90
f 86 91 92
f 86 92 88
f 86 88 87
f 88 92 93
f 89 94 95
f 89 95 96
f 89 96 97
f 89 97 98
f 89 98 99
f 89 99 90
f 91 100 92
f 92 101 93
f 92 100 102
f 92 102 103
f 92 103 104
f 92 104 101
f 94 102 95
f 95 102 105
f 100 105 102

