# https://github.com/mikedh/trimesh
v -0.04509662 -0.03000825 -0.04307645
v -0.04461830 -0.03157431 -0.04307645
v -0.04233902 -0.03000825 -0.04307645
v -0.04442271 -0.03000825 -0.04425906
v -0.04360357 -0.03310265 -0.04414252
v -0.04340023 -0.03423886 -0.04385212
v -0.04398893 -0.03344703 -0.04307645
v -0.02531318 -0.03000825 -0.04867524
v -0.02531318 -0.05256395 -0.04307645
v -0.04403735 -0.03000825 -0.04484559
v -0.04381852 -0.03081264 -0.04486183
v -0.04279604 -0.03310265 -0.04518471
v -0.04334988 -0.03000825 -0.04586485
v -0.04310975 -0.03137321 -0.04558210
v -0.04301874 -0.03562895 -0.04313090
v -0.04351836 -0.03471647 -0.04307645
v -0.04146178 -0.03457821 -0.04605400
v -0.04114032 -0.03596830 -0.04570341
v -0.03950203 -0.04094298 -0.04423231
v -0.04096603 -0.03935681 -0.04330953
v -0.04110740 -0.03935681 -0.04307645
v -0.02531318 -0.03000825 -0.05087520
v -0.02531318 -0.05568600 -0.04307645
v -0.04336731 -0.03000825 -0.04584002
v -0.04229255 -0.03000825 -0.04679337
v -0.04237194 -0.03081264 -0.04647813
v -0.04175226 -0.03310265 -0.04631765
v -0.03894431 -0.03565409 -0.04778206
v -0.03974603 -0.03727042 -0.04640171
v -0.03936454 -0.03864543 -0.04605495
v -0.03897142 -0.04003552 -0.04562222
v -0.04001714 -0.04129239 -0.04307645
v -0.04066587 -0.04014361 -0.04307645
v -0.03857443 -0.04155884 -0.04488667
v -0.03907018 -0.04233307 -0.04361999
v -0.02531318 -0.03591300 -0.05217627
v -0.02998986 -0.03000825 -0.05238738
v -0.02600451 -0.05527124 -0.04307645
v -0.02640537 -0.05481374 -0.04346619
v -0.02531318 -0.05517069 -0.04399732
v -0.04112096 -0.03000825 -0.04781836
v -0.04049546 -0.03310265 -0.04735984
v -0.04091568 -0.03101625 -0.04767125
v -0.03922704 -0.03426399 -0.04798172
v -0.03497058 -0.03000825 -0.05207692
v -0.03300114 -0.03430422 -0.05216289
v -0.03749967 -0.03727042 -0.04820907
v -0.03717627 -0.03846193 -0.04800273
v -0.03854345 -0.03727042 -0.04744390
v -0.03807288 -0.03924872 -0.04688603
v -0.03746481 -0.04144070 -0.04621735
v -0.03710268 -0.04249143 -0.04587250
v -0.03972860 -0.04178508 -0.04307645
v -0.03749192 -0.04332097 -0.04466983
v -0.03716659 -0.04465073 -0.04387122
v -0.03831494 -0.04382371 -0.04307645
v -0.03876421 -0.04322042 -0.04307645
v -0.02531318 -0.03728801 -0.05241317
v -0.03079739 -0.03000825 -0.05262428
v -0.02710445 -0.05454980 -0.04307645
v -0.02801268 -0.05394650 -0.04307645
v -0.02885894 -0.05297369 -0.04386836
v -0.02531318 -0.05481877 -0.04445584
v -0.04090407 -0.03000825 -0.04797312
v -0.03987384 -0.03101625 -0.04841349
v -0.03489506 -0.03000825 -0.05211800
v -0.03188765 -0.03507593 -0.05240171
v -0.03119437 -0.03667215 -0.05225938
v -0.03258286 -0.03569431 -0.05194414
v -0.03380673 -0.03507593 -0.05137289
v -0.03324127 -0.03310265 -0.05229281
v -0.03675411 -0.03985202 -0.04771806
v -0.03605697 -0.04150103 -0.04731590
v -0.03517972 -0.04477893 -0.04600337
v -0.03656627 -0.04387901 -0.04526113
v -0.03588461 -0.04540988 -0.04464690
v -0.03520296 -0.04686281 -0.04403266
v -0.03684706 -0.04573163 -0.04307645
v -0.03743189 -0.04500014 -0.04307645
v -0.02531318 -0.03758966 -0.05246094
v -0.03188765 -0.03000825 -0.05283062
v -0.02531318 -0.03935681 -0.05270930
v -0.02913586 -0.05317730 -0.04307645
v -0.02986786 -0.05260920 -0.04307645
v -0.03155263 -0.05122162 -0.04307645
v -0.03107044 -0.05104314 -0.04401260
v -0.02959481 -0.05170426 -0.04463543
v -0.02894221 -0.05097779 -0.04600910
v -0.02771639 -0.05247346 -0.04538245
v -0.02662226 -0.05286811 -0.04582855
v -0.02771639 -0.05334572 -0.04433930
v -0.02531318 -0.05425569 -0.04515032
v -0.03394229 -0.03000825 -0.05254882
v -0.03369054 -0.03101625 -0.05248673
v -0.02990272 -0.03732823 -0.05250010
v -0.02927335 -0.03894959 -0.05234344
v -0.03188765 -0.03310265 -0.05270930
v -0.03188765 -0.03732823 -0.05163941
v -0.03126409 -0.04144070 -0.05026479
v -0.03324902 -0.03882893 -0.05025524
v -0.03536369 -0.04084494 -0.04814411
v -0.03483309 -0.04223503 -0.04781550
v -0.03407204 -0.04366786 -0.04747925
v -0.03392873 -0.04552802 -0.04642750
v -0.03320448 -0.04691811 -0.04606259
v -0.03459296 -0.04616902 -0.04542257
v -0.03631839 -0.04636509 -0.04307645
v -0.03388032 -0.04758676 -0.04473574
v -0.03316575 -0.04897183 -0.04404890
v -0.03455617 -0.04825290 -0.04318917
v -0.03474982 -0.04813224 -0.04307645
v -0.03545277 -0.04736053 -0.04307645
v -0.03188765 -0.03101625 -0.05283444
v -0.03309409 -0.03000825 -0.05271121
v -0.02531318 -0.03967354 -0.05274083
v -0.03237178 -0.05049264 -0.04307645
v -0.03246086 -0.05036192 -0.04315573
v -0.03248022 -0.04830821 -0.04543881
v -0.03033263 -0.05034684 -0.04540251
v -0.02771639 -0.05143026 -0.04636732
v -0.03109174 -0.04895675 -0.04605209
v -0.02970326 -0.04970081 -0.04646190
v -0.02871757 -0.04870286 -0.04792153
v -0.02531318 -0.05328539 -0.04619155
v -0.02578762 -0.05196568 -0.04699779
v -0.02789649 -0.03953026 -0.05252971
v -0.02732134 -0.04105107 -0.05238547
v -0.02871176 -0.04033968 -0.05206259
v -0.02980202 -0.03518654 -0.05276280
v -0.03084580 -0.04248641 -0.05003648
v -0.03230787 -0.04144070 -0.04966202
v -0.03279200 -0.04021902 -0.04991612
v -0.03344461 -0.04306708 -0.04826734
v -0.03283073 -0.04445717 -0.04785849
v -0.03203676 -0.04578191 -0.04756236
v -0.03078577 -0.04659133 -0.04789383
v -0.03443029 -0.04846657 -0.04307645
v -0.02531318 -0.04158398 -0.05259849
v -0.03261384 -0.05026892 -0.04307645
v -0.03353949 -0.04935140 -0.04307645
v -0.02790036 -0.04983655 -0.04749931
v -0.02634534 -0.05057056 -0.04778111
v -0.03144031 -0.04520124 -0.04830459
v -0.02939535 -0.04731277 -0.04829504
v -0.03017383 -0.04387399 -0.04969450
v -0.02878341 -0.04459040 -0.05004794
v -0.02531318 -0.04677232 -0.05043674
v -0.02531318 -0.04706894 -0.05027625
v -0.02531318 -0.05042225 -0.04833325
v -0.02531318 -0.05093505 -0.04803139
v -0.02531318 -0.05311194 -0.04633007
v -0.02531318 -0.05145037 -0.04763591
v -0.02531318 -0.05208886 -0.04714013
v -0.02581086 -0.04162420 -0.05255742
v -0.02662613 -0.04244116 -0.05206546
v -0.02789649 -0.04162420 -0.05185626
v -0.02531318 -0.04286347 -0.05238738
v -0.02531318 -0.04302435 -0.05234439
v -0.02960837 -0.04331594 -0.05026383
v -0.03183923 -0.04347179 -0.04898092
v -0.02531318 -0.04209929 -0.05254977
v -0.02771639 -0.04352458 -0.05104810
v -0.02531318 -0.04395191 -0.05187536
f 1 2 7
f 1 7 16
f 1 16 21
f 1 21 33
f 1 33 32
f 1 32 53
f 1 53 57
f 1 57 56
f 1 56 79
f 1 79 78
f 1 78 107
f 1 107 112
f 1 112 111
f 1 111 137
f 1 137 140
f 1 140 139
f 1 139 116
f 1 116 85
f 1 85 84
f 1 84 83
f 1 83 61
f 1 61 60
f 1 60 38
f 1 38 23
f 1 23 9
f 1 9 3
f 1 3 8
f 1 8 22
f 1 22 37
f 1 37 59
f 1 59 81
f 1 81 114
f 1 114 93
f 1 93 66
f 1 66 45
f 1 45 64
f 1 64 41
f 1 41 25
f 1 25 13
f 1 13 24
f 1 24 10
f 1 10 4
f 1 4 5
f 1 5 2
f 2 5 6
f 2 6 7
f 3 9 8
f 4 10 11
f 4 11 5
f 5 12 6
f 5 11 13
f 5 13 14
f 5 14 12
f 6 15 16
f 6 16 7
f 6 12 17
f 6 17 18
f 6 18 19
f 6 19 20
f 6 20 21
f 6 21 15
f 8 9 23
f 8 23 40
f 8 40 63
f 8 63 92
f 8 92 124
f 8 124 151
f 8 151 153
f 8 153 152
f 8 152 150
f 8 150 149
f 8 149 148
f 8 148 147
f 8 147 163
f 8 163 158
f 8 158 157
f 8 157 161
f 8 161 138
f 8 138 115
f 8 115 82
f 8 82 80
f 8 80 58
f 8 58 36
f 8 36 22
f 10 24 11
f 11 24 13
f 12 14 17
f 13 25 26
f 13 26 27
f 13 27 17
f 13 17 14
f 15 21 16
f 17 27 28
f 17 28 29
f 17 29 18
f 18 29 30
f 18 30 31
f 18 31 19
f 19 32 33
f 19 33 20
f 19 31 34
f 19 34 35
f 19 35 32
f 20 33 21
f 22 36 37
f 23 38 39
f 23 39 40
f 25 41 26
f 26 41 27
f 27 42 28
f 27 41 43
f 27 43 42
f 28 42 43
f 28 43 41
f 28 41 44
f 28 44 45
f 28 45 46
f 28 46 47
f 28 47 48
f 28 48 49
f 28 49 29
f 29 49 50
f 29 50 30
f 30 50 51
f 30 51 31
f 31 51 52
f 31 52 34
f 32 35 53
f 34 52 35
f 35 52 54
f 35 54 55
f 35 55 56
f 35 56 57
f 35 57 53
f 36 58 59
f 36 59 37
f 38 60 39
f 39 60 61
f 39 61 62
f 39 62 40
f 40 62 63
f 41 64 44
f 44 64 65
f 44 65 45
f 45 65 64
f 45 66 46
f 46 67 68
f 46 68 69
f 46 69 70
f 46 70 47
f 46 66 71
f 46 71 67
f 47 70 48
f 48 70 69
f 48 69 72
f 48 72 49
f 49 72 50
f 50 72 51
f 51 73 52
f 51 72 73
f 52 73 74
f 52 74 75
f 52 75 55
f 52 55 54
f 55 75 76
f 55 76 77
f 55 77 78
f 55 78 79
f 55 79 56
f 58 80 59
f 59 80 82
f 59 82 81
f 61 83 62
f 62 83 84
f 62 84 85
f 62 85 86
f 62 86 87
f 62 87 88
f 62 88 89
f 62 89 90
f 62 90 91
f 62 91 63
f 63 91 90
f 63 90 92
f 66 93 94
f 66 94 71
f 67 95 96
f 67 96 68
f 67 71 94
f 67 94 97
f 67 97 95
f 68 96 69
f 69 96 98
f 69 98 99
f 69 99 100
f 69 100 72
f 72 101 102
f 72 102 73
f 72 100 101
f 73 102 74
f 74 102 103
f 74 103 104
f 74 104 105
f 74 105 106
f 74 106 75
f 75 106 76
f 76 106 77
f 77 107 78
f 77 106 108
f 77 108 109
f 77 109 110
f 77 110 111
f 77 111 112
f 77 112 107
f 81 113 114
f 81 82 115
f 81 115 113
f 85 116 117
f 85 117 86
f 86 117 109
f 86 109 118
f 86 118 119
f 86 119 88
f 86 88 87
f 88 120 90
f 88 90 89
f 88 119 121
f 88 121 122
f 88 122 123
f 88 123 120
f 90 124 92
f 90 120 125
f 90 125 124
f 93 114 97
f 93 97 94
f 95 97 126
f 95 126 127
f 95 127 96
f 96 127 128
f 96 128 99
f 96 99 98
f 97 114 113
f 97 113 129
f 97 129 126
f 99 128 130
f 99 130 131
f 99 131 132
f 99 132 100
f 100 132 101
f 101 132 131
f 101 131 133
f 101 133 102
f 102 133 134
f 102 134 103
f 103 134 104
f 104 134 105
f 105 134 135
f 105 135 136
f 105 136 123
f 105 123 121
f 105 121 118
f 105 118 106
f 106 118 108
f 108 118 109
f 109 137 110
f 109 117 137
f 110 137 111
f 113 115 129
f 115 138 129
f 116 139 117
f 117 139 140
f 117 140 137
f 118 121 119
f 120 123 141
f 120 141 142
f 120 142 125
f 121 123 122
f 123 136 143
f 123 143 144
f 123 144 145
f 123 145 146
f 123 146 147
f 123 147 148
f 123 148 149
f 123 149 150
f 123 150 142
f 123 142 141
f 124 125 151
f 125 142 150
f 125 150 152
f 125 152 153
f 125 153 151
f 126 154 127
f 126 129 154
f 127 155 156
f 127 156 128
f 127 154 157
f 127 157 158
f 127 158 155
f 128 156 159
f 128 159 130
f 129 138 154
f 130 159 145
f 130 145 160
f 130 160 133
f 130 133 131
f 133 160 143
f 133 143 134
f 134 143 136
f 134 136 135
f 138 161 154
f 143 160 145
f 143 145 144
f 145 159 146
f 146 159 162
f 146 162 158
f 146 158 163
f 146 163 147
f 154 161 157
f 155 158 162
f 155 162 159
f 155 159 156

