# https://github.com/mikedh/trimesh
v 0.00933187 -0.06013180 -0.01552213
v -0.01270578 -0.06013983 -0.01552213
v 0.00933187 -0.06229880 -0.01552213
v 0.00933187 -0.05820681 -0.04307549
v -0.01270578 -0.05808148 -0.04307549
v -0.01270578 -0.06232350 -0.01552213
v 0.00144525 -0.06341502 -0.01552213
v 0.00305450 -0.06336810 -0.01624232
v 0.00444588 -0.06325388 -0.01681686
v 0.00491183 -0.06337366 -0.01820599
v 0.00666129 -0.06330945 -0.02088715
v 0.00693309 -0.06337798 -0.02227628
v 0.00721784 -0.06343910 -0.02397561
v 0.00887886 -0.06335452 -0.02873911
v 0.00933187 -0.06320017 -0.02930825
v 0.00933187 -0.06094303 -0.04307549
v -0.01270578 -0.06081771 -0.04307549
v -0.01209099 -0.06333291 -0.02913293
v -0.01068883 -0.06348108 -0.02606065
v -0.01040624 -0.06341564 -0.02397561
v -0.01016463 -0.06336316 -0.02245161
v -0.00806355 -0.06334772 -0.01851349
v -0.00611994 -0.06335329 -0.01634752
v -0.00563242 -0.06325636 -0.01552213
v -0.01270578 -0.06313164 -0.03022805
v -0.00049189 -0.06347738 -0.01552213
v 0.00147114 -0.06359962 -0.01772316
v 0.00147761 -0.06341811 -0.01558147
v 0.00367145 -0.06344095 -0.01759639
v 0.00355497 -0.06362925 -0.01980821
v 0.00355497 -0.06376755 -0.02189326
v 0.00533895 -0.06342861 -0.01980821
v 0.00583509 -0.06349096 -0.02170714
v 0.00564095 -0.06366383 -0.02397561
v 0.00564095 -0.06377804 -0.02606065
v 0.00750474 -0.06350084 -0.02606065
v 0.00789519 -0.06351750 -0.02808366
v 0.00772477 -0.06364962 -0.03022805
v 0.00901692 -0.06339280 -0.03022805
v 0.00933187 -0.06325944 -0.03022805
v 0.00772477 -0.06126778 -0.04307549
v 0.00933187 -0.06144558 -0.04212333
v 0.00772477 -0.06160425 -0.04245510
v -0.01222905 -0.06096155 -0.04307549
v -0.01270578 -0.06091340 -0.04291096
v -0.01115693 -0.06348479 -0.02832103
v -0.01215570 -0.06334896 -0.03022805
v -0.00895231 -0.06385583 -0.02814570
v -0.00895231 -0.06376508 -0.02606065
v -0.00895231 -0.06362863 -0.02397561
v -0.00908821 -0.06346070 -0.02180964
v -0.00845616 -0.06339403 -0.01980821
v -0.00683396 -0.06339712 -0.01777981
v -0.00686632 -0.06383237 -0.02397561
v -0.00478250 -0.06353171 -0.01772316
v -0.00467679 -0.06338538 -0.01564621
v -0.00459267 -0.06338045 -0.01552213
v -0.00478250 -0.06398486 -0.02397561
v -0.00478250 -0.06383484 -0.02189326
v -0.01270578 -0.06313596 -0.03098870
v -0.00061484 -0.06347923 -0.01552213
v -0.00061484 -0.06348910 -0.01563812
v 0.00147114 -0.06376570 -0.01980821
v 0.00147114 -0.06390646 -0.02189326
v 0.00147114 -0.06402252 -0.02397561
v 0.00355497 -0.06387991 -0.02397561
v 0.00355497 -0.06398301 -0.02606065
v 0.00355497 -0.06408117 -0.02814570
v 0.00564095 -0.06387003 -0.02814570
v 0.00564095 -0.06395400 -0.03022805
v 0.00564095 -0.06396264 -0.03231309
v 0.00772477 -0.06365271 -0.03231309
v 0.00898672 -0.06338847 -0.03231309
v 0.00933187 -0.06324154 -0.03231309
v 0.00707978 -0.06138446 -0.04307549
v 0.00933187 -0.06193455 -0.04065328
v 0.00772477 -0.06221792 -0.04065328
v 0.00267053 -0.06335205 -0.03967684
v 0.00569272 -0.06169747 -0.04290286
v 0.00557623 -0.06162956 -0.04307549
v -0.01103613 -0.06126469 -0.04307549
v -0.01262381 -0.06137582 -0.04202893
v -0.01270578 -0.06130790 -0.04212064
v -0.01103613 -0.06355023 -0.03022805
v -0.01216865 -0.06335267 -0.03181678
v -0.00686632 -0.06406389 -0.02814570
v -0.00895231 -0.06388979 -0.03022805
v -0.00686632 -0.06412192 -0.03022805
v -0.00686632 -0.06396819 -0.02606065
v -0.00269651 -0.06345021 -0.01552213
v -0.00269651 -0.06392806 -0.02189326
v -0.00269651 -0.06377557 -0.01980821
v -0.00269651 -0.06361814 -0.01772316
v -0.00269651 -0.06345947 -0.01563812
v -0.00478250 -0.06410772 -0.02606065
v -0.00269651 -0.06407253 -0.02397561
v -0.01270578 -0.06310818 -0.03222948
v -0.00061484 -0.06365024 -0.01772316
v -0.00061484 -0.06379965 -0.01980821
v -0.00061484 -0.06394165 -0.02189326
v -0.00061484 -0.06407438 -0.02397561
v -0.00061484 -0.06419724 -0.02606065
v 0.00147114 -0.06424540 -0.02814570
v 0.00147114 -0.06434603 -0.03022805
v 0.00355497 -0.06417069 -0.03022805
v 0.00355497 -0.06417069 -0.03231309
v 0.00564095 -0.06385768 -0.03439814
v 0.00779596 -0.06350516 -0.03430103
v 0.00884219 -0.06334896 -0.03354038
v 0.00933187 -0.06306990 -0.03400433
v 0.00933187 -0.06242351 -0.03853317
v 0.00676483 -0.06335020 -0.03759989
v 0.00564095 -0.06345330 -0.03793166
v 0.00344064 -0.06353294 -0.03863837
v 0.00147114 -0.06341564 -0.03986296
v 0.00355497 -0.06203888 -0.04273833
v 0.00537130 -0.06165673 -0.04307549
v -0.00921117 -0.06159684 -0.04307549
v -0.01103613 -0.06155362 -0.04243892
v -0.01103613 -0.06216298 -0.04065328
v -0.01270578 -0.06141410 -0.04186709
v -0.01270578 -0.06136162 -0.04200195
v -0.00895231 -0.06388114 -0.03231309
v -0.01270578 -0.06307361 -0.03265296
v -0.01204353 -0.06328599 -0.03320592
v -0.01082904 -0.06347429 -0.03439814
v -0.01122381 -0.06349405 -0.03243178
v -0.00478250 -0.06418489 -0.02814570
v -0.00686632 -0.06415588 -0.03231309
v -0.00478250 -0.06424107 -0.03022805
v -0.00478250 -0.06428306 -0.03231309
v -0.00269651 -0.06427256 -0.02814570
v -0.00269651 -0.06419230 -0.02606065
v -0.00061484 -0.06430528 -0.02814570
v -0.00061484 -0.06438801 -0.03022805
v -0.00061484 -0.06437505 -0.03231309
v 0.00147114 -0.06433059 -0.03231309
v 0.00355497 -0.06405339 -0.03439814
v 0.00355497 -0.06389225 -0.03648319
v 0.00564095 -0.06368111 -0.03648319
v 0.00709272 -0.06342490 -0.03648319
v 0.00147114 -0.06369531 -0.03856824
v -0.00061484 -0.06377310 -0.03856824
v -0.00061484 -0.06344775 -0.03996276
v 0.00147114 -0.06220743 -0.04273833
v 0.00147114 -0.06205679 -0.04307549
v 0.00307823 -0.06192652 -0.04307549
v 0.00355497 -0.06188083 -0.04307549
v -0.00896956 -0.06162524 -0.04307549
v -0.00906879 -0.06168513 -0.04292444
v -0.01270578 -0.06178391 -0.04076387
v -0.00895231 -0.06245191 -0.04065328
v -0.00686632 -0.06351874 -0.03827692
v -0.00853597 -0.06341378 -0.03788580
v -0.00992519 -0.06327179 -0.03745153
v -0.00895231 -0.06378791 -0.03439814
v -0.00686632 -0.06407870 -0.03439814
v -0.01270578 -0.06296433 -0.03393689
v -0.01270578 -0.06277665 -0.03578727
v -0.01044722 -0.06340514 -0.03605970
v -0.00478250 -0.06423181 -0.03439814
v -0.00269651 -0.06432442 -0.03022805
v -0.00269651 -0.06433739 -0.03231309
v -0.00269651 -0.06427133 -0.03439814
v -0.00061484 -0.06424848 -0.03439814
v 0.00147114 -0.06417440 -0.03439814
v 0.00147114 -0.06398486 -0.03648319
v -0.00061484 -0.06407562 -0.03648319
v -0.00269651 -0.06376878 -0.03856824
v -0.00269651 -0.06413426 -0.03648319
v -0.00269651 -0.06340761 -0.03984677
v -0.00478250 -0.06214878 -0.04273833
v -0.00269651 -0.06222101 -0.04273833
v -0.00269651 -0.06207716 -0.04307549
v -0.00107216 -0.06210618 -0.04307549
v -0.00061484 -0.06225805 -0.04273833
v 0.00101382 -0.06207222 -0.04307549
v -0.00733658 -0.06180428 -0.04307549
v -0.00686632 -0.06201357 -0.04273833
v -0.00424320 -0.06336810 -0.03972809
v -0.00563242 -0.06325636 -0.03955816
v -0.01270578 -0.06236980 -0.03856824
v -0.00478250 -0.06406142 -0.03648319
v -0.00686632 -0.06384966 -0.03648319
v -0.00487525 -0.06360270 -0.03874356
v -0.00911841 -0.06353171 -0.03664773
v -0.01270578 -0.06245006 -0.03817172
v -0.00478250 -0.06199690 -0.04307549
v -0.00061484 -0.06211173 -0.04307549
v -0.00686632 -0.06185058 -0.04307549
f 1 2 6
f 1 6 24
f 1 24 57
f 1 57 90
f 1 90 61
f 1 61 26
f 1 26 7
f 1 7 3
f 1 3 15
f 1 15 40
f 1 40 74
f 1 74 110
f 1 110 111
f 1 111 76
f 1 76 42
f 1 42 16
f 1 16 4
f 1 4 5
f 1 5 2
f 2 5 17
f 2 17 45
f 2 45 83
f 2 83 122
f 2 122 121
f 2 121 151
f 2 151 182
f 2 182 187
f 2 187 159
f 2 159 158
f 2 158 124
f 2 124 97
f 2 97 60
f 2 60 25
f 2 25 6
f 3 7 8
f 3 8 9
f 3 9 10
f 3 10 11
f 3 11 12
f 3 12 13
f 3 13 14
f 3 14 15
f 4 16 41
f 4 41 75
f 4 75 80
f 4 80 117
f 4 117 148
f 4 148 147
f 4 147 146
f 4 146 177
f 4 177 189
f 4 189 175
f 4 175 174
f 4 174 188
f 4 188 190
f 4 190 178
f 4 178 149
f 4 149 118
f 4 118 81
f 4 81 44
f 4 44 17
f 4 17 5
f 6 18 19
f 6 19 20
f 6 20 21
f 6 21 22
f 6 22 23
f 6 23 24
f 6 25 18
f 7 26 27
f 7 27 28
f 7 28 8
f 8 27 29
f 8 29 10
f 8 10 9
f 8 28 27
f 10 29 30
f 10 30 31
f 10 31 32
f 10 32 12
f 10 12 11
f 12 32 33
f 12 33 34
f 12 34 13
f 13 34 35
f 13 35 36
f 13 36 14
f 14 36 37
f 14 37 38
f 14 38 39
f 14 39 15
f 15 39 40
f 16 42 43
f 16 43 41
f 17 44 45
f 18 46 19
f 18 25 47
f 18 47 46
f 19 46 48
f 19 48 49
f 19 49 20
f 20 49 21
f 21 49 50
f 21 50 51
f 21 51 52
f 21 52 22
f 22 53 23
f 22 52 50
f 22 50 54
f 22 54 53
f 23 55 56
f 23 56 57
f 23 57 24
f 23 53 54
f 23 54 58
f 23 58 59
f 23 59 55
f 25 60 47
f 26 61 62
f 26 62 63
f 26 63 27
f 27 63 30
f 27 30 29
f 30 63 64
f 30 64 31
f 31 64 65
f 31 65 66
f 31 66 35
f 31 35 34
f 31 34 32
f 32 34 33
f 35 67 68
f 35 68 69
f 35 69 36
f 35 66 67
f 36 69 38
f 36 38 37
f 38 70 71
f 38 71 72
f 38 72 39
f 38 69 70
f 39 72 73
f 39 73 40
f 40 73 74
f 41 43 75
f 42 76 77
f 42 77 43
f 43 77 78
f 43 78 79
f 43 79 80
f 43 80 75
f 44 81 82
f 44 82 83
f 44 83 45
f 46 47 84
f 46 84 48
f 47 60 85
f 47 85 84
f 48 86 49
f 48 84 87
f 48 87 88
f 48 88 86
f 49 86 89
f 49 89 54
f 49 54 50
f 50 52 51
f 54 89 58
f 55 57 56
f 55 59 57
f 57 59 91
f 57 91 92
f 57 92 93
f 57 93 94
f 57 94 90
f 58 89 95
f 58 95 96
f 58 96 91
f 58 91 59
f 60 97 85
f 61 90 62
f 62 90 94
f 62 94 98
f 62 98 63
f 63 98 99
f 63 99 100
f 63 100 64
f 64 100 101
f 64 101 102
f 64 102 65
f 65 102 103
f 65 103 66
f 66 103 67
f 67 103 104
f 67 104 68
f 68 104 105
f 68 105 69
f 69 105 70
f 70 105 71
f 71 106 107
f 71 107 72
f 71 105 106
f 72 107 108
f 72 108 109
f 72 109 73
f 73 109 74
f 74 109 110
f 76 111 112
f 76 112 113
f 76 113 77
f 77 113 78
f 78 113 114
f 78 114 115
f 78 115 116
f 78 116 79
f 79 116 117
f 79 117 80
f 81 118 119
f 81 119 82
f 82 119 120
f 82 120 121
f 82 121 122
f 82 122 83
f 84 85 123
f 84 123 87
f 85 97 124
f 85 124 125
f 85 125 126
f 85 126 127
f 85 127 123
f 86 128 95
f 86 95 89
f 86 88 128
f 87 123 129
f 87 129 88
f 88 130 128
f 88 129 131
f 88 131 130
f 91 96 99
f 91 99 98
f 91 98 92
f 92 98 93
f 93 98 94
f 95 128 132
f 95 132 133
f 95 133 96
f 96 101 100
f 96 100 99
f 96 133 102
f 96 102 101
f 102 133 134
f 102 134 103
f 103 134 104
f 104 134 135
f 104 135 136
f 104 136 137
f 104 137 106
f 104 106 105
f 106 137 138
f 106 138 107
f 107 138 139
f 107 139 140
f 107 140 108
f 108 140 141
f 108 141 109
f 109 141 111
f 109 111 110
f 111 141 112
f 112 141 140
f 112 140 113
f 113 140 139
f 113 139 114
f 114 139 142
f 114 142 115
f 115 142 143
f 115 143 144
f 115 144 145
f 115 145 116
f 116 145 146
f 116 146 147
f 116 147 148
f 116 148 117
f 118 149 150
f 118 150 119
f 119 150 120
f 120 151 121
f 120 150 152
f 120 152 153
f 120 153 154
f 120 154 155
f 120 155 151
f 123 127 126
f 123 126 156
f 123 156 157
f 123 157 129
f 124 158 125
f 125 158 159
f 125 159 160
f 125 160 126
f 126 160 156
f 128 130 132
f 129 157 161
f 129 161 131
f 130 162 132
f 130 131 162
f 131 163 135
f 131 135 162
f 131 161 163
f 132 162 135
f 132 135 133
f 133 135 134
f 135 163 136
f 136 163 164
f 136 164 165
f 136 165 137
f 137 165 166
f 137 166 138
f 138 166 139
f 139 167 142
f 139 166 167
f 142 167 168
f 142 168 143
f 143 169 144
f 143 168 170
f 143 170 169
f 144 171 172
f 144 172 173
f 144 173 174
f 144 174 175
f 144 175 176
f 144 176 145
f 144 169 171
f 145 176 177
f 145 177 146
f 149 178 150
f 150 178 179
f 150 179 180
f 150 180 181
f 150 181 153
f 150 153 152
f 151 155 182
f 153 183 184
f 153 184 154
f 153 181 180
f 153 180 185
f 153 185 183
f 154 184 186
f 154 186 155
f 155 186 160
f 155 160 187
f 155 187 182
f 156 160 186
f 156 186 157
f 157 183 161
f 157 186 184
f 157 184 183
f 159 187 160
f 161 183 170
f 161 170 164
f 161 164 163
f 164 170 165
f 165 170 168
f 165 168 166
f 166 168 167
f 169 170 183
f 169 183 185
f 169 185 180
f 169 180 171
f 171 180 172
f 172 179 188
f 172 188 174
f 172 174 173
f 172 180 179
f 175 189 176
f 176 189 177
f 178 190 179
f 179 190 188

