# https://github.com/mikedh/trimesh
v 0.00933187 0.01902240 0.05289763
v 0.00772377 0.01902240 0.05300260
v 0.00933187 0.01716627 0.05268150
v 0.00933187 0.02028905 0.05232953
v 0.00772377 0.02047417 0.05249625
v 0.00563796 0.02064590 0.05260123
v 0.00355494 0.02076404 0.05263210
v 0.00146913 0.02087974 0.05265680
v -0.00061390 0.02095769 0.05267533
v -0.00269693 0.02094064 0.05267533
v -0.00686576 0.01902240 0.05289145
v -0.00964035 0.01841952 0.05279265
v -0.00964035 0.01732947 0.05255800
v 0.00933187 0.01610301 0.05164411
v 0.00933187 0.02079571 0.05106984
v 0.00772377 0.02115256 0.05106984
v 0.00563796 0.02148506 0.05106984
v 0.00146913 0.02191986 0.05134771
v -0.00061390 0.02199780 0.05168733
v -0.00478273 0.02084564 0.05264445
v -0.00895157 0.01902240 0.05286675
v -0.00269693 0.02198075 0.05157619
v -0.00964035 0.01902240 0.05284823
v -0.01231774 0.02018674 0.05210105
v -0.01344258 0.02018674 0.05150826
v -0.01454797 0.02018674 0.05052644
v -0.00964035 0.01692512 0.05202078
v -0.00964035 0.01633929 0.05110071
v 0.00933187 0.01597391 0.05137241
v 0.00933187 0.02117448 0.04898887
v 0.00772377 0.02153499 0.04898887
v 0.00556853 0.02193569 0.04891477
v 0.00390211 0.02206114 0.04955697
v 0.00251064 0.02214517 0.05002627
v 0.00146913 0.02220485 0.05031032
v -0.00061390 0.02227549 0.05064376
v -0.00686576 0.02070923 0.05257035
v -0.00269693 0.02224748 0.05052644
v -0.00433835 0.02218902 0.05024857
v -0.00493271 0.02193447 0.05099573
v -0.00686576 0.02169819 0.05106984
v -0.00895157 0.02051071 0.05245921
v -0.00964035 0.02001867 0.05257653
v -0.01120957 0.02018674 0.05232953
v -0.01189558 0.02018674 0.05223073
v -0.00895157 0.02134621 0.05106984
v -0.00964035 0.02119519 0.05106984
v -0.01103737 0.02088827 0.05106984
v -0.01311762 0.02038039 0.05115629
v -0.01453408 0.02019648 0.05051409
v -0.01458963 0.02018674 0.05045851
v -0.01535063 0.02018674 0.04898887
v -0.01561448 0.02018674 0.04843312
v -0.00964035 0.01610301 0.05033502
v 0.00933187 0.01563411 0.05063759
v 0.00933187 0.02306593 0.03231029
v 0.00826536 0.02371143 0.03231029
v 0.00768211 0.02371143 0.03403928
v 0.00757935 0.02371143 0.03426775
v 0.00482697 0.02218537 0.04816760
v 0.00334386 0.02223652 0.04891477
v 0.00146913 0.02238754 0.04898887
v -0.00061390 0.02248376 0.04898887
v -0.00269693 0.02244479 0.04898887
v -0.00572704 0.02213908 0.04995834
v -0.01103737 0.02027809 0.05230483
v -0.00964035 0.02043398 0.05240980
v -0.00686576 0.02209280 0.04950757
v -0.00876548 0.02191133 0.04882215
v -0.00964035 0.02172012 0.04888390
v -0.01103737 0.02141320 0.04898887
v -0.01312040 0.02087852 0.04898887
v -0.01495347 0.02032437 0.04898887
v -0.01593388 0.02018674 0.04761185
v -0.01631438 0.02018674 0.04635834
v -0.01655323 0.02018674 0.04550619
v -0.00964035 0.01596295 0.04961872
v 0.00933187 0.01529553 0.04894565
v 0.00933187 0.02320112 0.03086534
v 0.00933187 0.02599140 -0.00638824
v 0.00872085 0.02625691 -0.00638824
v 0.00771821 0.02651390 -0.00638824
v 0.00563796 0.02690120 -0.00638824
v 0.00355494 0.02717158 -0.00638824
v 0.00264951 0.02724100 -0.00638824
v 0.00146913 0.02723004 -0.00520264
v 0.00543244 0.02371143 0.03612024
v 0.00355494 0.02248498 0.04690174
v 0.00355494 0.02371143 0.03687976
v -0.00061390 0.02371143 0.03757753
v -0.00122770 0.02371143 0.03757753
v -0.00269693 0.02371143 0.03756518
v -0.00321907 0.02371143 0.03750961
v -0.00504103 0.02371143 0.03712058
v -0.00677133 0.02371143 0.03637959
v -0.00794616 0.02215248 0.04801323
v -0.00788506 0.02371143 0.03550892
v -0.00888769 0.02371143 0.03436655
v -0.00964035 0.02371509 0.03250171
v -0.01312040 0.02110750 0.04690791
v -0.01540618 0.02041084 0.04708698
v -0.01520621 0.02071776 0.04481460
v -0.01420358 0.02216101 0.03350205
v -0.01636992 0.02219267 0.02547460
v -0.01664211 0.02022328 0.04481460
v -0.01671710 0.02018674 0.04481460
v -0.01858627 0.02018674 0.03682419
v -0.01866403 0.02018674 0.03647839
v -0.01904176 0.02018674 0.03465677
v -0.00964035 0.01593129 0.04913707
v 0.00933187 0.01516521 0.04690174
v 0.00933187 0.02373457 -0.00638824
v -0.00964035 0.02715087 -0.01006852
v 0.00146913 0.02732139 -0.00638824
v 0.00056371 0.02736158 -0.00638824
v -0.00061390 0.02732139 -0.00520264
v -0.00061390 0.02715209 -0.00311550
v -0.00269693 0.02702056 -0.00103454
v -0.00478273 0.02712408 -0.00311550
v -0.00478273 0.02729946 -0.00520264
v -0.00686576 0.02713626 -0.00520264
v -0.00686576 0.02723248 -0.00638824
v -0.00895157 0.02697671 -0.00638824
v -0.00964035 0.02710825 -0.00937074
v -0.01103737 0.02685979 -0.00937074
v -0.00964035 0.02373214 0.03231029
v -0.01520621 0.02504020 -0.00103454
v -0.01425912 0.02426438 0.01077817
v -0.01728923 0.02475520 -0.00520882
v -0.01850850 0.02430579 -0.00520882
v -0.01688929 0.02033167 0.04273363
v -0.01886678 0.02031949 0.03439743
v -0.01862793 0.02020623 0.03647839
v -0.01904176 0.02021962 0.03439743
v -0.01904176 0.02018674 0.00836994
v -0.00964035 0.01558296 0.03647839
v -0.00964035 0.01559148 0.03855936
v -0.00964035 0.01562680 0.04064649
v -0.00964035 0.01567065 0.04240018
v -0.00964035 0.01567917 0.04273363
v -0.00964035 0.01572789 0.04461082
v -0.00964035 0.01581802 0.04688321
v 0.00933187 0.01507143 0.04481460
v 0.00933187 0.01803831 -0.00005889
v -0.01904176 0.02208671 -0.01006852
v -0.00964035 0.02505847 -0.01006852
v -0.01103737 0.02691338 -0.01006852
v -0.00478273 0.02737497 -0.00638824
v -0.00269693 0.02741029 -0.00638824
v -0.00151932 0.02740299 -0.00638824
v -0.00061390 0.02738959 -0.00638824
v -0.00269693 0.02735061 -0.00520264
v -0.00269693 0.02718863 -0.00311550
v -0.01217609 0.02665883 -0.01006852
v -0.01274546 0.02647736 -0.00937074
v -0.01291210 0.02649319 -0.01006852
v -0.01728923 0.02494642 -0.00728978
v -0.01520621 0.02485264 0.00104642
v -0.01873902 0.02440200 -0.00728978
v -0.01904176 0.02039379 0.03285986
v -0.01904176 0.02064103 0.00313356
v -0.00964035 0.01609084 0.01942930
v -0.00964035 0.01602750 0.02024440
v -0.00964035 0.01574860 0.02605504
v -0.00964035 0.01567674 0.02769141
v -0.00964035 0.01565847 0.02814218
v -0.00964035 0.01563167 0.02968592
v -0.00964035 0.01562437 0.03022315
v -0.00964035 0.01561097 0.03174836
v -0.00964035 0.01559514 0.03381080
v -0.00964035 0.01558539 0.03590412
v 0.00933187 0.01496790 0.03231029
v 0.00933187 0.01497277 0.03439125
v 0.00933187 0.01501662 0.04225198
v 0.00933187 0.01505559 0.04433912
v 0.00933187 0.01777036 0.00123785
v -0.00964035 0.01727710 0.00938263
v -0.01904176 0.02199780 -0.00937074
v -0.01904176 0.02450309 -0.01006852
v -0.00964035 0.01708832 0.01077817
v -0.01655879 0.02536173 -0.01006852
v -0.01728923 0.02509501 -0.00937074
v -0.01902231 0.02451283 -0.01006852
v -0.01904176 0.02405855 -0.00520882
v -0.01904176 0.02176396 -0.00737623
v 0.00933187 0.01545264 0.01981215
v 0.00933187 0.01575834 0.01622449
v 0.00933187 0.01562071 0.01771266
v 0.00933187 0.01534546 0.02122004
v 0.00933187 0.01529431 0.02189312
v 0.00933187 0.01529065 0.02194869
v 0.00933187 0.01517130 0.02396790
v 0.00933187 0.01508726 0.02604269
v 0.00933187 0.01502514 0.02814218
v 0.00933187 0.01498982 0.03022315
v 0.00933187 0.01754505 0.00259017
v 0.00933187 0.01745492 0.00313356
v 0.00933187 0.01663647 0.00886393
v 0.00933187 0.01656096 0.00946291
v -0.01728923 0.02513154 -0.01006852
f 1 2 3
f 1 3 14
f 1 14 29
f 1 29 55
f 1 55 78
f 1 78 111
f 1 111 143
f 1 143 175
f 1 175 174
f 1 174 173
f 1 173 172
f 1 172 195
f 1 195 194
f 1 194 193
f 1 193 192
f 1 192 191
f 1 191 190
f 1 190 189
f 1 189 186
f 1 186 188
f 1 188 187
f 1 187 199
f 1 199 198
f 1 198 197
f 1 197 196
f 1 196 176
f 1 176 144
f 1 144 112
f 1 112 80
f 1 80 79
f 1 79 56
f 1 56 30
f 1 30 15
f 1 15 4
f 1 4 5
f 1 5 6
f 1 6 2
f 2 6 7
f 2 7 8
f 2 8 9
f 2 9 10
f 2 10 11
f 2 11 12
f 2 12 3
f 3 12 13
f 3 13 14
f 4 15 16
f 4 16 5
f 5 16 17
f 5 17 18
f 5 18 19
f 5 19 6
f 6 19 7
f 7 19 8
f 8 19 9
f 9 19 10
f 10 20 21
f 10 21 11
f 10 19 22
f 10 22 20
f 11 21 12
f 12 21 23
f 12 23 24
f 12 24 13
f 13 24 25
f 13 25 26
f 13 26 27
f 13 27 14
f 14 28 29
f 14 27 28
f 15 30 31
f 15 31 16
f 16 31 32
f 16 32 17
f 17 32 33
f 17 33 34
f 17 34 35
f 17 35 18
f 18 35 19
f 19 35 36
f 19 36 22
f 20 37 23
f 20 23 21
f 20 22 37
f 22 36 38
f 22 38 39
f 22 39 40
f 22 40 41
f 22 41 42
f 22 42 37
f 23 37 43
f 23 43 44
f 23 44 45
f 23 45 24
f 24 45 46
f 24 46 25
f 25 46 47
f 25 47 48
f 25 48 49
f 25 49 50
f 25 50 26
f 26 50 51
f 26 51 28
f 26 28 27
f 28 51 52
f 28 52 53
f 28 53 54
f 28 54 55
f 28 55 29
f 30 56 57
f 30 57 58
f 30 58 59
f 30 59 31
f 31 60 32
f 31 59 60
f 32 60 33
f 33 60 61
f 33 61 34
f 34 61 35
f 35 61 62
f 35 62 36
f 36 62 63
f 36 63 64
f 36 64 38
f 37 42 43
f 38 64 39
f 39 64 65
f 39 65 40
f 40 65 41
f 41 46 45
f 41 45 66
f 41 66 67
f 41 67 42
f 41 65 68
f 41 68 46
f 42 67 44
f 42 44 43
f 44 66 45
f 44 67 66
f 46 68 69
f 46 69 70
f 46 70 71
f 46 71 47
f 47 71 48
f 48 71 49
f 49 71 50
f 50 71 72
f 50 72 73
f 50 73 52
f 50 52 51
f 52 73 53
f 53 73 74
f 53 74 54
f 54 74 75
f 54 75 76
f 54 76 77
f 54 77 78
f 54 78 55
f 56 79 57
f 57 79 80
f 57 80 81
f 57 81 82
f 57 82 58
f 58 82 83
f 58 83 59
f 59 83 84
f 59 84 85
f 59 85 86
f 59 86 87
f 59 87 60
f 60 88 61
f 60 87 88
f 61 88 62
f 62 88 87
f 62 87 89
f 62 89 63
f 63 89 90
f 63 90 91
f 63 91 92
f 63 92 93
f 63 93 64
f 64 93 94
f 64 94 95
f 64 95 65
f 65 95 68
f 68 96 69
f 68 95 97
f 68 97 96
f 69 96 98
f 69 98 70
f 70 98 71
f 71 98 72
f 72 98 99
f 72 99 100
f 72 100 101
f 72 101 73
f 73 101 74
f 74 101 102
f 74 102 75
f 75 102 103
f 75 103 104
f 75 104 105
f 75 105 76
f 76 105 106
f 76 106 77
f 77 106 107
f 77 107 108
f 77 108 109
f 77 109 110
f 77 110 78
f 78 110 111
f 80 112 146
f 80 146 113
f 80 113 81
f 81 113 82
f 82 113 83
f 83 113 84
f 84 113 85
f 85 113 114
f 85 114 86
f 86 114 115
f 86 115 116
f 86 116 87
f 87 116 117
f 87 117 89
f 89 117 118
f 89 118 90
f 90 118 91
f 91 118 92
f 92 118 93
f 93 118 94
f 94 118 119
f 94 119 95
f 95 119 120
f 95 120 97
f 96 97 98
f 97 120 121
f 97 121 98
f 98 121 122
f 98 122 123
f 98 123 124
f 98 124 125
f 98 125 126
f 98 126 99
f 99 126 127
f 99 127 128
f 99 128 103
f 99 103 102
f 99 102 101
f 99 101 100
f 103 128 129
f 103 129 104
f 104 129 130
f 104 130 131
f 104 131 105
f 105 131 132
f 105 132 133
f 105 133 106
f 106 133 107
f 107 133 108
f 108 133 132
f 108 132 134
f 108 134 109
f 109 134 160
f 109 160 184
f 109 184 179
f 109 179 145
f 109 145 178
f 109 178 185
f 109 185 161
f 109 161 135
f 109 135 136
f 109 136 137
f 109 137 138
f 109 138 139
f 109 139 140
f 109 140 141
f 109 141 142
f 109 142 110
f 110 142 111
f 111 142 143
f 112 144 145
f 112 145 146
f 113 146 145
f 113 145 179
f 113 179 183
f 113 183 200
f 113 200 181
f 113 181 156
f 113 156 154
f 113 154 147
f 113 147 124
f 113 124 122
f 113 122 148
f 113 148 149
f 113 149 150
f 113 150 151
f 113 151 115
f 113 115 114
f 115 151 116
f 116 151 150
f 116 150 152
f 116 152 153
f 116 153 118
f 116 118 117
f 118 153 120
f 118 120 119
f 120 153 152
f 120 152 148
f 120 148 122
f 120 122 121
f 122 124 123
f 124 147 125
f 125 147 154
f 125 154 155
f 125 155 126
f 126 155 156
f 126 156 127
f 127 156 157
f 127 157 158
f 127 158 128
f 128 158 157
f 128 157 129
f 129 157 130
f 130 157 159
f 130 159 160
f 130 160 132
f 130 132 131
f 132 160 134
f 135 161 162
f 135 162 163
f 135 163 164
f 135 164 165
f 135 165 166
f 135 166 167
f 135 167 168
f 135 168 169
f 135 169 170
f 135 170 171
f 135 171 136
f 136 171 172
f 136 172 173
f 136 173 137
f 137 173 174
f 137 174 138
f 138 174 175
f 138 175 139
f 139 175 140
f 140 175 141
f 141 175 143
f 141 143 142
f 144 176 177
f 144 177 145
f 145 177 180
f 145 180 178
f 148 152 149
f 149 152 150
f 154 156 155
f 156 181 182
f 156 182 157
f 157 182 183
f 157 183 159
f 159 183 179
f 159 179 184
f 159 184 160
f 161 185 162
f 162 186 163
f 162 185 180
f 162 180 187
f 162 187 188
f 162 188 186
f 163 186 189
f 163 189 190
f 163 190 191
f 163 191 192
f 163 192 164
f 164 192 165
f 165 192 166
f 166 192 193
f 166 193 194
f 166 194 167
f 167 195 168
f 167 194 195
f 168 195 172
f 168 172 169
f 169 172 170
f 170 172 171
f 176 196 177
f 177 196 197
f 177 197 198
f 177 198 180
f 178 180 185
f 180 198 199
f 180 199 187
f 181 200 182
f 182 200 183

