# https://github.com/mikedh/trimesh
v -0.00964060 0.02371383 0.02194995
v -0.00964060 0.02371383 0.03252893
v -0.00964060 0.02418891 0.02194995
v 0.00783415 0.02371383 0.02194995
v -0.00964060 0.02371684 0.03250750
v -0.00888934 0.02371383 0.03436915
v -0.00847811 0.02987186 0.03231459
v -0.00874871 0.02987186 0.03065809
v -0.00880389 0.02987186 0.03022942
v -0.00900506 0.02438245 0.02194995
v -0.00964060 0.02373372 0.03231459
v -0.00838732 0.02987186 0.02898321
v -0.00827694 0.02987186 0.02866783
v -0.00732808 0.02987186 0.02762524
v -0.00628665 0.02987186 0.02678474
v -0.00509567 0.02987186 0.02628718
v -0.00478235 0.02987186 0.02616164
v 0.00567651 0.02440355 0.02194995
v 0.00355626 0.02987186 0.02609581
v 0.00496798 0.02987186 0.02656887
v 0.00532403 0.02987186 0.02669288
v 0.00636724 0.02987186 0.02736038
v 0.00728406 0.02987186 0.02840297
v 0.00781991 0.02987186 0.02985739
v 0.00795521 0.02987186 0.03022942
v 0.00854625 0.02371383 0.02993394
v -0.00788885 0.02371383 0.03551125
v -0.00795116 0.02987186 0.03340464
v -0.00836774 0.02987186 0.03254424
v -0.00686700 0.02468571 0.02194995
v -0.00312495 0.02987186 0.02581870
v -0.00269770 0.02987186 0.02573756
v 0.00551273 0.02444635 0.02194995
v 0.00312722 0.02987186 0.02604222
v 0.00788222 0.02987186 0.03231459
v 0.00853379 0.02371383 0.03022942
v -0.00677087 0.02371383 0.03638850
v -0.00772329 0.02987186 0.03356692
v -0.00478235 0.02487140 0.02194995
v -0.00061305 0.02987186 0.02569929
v -0.00269414 0.02499319 0.02194995
v 0.00349751 0.02475323 0.02194995
v 0.00146983 0.02987186 0.02584473
v 0.00768283 0.02371383 0.03404306
v 0.00826497 0.02371383 0.03231459
v 0.00826853 0.02371383 0.03229316
v 0.00827031 0.02371383 0.03228091
v 0.00721107 0.02987186 0.03389455
v -0.00653944 0.02987186 0.03436609
v -0.00686700 0.02987186 0.03416860
v -0.00504226 0.02371383 0.03712336
v -0.00519002 0.02987186 0.03516219
v -0.00061305 0.02499017 0.02194995
v 0.00104257 0.02987186 0.02581411
v 0.00141820 0.02491481 0.02194995
v 0.00758136 0.02371383 0.03426964
v 0.00587946 0.02987186 0.03475036
v 0.00543262 0.02371383 0.03612364
v -0.00321931 0.02371383 0.03751682
v -0.00414859 0.02987186 0.03556331
v -0.00497639 0.02987186 0.03524487
v 0.00544330 0.02987186 0.03502287
v 0.00355626 0.02371383 0.03688606
v 0.00473299 0.02987186 0.03539184
v 0.00461550 0.02987186 0.03544848
v -0.00269770 0.02371383 0.03757500
v -0.00269770 0.02987186 0.03582204
v -0.00383349 0.02987186 0.03562148
v -0.00061305 0.02371383 0.03758724
v 0.00449622 0.02987186 0.03546992
v -0.00122723 0.02371383 0.03758571
v -0.00061305 0.02987186 0.03594452
v 0.00374674 0.02987186 0.03559086
v 0.00146983 0.02987186 0.03586644
f 1 2 5
f 1 5 11
f 1 11 3
f 1 3 10
f 1 10 30
f 1 30 39
f 1 39 41
f 1 41 53
f 1 53 55
f 1 55 42
f 1 42 33
f 1 33 18
f 1 18 4
f 1 4 26
f 1 26 36
f 1 36 47
f 1 47 46
f 1 46 45
f 1 45 44
f 1 44 56
f 1 56 58
f 1 58 63
f 1 63 69
f 1 69 71
f 1 71 66
f 1 66 59
f 1 59 51
f 1 51 37
f 1 37 27
f 1 27 6
f 1 6 2
f 2 6 7
f 2 7 8
f 2 8 9
f 2 9 5
f 3 11 9
f 3 9 12
f 3 12 13
f 3 13 14
f 3 14 15
f 3 15 16
f 3 16 17
f 3 17 10
f 4 18 19
f 4 19 20
f 4 20 21
f 4 21 22
f 4 22 23
f 4 23 24
f 4 24 25
f 4 25 26
f 5 9 11
f 6 27 28
f 6 28 29
f 6 29 7
f 7 29 28
f 7 28 38
f 7 38 50
f 7 50 49
f 7 49 52
f 7 52 61
f 7 61 60
f 7 60 68
f 7 68 67
f 7 67 72
f 7 72 74
f 7 74 73
f 7 73 70
f 7 70 65
f 7 65 64
f 7 64 62
f 7 62 57
f 7 57 48
f 7 48 35
f 7 35 25
f 7 25 24
f 7 24 23
f 7 23 22
f 7 22 21
f 7 21 20
f 7 20 19
f 7 19 34
f 7 34 43
f 7 43 54
f 7 54 40
f 7 40 32
f 7 32 31
f 7 31 17
f 7 17 16
f 7 16 15
f 7 15 14
f 7 14 13
f 7 13 12
f 7 12 9
f 7 9 8
f 10 17 31
f 10 31 32
f 10 32 30
f 18 33 19
f 19 33 34
f 25 35 26
f 26 35 36
f 27 37 28
f 28 37 38
f 30 32 39
f 32 40 41
f 32 41 39
f 33 42 34
f 34 42 43
f 35 44 45
f 35 45 46
f 35 46 47
f 35 47 36
f 35 48 44
f 37 49 50
f 37 50 38
f 37 51 52
f 37 52 49
f 40 53 41
f 40 54 42
f 40 42 55
f 40 55 53
f 42 54 43
f 44 48 56
f 48 57 58
f 48 58 56
f 51 59 60
f 51 60 61
f 51 61 52
f 57 62 58
f 58 62 64
f 58 64 65
f 58 65 63
f 59 66 67
f 59 67 68
f 59 68 60
f 63 65 70
f 63 70 69
f 66 71 72
f 66 72 67
f 69 70 73
f 69 73 74
f 69 74 72
f 69 72 71

