# https://github.com/mikedh/trimesh
v -0.00102075 0.04754158 0.05653319
v -0.00842423 0.04754158 0.05757486
v -0.01832037 0.04529579 0.05787727
v -0.01832037 0.04460716 0.05751885
v -0.01832037 0.04356931 0.05646038
v -0.01832037 0.04329869 0.05585554
v -0.00102075 0.04673352 0.05464587
v -0.00102075 0.04754309 0.00826362
v -0.01030219 0.04754158 0.05775967
v -0.01832037 0.04563141 0.05798929
v -0.01832037 0.04287010 0.05465147
v -0.01832037 0.04245435 0.05235531
v -0.00102075 0.04622933 0.05172247
v -0.00102075 0.04754309 0.00334650
v -0.00262947 0.04754309 0.00793320
v -0.01832037 0.04754158 0.05795568
v -0.01795460 0.04754158 0.05798369
v -0.01392942 0.04754158 0.05800608
v -0.01370082 0.04754158 0.05800048
v -0.01208533 0.04754158 0.05791088
v -0.01784622 0.04577579 0.05798369
v -0.01832037 0.04708804 0.05798929
v -0.01832037 0.04214216 0.05043999
v -0.01832037 0.04183602 0.04833985
v -0.01832037 0.04178764 0.04795342
v -0.01832037 0.04130613 0.04361874
v -0.00102075 0.04608874 0.05043439
v -0.00102075 0.04731859 0.00315608
v -0.01832037 0.04429422 0.00086553
v -0.01283550 0.04636162 0.00505461
v -0.00103091 0.04754309 0.00335210
v -0.00277341 0.04754309 0.00590586
v -0.01832037 0.04739569 0.05798369
v -0.01832037 0.04754158 0.04833985
v -0.01798339 0.04749547 0.05798929
v -0.01832037 0.04114059 0.04207304
v -0.01832037 0.04027659 0.03356048
v -0.01832037 0.04014128 0.03222199
v -0.00102075 0.04524590 0.04202263
v -0.00102075 0.04685673 0.00340250
v -0.01832037 0.04346046 0.00080393
v -0.01674891 0.04411507 0.00097194
v -0.01674891 0.04419897 0.00097194
v -0.01784622 0.04429195 0.00087113
v -0.01832037 0.04460187 0.00204721
v -0.01784622 0.04470241 0.00204721
v -0.00227555 0.04754309 0.00487540
v -0.00168117 0.04754309 0.00404654
v -0.00149321 0.04754309 0.00384493
v -0.01784622 0.04489214 0.00415295
v -0.01832037 0.04007855 0.03150514
v -0.00102075 0.04404477 0.02955062
v -0.00102075 0.04407274 0.02984744
v -0.01832037 0.04243243 0.00155998
v -0.00102075 0.04605774 0.00406334
v -0.01832037 0.03991980 0.02940501
v -0.00102075 0.04403570 0.02941621
v -0.00102075 0.04565409 0.00625309
v -0.01832037 0.04001505 0.01887632
v -0.01832037 0.03983136 0.02729927
v -0.00102075 0.04392307 0.02732167
v -0.00102075 0.04537894 0.00835883
v -0.00102075 0.04413775 0.01971637
v -0.00102075 0.04401983 0.02097645
v -0.01832037 0.03987143 0.02058443
v -0.01832037 0.03982229 0.02519353
v -0.00102075 0.04390417 0.02518793
v -0.00102075 0.04391324 0.02308219
v -0.01832037 0.03984346 0.02098205
v -0.01832037 0.03982078 0.02279097
f 1 2 3
f 1 3 4
f 1 4 5
f 1 5 6
f 1 6 7
f 1 7 13
f 1 13 27
f 1 27 39
f 1 39 53
f 1 53 52
f 1 52 57
f 1 57 61
f 1 61 67
f 1 67 68
f 1 68 64
f 1 64 63
f 1 63 62
f 1 62 58
f 1 58 55
f 1 55 40
f 1 40 28
f 1 28 14
f 1 14 8
f 1 8 2
f 2 8 9
f 2 9 10
f 2 10 3
f 3 10 22
f 3 22 33
f 3 33 16
f 3 16 34
f 3 34 45
f 3 45 29
f 3 29 41
f 3 41 54
f 3 54 59
f 3 59 65
f 3 65 69
f 3 69 70
f 3 70 66
f 3 66 60
f 3 60 56
f 3 56 51
f 3 51 38
f 3 38 37
f 3 37 36
f 3 36 26
f 3 26 25
f 3 25 24
f 3 24 23
f 3 23 12
f 3 12 11
f 3 11 6
f 3 6 5
f 3 5 4
f 6 11 7
f 7 11 12
f 7 12 13
f 8 14 31
f 8 31 49
f 8 49 48
f 8 48 47
f 8 47 32
f 8 32 15
f 8 15 16
f 8 16 17
f 8 17 18
f 8 18 19
f 8 19 20
f 8 20 9
f 9 20 21
f 9 21 10
f 10 21 19
f 10 19 18
f 10 18 22
f 12 23 13
f 13 23 24
f 13 24 25
f 13 25 26
f 13 26 27
f 14 28 29
f 14 29 30
f 14 30 31
f 15 32 16
f 16 33 17
f 16 32 34
f 17 33 35
f 17 35 18
f 18 35 22
f 19 21 20
f 22 35 33
f 26 36 27
f 27 36 37
f 27 37 38
f 27 38 39
f 28 40 41
f 28 41 42
f 28 42 43
f 28 43 44
f 28 44 29
f 29 45 46
f 29 46 30
f 29 44 41
f 30 32 47
f 30 47 48
f 30 48 49
f 30 49 31
f 30 46 45
f 30 45 50
f 30 50 34
f 30 34 32
f 34 50 45
f 38 51 52
f 38 52 53
f 38 53 39
f 40 54 41
f 40 55 54
f 41 44 43
f 41 43 42
f 51 56 52
f 52 56 57
f 54 55 58
f 54 58 59
f 56 60 61
f 56 61 57
f 58 62 59
f 59 62 63
f 59 63 64
f 59 64 65
f 60 66 67
f 60 67 61
f 64 68 69
f 64 69 65
f 66 70 67
f 67 70 68
f 68 70 69

