# https://github.com/mikedh/trimesh
v 0.02616671 0.03070681 -0.06345834
v 0.00879815 0.00669641 -0.06213775
v 0.01065734 0.00443741 -0.06213992
v 0.01089904 0.00312737 -0.06213126
v 0.01145308 0.00022082 -0.06211465
v 0.02423687 0.00022082 -0.06313704
v 0.02616671 0.00022082 -0.06358614
v 0.02616671 0.03070681 -0.06597895
v -0.01182027 0.03070681 -0.06700495
v -0.00101094 0.02862089 -0.06466774
v 0.00109366 0.02775549 -0.06403597
v 0.00109366 0.02627237 -0.06358975
v -0.00101094 0.02416855 -0.06327134
v 0.00109366 0.02416855 -0.06322585
v 0.00319827 0.02416855 -0.06319697
v -0.00246111 0.01058474 -0.06213775
v -0.00101094 0.01061160 -0.06213703
v 0.00038345 0.01055788 -0.06213992
v 0.00680882 0.00854657 -0.06213559
v 0.00746697 0.00737381 -0.06212548
v 0.00740376 0.00523119 -0.06209515
v 0.00950836 0.00312737 -0.06210165
v 0.00950464 0.00517449 -0.06212909
v 0.00950836 0.00102355 -0.06207422
v 0.00950836 0.00022082 -0.06206483
v 0.01059785 0.00022082 -0.06209154
v 0.01126716 0.00102355 -0.06211754
v 0.02616671 0.00022082 -0.06598906
v 0.02616671 0.03023531 -0.06620494
v 0.02581718 0.02986826 -0.06651469
v 0.02529661 0.03070681 -0.06630602
v -0.01182027 0.03070681 -0.06931039
v -0.01182027 0.02359560 -0.06407424
v -0.00844027 0.02523986 -0.06423958
v -0.00221941 0.02737650 -0.06422369
v -0.00101094 0.02756749 -0.06413128
v -0.00101094 0.02627237 -0.06371539
v -0.00311554 0.02416855 -0.06336087
v -0.00522015 0.02206473 -0.06317603
v -0.00311554 0.02206473 -0.06311899
v -0.00942935 0.01996091 -0.06311105
v -0.01153396 0.01996091 -0.06318397
v -0.00522015 0.00903000 -0.06211248
v -0.00314157 0.00960296 -0.06209804
v -0.00101094 0.00944182 -0.06208577
v 0.00108623 0.00959102 -0.06211104
v -0.00311554 0.00733501 -0.06204028
v 0.00740376 0.00312737 -0.06206699
v 0.00740376 0.00102355 -0.06204028
v 0.00740376 0.00022082 -0.06203306
v 0.02616671 0.01800928 -0.06915588
v -0.01182027 0.00022082 -0.06446846
v 0.02616671 0.02971906 -0.06644104
v 0.02530405 0.02523389 -0.06846128
v 0.02423687 0.02567554 -0.06864106
v 0.02165260 0.02777936 -0.06864973
v 0.01938066 0.02970712 -0.06860208
v 0.02414763 0.03070681 -0.06667859
v 0.02616671 0.02910731 -0.06667282
v -0.01182027 0.03048299 -0.06937465
v -0.01153024 0.03070681 -0.06933927
v -0.01182027 0.02347026 -0.06403380
v -0.01153396 0.02364931 -0.06405474
v -0.00522015 0.02579192 -0.06401358
v -0.00299656 0.02636488 -0.06395293
v -0.00522015 0.02416855 -0.06353560
v -0.00942935 0.02206473 -0.06339481
v -0.00732475 0.02206473 -0.06326701
v -0.01182027 0.01996091 -0.06320130
v -0.01182027 0.01967444 -0.06317242
v -0.00654761 0.00862118 -0.06213414
v -0.00522015 0.00733501 -0.06205544
v -0.00522015 0.00523119 -0.06201862
v -0.00732475 0.00312737 -0.06201428
v -0.00732475 0.00102355 -0.06205111
v -0.00815767 0.00022082 -0.06207710
v 0.02616671 0.02013698 -0.06931761
v -0.01153396 0.03048299 -0.06938981
v -0.01182027 0.00022082 -0.06222656
v 0.02579859 0.02416855 -0.06867428
v 0.02423687 0.02416855 -0.06908150
v 0.02006113 0.02843886 -0.06882230
v 0.01792306 0.03013683 -0.06876814
v 0.01746198 0.03070681 -0.06861796
v 0.01839901 0.03070681 -0.06835298
v 0.02616671 0.02391192 -0.06861146
v -0.00942935 0.03070681 -0.06934865
v -0.01182027 0.02208861 -0.06361936
v -0.01153396 0.02206473 -0.06357965
v -0.01182027 0.02178124 -0.06354282
v -0.01182027 0.00362871 -0.06219407
v -0.01095761 0.00458363 -0.06212909
v -0.00728013 0.00730517 -0.06211176
v -0.00732475 0.00523119 -0.06204389
v -0.00942935 0.00312737 -0.06206266
v -0.00942935 0.00102355 -0.06207205
v -0.00942935 0.00022082 -0.06208938
v 0.01161297 0.03048299 -0.06937609
v 0.01581846 0.02837917 -0.06934071
v 0.02423687 0.02206473 -0.06929811
v 0.02616671 0.02255413 -0.06897392
v 0.01138986 0.03070681 -0.06935660
v -0.01182027 0.00102355 -0.06219841
v -0.01103570 0.00022082 -0.06212404
v 0.02616671 0.02321064 -0.06881363
v 0.01792306 0.02837917 -0.06920786
v 0.01599322 0.03067100 -0.06892266
v 0.01594488 0.03070681 -0.06891977
v 0.01597834 0.03070681 -0.06891399
v -0.01182027 0.00312737 -0.06218108
v -0.01121418 0.00312737 -0.06211970
v -0.01116212 0.00102355 -0.06211970
v -0.01009495 0.00022082 -0.06209804
v 0.01371757 0.03048299 -0.06928223
v 0.01351678 0.03070681 -0.06924324
v 0.01371757 0.03070681 -0.06922086
f 1 2 3
f 1 3 4
f 1 4 5
f 1 5 6
f 1 6 7
f 1 7 28
f 1 28 51
f 1 51 77
f 1 77 101
f 1 101 105
f 1 105 86
f 1 86 59
f 1 59 53
f 1 53 29
f 1 29 8
f 1 8 31
f 1 31 58
f 1 58 85
f 1 85 84
f 1 84 109
f 1 109 108
f 1 108 116
f 1 116 115
f 1 115 102
f 1 102 87
f 1 87 61
f 1 61 32
f 1 32 9
f 1 9 10
f 1 10 11
f 1 11 12
f 1 12 13
f 1 13 14
f 1 14 15
f 1 15 16
f 1 16 17
f 1 17 18
f 1 18 19
f 1 19 2
f 2 20 21
f 2 21 22
f 2 22 23
f 2 23 3
f 2 19 20
f 3 23 22
f 3 22 24
f 3 24 25
f 3 25 4
f 4 25 26
f 4 26 27
f 4 27 5
f 5 27 26
f 5 26 25
f 5 25 50
f 5 50 76
f 5 76 97
f 5 97 113
f 5 113 104
f 5 104 79
f 5 79 52
f 5 52 28
f 5 28 7
f 5 7 6
f 8 29 30
f 8 30 31
f 9 32 60
f 9 60 52
f 9 52 79
f 9 79 103
f 9 103 110
f 9 110 91
f 9 91 70
f 9 70 69
f 9 69 90
f 9 90 88
f 9 88 62
f 9 62 33
f 9 33 34
f 9 34 35
f 9 35 36
f 9 36 10
f 10 36 11
f 11 36 37
f 11 37 12
f 12 37 38
f 12 38 13
f 13 38 39
f 13 39 40
f 13 40 14
f 14 40 16
f 14 16 15
f 16 40 41
f 16 41 42
f 16 42 43
f 16 43 44
f 16 44 45
f 16 45 17
f 17 45 18
f 18 45 46
f 18 46 19
f 19 46 45
f 19 45 47
f 19 47 21
f 19 21 20
f 21 47 48
f 21 48 22
f 22 48 24
f 24 48 49
f 24 49 25
f 25 49 50
f 28 52 51
f 29 53 30
f 30 54 55
f 30 55 56
f 30 56 57
f 30 57 58
f 30 58 31
f 30 53 59
f 30 59 54
f 32 61 60
f 33 62 63
f 33 63 34
f 34 64 36
f 34 36 35
f 34 63 64
f 36 64 65
f 36 65 37
f 37 65 64
f 37 64 66
f 37 66 38
f 38 66 67
f 38 67 68
f 38 68 39
f 39 68 42
f 39 42 41
f 39 41 40
f 42 69 70
f 42 70 43
f 42 68 69
f 43 70 71
f 43 71 72
f 43 72 44
f 44 47 45
f 44 72 47
f 47 50 49
f 47 49 48
f 47 72 73
f 47 73 50
f 50 73 74
f 50 74 75
f 50 75 76
f 51 52 78
f 51 78 77
f 52 60 78
f 54 59 80
f 54 80 55
f 55 81 56
f 55 80 81
f 56 81 82
f 56 82 57
f 57 83 84
f 57 84 85
f 57 85 58
f 57 82 83
f 59 86 80
f 60 61 78
f 61 87 78
f 62 88 63
f 63 88 89
f 63 89 64
f 64 89 66
f 66 89 67
f 67 89 90
f 67 90 69
f 67 69 68
f 70 91 92
f 70 92 71
f 71 93 94
f 71 94 72
f 71 92 93
f 72 94 73
f 73 94 74
f 74 94 95
f 74 95 96
f 74 96 75
f 75 96 97
f 75 97 76
f 77 98 99
f 77 99 100
f 77 100 81
f 77 81 101
f 77 78 98
f 78 87 102
f 78 102 98
f 79 104 103
f 80 86 105
f 80 105 81
f 81 105 101
f 81 100 106
f 81 106 82
f 82 106 83
f 83 106 107
f 83 107 108
f 83 108 109
f 83 109 84
f 88 90 89
f 91 110 92
f 92 110 111
f 92 111 95
f 92 95 94
f 92 94 93
f 95 111 112
f 95 112 96
f 96 112 113
f 96 113 97
f 98 102 114
f 98 114 99
f 99 114 106
f 99 106 100
f 102 115 114
f 103 104 112
f 103 112 110
f 104 113 112
f 106 114 107
f 107 114 108
f 108 114 116
f 110 112 111
f 114 115 116

