# https://github.com/mikedh/trimesh
v 0.05291549 0.00021873 -0.04462145
v 0.05282653 0.00021873 -0.04556979
v 0.05076019 0.00021873 -0.04462145
v 0.05291393 -0.00072130 -0.04462145
v 0.05274538 0.00021873 -0.04631285
v 0.05290769 -0.00108478 -0.04462145
v 0.04268834 0.00021873 -0.06195110
v 0.03697312 -0.02111997 -0.06195110
v 0.04603756 -0.02111997 -0.04462145
v 0.05144845 0.00021873 -0.05267300
v 0.05275162 -0.00108478 -0.04604990
v 0.05145469 -0.00108478 -0.05267300
v 0.05281873 -0.00318836 -0.04462145
v 0.05270636 -0.00318836 -0.04571908
v 0.04618583 0.00021873 -0.06195110
v 0.04097003 -0.02111997 -0.06195110
v 0.04857991 -0.02111997 -0.04462145
v 0.05083510 0.00021873 -0.05450691
v 0.05083978 -0.00108478 -0.05452048
v 0.05137978 -0.00318836 -0.05267300
v 0.05269387 -0.00489086 -0.04462145
v 0.05266734 -0.00441876 -0.04544934
v 0.05166694 -0.00529403 -0.05056935
v 0.04651513 0.00021873 -0.06157109
v 0.04618583 0.00019366 -0.06195110
v 0.04157713 -0.02002118 -0.06195110
v 0.04148817 -0.02111997 -0.06151002
v 0.04902159 -0.02004834 -0.04462145
v 0.04849720 -0.02111997 -0.04569533
v 0.04884211 0.00021873 -0.05855134
v 0.04885615 -0.00108478 -0.05856661
v 0.05079608 -0.00318836 -0.05439663
v 0.04879841 -0.00318836 -0.05847839
v 0.05121591 -0.00529403 -0.05267300
v 0.05072117 -0.00529403 -0.05420153
v 0.05154989 -0.01160477 -0.04462145
v 0.05143908 -0.01160477 -0.04636035
v 0.05155145 -0.00950119 -0.04846400
v 0.05147186 -0.00739761 -0.05056935
v 0.04706761 0.00021873 -0.06091794
v 0.04707229 -0.00108478 -0.06090946
v 0.04616710 -0.00108478 -0.06195110
v 0.04193609 -0.01924827 -0.06195110
v 0.04176753 -0.02002118 -0.06178824
v 0.04221077 -0.02111997 -0.06080597
v 0.04881245 -0.02017577 -0.04636375
v 0.05064470 -0.01506409 -0.04598713
v 0.05069464 -0.01523120 -0.04462145
v 0.04844413 -0.02111997 -0.04600070
v 0.04871413 -0.01965771 -0.04846400
v 0.04839731 0.00021873 -0.05920449
v 0.04807425 -0.00318836 -0.05953021
v 0.04812419 -0.00108478 -0.05961843
v 0.04811951 0.00021873 -0.05960486
v 0.05022800 -0.00529403 -0.05525506
v 0.04939771 -0.00529403 -0.05688030
v 0.04866263 -0.00529403 -0.05827651
v 0.04796501 -0.00529403 -0.05932833
v 0.05097244 -0.00739761 -0.05267300
v 0.05055106 -0.00847760 -0.05373839
v 0.05061816 -0.00739761 -0.05391653
v 0.05013904 -0.00739761 -0.05496835
v 0.05118625 -0.01334487 -0.04462145
v 0.05086787 -0.01391098 -0.04655715
v 0.05117221 -0.01160477 -0.04846400
v 0.05115816 -0.00950119 -0.05056935
v 0.04746715 0.00021873 -0.06042765
v 0.04702235 -0.00318836 -0.06084330
v 0.04609531 -0.00318836 -0.06189512
v 0.04614681 -0.00143155 -0.06195110
v 0.04217331 -0.01869261 -0.06195110
v 0.04323614 -0.01806801 -0.06115545
v 0.04413353 -0.01876781 -0.05993567
v 0.04279290 -0.02002118 -0.06073642
v 0.04253071 -0.02111997 -0.06047685
v 0.04932124 -0.01791760 -0.04846400
v 0.05052608 -0.01474865 -0.04739013
v 0.05109105 -0.01374178 -0.04462145
v 0.04827402 -0.02111997 -0.04696600
v 0.04800090 -0.02111997 -0.04846400
v 0.04755142 -0.02111997 -0.05059310
v 0.04855962 -0.01928169 -0.04995352
v 0.04677420 -0.00739761 -0.06059731
v 0.04691310 -0.00529403 -0.06073642
v 0.04901691 -0.00759606 -0.05708896
v 0.04853777 -0.00702577 -0.05808480
v 0.04794472 -0.00759606 -0.05886688
v 0.04892014 -0.00950119 -0.05672761
v 0.05069308 -0.00930692 -0.05258647
v 0.05060568 -0.01085275 -0.05182814
v 0.04883899 -0.01368537 -0.05482245
v 0.04853621 -0.01296886 -0.05600830
v 0.04870165 -0.01160477 -0.05634081
v 0.05073209 -0.01337412 -0.04846400
v 0.05061661 -0.01292499 -0.04984664
v 0.05076175 -0.01157553 -0.05055747
v 0.04599386 -0.00529403 -0.06178824
v 0.04603756 -0.00318836 -0.06195110
v 0.04262591 -0.01759172 -0.06195110
v 0.04370590 -0.01581402 -0.06163047
v 0.04442226 -0.01736403 -0.06025970
v 0.04498410 -0.01800743 -0.05913493
v 0.04464231 -0.02002118 -0.05849875
v 0.04384480 -0.02002118 -0.05955057
v 0.04351238 -0.02111997 -0.05927235
v 0.04884835 -0.01800743 -0.05062024
v 0.04700674 -0.02111997 -0.05259835
v 0.04862049 -0.01736612 -0.05219459
v 0.04659160 -0.00950119 -0.06036489
v 0.04585964 -0.00739761 -0.06164913
v 0.04843165 -0.00842956 -0.05792703
v 0.04831460 -0.00950119 -0.05777944
v 0.04810703 -0.01160477 -0.05739264
v 0.04889517 -0.01594563 -0.05280702
v 0.04955534 -0.01370835 -0.05267300
v 0.04861737 -0.01533147 -0.05415234
v 0.04668837 -0.01791760 -0.05646635
v 0.04652918 -0.01536072 -0.05823409
v 0.04679137 -0.01370835 -0.05860902
v 0.04582531 -0.00529403 -0.06195110
v 0.04554751 -0.00739761 -0.06195110
v 0.04335007 -0.01581402 -0.06195110
v 0.04470006 -0.01581402 -0.06057695
v 0.04403677 -0.01378147 -0.06195110
v 0.04405394 -0.01372715 -0.06195110
v 0.04605317 -0.01370835 -0.05966084
v 0.04582531 -0.01596234 -0.05895510
v 0.04626542 -0.01676450 -0.05787444
v 0.04608282 -0.01791760 -0.05751818
v 0.04568953 -0.01996269 -0.05679547
v 0.04438636 -0.02111997 -0.05814418
v 0.04427399 -0.02111997 -0.05829177
v 0.04651201 -0.02111997 -0.05412859
v 0.04673363 -0.01996269 -0.05473932
v 0.04564583 -0.00950119 -0.06141671
v 0.04751865 -0.00950119 -0.05898564
v 0.04643398 -0.01095093 -0.06015791
v 0.04511364 -0.00950119 -0.06195110
v 0.04697085 -0.01163193 -0.05913493
v 0.04744062 -0.01791760 -0.05477665
v 0.04644490 -0.01922111 -0.05603544
v 0.04622797 -0.01235262 -0.05993567
v 0.04500127 -0.01370835 -0.06090946
v 0.04514329 -0.02111997 -0.05683449
v 0.04636062 -0.02111997 -0.05444413
v 0.04611716 -0.02062489 -0.05541452
v 0.04599386 -0.02111997 -0.05518380
f 1 2 5
f 1 5 10
f 1 10 18
f 1 18 30
f 1 30 51
f 1 51 54
f 1 54 67
f 1 67 40
f 1 40 24
f 1 24 15
f 1 15 7
f 1 7 3
f 1 3 9
f 1 9 17
f 1 17 28
f 1 28 48
f 1 48 78
f 1 78 63
f 1 63 36
f 1 36 21
f 1 21 13
f 1 13 6
f 1 6 4
f 1 4 2
f 2 4 6
f 2 6 5
f 3 7 8
f 3 8 9
f 5 6 11
f 5 11 12
f 5 12 10
f 6 13 14
f 6 14 11
f 7 15 25
f 7 25 42
f 7 42 70
f 7 70 98
f 7 98 120
f 7 120 121
f 7 121 138
f 7 138 125
f 7 125 124
f 7 124 122
f 7 122 99
f 7 99 71
f 7 71 43
f 7 43 26
f 7 26 16
f 7 16 8
f 8 16 27
f 8 27 45
f 8 45 75
f 8 75 105
f 8 105 132
f 8 132 131
f 8 131 144
f 8 144 147
f 8 147 145
f 8 145 133
f 8 133 107
f 8 107 81
f 8 81 80
f 8 80 79
f 8 79 49
f 8 49 29
f 8 29 17
f 8 17 9
f 10 12 19
f 10 19 18
f 11 14 20
f 11 20 12
f 12 20 19
f 13 21 22
f 13 22 14
f 14 22 23
f 14 23 20
f 15 24 25
f 16 26 27
f 17 29 28
f 18 19 31
f 18 31 30
f 19 20 32
f 19 32 33
f 19 33 31
f 20 23 34
f 20 34 35
f 20 35 32
f 21 36 37
f 21 37 38
f 21 38 22
f 22 38 39
f 22 39 23
f 23 39 34
f 24 40 41
f 24 41 25
f 25 41 42
f 26 43 44
f 26 44 27
f 27 44 45
f 28 29 46
f 28 46 47
f 28 47 48
f 29 49 50
f 29 50 46
f 30 31 51
f 31 33 52
f 31 52 53
f 31 53 54
f 31 54 51
f 32 35 55
f 32 55 33
f 33 55 56
f 33 56 57
f 33 57 58
f 33 58 52
f 34 39 59
f 34 59 60
f 34 60 61
f 34 61 35
f 35 61 62
f 35 62 55
f 36 63 37
f 37 63 64
f 37 64 65
f 37 65 38
f 38 66 39
f 38 65 66
f 39 66 59
f 40 67 41
f 41 53 68
f 41 68 42
f 41 67 53
f 42 68 69
f 42 69 70
f 43 71 72
f 43 72 44
f 44 72 73
f 44 73 74
f 44 74 45
f 45 74 75
f 46 50 76
f 46 76 47
f 47 76 77
f 47 77 64
f 47 64 78
f 47 78 48
f 49 79 50
f 50 79 80
f 50 80 81
f 50 81 82
f 50 82 76
f 52 58 83
f 52 83 84
f 52 84 68
f 52 68 53
f 53 67 54
f 55 62 56
f 56 62 85
f 56 85 57
f 57 85 86
f 57 86 87
f 57 87 58
f 58 87 83
f 59 66 60
f 60 88 62
f 60 62 61
f 60 66 89
f 60 89 90
f 60 90 91
f 60 91 92
f 60 92 93
f 60 93 88
f 62 88 85
f 63 78 64
f 64 77 94
f 64 94 65
f 65 94 95
f 65 95 96
f 65 96 66
f 66 96 90
f 66 90 89
f 68 84 97
f 68 97 69
f 69 97 98
f 69 98 70
f 71 99 100
f 71 100 72
f 72 100 101
f 72 101 73
f 73 101 102
f 73 102 103
f 73 103 104
f 73 104 75
f 73 75 74
f 75 104 105
f 76 95 77
f 76 82 106
f 76 106 95
f 77 95 94
f 81 107 82
f 82 107 108
f 82 108 106
f 83 87 109
f 83 109 110
f 83 110 84
f 84 110 97
f 85 88 111
f 85 111 86
f 86 111 87
f 87 111 109
f 88 112 111
f 88 93 113
f 88 113 112
f 90 96 95
f 90 95 114
f 90 114 115
f 90 115 91
f 91 115 116
f 91 116 92
f 92 116 117
f 92 117 118
f 92 118 119
f 92 119 113
f 92 113 93
f 95 106 114
f 97 120 98
f 97 110 121
f 97 121 120
f 99 122 100
f 100 123 101
f 100 122 124
f 100 124 125
f 100 125 123
f 101 123 126
f 101 126 127
f 101 127 102
f 102 127 118
f 102 118 128
f 102 128 129
f 102 129 103
f 103 130 131
f 103 131 104
f 103 129 130
f 104 131 132
f 104 132 105
f 106 108 114
f 107 133 108
f 108 116 114
f 108 133 134
f 108 134 116
f 109 135 110
f 109 111 136
f 109 136 137
f 109 137 135
f 110 135 138
f 110 138 121
f 111 112 136
f 112 113 139
f 112 139 136
f 113 119 139
f 114 116 115
f 116 140 141
f 116 141 117
f 116 134 140
f 117 129 128
f 117 128 118
f 117 141 129
f 118 127 126
f 118 126 119
f 119 126 142
f 119 142 139
f 123 125 143
f 123 143 137
f 123 137 142
f 123 142 126
f 125 138 135
f 125 135 137
f 125 137 143
f 129 141 130
f 130 141 144
f 130 144 131
f 133 145 146
f 133 146 141
f 133 141 134
f 134 141 140
f 136 139 137
f 137 139 142
f 141 146 144
f 144 146 147
f 145 147 146

