# https://github.com/mikedh/trimesh
v 0.04589342 -0.02143155 -0.04461976
v 0.05075876 0.00021749 -0.04461976
v 0.04843259 -0.02143155 -0.04461976
v 0.04175917 -0.02143155 -0.01478310
v 0.05291577 0.00021749 -0.04461976
v 0.04705953 0.00021749 -0.01478310
v 0.04852322 -0.02126200 -0.04461976
v 0.04847488 -0.02143155 -0.04424566
v 0.03850705 -0.02143155 0.01720713
v 0.05291275 -0.00072138 -0.04461976
v 0.05295051 0.00021749 -0.04424566
v 0.03834845 -0.02143155 0.01887540
v 0.04372736 0.00021749 0.02097842
v 0.04902017 -0.02004762 -0.04461976
v 0.04906397 -0.02002219 -0.04424566
v 0.04853681 -0.02129803 -0.04424566
v 0.04859874 -0.02143155 -0.04215275
v 0.05291123 -0.00085277 -0.04461976
v 0.05294598 -0.00108590 -0.04424566
v 0.05299582 0.00021749 -0.04344692
v 0.05306531 -0.00108590 -0.04214263
v 0.03833485 -0.02143155 0.01905739
v 0.03804483 -0.02143155 0.02308145
v 0.03796478 -0.02143155 0.02518447
v 0.04365334 0.00021749 0.02307134
v 0.05069381 -0.01523037 -0.04461976
v 0.05070740 -0.01527487 -0.04424566
v 0.04917726 -0.02002219 -0.04214263
v 0.04924222 -0.02002219 -0.04003961
v 0.04865765 -0.02143155 -0.04014072
v 0.05290670 -0.00108590 -0.04461976
v 0.05297770 -0.00319041 -0.04214263
v 0.05285534 -0.00319041 -0.04424566
v 0.05281758 -0.00319041 -0.04461976
v 0.05306380 0.00021749 -0.04214263
v 0.05311062 0.00021749 -0.04003961
v 0.05311062 -0.00108590 -0.04003961
v 0.05302754 -0.00319041 -0.04003961
v 0.03797535 -0.02143155 0.02560912
v 0.04373038 0.00021749 0.02939052
v 0.04371981 0.00021749 0.02859178
v 0.05108957 -0.01374047 -0.04461976
v 0.05113035 -0.01370868 -0.04424566
v 0.05121645 -0.01370868 -0.04214263
v 0.05127385 -0.01370868 -0.04003961
v 0.05073308 -0.01537872 -0.04214263
v 0.04865916 -0.02143155 -0.04003961
v 0.05078293 -0.01554615 -0.03793659
v 0.05080710 -0.01562880 -0.03583356
v 0.05082976 -0.01569238 -0.03373054
v 0.05054276 -0.01686438 -0.02632951
v 0.04926487 -0.02002219 -0.03793659
v 0.04868786 -0.02143155 -0.03808825
v 0.05287196 -0.00529279 -0.04003961
v 0.05281456 -0.00529279 -0.04214263
v 0.05269372 -0.00489223 -0.04461976
v 0.05270883 -0.00519106 -0.04409400
v 0.05312422 0.00021749 -0.03924087
v 0.05314687 -0.00108590 -0.03792648
v 0.05310156 -0.00319041 -0.03582345
v 0.05306531 -0.00319041 -0.03792648
v 0.03802671 -0.02143155 0.02728750
v 0.04376965 0.00021749 0.03069480
v 0.05118473 -0.01334416 -0.04461976
v 0.05145511 -0.01213401 -0.04435688
v 0.05146115 -0.01213401 -0.04424566
v 0.05148230 -0.01213401 -0.04371991
v 0.05268164 -0.00655380 -0.04214263
v 0.05271336 -0.00673606 -0.04003961
v 0.05132067 -0.01370868 -0.03793659
v 0.05136296 -0.01370868 -0.03583356
v 0.05139922 -0.01370868 -0.03373054
v 0.05084637 -0.01573689 -0.03162751
v 0.05085544 -0.01577292 -0.02951438
v 0.05081163 -0.01602300 -0.02550043
v 0.05055635 -0.01689829 -0.02320531
v 0.05056240 -0.01691736 -0.02110228
v 0.04884193 -0.02143155 -0.01936324
v 0.04882532 -0.02143155 -0.02145616
v 0.05290368 -0.00529279 -0.03792648
v 0.05265596 -0.00639485 -0.04328515
v 0.05154876 -0.01160418 -0.04461976
v 0.05315594 0.00021749 -0.03712773
v 0.05317708 -0.00108590 -0.03582345
v 0.05313177 -0.00319041 -0.03372043
v 0.03810375 -0.02143155 0.02940063
v 0.04379986 0.00021749 0.03149355
v 0.05143849 -0.01213401 -0.04461976
v 0.05157142 -0.01160418 -0.04424566
v 0.05293087 -0.00529279 -0.03582345
v 0.05295504 -0.00529279 -0.03372043
v 0.05272695 -0.00682719 -0.03792648
v 0.05142792 -0.01370868 -0.03162751
v 0.05144756 -0.01370868 -0.02951438
v 0.05086450 -0.01580047 -0.02741136
v 0.05089471 -0.01581319 -0.02320531
v 0.05094002 -0.01581319 -0.01689623
v 0.05057448 -0.01694915 -0.01689623
v 0.04885553 -0.02143155 -0.01689623
v 0.05317255 0.00021749 -0.03582345
v 0.05320125 -0.00108590 -0.03372043
v 0.05334475 -0.00108590 -0.01898915
v 0.05324959 -0.00319041 -0.01898915
v 0.05307437 -0.00529279 -0.01898915
v 0.05297317 -0.00529279 -0.03161740
v 0.03821552 -0.02143155 0.03150365
v 0.03836506 -0.02143155 0.03360668
v 0.04390409 0.00021749 0.03279782
v 0.05273602 -0.00690561 -0.03582345
v 0.05264841 -0.00844848 -0.01788708
v 0.05201852 -0.01160418 -0.01478310
v 0.05146266 -0.01370868 -0.02741136
v 0.05153667 -0.01370868 -0.01478310
v 0.05094758 -0.01581319 -0.01478310
v 0.05059563 -0.01700849 -0.00847403
v 0.05059110 -0.01699366 -0.01057705
v 0.05059714 -0.01701273 -0.00637100
v 0.04885855 -0.02143155 -0.01478310
v 0.05318162 0.00021749 -0.03502471
v 0.05328886 0.00021749 -0.02530833
v 0.05331152 0.00021749 -0.02319520
v 0.05334022 0.00021749 -0.02029343
v 0.05335079 0.00021749 -0.01898915
v 0.05335834 -0.00108590 -0.01688612
v 0.05326620 -0.00319041 -0.01688612
v 0.05278737 -0.00731040 -0.02319520
v 0.05277680 -0.00727013 -0.02530833
v 0.05276623 -0.00722351 -0.02741136
v 0.05308947 -0.00529279 -0.01688612
v 0.03853877 -0.02143155 0.03569959
v 0.04397055 0.00021749 0.03360668
v 0.05280852 -0.00737822 -0.01898915
v 0.05278435 -0.00760711 -0.01706812
v 0.05265294 -0.00846756 -0.01649181
v 0.05244600 -0.00953147 -0.01478310
v 0.05203363 -0.01160418 -0.01268008
v 0.05191128 -0.01213401 -0.01268008
v 0.05154121 -0.01370868 -0.01268008
v 0.05095966 -0.01581319 -0.00847403
v 0.05096117 -0.01581319 -0.00637100
v 0.05095664 -0.01581319 -0.00426798
v 0.05090528 -0.01581319 0.01045319
v 0.05055938 -0.01690676 0.01045319
v 0.04930717 -0.02002219 0.02097842
v 0.04882683 -0.02143155 0.00625725
v 0.04885402 -0.02143155 -0.00005182
v 0.04885855 -0.02143155 -0.00253905
v 0.04886006 -0.02143155 -0.00426798
v 0.04886157 -0.02143155 -0.00674510
v 0.04886157 -0.02143155 -0.00884812
v 0.04886006 -0.02143155 -0.01268008
v 0.05336288 0.00021749 -0.01688612
v 0.05337345 0.00021749 -0.01478310
v 0.05336590 -0.00108590 -0.01478310
v 0.05327980 -0.00319041 -0.01478310
v 0.05309703 -0.00529279 -0.01478310
v 0.05282212 -0.00739729 -0.01478310
v 0.03873363 -0.02143155 0.03782284
v 0.04544480 0.00021749 0.04963213
v 0.05265445 -0.00848027 -0.01478310
v 0.05245506 -0.00953147 -0.01268008
v 0.05245808 -0.00952511 -0.01057705
v 0.05203514 -0.01160418 -0.01057705
v 0.05190977 -0.01213401 -0.01057705
v 0.05149287 -0.01370868 0.01045319
v 0.05148079 -0.01370868 0.01466935
v 0.05146115 -0.01370868 0.01887540
v 0.05142943 -0.01370868 0.02518447
v 0.05089320 -0.01581319 0.01255622
v 0.05055333 -0.01688981 0.01255622
v 0.04928451 -0.02002219 0.02518447
v 0.04929659 -0.02002219 0.02308145
v 0.04880568 -0.02143155 0.01045319
v 0.05338553 0.00021749 -0.01057705
v 0.05337043 -0.00108590 -0.01268008
v 0.05328584 -0.00319041 -0.01268008
v 0.05310156 -0.00529279 -0.01268008
v 0.05310458 -0.00529279 -0.01057705
v 0.05310458 -0.00529279 -0.00846392
v 0.05282060 -0.00739729 0.00626736
v 0.05265747 -0.00849935 0.01044308
v 0.03958253 -0.02143155 0.04623494
v 0.04571972 0.00021749 0.05253390
v 0.05265445 -0.00848027 0.01255622
v 0.05141583 -0.01370868 0.02728750
v 0.05084939 -0.01574961 0.02308145
v 0.05054880 -0.01687286 0.01398182
v 0.04926941 -0.02002219 0.02728750
v 0.04874073 -0.02143155 0.02097842
v 0.04876792 -0.02143155 0.01677238
v 0.04879360 -0.02143155 0.01255622
v 0.05339309 0.00021749 -0.00636089
v 0.05337194 -0.00108590 -0.01057705
v 0.05328735 -0.00319041 -0.01057705
v 0.05328584 -0.00319041 -0.00846392
v 0.05309099 -0.00529279 0.00626736
v 0.05281909 -0.00739729 0.00835017
v 0.03977285 -0.02143155 0.04802453
v 0.04593572 0.00021749 0.05464703
v 0.05264992 -0.00845696 0.01383016
v 0.05140073 -0.01370868 0.02940063
v 0.05281305 -0.00739729 0.01044308
v 0.05276623 -0.00707091 0.02728750
v 0.05276018 -0.00702641 0.02939052
v 0.05084335 -0.01571782 0.02518447
v 0.05083429 -0.01568603 0.02728750
v 0.05082371 -0.01565423 0.02940063
v 0.05080408 -0.01558642 0.03360668
v 0.04925128 -0.02002219 0.02940063
v 0.04872411 -0.02143155 0.02308145
v 0.05339460 0.00021749 -0.00345912
v 0.05337496 -0.00108590 -0.00426798
v 0.05337647 -0.00108590 -0.00005182
v 0.05328282 -0.00319041 -0.00636089
v 0.05326620 -0.00319041 0.00416434
v 0.05326167 -0.00319041 0.00626736
v 0.05325412 -0.00319041 0.00835017
v 0.05321183 -0.00319041 0.01887540
v 0.05298827 -0.00529279 0.02728750
v 0.04072598 -0.02143155 0.05475825
v 0.04619402 0.00021749 0.05600186
v 0.05274055 -0.00691620 0.03360668
v 0.05273148 -0.00685686 0.03570970
v 0.05272091 -0.00679540 0.03780262
v 0.05136146 -0.01370868 0.03360668
v 0.05138411 -0.01370868 0.03150365
v 0.05296712 -0.00529279 0.03149355
v 0.05295051 -0.00529279 0.03360668
v 0.04922711 -0.02002219 0.03150365
v 0.05079048 -0.01554403 0.03569959
v 0.04866218 -0.02143155 0.02929952
v 0.04868484 -0.02143155 0.02728750
v 0.05338855 0.00021749 0.00074693
v 0.05337345 -0.00108590 0.00205120
v 0.05335079 -0.00108590 0.01044308
v 0.05333116 -0.00108590 0.01676226
v 0.05332209 -0.00108590 0.01887540
v 0.05329490 -0.00108590 0.02518447
v 0.05314838 -0.00319041 0.03149355
v 0.04093292 -0.02143155 0.05551655
v 0.04134076 -0.02143155 0.05671972
v 0.04168364 -0.02143155 0.05740725
v 0.04200236 -0.02143155 0.05792290
v 0.04688432 0.00021749 0.05705338
v 0.05270883 -0.00671699 0.03991575
v 0.05153365 -0.01160418 0.05253390
v 0.05132974 -0.01370868 0.03569959
v 0.05077538 -0.01549317 0.03781273
v 0.05313328 -0.00319041 0.03360668
v 0.05292785 -0.00529279 0.03570970
v 0.04919690 -0.02002219 0.03360668
v 0.04844467 -0.02108398 0.05571876
v 0.04859421 -0.02139976 0.03569959
v 0.04860931 -0.02143155 0.03367745
v 0.04863650 -0.02143155 0.03150365
v 0.04889178 -0.02002219 0.05464703
v 0.05334626 0.00021749 0.01465924
v 0.05333267 0.00021749 0.01887540
v 0.05330850 0.00021749 0.02518447
v 0.05329943 0.00021749 0.02728750
v 0.05328433 -0.00108590 0.02728750
v 0.05327074 -0.00108590 0.02939052
v 0.04231956 -0.02143155 0.05808467
v 0.04793412 0.00021749 0.05813522
v 0.04753535 0.00021749 0.05774090
v 0.05269372 -0.00662373 0.04201877
v 0.05108805 -0.01370868 0.05044098
v 0.05267711 -0.00652201 0.04412180
v 0.05149438 -0.01160418 0.05464703
v 0.05065303 -0.01512652 0.05254401
v 0.05325412 -0.00108590 0.03149355
v 0.05323599 -0.00108590 0.03360668
v 0.05310911 -0.00319041 0.03570970
v 0.05289764 -0.00529279 0.03780262
v 0.05057448 -0.01485948 0.05585020
v 0.04862895 -0.01984417 0.05655795
v 0.04846128 -0.01902610 0.05783190
v 0.04814106 -0.02143155 0.05606253
v 0.04829513 -0.02143155 0.05537500
v 0.05061677 -0.01500572 0.05464703
v 0.05328735 0.00021749 0.02939052
v 0.05327225 0.00021749 0.03149355
v 0.05326620 0.00021749 0.03230240
v 0.04316394 -0.02143155 0.05838799
v 0.04949296 0.00021749 0.05850931
v 0.05104727 -0.01370868 0.05254401
v 0.05266200 -0.00642452 0.04585073
v 0.05185388 -0.00950180 0.05464703
v 0.05156084 -0.00950180 0.05675006
v 0.05115149 -0.01160418 0.05675006
v 0.05136448 -0.01213189 0.05464703
v 0.05264539 -0.00633762 0.04724601
v 0.05325412 0.00021749 0.03360668
v 0.05321183 -0.00108590 0.03570970
v 0.05315443 -0.00108590 0.03991575
v 0.05312422 -0.00108590 0.04201877
v 0.05307890 -0.00319041 0.03780262
v 0.05301697 -0.00319041 0.04201877
v 0.05280248 -0.00529279 0.04412180
v 0.05103217 -0.01213401 0.05671972
v 0.05070740 -0.01355185 0.05662873
v 0.05034035 -0.01414739 0.05724548
v 0.05097476 -0.01370868 0.05464703
v 0.04864708 -0.01791769 0.05797345
v 0.04692208 -0.02143155 0.05808467
v 0.04728762 -0.02143155 0.05768024
v 0.04784198 -0.02143155 0.05673994
v 0.04792505 -0.02143155 0.05655795
v 0.05056240 -0.01274438 0.05782179
v 0.04387690 -0.02143155 0.05854976
v 0.04528469 -0.01791769 0.05863064
v 0.04528469 -0.02002219 0.05867109
v 0.04738731 -0.01370868 0.05865087
v 0.04949296 -0.00739729 0.05859021
v 0.05124666 -0.00108590 0.05819589
v 0.05123155 0.00021749 0.05817566
v 0.05274659 -0.00550048 0.04641693
v 0.05274659 -0.00519318 0.04833796
v 0.05272997 -0.00500668 0.05043087
v 0.05252455 -0.00524404 0.05472792
v 0.05263481 -0.00409960 0.05547611
v 0.05253512 -0.00582898 0.05253390
v 0.05270429 -0.00477779 0.05253390
v 0.05267711 -0.00451075 0.05408083
v 0.05269825 -0.00269660 0.05589065
v 0.05183122 -0.00739729 0.05675006
v 0.05088867 -0.00950180 0.05808467
v 0.05068928 -0.01160418 0.05792290
v 0.05063037 -0.01213401 0.05788245
v 0.05087809 -0.01213401 0.05725559
v 0.05322995 0.00021749 0.03570970
v 0.05319219 0.00021749 0.03861147
v 0.05316047 0.00021749 0.04071450
v 0.05306984 0.00021749 0.04623494
v 0.05308947 -0.00108590 0.04412180
v 0.05298374 -0.00319041 0.04412180
v 0.04900355 -0.01581319 0.05815544
v 0.04740544 -0.01984417 0.05815544
v 0.04593119 -0.02143155 0.05841832
v 0.04528469 -0.02143155 0.05858009
v 0.04738731 -0.01581319 0.05863064
v 0.04949296 -0.00950180 0.05856998
v 0.05120436 -0.00319041 0.05820599
v 0.05229797 -0.00108590 0.05709382
v 0.05228286 0.00021749 0.05708371
v 0.05294447 -0.00319041 0.04623494
v 0.05272846 -0.00331333 0.05472792
v 0.05290217 -0.00319041 0.04833796
v 0.05285534 -0.00319041 0.05043087
v 0.05280097 -0.00319041 0.05253390
v 0.05273904 -0.00108590 0.05603219
v 0.05232667 -0.00331333 0.05665906
v 0.05284175 -0.00108590 0.05464703
v 0.05206233 -0.00529279 0.05675006
v 0.05101555 -0.00739729 0.05816555
v 0.04949296 -0.01160418 0.05840821
v 0.04951713 -0.01213189 0.05834755
v 0.05038718 -0.01213189 0.05799367
v 0.05302905 0.00021749 0.04833796
v 0.05304718 -0.00108590 0.04623494
v 0.04738731 -0.01791769 0.05842843
v 0.05110618 -0.00529279 0.05819589
v 0.05273904 0.00021749 0.05603219
v 0.05257137 0.00021749 0.05642651
v 0.05299733 -0.00108590 0.04833796
v 0.05286592 0.00021749 0.05464703
v 0.05282665 0.00021749 0.05517279
v 0.05291275 0.00021749 0.05334275
v 0.05298072 0.00021749 0.05043087
f 1 2 5
f 1 5 10
f 1 10 18
f 1 18 31
f 1 31 34
f 1 34 56
f 1 56 82
f 1 82 88
f 1 88 64
f 1 64 42
f 1 42 26
f 1 26 14
f 1 14 7
f 1 7 3
f 1 3 8
f 1 8 17
f 1 17 30
f 1 30 47
f 1 47 53
f 1 53 79
f 1 79 78
f 1 78 99
f 1 99 118
f 1 118 151
f 1 151 150
f 1 150 149
f 1 149 148
f 1 148 147
f 1 147 146
f 1 146 145
f 1 145 173
f 1 173 191
f 1 191 190
f 1 190 189
f 1 189 210
f 1 210 232
f 1 232 231
f 1 231 255
f 1 255 254
f 1 254 279
f 1 279 278
f 1 278 308
f 1 308 307
f 1 307 306
f 1 306 305
f 1 305 339
f 1 339 340
f 1 340 310
f 1 310 284
f 1 284 263
f 1 263 243
f 1 243 242
f 1 242 241
f 1 241 240
f 1 240 220
f 1 220 198
f 1 198 182
f 1 182 158
f 1 158 130
f 1 130 107
f 1 107 106
f 1 106 86
f 1 86 62
f 1 62 39
f 1 39 24
f 1 24 23
f 1 23 22
f 1 22 12
f 1 12 9
f 1 9 4
f 1 4 2
f 2 4 6
f 2 6 13
f 2 13 25
f 2 25 41
f 2 41 40
f 2 40 63
f 2 63 87
f 2 87 108
f 2 108 131
f 2 131 159
f 2 159 183
f 2 183 199
f 2 199 221
f 2 221 244
f 2 244 265
f 2 265 264
f 2 264 285
f 2 285 316
f 2 316 345
f 2 345 364
f 2 364 363
f 2 363 367
f 2 367 366
f 2 366 368
f 2 368 369
f 2 369 359
f 2 359 334
f 2 334 333
f 2 333 332
f 2 332 331
f 2 331 293
f 2 293 283
f 2 283 282
f 2 282 281
f 2 281 260
f 2 260 259
f 2 259 258
f 2 258 257
f 2 257 233
f 2 233 211
f 2 211 192
f 2 192 174
f 2 174 153
f 2 153 152
f 2 152 123
f 2 123 122
f 2 122 121
f 2 121 120
f 2 120 119
f 2 119 100
f 2 100 83
f 2 83 58
f 2 58 36
f 2 36 35
f 2 35 20
f 2 20 11
f 2 11 5
f 3 7 8
f 4 9 6
f 5 11 10
f 6 9 12
f 6 12 13
f 7 14 15
f 7 15 16
f 7 16 8
f 8 16 17
f 10 11 19
f 10 19 18
f 11 20 21
f 11 21 19
f 12 22 13
f 13 22 23
f 13 23 24
f 13 24 25
f 14 26 15
f 15 27 28
f 15 28 17
f 15 17 16
f 15 26 27
f 17 28 29
f 17 29 30
f 18 19 31
f 19 21 32
f 19 32 33
f 19 33 34
f 19 34 31
f 20 35 21
f 21 35 36
f 21 36 37
f 21 37 38
f 21 38 32
f 24 39 40
f 24 40 41
f 24 41 25
f 26 42 43
f 26 43 27
f 27 43 44
f 27 44 45
f 27 45 46
f 27 46 29
f 27 29 28
f 29 47 30
f 29 46 48
f 29 48 49
f 29 49 50
f 29 50 51
f 29 51 52
f 29 52 53
f 29 53 47
f 32 38 54
f 32 54 55
f 32 55 33
f 33 56 34
f 33 55 57
f 33 57 56
f 36 58 59
f 36 59 37
f 37 59 60
f 37 60 61
f 37 61 38
f 38 61 54
f 39 62 63
f 39 63 40
f 42 64 43
f 43 64 65
f 43 65 66
f 43 66 44
f 44 67 68
f 44 68 69
f 44 69 45
f 44 66 67
f 45 69 70
f 45 70 49
f 45 49 48
f 45 48 46
f 49 70 71
f 49 71 50
f 50 71 72
f 50 72 73
f 50 73 51
f 51 74 75
f 51 75 76
f 51 76 52
f 51 73 74
f 52 76 77
f 52 77 78
f 52 78 79
f 52 79 53
f 54 69 68
f 54 68 55
f 54 61 60
f 54 60 80
f 54 80 69
f 55 68 81
f 55 81 57
f 56 57 81
f 56 81 82
f 58 83 59
f 59 83 84
f 59 84 85
f 59 85 60
f 60 85 80
f 62 86 63
f 63 86 87
f 64 88 65
f 65 89 66
f 65 88 82
f 65 82 89
f 66 89 67
f 67 89 68
f 68 89 81
f 69 80 90
f 69 90 91
f 69 91 92
f 69 92 72
f 69 72 71
f 69 71 70
f 72 93 73
f 72 92 93
f 73 93 94
f 73 94 74
f 74 94 95
f 74 95 75
f 75 96 76
f 75 95 96
f 76 96 97
f 76 97 77
f 77 97 98
f 77 98 78
f 78 98 99
f 80 85 90
f 81 89 82
f 83 100 84
f 84 100 101
f 84 101 85
f 85 101 102
f 85 102 103
f 85 103 104
f 85 104 105
f 85 105 91
f 85 91 90
f 86 106 87
f 87 106 107
f 87 107 108
f 91 105 109
f 91 109 92
f 92 109 110
f 92 110 93
f 93 110 94
f 94 110 111
f 94 111 136
f 94 136 112
f 94 112 97
f 94 97 96
f 94 96 95
f 97 113 114
f 97 114 115
f 97 115 116
f 97 116 98
f 97 112 113
f 98 116 99
f 99 116 115
f 99 115 117
f 99 117 118
f 100 119 101
f 101 119 120
f 101 120 121
f 101 121 122
f 101 122 102
f 102 122 123
f 102 123 124
f 102 124 155
f 102 155 125
f 102 125 103
f 103 125 104
f 104 126 127
f 104 127 128
f 104 128 105
f 104 125 129
f 104 129 126
f 105 128 109
f 107 130 131
f 107 131 108
f 109 128 110
f 110 128 127
f 110 127 126
f 110 126 132
f 110 132 133
f 110 133 134
f 110 134 135
f 110 135 136
f 110 136 111
f 112 136 113
f 113 136 137
f 113 137 138
f 113 138 114
f 114 138 139
f 114 139 115
f 115 139 117
f 117 140 141
f 117 141 142
f 117 142 143
f 117 143 144
f 117 144 145
f 117 145 146
f 117 146 147
f 117 147 148
f 117 148 149
f 117 149 150
f 117 150 151
f 117 151 118
f 117 139 140
f 123 152 124
f 124 152 153
f 124 153 154
f 124 154 155
f 125 155 129
f 126 129 132
f 129 155 156
f 129 156 157
f 129 157 132
f 130 158 131
f 131 158 159
f 132 157 133
f 133 157 134
f 134 157 160
f 134 160 161
f 134 161 135
f 135 161 136
f 136 161 162
f 136 162 163
f 136 163 137
f 137 163 138
f 138 140 139
f 138 163 164
f 138 164 165
f 138 165 140
f 140 165 141
f 141 165 166
f 141 166 142
f 142 166 167
f 142 167 168
f 142 168 169
f 142 169 170
f 142 170 143
f 143 170 171
f 143 171 172
f 143 172 144
f 144 172 145
f 145 172 173
f 153 174 154
f 154 174 175
f 154 175 176
f 154 176 155
f 155 176 156
f 156 176 177
f 156 177 157
f 157 177 178
f 157 178 179
f 157 179 180
f 157 180 181
f 157 181 160
f 158 182 183
f 158 183 159
f 160 162 161
f 160 181 162
f 162 181 163
f 163 181 166
f 163 166 165
f 163 165 164
f 166 184 167
f 166 181 184
f 167 184 168
f 168 185 186
f 168 186 169
f 168 184 185
f 169 186 170
f 170 186 187
f 170 187 188
f 170 188 171
f 171 188 189
f 171 189 190
f 171 190 191
f 171 191 173
f 171 173 172
f 174 192 175
f 175 192 193
f 175 193 194
f 175 194 176
f 176 194 178
f 176 178 177
f 178 194 179
f 179 194 195
f 179 195 196
f 179 196 197
f 179 197 180
f 180 197 181
f 181 197 184
f 182 198 199
f 182 199 183
f 184 200 201
f 184 201 185
f 184 197 202
f 184 202 203
f 184 203 204
f 184 204 200
f 185 201 186
f 186 201 205
f 186 205 187
f 187 205 206
f 187 206 207
f 187 207 208
f 187 208 209
f 187 209 188
f 188 209 210
f 188 210 189
f 192 211 193
f 193 211 212
f 193 212 194
f 194 212 213
f 194 213 195
f 195 213 234
f 195 234 214
f 195 214 196
f 196 214 215
f 196 215 216
f 196 216 217
f 196 217 218
f 196 218 219
f 196 219 202
f 196 202 197
f 198 220 199
f 199 220 221
f 200 204 222
f 200 222 223
f 200 223 224
f 200 224 225
f 200 225 226
f 200 226 201
f 201 226 205
f 202 219 227
f 202 227 203
f 203 227 204
f 204 227 228
f 204 228 223
f 204 223 222
f 205 226 206
f 206 226 208
f 206 208 207
f 208 229 209
f 208 226 225
f 208 225 230
f 208 230 229
f 209 229 231
f 209 231 232
f 209 232 210
f 211 233 234
f 211 234 213
f 211 213 212
f 214 234 215
f 215 234 216
f 216 235 236
f 216 236 217
f 216 234 235
f 217 236 218
f 218 236 237
f 218 237 238
f 218 238 261
f 218 261 239
f 218 239 227
f 218 227 219
f 220 240 221
f 221 240 241
f 221 241 242
f 221 242 243
f 221 243 244
f 223 228 224
f 224 228 245
f 224 245 225
f 225 245 246
f 225 246 247
f 225 247 248
f 225 248 230
f 227 239 249
f 227 249 228
f 228 249 250
f 228 250 245
f 229 230 251
f 229 251 252
f 229 252 253
f 229 253 254
f 229 254 255
f 229 255 231
f 230 248 256
f 230 256 251
f 233 235 234
f 233 257 235
f 235 257 236
f 236 257 258
f 236 258 259
f 236 259 237
f 237 259 260
f 237 260 238
f 238 260 261
f 239 261 262
f 239 262 249
f 243 263 264
f 243 264 265
f 243 265 244
f 245 250 266
f 245 266 246
f 246 267 247
f 246 266 268
f 246 268 269
f 246 269 267
f 247 267 270
f 247 270 248
f 248 270 256
f 249 262 271
f 249 271 272
f 249 272 294
f 249 294 273
f 249 273 250
f 250 273 297
f 250 297 274
f 250 274 268
f 250 268 266
f 251 256 252
f 252 275 276
f 252 276 277
f 252 277 278
f 252 278 279
f 252 279 253
f 252 256 280
f 252 280 275
f 253 279 254
f 256 270 280
f 260 281 261
f 261 281 262
f 262 281 282
f 262 282 283
f 262 283 271
f 263 284 264
f 264 284 285
f 267 269 286
f 267 286 270
f 268 287 269
f 268 274 287
f 269 288 289
f 269 289 290
f 269 290 275
f 269 275 291
f 269 291 286
f 269 287 292
f 269 292 288
f 270 286 280
f 271 283 272
f 272 283 293
f 272 293 331
f 272 331 294
f 273 294 295
f 273 295 296
f 273 296 297
f 274 297 298
f 274 298 299
f 274 299 287
f 275 290 300
f 275 300 301
f 275 301 302
f 275 302 276
f 275 280 303
f 275 303 291
f 276 302 277
f 277 304 305
f 277 305 306
f 277 306 307
f 277 307 308
f 277 308 278
f 277 302 309
f 277 309 304
f 280 286 303
f 284 310 285
f 285 310 311
f 285 311 312
f 285 312 313
f 285 313 314
f 285 314 315
f 285 315 316
f 286 291 303
f 287 299 317
f 287 317 318
f 287 318 319
f 287 319 292
f 288 320 321
f 288 321 289
f 288 292 322
f 288 322 323
f 288 323 324
f 288 324 320
f 289 321 325
f 289 325 326
f 289 326 327
f 289 327 328
f 289 328 329
f 289 329 309
f 289 309 330
f 289 330 290
f 290 330 300
f 292 319 323
f 292 323 322
f 294 331 332
f 294 332 295
f 295 332 296
f 296 298 297
f 296 332 333
f 296 333 334
f 296 334 335
f 296 335 336
f 296 336 298
f 298 336 319
f 298 319 318
f 298 318 299
f 299 318 317
f 300 330 301
f 301 330 309
f 301 309 302
f 304 309 337
f 304 337 338
f 304 338 305
f 305 338 339
f 309 329 337
f 310 340 312
f 310 312 311
f 312 340 341
f 312 341 313
f 313 341 342
f 313 342 314
f 314 342 343
f 314 343 315
f 315 343 344
f 315 344 345
f 315 345 316
f 319 336 346
f 319 346 323
f 320 324 321
f 321 324 347
f 321 347 325
f 323 346 348
f 323 348 349
f 323 349 350
f 323 350 324
f 324 350 347
f 325 351 344
f 325 344 352
f 325 352 326
f 325 347 353
f 325 353 351
f 326 352 354
f 326 354 327
f 327 344 355
f 327 355 342
f 327 342 356
f 327 356 357
f 327 357 337
f 327 337 358
f 327 358 328
f 327 354 352
f 327 352 344
f 328 358 329
f 329 358 337
f 334 359 335
f 335 359 360
f 335 360 346
f 335 346 336
f 337 357 356
f 337 356 341
f 337 341 361
f 337 361 338
f 338 361 339
f 339 361 340
f 340 361 341
f 341 356 342
f 342 355 362
f 342 362 343
f 343 362 344
f 344 362 355
f 344 351 363
f 344 363 364
f 344 364 345
f 346 360 348
f 347 350 353
f 348 360 349
f 349 360 365
f 349 365 353
f 349 353 350
f 351 353 366
f 351 366 367
f 351 367 363
f 353 365 368
f 353 368 366
f 359 369 360
f 360 369 368
f 360 368 365

