# https://github.com/mikedh/trimesh
v -0.00101906 0.04699625 -0.05712163
v -0.00101906 0.05135750 -0.02957505
v -0.00101906 0.04943040 -0.05712163
v 0.02753410 0.03793421 -0.05712163
v -0.00101906 0.05140126 -0.02957505
v 0.02753410 0.04289909 -0.02957505
v -0.00101906 0.04946058 -0.05711894
v -0.00101347 0.04946058 -0.05712163
v 0.02753410 0.04107612 -0.05712163
v -0.00101906 0.05329818 -0.03162972
v -0.00101347 0.05334647 -0.02957505
v 0.02753410 0.04557771 -0.02957505
v -0.00101906 0.05074783 -0.05444409
v 0.00109112 0.05075688 -0.05450341
v 0.00109112 0.04946662 -0.05712163
v 0.02753410 0.04114705 -0.05699221
v 0.02564471 0.04228640 -0.05712163
v -0.00101906 0.05315180 -0.03794203
v 0.00109112 0.05334949 -0.02957505
v 0.02753410 0.04556262 -0.03034892
v 0.02589067 0.04660540 -0.02957505
v -0.00101906 0.05135146 -0.05267255
v 0.00109112 0.05136052 -0.05267255
v 0.00319572 0.05072972 -0.05445488
v 0.00319572 0.05023323 -0.05550648
v 0.00319572 0.04952698 -0.05687896
v 0.00319572 0.04940173 -0.05712163
v 0.02753410 0.04120590 -0.05688435
v 0.02574813 0.04235280 -0.05687896
v 0.02447922 0.04295493 -0.05712163
v 0.02471400 0.04385132 -0.05515055
v -0.00101906 0.05305521 -0.04004793
v 0.00109112 0.05330120 -0.03162972
v -0.00101347 0.05315180 -0.03794203
v 0.00114423 0.05334797 -0.02957505
v 0.02753410 0.04537399 -0.03792315
v 0.02671238 0.04587349 -0.03794203
v 0.02665648 0.04584482 -0.04004793
v 0.02565869 0.04647562 -0.03794203
v 0.02160881 0.04861399 -0.03583883
v 0.02167310 0.04863511 -0.03373293
v 0.02171502 0.04865322 -0.03162972
v 0.02175136 0.04866982 -0.02957505
v -0.00101906 0.05258136 -0.04651124
v -0.00007157 0.05258589 -0.04744150
v 0.00027220 0.05258589 -0.04744150
v 0.00319572 0.05130166 -0.05267255
v 0.00530031 0.05063766 -0.05417715
v 0.00530031 0.05015023 -0.05523144
v 0.00530031 0.04935042 -0.05687896
v 0.00530031 0.04922818 -0.05712163
v 0.00355067 0.04937456 -0.05712163
v 0.02753410 0.04169183 -0.05593251
v 0.02630432 0.04309527 -0.05472452
v 0.02410190 0.04336842 -0.05674414
v 0.02314883 0.04366571 -0.05712163
v 0.02331093 0.04422708 -0.05595139
v 0.02530932 0.04417427 -0.05374842
v -0.00101906 0.05291336 -0.04215114
v -0.00101347 0.05305521 -0.04004793
v 0.00109112 0.05293147 -0.04215114
v 0.00109112 0.05280320 -0.04425434
v 0.00319572 0.05321971 -0.03162972
v 0.00109112 0.05324989 -0.03373293
v 0.00109112 0.05319405 -0.03583883
v 0.00109112 0.05312916 -0.03794203
v 0.00109112 0.05304163 -0.04004793
v 0.00319572 0.05326498 -0.02957505
v 0.02753410 0.04530004 -0.04004793
v 0.02654748 0.04579049 -0.04215114
v 0.02560558 0.04643789 -0.04004793
v 0.02753410 0.04523666 -0.04120739
v 0.02753410 0.04518233 -0.04215114
v 0.02150819 0.04857777 -0.03794203
v 0.02002967 0.04920555 -0.03794203
v 0.02002967 0.04924931 -0.03583883
v 0.01696641 0.05050939 -0.03373293
v 0.01706423 0.05053958 -0.02957505
v -0.00101906 0.05262513 -0.04627665
v -0.00086813 0.05262814 -0.04634136
v 0.00102125 0.05264625 -0.04650045
v 0.00319572 0.05265078 -0.04595308
v 0.00455965 0.05262211 -0.04558367
v 0.00167527 0.05251345 -0.04729590
v 0.00530031 0.05155519 -0.05056665
v 0.00740490 0.05136957 -0.05056665
v 0.00530031 0.05110548 -0.05267255
v 0.00690461 0.05054410 -0.05390481
v 0.00740490 0.04910444 -0.05687896
v 0.00571117 0.04918291 -0.05712163
v 0.02753410 0.04248259 -0.05437938
v 0.02232711 0.04409127 -0.05712163
v 0.02410190 0.04441874 -0.05457891
v 0.02196377 0.04447458 -0.05674414
v 0.01906541 0.04630509 -0.05590285
v 0.02562515 0.04434781 -0.05267255
v 0.02748938 0.04422256 -0.04970918
v 0.02711765 0.04396903 -0.05111132
v 0.02667605 0.04370041 -0.05267255
v 0.02753410 0.04316771 -0.05262671
v 0.02753410 0.04268028 -0.05389132
v 0.01953496 0.04653598 -0.05477575
v 0.02155291 0.04648920 -0.05225730
v 0.02220693 0.04671103 -0.05053968
v -0.00101906 0.05262965 -0.04621463
v 0.00319572 0.05277603 -0.04425434
v 0.00319572 0.05316689 -0.03373293
v 0.00324882 0.05326045 -0.02957505
v 0.00530031 0.05298730 -0.03373293
v 0.00530031 0.05293600 -0.03583883
v 0.00530031 0.05288469 -0.03794203
v 0.00530031 0.05283187 -0.04004793
v 0.00319572 0.05310501 -0.03583883
v 0.00319572 0.05304012 -0.03794203
v 0.00319572 0.05296769 -0.04004793
v 0.00319572 0.05287865 -0.04215114
v 0.02753410 0.04507066 -0.04346159
v 0.02537919 0.04631264 -0.04360990
v 0.02549379 0.04637451 -0.04215114
v 0.02138522 0.04851891 -0.04004793
v 0.02002967 0.04912557 -0.04004793
v 0.02423886 0.04699323 -0.04215114
v 0.01687138 0.05047318 -0.03687425
v 0.01691890 0.05049279 -0.03547211
v 0.01582048 0.05088968 -0.03373293
v 0.01582048 0.05092137 -0.03162972
v 0.01582048 0.05095155 -0.02957505
v 0.00530031 0.05275038 -0.04215114
v 0.00527795 0.05265078 -0.04408716
v 0.00640152 0.05258589 -0.04327824
v 0.01161409 0.05139523 -0.04635754
v 0.00950950 0.05147370 -0.04846344
v 0.00950950 0.05104964 -0.05056665
v 0.00752509 0.05077650 -0.05283972
v 0.00830767 0.05040828 -0.05365404
v 0.00752509 0.05008534 -0.05467329
v 0.00766204 0.04894749 -0.05712163
v 0.00740490 0.04898371 -0.05712163
v 0.00921603 0.04867133 -0.05712163
v 0.02171782 0.04439157 -0.05712163
v 0.01987315 0.04549471 -0.05671447
v 0.01666455 0.04823823 -0.05351383
v 0.01872443 0.04576031 -0.05712163
v 0.01792508 0.04610438 -0.05712163
v 0.01792508 0.04653598 -0.05635046
v 0.01526149 0.04851439 -0.05415018
v 0.02334727 0.04635036 -0.04981974
v 0.02638817 0.04459228 -0.05047227
v 0.02753410 0.04424670 -0.04943685
v 0.02753410 0.04420294 -0.04966604
v 0.02753410 0.04418030 -0.04974963
v 0.02365751 0.04649825 -0.04846344
v 0.02753410 0.04354800 -0.05155353
v 0.01723193 0.04851590 -0.05211169
v 0.01903746 0.04839517 -0.04962020
v 0.00530031 0.05307030 -0.02957505
v 0.00530031 0.05303258 -0.03162972
v 0.00699125 0.05266587 -0.04004793
v 0.00665027 0.05262211 -0.04215114
v 0.02753410 0.04478695 -0.04587219
v 0.02753410 0.04445194 -0.04822346
v 0.02401526 0.04667481 -0.04635754
v 0.02440935 0.04672160 -0.04428939
v 0.02115044 0.04840422 -0.04356405
v 0.02125106 0.04845402 -0.04215114
v 0.02002967 0.04901087 -0.04215114
v 0.01553260 0.05074934 -0.04215114
v 0.01569191 0.05080216 -0.04004793
v 0.01578415 0.05082328 -0.03794203
v 0.01371589 0.05137711 -0.04004793
v 0.01371589 0.05141484 -0.03794203
v 0.01371589 0.05143748 -0.03583883
v 0.01371589 0.05147370 -0.03162972
v 0.01376899 0.05147672 -0.02957505
v 0.01161409 0.05157028 -0.04425434
v 0.01371589 0.05113868 -0.04425434
v 0.01390874 0.05081725 -0.04653551
v 0.01161409 0.05108435 -0.04846344
v 0.00950950 0.05061805 -0.05214675
v 0.01289976 0.05053505 -0.04972537
v 0.01146037 0.05065577 -0.05048306
v 0.00936416 0.04873320 -0.05692479
v 0.01065542 0.05049732 -0.05169105
v 0.01366278 0.04868642 -0.05482159
v 0.01292771 0.04842837 -0.05594330
v 0.01161409 0.04809335 -0.05712163
v 0.02027842 0.04508274 -0.05712163
v 0.01990949 0.04524722 -0.05712163
v 0.01590712 0.04876942 -0.05275614
v 0.01603849 0.04683931 -0.05712163
v 0.01596023 0.04690872 -0.05704344
v 0.01432798 0.04821106 -0.05555502
v 0.02753410 0.04441723 -0.04846344
v 0.01929739 0.04850684 -0.04846344
v 0.01973061 0.04870604 -0.04635754
v 0.01582048 0.04935344 -0.05056665
v 0.01793067 0.04865473 -0.05041834
v 0.01792508 0.04905313 -0.04846344
v 0.00535341 0.05306427 -0.02957505
v 0.00718410 0.05268549 -0.03794203
v 0.00845021 0.05257231 -0.03472790
v 0.01371589 0.05128808 -0.04215114
v 0.02020016 0.04877546 -0.04426243
v 0.01530901 0.05066634 -0.04425434
v 0.00851450 0.05259042 -0.03332577
v 0.00867101 0.05261909 -0.02957505
v 0.01371589 0.05149030 -0.02957505
v 0.01504628 0.05057579 -0.04595038
v 0.01473604 0.05043545 -0.04735252
v 0.01334137 0.05065728 -0.04846344
v 0.01366278 0.04780059 -0.05673874
v 0.01223736 0.04794244 -0.05712163
v 0.01592110 0.04688156 -0.05712163
v 0.01409041 0.04746557 -0.05712163
v 0.00743565 0.05279112 -0.02957505
v 0.00740490 0.05276396 -0.03162972
v 0.00761173 0.05270058 -0.03391089
v 0.00732944 0.05270511 -0.03583883
v 0.01367396 0.04758328 -0.05712163
f 1 2 5
f 1 5 10
f 1 10 18
f 1 18 32
f 1 32 59
f 1 59 105
f 1 105 79
f 1 79 44
f 1 44 22
f 1 22 13
f 1 13 7
f 1 7 3
f 1 3 8
f 1 8 15
f 1 15 27
f 1 27 52
f 1 52 51
f 1 51 90
f 1 90 138
f 1 138 137
f 1 137 139
f 1 139 186
f 1 186 212
f 1 212 219
f 1 219 214
f 1 214 213
f 1 213 190
f 1 190 144
f 1 144 143
f 1 143 188
f 1 188 187
f 1 187 140
f 1 140 92
f 1 92 56
f 1 56 30
f 1 30 17
f 1 17 9
f 1 9 4
f 1 4 2
f 2 4 6
f 2 6 12
f 2 12 21
f 2 21 43
f 2 43 78
f 2 78 127
f 2 127 174
f 2 174 207
f 2 207 206
f 2 206 215
f 2 215 199
f 2 199 156
f 2 156 108
f 2 108 68
f 2 68 35
f 2 35 19
f 2 19 11
f 2 11 5
f 3 7 8
f 4 9 16
f 4 16 28
f 4 28 53
f 4 53 91
f 4 91 101
f 4 101 100
f 4 100 153
f 4 153 151
f 4 151 150
f 4 150 149
f 4 149 193
f 4 193 161
f 4 161 160
f 4 160 117
f 4 117 73
f 4 73 72
f 4 72 69
f 4 69 36
f 4 36 20
f 4 20 12
f 4 12 6
f 5 11 10
f 7 13 8
f 8 13 14
f 8 14 15
f 9 17 16
f 10 11 18
f 11 19 18
f 12 20 21
f 13 22 14
f 14 23 24
f 14 24 25
f 14 25 15
f 14 22 23
f 15 25 26
f 15 26 27
f 16 17 29
f 16 29 28
f 17 30 31
f 17 31 29
f 18 19 33
f 18 33 34
f 18 34 60
f 18 60 32
f 19 35 33
f 20 36 21
f 21 36 37
f 21 37 38
f 21 38 39
f 21 39 40
f 21 40 41
f 21 41 42
f 21 42 43
f 22 44 45
f 22 45 23
f 23 45 46
f 23 46 47
f 23 47 24
f 24 47 48
f 24 48 49
f 24 49 25
f 25 49 50
f 25 50 51
f 25 51 52
f 25 52 26
f 26 52 27
f 28 29 53
f 29 31 54
f 29 54 53
f 30 55 31
f 30 56 55
f 31 55 57
f 31 57 58
f 31 58 54
f 32 60 61
f 32 61 62
f 32 62 45
f 32 45 59
f 33 35 63
f 33 63 64
f 33 64 34
f 34 64 65
f 34 65 66
f 34 66 67
f 34 67 60
f 35 68 63
f 36 69 38
f 36 38 37
f 38 70 71
f 38 71 39
f 38 69 72
f 38 72 73
f 38 73 70
f 39 71 40
f 40 74 75
f 40 75 41
f 40 71 74
f 41 75 76
f 41 76 77
f 41 77 78
f 41 78 42
f 42 78 43
f 44 79 45
f 45 62 46
f 45 79 80
f 45 80 59
f 46 62 81
f 46 81 82
f 46 82 83
f 46 83 84
f 46 84 47
f 47 84 85
f 47 85 86
f 47 86 87
f 47 87 48
f 48 87 88
f 48 88 89
f 48 89 49
f 49 89 50
f 50 89 90
f 50 90 51
f 53 54 91
f 54 58 91
f 55 56 57
f 56 92 57
f 57 93 58
f 57 92 94
f 57 94 95
f 57 95 93
f 58 96 97
f 58 97 98
f 58 98 99
f 58 99 100
f 58 100 101
f 58 101 91
f 58 93 102
f 58 102 103
f 58 103 104
f 58 104 96
f 59 80 105
f 60 67 61
f 61 67 106
f 61 106 62
f 62 106 81
f 63 107 64
f 63 68 108
f 63 108 109
f 63 109 110
f 63 110 111
f 63 111 112
f 63 112 107
f 64 107 65
f 65 107 113
f 65 113 114
f 65 114 66
f 66 114 115
f 66 115 67
f 67 115 116
f 67 116 106
f 70 73 117
f 70 117 118
f 70 118 119
f 70 119 71
f 71 119 74
f 74 120 121
f 74 121 75
f 74 119 122
f 74 122 120
f 75 121 123
f 75 123 124
f 75 124 76
f 76 124 77
f 77 124 125
f 77 125 126
f 77 126 78
f 78 126 127
f 79 105 80
f 81 106 82
f 82 106 83
f 83 85 84
f 83 106 128
f 83 128 129
f 83 129 130
f 83 130 131
f 83 131 132
f 83 132 86
f 83 86 85
f 86 132 133
f 86 133 134
f 86 134 87
f 87 134 88
f 88 134 135
f 88 135 136
f 88 136 89
f 89 137 138
f 89 138 90
f 89 136 139
f 89 139 137
f 92 140 94
f 93 95 102
f 94 140 141
f 94 141 95
f 95 142 102
f 95 141 143
f 95 143 144
f 95 144 145
f 95 145 146
f 95 146 142
f 96 104 147
f 96 147 148
f 96 148 97
f 97 149 150
f 97 150 151
f 97 151 98
f 97 148 147
f 97 147 152
f 97 152 149
f 98 151 153
f 98 153 99
f 99 153 100
f 102 142 154
f 102 154 103
f 103 154 104
f 104 154 155
f 104 155 147
f 106 116 128
f 107 112 113
f 108 156 157
f 108 157 109
f 109 157 158
f 109 158 110
f 110 158 111
f 111 158 112
f 112 128 115
f 112 115 114
f 112 114 113
f 112 158 159
f 112 159 128
f 115 128 116
f 117 160 118
f 118 160 161
f 118 161 162
f 118 162 163
f 118 163 164
f 118 164 119
f 119 164 122
f 120 165 166
f 120 166 121
f 120 122 165
f 121 166 167
f 121 167 168
f 121 168 123
f 122 164 165
f 123 168 124
f 124 168 169
f 124 169 125
f 125 169 170
f 125 170 171
f 125 171 126
f 126 171 127
f 127 171 172
f 127 172 173
f 127 173 174
f 128 159 129
f 129 159 130
f 130 159 175
f 130 175 131
f 131 175 176
f 131 176 177
f 131 177 178
f 131 178 132
f 132 178 133
f 133 179 134
f 133 178 180
f 133 180 181
f 133 181 179
f 134 179 135
f 135 182 139
f 135 139 136
f 135 179 183
f 135 183 184
f 135 184 185
f 135 185 182
f 139 182 185
f 139 185 186
f 140 187 141
f 141 187 188
f 141 188 143
f 142 189 154
f 142 146 189
f 144 190 145
f 145 190 191
f 145 191 192
f 145 192 146
f 146 192 184
f 146 184 183
f 146 183 180
f 146 180 189
f 147 155 152
f 149 152 193
f 152 162 193
f 152 155 194
f 152 194 195
f 152 195 162
f 154 189 180
f 154 180 196
f 154 196 197
f 154 197 155
f 155 197 198
f 155 198 194
f 156 199 157
f 157 199 200
f 157 200 158
f 158 200 201
f 158 201 170
f 158 170 202
f 158 202 159
f 159 202 175
f 161 193 162
f 162 195 203
f 162 203 164
f 162 164 163
f 164 203 166
f 164 166 165
f 166 203 167
f 167 204 202
f 167 202 168
f 167 203 204
f 168 202 170
f 168 170 169
f 170 201 205
f 170 205 171
f 171 205 206
f 171 206 172
f 172 206 173
f 173 207 174
f 173 206 207
f 175 202 176
f 176 202 204
f 176 204 208
f 176 208 177
f 177 208 209
f 177 209 210
f 177 210 178
f 178 210 180
f 179 181 183
f 180 210 209
f 180 209 196
f 180 183 181
f 184 192 185
f 185 192 211
f 185 211 212
f 185 212 186
f 190 213 191
f 191 213 192
f 192 213 214
f 192 214 211
f 194 198 195
f 195 198 208
f 195 208 203
f 196 209 197
f 197 209 198
f 198 209 208
f 199 215 216
f 199 216 217
f 199 217 218
f 199 218 200
f 200 218 205
f 200 205 201
f 203 208 204
f 205 218 217
f 205 217 216
f 205 216 215
f 205 215 206
f 211 219 212
f 211 214 219

