# https://github.com/mikedh/trimesh
v -0.01729550 -0.04268296 -0.06195111
v -0.01729550 -0.03879255 -0.06195111
v -0.01652584 -0.04297520 -0.06195111
v -0.01729550 -0.04443779 -0.06025819
v -0.01729550 -0.04778306 -0.04465626
v 0.00033412 -0.05122809 -0.04465626
v 0.00033412 -0.04256073 -0.06195111
v -0.01574411 -0.04325058 -0.06195111
v -0.01574411 -0.04364116 -0.06158882
v -0.01574411 -0.04471598 -0.06053752
v -0.01363877 -0.04609989 -0.05974523
v -0.01729550 -0.04445746 -0.06023449
v -0.01729550 -0.05015468 -0.04465626
v 0.00033412 -0.05314590 -0.04465626
v 0.00033412 -0.04617014 -0.06195111
v -0.01377510 -0.04389266 -0.06195111
v -0.01363877 -0.04398258 -0.06190878
v -0.01363877 -0.04504896 -0.06085579
v -0.01245840 -0.04627973 -0.05999240
v -0.01363877 -0.04681503 -0.05869224
v -0.01574411 -0.04650453 -0.05820129
v -0.01574411 -0.04576831 -0.05925259
v -0.01729550 -0.04536087 -0.05901220
v -0.01729550 -0.05006336 -0.04534866
v -0.01532649 -0.05073353 -0.04635933
v -0.01558362 -0.05081784 -0.04465626
v 0.00033412 -0.05311359 -0.04501177
v -0.00101365 -0.05312342 -0.04465626
v -0.00101365 -0.05297168 -0.04635933
v -0.00101365 -0.04711991 -0.06089981
v -0.00101365 -0.04613782 -0.06195111
v 0.00033412 -0.04712131 -0.06091504
v -0.01334368 -0.04402894 -0.06195111
v -0.01233243 -0.04433101 -0.06195111
v -0.01174224 -0.04533136 -0.06113681
v -0.00942982 -0.04564889 -0.06146185
v -0.01105542 -0.04645676 -0.06019386
v -0.00859976 -0.04848696 -0.05801677
v -0.01306239 -0.04854738 -0.05603944
v -0.01679678 -0.04632890 -0.05793381
v -0.01446537 -0.04830993 -0.05570085
v -0.01729550 -0.04576691 -0.05845354
v -0.01729550 -0.04992988 -0.04635933
v -0.01496755 -0.05062254 -0.04796760
v -0.01363877 -0.05118313 -0.04635933
v -0.01396147 -0.05127024 -0.04465626
v -0.01729550 -0.04960814 -0.04849579
v 0.00033412 -0.05298854 -0.04635933
v -0.00311898 -0.05298995 -0.04465626
v -0.00311898 -0.05283680 -0.04635933
v -0.00311898 -0.05268366 -0.04772382
v -0.00101365 -0.05274548 -0.04808103
v -0.00101365 -0.04817225 -0.05968429
v -0.00311898 -0.04706371 -0.06083378
v -0.00311898 -0.04607741 -0.06188678
v -0.00311898 -0.04600857 -0.06195111
v 0.00033412 -0.04817225 -0.05968767
v -0.01123144 -0.04465416 -0.06195111
v -0.00942982 -0.04513045 -0.06195111
v -0.00805790 -0.04543252 -0.06195111
v -0.00732793 -0.04587650 -0.06168363
v -0.00942982 -0.04663659 -0.06041055
v -0.01038412 -0.04489020 -0.06195111
v -0.00732793 -0.04788141 -0.05925767
v -0.00732793 -0.04861763 -0.05820468
v -0.00935389 -0.04889301 -0.05697054
v -0.01153516 -0.04872722 -0.05636278
v -0.01371297 -0.04889862 -0.05491026
v -0.00857388 -0.05058180 -0.05383018
v -0.01729550 -0.04652279 -0.05727358
v -0.01729550 -0.04622774 -0.05777129
v -0.01574411 -0.04863168 -0.05418739
v -0.01574411 -0.04811604 -0.05523869
v -0.01729550 -0.04692181 -0.05653038
v -0.01729550 -0.04676305 -0.05682834
v -0.01729550 -0.04930748 -0.05004312
v -0.01729550 -0.04917119 -0.05066103
v -0.01459480 -0.05043989 -0.04936934
v -0.01319182 -0.05067593 -0.05014639
v -0.01379236 -0.05082065 -0.04858721
v -0.01153516 -0.05134330 -0.04846532
v -0.01153516 -0.05158917 -0.04635933
v -0.01363877 -0.05135595 -0.04465626
v 0.00033412 -0.05290705 -0.04697894
v -0.00350726 -0.05295763 -0.04465626
v -0.00634774 -0.05265134 -0.04541130
v -0.00501379 -0.05269068 -0.04621205
v -0.00417165 -0.05264151 -0.04741233
v -0.00732793 -0.05164256 -0.05056962
v -0.00522260 -0.05137702 -0.05267392
v -0.00311898 -0.05151331 -0.05267392
v -0.00101365 -0.05157372 -0.05267392
v 0.00033412 -0.05275250 -0.04808272
v 0.00033412 -0.04861622 -0.05901389
v 0.00033412 -0.04886210 -0.05863637
v -0.00101365 -0.04885788 -0.05863129
v -0.00311898 -0.04882556 -0.05855511
v -0.00311898 -0.04811604 -0.05960811
v -0.00522260 -0.04696115 -0.06075591
v -0.00522260 -0.04600716 -0.06180890
v -0.00522260 -0.04585683 -0.06195111
v -0.00326567 -0.04599873 -0.06195111
v -0.00732793 -0.04558567 -0.06195111
v -0.00732793 -0.04682908 -0.06063063
v -0.00522260 -0.04801208 -0.05947437
v -0.00522260 -0.04876094 -0.05842307
v -0.00732793 -0.04929905 -0.05688082
v -0.01111409 -0.05068436 -0.05201706
v -0.00732793 -0.05016733 -0.05511172
v -0.00732793 -0.05067031 -0.05406042
v -0.00732793 -0.05115784 -0.05267392
v -0.00933663 -0.05081784 -0.05270100
v -0.01574411 -0.04914590 -0.05267392
v -0.01684337 -0.04845184 -0.05376754
v -0.01729550 -0.04782803 -0.05471727
v -0.01251707 -0.05047361 -0.05154813
v -0.01729550 -0.04864151 -0.05265868
v -0.01729550 -0.04863730 -0.05267392
v -0.01170255 -0.05088387 -0.05073553
v -0.00942982 -0.05137702 -0.05056962
v -0.00653412 -0.05267663 -0.04465626
v -0.00561433 -0.05277639 -0.04465626
v -0.00522260 -0.05078693 -0.05436683
v -0.00311898 -0.05088106 -0.05460215
v -0.00101365 -0.05093305 -0.05471896
v 0.00033412 -0.05093866 -0.05470373
v 0.00033412 -0.05157232 -0.05267392
v 0.00033412 -0.05043989 -0.05575672
v -0.00101365 -0.05046097 -0.05577026
v -0.00311898 -0.05036964 -0.05565345
v -0.01729550 -0.04862887 -0.05269931
v -0.01729550 -0.04836754 -0.05344081
v -0.01729550 -0.04807109 -0.05421955
v 0.00033412 -0.05076866 -0.05508294
f 1 2 7
f 1 7 15
f 1 15 31
f 1 31 56
f 1 56 102
f 1 102 101
f 1 101 103
f 1 103 60
f 1 60 59
f 1 59 63
f 1 63 58
f 1 58 34
f 1 34 33
f 1 33 16
f 1 16 8
f 1 8 3
f 1 3 4
f 1 4 12
f 1 12 23
f 1 23 42
f 1 42 71
f 1 71 70
f 1 70 75
f 1 75 74
f 1 74 115
f 1 115 133
f 1 133 132
f 1 132 131
f 1 131 118
f 1 118 117
f 1 117 77
f 1 77 76
f 1 76 47
f 1 47 43
f 1 43 24
f 1 24 13
f 1 13 5
f 1 5 2
f 2 5 6
f 2 6 7
f 3 8 9
f 3 9 4
f 4 9 10
f 4 10 11
f 4 11 12
f 5 13 26
f 5 26 46
f 5 46 83
f 5 83 121
f 5 121 122
f 5 122 85
f 5 85 49
f 5 49 28
f 5 28 14
f 5 14 6
f 6 14 27
f 6 27 48
f 6 48 84
f 6 84 93
f 6 93 127
f 6 127 126
f 6 126 134
f 6 134 128
f 6 128 95
f 6 95 94
f 6 94 57
f 6 57 32
f 6 32 15
f 6 15 7
f 8 16 9
f 9 16 17
f 9 17 10
f 10 17 18
f 10 18 19
f 10 19 11
f 11 19 20
f 11 20 21
f 11 21 22
f 11 22 12
f 12 22 23
f 13 24 25
f 13 25 26
f 14 28 29
f 14 29 27
f 15 30 31
f 15 32 30
f 16 33 17
f 17 33 18
f 18 33 19
f 19 33 34
f 19 34 35
f 19 35 36
f 19 36 37
f 19 37 38
f 19 38 20
f 20 39 21
f 20 38 39
f 21 40 22
f 21 39 41
f 21 41 40
f 22 40 42
f 22 42 23
f 24 43 25
f 25 44 45
f 25 45 46
f 25 46 26
f 25 43 47
f 25 47 44
f 27 29 48
f 28 49 29
f 29 49 50
f 29 50 51
f 29 51 52
f 29 52 48
f 30 32 53
f 30 53 54
f 30 54 31
f 31 54 55
f 31 55 56
f 32 57 53
f 34 58 35
f 35 58 36
f 36 59 60
f 36 60 61
f 36 61 62
f 36 62 37
f 36 58 63
f 36 63 59
f 37 62 64
f 37 64 38
f 38 64 65
f 38 65 66
f 38 66 67
f 38 67 39
f 39 68 41
f 39 67 69
f 39 69 68
f 40 70 71
f 40 71 42
f 40 41 70
f 41 68 72
f 41 72 73
f 41 73 74
f 41 74 75
f 41 75 70
f 44 47 76
f 44 76 77
f 44 77 78
f 44 78 79
f 44 79 80
f 44 80 45
f 45 80 81
f 45 81 82
f 45 82 83
f 45 83 46
f 48 52 84
f 49 85 50
f 50 85 86
f 50 86 87
f 50 87 88
f 50 88 51
f 51 88 89
f 51 89 90
f 51 90 52
f 52 90 91
f 52 91 92
f 52 92 93
f 52 93 84
f 53 57 94
f 53 94 95
f 53 95 96
f 53 96 97
f 53 97 98
f 53 98 54
f 54 98 99
f 54 99 100
f 54 100 55
f 55 100 101
f 55 101 102
f 55 102 56
f 60 103 61
f 61 104 62
f 61 103 101
f 61 101 100
f 61 100 99
f 61 99 104
f 62 104 64
f 64 104 105
f 64 105 106
f 64 106 65
f 65 107 66
f 65 106 107
f 66 107 69
f 66 69 67
f 68 108 72
f 68 69 108
f 69 107 109
f 69 109 110
f 69 110 111
f 69 111 112
f 69 112 108
f 72 113 114
f 72 114 115
f 72 115 73
f 72 108 116
f 72 116 113
f 73 115 74
f 77 117 78
f 78 117 118
f 78 118 113
f 78 113 79
f 79 113 116
f 79 116 119
f 79 119 81
f 79 81 80
f 81 119 120
f 81 120 86
f 81 86 82
f 82 86 83
f 83 86 121
f 85 122 86
f 86 88 87
f 86 122 121
f 86 120 88
f 88 120 89
f 89 111 90
f 89 120 111
f 90 111 123
f 90 123 124
f 90 124 91
f 91 124 125
f 91 125 92
f 92 125 126
f 92 126 127
f 92 127 93
f 95 128 129
f 95 129 96
f 96 129 97
f 97 106 98
f 97 129 106
f 98 106 105
f 98 105 99
f 99 105 104
f 106 123 107
f 106 129 130
f 106 130 123
f 107 123 109
f 108 120 119
f 108 119 116
f 108 112 120
f 109 123 110
f 110 123 111
f 111 120 112
f 113 118 114
f 114 118 131
f 114 131 132
f 114 132 133
f 114 133 115
f 123 130 124
f 124 129 125
f 124 130 129
f 125 129 134
f 125 134 126
f 128 134 129

