# https://github.com/mikedh/trimesh
v -0.00645986 0.00022082 -0.06209086
v -0.00645986 0.00022082 -0.06440397
v -0.00732687 0.00022082 -0.06207861
v 0.04618361 0.00021628 -0.06195183
v -0.03047410 0.00022082 -0.06903521
v 0.04510889 0.00021628 -0.06290127
v 0.04383548 0.00021628 -0.06395445
v 0.04278784 0.00021628 -0.06470147
v 0.03580664 0.00021628 -0.06845387
v 0.03566214 0.00021628 -0.06850502
v 0.03494867 0.00021628 -0.06875499
v -0.04239543 0.00022082 -0.06195183
v 0.04214662 -0.01873559 -0.06195111
v 0.04618361 0.00018448 -0.06195183
v 0.04509986 -0.00109200 -0.06291640
v -0.03257840 0.00022082 -0.06924052
v 0.03356688 0.00021628 -0.06902081
v 0.03265472 0.00021628 -0.06919513
v 0.04385354 -0.00109200 -0.06396814
v 0.04280591 -0.00109200 -0.06471012
v 0.03886826 -0.00109200 -0.06683593
v 0.03580664 0.00008000 -0.06845676
v 0.03495770 -0.00099661 -0.06878020
v 0.03470482 -0.00319524 -0.06889402
v -0.04604407 0.00022082 -0.06195183
v 0.04261625 -0.01759539 -0.06195183
v 0.04333875 -0.01581922 -0.06195183
v 0.04403416 -0.01378866 -0.06195183
v 0.04510889 -0.00950496 -0.06195183
v 0.04554239 -0.00740626 -0.06195183
v 0.04582236 -0.00530302 -0.06195183
v 0.04603008 -0.00319524 -0.06195183
v 0.04615652 -0.00109200 -0.06195183
v 0.03819994 -0.01873559 -0.06195111
v 0.04192987 -0.01925345 -0.06195111
v 0.04214662 -0.01873559 -0.06195183
v 0.04614749 -0.00109200 -0.06196336
v 0.04503664 -0.00319524 -0.06289407
v 0.04381741 -0.00319524 -0.06394653
v -0.03257840 -0.00108746 -0.06924700
v -0.03371634 0.00022082 -0.06895237
v 0.03265472 -0.00109200 -0.06922323
v 0.03265472 -0.00319524 -0.06925348
v 0.04276978 -0.00319524 -0.06467842
v 0.03882310 -0.00319524 -0.06681287
v 0.03580664 -0.00023344 -0.06845676
v 0.03465064 -0.00530302 -0.06889114
v 0.03265472 -0.00740626 -0.06925996
v 0.03265472 -0.00530302 -0.06926357
v -0.04500547 0.00022082 -0.06285085
v -0.04605311 0.00021173 -0.06195183
v 0.04210146 -0.01873559 -0.06199865
v 0.04232725 -0.01737280 -0.06232498
v 0.04264334 -0.01581922 -0.06257999
v 0.04404319 -0.01371598 -0.06196336
v 0.04437735 -0.01115393 -0.06228320
v 0.04458507 -0.00950496 -0.06247194
v 0.04480182 -0.00740626 -0.06266788
v 0.04493729 -0.00530302 -0.06280403
v 0.02742559 -0.03265422 -0.06195111
v 0.04199309 -0.01873559 -0.06210239
v 0.04202921 -0.01877647 -0.06205196
v 0.04156861 -0.02002570 -0.06195111
v 0.04032230 -0.02162016 -0.06238693
v 0.04370000 -0.00530302 -0.06385720
v 0.04265237 -0.00530302 -0.06459270
v -0.03257840 -0.00319070 -0.06924700
v 0.02843710 -0.01791792 -0.06931039
v -0.03441175 0.00022082 -0.06877228
v 0.03447001 -0.00740626 -0.06884864
v 0.03578858 -0.00163712 -0.06843226
v 0.03265472 -0.00950496 -0.06922539
v -0.04501451 -0.00108746 -0.06285589
v -0.04608020 -0.00108746 -0.06195183
v -0.04364175 0.00022082 -0.06390259
v 0.04071064 -0.02002570 -0.06268516
v 0.04102674 -0.01783161 -0.06317574
v 0.04002426 -0.01689128 -0.06425485
v 0.04298653 -0.01371598 -0.06283212
v 0.04125252 -0.01581922 -0.06363317
v 0.04306781 -0.00966849 -0.06364614
v 0.04353744 -0.00740626 -0.06372033
v -0.00325375 -0.04599593 -0.06195183
v -0.00310925 -0.04600502 -0.06195183
v -0.00100496 -0.04613676 -0.06195183
v 0.00109031 -0.04618673 -0.06195183
v 0.03265472 -0.03265422 -0.06195111
v -0.04594473 -0.00319070 -0.06195183
v -0.04566476 -0.00530302 -0.06195183
v -0.04559251 -0.00578908 -0.06195183
v -0.04533963 -0.00740626 -0.06195183
v -0.04518610 -0.00829662 -0.06195183
v -0.04495129 -0.00950950 -0.06195183
v -0.04473454 -0.01054068 -0.06195183
v -0.04427394 -0.01241679 -0.06195183
v -0.04392172 -0.01374778 -0.06195183
v -0.04291924 -0.01660055 -0.06195183
v -0.04252186 -0.01753633 -0.06195183
v -0.04202514 -0.01867654 -0.06195183
v -0.04184452 -0.01908992 -0.06195183
v -0.04109492 -0.02053902 -0.06195183
v -0.04046273 -0.02173373 -0.06195183
v -0.03982150 -0.02285122 -0.06195183
v -0.03972216 -0.02301929 -0.06195183
v -0.03858422 -0.02487723 -0.06195183
v -0.03812362 -0.02560860 -0.06195183
v -0.03759980 -0.02643081 -0.06195183
v -0.03718436 -0.02702590 -0.06195183
v -0.03637155 -0.02808433 -0.06195183
v -0.03545938 -0.02924724 -0.06195183
v -0.03361700 -0.03129597 -0.06195183
v -0.03333703 -0.03159124 -0.06195183
v -0.03152173 -0.03340375 -0.06195183
v -0.03123273 -0.03368085 -0.06195183
v -0.02930003 -0.03552062 -0.06195183
v -0.02915553 -0.03565690 -0.06195183
v -0.02699705 -0.03737401 -0.06195183
v -0.02659064 -0.03767383 -0.06195183
v -0.02566945 -0.03830980 -0.06195183
v -0.02529013 -0.03855964 -0.06195183
v -0.02468504 -0.03895031 -0.06195183
v -0.02331228 -0.03979070 -0.06195183
v -0.02286974 -0.04004963 -0.06195183
v -0.02180405 -0.04063109 -0.06195183
v -0.02037710 -0.04138062 -0.06195183
v -0.01921207 -0.04192573 -0.06195183
v -0.01862503 -0.04218012 -0.06195183
v -0.01652074 -0.04296600 -0.06195183
v -0.01574404 -0.04324310 -0.06195183
v -0.01363975 -0.04393358 -0.06195183
v -0.01233021 -0.04432425 -0.06195183
v -0.01122839 -0.04464677 -0.06195183
v -0.01037945 -0.04487844 -0.06195183
v -0.00943116 -0.04512829 -0.06195183
v -0.00805841 -0.04542810 -0.06195183
v -0.00732687 -0.04558255 -0.06195183
v -0.00521354 -0.04585511 -0.06195183
v 0.04063839 -0.02187909 -0.06195111
v 0.03991589 -0.02301475 -0.06205196
v 0.03845282 -0.02422763 -0.06256126
v 0.03751356 -0.02251506 -0.06399984
v 0.03791997 -0.02111139 -0.06425917
v 0.03924757 -0.02002570 -0.06373834
v 0.04248078 -0.00740626 -0.06449041
v -0.02836078 -0.01581922 -0.06923691
v -0.03257840 -0.00530302 -0.06922251
v -0.03432144 -0.00319070 -0.06877876
v -0.03439369 -0.00108746 -0.06877444
v -0.00521354 -0.03265422 -0.06925060
v 0.03054139 -0.01581922 -0.06914687
v 0.02849129 -0.01873559 -0.06917640
v 0.02633280 -0.02213348 -0.06906619
v 0.01792466 -0.02843866 -0.06911157
v 0.01371607 -0.03054189 -0.06916488
v 0.01161178 -0.03054189 -0.06921530
v 0.00109031 -0.03264513 -0.06923043
v -0.03864744 -0.00108746 -0.06671346
v -0.03864744 0.00022082 -0.06670338
v 0.03423519 -0.00950496 -0.06877948
v 0.03265472 -0.01161274 -0.06905322
v -0.04365078 -0.00108746 -0.06390763
v -0.04363272 -0.00319070 -0.06387737
v -0.04495129 -0.00319070 -0.06282492
v -0.04258508 0.00022082 -0.06459918
v -0.04260315 -0.00108746 -0.06460278
v 0.03994298 -0.01873559 -0.06368648
v 0.03967204 -0.01829495 -0.06402649
v 0.03819994 -0.02002570 -0.06441837
v 0.03896760 -0.01772258 -0.06462800
v 0.03391910 -0.01161274 -0.06860299
v 0.03895857 -0.01581922 -0.06504509
v 0.04053905 -0.01371598 -0.06458261
v 0.04159571 -0.01371598 -0.06388458
v 0.04230015 -0.00907795 -0.06437299
v -0.00310925 -0.04502381 -0.06285229
v -0.00521354 -0.04495113 -0.06279538
v -0.00100496 -0.04508287 -0.06285733
v 0.00109031 -0.04615947 -0.06197848
v 0.00251725 -0.04613221 -0.06195183
v 0.02924992 -0.03577955 -0.06195183
v 0.02936732 -0.03568416 -0.06195183
v 0.02960214 -0.03548428 -0.06195183
v 0.03126390 -0.03403518 -0.06195183
v 0.03160709 -0.03372628 -0.06195183
v 0.03200446 -0.03333561 -0.06195183
v 0.03335013 -0.03193648 -0.06195111
v 0.00319460 -0.04610496 -0.06195183
v 0.00529890 -0.04591417 -0.06195183
v 0.00740319 -0.04564615 -0.06195183
v 0.00950748 -0.04523277 -0.06195183
v 0.01287616 -0.04437421 -0.06195183
v 0.01411345 -0.04402443 -0.06195183
v 0.01415861 -0.04401080 -0.06195183
v 0.01582037 -0.04341572 -0.06195183
v 0.01765372 -0.04266164 -0.06195183
v 0.01872845 -0.04218921 -0.06195183
v 0.01932451 -0.04191665 -0.06195183
v 0.02294607 -0.04009505 -0.06195183
v 0.02312669 -0.03999057 -0.06195183
v 0.02344279 -0.03979978 -0.06195183
v 0.02572771 -0.03830526 -0.06195183
v 0.02688371 -0.03754209 -0.06195183
v -0.04481581 -0.00530302 -0.06272263
v -0.04466228 -0.00740626 -0.06257927
v -0.04447262 -0.00950950 -0.06242223
v -0.04429200 -0.01113576 -0.06227384
v -0.04411137 -0.01253490 -0.06210167
v -0.04289215 -0.01371598 -0.06282420
v -0.04254896 -0.01581922 -0.06257063
v -0.04225093 -0.01734100 -0.06233507
v -0.04192580 -0.01874922 -0.06203107
v -0.04017372 -0.02148388 -0.06234371
v -0.03976732 -0.02287847 -0.06199001
v -0.03793396 -0.02543597 -0.06222341
v -0.03606448 -0.02780269 -0.06239197
v -0.03548648 -0.02920182 -0.06196552
v -0.03344540 -0.03140045 -0.06201378
v -0.03133208 -0.03351278 -0.06201090
v -0.02918263 -0.03558876 -0.06198929
v -0.02778277 -0.03617476 -0.06241431
v -0.02547076 -0.03807813 -0.06227888
v -0.02529013 -0.03824166 -0.06223493
v -0.02294200 -0.03990426 -0.06204836
v -0.02154214 -0.04031764 -0.06238837
v -0.01870631 -0.04203930 -0.06205989
v -0.01574404 -0.04257988 -0.06256414
v -0.01729743 -0.04229823 -0.06231129
v -0.01242956 -0.04416071 -0.06208294
v -0.01102970 -0.04437421 -0.06228104
v -0.00943116 -0.04459226 -0.06245537
v -0.00732687 -0.04481939 -0.06265347
v -0.00645986 -0.04487391 -0.06271182
v 0.04006039 -0.02294207 -0.06195111
v 0.03996104 -0.02310106 -0.06195111
v 0.03979848 -0.02335091 -0.06195111
v 0.03824509 -0.02564948 -0.06195111
v 0.03802834 -0.02546323 -0.06224646
v 0.03614983 -0.02785266 -0.06241359
v 0.03682718 -0.02428669 -0.06365190
v 0.03611371 -0.02361892 -0.06441549
v 0.03682718 -0.02194269 -0.06457253
v 0.02991823 -0.01955326 -0.06870240
v 0.03933788 -0.00950496 -0.06598877
v -0.02416122 -0.02213348 -0.06920450
v -0.02529013 -0.02100237 -0.06920377
v -0.02626552 -0.02002570 -0.06920305
v -0.02836078 -0.01792700 -0.06916200
v -0.03257840 -0.00740626 -0.06914399
v -0.03421306 -0.00530302 -0.06876651
v 0.00109031 -0.03265422 -0.06922971
v 0.00109031 -0.03475292 -0.06892139
v -0.00100496 -0.03475292 -0.06892211
v -0.00521354 -0.03461209 -0.06888105
v -0.00645986 -0.03345827 -0.06907843
v -0.00645986 -0.03265422 -0.06922971
v -0.00645986 -0.03264513 -0.06923043
v -0.01153546 -0.03054189 -0.06920089
v 0.03266375 -0.01351610 -0.06878524
v 0.03195028 -0.01581922 -0.06868151
v 0.03058655 -0.01780889 -0.06881838
v 0.02857257 -0.02016652 -0.06894156
v 0.02785006 -0.02213348 -0.06865414
v 0.02633280 -0.02371432 -0.06864621
v 0.02384920 -0.02587661 -0.06866350
v 0.02225969 -0.02648078 -0.06886088
v 0.02004702 -0.02850679 -0.06879029
v 0.01792466 -0.03013760 -0.06870961
v 0.01596487 -0.03070997 -0.06885152
v 0.01371607 -0.03228627 -0.06877228
v 0.01233428 -0.03265422 -0.06883567
v 0.01172015 -0.03281321 -0.06886376
v 0.00957973 -0.03265422 -0.06907915
v 0.00951651 -0.03265422 -0.06908419
v 0.00950748 -0.03264513 -0.06908636
v 0.00740319 -0.03264513 -0.06913678
v 0.00530793 -0.03265422 -0.06917280
v 0.00319460 -0.03264513 -0.06921026
v -0.04257605 -0.00319070 -0.06458477
v -0.03857518 -0.00319070 -0.06666376
v -0.04244961 -0.00530302 -0.06451418
v -0.04350628 -0.00530302 -0.06377508
v 0.03167934 -0.01702756 -0.06850934
v 0.04086418 -0.01161274 -0.06479872
v 0.04126155 -0.00966849 -0.06487580
v -0.00310925 -0.04374733 -0.06390403
v -0.00521354 -0.04367919 -0.06384784
v 0.00109031 -0.04511012 -0.06286093
v 0.00319460 -0.04506469 -0.06284292
v 0.02930410 -0.03564781 -0.06202315
v 0.02790425 -0.03618839 -0.06243015
v 0.03152580 -0.03363543 -0.06207861
v 0.03221218 -0.03223175 -0.06254109
v 0.03360300 -0.03149131 -0.06205916
v 0.03368429 -0.03155944 -0.06195111
v 0.00529890 -0.04497384 -0.06278097
v 0.00740319 -0.04485119 -0.06267652
v 0.00950748 -0.04464677 -0.06250075
v 0.01161178 -0.04437421 -0.06227311
v 0.01270457 -0.04423339 -0.06215209
v 0.01410442 -0.04401989 -0.06196120
v 0.01582037 -0.04267072 -0.06259152
v 0.01740988 -0.04235274 -0.06234659
v 0.01881876 -0.04203930 -0.06206060
v 0.02162750 -0.04029947 -0.06236028
v 0.02302735 -0.03992697 -0.06206205
v 0.02552902 -0.03807358 -0.06226951
v -0.04331662 -0.00740626 -0.06363173
v -0.04293730 -0.00958673 -0.06359499
v -0.04200708 -0.01034535 -0.06419146
v -0.04184452 -0.01161728 -0.06407620
v -0.04153745 -0.01371598 -0.06387593
v -0.04092332 -0.01598730 -0.06372322
v -0.03991182 -0.01680497 -0.06420803
v -0.03964991 -0.01792700 -0.06403874
v -0.04113104 -0.01799514 -0.06293297
v -0.04055304 -0.02002570 -0.06264050
v -0.03888225 -0.02023466 -0.06380174
v -0.03783462 -0.02107050 -0.06424548
v -0.03899062 -0.02216528 -0.06293657
v -0.03830425 -0.02422309 -0.06252020
v -0.03673280 -0.02426397 -0.06361444
v -0.03676893 -0.02621276 -0.06266788
v -0.03505298 -0.02633087 -0.06379165
v -0.03363506 -0.02739385 -0.06425269
v -0.03455625 -0.02829783 -0.06312747
v -0.03408663 -0.02999678 -0.06245969
v -0.03252421 -0.03048284 -0.06317502
v -0.03204555 -0.03210910 -0.06248635
v -0.02993223 -0.03418963 -0.06246834
v -0.02843303 -0.03483014 -0.06291712
v -0.02730412 -0.03368994 -0.06423972
v -0.02647324 -0.03484831 -0.06389466
v -0.02621133 -0.03686524 -0.06271758
v -0.02529013 -0.03545248 -0.06405243
v -0.02494695 -0.03562510 -0.06409853
v -0.02421541 -0.03681073 -0.06365694
v -0.02244527 -0.03748304 -0.06398039
v -0.02529013 -0.03813718 -0.06231706
v -0.02104542 -0.03792822 -0.06426349
v -0.01995263 -0.03924558 -0.06373907
v -0.01995263 -0.04070831 -0.06268661
v -0.02416122 -0.03848242 -0.06256990
v -0.02199371 -0.03891397 -0.06318510
v -0.01591564 -0.04100358 -0.06372033
v -0.01363975 -0.04163046 -0.06389466
v -0.01363975 -0.04292057 -0.06284221
v -0.01793865 -0.04122163 -0.06293153
v -0.01153546 -0.04195299 -0.06410933
v -0.01042461 -0.04210290 -0.06422531
v -0.00961179 -0.04304776 -0.06364181
v -0.00732687 -0.04351111 -0.06370521
v 0.03647496 -0.02814338 -0.06195111
v 0.03563505 -0.02928813 -0.06195111
v 0.03560795 -0.02925633 -0.06199001
v 0.03420810 -0.03008763 -0.06248706
v 0.03484933 -0.02850225 -0.06291784
v 0.03368429 -0.02735751 -0.06422387
v 0.03484933 -0.02652621 -0.06388746
v 0.03561699 -0.02502259 -0.06410213
v 0.03420810 -0.02595383 -0.06451058
v 0.03023433 -0.01873559 -0.06875715
v 0.03217606 -0.02843866 -0.06454948
v 0.02742559 -0.02321917 -0.06847188
v -0.01363975 -0.03054189 -0.06913606
v -0.01995263 -0.02632633 -0.06912093
v -0.02426960 -0.02436391 -0.06887024
v -0.02529013 -0.02217891 -0.06903593
v -0.02637389 -0.02221979 -0.06887385
v -0.02840593 -0.02000299 -0.06879965
v -0.02995932 -0.01792700 -0.06873770
v -0.03057345 -0.01583285 -0.06885368
v -0.03047410 -0.01371598 -0.06910365
v -0.03257840 -0.00950950 -0.06895597
v -0.03404147 -0.00740626 -0.06870240
v -0.03932478 -0.00740626 -0.06603704
v -0.03950541 -0.00530302 -0.06607522
v 0.00319460 -0.03265422 -0.06920954
v 0.00529890 -0.03461209 -0.06880253
v 0.00338426 -0.03496188 -0.06878956
v 0.00281529 -0.03583861 -0.06847404
v 0.00109031 -0.03584769 -0.06847981
v -0.00100496 -0.03583406 -0.06847188
v -0.00245900 -0.03581589 -0.06846468
v -0.00314538 -0.03495279 -0.06881334
v -0.00386788 -0.03579318 -0.06843946
v -0.00645986 -0.03446673 -0.06883999
v -0.00943116 -0.03264059 -0.06908852
v -0.00732687 -0.03264059 -0.06921530
v 0.02525808 -0.02525881 -0.06843226
v 0.02633280 -0.03265422 -0.06514234
v 0.02164556 -0.02785266 -0.06861884
v 0.01937870 -0.02972422 -0.06856265
v 0.01535977 -0.03189106 -0.06859579
v 0.01703959 -0.03589766 -0.06639074
v 0.01108796 -0.03390799 -0.06856769
v 0.00950748 -0.03413512 -0.06866854
v 0.00740319 -0.03436679 -0.06874274
v -0.04099557 -0.00530302 -0.06529074
v -0.04099557 -0.00740626 -0.06513442
v -0.04117620 -0.00958673 -0.06481313
v -0.04225996 -0.00740626 -0.06439676
v -0.04212449 -0.00894167 -0.06430527
v -0.00521354 -0.04262530 -0.06458622
v -0.00310925 -0.04269344 -0.06463160
v -0.00100496 -0.04271615 -0.06466618
v -0.00100496 -0.04377004 -0.06390979
v -0.00645986 -0.04295691 -0.06422459
v -0.00645986 -0.04252536 -0.06452931
v 0.00109031 -0.04377913 -0.06391411
v 0.00319460 -0.04375642 -0.06389610
v 0.03012595 -0.03424414 -0.06249931
v 0.02837388 -0.03469386 -0.06316709
v 0.02626959 -0.03687887 -0.06273343
v 0.02633280 -0.03519355 -0.06383775
v 0.02743462 -0.03373991 -0.06427286
v 0.03056849 -0.03266785 -0.06322112
v 0.03056849 -0.03265422 -0.06322904
v 0.03100199 -0.03098707 -0.06394293
v 0.03264569 -0.03053735 -0.06321608
v 0.03553571 -0.02941078 -0.06195111
v 0.00529890 -0.04366102 -0.06383271
v 0.00740319 -0.04348386 -0.06372826
v 0.00901076 -0.04225735 -0.06434345
v 0.00962489 -0.04304322 -0.06365694
v 0.01371607 -0.04163046 -0.06387233
v 0.01582037 -0.04128068 -0.06364469
v 0.01687703 -0.04001328 -0.06424980
v 0.01784338 -0.04102629 -0.06317790
v 0.02001992 -0.04069468 -0.06265347
v 0.02001992 -0.03922741 -0.06370665
v 0.02107659 -0.03791005 -0.06424908
v 0.02205197 -0.03891851 -0.06317069
v 0.02422851 -0.03849605 -0.06256414
v 0.02430979 -0.03682436 -0.06366342
v 0.02505939 -0.03565236 -0.06411726
v -0.04079688 -0.01161728 -0.06478432
v -0.04048079 -0.01371598 -0.06459774
v -0.04018276 -0.01540130 -0.06441261
v -0.03859325 -0.01792700 -0.06469931
v -0.03817781 -0.01967137 -0.06445943
v -0.03645283 -0.02212894 -0.06464385
v -0.03600126 -0.02357804 -0.06440613
v -0.03750949 -0.02212894 -0.06403658
v -0.03552260 -0.02498625 -0.06409348
v -0.03400534 -0.02633087 -0.06444863
v -0.03257840 -0.02633087 -0.06505013
v -0.03240680 -0.02822969 -0.06448248
v -0.03160302 -0.02956523 -0.06428871
v -0.03300287 -0.02879298 -0.06386369
v -0.03091664 -0.03096890 -0.06388890
v -0.03041992 -0.03259971 -0.06317934
v -0.02951679 -0.03168210 -0.06429879
v -0.02836078 -0.03323568 -0.06395878
v -0.02836078 -0.03218179 -0.06453219
v -0.02590426 -0.03421689 -0.06452787
v -0.02529013 -0.03512087 -0.06425269
v -0.02354709 -0.03607937 -0.06441117
v -0.02186727 -0.03681073 -0.06458190
v -0.01680071 -0.03159579 -0.06845676
v -0.01995263 -0.03819169 -0.06442269
v -0.01784834 -0.03973164 -0.06405386
v -0.01532860 -0.04026313 -0.06440324
v -0.01672846 -0.03998149 -0.06421163
v -0.01363975 -0.04057657 -0.06460423
v -0.01153546 -0.04089910 -0.06481385
v -0.00902475 -0.04226643 -0.06435714
v -0.00732687 -0.04244814 -0.06448752
v 0.03322369 -0.02843866 -0.06396166
v 0.03167934 -0.02958340 -0.06429591
v 0.03039689 -0.03038745 -0.06453075
v 0.02843710 -0.03054189 -0.06523887
v -0.01363975 -0.03225901 -0.06876939
v -0.01574404 -0.03054189 -0.06892859
v -0.01784834 -0.02842957 -0.06905394
v -0.02575073 -0.02374612 -0.06868871
v -0.02215627 -0.02645352 -0.06880541
v -0.02364644 -0.02583573 -0.06864045
v -0.02772859 -0.02157019 -0.06864189
v -0.02961613 -0.01928979 -0.06856265
v -0.03171139 -0.01513328 -0.06856481
v -0.03200943 -0.01371598 -0.06867286
v -0.03378859 -0.00950950 -0.06855761
v -0.03908094 -0.00950950 -0.06596140
v 0.00421514 -0.03580226 -0.06845243
v 0.00319460 -0.04270253 -0.06463952
v 0.00109031 -0.04272524 -0.06466618
v -0.00943116 -0.03923649 -0.06597292
v -0.00732687 -0.03436225 -0.06881046
v -0.01158964 -0.03279050 -0.06883783
v 0.02825647 -0.03249523 -0.06451418
v 0.02815713 -0.03265422 -0.06448392
v 0.02633280 -0.03413966 -0.06448032
v 0.02430979 -0.03487102 -0.06480233
v 0.02212422 -0.03475292 -0.06549028
v 0.02191650 -0.03682436 -0.06459486
v 0.02001992 -0.03817352 -0.06441693
v 0.01771694 -0.03896394 -0.06463088
v 0.01582037 -0.03896394 -0.06505878
v 0.01161178 -0.04086276 -0.06479368
v 0.01371607 -0.04058112 -0.06462440
v 0.02883448 -0.03309940 -0.06390259
v 0.02960214 -0.03169572 -0.06430311
v 0.02365954 -0.03610208 -0.06442990
v 0.00529890 -0.04260713 -0.06457109
v 0.00740319 -0.04242997 -0.06445367
v 0.01582037 -0.04022679 -0.06439172
v 0.01827688 -0.03966350 -0.06400992
v 0.02247644 -0.03750575 -0.06398111
v -0.03363506 -0.01060428 -0.06846180
v -0.03908094 -0.01598730 -0.06484915
v -0.03476398 -0.02426397 -0.06476054
v -0.03047410 -0.02843411 -0.06517332
v -0.03032057 -0.03037836 -0.06451418
v -0.02836078 -0.03053735 -0.06520933
v -0.02647324 -0.03284955 -0.06490822
v -0.02529013 -0.03445310 -0.06462440
v -0.02333034 -0.03176386 -0.06641019
v -0.02421541 -0.03484831 -0.06479728
v -0.02205693 -0.03474383 -0.06548379
v -0.01784834 -0.03868683 -0.06468707
v -0.01917594 -0.02966062 -0.06852735
v -0.01764062 -0.03043741 -0.06863325
v -0.01574404 -0.03182292 -0.06856769
v -0.01363975 -0.03650183 -0.06668177
v -0.01092133 -0.03388073 -0.06855256
v -0.00943116 -0.03410786 -0.06867791
v -0.00961179 -0.04126705 -0.06485419
v -0.01990748 -0.02844774 -0.06873482
v -0.02152408 -0.02776635 -0.06858498
v -0.02292393 -0.02723940 -0.06834870
f 1 2 5
f 1 5 16
f 1 16 41
f 1 41 69
f 1 69 158
f 1 158 164
f 1 164 75
f 1 75 50
f 1 50 25
f 1 25 12
f 1 12 3
f 1 3 4
f 1 4 2
f 2 4 6
f 2 6 7
f 2 7 8
f 2 8 9
f 2 9 10
f 2 10 11
f 2 11 5
f 3 12 4
f 4 13 14
f 4 14 15
f 4 15 6
f 4 12 13
f 5 11 17
f 5 17 18
f 5 18 16
f 6 15 19
f 6 19 7
f 7 19 8
f 8 19 20
f 8 20 21
f 8 21 9
f 9 22 23
f 9 23 10
f 9 21 22
f 10 23 11
f 11 23 24
f 11 24 17
f 12 25 34
f 12 34 13
f 13 26 27
f 13 27 28
f 13 28 29
f 13 29 30
f 13 30 31
f 13 31 32
f 13 32 33
f 13 33 14
f 13 34 60
f 13 60 87
f 13 87 186
f 13 186 294
f 13 294 420
f 13 420 353
f 13 353 352
f 13 352 236
f 13 236 235
f 13 235 234
f 13 234 233
f 13 233 138
f 13 138 63
f 13 63 35
f 13 35 36
f 13 36 26
f 14 33 37
f 14 37 15
f 15 38 39
f 15 39 19
f 15 37 38
f 16 40 41
f 16 18 42
f 16 42 43
f 16 43 40
f 17 24 18
f 18 24 42
f 19 39 20
f 20 39 44
f 20 44 45
f 20 45 21
f 21 45 46
f 21 46 22
f 22 46 24
f 22 24 23
f 24 46 47
f 24 47 48
f 24 48 49
f 24 49 43
f 24 43 42
f 25 50 51
f 25 51 34
f 26 36 52
f 26 52 53
f 26 53 27
f 27 53 54
f 27 54 28
f 28 54 55
f 28 55 29
f 29 56 57
f 29 57 30
f 29 55 56
f 30 57 58
f 30 58 31
f 31 58 59
f 31 59 32
f 32 59 38
f 32 38 37
f 32 37 33
f 34 51 60
f 35 61 62
f 35 62 52
f 35 52 36
f 35 63 64
f 35 64 61
f 38 59 39
f 39 65 66
f 39 66 44
f 39 59 65
f 40 67 41
f 40 43 49
f 40 49 68
f 40 68 67
f 41 67 69
f 44 66 45
f 45 66 70
f 45 70 47
f 45 47 71
f 45 71 46
f 46 71 47
f 47 70 72
f 47 72 48
f 48 72 68
f 48 68 49
f 50 73 74
f 50 74 51
f 50 75 161
f 50 161 73
f 51 74 60
f 52 62 53
f 53 62 61
f 53 61 76
f 53 76 77
f 53 77 78
f 53 78 54
f 54 79 55
f 54 78 80
f 54 80 79
f 55 79 56
f 56 79 81
f 56 81 57
f 57 81 82
f 57 82 58
f 58 82 65
f 58 65 59
f 60 83 84
f 60 84 85
f 60 85 86
f 60 86 87
f 60 74 88
f 60 88 89
f 60 89 90
f 60 90 91
f 60 91 92
f 60 92 93
f 60 93 94
f 60 94 95
f 60 95 96
f 60 96 97
f 60 97 98
f 60 98 99
f 60 99 100
f 60 100 101
f 60 101 102
f 60 102 103
f 60 103 104
f 60 104 105
f 60 105 106
f 60 106 107
f 60 107 108
f 60 108 109
f 60 109 110
f 60 110 111
f 60 111 112
f 60 112 113
f 60 113 114
f 60 114 115
f 60 115 116
f 60 116 117
f 60 117 118
f 60 118 119
f 60 119 120
f 60 120 121
f 60 121 122
f 60 122 123
f 60 123 124
f 60 124 125
f 60 125 126
f 60 126 127
f 60 127 128
f 60 128 129
f 60 129 130
f 60 130 131
f 60 131 132
f 60 132 133
f 60 133 134
f 60 134 135
f 60 135 136
f 60 136 137
f 60 137 83
f 61 64 76
f 63 138 64
f 64 139 140
f 64 140 141
f 64 141 142
f 64 142 143
f 64 143 76
f 64 138 139
f 65 82 144
f 65 144 66
f 66 144 70
f 67 145 146
f 67 146 147
f 67 147 148
f 67 148 69
f 67 68 149
f 67 149 145
f 68 72 150
f 68 150 151
f 68 151 152
f 68 152 153
f 68 153 154
f 68 154 155
f 68 155 156
f 68 156 149
f 69 148 157
f 69 157 158
f 70 159 72
f 70 144 159
f 72 160 150
f 72 159 160
f 73 161 162
f 73 162 163
f 73 163 74
f 74 163 88
f 75 164 165
f 75 165 161
f 76 143 166
f 76 166 78
f 76 78 77
f 78 166 143
f 78 143 167
f 78 167 142
f 78 142 168
f 78 168 169
f 78 169 170
f 78 170 171
f 78 171 172
f 78 172 173
f 78 173 80
f 79 80 173
f 79 173 174
f 79 174 81
f 81 174 82
f 82 174 144
f 83 175 84
f 83 137 176
f 83 176 175
f 84 175 85
f 85 175 177
f 85 177 178
f 85 178 86
f 86 178 179
f 86 179 87
f 87 180 181
f 87 181 182
f 87 182 183
f 87 183 184
f 87 184 185
f 87 185 186
f 87 179 187
f 87 187 188
f 87 188 189
f 87 189 190
f 87 190 191
f 87 191 192
f 87 192 193
f 87 193 194
f 87 194 195
f 87 195 196
f 87 196 197
f 87 197 198
f 87 198 199
f 87 199 200
f 87 200 201
f 87 201 202
f 87 202 180
f 88 163 203
f 88 203 89
f 89 203 204
f 89 204 90
f 90 204 91
f 91 204 205
f 91 205 92
f 92 205 93
f 93 205 206
f 93 206 94
f 94 206 207
f 94 207 95
f 95 207 96
f 96 207 208
f 96 208 209
f 96 209 97
f 97 209 210
f 97 210 98
f 98 210 211
f 98 211 99
f 99 211 100
f 100 211 212
f 100 212 101
f 101 212 102
f 102 212 213
f 102 213 103
f 103 213 104
f 104 213 105
f 105 214 106
f 105 213 214
f 106 214 107
f 107 214 215
f 107 215 108
f 108 215 109
f 109 215 216
f 109 216 110
f 110 216 111
f 111 216 217
f 111 217 112
f 112 217 113
f 113 217 218
f 113 218 114
f 114 219 115
f 114 218 219
f 115 219 116
f 116 219 220
f 116 220 117
f 117 220 221
f 117 221 118
f 118 221 119
f 119 221 120
f 120 221 121
f 121 221 222
f 121 222 223
f 121 223 122
f 122 223 123
f 123 223 224
f 123 224 124
f 124 224 125
f 125 224 225
f 125 225 126
f 126 225 127
f 127 225 128
f 128 226 129
f 128 225 227
f 128 227 226
f 129 226 130
f 130 228 131
f 130 226 229
f 130 229 228
f 131 228 229
f 131 229 132
f 132 229 133
f 133 229 134
f 134 230 135
f 134 229 230
f 135 230 136
f 136 231 232
f 136 232 176
f 136 176 137
f 136 230 231
f 138 233 139
f 139 233 234
f 139 234 235
f 139 235 236
f 139 236 237
f 139 237 140
f 140 237 238
f 140 238 239
f 140 239 141
f 141 239 240
f 141 240 142
f 142 240 241
f 142 241 242
f 142 242 168
f 142 167 143
f 144 174 243
f 144 243 159
f 145 244 245
f 145 245 246
f 145 246 247
f 145 247 146
f 145 149 244
f 146 248 249
f 146 249 147
f 146 247 248
f 147 249 157
f 147 157 148
f 149 156 250
f 149 250 251
f 149 251 252
f 149 252 253
f 149 253 254
f 149 254 255
f 149 255 256
f 149 256 257
f 149 257 244
f 150 160 258
f 150 258 259
f 150 259 260
f 150 260 261
f 150 261 151
f 151 261 152
f 152 261 262
f 152 262 263
f 152 263 264
f 152 264 265
f 152 265 153
f 153 266 267
f 153 267 268
f 153 268 154
f 153 265 266
f 154 268 269
f 154 269 270
f 154 270 271
f 154 271 272
f 154 272 273
f 154 273 274
f 154 274 275
f 154 275 155
f 155 275 276
f 155 276 277
f 155 277 156
f 156 277 377
f 156 377 250
f 157 278 165
f 157 165 158
f 157 249 279
f 157 279 278
f 158 165 164
f 159 170 160
f 159 243 170
f 160 170 258
f 161 165 278
f 161 278 162
f 162 278 280
f 162 280 281
f 162 281 163
f 163 281 203
f 168 242 282
f 168 282 169
f 169 282 259
f 169 259 170
f 170 259 258
f 170 243 283
f 170 283 172
f 170 172 171
f 172 283 174
f 172 174 173
f 174 283 284
f 174 284 243
f 175 285 177
f 175 176 286
f 175 286 285
f 176 232 286
f 177 285 287
f 177 287 178
f 178 287 288
f 178 288 187
f 178 187 179
f 180 289 181
f 180 202 290
f 180 290 289
f 181 289 182
f 182 289 183
f 183 291 184
f 183 289 291
f 184 291 185
f 185 291 292
f 185 292 186
f 186 293 294
f 186 292 293
f 187 288 295
f 187 295 188
f 188 295 296
f 188 296 189
f 189 296 297
f 189 297 190
f 190 297 298
f 190 298 299
f 190 299 191
f 191 299 300
f 191 300 192
f 192 300 193
f 193 300 194
f 194 300 301
f 194 301 302
f 194 302 195
f 195 302 303
f 195 303 196
f 196 303 197
f 197 303 304
f 197 304 198
f 198 304 305
f 198 305 199
f 199 305 200
f 200 305 306
f 200 306 201
f 201 306 202
f 202 306 290
f 203 281 204
f 204 281 307
f 204 307 205
f 205 307 308
f 205 308 309
f 205 309 206
f 206 208 207
f 206 309 310
f 206 310 208
f 208 310 311
f 208 311 209
f 209 311 312
f 209 312 210
f 210 312 313
f 210 313 314
f 210 314 315
f 210 315 316
f 210 316 211
f 211 316 212
f 212 317 318
f 212 318 319
f 212 319 320
f 212 320 213
f 212 316 317
f 213 320 214
f 214 320 321
f 214 321 322
f 214 322 215
f 215 322 323
f 215 323 324
f 215 324 325
f 215 325 326
f 215 326 216
f 216 326 217
f 217 327 328
f 217 328 218
f 217 326 327
f 218 328 329
f 218 329 219
f 219 330 220
f 219 329 330
f 220 331 332
f 220 332 333
f 220 333 221
f 220 330 331
f 221 334 335
f 221 335 336
f 221 336 337
f 221 337 338
f 221 338 224
f 221 224 223
f 221 223 222
f 221 333 334
f 224 339 340
f 224 340 341
f 224 341 225
f 224 338 342
f 224 342 343
f 224 343 339
f 225 341 227
f 226 227 344
f 226 344 345
f 226 345 346
f 226 346 229
f 227 341 347
f 227 347 344
f 229 346 345
f 229 345 348
f 229 348 230
f 230 348 349
f 230 349 350
f 230 350 351
f 230 351 231
f 231 351 286
f 231 286 232
f 236 352 238
f 236 238 237
f 238 352 353
f 238 353 354
f 238 354 355
f 238 355 356
f 238 356 357
f 238 357 358
f 238 358 359
f 238 359 239
f 239 359 240
f 240 359 357
f 240 357 360
f 240 360 242
f 240 242 241
f 242 361 259
f 242 259 282
f 242 360 362
f 242 362 363
f 242 363 262
f 242 262 261
f 242 261 361
f 243 284 283
f 244 257 364
f 244 364 365
f 244 365 366
f 244 366 367
f 244 367 245
f 245 367 246
f 246 368 247
f 246 367 368
f 247 368 369
f 247 369 370
f 247 370 371
f 247 371 372
f 247 372 248
f 248 372 373
f 248 373 374
f 248 374 249
f 249 374 375
f 249 375 376
f 249 376 279
f 250 377 251
f 251 377 276
f 251 276 275
f 251 275 274
f 251 274 273
f 251 273 378
f 251 378 379
f 251 379 380
f 251 380 381
f 251 381 252
f 252 381 382
f 252 382 383
f 252 383 384
f 252 384 253
f 253 384 385
f 253 385 386
f 253 386 254
f 254 386 387
f 254 387 388
f 254 388 255
f 255 388 256
f 256 388 257
f 257 388 364
f 259 361 260
f 260 361 261
f 262 363 263
f 263 363 389
f 263 389 264
f 264 389 390
f 264 390 391
f 264 391 265
f 265 391 266
f 266 391 392
f 266 392 267
f 267 392 393
f 267 393 269
f 267 269 268
f 269 393 394
f 269 394 395
f 269 395 270
f 270 395 271
f 271 395 396
f 271 396 273
f 271 273 272
f 273 396 397
f 273 397 378
f 276 377 277
f 278 279 376
f 278 376 398
f 278 398 280
f 280 398 375
f 280 375 399
f 280 399 400
f 280 400 401
f 280 401 281
f 281 401 402
f 281 402 307
f 285 286 403
f 285 403 404
f 285 404 405
f 285 405 406
f 285 406 287
f 286 351 407
f 286 407 408
f 286 408 403
f 287 409 410
f 287 410 288
f 287 406 409
f 288 410 295
f 289 411 291
f 289 290 412
f 289 412 411
f 290 306 413
f 290 413 414
f 290 414 415
f 290 415 412
f 291 411 416
f 291 416 292
f 292 416 417
f 292 417 418
f 292 418 419
f 292 419 355
f 292 355 293
f 293 355 420
f 293 420 294
f 295 421 296
f 295 410 421
f 296 421 422
f 296 422 297
f 297 422 423
f 297 423 424
f 297 424 425
f 297 425 298
f 298 425 299
f 299 425 426
f 299 426 301
f 299 301 300
f 301 426 302
f 302 426 427
f 302 427 428
f 302 428 429
f 302 429 304
f 302 304 303
f 304 429 430
f 304 430 431
f 304 431 432
f 304 432 305
f 305 433 306
f 305 432 433
f 306 434 435
f 306 435 413
f 306 433 434
f 307 402 309
f 307 309 308
f 309 402 436
f 309 436 310
f 310 436 437
f 310 437 311
f 311 437 438
f 311 438 312
f 312 438 313
f 313 438 439
f 313 439 440
f 313 440 314
f 314 317 315
f 314 440 318
f 314 318 317
f 315 317 316
f 318 440 441
f 318 441 442
f 318 442 443
f 318 443 319
f 319 443 320
f 320 443 321
f 321 443 442
f 321 442 444
f 321 444 323
f 321 323 322
f 323 444 324
f 324 326 325
f 324 444 442
f 324 442 445
f 324 445 446
f 324 446 447
f 324 447 448
f 324 448 449
f 324 449 326
f 326 449 327
f 327 448 450
f 327 450 328
f 327 449 448
f 328 450 451
f 328 451 329
f 329 451 452
f 329 452 330
f 330 452 453
f 330 453 331
f 331 453 452
f 331 452 454
f 331 454 455
f 331 455 456
f 331 456 335
f 331 335 334
f 331 334 332
f 332 334 333
f 335 456 457
f 335 457 336
f 336 457 337
f 337 457 339
f 337 339 342
f 337 342 338
f 339 343 342
f 339 457 458
f 339 458 459
f 339 459 460
f 339 460 340
f 340 460 461
f 340 461 341
f 341 461 344
f 341 344 347
f 344 462 345
f 344 461 463
f 344 463 462
f 345 462 464
f 345 464 348
f 348 465 349
f 348 464 465
f 349 465 466
f 349 466 351
f 349 351 350
f 351 466 467
f 351 467 407
f 353 420 354
f 354 420 355
f 355 419 468
f 355 468 356
f 356 468 357
f 357 359 358
f 357 468 469
f 357 469 362
f 357 362 360
f 362 469 470
f 362 470 363
f 363 470 471
f 363 471 389
f 364 388 387
f 364 387 472
f 364 472 473
f 364 473 474
f 364 474 365
f 365 474 366
f 366 475 368
f 366 368 367
f 366 474 476
f 366 476 477
f 366 477 475
f 368 475 478
f 368 478 369
f 369 479 370
f 369 478 479
f 370 479 439
f 370 439 480
f 370 480 371
f 371 480 481
f 371 481 373
f 371 373 372
f 373 481 482
f 373 482 374
f 374 482 483
f 374 483 375
f 375 483 399
f 375 398 376
f 378 397 484
f 378 484 379
f 379 484 380
f 380 485 486
f 380 486 381
f 380 484 485
f 381 486 405
f 381 405 382
f 382 405 383
f 383 405 404
f 383 404 385
f 383 385 384
f 385 404 403
f 385 403 408
f 385 408 467
f 385 467 487
f 385 487 488
f 385 488 386
f 386 488 387
f 387 489 472
f 387 488 489
f 389 471 390
f 390 471 490
f 390 490 491
f 390 491 415
f 390 415 492
f 390 492 493
f 390 493 392
f 390 392 391
f 392 493 494
f 392 494 394
f 392 394 393
f 394 494 495
f 394 495 496
f 394 496 497
f 394 497 498
f 394 498 395
f 395 499 396
f 395 498 500
f 395 500 499
f 396 499 484
f 396 484 397
f 399 483 400
f 400 483 436
f 400 436 402
f 400 402 401
f 405 486 409
f 405 409 406
f 407 467 408
f 409 486 410
f 410 485 421
f 410 486 485
f 411 412 415
f 411 415 501
f 411 501 416
f 413 435 414
f 414 435 415
f 415 491 502
f 415 502 501
f 415 435 503
f 415 503 492
f 416 501 417
f 417 501 502
f 417 502 418
f 418 502 469
f 418 469 419
f 419 469 468
f 421 504 422
f 421 485 504
f 422 504 505
f 422 505 423
f 423 499 500
f 423 500 425
f 423 425 424
f 423 505 499
f 425 500 426
f 426 500 506
f 426 506 427
f 427 506 497
f 427 497 496
f 427 496 431
f 427 431 507
f 427 507 429
f 427 429 428
f 429 507 430
f 430 507 431
f 431 496 495
f 431 495 503
f 431 503 508
f 431 508 432
f 432 508 433
f 433 508 434
f 434 508 503
f 434 503 435
f 436 483 509
f 436 509 437
f 437 510 438
f 437 509 480
f 437 480 510
f 438 510 439
f 439 479 440
f 439 510 480
f 440 479 441
f 441 511 442
f 441 479 511
f 442 511 445
f 445 511 479
f 445 479 478
f 445 478 446
f 446 478 447
f 447 478 475
f 447 475 512
f 447 512 513
f 447 513 448
f 448 513 452
f 448 452 450
f 450 452 451
f 452 513 514
f 452 514 454
f 454 514 515
f 454 515 455
f 455 516 457
f 455 457 456
f 455 515 517
f 455 517 516
f 457 516 518
f 457 518 458
f 458 519 459
f 458 518 519
f 459 520 460
f 459 519 518
f 459 518 517
f 459 517 521
f 459 521 522
f 459 522 473
f 459 473 523
f 459 523 524
f 459 524 520
f 460 520 463
f 460 463 461
f 462 463 520
f 462 520 464
f 464 520 524
f 464 524 525
f 464 525 465
f 465 525 526
f 465 526 487
f 465 487 527
f 465 527 467
f 465 467 466
f 467 527 487
f 469 502 470
f 470 502 490
f 470 490 471
f 472 523 473
f 472 489 526
f 472 526 525
f 472 525 523
f 473 522 528
f 473 528 474
f 474 528 476
f 475 514 512
f 475 477 514
f 476 528 529
f 476 529 477
f 477 529 530
f 477 530 514
f 480 509 481
f 481 509 482
f 482 509 483
f 484 499 505
f 484 505 504
f 484 504 485
f 487 526 488
f 488 526 489
f 490 502 491
f 492 503 493
f 493 503 494
f 494 503 495
f 497 506 498
f 498 506 500
f 512 514 513
f 514 530 517
f 514 517 515
f 516 517 518
f 517 530 529
f 517 529 521
f 521 529 522
f 522 529 528
f 523 525 524

