# https://github.com/mikedh/trimesh
v -0.04437226 -0.02854980 -0.04468192
v -0.04158634 -0.02854980 -0.04468192
v -0.04442029 -0.02854980 -0.04423919
v -0.04464044 -0.02816961 -0.04468192
v -0.05167929 -0.00972893 -0.04469198
v -0.04957584 -0.00972893 -0.04469198
v -0.05047646 0.00022082 -0.04469198
v -0.04593133 0.00022082 -0.03088700
v -0.03720532 -0.02854980 -0.02319969
v -0.04452837 -0.02854980 -0.04213625
v -0.04472650 -0.02827662 -0.04213625
v -0.04466046 -0.02820340 -0.04423919
v -0.04571318 -0.02645452 -0.04423919
v -0.04591532 -0.02604898 -0.04468192
v -0.04630959 -0.02537027 -0.04468192
v -0.04670386 -0.02462116 -0.04468192
v -0.04688799 -0.02425786 -0.04468192
v -0.04765252 -0.02272020 -0.04468192
v -0.04809082 -0.02183027 -0.04468192
v -0.04840704 -0.02116564 -0.04468192
v -0.04886935 -0.02005041 -0.04468192
v -0.05058454 -0.01517270 -0.04468192
v -0.05094679 -0.01397580 -0.04468192
v -0.05101884 -0.01371108 -0.04468192
v -0.05149717 -0.01160735 -0.04468192
v -0.05264195 -0.00476109 -0.04469198
v -0.05276604 0.00022082 -0.04469198
v -0.04566715 0.00022082 -0.02950852
v -0.03718331 -0.02854980 -0.02307894
v -0.04477254 -0.02833576 -0.04003330
v -0.04463244 -0.02854980 -0.03962076
v -0.04578123 -0.02655309 -0.04213625
v -0.04632560 -0.02540407 -0.04423919
v -0.04694003 -0.02422970 -0.04423919
v -0.04792471 -0.02225834 -0.04423919
v -0.04842305 -0.02120507 -0.04423919
v -0.04891939 -0.02001943 -0.04423919
v -0.05059855 -0.01522339 -0.04423919
v -0.05105486 -0.01371108 -0.04423919
v -0.05265997 -0.00488783 -0.04424926
v -0.05152718 -0.01160735 -0.04423919
v -0.05271200 -0.00361489 -0.04469198
v -0.05276404 -0.00318964 -0.04424926
v -0.05275803 -0.00105775 -0.04469198
v -0.05278806 -0.00108591 -0.04424926
v -0.05279606 0.00022082 -0.04424926
v -0.03695915 -0.02854980 -0.02108668
v -0.03709524 -0.02854980 -0.02230417
v -0.04319945 0.00022082 0.02517810
v -0.03297841 -0.02854980 0.02307515
v -0.03315253 -0.02854980 0.02097221
v -0.04582526 -0.02661505 -0.04003330
v -0.04469048 -0.02854980 -0.03767881
v -0.04472650 -0.02854980 -0.03647138
v -0.04479855 -0.02838082 -0.03793036
v -0.04584927 -0.02666855 -0.03793036
v -0.04637964 -0.02549982 -0.04213625
v -0.04702609 -0.02422970 -0.04213625
v -0.04848309 -0.02132616 -0.04213625
v -0.04903147 -0.02001943 -0.04213625
v -0.05065058 -0.01540081 -0.04213625
v -0.05114693 -0.01371108 -0.04213625
v -0.05258591 -0.00644238 -0.04145204
v -0.05268999 -0.00544825 -0.04215637
v -0.05286811 -0.00318964 -0.04213625
v -0.05122298 -0.01371108 -0.04002324
v -0.05129703 -0.01371108 -0.03792030
v -0.05263395 -0.00678878 -0.03793036
v -0.05260993 -0.00660573 -0.04003330
v -0.05273001 -0.00318964 -0.04469198
v -0.05290013 -0.00108591 -0.04213625
v -0.05291014 0.00022082 -0.04213625
v -0.04319144 0.00022082 0.02599311
v -0.03289435 -0.02854980 0.02517810
v -0.04646970 -0.02566879 -0.03581735
v -0.04644168 -0.02561528 -0.03793036
v -0.04640966 -0.02556178 -0.04003330
v -0.04476453 -0.02854980 -0.03484134
v -0.04587129 -0.02671925 -0.03581735
v -0.04649772 -0.02571104 -0.03371441
v -0.04853112 -0.02143318 -0.03793036
v -0.04913954 -0.02001943 -0.03793036
v -0.04908750 -0.02001943 -0.04003330
v -0.05074665 -0.01563175 -0.03792030
v -0.05070062 -0.01553318 -0.04002324
v -0.05276204 -0.00529336 -0.04003330
v -0.05291414 -0.00318964 -0.04003330
v -0.05303222 -0.00108591 -0.03793036
v -0.05297819 -0.00108591 -0.04003330
v -0.05134906 -0.01371108 -0.03581735
v -0.05256790 -0.00843628 -0.02622833
v -0.05264996 -0.00692114 -0.03581735
v -0.05280006 -0.00529336 -0.03793036
v -0.05299420 0.00022082 -0.04003330
v -0.05296418 0.00022082 -0.04083826
v -0.04318144 0.00022082 0.02729110
v -0.03296240 -0.02854980 0.02728104
v -0.04478854 -0.02854980 -0.03371441
v -0.04588930 -0.02676149 -0.03371441
v -0.04653575 -0.02578144 -0.02950852
v -0.04857715 -0.02153175 -0.03371441
v -0.04917957 -0.02001943 -0.03581735
v -0.05077467 -0.01568807 -0.03581735
v -0.05303423 -0.00318964 -0.03372447
v -0.05312229 -0.00108591 -0.03372447
v -0.05307825 -0.00108591 -0.03581735
v -0.05304623 0.00022082 -0.03793036
v -0.05138509 -0.01371108 -0.03370435
v -0.05257991 -0.00849542 -0.02482972
v -0.05268198 -0.00713799 -0.03161146
v -0.05298219 -0.00529336 -0.02530263
v -0.05295217 -0.00529336 -0.02739551
v -0.05310227 -0.00318964 -0.02950852
v -0.05307025 -0.00318964 -0.03161146
v -0.04329351 0.00022082 0.02938399
v -0.03310850 -0.02854980 0.02939405
v -0.04482857 -0.02854980 -0.03161146
v -0.04589731 -0.02680092 -0.03161146
v -0.04657177 -0.02583495 -0.02530263
v -0.04859317 -0.02157118 -0.03161146
v -0.04862318 -0.02163877 -0.02740558
v -0.04920959 -0.02001943 -0.03371441
v -0.05049047 -0.01693003 -0.02529257
v -0.05050448 -0.01697227 -0.02318962
v -0.05085873 -0.01581198 -0.02529257
v -0.05315631 -0.00108591 -0.03161146
v -0.05312229 0.00022082 -0.03372447
v -0.05308826 0.00022082 -0.03581735
v -0.05088074 -0.01581198 -0.02318962
v -0.05140510 -0.01371108 -0.03161146
v -0.05239979 -0.00972893 -0.01903405
v -0.05260393 -0.00864186 -0.02109674
v -0.05259192 -0.00856301 -0.02319969
v -0.05270400 -0.00759985 -0.02543344
v -0.05269799 -0.00723656 -0.02950852
v -0.05276404 -0.00739709 -0.02319969
v -0.05301021 -0.00529336 -0.02319969
v -0.05318633 -0.00108591 -0.02950852
v -0.05313029 -0.00318964 -0.02739551
v -0.05330041 -0.00108591 -0.02109674
v -0.05324437 -0.00108591 -0.02530263
v -0.04347964 0.00022082 0.03148693
v -0.03333065 -0.02854980 0.03210071
v -0.03327862 -0.02854980 0.03149699
v -0.03313452 -0.02854980 0.02974622
v -0.04485659 -0.02854980 -0.02950852
v -0.04658578 -0.02586029 -0.02319969
v -0.04863519 -0.02166411 -0.02530263
v -0.04864720 -0.02168664 -0.02319969
v -0.04922960 -0.02001943 -0.03161146
v -0.05053851 -0.01705957 -0.01688079
v -0.05051649 -0.01700607 -0.02107662
v -0.05315431 0.00022082 -0.03161146
v -0.05089675 -0.01581198 -0.02107662
v -0.05141911 -0.01371108 -0.02950852
v -0.05091076 -0.01581198 -0.01898373
v -0.05240179 -0.00978243 -0.01688079
v -0.05261193 -0.00869819 -0.01898373
v -0.05279005 -0.00739709 -0.02109674
v -0.05283208 -0.00739709 -0.01689085
v -0.05281207 -0.00739709 -0.01898373
v -0.05306225 -0.00529336 -0.01898373
v -0.05323636 -0.00318964 -0.01898373
v -0.05323236 0.00022082 -0.02609752
v -0.05318433 0.00022082 -0.02950852
v -0.05329640 0.00022082 -0.02109674
v -0.05327039 0.00022082 -0.02319969
v -0.05332442 -0.00108591 -0.01898373
v -0.04395397 0.00022082 0.03641728
v -0.03346475 -0.02854980 0.03359994
v -0.04487661 -0.02854980 -0.02740558
v -0.04659779 -0.02587719 -0.02108668
v -0.04660380 -0.02589691 -0.01898373
v -0.04865321 -0.02169509 -0.02108668
v -0.05054251 -0.01707366 -0.01476779
v -0.05093878 -0.01581198 -0.01266484
v -0.05092077 -0.01581198 -0.01688079
v -0.05144313 -0.01371108 -0.02529257
v -0.05145313 -0.01371108 -0.02318962
v -0.05146114 -0.01371108 -0.02107662
v -0.05148516 -0.01371108 -0.01266484
v -0.05240379 -0.00978807 -0.01476779
v -0.05241580 -0.00972893 -0.01489859
v -0.05261794 -0.00872916 -0.01689085
v -0.05308626 -0.00529336 -0.01689085
v -0.05283609 -0.00739709 -0.01477785
v -0.05325638 -0.00318964 -0.01689085
v -0.05331442 0.00022082 -0.01898373
v -0.05333643 -0.00108591 -0.01689085
v -0.04407205 0.00022082 0.03762471
v -0.03367689 -0.02854980 0.03571294
v -0.04491063 -0.02854980 -0.02319969
v -0.04867122 -0.02176268 -0.00845895
v -0.04498468 -0.02854980 -0.01267490
v -0.04499669 -0.02854980 -0.01057196
v -0.04670587 -0.02611094 0.03359994
v -0.05054451 -0.01707647 -0.01266484
v -0.04867322 -0.02177394 -0.00635601
v -0.05093878 -0.01581198 -0.01056189
v -0.05148516 -0.01371108 -0.01056189
v -0.05241180 -0.00972893 -0.01267490
v -0.05261994 -0.00871508 -0.01056189
v -0.05261994 -0.00873198 -0.01477785
v -0.05239979 -0.00978243 -0.01266484
v -0.05309026 -0.00529336 -0.01477785
v -0.05261794 -0.00869255 -0.00845895
v -0.05282208 -0.00739709 -0.01056189
v -0.05325437 -0.00318964 -0.01477785
v -0.05333643 -0.00108591 -0.01477785
v -0.05332042 0.00022082 -0.01689085
v -0.05332442 0.00022082 -0.01346980
v -0.05332242 0.00022082 -0.01558280
v -0.04538896 0.00022082 0.05043355
v -0.04562912 0.00022082 0.05253650
v -0.03392106 -0.02854980 0.03780583
v -0.04510476 -0.02854980 0.03342889
v -0.04604141 -0.02716703 0.03571294
v -0.04669386 -0.02611376 0.03571294
v -0.04860117 -0.02166411 0.03571294
v -0.04860517 -0.02167256 0.03359994
v -0.04867122 -0.02176831 -0.00215012
v -0.04867322 -0.02177394 -0.00425306
v -0.05054251 -0.01707647 -0.01056189
v -0.05053851 -0.01706521 -0.00844889
v -0.05093078 -0.01581198 -0.00844889
v -0.05136708 -0.01371108 0.02307515
v -0.05239578 -0.00977117 -0.01056189
v -0.05281207 -0.00739709 -0.00845895
v -0.05262794 -0.00678596 0.03780583
v -0.05279005 -0.00529336 0.03780583
v -0.05299019 -0.00318964 0.03358987
v -0.05260393 -0.00862496 -0.00426312
v -0.05131304 -0.01371108 0.03570288
v -0.05130103 -0.01371108 0.03781589
v -0.05331442 -0.00108591 -0.00845895
v -0.05332442 -0.00108591 -0.01056189
v -0.05331842 0.00022082 -0.00925384
v -0.05332242 0.00022082 -0.01136685
v -0.04602940 0.00022082 0.05459920
v -0.03640477 -0.02854980 0.05469981
v -0.03599049 -0.02854980 0.05254656
v -0.03580436 -0.02854980 0.05150012
v -0.03526999 -0.02854980 0.04834067
v -0.03501181 -0.02854980 0.04635847
v -0.03411319 -0.02854980 0.03933524
v -0.04510476 -0.02854980 0.03359994
v -0.04510076 -0.02854980 0.03552176
v -0.04509876 -0.02854980 0.03571294
v -0.04480656 -0.02854980 0.04812937
v -0.04480055 -0.02854980 0.04834067
v -0.04585328 -0.02666574 0.05043355
v -0.04643168 -0.02561247 0.05043355
v -0.04850711 -0.02138249 0.05043355
v -0.04852111 -0.02142755 0.04834067
v -0.04909551 -0.02001943 0.04834067
v -0.04915355 -0.02001943 0.04412472
v -0.04917957 -0.02001943 0.04201171
v -0.04921759 -0.02001943 0.03780583
v -0.04922960 -0.02001943 0.03571294
v -0.05052450 -0.01703141 -0.00215012
v -0.05051449 -0.01700325 0.00206583
v -0.05089275 -0.01581198 -0.00003711
v -0.05258992 -0.00855174 -0.00004717
v -0.05257191 -0.00845317 0.00530578
v -0.05128502 -0.01371108 0.03991883
v -0.05262194 -0.00671274 0.03990877
v -0.05277605 -0.00529336 0.03990877
v -0.05297618 -0.00318964 0.03570288
v -0.05306024 -0.00108591 0.03570288
v -0.05074665 -0.01566836 0.03781589
v -0.05073865 -0.01564864 0.03991883
v -0.05331041 0.00022082 -0.00716096
v -0.04617150 0.00022082 0.05505198
v -0.04632560 0.00022082 0.05550477
v -0.03729938 -0.02854980 0.05670214
v -0.04475652 -0.02854980 0.04957829
v -0.04472450 -0.02854980 0.05047380
v -0.04581725 -0.02658125 0.05254656
v -0.04638565 -0.02553080 0.05254656
v -0.04702609 -0.02422970 0.05254656
v -0.04905749 -0.02001943 0.05043355
v -0.04794872 -0.02233156 0.05254656
v -0.04845907 -0.02127829 0.05254656
v -0.05068661 -0.01553599 0.04622767
v -0.05070662 -0.01557824 0.04412472
v -0.05072464 -0.01561485 0.04201171
v -0.05046646 -0.01686807 0.01789326
v -0.05047847 -0.01689905 0.01466338
v -0.05050848 -0.01698635 0.00415872
v -0.05125900 -0.01371108 0.04201171
v -0.05261393 -0.00662544 0.04201171
v -0.05257991 -0.00639169 0.04765646
v -0.05275203 -0.00529336 0.04201171
v -0.05293816 -0.00318964 0.03990877
v -0.05296018 -0.00318964 0.03780583
v -0.05304223 -0.00108591 0.03780583
v -0.05303823 0.00022082 0.03780583
v -0.05305424 0.00022082 0.03570288
v -0.05306024 0.00022082 0.03489793
v -0.04715417 0.00022082 0.05662164
v -0.04825093 0.00022082 0.05784920
v -0.03732740 -0.02854980 0.05673232
v -0.04470249 -0.02854980 0.05092659
v -0.04476453 -0.02832731 0.05254656
v -0.04468647 -0.02820058 0.05464951
v -0.04582926 -0.02620388 0.05477025
v -0.04632560 -0.02541533 0.05416653
v -0.05065058 -0.01538673 0.05044362
v -0.05066659 -0.01548249 0.04833061
v -0.04895942 -0.02001943 0.05254656
v -0.05062857 -0.01526845 0.05254656
v -0.04839903 -0.02115437 0.05386467
v -0.05119095 -0.01371108 0.04622767
v -0.05122498 -0.01371108 0.04412472
v -0.05150717 -0.01160735 0.05254656
v -0.05153920 -0.01160735 0.05044362
v -0.05254789 -0.00628468 0.04905507
v -0.05264195 -0.00489909 0.05253650
v -0.05266197 -0.00509904 0.05043355
v -0.05266197 -0.00546515 0.04834067
v -0.05280807 -0.00318964 0.05043355
v -0.05289813 -0.00108591 0.05043355
v -0.05291815 0.00022082 0.04833061
v -0.04923160 0.00022082 0.05790957
v -0.03898255 -0.02852727 0.05798001
v -0.03894652 -0.02854980 0.05796994
v -0.03834010 -0.02788517 0.05734610
v -0.04460242 -0.02854980 0.05254656
v -0.04443630 -0.02854980 0.05464951
v -0.04447233 -0.02787390 0.05619904
v -0.04623754 -0.02524917 0.05556514
v -0.04673589 -0.02442120 0.05477025
v -0.05111690 -0.01371108 0.05044362
v -0.05106687 -0.01371108 0.05254656
v -0.05115493 -0.01371108 0.04833061
v -0.04869924 -0.02014053 0.05458913
v -0.05054651 -0.01500373 0.05463944
v -0.04791270 -0.02196545 0.05458913
v -0.04828896 -0.02092344 0.05526328
v -0.05088474 -0.01371108 0.05463944
v -0.05132104 -0.01160735 0.05463944
v -0.05261193 -0.00461183 0.05382443
v -0.05247584 -0.00594954 0.05253650
v -0.05278005 -0.00318964 0.05253650
v -0.05289413 0.00022082 0.05043355
v -0.05285010 -0.00108591 0.05253650
v -0.04941573 0.00022082 0.05791964
v -0.04310338 -0.02422970 0.05810075
v -0.03898255 -0.02854980 0.05798001
v -0.04338157 -0.02854980 0.05689332
v -0.04327350 -0.02854980 0.05702412
v -0.04388792 -0.02704030 0.05759765
v -0.04485059 -0.02633624 0.05684301
v -0.04657177 -0.02384669 0.05617892
v -0.04857515 -0.01952096 0.05603805
v -0.05047246 -0.01478406 0.05570601
v -0.05060055 -0.01371108 0.05592737
v -0.05257791 -0.00218143 0.05570601
v -0.05166528 -0.00950081 0.05463944
v -0.05265196 -0.00300658 0.05456901
v -0.05247384 -0.00358391 0.05522303
v -0.05282808 0.00022082 0.05253650
v -0.05270200 -0.00108591 0.05463944
v -0.05268798 0.00022082 0.05463944
v -0.05274402 0.00022082 0.05383449
v -0.04986004 0.00022082 0.05789951
v -0.04894141 -0.00950081 0.05798001
v -0.04892539 -0.00972893 0.05798001
v -0.04879330 -0.01160735 0.05798001
v -0.04681994 -0.01791853 0.05801019
v -0.04456239 -0.02422970 0.05801019
v -0.04315342 -0.02633624 0.05804037
v -0.04114804 -0.02854980 0.05804037
v -0.04312540 -0.02854980 0.05712474
v -0.04248896 -0.02800626 0.05798001
v -0.04431622 -0.02563781 0.05791964
v -0.04593934 -0.02253433 0.05757753
v -0.04627757 -0.02112903 0.05781901
v -0.04866321 -0.01900559 0.05615880
v -0.04885134 -0.01791853 0.05640028
v -0.04813485 -0.01634144 0.05769827
v -0.04960987 -0.01371108 0.05698387
v -0.04984403 -0.01160735 0.05733604
v -0.05081270 -0.01160735 0.05627954
v -0.05097280 -0.00972893 0.05647071
v -0.05099082 -0.00950081 0.05649084
v -0.05051049 -0.00463155 0.05781901
v -0.05055852 -0.00318964 0.05783914
v -0.05163926 -0.00108591 0.05675245
v -0.05258191 -0.00108591 0.05571607
v -0.05262794 0.00022082 0.05530353
v -0.05058654 0.00022082 0.05785926
v -0.05058654 -0.00108591 0.05785926
v -0.04855914 -0.01371108 0.05787939
v -0.04664382 -0.01900559 0.05796994
v -0.04647971 -0.02001943 0.05792969
v -0.04126812 -0.02854980 0.05801019
v -0.04787267 -0.01791853 0.05744672
v -0.04840504 -0.01493895 0.05781901
v -0.04997612 -0.00972893 0.05752722
v -0.05163926 0.00022082 0.05676251
v -0.05258191 0.00022082 0.05571607
f 1 2 9
f 1 9 29
f 1 29 48
f 1 48 47
f 1 47 51
f 1 51 50
f 1 50 74
f 1 74 97
f 1 97 116
f 1 116 145
f 1 145 144
f 1 144 143
f 1 143 170
f 1 170 191
f 1 191 215
f 1 215 245
f 1 245 244
f 1 244 243
f 1 243 242
f 1 242 241
f 1 241 240
f 1 240 275
f 1 275 302
f 1 302 326
f 1 326 349
f 1 349 373
f 1 373 397
f 1 397 374
f 1 374 351
f 1 351 350
f 1 350 329
f 1 329 328
f 1 328 303
f 1 303 277
f 1 277 276
f 1 276 250
f 1 250 249
f 1 249 248
f 1 248 247
f 1 247 246
f 1 246 216
f 1 216 195
f 1 195 194
f 1 194 192
f 1 192 171
f 1 171 146
f 1 146 117
f 1 117 98
f 1 98 78
f 1 78 54
f 1 54 53
f 1 53 31
f 1 31 10
f 1 10 3
f 1 3 4
f 1 4 5
f 1 5 6
f 1 6 2
f 2 6 7
f 2 7 8
f 2 8 9
f 3 10 11
f 3 11 12
f 3 12 4
f 4 12 13
f 4 13 14
f 4 14 5
f 5 14 15
f 5 15 16
f 5 16 17
f 5 17 18
f 5 18 19
f 5 19 20
f 5 20 21
f 5 21 22
f 5 22 23
f 5 23 24
f 5 24 25
f 5 25 26
f 5 26 42
f 5 42 70
f 5 70 44
f 5 44 27
f 5 27 7
f 5 7 6
f 7 27 46
f 7 46 72
f 7 72 95
f 7 95 94
f 7 94 107
f 7 107 128
f 7 128 127
f 7 127 153
f 7 153 165
f 7 165 164
f 7 164 167
f 7 167 166
f 7 166 188
f 7 188 210
f 7 210 212
f 7 212 211
f 7 211 238
f 7 238 237
f 7 237 272
f 7 272 299
f 7 299 298
f 7 298 297
f 7 297 323
f 7 323 345
f 7 345 362
f 7 362 365
f 7 365 364
f 7 364 391
f 7 391 402
f 7 402 401
f 7 401 392
f 7 392 366
f 7 366 347
f 7 347 324
f 7 324 301
f 7 301 300
f 7 300 274
f 7 274 273
f 7 273 239
f 7 239 214
f 7 214 213
f 7 213 190
f 7 190 169
f 7 169 142
f 7 142 115
f 7 115 96
f 7 96 73
f 7 73 49
f 7 49 28
f 7 28 8
f 8 28 9
f 9 28 29
f 10 30 11
f 10 31 30
f 11 30 32
f 11 32 12
f 12 32 13
f 13 33 14
f 13 32 33
f 14 33 15
f 15 33 16
f 16 33 34
f 16 34 17
f 17 34 35
f 17 35 18
f 18 35 19
f 19 35 20
f 20 35 36
f 20 36 37
f 20 37 21
f 21 37 22
f 22 37 38
f 22 38 23
f 23 38 39
f 23 39 24
f 24 39 25
f 25 40 26
f 25 39 41
f 25 41 40
f 26 40 43
f 26 43 42
f 27 44 45
f 27 45 46
f 28 47 48
f 28 48 29
f 28 49 50
f 28 50 51
f 28 51 47
f 30 52 32
f 30 31 53
f 30 53 54
f 30 54 55
f 30 55 56
f 30 56 52
f 32 52 57
f 32 57 33
f 33 57 34
f 34 57 58
f 34 58 59
f 34 59 35
f 35 59 36
f 36 59 60
f 36 60 37
f 37 60 61
f 37 61 38
f 38 61 39
f 39 61 62
f 39 62 41
f 40 41 63
f 40 63 64
f 40 64 65
f 40 65 43
f 41 62 66
f 41 66 67
f 41 67 68
f 41 68 69
f 41 69 63
f 42 43 70
f 43 45 44
f 43 44 70
f 43 65 71
f 43 71 45
f 45 71 72
f 45 72 46
f 49 73 74
f 49 74 50
f 52 56 75
f 52 75 76
f 52 76 77
f 52 77 57
f 54 78 55
f 55 78 79
f 55 79 56
f 56 79 80
f 56 80 75
f 57 77 58
f 58 77 76
f 58 76 59
f 59 76 75
f 59 75 81
f 59 81 82
f 59 82 83
f 59 83 60
f 60 83 84
f 60 84 85
f 60 85 61
f 61 85 62
f 62 85 66
f 63 69 64
f 64 69 86
f 64 86 65
f 65 86 87
f 65 87 88
f 65 88 89
f 65 89 71
f 66 85 84
f 66 84 67
f 67 84 90
f 67 90 68
f 68 86 69
f 68 90 91
f 68 91 92
f 68 92 93
f 68 93 86
f 71 89 94
f 71 94 95
f 71 95 72
f 73 96 74
f 74 96 97
f 75 80 81
f 78 98 79
f 79 98 99
f 79 99 80
f 80 99 100
f 80 100 101
f 80 101 81
f 81 101 82
f 82 102 103
f 82 103 84
f 82 84 83
f 82 101 102
f 84 103 90
f 86 93 104
f 86 104 87
f 87 104 105
f 87 105 106
f 87 106 88
f 88 106 107
f 88 107 94
f 88 94 89
f 90 103 108
f 90 108 91
f 91 109 110
f 91 110 92
f 91 108 109
f 92 110 111
f 92 111 112
f 92 112 93
f 93 113 114
f 93 114 104
f 93 112 113
f 96 115 97
f 97 115 116
f 98 117 99
f 99 117 118
f 99 118 119
f 99 119 100
f 100 120 101
f 100 119 121
f 100 121 120
f 101 120 102
f 102 120 122
f 102 122 123
f 102 123 103
f 103 123 124
f 103 124 125
f 103 125 108
f 104 114 105
f 105 114 126
f 105 126 127
f 105 127 128
f 105 128 107
f 105 107 106
f 108 125 129
f 108 129 130
f 108 130 131
f 108 131 132
f 108 132 133
f 108 133 109
f 109 133 134
f 109 134 110
f 110 135 136
f 110 136 111
f 110 134 135
f 111 136 137
f 111 137 113
f 111 113 112
f 113 138 126
f 113 126 114
f 113 137 139
f 113 139 140
f 113 140 141
f 113 141 138
f 115 142 143
f 115 143 144
f 115 144 145
f 115 145 116
f 117 146 147
f 117 147 118
f 118 147 119
f 119 147 121
f 120 121 122
f 121 147 148
f 121 148 122
f 122 148 149
f 122 149 150
f 122 150 151
f 122 151 152
f 122 152 124
f 122 124 123
f 124 152 125
f 125 152 129
f 126 153 127
f 126 138 165
f 126 165 153
f 129 152 151
f 129 151 154
f 129 154 130
f 130 155 131
f 130 154 156
f 130 156 155
f 131 157 158
f 131 158 132
f 131 155 157
f 132 159 133
f 132 158 160
f 132 160 161
f 132 161 159
f 133 159 136
f 133 136 134
f 134 136 135
f 136 159 137
f 137 159 162
f 137 162 163
f 137 163 139
f 138 141 164
f 138 164 165
f 139 163 140
f 140 166 167
f 140 167 164
f 140 164 141
f 140 163 168
f 140 168 166
f 142 169 170
f 142 170 143
f 146 171 172
f 146 172 147
f 147 172 149
f 147 149 148
f 149 172 173
f 149 173 174
f 149 174 175
f 149 175 151
f 149 151 150
f 151 175 176
f 151 176 177
f 151 177 156
f 151 156 154
f 155 156 178
f 155 178 157
f 156 177 179
f 156 179 178
f 157 178 179
f 157 179 180
f 157 180 181
f 157 181 182
f 157 182 183
f 157 183 184
f 157 184 158
f 158 184 160
f 159 161 185
f 159 185 162
f 160 184 186
f 160 186 205
f 160 205 185
f 160 185 161
f 162 185 163
f 163 185 187
f 163 187 168
f 166 168 188
f 168 187 189
f 168 189 188
f 169 190 170
f 170 190 191
f 171 192 173
f 171 173 172
f 173 193 174
f 173 192 194
f 173 194 195
f 173 195 196
f 173 196 193
f 174 193 175
f 175 197 176
f 175 193 198
f 175 198 197
f 176 199 200
f 176 200 181
f 176 181 180
f 176 180 179
f 176 179 177
f 176 197 199
f 181 200 182
f 182 201 202
f 182 202 203
f 182 203 183
f 182 200 204
f 182 204 201
f 183 203 184
f 184 203 186
f 185 205 187
f 186 203 202
f 186 202 206
f 186 206 207
f 186 207 205
f 187 205 208
f 187 208 209
f 187 209 189
f 188 189 210
f 189 209 211
f 189 211 212
f 189 212 210
f 190 213 191
f 191 213 214
f 191 214 215
f 193 196 198
f 195 216 217
f 195 217 196
f 196 217 218
f 196 218 219
f 196 219 220
f 196 220 221
f 196 221 222
f 196 222 198
f 197 198 222
f 197 222 223
f 197 223 199
f 199 223 224
f 199 224 225
f 199 225 226
f 199 226 200
f 200 227 204
f 200 226 227
f 201 204 227
f 201 227 206
f 201 206 202
f 205 207 228
f 205 228 229
f 205 229 230
f 205 230 231
f 205 231 208
f 206 232 228
f 206 228 207
f 206 227 233
f 206 233 234
f 206 234 232
f 208 231 235
f 208 235 236
f 208 236 209
f 209 236 237
f 209 237 238
f 209 238 211
f 214 239 240
f 214 240 241
f 214 241 242
f 214 242 243
f 214 243 244
f 214 244 245
f 214 245 215
f 216 246 217
f 217 246 247
f 217 247 248
f 217 248 249
f 217 249 250
f 217 250 218
f 218 250 251
f 218 251 252
f 218 252 253
f 218 253 254
f 218 254 219
f 219 254 255
f 219 255 256
f 219 256 257
f 219 257 258
f 219 258 259
f 219 259 224
f 219 224 223
f 219 223 220
f 220 223 221
f 221 223 222
f 224 260 225
f 224 259 260
f 225 260 261
f 225 261 262
f 225 262 233
f 225 233 226
f 226 233 227
f 228 232 263
f 228 263 229
f 229 264 265
f 229 265 266
f 229 266 230
f 229 263 264
f 230 266 267
f 230 267 268
f 230 268 231
f 231 268 269
f 231 269 235
f 232 234 263
f 233 262 270
f 233 270 234
f 234 270 271
f 234 271 265
f 234 265 264
f 234 264 263
f 235 272 236
f 235 269 272
f 236 272 237
f 239 273 240
f 240 273 274
f 240 274 275
f 250 276 251
f 251 276 277
f 251 277 278
f 251 278 252
f 252 278 279
f 252 279 280
f 252 280 253
f 253 281 255
f 253 255 254
f 253 280 282
f 253 282 283
f 253 283 281
f 255 281 284
f 255 284 285
f 255 285 286
f 255 286 256
f 256 286 271
f 256 271 257
f 257 271 258
f 258 287 288
f 258 288 289
f 258 289 261
f 258 261 259
f 258 271 270
f 258 270 287
f 259 261 260
f 261 289 270
f 261 270 262
f 265 271 286
f 265 286 290
f 265 290 291
f 265 291 266
f 266 291 267
f 267 291 292
f 267 292 293
f 267 293 294
f 267 294 295
f 267 295 268
f 268 295 269
f 269 295 296
f 269 296 297
f 269 297 298
f 269 298 299
f 269 299 272
f 270 289 288
f 270 288 287
f 274 300 275
f 275 300 301
f 275 301 302
f 277 303 304
f 277 304 278
f 278 304 305
f 278 305 306
f 278 306 307
f 278 307 279
f 279 307 280
f 280 307 282
f 281 308 309
f 281 309 284
f 281 283 310
f 281 310 311
f 281 311 308
f 282 307 283
f 283 307 312
f 283 312 310
f 284 313 314
f 284 314 290
f 284 290 285
f 284 309 313
f 285 290 286
f 290 314 315
f 290 315 316
f 290 316 292
f 290 292 291
f 292 316 315
f 292 315 317
f 292 317 318
f 292 318 319
f 292 319 320
f 292 320 293
f 293 320 294
f 294 320 321
f 294 321 322
f 294 322 296
f 294 296 295
f 296 322 323
f 296 323 297
f 301 324 325
f 301 325 326
f 301 326 327
f 301 327 302
f 302 327 326
f 303 328 304
f 304 328 329
f 304 329 305
f 305 329 330
f 305 330 331
f 305 331 306
f 306 331 307
f 307 331 332
f 307 332 312
f 308 333 309
f 308 311 334
f 308 334 333
f 309 333 335
f 309 335 313
f 310 312 336
f 310 336 337
f 310 337 311
f 311 337 334
f 312 332 331
f 312 331 338
f 312 338 339
f 312 339 336
f 313 335 315
f 313 315 314
f 315 334 340
f 315 340 341
f 315 341 342
f 315 342 343
f 315 343 317
f 315 335 333
f 315 333 334
f 317 343 318
f 318 343 342
f 318 342 344
f 318 344 319
f 319 344 320
f 320 344 321
f 321 344 322
f 322 345 323
f 322 344 346
f 322 346 345
f 324 347 325
f 325 348 349
f 325 349 326
f 325 347 348
f 329 350 330
f 330 350 351
f 330 351 352
f 330 352 353
f 330 353 354
f 330 354 331
f 331 354 355
f 331 355 339
f 331 339 338
f 334 337 340
f 336 339 356
f 336 356 337
f 337 356 340
f 339 355 356
f 340 356 341
f 341 356 357
f 341 357 358
f 341 358 359
f 341 359 342
f 342 360 344
f 342 359 361
f 342 361 358
f 342 358 360
f 344 360 346
f 345 346 362
f 346 360 363
f 346 363 364
f 346 364 365
f 346 365 362
f 347 366 367
f 347 367 348
f 348 367 368
f 348 368 369
f 348 369 370
f 348 370 371
f 348 371 372
f 348 372 373
f 348 373 349
f 351 374 375
f 351 375 352
f 352 375 376
f 352 376 353
f 353 376 354
f 354 376 355
f 355 376 377
f 355 377 378
f 355 378 379
f 355 379 356
f 356 379 380
f 356 380 357
f 357 380 381
f 357 381 382
f 357 382 383
f 357 383 384
f 357 384 358
f 358 361 359
f 358 384 385
f 358 385 386
f 358 386 387
f 358 387 388
f 358 388 389
f 358 389 390
f 358 390 363
f 358 363 360
f 363 390 391
f 363 391 364
f 366 392 367
f 367 392 393
f 367 393 368
f 368 393 369
f 369 393 388
f 369 388 387
f 369 387 394
f 369 394 370
f 370 394 395
f 370 395 371
f 371 395 396
f 371 396 376
f 371 376 372
f 372 376 375
f 372 375 373
f 373 375 397
f 374 397 375
f 376 396 378
f 376 378 377
f 378 396 381
f 378 381 398
f 378 398 379
f 379 398 380
f 380 398 381
f 381 383 382
f 381 396 399
f 381 399 383
f 383 399 400
f 383 400 385
f 383 385 384
f 385 400 386
f 386 400 387
f 387 400 394
f 388 393 389
f 389 393 401
f 389 401 390
f 390 402 391
f 390 401 402
f 392 401 393
f 394 400 399
f 394 399 395
f 395 399 396

