# https://github.com/mikedh/trimesh
v -0.03061104 0.00022082 -0.06904867
v -0.03047492 0.00022082 -0.06903602
v -0.03061104 0.00022082 -0.06655755
v -0.03061104 0.00733512 -0.06919693
v -0.03047492 0.00733512 -0.06920045
v -0.02837050 0.01575134 -0.06935996
v -0.02626608 0.01785687 -0.06932975
v -0.02416166 0.02034254 -0.06924191
v -0.01182211 0.00022082 -0.06446840
v -0.03027809 0.00022082 -0.06631371
v -0.03061104 0.02034254 -0.06518797
v -0.03061104 0.00944065 -0.06922575
v -0.03047492 0.00944065 -0.06924050
v -0.03047492 0.01364777 -0.06922294
v -0.02837050 0.01785687 -0.06922997
v -0.02626608 0.01996043 -0.06934521
v -0.03047492 0.01154224 -0.06925667
v -0.02628447 0.02034254 -0.06927002
v -0.02222832 0.02034254 -0.06871066
v -0.01182211 0.00022082 -0.06222675
v -0.01182211 0.02034254 -0.06553160
v -0.02987891 0.00022082 -0.06604950
v -0.02416166 0.01154224 -0.06354433
v -0.01785024 0.01785687 -0.06336865
v -0.01574582 0.01996043 -0.06351341
v -0.01541655 0.02034254 -0.06357665
v -0.03061104 0.02034254 -0.06767135
v -0.02736980 0.00376615 -0.06421612
v -0.02739371 0.00523155 -0.06420207
v -0.02626608 0.00523155 -0.06379098
v -0.02626608 0.00733512 -0.06381136
v -0.02416166 0.00733512 -0.06328714
v -0.02416166 0.00944065 -0.06335741
v -0.03061104 0.01153633 -0.06922786
v -0.03061104 0.01364777 -0.06918288
v -0.03061104 0.01540665 -0.06897558
v -0.03061104 0.01589118 -0.06891515
v -0.03061104 0.01601527 -0.06889618
v -0.03003527 0.01785687 -0.06872893
v -0.02838337 0.01990331 -0.06882450
v -0.02819023 0.02034254 -0.06877250
v -0.02205724 0.00022082 -0.06305595
v -0.01182211 0.00038824 -0.06222042
v -0.01182211 0.02034254 -0.06327238
v -0.02892787 0.00022082 -0.06550068
v -0.02205724 0.01154224 -0.06328573
v -0.01785024 0.01575134 -0.06321335
v -0.01574582 0.01785687 -0.06320281
v -0.01364140 0.01996043 -0.06331033
v -0.01326062 0.02034254 -0.06335882
v -0.02959746 0.01916273 -0.06855255
v -0.03061104 0.01785687 -0.06843730
v -0.02726494 0.00236378 -0.06431099
v -0.02603798 0.00022082 -0.06390623
v -0.02644451 0.00308860 -0.06391466
v -0.02416166 0.00523155 -0.06326535
v -0.02416166 0.00022082 -0.06332157
v -0.02416166 0.00102246 -0.06330611
v -0.02416166 0.00312602 -0.06327309
v -0.02205724 0.00733512 -0.06309811
v -0.02205724 0.00944065 -0.06314308
v -0.02205724 0.00523155 -0.06307492
v -0.02205724 0.00102246 -0.06305595
v -0.01182211 0.00102246 -0.06219864
v -0.01182211 0.00312602 -0.06218107
v -0.01182211 0.01996043 -0.06320071
v -0.02709019 0.00022082 -0.06445153
v -0.01182211 0.00362828 -0.06219372
v -0.01364140 0.01785687 -0.06309951
v -0.01182211 0.01967680 -0.06317260
v -0.02609684 0.00102246 -0.06389147
v -0.02205724 0.00312602 -0.06306087
f 1 2 9
f 1 9 20
f 1 20 42
f 1 42 57
f 1 57 54
f 1 54 67
f 1 67 45
f 1 45 22
f 1 22 10
f 1 10 3
f 1 3 11
f 1 11 27
f 1 27 52
f 1 52 38
f 1 38 37
f 1 37 36
f 1 36 35
f 1 35 34
f 1 34 12
f 1 12 4
f 1 4 5
f 1 5 6
f 1 6 7
f 1 7 8
f 1 8 2
f 2 8 9
f 3 10 11
f 4 12 13
f 4 13 5
f 5 13 6
f 6 14 15
f 6 15 16
f 6 16 7
f 6 13 17
f 6 17 14
f 7 16 8
f 8 16 18
f 8 18 41
f 8 41 27
f 8 27 11
f 8 11 26
f 8 26 50
f 8 50 44
f 8 44 21
f 8 21 19
f 8 19 9
f 9 19 21
f 9 21 44
f 9 44 66
f 9 66 70
f 9 70 68
f 9 68 65
f 9 65 64
f 9 64 43
f 9 43 20
f 10 22 11
f 11 23 24
f 11 24 25
f 11 25 26
f 11 22 28
f 11 28 29
f 11 29 30
f 11 30 31
f 11 31 32
f 11 32 33
f 11 33 23
f 12 34 17
f 12 17 13
f 14 35 36
f 14 36 15
f 14 17 34
f 14 34 35
f 15 36 37
f 15 37 38
f 15 38 39
f 15 39 40
f 15 40 18
f 15 18 16
f 18 40 41
f 20 43 42
f 22 45 28
f 23 46 24
f 23 33 46
f 24 46 47
f 24 47 48
f 24 48 49
f 24 49 25
f 25 49 50
f 25 50 26
f 27 41 51
f 27 51 52
f 28 45 53
f 28 53 54
f 28 54 55
f 28 55 30
f 28 30 29
f 30 56 31
f 30 55 57
f 30 57 58
f 30 58 59
f 30 59 56
f 31 56 32
f 32 60 61
f 32 61 33
f 32 56 62
f 32 62 60
f 33 61 46
f 38 52 39
f 39 52 51
f 39 51 40
f 40 51 41
f 42 63 56
f 42 56 59
f 42 59 58
f 42 58 57
f 42 43 64
f 42 64 65
f 42 65 63
f 44 50 66
f 45 67 53
f 46 61 47
f 47 61 68
f 47 68 48
f 48 69 70
f 48 70 66
f 48 66 49
f 48 68 69
f 49 66 50
f 53 67 54
f 54 57 71
f 54 71 55
f 55 71 57
f 56 63 72
f 56 72 62
f 60 62 65
f 60 65 61
f 61 65 68
f 62 72 65
f 63 65 72
f 68 70 69

