# https://github.com/mikedh/trimesh
v 0.02817152 -0.04517801 -0.04462145
v 0.02817152 -0.04502494 -0.04627723
v 0.02944809 -0.04439852 -0.04462145
v 0.02817152 -0.04244393 -0.04462145
v 0.02817152 -0.04472351 -0.04832489
v 0.02860104 -0.04476119 -0.04625348
v 0.02960591 -0.04429726 -0.04462145
v 0.02817152 -0.03203275 -0.06195110
v 0.04603747 -0.02112233 -0.04462145
v 0.03697364 -0.02112233 -0.06195110
v 0.02953399 -0.04424545 -0.04548157
v 0.02817152 -0.04469996 -0.04846400
v 0.03181543 -0.04227908 -0.04799238
v 0.03198923 -0.04241567 -0.04636035
v 0.03063076 -0.04356959 -0.04462145
v 0.02817152 -0.03656836 -0.06195110
v 0.04857862 -0.02112233 -0.04462145
v 0.04096915 -0.02112233 -0.06195110
v 0.02817152 -0.04417716 -0.05056935
v 0.02880880 -0.04373914 -0.05056935
v 0.03304205 -0.04155611 -0.04636035
v 0.03027715 -0.04268648 -0.05056935
v 0.03132997 -0.04188816 -0.05056935
v 0.03280832 -0.04074602 -0.05061346
v 0.03385114 -0.04013844 -0.04994165
v 0.03405492 -0.04031742 -0.04846400
v 0.03210311 -0.04250516 -0.04462145
v 0.03315392 -0.04165738 -0.04462145
v 0.02822745 -0.03653304 -0.06195110
v 0.02817152 -0.03719948 -0.06144216
v 0.04856263 -0.02112233 -0.04485217
v 0.04852268 -0.02126598 -0.04462145
v 0.04148658 -0.02112233 -0.06151002
v 0.04064552 -0.02187591 -0.06195110
v 0.02817152 -0.04359078 -0.05244736
v 0.02985563 -0.04238034 -0.05267300
v 0.03428266 -0.04050346 -0.04636035
v 0.03418877 -0.04078841 -0.04462145
v 0.03361141 -0.03990766 -0.05134464
v 0.03579297 -0.03788477 -0.05156010
v 0.03599274 -0.03808023 -0.05015710
v 0.03510773 -0.03935425 -0.04846400
v 0.03533348 -0.03957326 -0.04636035
v 0.02925630 -0.03577710 -0.06195110
v 0.02868894 -0.03703464 -0.06125385
v 0.02817152 -0.03816736 -0.06061936
v 0.04849670 -0.02112233 -0.04569533
v 0.04708030 -0.02426617 -0.04462145
v 0.04848072 -0.02116472 -0.04566310
v 0.04220976 -0.02112233 -0.06080597
v 0.04240954 -0.02162157 -0.06035980
v 0.04118091 -0.02232099 -0.06120465
v 0.04007016 -0.02293798 -0.06195110
v 0.02817152 -0.04352484 -0.05262549
v 0.02959392 -0.04218724 -0.05385036
v 0.03090845 -0.04157024 -0.05267300
v 0.03440452 -0.04060472 -0.04462145
v 0.03545534 -0.03968630 -0.04462145
v 0.03329976 -0.03964862 -0.05267300
v 0.03448643 -0.03859596 -0.05267300
v 0.03224694 -0.04051759 -0.05267300
v 0.03553925 -0.03764456 -0.05267300
v 0.03657209 -0.03659191 -0.05267300
v 0.03762291 -0.03549686 -0.05267300
v 0.03786064 -0.03575119 -0.05149733
v 0.03810637 -0.03599846 -0.05009433
v 0.03621849 -0.03830159 -0.04846400
v 0.03726931 -0.03727249 -0.04846400
v 0.03643424 -0.03852296 -0.04636035
v 0.02937417 -0.03568761 -0.06195110
v 0.03055484 -0.03641058 -0.06056507
v 0.02946806 -0.03788006 -0.06000693
v 0.02817152 -0.03852767 -0.06027837
v 0.03177947 -0.03594195 -0.06015961
v 0.04827296 -0.02112233 -0.04696600
v 0.04632914 -0.02528115 -0.04739013
v 0.04674267 -0.02401184 -0.04846400
v 0.04646499 -0.02552606 -0.04462145
v 0.04640505 -0.02542009 -0.04598713
v 0.04682658 -0.02444043 -0.04655715
v 0.04252940 -0.02112233 -0.06047685
v 0.04351030 -0.02112233 -0.05927235
v 0.04319466 -0.02216086 -0.05900769
v 0.04203196 -0.02302512 -0.05992889
v 0.04062954 -0.02423320 -0.06064141
v 0.03997227 -0.02310519 -0.06195110
v 0.02817152 -0.04266293 -0.05465959
v 0.02837329 -0.04254990 -0.05464093
v 0.02817152 -0.04247689 -0.05502603
v 0.02902256 -0.04177277 -0.05525336
v 0.02999747 -0.04037158 -0.05641715
v 0.03139989 -0.03986056 -0.05554007
v 0.03369931 -0.03789890 -0.05580981
v 0.03185938 -0.04022322 -0.05413707
v 0.03655011 -0.03863599 -0.04462145
v 0.03406690 -0.03822859 -0.05440681
v 0.03476612 -0.03729368 -0.05497513
v 0.03610062 -0.03609737 -0.05477665
v 0.03823023 -0.03404387 -0.05428806
v 0.03856585 -0.03444421 -0.05267300
v 0.03987638 -0.03354462 -0.05120044
v 0.03898938 -0.03477625 -0.05064739
v 0.04010413 -0.03380131 -0.04979744
v 0.03936695 -0.03503765 -0.04846400
v 0.03831613 -0.03621983 -0.04846400
v 0.03748506 -0.03747265 -0.04636035
v 0.02960990 -0.03548509 -0.06195110
v 0.03055484 -0.03746323 -0.05956584
v 0.03055484 -0.03843818 -0.05851401
v 0.02873089 -0.03916821 -0.05920788
v 0.02817152 -0.03938486 -0.05941315
v 0.03244672 -0.03668140 -0.05881599
v 0.03170955 -0.03799545 -0.05803560
v 0.03072066 -0.03487045 -0.06168306
v 0.03162164 -0.03372831 -0.06195110
v 0.03255260 -0.03468205 -0.06059731
v 0.03391507 -0.03393318 -0.06021220
v 0.03318190 -0.03533437 -0.05959637
v 0.04799927 -0.02112233 -0.04846400
v 0.04593159 -0.02460528 -0.05056935
v 0.04652692 -0.02355262 -0.05056935
v 0.04588763 -0.02620664 -0.04655715
v 0.04472893 -0.02817772 -0.04636035
v 0.04452716 -0.02785745 -0.04846400
v 0.04435335 -0.02758663 -0.05001968
v 0.04482283 -0.02649865 -0.05065926
v 0.04715221 -0.02212789 -0.05056935
v 0.04590362 -0.02654339 -0.04462145
v 0.04427345 -0.02112233 -0.05829177
v 0.04250543 -0.02423320 -0.05843428
v 0.04434337 -0.02129895 -0.05808650
v 0.04168235 -0.02423320 -0.05948780
v 0.04022599 -0.02559906 -0.06023256
v 0.03980846 -0.02335716 -0.06195110
v 0.02817152 -0.04154199 -0.05662752
v 0.02939614 -0.03993356 -0.05782015
v 0.03064075 -0.03950261 -0.05702280
v 0.03220299 -0.03838402 -0.05688030
v 0.03325382 -0.03753624 -0.05688030
v 0.03393305 -0.03601966 -0.05819338
v 0.03468620 -0.03635877 -0.05668350
v 0.03583092 -0.03582184 -0.05585222
v 0.03760093 -0.03758569 -0.04462145
v 0.03783068 -0.03360585 -0.05569105
v 0.03900935 -0.03269684 -0.05483942
v 0.04015607 -0.03178548 -0.05398778
v 0.03961867 -0.03319844 -0.05267300
v 0.04043375 -0.03214814 -0.05267300
v 0.04185016 -0.03124856 -0.05056935
v 0.04069346 -0.03276749 -0.05052694
v 0.04025396 -0.03398735 -0.04846400
v 0.04204395 -0.03152408 -0.04925626
v 0.03956473 -0.03528021 -0.04636035
v 0.03851391 -0.03642000 -0.04636035
v 0.03127204 -0.03403445 -0.06195110
v 0.02817152 -0.04011960 -0.05860223
v 0.03201121 -0.03333503 -0.06195110
v 0.03531750 -0.03311602 -0.05947083
v 0.03462627 -0.03458315 -0.05883126
v 0.03281630 -0.03282401 -0.06173565
v 0.03335370 -0.03194091 -0.06195110
v 0.03369931 -0.03156883 -0.06195110
v 0.03393305 -0.03129566 -0.06195110
v 0.03553925 -0.02941406 -0.06195110
v 0.03591083 -0.03171248 -0.06012399
v 0.04755177 -0.02112233 -0.05059310
v 0.04637908 -0.02326532 -0.05173993
v 0.04498664 -0.02807646 -0.04462145
v 0.04220577 -0.03170541 -0.04785326
v 0.04473093 -0.02850270 -0.04462145
v 0.04232364 -0.03186555 -0.04636035
v 0.04257935 -0.03019590 -0.05056935
v 0.04413160 -0.02730875 -0.05142268
v 0.04665277 -0.02207608 -0.05253389
v 0.04438532 -0.02112233 -0.05814418
v 0.04218179 -0.02537063 -0.05800846
v 0.04397977 -0.02270249 -0.05755550
v 0.04514247 -0.02112233 -0.05683449
v 0.04470296 -0.02205253 -0.05686502
v 0.04442328 -0.02354085 -0.05615250
v 0.04097515 -0.02618544 -0.05887028
v 0.03974653 -0.02700025 -0.05973040
v 0.03784466 -0.02939287 -0.05996282
v 0.03834610 -0.02798932 -0.06041917
v 0.03889548 -0.02623490 -0.06102652
v 0.03825220 -0.02565323 -0.06195110
v 0.03951479 -0.02423320 -0.06169324
v 0.02817152 -0.04125468 -0.05706860
v 0.02817152 -0.04065888 -0.05790158
v 0.03592681 -0.03382957 -0.05806784
v 0.03533747 -0.03523311 -0.05725522
v 0.03861580 -0.03653304 -0.04462145
v 0.03740915 -0.03310895 -0.05688030
v 0.03792258 -0.03160415 -0.05793721
v 0.03827418 -0.03205630 -0.05688030
v 0.04032188 -0.02989682 -0.05629331
v 0.03979048 -0.03129801 -0.05539078
v 0.04063753 -0.03057740 -0.05472405
v 0.04174428 -0.02896427 -0.05477665
v 0.04201997 -0.02939287 -0.05356026
v 0.04234161 -0.02980498 -0.05215896
v 0.04045173 -0.03422755 -0.04636035
v 0.03966861 -0.03540266 -0.04462145
v 0.03265649 -0.03266858 -0.06195110
v 0.03563914 -0.02929396 -0.06195110
v 0.03635833 -0.03054679 -0.06051418
v 0.03740915 -0.03054679 -0.05945896
v 0.04700638 -0.02112233 -0.05259835
v 0.04610139 -0.02274488 -0.05314293
v 0.04646898 -0.02134134 -0.05401153
v 0.04458110 -0.02587695 -0.05267300
v 0.04563192 -0.02407306 -0.05253389
v 0.04432739 -0.02545306 -0.05396403
v 0.04468299 -0.02423791 -0.05471048
v 0.04150256 -0.03291821 -0.04636035
v 0.04415957 -0.02936696 -0.04462145
v 0.04241353 -0.03198094 -0.04462145
v 0.04160244 -0.03303360 -0.04462145
v 0.04357223 -0.02423791 -0.05686502
v 0.04249744 -0.02617838 -0.05673270
v 0.04218978 -0.02748772 -0.05593196
v 0.04172631 -0.02677418 -0.05733495
v 0.03985840 -0.02924922 -0.05769631
v 0.04032388 -0.02784567 -0.05832740
v 0.04599351 -0.02112233 -0.05518380
v 0.04402972 -0.02494439 -0.05536702
v 0.04636110 -0.02112233 -0.05444413
v 0.03910125 -0.02861809 -0.05914511
v 0.03832412 -0.03054679 -0.05840714
v 0.03700161 -0.02862516 -0.06120295
v 0.03756298 -0.02687073 -0.06182217
v 0.03745909 -0.02677889 -0.06195110
v 0.04246547 -0.02791397 -0.05477665
v 0.04284905 -0.02859219 -0.05278666
v 0.04073342 -0.03412393 -0.04462145
v 0.04055162 -0.03435001 -0.04462145
v 0.04039779 -0.03453369 -0.04462145
v 0.03568708 -0.02923038 -0.06195110
v 0.04651094 -0.02112233 -0.05412859
v 0.04354027 -0.02622783 -0.05471048
v 0.03648019 -0.02814946 -0.06195110
f 1 2 3
f 1 3 7
f 1 7 15
f 1 15 27
f 1 27 28
f 1 28 38
f 1 38 57
f 1 57 58
f 1 58 95
f 1 95 143
f 1 143 192
f 1 192 203
f 1 203 237
f 1 237 236
f 1 236 235
f 1 235 218
f 1 218 217
f 1 217 216
f 1 216 170
f 1 170 168
f 1 168 128
f 1 128 78
f 1 78 48
f 1 48 32
f 1 32 17
f 1 17 9
f 1 9 4
f 1 4 8
f 1 8 16
f 1 16 30
f 1 30 46
f 1 46 73
f 1 73 111
f 1 111 156
f 1 156 189
f 1 189 188
f 1 188 135
f 1 135 89
f 1 89 87
f 1 87 54
f 1 54 35
f 1 35 19
f 1 19 12
f 1 12 5
f 1 5 2
f 2 5 6
f 2 6 3
f 3 6 7
f 4 9 10
f 4 10 8
f 5 11 6
f 5 12 13
f 5 13 11
f 6 11 7
f 7 11 14
f 7 14 15
f 8 10 18
f 8 18 34
f 8 34 53
f 8 53 86
f 8 86 134
f 8 134 186
f 8 186 232
f 8 232 241
f 8 241 238
f 8 238 205
f 8 205 164
f 8 164 163
f 8 163 162
f 8 162 161
f 8 161 204
f 8 204 157
f 8 157 115
f 8 115 155
f 8 155 107
f 8 107 70
f 8 70 44
f 8 44 29
f 8 29 16
f 9 17 31
f 9 31 47
f 9 47 75
f 9 75 119
f 9 119 166
f 9 166 208
f 9 208 239
f 9 239 227
f 9 227 225
f 9 225 178
f 9 178 175
f 9 175 129
f 9 129 82
f 9 82 81
f 9 81 50
f 9 50 33
f 9 33 18
f 9 18 10
f 11 13 14
f 12 19 20
f 12 20 13
f 13 21 14
f 13 20 22
f 13 22 23
f 13 23 24
f 13 24 25
f 13 25 26
f 13 26 21
f 14 27 15
f 14 21 28
f 14 28 27
f 16 29 30
f 17 32 31
f 18 33 34
f 19 35 36
f 19 36 20
f 20 36 22
f 21 37 38
f 21 38 28
f 21 26 37
f 22 36 23
f 23 36 24
f 24 36 39
f 24 39 25
f 25 39 40
f 25 40 41
f 25 41 42
f 25 42 26
f 26 42 43
f 26 43 37
f 29 44 30
f 30 44 45
f 30 45 46
f 31 32 47
f 32 48 49
f 32 49 47
f 33 50 34
f 34 50 51
f 34 51 52
f 34 52 53
f 35 54 55
f 35 55 36
f 36 55 56
f 36 56 39
f 37 57 38
f 37 43 58
f 37 58 57
f 39 59 60
f 39 60 40
f 39 56 61
f 39 61 59
f 40 60 62
f 40 62 63
f 40 63 64
f 40 64 65
f 40 65 66
f 40 66 41
f 41 67 42
f 41 66 68
f 41 68 67
f 42 67 43
f 43 67 69
f 43 69 58
f 44 70 45
f 45 70 71
f 45 71 46
f 46 72 73
f 46 71 74
f 46 74 72
f 47 49 76
f 47 76 77
f 47 77 75
f 48 78 79
f 48 79 80
f 48 80 49
f 49 80 76
f 50 81 51
f 51 81 82
f 51 82 83
f 51 83 84
f 51 84 52
f 52 84 85
f 52 85 53
f 53 85 86
f 54 87 55
f 55 61 56
f 55 87 88
f 55 88 89
f 55 89 90
f 55 90 91
f 55 91 92
f 55 92 93
f 55 93 94
f 55 94 61
f 58 69 95
f 59 61 94
f 59 94 96
f 59 96 60
f 60 96 62
f 62 96 97
f 62 97 98
f 62 98 63
f 63 98 64
f 64 98 99
f 64 99 100
f 64 100 65
f 65 100 101
f 65 101 102
f 65 102 66
f 66 102 103
f 66 103 104
f 66 104 105
f 66 105 68
f 67 68 69
f 68 105 106
f 68 106 69
f 69 106 143
f 69 143 95
f 70 107 74
f 70 74 71
f 72 108 109
f 72 109 110
f 72 110 111
f 72 111 73
f 72 74 108
f 74 112 113
f 74 113 108
f 74 107 114
f 74 114 115
f 74 115 116
f 74 116 117
f 74 117 118
f 74 118 112
f 75 77 119
f 76 120 121
f 76 121 77
f 76 80 79
f 76 79 122
f 76 122 123
f 76 123 124
f 76 124 125
f 76 125 126
f 76 126 120
f 77 121 127
f 77 127 119
f 78 128 79
f 79 128 122
f 82 129 83
f 83 130 84
f 83 129 131
f 83 131 130
f 84 130 132
f 84 132 133
f 84 133 85
f 85 133 86
f 86 133 134
f 87 89 88
f 89 135 90
f 90 135 91
f 91 136 137
f 91 137 92
f 91 135 136
f 92 137 138
f 92 138 93
f 93 139 140
f 93 140 141
f 93 141 142
f 93 142 97
f 93 97 96
f 93 96 94
f 93 138 139
f 97 142 98
f 98 142 99
f 99 144 145
f 99 145 146
f 99 146 147
f 99 147 100
f 99 142 144
f 100 147 101
f 101 147 148
f 101 148 149
f 101 149 150
f 101 150 103
f 101 103 102
f 103 151 104
f 103 150 152
f 103 152 151
f 104 153 105
f 104 151 153
f 105 154 106
f 105 153 154
f 106 154 143
f 107 155 114
f 108 113 109
f 109 113 136
f 109 136 110
f 110 136 156
f 110 156 111
f 112 118 140
f 112 140 113
f 113 140 139
f 113 139 138
f 113 138 137
f 113 137 136
f 114 155 115
f 115 157 117
f 115 117 116
f 117 158 159
f 117 159 140
f 117 140 118
f 117 157 160
f 117 160 161
f 117 161 162
f 117 162 163
f 117 163 164
f 117 164 165
f 117 165 158
f 119 127 166
f 120 167 121
f 120 126 167
f 121 167 127
f 122 128 168
f 122 168 123
f 123 169 124
f 123 168 170
f 123 170 171
f 123 171 169
f 124 169 152
f 124 152 125
f 125 152 172
f 125 172 173
f 125 173 126
f 126 173 167
f 127 167 174
f 127 174 166
f 129 175 131
f 130 176 132
f 130 131 177
f 130 177 176
f 131 175 178
f 131 178 179
f 131 179 180
f 131 180 177
f 132 176 181
f 132 181 133
f 133 181 182
f 133 182 183
f 133 183 184
f 133 184 185
f 133 185 186
f 133 186 187
f 133 187 134
f 134 187 186
f 135 188 136
f 136 188 189
f 136 189 156
f 140 159 190
f 140 190 191
f 140 191 142
f 140 142 141
f 142 191 144
f 143 154 192
f 144 193 194
f 144 194 195
f 144 195 196
f 144 196 197
f 144 197 145
f 144 191 193
f 145 197 146
f 146 148 147
f 146 197 198
f 146 198 199
f 146 199 200
f 146 200 201
f 146 201 148
f 148 201 149
f 149 201 172
f 149 172 152
f 149 152 150
f 151 202 153
f 151 152 169
f 151 169 202
f 153 202 203
f 153 203 154
f 154 203 192
f 157 204 160
f 158 190 159
f 158 165 194
f 158 194 190
f 160 204 161
f 164 205 165
f 165 205 206
f 165 206 183
f 165 183 207
f 165 207 194
f 166 174 208
f 167 209 210
f 167 210 174
f 167 173 211
f 167 211 212
f 167 212 213
f 167 213 214
f 167 214 209
f 169 171 215
f 169 215 202
f 170 216 171
f 171 217 218
f 171 218 215
f 171 216 217
f 172 201 173
f 173 201 211
f 174 210 208
f 176 177 219
f 176 219 220
f 176 220 221
f 176 221 222
f 176 222 223
f 176 223 224
f 176 224 181
f 177 180 219
f 178 225 180
f 178 180 179
f 180 214 226
f 180 226 221
f 180 221 220
f 180 220 219
f 180 225 227
f 180 227 210
f 180 210 214
f 181 224 182
f 182 224 228
f 182 228 183
f 183 229 207
f 183 206 230
f 183 230 184
f 183 228 229
f 184 230 231
f 184 231 185
f 185 231 186
f 186 231 232
f 190 194 191
f 191 194 193
f 194 207 229
f 194 229 223
f 194 223 196
f 194 196 195
f 196 223 221
f 196 221 199
f 196 199 198
f 196 198 197
f 199 221 233
f 199 233 200
f 200 233 201
f 201 233 234
f 201 234 211
f 202 215 235
f 202 235 236
f 202 236 237
f 202 237 203
f 205 238 206
f 206 238 230
f 208 210 239
f 209 214 210
f 210 227 239
f 211 234 213
f 211 213 212
f 213 226 214
f 213 234 233
f 213 233 240
f 213 240 226
f 215 218 235
f 221 223 222
f 221 226 233
f 223 229 228
f 223 228 224
f 226 240 233
f 230 241 231
f 230 238 241
f 231 241 232

