# https://github.com/mikedh/trimesh
v 0.02753410 0.04104797 0.05809682
v 0.02753410 0.04306335 0.05805388
v 0.02634345 0.04310933 0.05817412
v -0.00101906 0.04976470 0.05799374
v 0.02753410 0.03974142 0.05789068
v 0.02753410 0.04403273 0.05783914
v 0.02634345 0.04450401 0.05795939
v 0.01582048 0.04731826 0.05814836
v 0.02414103 0.04526648 0.05805388
v 0.02213426 0.04521284 0.05816553
v -0.00101906 0.05102143 0.05799374
v -0.00101906 0.04884129 0.05771889
v -0.00101906 0.04871294 0.05767594
v -0.00101068 0.04759030 0.05663662
v 0.02753410 0.03886783 0.05679982
v 0.02753410 0.04421856 0.05766735
v 0.02742509 0.04417833 0.05782196
v 0.02337522 0.04633931 0.05785631
v 0.01792787 0.04731826 0.05813976
v 0.00109392 0.05099653 0.05799374
v -0.00101068 0.05102143 0.05799374
v 0.01983123 0.04731635 0.05801092
v 0.02213426 0.04658261 0.05795939
v -0.00101068 0.05207319 0.05740967
v -0.00101906 0.05207127 0.05740967
v -0.00101906 0.04758839 0.05662803
v 0.02753410 0.03807471 0.05521937
v 0.02753410 0.04488908 0.05668816
v 0.02564192 0.04648299 0.05613844
v 0.02478107 0.04600405 0.05753851
v 0.01899554 0.04837768 0.05781337
v 0.01582048 0.04885854 0.05801092
v 0.01371589 0.04915357 0.05802811
v 0.01359012 0.04917847 0.05802811
v 0.00530031 0.05086051 0.05796797
v 0.00319851 0.05094097 0.05797657
v 0.00109392 0.05204828 0.05740108
v 0.01792787 0.04854052 0.05789068
v 0.00109392 0.05289505 0.05635317
v -0.00101906 0.05288547 0.05636176
v -0.00101906 0.04673395 0.05463530
v 0.02753410 0.03759576 0.05405122
v 0.02753410 0.04559024 0.05465247
v 0.02591303 0.04663242 0.05465247
v 0.02423886 0.04750218 0.05465247
v 0.02289728 0.04818610 0.05465247
v 0.02153614 0.04855585 0.05605254
v 0.02039860 0.04801752 0.05746120
v 0.01238829 0.05038732 0.05776183
v 0.01696641 0.05050993 0.05578627
v 0.01582048 0.05069959 0.05614703
v 0.01582048 0.04991029 0.05720352
v 0.01371589 0.05020532 0.05763299
v 0.01359012 0.05022256 0.05765017
v 0.00740490 0.05076089 0.05793362
v 0.01098523 0.05053100 0.05782196
v 0.00950950 0.05063062 0.05788208
v 0.00319851 0.05199273 0.05729800
v 0.00319851 0.05283566 0.05625010
v 0.00319851 0.05321307 0.05464388
v 0.00109392 0.05328970 0.05464388
v -0.00101068 0.05328970 0.05464388
v -0.00101906 0.05328778 0.05464388
v 0.02753410 0.03725476 0.05259102
v -0.00101906 0.04623011 0.05170631
v 0.02753410 0.04563622 0.05384507
v 0.02603321 0.04668415 0.05254807
v 0.02184638 0.04867845 0.05465247
v 0.02195539 0.04874359 0.05254807
v 0.01371589 0.05097162 0.05658509
v 0.00699405 0.05266133 0.05588934
v 0.00530031 0.05191227 0.05711763
v 0.00839431 0.05257129 0.05556295
v 0.01709218 0.05055973 0.05465247
v 0.01582048 0.05098695 0.05465247
v 0.01371589 0.05150995 0.05465247
v 0.00530031 0.05274754 0.05607831
v 0.00530031 0.05304448 0.05464388
v 0.00530031 0.05320924 0.05253948
v 0.00319851 0.05336633 0.05253948
v 0.00109392 0.05341422 0.05253948
v -0.00101068 0.05343721 0.05253948
v -0.00101906 0.05343721 0.05253948
v 0.02753410 0.03706510 0.05130261
v -0.00101906 0.04608834 0.05043509
v 0.02753410 0.03502864 0.03571288
v 0.02753410 0.03682371 0.04950743
v 0.02753410 0.04570519 0.05254807
v 0.02753410 0.04572435 0.05185233
v 0.02607234 0.04670330 0.05044367
v 0.02403203 0.04792939 0.04200890
v 0.02317957 0.04835469 0.04271323
v 0.02200570 0.04879149 0.05044367
v 0.01724590 0.05061721 0.05254807
v 0.01735770 0.05065169 0.05044367
v 0.00891417 0.05265750 0.05253948
v 0.00740490 0.05290846 0.05253948
v 0.01582048 0.05109040 0.05254807
v 0.00921882 0.05271497 0.05043509
v 0.00740490 0.05300425 0.05043509
v 0.00530031 0.05326671 0.05043509
v 0.00319851 0.05342380 0.05043509
v 0.00109392 0.05355982 0.04832209
v 0.00109392 0.05349469 0.05043509
v -0.00101068 0.05351767 0.05043509
v -0.00101906 0.05351767 0.05043509
v -0.00101906 0.04524541 0.04200890
v 0.02753410 0.03479492 0.03360848
v 0.02753410 0.04596574 0.03992168
v 0.02610588 0.04672438 0.04833069
v 0.02425842 0.04784127 0.03992168
v 0.02319355 0.04837385 0.04130457
v 0.02617296 0.04676269 0.04413048
v 0.02204482 0.04881447 0.04833069
v 0.01741919 0.05066894 0.04833069
v 0.01582048 0.05114404 0.05044367
v 0.00936975 0.05274754 0.04832209
v 0.00740490 0.05306172 0.04832209
v 0.00319851 0.05347170 0.04832209
v 0.00740490 0.05343913 0.03360848
v 0.00530031 0.05367477 0.03149549
v 0.00109392 0.05360388 0.04622628
v -0.00101068 0.05356940 0.04832209
v -0.00101906 0.05356748 0.04832209
v -0.00101906 0.04407296 0.02983774
v 0.02753410 0.03439069 0.02939109
v 0.02753410 0.04600405 0.03781728
v 0.02731050 0.04614773 0.03781728
v 0.02620370 0.04677802 0.04202607
v 0.02623445 0.04678951 0.03992168
v 0.02625680 0.04679526 0.03781728
v 0.02427799 0.04784702 0.03781728
v 0.02322429 0.04838917 0.03781728
v 0.02320473 0.04838151 0.03992168
v 0.02233829 0.04876275 0.04200890
v 0.02210911 0.04884896 0.04413048
v 0.02207836 0.04883172 0.04623488
v 0.01746391 0.05068234 0.04623488
v 0.01582048 0.05124175 0.04413048
v 0.01582048 0.05121109 0.04623488
v 0.01582048 0.05118044 0.04833069
v 0.01083710 0.05264983 0.03570429
v 0.00950950 0.05301191 0.03360848
v 0.00740490 0.05345829 0.03149549
v 0.00319851 0.05373224 0.03149549
v 0.00109392 0.05366902 0.04201748
v 0.00109392 0.05364028 0.04413048
v 0.00530031 0.05336441 -0.00846234
v 0.00319851 0.05352150 -0.01057533
v 0.00319851 0.05353683 -0.00846234
v 0.00109392 0.05362304 -0.01057533
v 0.00109392 0.05363454 -0.00846234
v -0.00101068 0.05360963 0.04622628
v -0.00101068 0.05364794 0.04413048
v -0.00101906 0.05360963 0.04622628
v -0.00101906 0.04404614 0.02953711
v -0.00101906 0.04403656 0.02940827
v 0.02753410 0.03424126 0.02729528
v 0.02753410 0.04600597 0.03740499
v 0.02753410 0.04601554 0.03530059
v 0.02731609 0.04615348 0.03571288
v 0.02626240 0.04679717 0.03571288
v 0.02429475 0.04785851 0.03149549
v 0.02428637 0.04785085 0.03571288
v 0.02323547 0.04839492 0.03571288
v 0.02213426 0.04890068 0.03571288
v 0.02213426 0.04888919 0.03781728
v 0.02213426 0.04887578 0.03992168
v 0.01756453 0.05072449 0.03992168
v 0.01753937 0.05071108 0.04202607
v 0.01582048 0.05126474 0.04202607
v 0.01087622 0.05266133 0.03360848
v 0.00950950 0.05301383 0.03149549
v 0.01066660 0.05260577 -0.00214914
v 0.00740490 0.05310004 -0.00846234
v 0.00109392 0.05364220 -0.00635794
v -0.00101906 0.05364028 -0.00635794
v -0.00101906 0.05364986 -0.00214914
v 0.00109392 0.05372266 0.03149549
v -0.00101906 0.05368435 0.03990450
v 0.00109392 0.05369009 0.03990450
v -0.00101068 0.05367285 0.04201748
v 0.00530031 0.05334526 -0.01057533
v 0.00319851 0.05350043 -0.01267973
v 0.00109392 0.05360580 -0.01267973
v -0.00101906 0.05362879 -0.00846234
v -0.00101906 0.05358856 -0.01477554
v -0.00101906 0.05360197 -0.01267973
v -0.00101906 0.05364794 0.04413048
v -0.00101906 0.04392545 0.02728669
v 0.02753410 0.03422785 0.02683145
v 0.02753410 0.04599447 0.02519088
v 0.02624842 0.04681250 0.02098208
v 0.02625122 0.04681442 0.02307789
v 0.02625401 0.04681442 0.02519088
v 0.02625680 0.04681250 0.02729528
v 0.02625960 0.04680867 0.02939109
v 0.02429755 0.04786042 0.02939109
v 0.02323827 0.04839684 0.03360848
v 0.02213426 0.04891410 0.02939109
v 0.01757850 0.05073599 0.03571288
v 0.01757291 0.05073215 0.03781728
v 0.01760086 0.05073790 0.03149549
v 0.01582048 0.05128006 0.03992168
v 0.01582048 0.05131455 0.02939109
v 0.01582048 0.05131646 0.02729528
v 0.01582048 0.05131455 0.02098208
v 0.01582048 0.05131263 0.01886909
v 0.01582048 0.05126091 -0.00215773
v 0.01582048 0.05129539 0.03571288
v 0.01068617 0.05260960 -0.00005333
v 0.01582048 0.05124941 -0.00426213
v 0.01582048 0.05123600 -0.00636653
v 0.01582048 0.05122068 -0.00847093
v 0.01582048 0.05120343 -0.01057533
v 0.01582048 0.05118044 -0.01267973
v 0.01061630 0.05259236 -0.00426213
v 0.00942285 0.05275712 -0.00846234
v 0.00740490 0.05307897 -0.01057533
v -0.00101906 0.05367477 0.02307789
v -0.00101906 0.05367285 0.04201748
v 0.00530031 0.05332418 -0.01267973
v 0.00319851 0.05347936 -0.01477554
v 0.00109392 0.05358472 -0.01477554
v -0.00101068 0.05358856 -0.01477554
v -0.00101906 0.05356557 -0.01688853
v -0.00101906 0.04390629 0.02518229
v 0.02753410 0.03416271 0.02307789
v 0.02753410 0.03418379 0.02519088
v 0.02753410 0.04598872 0.02307789
v 0.02624283 0.04680484 0.01677328
v 0.02428357 0.04786042 0.01886909
v 0.02428637 0.04786426 0.02098208
v 0.02428917 0.04786617 0.02307789
v 0.02429196 0.04786617 0.02519088
v 0.02429475 0.04786426 0.02729528
v 0.02324386 0.04840067 0.02939109
v 0.02213426 0.04891601 0.02729528
v 0.01762322 0.05073599 0.02729528
v 0.01761484 0.05073599 0.02939109
v 0.01758689 0.05073790 0.03360848
v 0.01762043 0.05073407 0.02519088
v 0.01761204 0.05073024 0.02098208
v 0.01754776 0.05071683 -0.00005333
v 0.01753378 0.05071300 -0.00215773
v 0.01751422 0.05070725 -0.00426213
v 0.01746950 0.05068618 -0.00847093
v 0.01744714 0.05067468 -0.01057533
v 0.01741360 0.05065935 -0.01267973
v 0.01720677 0.05058847 -0.02320173
v 0.01582048 0.05112489 -0.01688853
v 0.01371589 0.05148888 -0.02957505
v 0.01057996 0.05258278 -0.00559348
v 0.00904274 0.05268815 -0.02109733
v 0.00910982 0.05269964 -0.01899293
v 0.00740490 0.05305597 -0.01267973
v 0.00740490 0.05303107 -0.01477554
v 0.00740490 0.05297360 -0.01899293
v 0.00530031 0.05326671 -0.01688853
v 0.00319851 0.05345254 -0.01688853
v 0.00109392 0.05355791 -0.01688853
v -0.00101068 0.05356557 -0.01688853
v 0.00109392 0.05343338 -0.02530613
v -0.00101068 0.05353109 -0.01899293
v -0.00101906 0.05352917 -0.01899293
v -0.00101906 0.04391779 0.02307789
v -0.00101906 0.04402124 0.02097349
v 0.02753410 0.03427766 0.02098208
v 0.02753410 0.04595999 0.01258166
v 0.02753410 0.04595232 0.01001343
v 0.02622606 0.04678951 0.00837286
v 0.02424165 0.04782977 -0.00005333
v 0.02318796 0.04837002 -0.00132456
v 0.02319075 0.04837193 -0.00005333
v 0.02322709 0.04839109 0.01677328
v 0.02323827 0.04839684 0.02307789
v 0.02324386 0.04840067 0.02729528
v 0.02213426 0.04888919 0.01677328
v 0.02213426 0.04884321 -0.00005333
v 0.02212308 0.04883363 -0.00426213
v 0.02209513 0.04882597 -0.00847093
v 0.02208116 0.04882022 -0.01057533
v 0.02206439 0.04881447 -0.01267973
v 0.02203924 0.04880490 -0.01478413
v 0.01716206 0.05057315 -0.02530613
v 0.01582048 0.05095247 -0.02952352
v 0.02200290 0.04878766 -0.01688853
v 0.01582048 0.05095055 -0.02957505
v 0.00866822 0.05261727 -0.02957505
v 0.00740490 0.05294103 -0.02109733
v 0.00530031 0.05310387 -0.02741053
v 0.00319851 0.05333376 -0.02530613
v 0.00319851 0.05342380 -0.01899293
v 0.00109392 0.05349660 -0.02109733
v 0.00319851 0.05330119 -0.02741053
v 0.00109392 0.05339698 -0.02741053
v -0.00101068 0.05334526 -0.02957505
v -0.00101906 0.05334526 -0.02951493
v -0.00101906 0.04413810 0.01971085
v 0.02753410 0.03816666 -0.01688853
v 0.02620650 0.04677994 0.00205107
v 0.02753410 0.04588336 -0.00689907
v 0.02618973 0.04677227 -0.00215773
v 0.02617016 0.04676269 -0.00636653
v 0.02423886 0.04777996 -0.01057533
v 0.02402644 0.04793322 -0.00207184
v 0.02318237 0.04836619 -0.00272463
v 0.02234109 0.04874551 -0.00207184
v 0.02313485 0.04834703 -0.01057533
v 0.02311808 0.04832404 -0.01267973
v 0.01706423 0.05053866 -0.02957505
v 0.02174856 0.04866888 -0.02957505
v 0.00743285 0.05278968 -0.02957505
v 0.00530031 0.05306939 -0.02957505
v 0.00324882 0.05325904 -0.02957505
v 0.00319851 0.05326288 -0.02957505
v 0.00109392 0.05334909 -0.02957505
v -0.00101906 0.05139884 -0.02957505
v -0.00101906 0.04537951 0.00836427
v -0.00101906 0.05135669 -0.02957505
v 0.02753410 0.03819923 -0.01700019
v -0.00101906 0.04565538 0.00625128
v 0.02753410 0.04587569 -0.00847093
v 0.02615898 0.04675694 -0.00847093
v 0.02613103 0.04674354 -0.01267973
v 0.02611426 0.04673012 -0.01478413
v 0.02606955 0.04670522 -0.01899293
v 0.02604439 0.04669181 -0.02109733
v 0.02601644 0.04667648 -0.02320173
v 0.02598011 0.04665924 -0.02530613
v 0.02594098 0.04663433 -0.02741053
v 0.02589067 0.04660752 -0.02952352
v 0.02589067 0.04660560 -0.02957505
v 0.02753410 0.04290051 -0.02957505
v 0.02753410 0.04585653 -0.01057533
v 0.02753410 0.04580481 -0.01539398
v 0.02753410 0.04583546 -0.01267973
v 0.02753410 0.04578757 -0.01688853
v 0.02753410 0.04569369 -0.02320173
v 0.02753410 0.04560366 -0.02819216
v 0.02753410 0.04557492 -0.02952352
v 0.02753410 0.04557301 -0.02957505
f 1 2 3
f 1 3 4
f 1 4 5
f 1 5 15
f 1 15 27
f 1 27 42
f 1 42 64
f 1 64 84
f 1 84 87
f 1 87 86
f 1 86 108
f 1 108 126
f 1 126 158
f 1 158 191
f 1 191 229
f 1 229 228
f 1 228 268
f 1 268 300
f 1 300 321
f 1 321 334
f 1 334 342
f 1 342 341
f 1 341 340
f 1 340 339
f 1 339 338
f 1 338 336
f 1 336 337
f 1 337 335
f 1 335 323
f 1 323 302
f 1 302 270
f 1 270 269
f 1 269 230
f 1 230 192
f 1 192 160
f 1 160 159
f 1 159 127
f 1 127 109
f 1 109 89
f 1 89 88
f 1 88 66
f 1 66 43
f 1 43 28
f 1 28 16
f 1 16 6
f 1 6 2
f 2 6 7
f 2 7 3
f 3 8 4
f 3 7 9
f 3 9 10
f 3 10 8
f 4 8 11
f 4 11 25
f 4 25 40
f 4 40 63
f 4 63 83
f 4 83 106
f 4 106 124
f 4 124 155
f 4 155 189
f 4 189 221
f 4 221 180
f 4 180 220
f 4 220 178
f 4 178 177
f 4 177 186
f 4 186 188
f 4 188 187
f 4 187 226
f 4 226 265
f 4 265 298
f 4 298 318
f 4 318 320
f 4 320 322
f 4 322 319
f 4 319 299
f 4 299 267
f 4 267 266
f 4 266 227
f 4 227 190
f 4 190 157
f 4 157 156
f 4 156 125
f 4 125 107
f 4 107 85
f 4 85 65
f 4 65 41
f 4 41 26
f 4 26 13
f 4 13 12
f 4 12 5
f 5 12 13
f 5 13 14
f 5 14 15
f 6 16 17
f 6 17 7
f 7 17 18
f 7 18 9
f 8 10 19
f 8 19 20
f 8 20 21
f 8 21 11
f 9 22 19
f 9 19 10
f 9 18 23
f 9 23 22
f 11 21 24
f 11 24 25
f 13 26 14
f 14 26 15
f 15 26 27
f 16 28 29
f 16 29 17
f 17 29 30
f 17 30 18
f 18 30 31
f 18 31 23
f 19 22 32
f 19 32 33
f 19 33 34
f 19 34 35
f 19 35 20
f 20 35 36
f 20 36 37
f 20 37 24
f 20 24 21
f 22 23 38
f 22 38 32
f 23 31 38
f 24 37 39
f 24 39 40
f 24 40 25
f 26 41 27
f 27 41 42
f 28 43 29
f 29 43 44
f 29 44 45
f 29 45 46
f 29 46 47
f 29 47 30
f 30 48 31
f 30 47 48
f 31 49 38
f 31 48 47
f 31 47 50
f 31 50 51
f 31 51 52
f 31 52 53
f 31 53 54
f 31 54 49
f 32 55 34
f 32 34 33
f 32 38 49
f 32 49 56
f 32 56 57
f 32 57 55
f 34 55 35
f 35 55 37
f 35 37 36
f 37 55 58
f 37 58 39
f 39 59 60
f 39 60 61
f 39 61 62
f 39 62 40
f 39 58 59
f 40 62 63
f 41 64 42
f 41 65 64
f 43 66 67
f 43 67 44
f 44 67 45
f 45 67 46
f 46 68 47
f 46 67 69
f 46 69 68
f 47 68 50
f 49 54 70
f 49 70 71
f 49 71 72
f 49 72 56
f 50 73 51
f 50 68 74
f 50 74 75
f 50 75 76
f 50 76 73
f 51 73 70
f 51 70 53
f 51 53 52
f 53 70 54
f 55 57 58
f 56 72 58
f 56 58 57
f 58 72 59
f 59 77 60
f 59 72 77
f 60 77 71
f 60 71 78
f 60 78 79
f 60 79 80
f 60 80 61
f 61 80 81
f 61 81 82
f 61 82 83
f 61 83 62
f 62 83 63
f 64 65 84
f 65 85 86
f 65 86 87
f 65 87 84
f 66 88 67
f 67 88 89
f 67 89 90
f 67 90 91
f 67 91 92
f 67 92 93
f 67 93 69
f 68 69 94
f 68 94 74
f 69 93 95
f 69 95 94
f 70 73 71
f 71 73 78
f 71 77 72
f 73 76 96
f 73 96 97
f 73 97 79
f 73 79 78
f 74 94 75
f 75 94 98
f 75 98 76
f 76 98 99
f 76 99 96
f 79 97 100
f 79 100 101
f 79 101 102
f 79 102 80
f 80 102 103
f 80 103 104
f 80 104 81
f 81 104 105
f 81 105 82
f 82 105 106
f 82 106 83
f 85 107 108
f 85 108 86
f 89 109 110
f 89 110 90
f 90 110 91
f 91 111 112
f 91 112 92
f 91 110 113
f 91 113 111
f 92 112 114
f 92 114 93
f 93 114 115
f 93 115 95
f 94 95 98
f 95 115 116
f 95 116 98
f 96 99 97
f 97 99 100
f 98 116 117
f 98 117 99
f 99 117 118
f 99 118 100
f 100 118 101
f 101 119 102
f 101 118 120
f 101 120 121
f 101 121 119
f 102 119 103
f 103 119 122
f 103 122 123
f 103 123 105
f 103 105 104
f 105 123 106
f 106 123 124
f 107 125 108
f 108 125 126
f 109 127 128
f 109 128 113
f 109 113 110
f 111 113 129
f 111 129 130
f 111 130 131
f 111 131 132
f 111 132 133
f 111 133 134
f 111 134 112
f 112 135 136
f 112 136 137
f 112 137 114
f 112 134 135
f 113 128 129
f 114 137 138
f 114 138 115
f 115 138 139
f 115 139 140
f 115 140 141
f 115 141 116
f 116 141 142
f 116 142 117
f 117 142 143
f 117 143 120
f 117 120 118
f 119 121 122
f 120 143 144
f 120 144 121
f 121 145 146
f 121 146 147
f 121 147 122
f 121 144 148
f 121 148 149
f 121 149 150
f 121 150 151
f 121 151 152
f 121 152 145
f 122 153 123
f 122 147 154
f 122 154 153
f 123 153 155
f 123 155 124
f 125 156 126
f 126 156 157
f 126 157 158
f 127 159 128
f 128 159 160
f 128 160 161
f 128 161 131
f 128 131 130
f 128 130 129
f 131 161 162
f 131 162 163
f 131 163 164
f 131 164 132
f 132 164 165
f 132 165 133
f 133 165 166
f 133 166 167
f 133 167 168
f 133 168 134
f 134 168 135
f 135 168 136
f 136 168 169
f 136 169 170
f 136 170 138
f 136 138 137
f 138 170 139
f 139 170 171
f 139 171 142
f 139 142 140
f 140 142 141
f 142 171 172
f 142 172 143
f 143 172 173
f 143 173 144
f 144 173 174
f 144 174 175
f 144 175 148
f 145 152 176
f 145 176 177
f 145 177 178
f 145 178 179
f 145 179 180
f 145 180 181
f 145 181 146
f 146 181 182
f 146 182 154
f 146 154 147
f 148 175 183
f 148 183 149
f 149 151 150
f 149 183 222
f 149 222 184
f 149 184 185
f 149 185 151
f 151 186 177
f 151 177 152
f 151 185 187
f 151 187 188
f 151 188 186
f 152 177 176
f 153 154 189
f 153 189 155
f 154 182 221
f 154 221 189
f 157 190 158
f 158 190 191
f 160 192 193
f 160 193 194
f 160 194 161
f 161 194 195
f 161 195 196
f 161 196 197
f 161 197 162
f 162 197 198
f 162 198 163
f 163 198 199
f 163 199 165
f 163 165 164
f 165 199 200
f 165 200 166
f 166 201 202
f 166 202 169
f 166 169 167
f 166 200 203
f 166 203 201
f 167 169 168
f 169 204 171
f 169 171 170
f 169 202 204
f 171 204 172
f 172 205 206
f 172 206 207
f 172 207 208
f 172 208 209
f 172 209 173
f 172 204 210
f 172 210 205
f 173 209 211
f 173 211 174
f 174 211 209
f 174 209 212
f 174 212 213
f 174 213 214
f 174 214 215
f 174 215 216
f 174 216 217
f 174 217 218
f 174 218 175
f 175 218 219
f 175 219 183
f 178 220 179
f 179 220 180
f 180 221 181
f 181 221 182
f 183 219 222
f 184 222 223
f 184 223 224
f 184 224 185
f 185 224 225
f 185 225 187
f 187 225 262
f 187 262 226
f 190 227 228
f 190 228 229
f 190 229 191
f 192 230 231
f 192 231 193
f 193 231 232
f 193 232 233
f 193 233 234
f 193 234 194
f 194 234 235
f 194 235 195
f 195 235 236
f 195 236 196
f 196 236 198
f 196 198 197
f 198 237 199
f 198 236 237
f 199 237 200
f 200 237 238
f 200 238 239
f 200 239 240
f 200 240 203
f 201 203 241
f 201 241 205
f 201 205 202
f 202 205 210
f 202 210 204
f 203 240 239
f 203 239 205
f 203 205 241
f 205 239 206
f 206 239 207
f 207 239 208
f 208 239 242
f 208 242 243
f 208 243 244
f 208 244 209
f 209 244 245
f 209 245 212
f 212 245 246
f 212 246 213
f 213 246 214
f 214 246 215
f 215 246 247
f 215 247 248
f 215 248 216
f 216 248 249
f 216 249 250
f 216 250 251
f 216 251 252
f 216 252 217
f 217 253 254
f 217 254 255
f 217 255 218
f 217 252 253
f 218 255 219
f 219 255 254
f 219 254 256
f 219 256 222
f 222 256 257
f 222 257 258
f 222 258 259
f 222 259 293
f 222 293 260
f 222 260 223
f 223 260 261
f 223 261 224
f 224 261 262
f 224 262 225
f 226 262 263
f 226 263 264
f 226 264 265
f 227 266 228
f 228 266 267
f 228 267 268
f 230 269 231
f 231 269 270
f 231 270 271
f 231 271 272
f 231 272 232
f 232 272 273
f 232 273 274
f 232 274 233
f 233 274 275
f 233 275 276
f 233 276 234
f 234 277 235
f 234 276 277
f 235 277 237
f 235 237 236
f 237 277 238
f 238 242 239
f 238 277 276
f 238 276 275
f 238 275 274
f 238 274 273
f 238 273 278
f 238 278 244
f 238 244 243
f 238 243 242
f 244 279 280
f 244 280 281
f 244 281 245
f 244 278 279
f 245 281 282
f 245 282 283
f 245 283 246
f 246 283 247
f 247 283 284
f 247 284 248
f 248 284 249
f 249 284 250
f 250 285 286
f 250 286 251
f 250 284 287
f 250 287 285
f 251 286 252
f 252 286 288
f 252 288 311
f 252 311 312
f 252 312 333
f 252 333 342
f 252 342 334
f 252 334 320
f 252 320 318
f 252 318 297
f 252 297 317
f 252 317 316
f 252 316 315
f 252 315 314
f 252 314 313
f 252 313 289
f 252 289 254
f 252 254 253
f 254 258 257
f 254 257 256
f 254 289 258
f 258 289 290
f 258 290 291
f 258 291 259
f 259 291 295
f 259 295 292
f 259 292 293
f 260 293 261
f 261 293 292
f 261 292 294
f 261 294 262
f 262 294 263
f 263 294 292
f 263 292 295
f 263 295 296
f 263 296 264
f 264 296 297
f 264 297 298
f 264 298 265
f 267 299 268
f 268 299 300
f 270 301 271
f 270 302 301
f 271 301 272
f 272 301 303
f 272 303 304
f 272 304 305
f 272 305 306
f 272 306 273
f 273 306 307
f 273 307 280
f 273 280 308
f 273 308 278
f 278 308 279
f 279 308 280
f 280 307 281
f 281 309 282
f 281 307 309
f 282 309 283
f 283 309 284
f 284 309 310
f 284 310 287
f 285 311 286
f 285 287 311
f 286 311 288
f 287 310 312
f 287 312 311
f 289 313 290
f 290 313 314
f 290 314 291
f 291 314 295
f 295 314 315
f 295 315 316
f 295 316 296
f 296 316 317
f 296 317 297
f 297 318 298
f 299 319 300
f 300 320 321
f 300 319 322
f 300 322 320
f 301 302 303
f 302 323 303
f 303 323 304
f 304 323 324
f 304 324 305
f 305 310 309
f 305 309 307
f 305 307 306
f 305 324 325
f 305 325 326
f 305 326 327
f 305 327 328
f 305 328 329
f 305 329 310
f 310 329 330
f 310 330 312
f 312 330 331
f 312 331 332
f 312 332 333
f 320 334 321
f 323 335 325
f 323 325 324
f 325 336 326
f 325 335 337
f 325 337 336
f 326 336 338
f 326 338 327
f 327 338 328
f 328 338 339
f 328 339 329
f 329 339 340
f 329 340 330
f 330 340 341
f 330 341 331
f 331 341 332
f 332 341 342
f 332 342 333

