# https://github.com/mikedh/trimesh
v -0.02796417 0.03360291 0.02517655
v -0.03965262 0.01768067 0.02518514
v -0.03971169 0.01768067 0.02308264
v -0.02800573 0.03360291 0.02378633
v -0.02801010 0.03360291 0.02728763
v -0.03966138 0.01768067 0.02678990
v -0.02809542 0.03360291 0.02174391
v -0.02802979 0.03360291 0.02307406
v -0.03985170 0.01768067 0.02098014
v -0.02816324 0.03360291 0.02939013
v -0.03975544 0.01768067 0.02866927
v -0.03967669 0.01768067 0.02728763
v -0.04308500 0.01768067 -0.02110414
v -0.02828793 0.03360291 0.01985595
v -0.02836450 0.03360291 0.03149263
v -0.04055392 0.01768067 0.03774005
v -0.04376535 0.01768067 -0.02262309
v -0.03836412 0.03360291 -0.02959995
v -0.03240504 0.03360291 -0.00426700
v -0.02872765 0.03360291 0.01675798
v -0.02840388 0.03360291 0.01886906
v -0.02849576 0.03360291 0.03269406
v -0.04142241 0.01768067 0.04646757
v -0.04139835 0.01768067 0.04623586
v -0.04769651 0.01768067 -0.02959995
v -0.04134366 0.03360291 -0.02959995
v -0.02859639 0.03360291 0.03359513
v -0.04164773 0.01768067 0.04845850
v -0.05011602 0.01768067 -0.02959995
v -0.04168930 0.03317893 -0.02959995
v -0.04134584 0.03360291 -0.02952271
v -0.02888078 0.03360291 0.03571479
v -0.03129591 0.03360291 0.05254335
v -0.04187962 0.01768067 0.05002036
v -0.02944300 0.03360291 0.03981680
v -0.03036399 0.03360291 0.04622728
v -0.04925628 0.01996262 -0.02959995
v -0.05015102 0.01768067 -0.02741163
v -0.04249434 0.03212681 -0.02959995
v -0.04172430 0.03322414 -0.02530914
v -0.04141585 0.03360291 -0.02530914
v -0.03148405 0.03360291 0.05371045
v -0.04267154 0.01768067 0.05456862
v -0.05015758 0.01768067 -0.02692248
v -0.04867218 0.02168656 -0.02320664
v -0.04865687 0.02165538 -0.02530914
v -0.04863718 0.02162265 -0.02741163
v -0.04861750 0.02158524 -0.02959995
v -0.04354659 0.03065070 -0.02959995
v -0.04356409 0.03067720 -0.02741163
v -0.04357940 0.03070370 -0.02530914
v -0.04251185 0.03215019 -0.02741163
v -0.04252716 0.03217201 -0.02530914
v -0.04173962 0.03324440 -0.02320664
v -0.04146835 0.03360291 -0.02110414
v -0.03172250 0.03360291 0.05443989
v -0.04273717 0.01768067 0.05479174
v -0.05025602 0.01768067 -0.01818639
v -0.04868531 0.02171149 -0.02110414
v -0.04663770 0.02590443 -0.02110414
v -0.04662020 0.02587793 -0.02320664
v -0.04658738 0.02582026 -0.02741163
v -0.05029321 0.01768067 -0.01478807
v -0.04656988 0.02578908 -0.02959995
v -0.04424007 0.02963754 -0.02959995
v -0.04426850 0.02960013 -0.02952271
v -0.04431882 0.02967651 -0.02320664
v -0.04433413 0.02970145 -0.02110414
v -0.04360784 0.03075202 -0.02110414
v -0.04362316 0.03077073 -0.01899306
v -0.04257310 0.03222656 -0.01899306
v -0.04258622 0.03224059 -0.01689056
v -0.04174837 0.03326311 -0.02110414
v -0.04175711 0.03327869 -0.01899306
v -0.04148804 0.03360291 -0.01899306
v -0.03195657 0.03360291 0.05494621
v -0.04361003 0.01768067 0.05674835
v -0.05031071 0.01768067 -0.01268557
v -0.04869187 0.02173487 -0.01899306
v -0.04665082 0.02592469 -0.01899306
v -0.04426632 0.02959858 -0.02959995
v -0.04434288 0.02971860 -0.01899306
v -0.04363847 0.03078008 -0.01689056
v -0.04259716 0.03224995 -0.01478807
v -0.04180962 0.03333637 -0.00636949
v -0.04158648 0.03360291 -0.00636949
v -0.03226503 0.03360291 0.05552118
v -0.03296288 0.03360291 0.05646515
v -0.04441070 0.01768067 0.05766658
v -0.05031290 0.01768067 -0.01057449
v -0.04872469 0.02183775 -0.00636949
v -0.04871812 0.02183775 -0.00847199
v -0.04871375 0.02182684 -0.01057449
v -0.04870937 0.02180502 -0.01268557
v -0.04869844 0.02175670 -0.01689056
v -0.04665957 0.02593872 -0.01689056
v -0.04663332 0.02598236 -0.01689056
v -0.04364722 0.03078787 -0.01478807
v -0.04666614 0.02594807 -0.01478807
v -0.04437789 0.02976692 -0.00426700
v -0.04259935 0.03225930 -0.01268557
v -0.04260591 0.03228423 -0.00636949
v -0.04260591 0.03228423 -0.00426700
v -0.04180743 0.03333637 -0.00426700
v -0.04158429 0.03360291 -0.00426700
v -0.03408732 0.03360291 0.05751211
v -0.04403881 0.01865486 0.05787254
v -0.04532294 0.01768067 0.05793261
v -0.05012914 0.01768067 0.02957035
v -0.04921253 0.01996262 0.04412478
v -0.04872031 0.02181749 -0.00215592
v -0.04872469 0.02182840 -0.00426700
v -0.04666614 0.02597301 -0.00215592
v -0.04667051 0.02597145 -0.00426700
v -0.04667051 0.02596210 -0.00847199
v -0.04666833 0.02595431 -0.01268557
v -0.04438226 0.02977315 -0.00216450
v -0.04365816 0.03081125 -0.00636949
v -0.04365816 0.03081749 -0.00426700
v -0.04365597 0.03082528 -0.00216450
v -0.04365378 0.03082684 -0.00005342
v -0.04365159 0.03082216 0.00204908
v -0.04259935 0.03226709 0.00204908
v -0.04259497 0.03226397 0.00415158
v -0.04175711 0.03326622 0.02307406
v -0.04147272 0.03360291 0.02573436
v -0.03455547 0.03360291 0.05776956
v -0.03515269 0.03360291 0.05794119
v -0.03566897 0.03360291 0.05800127
v -0.04550888 0.01768067 0.05793261
v -0.04520700 0.01996262 0.05803559
v -0.05011164 0.01768067 0.03130383
v -0.04919503 0.01996262 0.04623586
v -0.04858249 0.02151510 0.04412478
v -0.04858906 0.02153848 0.04202228
v -0.04860437 0.02157589 0.03781728
v -0.04860875 0.02159459 0.03570621
v -0.04657863 0.02581402 0.03570621
v -0.04658520 0.02582182 0.03360371
v -0.04438007 0.02976536 0.00415158
v -0.04438445 0.02977003 0.00204908
v -0.04438663 0.02977471 -0.00005342
v -0.04430132 0.02965313 0.03571479
v -0.04666176 0.02598236 -0.00640382
v -0.04665957 0.02598081 -0.00850632
v -0.04665520 0.02598236 -0.01062598
v -0.04364722 0.03081749 0.00415158
v -0.04258404 0.03225618 0.00836515
v -0.04174837 0.03325376 0.02728763
v -0.04257310 0.03224683 0.01257015
v -0.04174399 0.03324596 0.02939013
v -0.04145303 0.03360291 0.02939013
v -0.03672340 0.03360291 0.05798410
v -0.03889352 0.03048392 0.05806992
v -0.04702491 0.01768067 0.05791545
v -0.04310031 0.02417114 0.05805275
v -0.04312219 0.02598236 0.05800127
v -0.04527043 0.02207156 0.05796694
v -0.04658957 0.01996262 0.05790687
v -0.04982944 0.01768067 0.05437982
v -0.04916878 0.01996262 0.04833835
v -0.04654582 0.02573921 0.04412478
v -0.04656113 0.02578441 0.03991978
v -0.04856937 0.02148081 0.04623586
v -0.04651081 0.02566595 0.05043227
v -0.04652613 0.02569400 0.04833835
v -0.04653488 0.02571894 0.04623586
v -0.04656988 0.02580311 0.03781728
v -0.04429476 0.02964222 0.03781728
v -0.04357940 0.03070526 0.03571479
v -0.04252934 0.03217201 0.03571479
v -0.04172211 0.03322414 0.03571479
v -0.04142897 0.03360291 0.03359513
v -0.03774283 0.03360291 0.05796694
v -0.04117083 0.02854800 0.05801843
v -0.03882789 0.03248531 0.05796694
v -0.04718023 0.01768067 0.05789829
v -0.04052330 0.03048392 0.05794977
v -0.04243965 0.02795725 0.05793261
v -0.04312438 0.02619902 0.05798410
v -0.04638831 0.02137481 0.05786396
v -0.04807278 0.01768067 0.05768375
v -0.04982506 0.01768067 0.05464585
v -0.04976818 0.01785836 0.05464585
v -0.04913815 0.01996262 0.05043227
v -0.04424225 0.02956273 0.04832977
v -0.04426413 0.02959546 0.04412478
v -0.04852124 0.02137014 0.05253477
v -0.04423131 0.02954246 0.05043227
v -0.04648238 0.02562386 0.05253477
v -0.04627674 0.02598236 0.05254335
v -0.04587641 0.02667599 0.05254335
v -0.04357284 0.03069435 0.03781728
v -0.04251841 0.03216266 0.03781728
v -0.04171336 0.03321479 0.03781728
v -0.04139835 0.03360291 0.03781728
v -0.04141366 0.03360291 0.03571479
v -0.03823723 0.03360291 0.05790687
v -0.04007483 0.03171530 0.05786396
v -0.04198682 0.02936009 0.05778673
v -0.04426194 0.02544617 0.05784679
v -0.04601641 0.02277609 0.05770949
v -0.04802902 0.01785836 0.05766658
v -0.04904627 0.01785836 0.05661104
v -0.04907471 0.01768067 0.05663679
v -0.04918409 0.01768067 0.05638792
v -0.04868094 0.01996262 0.05620771
v -0.04844030 0.02118933 0.05584728
v -0.04904627 0.01996262 0.05464585
v -0.04910533 0.01996262 0.05253477
v -0.04849717 0.02131714 0.05464585
v -0.04420069 0.02949726 0.05203704
v -0.04345033 0.03059459 0.05043227
v -0.04243747 0.03205199 0.04832977
v -0.04348971 0.03061485 0.04832977
v -0.04247466 0.03211122 0.04412478
v -0.04248997 0.03213304 0.04201370
v -0.04250747 0.03215019 0.03991120
v -0.04352690 0.03064603 0.04412478
v -0.04642550 0.02553346 0.05464585
v -0.04618049 0.02598081 0.05464585
v -0.04584797 0.02658559 0.05465443
v -0.04170461 0.03320231 0.03991120
v -0.04169586 0.03318517 0.04201370
v -0.04135022 0.03360291 0.04201370
v -0.03861788 0.03360291 0.05776098
v -0.03948199 0.03311815 0.05753786
v -0.04384192 0.02684901 0.05765800
v -0.04157554 0.03048392 0.05744346
v -0.04456383 0.02796349 0.05624203
v -0.04563139 0.02417114 0.05733190
v -0.04665739 0.02417114 0.05627636
v -0.04724804 0.02198271 0.05677409
v -0.04764181 0.01996262 0.05726324
v -0.04634456 0.02538850 0.05586444
v -0.04479572 0.02831420 0.05465443
v -0.04408255 0.02936633 0.05465443
v -0.04230621 0.03189612 0.05465443
v -0.04152960 0.03294825 0.05465443
v -0.04161055 0.03305580 0.05043227
v -0.04163898 0.03310412 0.04832977
v -0.04166305 0.03313685 0.04622728
v -0.04245497 0.03208472 0.04622728
v -0.04168055 0.03316335 0.04412478
v -0.04130865 0.03360291 0.04486280
v -0.04134147 0.03360291 0.04272597
v -0.03929167 0.03360291 0.05733190
v -0.04044236 0.03360291 0.05630211
v -0.04088207 0.03244011 0.05674835
v -0.04511511 0.02611797 0.05675693
v -0.04220777 0.03176051 0.05595026
v -0.04534481 0.02598236 0.05659388
v -0.04100457 0.03360291 0.05465443
v -0.04110083 0.03360291 0.05254335
v -0.04118177 0.03360291 0.05043227
v -0.04122334 0.03360291 0.04914503
v -0.04127147 0.03360291 0.04699104
v -0.04077050 0.03360291 0.05555550
f 1 2 3
f 1 3 4
f 1 4 8
f 1 8 7
f 1 7 14
f 1 14 21
f 1 21 20
f 1 20 19
f 1 19 18
f 1 18 26
f 1 26 31
f 1 31 41
f 1 41 55
f 1 55 75
f 1 75 86
f 1 86 105
f 1 105 126
f 1 126 152
f 1 152 173
f 1 173 197
f 1 197 196
f 1 196 225
f 1 225 246
f 1 246 245
f 1 245 257
f 1 257 256
f 1 256 255
f 1 255 254
f 1 254 253
f 1 253 258
f 1 258 248
f 1 248 247
f 1 247 226
f 1 226 198
f 1 198 174
f 1 174 153
f 1 153 129
f 1 129 128
f 1 128 127
f 1 127 106
f 1 106 88
f 1 88 87
f 1 87 76
f 1 76 56
f 1 56 42
f 1 42 33
f 1 33 36
f 1 36 35
f 1 35 32
f 1 32 27
f 1 27 22
f 1 22 15
f 1 15 10
f 1 10 5
f 1 5 6
f 1 6 2
f 2 6 12
f 2 12 11
f 2 11 16
f 2 16 24
f 2 24 23
f 2 23 28
f 2 28 34
f 2 34 43
f 2 43 57
f 2 57 77
f 2 77 89
f 2 89 108
f 2 108 130
f 2 130 155
f 2 155 177
f 2 177 182
f 2 182 205
f 2 205 206
f 2 206 183
f 2 183 160
f 2 160 132
f 2 132 109
f 2 109 90
f 2 90 78
f 2 78 63
f 2 63 58
f 2 58 44
f 2 44 38
f 2 38 29
f 2 29 25
f 2 25 17
f 2 17 13
f 2 13 9
f 2 9 3
f 3 7 8
f 3 8 4
f 3 9 7
f 5 10 11
f 5 11 12
f 5 12 6
f 7 9 13
f 7 13 14
f 10 15 16
f 10 16 11
f 13 17 18
f 13 18 19
f 13 19 20
f 13 20 21
f 13 21 14
f 15 22 23
f 15 23 24
f 15 24 16
f 17 25 18
f 18 25 29
f 18 29 37
f 18 37 48
f 18 48 64
f 18 64 81
f 18 81 65
f 18 65 49
f 18 49 39
f 18 39 30
f 18 30 26
f 22 27 23
f 23 27 28
f 26 30 31
f 27 32 28
f 28 33 34
f 28 32 35
f 28 35 36
f 28 36 33
f 29 38 37
f 30 39 40
f 30 40 31
f 31 40 41
f 33 42 34
f 34 42 43
f 37 38 44
f 37 44 45
f 37 45 46
f 37 46 47
f 37 47 48
f 39 49 50
f 39 50 51
f 39 51 52
f 39 52 40
f 40 52 53
f 40 53 54
f 40 54 41
f 41 54 55
f 42 56 57
f 42 57 43
f 44 58 45
f 45 59 60
f 45 60 61
f 45 61 62
f 45 62 46
f 45 58 63
f 45 63 59
f 46 62 64
f 46 64 47
f 47 64 48
f 49 65 66
f 49 66 50
f 50 67 51
f 50 66 67
f 51 67 68
f 51 68 69
f 51 69 52
f 52 69 53
f 53 69 70
f 53 70 71
f 53 71 54
f 54 71 72
f 54 72 73
f 54 73 55
f 55 73 74
f 55 74 75
f 56 76 77
f 56 77 57
f 59 63 78
f 59 78 79
f 59 79 80
f 59 80 60
f 60 67 66
f 60 66 61
f 60 80 68
f 60 68 67
f 61 66 62
f 62 66 64
f 64 66 81
f 65 81 66
f 68 80 82
f 68 82 83
f 68 83 70
f 68 70 69
f 70 83 72
f 70 72 71
f 72 74 73
f 72 83 84
f 72 84 74
f 74 84 85
f 74 85 75
f 75 85 86
f 76 87 77
f 77 87 88
f 77 88 89
f 78 90 91
f 78 91 92
f 78 92 93
f 78 93 94
f 78 94 95
f 78 95 79
f 79 95 94
f 79 94 80
f 80 94 96
f 80 96 97
f 80 97 82
f 82 98 83
f 82 97 99
f 82 99 100
f 82 100 98
f 83 98 84
f 84 98 101
f 84 101 85
f 85 102 103
f 85 103 104
f 85 104 105
f 85 105 86
f 85 101 102
f 88 106 89
f 89 107 108
f 89 106 107
f 90 109 110
f 90 110 111
f 90 111 112
f 90 112 91
f 91 112 113
f 91 113 114
f 91 114 115
f 91 115 116
f 91 116 99
f 91 99 92
f 92 99 93
f 93 99 96
f 93 96 94
f 96 99 97
f 98 100 117
f 98 117 118
f 98 118 102
f 98 102 101
f 99 116 117
f 99 117 100
f 102 118 119
f 102 119 120
f 102 120 103
f 103 120 121
f 103 121 122
f 103 122 123
f 103 123 104
f 104 123 124
f 104 124 125
f 104 125 126
f 104 126 105
f 106 127 107
f 107 127 128
f 107 128 129
f 107 129 108
f 108 129 131
f 108 131 130
f 109 132 133
f 109 133 110
f 110 133 134
f 110 134 135
f 110 135 136
f 110 136 137
f 110 137 111
f 111 137 138
f 111 138 139
f 111 139 112
f 112 139 113
f 113 140 141
f 113 141 142
f 113 142 114
f 113 139 143
f 113 143 140
f 114 142 144
f 114 144 115
f 115 145 116
f 115 144 145
f 116 145 146
f 116 146 142
f 116 142 117
f 117 142 118
f 118 142 119
f 119 142 120
f 120 142 121
f 121 142 141
f 121 141 122
f 122 141 140
f 122 140 147
f 122 147 124
f 122 124 123
f 124 147 148
f 124 148 125
f 125 149 126
f 125 148 150
f 125 150 149
f 126 149 151
f 126 151 152
f 129 153 154
f 129 154 131
f 130 131 155
f 131 154 156
f 131 156 157
f 131 157 158
f 131 158 159
f 131 159 155
f 132 160 133
f 133 160 161
f 133 161 134
f 134 162 163
f 134 163 135
f 134 161 164
f 134 164 165
f 134 165 166
f 134 166 167
f 134 167 162
f 135 163 168
f 135 168 136
f 136 168 138
f 136 138 137
f 138 143 139
f 138 168 169
f 138 169 143
f 140 143 170
f 140 170 147
f 142 146 145
f 142 145 144
f 143 169 193
f 143 193 170
f 147 170 171
f 147 171 150
f 147 150 148
f 149 150 171
f 149 171 151
f 151 171 172
f 151 172 173
f 151 173 152
f 153 174 154
f 154 175 157
f 154 157 156
f 154 174 176
f 154 176 175
f 155 159 177
f 157 175 178
f 157 178 179
f 157 179 180
f 157 180 181
f 157 181 158
f 158 181 159
f 159 181 182
f 159 182 177
f 160 183 184
f 160 184 161
f 161 184 185
f 161 185 164
f 162 167 186
f 162 186 163
f 163 186 187
f 163 187 168
f 164 185 188
f 164 188 165
f 165 189 166
f 165 188 190
f 165 190 191
f 165 191 192
f 165 192 189
f 166 189 167
f 167 189 186
f 168 187 169
f 169 187 193
f 170 193 171
f 171 193 194
f 171 194 195
f 171 195 172
f 172 195 196
f 172 196 197
f 172 197 173
f 174 198 176
f 175 176 178
f 176 198 199
f 176 199 178
f 178 199 179
f 179 199 200
f 179 200 201
f 179 201 180
f 180 201 181
f 181 201 202
f 181 202 203
f 181 203 182
f 182 203 204
f 182 204 205
f 183 206 207
f 183 207 208
f 183 208 184
f 184 209 210
f 184 210 185
f 184 208 209
f 185 210 188
f 186 189 193
f 186 193 187
f 188 210 211
f 188 211 190
f 189 192 212
f 189 212 213
f 189 213 214
f 189 214 215
f 189 215 216
f 189 216 217
f 189 217 218
f 189 218 219
f 189 219 193
f 190 211 220
f 190 220 221
f 190 221 222
f 190 222 191
f 191 222 192
f 192 222 212
f 193 219 218
f 193 218 194
f 194 218 223
f 194 223 195
f 195 223 196
f 196 223 224
f 196 224 225
f 198 226 199
f 199 226 227
f 199 227 200
f 200 228 201
f 200 227 229
f 200 229 230
f 200 230 228
f 201 228 202
f 202 228 231
f 202 231 232
f 202 232 233
f 202 233 207
f 202 207 234
f 202 234 203
f 203 234 207
f 203 207 204
f 204 207 206
f 204 206 205
f 207 233 208
f 208 233 232
f 208 232 235
f 208 235 220
f 208 220 211
f 208 211 209
f 209 211 210
f 212 222 236
f 212 236 237
f 212 237 238
f 212 238 239
f 212 239 213
f 213 239 240
f 213 240 214
f 214 240 241
f 214 241 242
f 214 242 243
f 214 243 215
f 215 243 216
f 216 243 242
f 216 242 244
f 216 244 224
f 216 224 217
f 217 224 218
f 218 224 223
f 220 235 221
f 221 235 222
f 222 235 236
f 224 244 245
f 224 245 246
f 224 246 225
f 226 247 227
f 227 247 248
f 227 248 249
f 227 249 229
f 228 230 250
f 228 250 232
f 228 232 231
f 229 249 251
f 229 251 230
f 230 251 235
f 230 235 232
f 230 232 252
f 230 252 250
f 232 250 252
f 235 251 236
f 236 251 237
f 237 251 238
f 238 251 239
f 239 253 254
f 239 254 240
f 239 251 253
f 240 254 255
f 240 255 256
f 240 256 241
f 241 256 242
f 242 256 257
f 242 257 244
f 244 257 245
f 248 258 251
f 248 251 249
f 251 258 253

