# https://github.com/mikedh/trimesh
v 0.04702116 0.00022082 -0.05712163
v 0.04344321 0.01770304 -0.05712163
v 0.04954300 0.00022082 -0.05712163
v 0.04751656 0.00022082 0.05771539
v 0.04631220 0.01770304 -0.05712163
v 0.04751656 0.00733623 0.05810030
v 0.04751656 0.00943081 0.05821350
v 0.04751656 0.01364222 0.05834935
v 0.04751656 0.01575049 0.05836067
v 0.04751656 0.01770304 0.05823614
v 0.04953032 0.00102340 -0.05712163
v 0.05083317 0.00102340 -0.05449524
v 0.05083609 0.00022082 -0.05449524
v 0.04793686 0.00022082 0.05813425
v 0.04668960 0.01770304 -0.05648768
v 0.04693242 0.01596611 -0.05712163
v 0.04949326 0.00022082 0.05850784
v 0.04949326 0.00312825 0.05853048
v 0.04949326 0.00943766 0.05843991
v 0.04949326 0.01154251 0.05832671
v 0.04949326 0.00523310 0.05851916
v 0.04949326 0.00733623 0.05848520
v 0.04904565 0.01575049 0.05810030
v 0.04871116 0.01770304 0.05795312
v 0.04951959 0.00133998 -0.05712163
v 0.05079806 0.00312825 -0.05435939
v 0.05138707 0.00312825 -0.05266128
v 0.05144266 0.00102340 -0.05266128
v 0.05144753 0.00022082 -0.05266128
v 0.04678614 0.01770304 -0.05629523
v 0.04864875 0.01534150 -0.05417826
v 0.04696655 0.01587028 -0.05712163
v 0.05056402 0.00022082 0.05830406
v 0.05123104 0.00022082 0.05816821
v 0.05122227 0.00102340 0.05816821
v 0.05118423 0.00312825 0.05815689
v 0.05110720 0.00523310 0.05812294
v 0.05098334 0.00733623 0.05807765
v 0.05085657 0.00943766 0.05802105
v 0.05070834 0.01154251 0.05793048
v 0.04959370 0.01357206 0.05812294
v 0.05059425 0.01282081 0.05783992
v 0.05036215 0.01422405 0.05754558
v 0.04952739 0.01770304 0.05675313
v 0.04942792 0.00312825 -0.05712163
v 0.05073857 0.00523310 -0.05420090
v 0.04929920 0.00523310 -0.05712163
v 0.05124469 0.00523310 -0.05266128
v 0.05265384 0.00212374 -0.04741981
v 0.05265384 0.00193037 -0.04741981
v 0.05274453 0.00022082 -0.04631038
v 0.04759457 0.01770304 -0.05461976
v 0.04838350 0.01674473 -0.05365751
v 0.04893350 0.01592504 -0.05284242
v 0.05062838 0.01086656 -0.05185752
v 0.04883013 0.01359259 -0.05483485
v 0.04850637 0.01285504 -0.05595560
v 0.04754192 0.01401356 -0.05712163
v 0.05188344 0.00022082 0.05750030
v 0.05227449 0.00102340 0.05708143
v 0.05223646 0.00312825 0.05697954
v 0.05223061 0.00520058 0.05660596
v 0.05189612 0.00733623 0.05675313
v 0.05161137 0.00943766 0.05675313
v 0.05128468 0.01154251 0.05675313
v 0.05085852 0.01357206 0.05680974
v 0.05069664 0.01527134 0.05614181
v 0.05016029 0.01588397 0.05680974
v 0.05010860 0.01770304 0.05464748
v 0.05064788 0.00692211 -0.05397449
v 0.04922508 0.00733623 -0.05687258
v 0.04910026 0.00733623 -0.05712163
v 0.05090045 0.00750907 -0.05285374
v 0.05148264 0.00733623 -0.05056696
v 0.05266652 0.00435693 -0.04546133
v 0.05270455 0.00294686 -0.04624246
v 0.05285570 0.00312825 -0.04425002
v 0.05295322 0.00102340 -0.04425002
v 0.05157723 0.00943766 -0.04846131
v 0.05274063 0.00114661 -0.04649151
v 0.05282645 0.00022082 -0.04556322
v 0.04819041 0.01770304 -0.05301223
v 0.04863120 0.01732314 -0.05225374
v 0.04877162 0.01770304 -0.05128016
v 0.04894423 0.01770304 -0.05062356
v 0.05065081 0.01296627 -0.04992168
v 0.05079904 0.01155791 -0.05060092
v 0.05119496 0.00943766 -0.05056696
v 0.05075515 0.00943766 -0.05229902
v 0.05050063 0.00832534 -0.05368015
v 0.04867215 0.01154251 -0.05629523
v 0.04821967 0.01154251 -0.05712163
v 0.04765991 0.01360286 -0.05712163
v 0.05228327 0.00022082 0.05708143
v 0.05257192 0.00022082 0.05643615
v 0.05274063 0.00102340 0.05602861
v 0.05271040 0.00312825 0.05592672
v 0.05268017 0.00447843 0.05581351
v 0.05173326 0.01154251 0.05464748
v 0.05133734 0.01364564 0.05464748
v 0.05081269 0.01562728 0.05464748
v 0.05049478 0.01667970 0.05464748
v 0.05052403 0.01676698 0.05311919
v 0.05055036 0.01681831 0.05172675
v 0.05015736 0.01770304 0.05300598
v 0.04879600 0.00921348 -0.05712163
v 0.04885354 0.00933156 -0.05695182
v 0.04906320 0.00760148 -0.05712163
v 0.05266652 0.00639504 -0.04336700
v 0.05271138 0.00512871 -0.04414813
v 0.05281572 0.00523310 -0.04214437
v 0.05296395 0.00312825 -0.04214437
v 0.05306342 0.00102340 -0.04214437
v 0.05295127 0.00022082 -0.04425002
v 0.05306439 0.00022082 -0.04214437
v 0.05299613 0.00022082 -0.04344625
v 0.05123787 0.01154251 -0.04846131
v 0.05149824 0.01154251 -0.04635566
v 0.04833669 0.01770304 -0.05260468
v 0.04853563 0.01770304 -0.05201601
v 0.04899397 0.01770304 -0.05038583
v 0.05056597 0.01476823 -0.04753301
v 0.05075125 0.01365933 -0.04832546
v 0.05273966 0.00022082 0.05602861
v 0.05288203 0.00102340 0.05464748
v 0.05283522 0.00312825 0.05464748
v 0.05271625 0.00479330 0.05464748
v 0.05259435 0.00584402 0.05464748
v 0.05237494 0.00733623 0.05464748
v 0.05264799 0.00627867 0.05146637
v 0.05266944 0.00645665 0.05006261
v 0.05269480 0.00666713 0.04833054
v 0.05272405 0.00688788 0.04622490
v 0.05275428 0.00706928 0.04411925
v 0.05143681 0.01364564 0.05254184
v 0.05080099 0.01593873 0.05246259
v 0.05089265 0.01575049 0.05043619
v 0.05056109 0.01684570 0.05043619
v 0.05017394 0.01770304 0.05242863
v 0.05269480 0.00663975 -0.04214437
v 0.05287423 0.00523310 -0.04003872
v 0.05302148 0.00312825 -0.04003872
v 0.05306927 0.00312825 -0.03793307
v 0.05311023 0.00102340 -0.04003872
v 0.05311023 0.00022082 -0.04003872
v 0.05101650 0.01364564 -0.04635566
v 0.05119301 0.01364564 -0.04425002
v 0.05131881 0.01364564 -0.04214437
v 0.05143583 0.01364564 -0.04003872
v 0.04938989 0.01770304 -0.04844999
v 0.05063325 0.01498042 -0.04635566
v 0.05282742 0.00022082 0.05516824
v 0.05286643 0.00022082 0.05464748
v 0.05291421 0.00022082 0.05333428
v 0.05295810 0.00102340 0.05254184
v 0.05292591 0.00312825 0.05254184
v 0.05275331 0.00508935 0.05254184
v 0.05276794 0.00544016 0.05062864
v 0.05285180 0.00523310 0.04833054
v 0.05294444 0.00523310 0.04411925
v 0.05297955 0.00523310 0.04201360
v 0.05277281 0.00719078 0.04201360
v 0.05289861 0.00523310 0.04622490
v 0.05265091 0.00839550 0.03689665
v 0.05146509 0.01364564 0.05043619
v 0.05091898 0.01575049 0.04833054
v 0.05057572 0.01688677 0.04833054
v 0.05021197 0.01770304 0.05002865
v 0.05272113 0.00690500 -0.04003872
v 0.05291519 0.00523310 -0.03793307
v 0.05310242 0.00312825 -0.03582743
v 0.05314338 0.00102340 -0.03793307
v 0.05312485 0.00022082 -0.03923495
v 0.05072882 0.01525080 -0.04425002
v 0.05079904 0.01541508 -0.04214437
v 0.05085365 0.01555027 -0.04003872
v 0.05089558 0.01565808 -0.03793307
v 0.05150507 0.01364564 -0.03793307
v 0.04941037 0.01770304 -0.04828018
v 0.04959468 0.01770304 -0.04635566
v 0.05302929 0.00022082 0.04833054
v 0.05300588 0.00102340 0.05043619
v 0.05297468 0.00312825 0.05043619
v 0.05301368 0.00312825 0.04833054
v 0.05313948 0.00312825 0.03991927
v 0.05316678 0.00312825 0.03781363
v 0.05319117 0.00312825 0.03569666
v 0.05302538 0.00523310 0.03781363
v 0.05306927 0.00523310 0.03360233
v 0.05308877 0.00523310 0.03149668
v 0.05278256 0.00725923 0.03991927
v 0.05276403 0.00752789 0.03767778
v 0.05285668 0.00733623 0.02939103
v 0.05270065 0.00868128 0.02517974
v 0.05148166 0.01364564 0.04833054
v 0.05103991 0.01575049 0.03781363
v 0.05101845 0.01575049 0.03991927
v 0.05060205 0.01696548 0.04411925
v 0.05061472 0.01700484 0.04201360
v 0.05062740 0.01704249 0.03991927
v 0.05026561 0.01770304 0.04564754
v 0.05273185 0.00705559 -0.03793307
v 0.05310340 0.00523310 -0.02320486
v 0.05307707 0.00523310 -0.02531051
v 0.05294444 0.00523310 -0.03582743
v 0.05312876 0.00312825 -0.03373310
v 0.05314436 0.00022082 -0.03793307
v 0.05316971 0.00102340 -0.03582743
v 0.05317264 0.00022082 -0.03582743
v 0.05315606 0.00022082 -0.03714063
v 0.04972731 0.01770304 -0.04425002
v 0.04984335 0.01770304 -0.04189531
v 0.05003059 0.01770304 -0.03793307
v 0.05003937 0.01770304 -0.03765006
v 0.05008520 0.01770304 -0.03582743
v 0.05027146 0.01770304 -0.02740484
v 0.05058937 0.01693639 -0.02740484
v 0.05060887 0.01699629 -0.02531051
v 0.05062350 0.01703907 -0.02320486
v 0.05063716 0.01707671 -0.02108790
v 0.05108867 0.01575049 -0.01899357
v 0.05111305 0.01575049 -0.01688792
v 0.05113255 0.01575049 -0.01478227
v 0.05166012 0.01364564 -0.01688792
v 0.05252024 0.00984836 -0.01478227
v 0.05250659 0.00981585 -0.01688792
v 0.05268700 0.00861283 -0.02320486
v 0.05267529 0.00854267 -0.02531051
v 0.05266164 0.00846395 -0.02701993
v 0.05307122 0.00022082 0.04622490
v 0.05304976 0.00102340 0.04833054
v 0.05308487 0.00102340 0.04622490
v 0.05318337 0.00102340 0.03991927
v 0.05321555 0.00102340 0.03781363
v 0.05324285 0.00102340 0.03569666
v 0.05326625 0.00102340 0.03360233
v 0.05321359 0.00312825 0.03360233
v 0.05323212 0.00312825 0.03149668
v 0.05309950 0.00523310 0.02939103
v 0.05288398 0.00733623 0.02517974
v 0.05287228 0.00733623 0.02728539
v 0.05270552 0.00871551 0.02307409
v 0.05154993 0.01364564 0.03781363
v 0.05105453 0.01575049 0.03569666
v 0.05063618 0.01706987 0.03781363
v 0.05031632 0.01770304 0.04128908
v 0.05286546 0.00733623 -0.02320486
v 0.05312583 0.00523310 -0.02108790
v 0.05327016 0.00312825 -0.02108790
v 0.05329258 0.00102340 -0.02531051
v 0.05318239 0.00022082 -0.03503498
v 0.05031047 0.01770304 -0.02531051
v 0.05038946 0.01770304 -0.01988790
v 0.05041579 0.01770304 -0.01783886
v 0.05064983 0.01710923 -0.01899357
v 0.05067324 0.01717083 -0.01478227
v 0.05167378 0.01364564 -0.01478227
v 0.05068299 0.01719821 -0.01267663
v 0.05114522 0.01575049 -0.01267663
v 0.05272113 0.00879936 -0.01478227
v 0.05271527 0.00876856 -0.01688792
v 0.05270552 0.00872406 -0.01899357
v 0.05269675 0.00867101 -0.02108790
v 0.05252706 0.00986889 -0.01267663
v 0.05292299 0.00733623 -0.01688792
v 0.05290446 0.00733623 -0.01899357
v 0.05288593 0.00733623 -0.02108790
v 0.05316093 0.00022082 0.04071172
v 0.05319214 0.00022082 0.03861740
v 0.05320384 0.00022082 0.03781363
v 0.05323115 0.00022082 0.03569666
v 0.05325455 0.00022082 0.03360233
v 0.05326625 0.00022082 0.03230045
v 0.05327308 0.00022082 0.03149668
v 0.05328381 0.00102340 0.03149668
v 0.05329941 0.00102340 0.02939103
v 0.05331014 0.00102340 0.02728539
v 0.05324188 0.00312825 0.02939103
v 0.05319507 0.00523310 -0.00005406
v 0.05290446 0.00733623 0.01886280
v 0.05271235 0.00876000 0.01886280
v 0.05156065 0.01364564 0.03569666
v 0.05106331 0.01575049 0.03360233
v 0.05034752 0.01770304 0.03781363
v 0.05033777 0.01770304 0.03910418
v 0.05032997 0.01770304 0.03991927
v 0.05063910 0.01708527 0.03569666
v 0.05035825 0.01770304 0.03569666
v 0.05314436 0.00523310 -0.01899357
v 0.05333647 0.00102340 -0.02108790
v 0.05331599 0.00102340 -0.02320486
v 0.05328771 0.00312825 -0.01899357
v 0.05335500 0.00102340 -0.01899357
v 0.05328966 0.00022082 -0.02531051
v 0.05045187 0.01770304 -0.01478227
v 0.05168060 0.01364564 -0.01267663
v 0.05253097 0.00988772 -0.01057098
v 0.05047137 0.01770304 -0.01267663
v 0.05068689 0.01721190 -0.01057098
v 0.05115108 0.01575049 -0.01057098
v 0.05272405 0.00881989 -0.01267663
v 0.05294347 0.00733623 -0.01267663
v 0.05293567 0.00733623 -0.01478227
v 0.05315898 0.00523310 -0.01688792
v 0.05328771 0.00022082 0.02939103
v 0.05330039 0.00022082 0.02728539
v 0.05330917 0.00022082 0.02517974
v 0.05332477 0.00022082 0.02097977
v 0.05332477 0.00102340 0.02307409
v 0.05333159 0.00102340 0.02097977
v 0.05339791 0.00102340 -0.00005406
v 0.05334134 0.00312825 -0.00425404
v 0.05334622 0.00312825 -0.00637101
v 0.05319799 0.00523310 -0.00215971
v 0.05295517 0.00733623 -0.00005406
v 0.05295127 0.00733623 0.00204026
v 0.05294640 0.00733623 0.00414591
v 0.05271527 0.00878053 0.01676847
v 0.05156846 0.01364564 0.03360233
v 0.05064203 0.01709725 0.03360233
v 0.05114815 0.01575049 0.00414591
v 0.05068006 0.01718452 0.01256850
v 0.05036703 0.01770304 0.03360233
v 0.05335207 0.00022082 -0.01899357
v 0.05334037 0.00022082 -0.02029545
v 0.05331111 0.00022082 -0.02320486
v 0.05333257 0.00022082 -0.02108790
v 0.05330234 0.00312825 -0.01688792
v 0.05335695 0.00022082 -0.01818980
v 0.05332769 0.00312825 -0.01267663
v 0.05336670 0.00102340 -0.01688792
v 0.05168255 0.01364564 -0.01057098
v 0.05253097 0.00990312 -0.00846533
v 0.05272990 0.00888150 -0.00425404
v 0.05272893 0.00886952 -0.00637101
v 0.05272795 0.00885412 -0.00846533
v 0.05272600 0.00883872 -0.01057098
v 0.05048015 0.01770304 -0.01057098
v 0.05068689 0.01721704 -0.00637101
v 0.05068786 0.01721704 -0.00425404
v 0.05115400 0.01575049 -0.00215971
v 0.05294932 0.00733623 -0.01057098
v 0.05318922 0.00523310 -0.01057098
v 0.05317069 0.00523310 -0.01478227
v 0.05318142 0.00523310 -0.01267663
v 0.05333939 0.00022082 0.01676847
v 0.05338815 0.00022082 0.00073838
v 0.05339205 0.00022082 -0.00135594
v 0.05340473 0.00102340 -0.00425404
v 0.05338230 0.00022082 0.00284403
v 0.05319702 0.00523310 -0.00637101
v 0.05319799 0.00523310 -0.00425404
v 0.05340571 0.00102340 -0.00637101
v 0.05334427 0.00312825 -0.00846533
v 0.05295712 0.00733623 -0.00215971
v 0.05272795 0.00889177 -0.00005406
v 0.05272698 0.00888492 0.00204026
v 0.05272600 0.00887465 0.00414591
v 0.05272015 0.00881305 0.01256850
v 0.05271820 0.00879765 0.01466283
v 0.05252024 0.00993050 -0.00425404
v 0.05168060 0.01364564 -0.00846533
v 0.05068396 0.01719137 0.01045153
v 0.05115205 0.01575049 0.00204026
v 0.05043042 0.01770304 0.01149303
v 0.05336377 0.00022082 -0.01688792
v 0.05337743 0.00102340 -0.01478227
v 0.05333744 0.00312825 -0.01057098
v 0.05115400 0.01575049 -0.00005406
v 0.05252804 0.00991681 -0.00637101
v 0.05272893 0.00889005 -0.00215971
v 0.05295712 0.00733623 -0.00425404
v 0.05295517 0.00733623 -0.00637101
v 0.05047917 0.01770304 -0.00846533
v 0.05069079 0.01720848 0.00204026
v 0.05068981 0.01721190 -0.00005406
v 0.05319507 0.00523310 -0.00846533
v 0.05339400 0.00022082 -0.00345027
v 0.05339400 0.00022082 -0.00556724
v 0.05339303 0.00022082 -0.00637101
v 0.05339011 0.00022082 -0.00846533
v 0.05338620 0.00022082 -0.01057098
v 0.05338133 0.00022082 -0.01267663
v 0.05340083 0.00102340 -0.00846533
v 0.05339498 0.00102340 -0.01057098
v 0.05068981 0.01720506 0.00414591
v 0.05047527 0.01770304 -0.00637101
v 0.05337353 0.00022082 -0.01478227
v 0.05338718 0.00102340 -0.01267663
f 1 2 5
f 1 5 16
f 1 16 32
f 1 32 58
f 1 58 93
f 1 93 92
f 1 92 106
f 1 106 108
f 1 108 72
f 1 72 47
f 1 47 45
f 1 45 25
f 1 25 11
f 1 11 3
f 1 3 13
f 1 13 29
f 1 29 51
f 1 51 81
f 1 81 114
f 1 114 116
f 1 116 115
f 1 115 145
f 1 145 173
f 1 173 207
f 1 207 210
f 1 210 209
f 1 209 251
f 1 251 294
f 1 294 326
f 1 326 327
f 1 327 325
f 1 325 324
f 1 324 329
f 1 329 366
f 1 366 388
f 1 388 383
f 1 383 382
f 1 382 381
f 1 381 380
f 1 380 379
f 1 379 378
f 1 378 348
f 1 348 347
f 1 347 350
f 1 350 346
f 1 346 308
f 1 308 307
f 1 307 306
f 1 306 305
f 1 305 274
f 1 274 273
f 1 273 272
f 1 272 271
f 1 271 270
f 1 270 269
f 1 269 268
f 1 268 230
f 1 230 181
f 1 181 154
f 1 154 153
f 1 153 152
f 1 152 124
f 1 124 95
f 1 95 94
f 1 94 59
f 1 59 34
f 1 34 33
f 1 33 17
f 1 17 14
f 1 14 4
f 1 4 2
f 2 4 6
f 2 6 7
f 2 7 8
f 2 8 9
f 2 9 10
f 2 10 24
f 2 24 44
f 2 44 69
f 2 69 105
f 2 105 139
f 2 139 168
f 2 168 201
f 2 201 246
f 2 246 286
f 2 286 285
f 2 285 284
f 2 284 288
f 2 288 323
f 2 323 365
f 2 365 387
f 2 387 374
f 2 374 338
f 2 338 298
f 2 298 295
f 2 295 254
f 2 254 253
f 2 253 252
f 2 252 216
f 2 216 215
f 2 215 214
f 2 214 213
f 2 213 212
f 2 212 211
f 2 211 180
f 2 180 179
f 2 179 150
f 2 150 121
f 2 121 85
f 2 85 84
f 2 84 120
f 2 120 119
f 2 119 82
f 2 82 52
f 2 52 30
f 2 30 15
f 2 15 5
f 3 11 12
f 3 12 13
f 4 14 6
f 5 15 16
f 6 14 7
f 7 14 8
f 8 17 18
f 8 18 9
f 8 14 17
f 9 19 20
f 9 20 10
f 9 18 21
f 9 21 22
f 9 22 19
f 10 20 23
f 10 23 24
f 11 25 12
f 12 26 27
f 12 27 28
f 12 28 29
f 12 29 13
f 12 25 26
f 15 30 31
f 15 31 32
f 15 32 16
f 17 33 18
f 18 33 34
f 18 34 35
f 18 35 21
f 19 22 36
f 19 36 37
f 19 37 38
f 19 38 39
f 19 39 20
f 20 39 40
f 20 40 41
f 20 41 23
f 21 35 36
f 21 36 22
f 23 41 40
f 23 40 42
f 23 42 24
f 24 42 43
f 24 43 44
f 25 45 26
f 26 46 27
f 26 45 47
f 26 47 46
f 27 46 48
f 27 48 49
f 27 49 28
f 28 49 29
f 29 49 50
f 29 50 51
f 30 52 31
f 31 53 54
f 31 54 55
f 31 55 56
f 31 56 57
f 31 57 32
f 31 52 53
f 32 57 58
f 34 59 35
f 35 59 60
f 35 60 36
f 36 60 37
f 37 60 61
f 37 61 38
f 38 61 39
f 39 61 40
f 40 61 62
f 40 62 63
f 40 63 42
f 42 63 64
f 42 64 65
f 42 65 66
f 42 66 43
f 43 66 67
f 43 67 68
f 43 68 44
f 44 68 67
f 44 67 69
f 46 70 48
f 46 47 71
f 46 71 70
f 47 72 71
f 48 70 73
f 48 73 74
f 48 74 49
f 49 75 76
f 49 76 77
f 49 77 78
f 49 78 50
f 49 74 79
f 49 79 75
f 50 78 80
f 50 80 81
f 50 81 51
f 52 82 53
f 53 82 83
f 53 83 54
f 54 83 84
f 54 84 85
f 54 85 86
f 54 86 55
f 55 86 87
f 55 87 88
f 55 88 89
f 55 89 90
f 55 90 56
f 56 91 57
f 56 90 91
f 57 91 92
f 57 92 93
f 57 93 58
f 59 94 60
f 60 94 95
f 60 95 96
f 60 96 97
f 60 97 61
f 61 97 98
f 61 98 62
f 62 98 63
f 63 98 64
f 64 98 65
f 65 98 99
f 65 99 100
f 65 100 67
f 65 67 66
f 67 100 101
f 67 101 102
f 67 102 69
f 69 102 103
f 69 103 104
f 69 104 105
f 70 90 89
f 70 89 73
f 70 71 106
f 70 106 107
f 70 107 90
f 71 72 108
f 71 108 106
f 73 89 88
f 73 88 74
f 74 88 79
f 75 109 110
f 75 110 77
f 75 77 76
f 75 79 109
f 77 110 109
f 77 109 111
f 77 111 112
f 77 112 113
f 77 113 78
f 78 114 80
f 78 113 115
f 78 115 116
f 78 116 114
f 79 88 117
f 79 117 118
f 79 118 109
f 80 114 81
f 82 119 83
f 83 119 120
f 83 120 84
f 85 121 122
f 85 122 86
f 86 117 87
f 86 122 123
f 86 123 117
f 87 117 88
f 90 107 91
f 91 107 106
f 91 106 92
f 95 124 96
f 96 124 125
f 96 125 97
f 97 125 126
f 97 126 98
f 98 126 127
f 98 127 128
f 98 128 129
f 98 129 99
f 99 129 130
f 99 130 131
f 99 131 132
f 99 132 133
f 99 133 134
f 99 134 135
f 99 135 100
f 100 135 101
f 101 135 136
f 101 136 102
f 102 136 103
f 103 136 104
f 104 137 138
f 104 138 139
f 104 139 105
f 104 136 137
f 109 140 111
f 109 118 140
f 111 140 141
f 111 141 112
f 112 141 142
f 112 142 113
f 113 142 143
f 113 143 144
f 113 144 115
f 115 144 145
f 117 123 146
f 117 146 118
f 118 146 147
f 118 147 148
f 118 148 149
f 118 149 140
f 121 150 122
f 122 151 146
f 122 146 123
f 122 150 151
f 124 152 125
f 125 152 153
f 125 153 154
f 125 154 155
f 125 155 156
f 125 156 126
f 126 156 127
f 127 156 157
f 127 157 128
f 128 157 130
f 128 130 129
f 130 157 131
f 131 157 132
f 132 157 158
f 132 158 159
f 132 159 133
f 133 159 134
f 134 160 161
f 134 161 162
f 134 162 135
f 134 159 163
f 134 163 160
f 135 162 164
f 135 164 165
f 135 165 137
f 135 137 136
f 137 165 166
f 137 166 167
f 137 167 138
f 138 167 168
f 138 168 139
f 140 149 169
f 140 169 141
f 141 169 170
f 141 170 143
f 141 143 142
f 143 170 171
f 143 171 172
f 143 172 144
f 144 172 173
f 144 173 145
f 146 151 147
f 147 151 174
f 147 174 148
f 148 175 149
f 148 174 175
f 149 175 176
f 149 176 177
f 149 177 178
f 149 178 169
f 150 179 151
f 151 179 180
f 151 180 174
f 154 181 155
f 155 181 182
f 155 182 183
f 155 183 156
f 156 183 159
f 156 159 157
f 157 159 158
f 159 183 163
f 160 163 183
f 160 183 184
f 160 184 161
f 161 185 186
f 161 186 187
f 161 187 188
f 161 188 162
f 161 184 185
f 162 188 189
f 162 189 190
f 162 190 191
f 162 191 164
f 164 192 193
f 164 193 194
f 164 194 165
f 164 191 192
f 165 195 196
f 165 196 197
f 165 197 166
f 165 194 195
f 166 197 198
f 166 198 167
f 167 198 168
f 168 198 199
f 168 199 200
f 168 200 201
f 169 178 202
f 169 202 203
f 169 203 204
f 169 204 205
f 169 205 170
f 170 205 171
f 171 205 204
f 171 204 206
f 171 206 172
f 172 207 173
f 172 206 208
f 172 208 209
f 172 209 210
f 172 210 207
f 174 180 175
f 175 180 211
f 175 211 176
f 176 211 212
f 176 212 213
f 176 213 177
f 177 213 214
f 177 214 215
f 177 215 216
f 177 216 217
f 177 217 218
f 177 218 219
f 177 219 220
f 177 220 221
f 177 221 178
f 178 221 222
f 178 222 223
f 178 223 224
f 178 224 225
f 178 225 226
f 178 226 227
f 178 227 228
f 178 228 229
f 178 229 202
f 181 230 231
f 181 231 182
f 182 231 183
f 183 231 184
f 184 231 232
f 184 232 233
f 184 233 234
f 184 234 185
f 185 234 186
f 186 234 235
f 186 235 187
f 187 235 236
f 187 236 237
f 187 237 188
f 188 237 189
f 189 237 190
f 190 237 238
f 190 238 239
f 190 239 240
f 190 240 241
f 190 241 193
f 190 193 191
f 191 193 192
f 193 241 194
f 194 241 240
f 194 240 242
f 194 242 243
f 194 243 195
f 195 243 244
f 195 244 196
f 196 245 200
f 196 200 197
f 196 244 245
f 197 200 199
f 197 199 198
f 200 245 246
f 200 246 201
f 202 229 228
f 202 228 247
f 202 247 203
f 203 247 248
f 203 248 249
f 203 249 206
f 203 206 204
f 206 249 250
f 206 250 208
f 208 250 251
f 208 251 209
f 216 252 218
f 216 218 217
f 218 252 219
f 219 252 253
f 219 253 220
f 220 253 254
f 220 254 255
f 220 255 222
f 220 222 221
f 222 255 256
f 222 256 223
f 223 257 224
f 223 256 258
f 223 258 259
f 223 259 257
f 224 257 225
f 225 260 261
f 225 261 262
f 225 262 263
f 225 263 226
f 225 257 264
f 225 264 260
f 226 263 227
f 227 263 265
f 227 265 266
f 227 266 267
f 227 267 247
f 227 247 228
f 230 268 232
f 230 232 231
f 232 268 233
f 233 268 234
f 234 268 269
f 234 269 270
f 234 270 271
f 234 271 235
f 235 271 272
f 235 272 236
f 236 272 273
f 236 273 274
f 236 274 275
f 236 275 238
f 236 238 237
f 238 275 276
f 238 276 277
f 238 277 278
f 238 278 239
f 239 278 279
f 239 279 240
f 240 280 242
f 240 279 280
f 242 280 281
f 242 281 282
f 242 282 243
f 243 282 244
f 244 282 283
f 244 283 245
f 245 284 285
f 245 285 286
f 245 286 246
f 245 283 287
f 245 287 288
f 245 288 284
f 247 267 248
f 248 267 266
f 248 266 289
f 248 289 249
f 249 290 291
f 249 291 250
f 249 289 292
f 249 292 293
f 249 293 290
f 250 291 251
f 251 291 294
f 254 295 255
f 255 295 256
f 256 295 258
f 257 259 296
f 257 296 297
f 257 297 264
f 258 298 299
f 258 299 259
f 258 295 298
f 259 299 300
f 259 300 296
f 260 264 297
f 260 297 301
f 260 301 302
f 260 302 303
f 260 303 261
f 261 303 265
f 261 265 262
f 262 265 263
f 265 303 304
f 265 304 289
f 265 289 266
f 274 305 276
f 274 276 275
f 276 305 306
f 276 306 277
f 277 306 307
f 277 307 308
f 277 308 346
f 277 346 309
f 277 309 278
f 278 309 310
f 278 310 311
f 278 311 312
f 278 312 279
f 279 312 313
f 279 313 314
f 279 314 315
f 279 315 316
f 279 316 317
f 279 317 280
f 280 317 281
f 281 317 318
f 281 318 319
f 281 319 282
f 282 319 283
f 283 320 287
f 283 319 321
f 283 321 322
f 283 322 320
f 287 320 323
f 287 323 288
f 289 304 328
f 289 328 292
f 290 293 324
f 290 324 325
f 290 325 291
f 291 326 294
f 291 325 327
f 291 327 326
f 292 328 293
f 293 329 324
f 293 328 330
f 293 330 331
f 293 331 329
f 296 300 332
f 296 332 333
f 296 333 297
f 297 333 334
f 297 334 335
f 297 335 336
f 297 336 337
f 297 337 301
f 298 338 299
f 299 338 339
f 299 339 340
f 299 340 300
f 300 340 341
f 300 341 332
f 301 337 342
f 301 342 302
f 302 342 377
f 302 377 343
f 302 343 345
f 302 345 303
f 303 344 304
f 303 345 344
f 304 344 330
f 304 330 328
f 309 346 310
f 310 346 311
f 311 347 348
f 311 348 349
f 311 349 313
f 311 313 312
f 311 346 350
f 311 350 347
f 313 351 352
f 313 352 314
f 313 349 353
f 313 353 354
f 313 354 377
f 313 377 351
f 314 352 372
f 314 372 355
f 314 355 315
f 315 356 357
f 315 357 358
f 315 358 359
f 315 359 316
f 315 355 356
f 316 359 360
f 316 360 317
f 317 360 318
f 318 360 319
f 319 360 361
f 319 361 362
f 319 362 321
f 320 322 323
f 321 363 322
f 321 362 364
f 321 364 363
f 322 363 323
f 323 363 365
f 329 331 366
f 330 367 331
f 330 344 345
f 330 345 368
f 330 368 389
f 330 389 367
f 331 367 366
f 332 341 369
f 332 369 362
f 332 362 370
f 332 370 333
f 333 370 371
f 333 371 334
f 334 371 372
f 334 372 373
f 334 373 335
f 335 373 342
f 335 342 336
f 336 342 337
f 338 374 375
f 338 375 376
f 338 376 340
f 338 340 339
f 340 376 341
f 341 376 369
f 342 373 377
f 343 377 354
f 343 354 368
f 343 368 345
f 348 378 349
f 349 378 353
f 351 373 372
f 351 372 352
f 351 377 373
f 353 378 379
f 353 379 380
f 353 380 381
f 353 381 382
f 353 382 383
f 353 383 384
f 353 384 354
f 354 384 385
f 354 385 368
f 355 372 371
f 355 371 356
f 356 371 370
f 356 370 357
f 357 370 358
f 358 370 359
f 359 370 361
f 359 361 360
f 361 370 362
f 362 369 364
f 363 364 386
f 363 386 387
f 363 387 365
f 364 369 375
f 364 375 386
f 366 367 389
f 366 389 388
f 368 385 389
f 369 376 375
f 374 387 386
f 374 386 375
f 383 388 389
f 383 389 385
f 383 385 384

