# https://github.com/mikedh/trimesh
v -0.01182027 0.04805896 -0.05712221
v -0.01182027 0.04795044 -0.05730146
v -0.01364067 0.04671872 -0.05862952
v -0.01358185 0.04755976 -0.05712221
v -0.01182027 0.04533779 -0.05712221
v -0.01182027 0.04685980 -0.05909026
v -0.01232031 0.04617883 -0.05996121
v -0.01364067 0.04599977 -0.05968212
v -0.01527805 0.04646098 -0.05823856
v -0.01585326 0.04685709 -0.05712221
v -0.01182027 0.02034525 -0.06327177
v -0.04226703 0.02034254 -0.05712221
v -0.01182027 0.04665361 -0.05941025
v -0.01266674 0.04418474 -0.06216624
v -0.01347726 0.04480331 -0.06118101
v -0.01574541 0.04462154 -0.06057352
v -0.01182027 0.04571490 -0.06062885
v -0.01727820 0.04433939 -0.06025233
v -0.01588594 0.04574203 -0.05895914
v -0.01792858 0.04489013 -0.05912996
v -0.01785341 0.04598620 -0.05751077
v -0.01785341 0.04621681 -0.05712221
v -0.01729781 0.04640401 -0.05712221
v -0.01182027 0.02034525 -0.06553093
v -0.03543972 0.02034254 -0.06304561
v -0.04520843 0.02034254 -0.05712221
v -0.01324195 0.04296387 -0.06304561
v -0.01351321 0.04288519 -0.06304561
v -0.01347726 0.04319991 -0.06278938
v -0.01574541 0.04262746 -0.06267028
v -0.01406881 0.04396770 -0.06194128
v -0.01182027 0.04427970 -0.06226368
v -0.01182027 0.04336540 -0.06304561
v -0.01189544 0.04334641 -0.06304561
v -0.01222553 0.04194648 -0.06413429
v -0.01574541 0.04368012 -0.06162611
v -0.01888944 0.04205229 -0.06213617
v -0.01868027 0.04404909 -0.05992632
v -0.01995815 0.04454015 -0.05847675
v -0.01820311 0.04609201 -0.05712221
v -0.01182027 0.02745613 -0.06865743
v -0.02223283 0.02034525 -0.06871037
v -0.04001523 0.02034254 -0.06304561
v -0.02628543 0.02034525 -0.06926974
v -0.02416435 0.02034525 -0.06924207
v -0.04456132 0.02182929 -0.05712221
v -0.04425411 0.02122970 -0.05808338
v -0.04444694 0.02034254 -0.05834081
v -0.01364394 0.04171588 -0.06398392
v -0.01514732 0.04236972 -0.06304561
v -0.01574541 0.04216895 -0.06304561
v -0.01662456 0.04183254 -0.06304561
v -0.01749064 0.04230732 -0.06238157
v -0.01182027 0.04326773 -0.06312741
v -0.01182027 0.04252436 -0.06374453
v -0.01182027 0.04148527 -0.06450600
v -0.01182027 0.04108102 -0.06476464
v -0.01364394 0.04066593 -0.06468525
v -0.01574541 0.04134147 -0.06372167
v -0.01811487 0.04121668 -0.06304561
v -0.01842208 0.03972450 -0.06407895
v -0.01960845 0.04049229 -0.06304561
v -0.01995815 0.04071476 -0.06274246
v -0.02160860 0.04027525 -0.06240804
v -0.02300740 0.03988729 -0.06207963
v -0.01995815 0.04176742 -0.06186550
v -0.02157592 0.04235887 -0.06037743
v -0.01995815 0.04272513 -0.06081411
v -0.01995815 0.04377507 -0.05952934
v -0.01992546 0.04540019 -0.05712221
v -0.02120007 0.04425257 -0.05807015
v -0.01182027 0.02823206 -0.06894494
v -0.04055448 0.02034254 -0.06264502
v -0.04001523 0.02034525 -0.06304561
v -0.03945963 0.02034525 -0.06345582
v -0.03916222 0.02034525 -0.06366634
v -0.03807064 0.02034525 -0.06438210
v -0.03678295 0.02034525 -0.06502328
v -0.03448539 0.02034525 -0.06611076
v -0.02819080 0.02034525 -0.06877172
v -0.02636713 0.02214129 -0.06891607
v -0.02431796 0.02432528 -0.06894374
v -0.02416435 0.02206803 -0.06939726
v -0.01182027 0.03048660 -0.06937440
v -0.01364394 0.02838399 -0.06924929
v -0.04438157 0.02221725 -0.05712221
v -0.04391748 0.02263506 -0.05756851
v -0.04312331 0.02210330 -0.05901688
v -0.04362335 0.02034254 -0.05941747
v -0.04388807 0.02034254 -0.05907703
v -0.01574541 0.04028882 -0.06445548
v -0.01182027 0.03929042 -0.06574746
v -0.01264713 0.03786878 -0.06635977
v -0.01701675 0.04004464 -0.06430752
v -0.01795473 0.04104575 -0.06323086
v -0.01995488 0.03824861 -0.06448917
v -0.02111183 0.03791219 -0.06428706
v -0.01995488 0.03930127 -0.06379385
v -0.01995815 0.04031052 -0.06304561
v -0.01777171 0.03897299 -0.06471893
v -0.02084710 0.03982760 -0.06304561
v -0.02196810 0.03918190 -0.06304561
v -0.02263809 0.03878850 -0.06304561
v -0.02416435 0.03848735 -0.06261495
v -0.02554027 0.03806141 -0.06231300
v -0.02416435 0.03954001 -0.06173317
v -0.02416435 0.04056012 -0.06068058
v -0.02297472 0.04196276 -0.05994797
v -0.02208576 0.04313751 -0.05900846
v -0.02178508 0.04452658 -0.05712221
v -0.02416435 0.04245382 -0.05846953
v -0.02259887 0.04391615 -0.05750475
v -0.02223610 0.04431225 -0.05712221
v -0.04160031 0.02034254 -0.06169588
v -0.04024727 0.02162038 -0.06240082
v -0.03976684 0.02084174 -0.06304561
v -0.03887789 0.02204904 -0.06320199
v -0.03787127 0.02106964 -0.06426662
v -0.03969494 0.02097196 -0.06304561
v -0.03676661 0.02188897 -0.06462029
v -0.03468149 0.02206803 -0.06556221
v -0.03362585 0.02100995 -0.06634293
v -0.03174336 0.02341913 -0.06643676
v -0.02769076 0.02149016 -0.06863699
v -0.02573310 0.02372570 -0.06868871
v -0.02371660 0.02576320 -0.06867909
v -0.02215439 0.02638719 -0.06892088
v -0.01995488 0.02627867 -0.06939124
v -0.02206288 0.02417335 -0.06940928
v -0.01574541 0.02838399 -0.06941169
v -0.01182027 0.03263261 -0.06887277
v -0.01364394 0.03048660 -0.06928178
v -0.04405475 0.02290094 -0.05712221
v -0.04365276 0.02362532 -0.05712221
v -0.04211343 0.02533725 -0.05802323
v -0.04244352 0.02417064 -0.05846111
v -0.04196309 0.02297962 -0.05995038
v -0.04233240 0.02157697 -0.06034134
v -0.04259712 0.02034254 -0.06064329
v -0.01182027 0.03902183 -0.06588821
v -0.01182027 0.03798273 -0.06641030
v -0.01364394 0.03217140 -0.06878976
v -0.01703636 0.03585842 -0.06639947
v -0.01995488 0.03679713 -0.06518929
v -0.02110529 0.03369884 -0.06637541
v -0.02191254 0.03677814 -0.06464074
v -0.02361202 0.03606461 -0.06444225
v -0.02251717 0.03746725 -0.06400557
v -0.02365777 0.03817536 -0.06304561
v -0.02206288 0.03889974 -0.06320801
v -0.01778478 0.03665334 -0.06583408
v -0.02694234 0.03755407 -0.06190760
v -0.02624294 0.03889160 -0.06108237
v -0.02486702 0.03738857 -0.06304561
v -0.02741296 0.03371240 -0.06428827
v -0.02824963 0.03494955 -0.06304561
v -0.02786071 0.03614871 -0.06243450
v -0.02554027 0.04015588 -0.06025714
v -0.02416435 0.04161007 -0.05952092
v -0.02533764 0.04213097 -0.05803767
v -0.02347149 0.04368554 -0.05712221
v -0.02281784 0.04402467 -0.05712221
v -0.04184870 0.02034254 -0.06144687
v -0.03988777 0.02302302 -0.06208684
v -0.03914588 0.02196494 -0.06304561
v -0.03902169 0.02218198 -0.06304561
v -0.03877003 0.02260250 -0.06304561
v -0.03814580 0.02363617 -0.06304561
v -0.03745294 0.02247499 -0.06400076
v -0.03605087 0.02364431 -0.06443623
v -0.03481548 0.02427645 -0.06480314
v -0.03407360 0.02627867 -0.06446510
v -0.02980857 0.02568723 -0.06649090
v -0.02777900 0.02781968 -0.06648849
v -0.02709594 0.02922232 -0.06621060
v -0.02569714 0.02982190 -0.06648007
v -0.02151709 0.02774643 -0.06864179
v -0.01993527 0.02842469 -0.06884510
v -0.01785341 0.02838399 -0.06927095
v -0.01586633 0.03064667 -0.06892208
v -0.04333901 0.02417878 -0.05712221
v -0.04198270 0.02650928 -0.05712221
v -0.04170163 0.02673989 -0.05736040
v -0.04029956 0.02785224 -0.05836006
v -0.04091726 0.02612945 -0.05889297
v -0.03968187 0.02692438 -0.05976272
v -0.04013288 0.02552445 -0.06023067
v -0.01524210 0.03182413 -0.06859969
v -0.02190601 0.03451547 -0.06574506
v -0.01785341 0.03006336 -0.06873924
v -0.01921953 0.02965641 -0.06855758
v -0.02344207 0.03179971 -0.06644398
v -0.02626908 0.03411665 -0.06450721
v -0.02425586 0.03481661 -0.06483321
v -0.02425586 0.03677814 -0.06370483
v -0.02925624 0.03561696 -0.06203632
v -0.02860913 0.03697619 -0.06127123
v -0.02796529 0.03831372 -0.06050495
v -0.02694234 0.03971636 -0.05975550
v -0.02822021 0.03246441 -0.06452164
v -0.02956672 0.03168305 -0.06431714
v -0.02881503 0.03308569 -0.06394663
v -0.02963862 0.03381278 -0.06304561
v -0.02833460 0.03466468 -0.06319116
v -0.02626908 0.03258921 -0.06514598
v -0.02845552 0.03478406 -0.06304561
v -0.03008964 0.03421432 -0.06254517
v -0.02784437 0.04027796 -0.05835284
v -0.02924317 0.03982217 -0.05775858
v -0.02685410 0.04175114 -0.05712221
v -0.02589978 0.04234530 -0.05712221
v -0.02413494 0.04332471 -0.05712221
v -0.03951846 0.02417064 -0.06171874
v -0.03803142 0.02552174 -0.06230097
v -0.03846282 0.02417064 -0.06260291
v -0.03778630 0.02421405 -0.06304561
v -0.03676661 0.02427645 -0.06370603
v -0.03560639 0.02504695 -0.06413549
v -0.03365200 0.02735304 -0.06425819
v -0.03245910 0.02818594 -0.06450480
v -0.03035109 0.03037808 -0.06456134
v -0.03167799 0.02960486 -0.06433157
v -0.02837055 0.03048660 -0.06525545
v -0.04177026 0.02686198 -0.05712221
v -0.04062965 0.02862003 -0.05712221
v -0.03980933 0.02925217 -0.05774655
v -0.03904457 0.02860646 -0.05917327
v -0.03778303 0.02936611 -0.05998647
v -0.03827980 0.02796076 -0.06047848
v -0.03885828 0.02622441 -0.06105591
v -0.03149170 0.03360931 -0.06211572
v -0.03066811 0.03482204 -0.06167784
v -0.03047202 0.03627894 -0.06053021
v -0.02936082 0.03779553 -0.05998767
v -0.02860260 0.03906523 -0.05916966
v -0.03096879 0.03100750 -0.06393700
v -0.03052758 0.03264618 -0.06324169
v -0.03070079 0.03281710 -0.06304561
v -0.03010598 0.03841953 -0.05858381
v -0.03151131 0.03783351 -0.05792098
v -0.03188389 0.03812381 -0.05712221
v -0.03069426 0.03909236 -0.05712221
v -0.02952423 0.04002836 -0.05712221
v -0.02860586 0.04063337 -0.05712221
v -0.02745872 0.04136589 -0.05712221
v -0.03754445 0.02692166 -0.06188114
v -0.03613912 0.02780611 -0.06243571
v -0.03681891 0.02624340 -0.06276772
v -0.03657379 0.02600194 -0.06304561
v -0.03736143 0.02486246 -0.06304561
v -0.03512597 0.02627867 -0.06385641
v -0.03639077 0.02625154 -0.06304561
v -0.03570771 0.02715227 -0.06304561
v -0.04001196 0.02955603 -0.05712221
v -0.03826673 0.03202761 -0.05712221
v -0.03745294 0.03316708 -0.05712221
v -0.03731568 0.03299345 -0.05742897
v -0.03583517 0.03164507 -0.06012361
v -0.03552142 0.02920876 -0.06198579
v -0.03374351 0.03375581 -0.06013684
v -0.03241007 0.03454531 -0.06053863
v -0.03159955 0.03580144 -0.06009955
v -0.03067792 0.03742384 -0.05916605
v -0.03241007 0.03624367 -0.05883884
v -0.03373044 0.03583400 -0.05803767
v -0.03429584 0.03611345 -0.05712221
v -0.03269441 0.03745369 -0.05712221
v -0.03636462 0.03425230 -0.05712221
v -0.03591361 0.03378023 -0.05807255
v -0.03299835 0.03515303 -0.05944153
v -0.03560639 0.03494412 -0.05712221
v -0.03524036 0.03527783 -0.05712221
f 1 2 3
f 1 3 4
f 1 4 10
f 1 10 23
f 1 23 22
f 1 22 40
f 1 40 70
f 1 70 110
f 1 110 113
f 1 113 162
f 1 162 161
f 1 161 212
f 1 212 211
f 1 211 210
f 1 210 245
f 1 245 244
f 1 244 243
f 1 243 242
f 1 242 241
f 1 241 267
f 1 267 266
f 1 266 272
f 1 272 271
f 1 271 268
f 1 268 256
f 1 256 255
f 1 255 254
f 1 254 225
f 1 225 224
f 1 224 182
f 1 182 181
f 1 181 134
f 1 134 133
f 1 133 86
f 1 86 46
f 1 46 26
f 1 26 12
f 1 12 5
f 1 5 11
f 1 11 24
f 1 24 41
f 1 41 72
f 1 72 84
f 1 84 131
f 1 131 141
f 1 141 140
f 1 140 92
f 1 92 57
f 1 57 56
f 1 56 55
f 1 55 54
f 1 54 33
f 1 33 32
f 1 32 17
f 1 17 13
f 1 13 6
f 1 6 2
f 2 6 3
f 3 6 7
f 3 7 8
f 3 8 9
f 3 9 4
f 4 9 10
f 5 12 11
f 6 13 7
f 7 14 15
f 7 15 16
f 7 16 8
f 7 13 17
f 7 17 14
f 8 16 18
f 8 18 19
f 8 19 9
f 9 19 20
f 9 20 21
f 9 21 22
f 9 22 23
f 9 23 10
f 11 12 25
f 11 25 24
f 12 26 48
f 12 48 90
f 12 90 89
f 12 89 139
f 12 139 163
f 12 163 114
f 12 114 73
f 12 73 43
f 12 43 25
f 14 27 28
f 14 28 29
f 14 29 30
f 14 30 31
f 14 31 15
f 14 17 32
f 14 32 33
f 14 33 34
f 14 34 35
f 14 35 27
f 15 31 16
f 16 31 36
f 16 36 18
f 18 20 19
f 18 36 37
f 18 37 38
f 18 38 20
f 20 38 39
f 20 39 21
f 21 39 40
f 21 40 22
f 24 25 42
f 24 42 41
f 25 43 44
f 25 44 45
f 25 45 42
f 26 46 47
f 26 47 48
f 27 35 28
f 28 35 49
f 28 49 50
f 28 50 30
f 28 30 29
f 30 50 51
f 30 51 52
f 30 52 53
f 30 53 31
f 31 53 37
f 31 37 36
f 33 54 34
f 34 54 55
f 34 55 35
f 35 55 56
f 35 56 57
f 35 57 58
f 35 58 49
f 37 53 52
f 37 52 59
f 37 59 60
f 37 60 61
f 37 61 62
f 37 62 63
f 37 63 64
f 37 64 65
f 37 65 66
f 37 66 67
f 37 67 68
f 37 68 38
f 38 68 67
f 38 67 69
f 38 69 39
f 39 70 40
f 39 69 71
f 39 71 70
f 41 42 45
f 41 45 72
f 43 73 74
f 43 74 75
f 43 75 76
f 43 76 77
f 43 77 78
f 43 78 79
f 43 79 80
f 43 80 44
f 44 81 82
f 44 82 83
f 44 83 45
f 44 80 81
f 45 83 84
f 45 84 85
f 45 85 72
f 46 86 87
f 46 87 47
f 47 87 88
f 47 88 89
f 47 89 90
f 47 90 48
f 49 58 91
f 49 91 59
f 49 59 50
f 50 59 51
f 51 59 52
f 57 92 58
f 58 92 93
f 58 93 91
f 59 91 94
f 59 94 95
f 59 95 60
f 60 95 61
f 61 96 97
f 61 97 98
f 61 98 99
f 61 99 62
f 61 95 94
f 61 94 100
f 61 100 96
f 62 99 63
f 63 99 64
f 64 99 101
f 64 101 102
f 64 102 103
f 64 103 104
f 64 104 65
f 65 104 105
f 65 105 106
f 65 106 107
f 65 107 108
f 65 108 67
f 65 67 66
f 67 109 69
f 67 108 109
f 69 109 71
f 70 71 110
f 71 109 111
f 71 111 112
f 71 112 113
f 71 113 110
f 72 85 84
f 73 114 115
f 73 115 74
f 74 115 116
f 74 116 75
f 75 116 76
f 76 117 118
f 76 118 77
f 76 116 119
f 76 119 117
f 77 118 120
f 77 120 78
f 78 120 121
f 78 121 122
f 78 122 79
f 79 122 80
f 80 122 123
f 80 123 124
f 80 124 81
f 81 125 82
f 81 124 125
f 82 125 126
f 82 126 127
f 82 127 128
f 82 128 129
f 82 129 83
f 83 129 130
f 83 130 84
f 84 130 132
f 84 132 131
f 86 133 87
f 87 133 134
f 87 134 135
f 87 135 136
f 87 136 88
f 88 136 137
f 88 137 138
f 88 138 89
f 89 138 139
f 91 93 100
f 91 100 94
f 92 140 93
f 93 140 141
f 93 141 131
f 93 131 142
f 93 142 143
f 93 143 100
f 96 100 144
f 96 144 145
f 96 145 146
f 96 146 97
f 97 146 147
f 97 147 148
f 97 148 149
f 97 149 150
f 97 150 98
f 98 101 99
f 98 150 102
f 98 102 101
f 100 143 151
f 100 151 144
f 102 150 103
f 103 149 104
f 103 150 149
f 104 149 105
f 105 152 153
f 105 153 106
f 105 149 148
f 105 148 154
f 105 154 155
f 105 155 156
f 105 156 157
f 105 157 152
f 106 153 158
f 106 158 107
f 107 158 108
f 108 158 159
f 108 159 160
f 108 160 111
f 108 111 109
f 111 160 112
f 112 160 161
f 112 161 162
f 112 162 113
f 114 163 164
f 114 164 115
f 115 164 165
f 115 165 119
f 115 119 116
f 117 119 165
f 117 165 166
f 117 166 164
f 117 164 167
f 117 167 168
f 117 168 169
f 117 169 118
f 118 169 170
f 118 170 120
f 120 170 121
f 121 170 171
f 121 171 123
f 121 123 122
f 123 171 172
f 123 172 173
f 123 173 124
f 124 173 125
f 125 173 174
f 125 174 126
f 126 174 175
f 126 175 176
f 126 176 177
f 126 177 127
f 127 177 178
f 127 178 128
f 128 178 179
f 128 179 130
f 128 130 129
f 130 179 132
f 131 132 142
f 132 179 180
f 132 180 142
f 134 181 135
f 135 182 183
f 135 183 184
f 135 184 185
f 135 185 137
f 135 137 136
f 135 181 182
f 137 185 186
f 137 186 187
f 137 187 164
f 137 164 138
f 138 164 163
f 138 163 139
f 142 180 188
f 142 188 143
f 143 188 145
f 143 145 151
f 144 151 145
f 145 189 146
f 145 188 190
f 145 190 191
f 145 191 178
f 145 178 192
f 145 192 193
f 145 193 189
f 146 189 147
f 147 194 193
f 147 193 155
f 147 155 195
f 147 195 148
f 147 189 194
f 148 195 154
f 152 157 196
f 152 196 197
f 152 197 198
f 152 198 153
f 153 198 199
f 153 199 158
f 154 195 155
f 155 200 201
f 155 201 202
f 155 202 203
f 155 203 204
f 155 204 156
f 155 193 192
f 155 192 205
f 155 205 200
f 156 204 206
f 156 206 207
f 156 207 157
f 157 207 196
f 158 199 160
f 158 160 159
f 160 199 208
f 160 208 209
f 160 209 210
f 160 210 211
f 160 211 212
f 160 212 161
f 164 187 213
f 164 213 214
f 164 214 215
f 164 215 167
f 164 166 165
f 167 215 168
f 168 215 216
f 168 216 169
f 169 216 217
f 169 217 170
f 170 218 172
f 170 172 171
f 170 217 218
f 172 218 219
f 172 219 220
f 172 220 173
f 173 221 174
f 173 220 222
f 173 222 221
f 174 221 175
f 175 221 223
f 175 223 176
f 176 205 192
f 176 192 177
f 176 223 200
f 176 200 205
f 177 192 178
f 178 191 190
f 178 190 179
f 179 190 180
f 180 190 188
f 182 224 183
f 183 224 225
f 183 225 226
f 183 226 184
f 184 226 227
f 184 227 186
f 184 186 185
f 186 227 228
f 186 228 229
f 186 229 230
f 186 230 187
f 187 230 213
f 189 193 194
f 196 207 231
f 196 231 232
f 196 232 233
f 196 233 234
f 196 234 197
f 197 234 198
f 198 234 199
f 199 234 235
f 199 235 209
f 199 209 208
f 200 223 221
f 200 221 201
f 201 221 222
f 201 222 202
f 202 222 236
f 202 236 237
f 202 237 238
f 202 238 203
f 203 238 231
f 203 231 207
f 203 207 204
f 204 207 206
f 209 234 239
f 209 239 240
f 209 240 241
f 209 241 242
f 209 242 243
f 209 243 244
f 209 244 245
f 209 245 210
f 209 235 234
f 213 230 214
f 214 230 246
f 214 246 247
f 214 247 248
f 214 248 249
f 214 249 218
f 214 218 250
f 214 250 216
f 214 216 215
f 216 250 217
f 217 250 218
f 218 251 219
f 218 249 252
f 218 252 251
f 219 222 220
f 219 251 253
f 219 253 247
f 219 247 222
f 222 231 238
f 222 238 236
f 222 247 231
f 225 254 226
f 226 254 255
f 226 255 256
f 226 256 257
f 226 257 228
f 226 228 227
f 228 246 229
f 228 257 258
f 228 258 246
f 229 246 230
f 231 259 258
f 231 258 260
f 231 260 261
f 231 261 262
f 231 262 232
f 231 247 259
f 232 262 233
f 233 262 234
f 234 262 263
f 234 263 240
f 234 240 239
f 236 238 237
f 240 262 264
f 240 264 265
f 240 265 266
f 240 266 267
f 240 267 241
f 240 263 262
f 246 258 247
f 247 252 248
f 247 258 259
f 247 253 252
f 248 252 249
f 251 252 253
f 256 268 269
f 256 269 257
f 257 269 258
f 258 269 260
f 260 270 262
f 260 262 261
f 260 269 270
f 262 270 265
f 262 265 264
f 265 270 269
f 265 269 268
f 265 268 271
f 265 271 272
f 265 272 266

