# https://github.com/mikedh/trimesh
v 0.04886126 -0.02143156 -0.00426463
v 0.04885793 -0.02143156 -0.00216183
v 0.04874120 -0.02173960 -0.00216183
v 0.04886126 -0.02143156 -0.01267582
v 0.04885126 -0.02143156 -0.00004892
v 0.04755060 -0.02423657 -0.01267582
v 0.04825762 -0.02279111 -0.01267582
v 0.04874120 -0.02173960 -0.01477862
v 0.04873119 -0.02172776 0.00205388
v 0.04885459 -0.02143156 -0.01688142
v 0.04881457 -0.02143156 0.00834205
v 0.04871119 -0.02168333 0.01045496
v 0.04668017 -0.02591306 -0.00426463
v 0.04668350 -0.02592195 -0.00635732
v 0.04668350 -0.02592788 -0.00846012
v 0.04668350 -0.02592788 -0.01267582
v 0.04667350 -0.02590122 -0.02318981
v 0.04666683 -0.02588937 -0.02530272
v 0.04873119 -0.02173072 -0.01898422
v 0.04873787 -0.02173664 -0.01688142
v 0.04871452 -0.02169814 0.00834205
v 0.04884125 -0.02143156 -0.01934816
v 0.04880457 -0.02143156 0.01045496
v 0.04873787 -0.02143156 0.02097906
v 0.04867450 -0.02159743 0.02097906
v 0.04660346 -0.02576793 0.02097906
v 0.04661013 -0.02578274 0.01886615
v 0.04439569 -0.02974293 -0.00426463
v 0.04440570 -0.02976071 -0.00846012
v 0.04435233 -0.02968073 0.00834205
v 0.04440570 -0.02976367 -0.01056291
v 0.04440570 -0.02976663 -0.01267582
v 0.04440570 -0.02976071 -0.01688142
v 0.04438569 -0.02973108 -0.02530272
v 0.04437902 -0.02972220 -0.02740552
v 0.04436234 -0.02969850 -0.03161111
v 0.04665682 -0.02587752 -0.02740552
v 0.04871786 -0.02171887 -0.02108701
v 0.04864448 -0.02154411 -0.03791951
v 0.04868451 -0.02143156 -0.03807115
v 0.04872119 -0.02143156 0.02308186
v 0.04866450 -0.02157966 0.02308186
v 0.04658679 -0.02573238 0.02518465
v 0.04594647 -0.02673354 0.03148294
v 0.04595647 -0.02674835 0.02938014
v 0.04367866 -0.03080333 -0.00635732
v 0.04365866 -0.03077667 -0.00004892
v 0.04368200 -0.03081222 -0.00846012
v 0.04368534 -0.03081518 -0.01056291
v 0.04432899 -0.02964223 0.01466055
v 0.04358862 -0.03067004 0.01886615
v 0.04362197 -0.03071743 0.01045496
v 0.04368534 -0.03081814 -0.01267582
v 0.04368534 -0.03081222 -0.01688142
v 0.04367533 -0.03078260 -0.02530272
v 0.04366866 -0.03077371 -0.02740552
v 0.04434567 -0.02966888 -0.03582682
v 0.04365866 -0.03076186 -0.02950832
v 0.04664682 -0.02585679 -0.02950832
v 0.04660346 -0.02580347 -0.03582682
v 0.04658679 -0.02577978 -0.03791951
v 0.04862781 -0.02150561 -0.04002231
v 0.04865782 -0.02143156 -0.04002231
v 0.04870451 -0.02143156 0.02501279
v 0.04865449 -0.02155596 0.02518465
v 0.04654343 -0.02565833 0.03359585
v 0.04655344 -0.02568203 0.03148294
v 0.04656678 -0.02569684 0.02938014
v 0.04490928 -0.02844261 0.03148294
v 0.04493263 -0.02844261 0.02938014
v 0.04582974 -0.02647881 0.05253114
v 0.04477588 -0.02824120 0.05253114
v 0.04431231 -0.02961557 0.01886615
v 0.04262814 -0.03228729 -0.00846012
v 0.04323511 -0.03140758 -0.00425452
v 0.04261146 -0.03225767 -0.00215172
v 0.04252809 -0.03214512 0.02096895
v 0.04254476 -0.03216585 0.01676335
v 0.04256811 -0.03219547 0.01044485
v 0.04263148 -0.03229618 -0.01056291
v 0.04326179 -0.03140758 -0.00972382
v 0.04326846 -0.03140758 -0.01267582
v 0.04357195 -0.03064338 0.02308186
v 0.04305836 -0.03140758 0.01992766
v 0.04326512 -0.03140758 -0.01604232
v 0.04262814 -0.03229025 -0.02108701
v 0.04262480 -0.03228137 -0.02530272
v 0.04321177 -0.03140758 -0.02860856
v 0.04362197 -0.03072039 -0.03582682
v 0.04433233 -0.02965111 -0.03791951
v 0.04598649 -0.02683129 -0.03791951
v 0.04260480 -0.03225767 -0.02950832
v 0.04258145 -0.03223102 -0.03372402
v 0.04597648 -0.02678982 -0.04002231
v 0.04657011 -0.02573831 -0.04002231
v 0.04654010 -0.02566722 -0.04212511
v 0.04859446 -0.02143748 -0.04212511
v 0.04859446 -0.02143156 -0.04213521
v 0.04866116 -0.02143156 0.02928915
v 0.04864448 -0.02152930 0.02727734
v 0.04653009 -0.02563464 0.03569864
v 0.04702701 -0.02423657 0.05253114
v 0.04423561 -0.02950597 0.03316114
v 0.04427230 -0.02955929 0.02727734
v 0.04429231 -0.02958891 0.02308186
v 0.04641003 -0.02542730 0.05253114
v 0.04581307 -0.02644030 0.05464405
v 0.04475921 -0.02820565 0.05464405
v 0.04233466 -0.03187854 0.05043845
v 0.04235467 -0.03190816 0.04832554
v 0.04422561 -0.02949412 0.03456637
v 0.04261814 -0.03226656 -0.00425452
v 0.04185108 -0.03334769 -0.01056291
v 0.04183774 -0.03332992 -0.00635732
v 0.04173769 -0.03320848 0.01886615
v 0.04251808 -0.03213327 0.02308186
v 0.04185442 -0.03335065 -0.01267582
v 0.04263481 -0.03229618 -0.01267582
v 0.04263481 -0.03229618 -0.01477862
v 0.04356194 -0.03062857 0.02518465
v 0.04301166 -0.03140758 0.02518465
v 0.04185442 -0.03335065 -0.01477862
v 0.04182107 -0.03332399 -0.02740552
v 0.04180439 -0.03328253 -0.03372402
v 0.04256811 -0.03221324 -0.03582682
v 0.04312172 -0.03140758 -0.03694899
v 0.04360529 -0.03070262 -0.03791951
v 0.04431565 -0.02962445 -0.04002231
v 0.04500933 -0.02844261 -0.04002231
v 0.04595314 -0.02671873 -0.04212511
v 0.04590645 -0.02660617 -0.04422790
v 0.04647673 -0.02555763 -0.04422790
v 0.04712706 -0.02423657 -0.04422790
v 0.04803418 -0.02235274 -0.04422790
v 0.04847440 -0.02143156 -0.04422790
v 0.04863448 -0.02143156 0.03148294
v 0.04860780 -0.02143452 0.03359585
v 0.04862114 -0.02146710 0.03148294
v 0.04800417 -0.02217798 0.05253114
v 0.04798082 -0.02215725 0.05464405
v 0.04698365 -0.02423657 0.05464405
v 0.04638669 -0.02538879 0.05464405
v 0.04354860 -0.03061080 0.02727734
v 0.04636001 -0.02533547 0.05576622
v 0.04223128 -0.03173932 0.05464405
v 0.04229130 -0.03181633 0.05254125
v 0.04217458 -0.03166823 0.05583698
v 0.04147089 -0.03287081 0.05254125
v 0.04150758 -0.03293301 0.05043845
v 0.04152759 -0.03295967 0.04832554
v 0.04166766 -0.03311073 0.03149305
v 0.04168100 -0.03313443 0.02938014
v 0.04249807 -0.03210069 0.02727734
v 0.04298832 -0.03140758 0.02727734
v 0.04079722 -0.03464209 -0.01056291
v 0.04080056 -0.03464801 -0.01267582
v 0.04078722 -0.03462727 -0.00635732
v 0.04172769 -0.03319663 0.02096895
v 0.04068383 -0.03449991 0.01886615
v 0.04070384 -0.03452064 0.01465044
v 0.04250808 -0.03211846 0.02518465
v 0.04170435 -0.03317293 0.02518465
v 0.04080056 -0.03465393 -0.01477862
v 0.04076721 -0.03463616 -0.02740552
v 0.04076387 -0.03462431 -0.02950832
v 0.04076054 -0.03460950 -0.03162122
v 0.04075053 -0.03459469 -0.03372402
v 0.04074053 -0.03457396 -0.03582682
v 0.04179105 -0.03326475 -0.03582682
v 0.04255477 -0.03218362 -0.03791951
v 0.04307836 -0.03140758 -0.03901135
v 0.04357195 -0.03067597 -0.04002231
v 0.04352859 -0.03060784 -0.04212511
v 0.04426896 -0.02955633 -0.04212511
v 0.04494263 -0.02844261 -0.04212511
v 0.04472919 -0.02860552 -0.04404593
v 0.04472919 -0.02850482 -0.04459185
v 0.04589978 -0.02654397 -0.04459185
v 0.04646339 -0.02552800 -0.04459185
v 0.04707704 -0.02426915 -0.04459185
v 0.04802418 -0.02229054 -0.04459185
v 0.04843105 -0.02143156 -0.04459185
v 0.04860780 -0.02143156 0.03359585
v 0.04829097 -0.02143156 0.05536183
v 0.04813757 -0.02143156 0.05604928
v 0.04665015 -0.02416252 0.05657498
v 0.04423228 -0.02739703 0.05779825
v 0.04449241 -0.02779097 0.05674685
v 0.04141753 -0.03279380 0.05464405
v 0.04375204 -0.02884545 0.05674685
v 0.04227463 -0.03140758 0.05601896
v 0.04180106 -0.03122986 0.05723211
v 0.04169767 -0.03140758 0.05717145
v 0.04023361 -0.03396082 0.05619082
v 0.04036367 -0.03413262 0.05464405
v 0.04041703 -0.03419778 0.05254125
v 0.04045705 -0.03423925 0.05043845
v 0.04055710 -0.03435181 0.03990424
v 0.04057378 -0.03437550 0.03780144
v 0.04059045 -0.03439032 0.03569864
v 0.04169434 -0.03315220 0.02727734
v 0.03993012 -0.03570544 -0.01477862
v 0.03991678 -0.03568767 -0.00846012
v 0.03989677 -0.03566398 -0.00215172
v 0.03990344 -0.03567582 -0.00425452
v 0.04066049 -0.03447621 0.02308186
v 0.03973002 -0.03547145 0.03149305
v 0.04061713 -0.03441993 0.03149305
v 0.03988343 -0.03569656 -0.02530272
v 0.03987676 -0.03568767 -0.02740552
v 0.03986342 -0.03567879 -0.02950832
v 0.03985008 -0.03566398 -0.03162122
v 0.03980673 -0.03560474 -0.03791951
v 0.04071718 -0.03455322 -0.03791951
v 0.04177104 -0.03323810 -0.03791951
v 0.04252142 -0.03213327 -0.04003242
v 0.04304502 -0.03140758 -0.04003242
v 0.04247807 -0.03207107 -0.04213521
v 0.04242804 -0.03200887 -0.04423801
v 0.04423228 -0.02950301 -0.04322705
v 0.04412222 -0.02941711 -0.04459185
v 0.04241137 -0.03198517 -0.04460196
v 0.04278155 -0.03140758 -0.04460196
v 0.02817423 -0.04517496 -0.04464240
v 0.02817423 -0.04244104 -0.04464240
v 0.04588977 -0.02143156 -0.04459185
v 0.04792079 -0.02143156 0.05654466
v 0.04770401 -0.02192621 0.05654466
v 0.04645339 -0.02341314 0.05789934
v 0.04310838 -0.02823824 0.05807120
v 0.04236134 -0.02982291 0.05795999
v 0.04261480 -0.03053379 0.05661542
v 0.03985008 -0.03351060 0.05758594
v 0.03842937 -0.03637189 0.05464405
v 0.03947989 -0.03518413 0.05464405
v 0.03787576 -0.03576765 0.05776792
v 0.03823260 -0.03614974 0.05636268
v 0.03954993 -0.03524930 0.05254125
v 0.03958328 -0.03529076 0.05043845
v 0.03969334 -0.03542702 0.03780144
v 0.03887960 -0.03683693 -0.01477862
v 0.03790577 -0.03790029 -0.02318981
v 0.03884291 -0.03678657 -0.00215172
v 0.03866616 -0.03661478 0.03359585
v 0.03767899 -0.03766925 0.03359585
v 0.03884958 -0.03679842 -0.00425452
v 0.03970668 -0.03544182 0.03569864
v 0.03865281 -0.03660293 0.03569864
v 0.03789910 -0.03788844 -0.02530272
v 0.03784574 -0.03784105 -0.03372402
v 0.03783240 -0.03782624 -0.03582682
v 0.03978672 -0.03556623 -0.04003242
v 0.04067716 -0.03451472 -0.04003242
v 0.04172769 -0.03318478 -0.04003242
v 0.04167766 -0.03312258 -0.04213521
v 0.04162097 -0.03306038 -0.04423801
v 0.04160096 -0.03303372 -0.04460196
v 0.02686358 -0.04598359 -0.04464240
v 0.04073052 -0.03412670 -0.04460196
v 0.04054710 -0.03435181 -0.04460196
v 0.03966332 -0.03540628 -0.04460196
v 0.03861613 -0.03653480 -0.04460196
v 0.03759895 -0.03758632 -0.04460196
v 0.03654843 -0.03863190 -0.04460196
v 0.03545455 -0.03968637 -0.04460196
v 0.03440402 -0.04060459 -0.04460196
v 0.03315339 -0.04165611 -0.04460196
v 0.03210287 -0.04250324 -0.04460196
v 0.03063213 -0.04356956 -0.04460196
v 0.02960829 -0.04429229 -0.04460196
v 0.02945154 -0.04439596 -0.04460196
v 0.01479087 -0.04891597 -0.04464240
v 0.01479087 -0.04500317 -0.01690164
v 0.04175437 -0.02143156 -0.01477862
v 0.04784075 -0.02143156 0.05672663
v 0.04728714 -0.02143156 0.05766682
v 0.04692029 -0.02143156 0.05808132
v 0.04671018 -0.02213059 0.05805099
v 0.04529281 -0.02416252 0.05818241
v 0.04317841 -0.02633959 0.05842504
v 0.04109070 -0.03053379 0.05822285
v 0.04070718 -0.03140758 0.05812175
v 0.04040036 -0.03210957 0.05802065
v 0.03746555 -0.03742044 0.05464405
v 0.03849940 -0.03644298 0.05254125
v 0.03844938 -0.03436366 0.05804088
v 0.03647172 -0.03639559 0.05803077
v 0.03430063 -0.03840679 0.05803077
v 0.03209953 -0.04044761 0.05802065
v 0.03570134 -0.03779662 0.05770726
v 0.03618491 -0.03829423 0.05630202
v 0.03641836 -0.03853712 0.05464405
v 0.03853276 -0.03647557 0.05043845
v 0.03863948 -0.03658812 0.03780144
v 0.03789243 -0.03788548 -0.01477862
v 0.03790244 -0.03789732 -0.02108701
v 0.03788910 -0.03787659 -0.01267582
v 0.03577804 -0.03997073 -0.02318981
v 0.03577471 -0.03996777 -0.02530272
v 0.03684191 -0.03891625 -0.01477862
v 0.03785241 -0.03784105 -0.00215172
v 0.03766899 -0.03765740 0.03569864
v 0.03661846 -0.03869114 0.03569864
v 0.03562463 -0.03981078 -0.04003242
v 0.03779572 -0.03778773 -0.03791951
v 0.03575470 -0.03994703 -0.02740552
v 0.03869617 -0.03664144 -0.04213521
v 0.03975003 -0.03550403 -0.04213521
v 0.04062714 -0.03445252 -0.04213521
v 0.04057044 -0.03437847 -0.04423801
v 0.02600648 -0.04649898 -0.04464240
v 0.02964164 -0.04431598 -0.04423801
v 0.02690026 -0.04599544 -0.04424812
v 0.02584974 -0.04662931 -0.04424812
v 0.03968666 -0.03542998 -0.04423801
v 0.03863614 -0.03655850 -0.04423801
v 0.03762230 -0.03761001 -0.04423801
v 0.03657177 -0.03865560 -0.04423801
v 0.03548123 -0.03971007 -0.04423801
v 0.03442736 -0.04062533 -0.04423801
v 0.03317674 -0.04167684 -0.04423801
v 0.03212621 -0.04252101 -0.04423801
v 0.03069216 -0.04357252 -0.04423801
v 0.01479087 -0.05115524 -0.04464240
v 0.01479087 -0.04133621 0.02095884
v 0.03850608 -0.02143156 0.01719807
v 0.04592646 -0.02143156 0.05840482
v 0.04528280 -0.02213059 0.05851603
v 0.04107403 -0.02844261 0.05863734
v 0.04029697 -0.03140758 0.05825318
v 0.03907636 -0.03274937 0.05828351
v 0.03752558 -0.03749153 0.05254125
v 0.03705201 -0.03494125 0.05828351
v 0.02983840 -0.04234921 0.05793978
v 0.03124244 -0.04184864 0.05741408
v 0.03350023 -0.03981078 0.05759605
v 0.03274319 -0.03904954 0.05822285
v 0.03054876 -0.04111406 0.05818241
v 0.03487759 -0.03905250 0.05694904
v 0.03405384 -0.04029062 0.05619082
v 0.03534783 -0.03958567 0.05464405
v 0.03542120 -0.03964194 0.05254125
v 0.03647506 -0.03859043 0.05254125
v 0.03755227 -0.03752411 0.05043845
v 0.03758895 -0.03756558 0.04622275
v 0.03760896 -0.03758335 0.04411995
v 0.03765565 -0.03764259 0.03780144
v 0.03352691 -0.04191972 -0.02108701
v 0.03576137 -0.03996480 -0.01477862
v 0.03471084 -0.04087710 -0.01477862
v 0.03352358 -0.04191676 -0.02318981
v 0.03345021 -0.04187529 -0.03372402
v 0.03343020 -0.04186641 -0.03582682
v 0.03459411 -0.04079416 -0.03791951
v 0.03572468 -0.03993518 -0.00635732
v 0.03559462 -0.03979300 0.02518465
v 0.03552458 -0.03974265 0.03569864
v 0.03457411 -0.04076158 -0.04003242
v 0.03557461 -0.03978116 -0.04213521
v 0.03664848 -0.03872965 -0.04213521
v 0.03770234 -0.03769295 -0.04213521
v 0.02581305 -0.04660858 -0.04464240
v 0.02977170 -0.04440781 -0.04213521
v 0.02598314 -0.04670928 -0.04214533
v 0.02171767 -0.04873529 -0.04424812
v 0.02168098 -0.04871752 -0.04464240
v 0.03452075 -0.04070827 -0.04213521
v 0.03328346 -0.04175977 -0.04213521
v 0.03223293 -0.04260395 -0.04213521
v 0.03082223 -0.04365546 -0.04213521
v 0.01543786 -0.05098345 -0.04464240
v 0.01479087 -0.05118191 -0.04424812
v 0.01479087 -0.04126808 0.02201024
v 0.03834599 -0.02143156 0.01886615
v 0.04528280 -0.02143156 0.05856657
v 0.03896964 -0.03054564 0.05860702
v 0.04317841 -0.02423657 0.05863734
v 0.01792910 -0.04737869 0.05850591
v 0.02213788 -0.04527567 0.05846548
v 0.02845104 -0.04277574 0.05813186
v 0.02213788 -0.04684849 0.05809142
v 0.02339184 -0.04645751 0.05788923
v 0.02732381 -0.04417084 0.05775781
v 0.02562629 -0.04652268 0.05603918
v 0.02804084 -0.04468031 0.05636268
v 0.03054876 -0.04271946 0.05672663
v 0.03177604 -0.04224851 0.05600884
v 0.03429397 -0.04050981 0.05464405
v 0.03436734 -0.04059867 0.05254125
v 0.03649840 -0.03860228 0.05043845
v 0.03246305 -0.04277278 -0.01898422
v 0.03247305 -0.04277278 -0.02108701
v 0.03247305 -0.04277278 -0.02318981
v 0.03348356 -0.04192861 -0.01477862
v 0.03456410 -0.04075566 0.02096895
v 0.03465081 -0.04084748 -0.00215172
v 0.03345021 -0.04189899 -0.00215172
v 0.03245638 -0.04276982 -0.02530272
v 0.03244304 -0.04276093 -0.02740552
v 0.03241303 -0.04274020 -0.03162122
v 0.03239635 -0.04272835 -0.03372402
v 0.03237634 -0.04271354 -0.03582682
v 0.03339352 -0.04184567 -0.03791951
v 0.03438068 -0.04061052 0.05043845
v 0.03454076 -0.04073789 0.02518465
v 0.03334682 -0.04181309 -0.04003242
v 0.03089226 -0.04370581 -0.04003242
v 0.02983840 -0.04445224 -0.04003242
v 0.02606985 -0.04676260 -0.04003242
v 0.02195445 -0.04883896 -0.04003242
v 0.02184106 -0.04879749 -0.04214533
v 0.01699197 -0.05057469 -0.04424812
v 0.02140751 -0.04882711 -0.04464240
v 0.01733547 -0.05070502 -0.04003242
v 0.01719207 -0.05064578 -0.04214533
v 0.03229296 -0.04265134 -0.04003242
v 0.01694861 -0.05055988 -0.04464240
v 0.01582472 -0.05090348 -0.04424812
v 0.01479087 -0.05124707 -0.04317650
v 0.01479087 -0.04120588 0.02307175
v 0.03804251 -0.02143156 0.02308186
v 0.04387543 -0.02143156 0.05853624
v 0.01582472 -0.04737869 0.05843515
v 0.01479087 -0.04858423 0.05833406
v 0.01479087 -0.04945802 0.05822285
v 0.01582472 -0.04921809 0.05820263
v 0.02006351 -0.04750606 0.05826328
v 0.02415222 -0.04528160 0.05818241
v 0.01938317 -0.04856053 0.05789934
v 0.02078720 -0.04829395 0.05758594
v 0.02479588 -0.04598951 0.05743430
v 0.02944487 -0.04415900 0.05543260
v 0.02817423 -0.04463292 0.05627170
v 0.02144753 -0.04860496 0.05619082
v 0.02168432 -0.04872344 0.05464405
v 0.02581305 -0.04663523 0.05464405
v 0.02686691 -0.04596878 0.05464405
v 0.03197280 -0.04240549 0.05464405
v 0.03302666 -0.04156132 0.05464405
v 0.03315006 -0.04165018 0.05254125
v 0.03316673 -0.04166499 0.05043845
v 0.03239969 -0.04274909 -0.00425452
v 0.03106902 -0.04382429 -0.01267582
v 0.03107569 -0.04382725 -0.01477862
v 0.03107569 -0.04382725 -0.01688142
v 0.03105901 -0.04382429 -0.02318981
v 0.03105234 -0.04381837 -0.02530272
v 0.03104234 -0.04381244 -0.02740552
v 0.03335016 -0.04181902 0.01886615
v 0.03336350 -0.04182494 0.01676335
v 0.03230964 -0.04267800 0.01676335
v 0.03238968 -0.04273131 -0.00004892
v 0.03101899 -0.04379171 -0.03162122
v 0.03100232 -0.04377986 -0.03372402
v 0.03097897 -0.04376801 -0.03582682
v 0.03233965 -0.04268688 -0.03791951
v 0.03327012 -0.04174793 0.03359585
v 0.03093895 -0.04374136 -0.03791951
v 0.02988843 -0.04448482 -0.03791951
v 0.02611320 -0.04679222 -0.03792962
v 0.02318840 -0.04843317 -0.03268273
v 0.02204116 -0.04886858 -0.03792962
v 0.01740551 -0.05073168 -0.03792962
v 0.01582472 -0.05123226 -0.03792962
v 0.01582472 -0.05115524 -0.04003242
v 0.01582472 -0.05103084 -0.04214533
v 0.01479087 -0.05133889 -0.04106360
v 0.01479087 -0.04125920 0.02518465
v 0.03797247 -0.02143156 0.02560926
v 0.03796581 -0.02143156 0.02518465
v 0.04315841 -0.02143156 0.05837449
v 0.01479087 -0.04731649 0.05832394
v 0.01479087 -0.05034958 0.05780836
v 0.01792910 -0.04882119 0.05805099
v 0.01479087 -0.05047102 0.05771737
v 0.01582472 -0.05026961 0.05742419
v 0.01711203 -0.05062801 0.05594819
v 0.02862780 -0.04481360 0.05469459
v 0.02959495 -0.04428636 0.05402736
v 0.02817423 -0.04511276 0.05468449
v 0.01728211 -0.05069021 0.05464405
v 0.02180104 -0.04877379 0.05254125
v 0.02964831 -0.04432487 0.05254125
v 0.02189442 -0.04880045 0.05043845
v 0.02593645 -0.04670039 0.04832554
v 0.03209953 -0.04249731 0.05254125
v 0.03218958 -0.04258321 0.03780144
v 0.03104901 -0.04381541 -0.00846012
v 0.03002516 -0.04458849 -0.01477862
v 0.03002516 -0.04458849 -0.01688142
v 0.03001849 -0.04458256 -0.01898422
v 0.03000849 -0.04456479 -0.02318981
v 0.02999848 -0.04455887 -0.02530272
v 0.02997847 -0.04454406 -0.02950832
v 0.02996513 -0.04453517 -0.03162122
v 0.03229963 -0.04266911 0.01886615
v 0.03090560 -0.04371174 0.02096895
v 0.03093895 -0.04373247 0.01465044
v 0.02994846 -0.04452629 -0.03372402
v 0.02992511 -0.04451147 -0.03582682
v 0.02614322 -0.04681591 -0.03582682
v 0.02425560 -0.04790297 -0.03162122
v 0.02323510 -0.04845390 -0.02950832
v 0.02213788 -0.04895744 -0.02950832
v 0.02233464 -0.04880934 -0.03352183
v 0.02208785 -0.04888635 -0.03582682
v 0.01750222 -0.05075241 -0.03372402
v 0.01582472 -0.05132112 -0.03162122
v 0.01582472 -0.05126780 -0.03582682
v 0.01479087 -0.05144552 -0.03792962
v 0.01479087 -0.05141590 -0.03896080
v 0.01479087 -0.04129178 0.02621583
v 0.03810254 -0.02143156 0.02938014
v 0.03802583 -0.02143156 0.02727734
v 0.04231465 -0.02143156 0.05807120
v 0.01479087 -0.04660265 0.05812175
v 0.01479087 -0.05093902 0.05666597
v 0.01582472 -0.05081758 0.05637279
v 0.01479087 -0.05121745 0.05553370
v 0.01479087 -0.05138036 0.05464405
v 0.01582472 -0.05114044 0.05464405
v 0.03069883 -0.04355179 0.05254125
v 0.01582472 -0.05119671 0.05254125
v 0.01733547 -0.05070798 0.05254125
v 0.02596646 -0.04672705 0.04623285
v 0.02598647 -0.04673890 0.04411995
v 0.02976170 -0.04440484 0.03780144
v 0.03081222 -0.04363472 0.03780144
v 0.02193778 -0.04880934 0.04832554
v 0.03001849 -0.04457960 -0.01267582
v 0.02988843 -0.04449074 0.01465044
v 0.02817423 -0.04579698 -0.01689153
v 0.02845104 -0.04561630 -0.01688142
v 0.02817423 -0.04579402 -0.01742734
v 0.02737383 -0.04629164 -0.01899433
v 0.02623993 -0.04686034 -0.02950832
v 0.02620992 -0.04685146 -0.03162122
v 0.02617657 -0.04683665 -0.03372402
v 0.02428562 -0.04791482 -0.02950832
v 0.02326178 -0.04846871 -0.02741563
v 0.01754891 -0.05076130 -0.03162122
v 0.02213788 -0.04898410 -0.02741563
v 0.01582472 -0.05134481 -0.02950832
v 0.01479087 -0.05147811 -0.03582682
v 0.01479087 -0.05146329 -0.03685800
v 0.01479087 -0.04149319 0.03145261
v 0.03821593 -0.02143156 0.03148294
v 0.04199782 -0.02143156 0.05790945
v 0.01479087 -0.04616723 0.05790945
v 0.01479087 -0.05142479 0.05254125
v 0.01479087 -0.05143664 0.05151007
v 0.01479087 -0.05144552 0.05043845
v 0.01582472 -0.05121152 0.05043845
v 0.01582472 -0.05133889 0.02939025
v 0.01749222 -0.05076426 0.03359585
v 0.02202782 -0.04887154 0.03781155
v 0.02201448 -0.04885969 0.03990424
v 0.02199781 -0.04884784 0.04201715
v 0.02196112 -0.04882415 0.04623285
v 0.02600315 -0.04674779 0.04201715
v 0.02604984 -0.04677444 0.03570876
v 0.02607985 -0.04678926 0.03149305
v 0.02737717 -0.04630053 -0.01689153
v 0.02632331 -0.04689589 -0.01899433
v 0.02630663 -0.04689293 -0.02109712
v 0.02627328 -0.04688108 -0.02530272
v 0.02625994 -0.04687219 -0.02741563
v 0.02431230 -0.04792370 -0.02741563
v 0.02328512 -0.04847759 -0.02530272
v 0.02213788 -0.04900779 -0.02530272
v 0.01758226 -0.05077315 -0.02950832
v 0.01479087 -0.05151365 -0.03265241
v 0.01582472 -0.05136555 -0.02741563
v 0.01479087 -0.04162649 0.03359585
v 0.03836267 -0.02143156 0.03359585
v 0.04167766 -0.02143156 0.05740397
v 0.01479087 -0.04529344 0.05678728
v 0.01479087 -0.04590954 0.05759605
v 0.01479087 -0.05149291 0.04201715
v 0.01479087 -0.05155511 0.02835907
v 0.01479087 -0.05168841 -0.00739861
v 0.01582472 -0.05140406 0.00625947
v 0.01760894 -0.05080573 0.00625947
v 0.01750222 -0.05077019 0.03149305
v 0.02003349 -0.04995267 -0.01057302
v 0.02205784 -0.04888339 0.03359585
v 0.02204450 -0.04887747 0.03570876
v 0.02425894 -0.04789112 0.01045496
v 0.02429896 -0.04790889 0.00415667
v 0.02432898 -0.04792963 -0.00216183
v 0.02433898 -0.04793555 -0.00425452
v 0.02434899 -0.04794148 -0.00636743
v 0.02623660 -0.04687812 -0.00216183
v 0.02631330 -0.04689589 -0.01477862
v 0.02632664 -0.04689589 -0.01689153
v 0.02435566 -0.04794740 -0.01899433
v 0.02435232 -0.04794444 -0.02109712
v 0.02434899 -0.04793851 -0.02319992
v 0.02435566 -0.04795036 -0.01689153
v 0.02433565 -0.04793259 -0.02530272
v 0.02329846 -0.04848648 -0.02319992
v 0.01760894 -0.05078499 -0.02741563
v 0.02213788 -0.04902260 -0.02319992
v 0.02003349 -0.04995564 -0.01267582
v 0.01877286 -0.05046510 -0.01267582
v 0.01479087 -0.05153438 -0.03053950
v 0.01582472 -0.05138332 -0.02530272
v 0.01479087 -0.05166767 -0.01689153
v 0.01479087 -0.04183382 0.03570876
v 0.03977004 -0.02143156 0.04801215
v 0.03957995 -0.02143156 0.04622275
v 0.03872952 -0.02143156 0.03781155
v 0.03853609 -0.02143156 0.03569864
v 0.04133416 -0.02143156 0.05671652
v 0.01479087 -0.04469808 0.05562468
v 0.01479087 -0.05169137 -0.01057302
v 0.01582472 -0.05141590 -0.00004892
v 0.01582472 -0.05141294 0.00205388
v 0.01771900 -0.05081758 -0.01267582
v 0.01876286 -0.05046214 -0.01057302
v 0.02213788 -0.04903149 -0.00847023
v 0.02213788 -0.04902260 -0.00636743
v 0.02206784 -0.04888931 0.03149305
v 0.02324844 -0.04846279 0.00415667
v 0.02318840 -0.04843020 0.01354850
v 0.02325844 -0.04846871 0.00205388
v 0.02435566 -0.04794740 -0.00847023
v 0.02327845 -0.04847759 -0.00216183
v 0.02435899 -0.04795036 -0.01267582
v 0.02435899 -0.04795036 -0.01477862
v 0.02330846 -0.04849241 -0.01267582
v 0.02213788 -0.04903149 -0.01899433
v 0.02213788 -0.04902853 -0.02109712
v 0.01765230 -0.05080277 -0.02319992
v 0.02213788 -0.04903445 -0.01267582
v 0.02213788 -0.04903445 -0.01057302
v 0.01771566 -0.05082054 -0.01477862
v 0.01770566 -0.05082054 -0.01689153
v 0.01768898 -0.05081758 -0.01899433
v 0.01767231 -0.05081165 -0.02109712
v 0.01582472 -0.05139813 -0.02319992
v 0.01479087 -0.05167952 -0.01477862
v 0.01479087 -0.04315784 0.04728425
v 0.01479087 -0.04354586 0.05047889
v 0.04072052 -0.02143156 0.05474514
v 0.04093062 -0.02143156 0.05551348
v 0.01479087 -0.04430414 0.05457328
v 0.01479087 -0.04445224 0.05506865
v 0.01582472 -0.05142183 -0.01689153
v 0.02330846 -0.04849241 -0.01057302
v 0.02330179 -0.04848944 -0.00847023
v 0.01582472 -0.05141590 -0.01899433
v 0.01479087 -0.04383021 0.05254125
v 0.01479087 -0.04405533 0.05362298
v 0.01479087 -0.04412346 0.05393637
f 1 2 3
f 1 3 8
f 1 8 4
f 1 4 10
f 1 10 22
f 1 22 40
f 1 40 63
f 1 63 98
f 1 98 135
f 1 135 182
f 1 182 226
f 1 226 274
f 1 274 326
f 1 326 374
f 1 374 421
f 1 421 470
f 1 470 469
f 1 469 514
f 1 514 513
f 1 513 547
f 1 547 575
f 1 575 613
f 1 613 612
f 1 612 611
f 1 611 610
f 1 610 645
f 1 645 646
f 1 646 614
f 1 614 576
f 1 576 548
f 1 548 515
f 1 515 471
f 1 471 422
f 1 422 375
f 1 375 327
f 1 327 277
f 1 277 276
f 1 276 275
f 1 275 227
f 1 227 185
f 1 185 184
f 1 184 183
f 1 183 136
f 1 136 99
f 1 99 64
f 1 64 41
f 1 41 24
f 1 24 23
f 1 23 11
f 1 11 5
f 1 5 2
f 2 5 3
f 3 6 7
f 3 7 8
f 3 5 9
f 3 9 6
f 4 8 10
f 5 11 12
f 5 12 9
f 6 13 14
f 6 14 15
f 6 15 16
f 6 16 17
f 6 17 18
f 6 18 7
f 6 9 13
f 7 18 19
f 7 19 20
f 7 20 8
f 8 20 10
f 9 12 21
f 9 21 13
f 10 20 19
f 10 19 22
f 11 23 12
f 12 23 24
f 12 24 25
f 12 25 26
f 12 26 27
f 12 27 13
f 12 13 21
f 13 28 29
f 13 29 14
f 13 27 30
f 13 30 28
f 14 29 15
f 15 29 31
f 15 31 32
f 15 32 16
f 16 32 33
f 16 33 17
f 17 33 34
f 17 34 35
f 17 35 18
f 18 35 36
f 18 36 37
f 18 37 19
f 19 37 38
f 19 38 39
f 19 39 22
f 22 39 40
f 24 41 25
f 25 41 42
f 25 42 43
f 25 43 26
f 26 43 44
f 26 44 45
f 26 45 27
f 27 45 30
f 28 46 29
f 28 30 47
f 28 47 46
f 29 46 48
f 29 48 49
f 29 49 31
f 30 45 50
f 30 50 51
f 30 51 52
f 30 52 47
f 31 49 53
f 31 53 32
f 32 53 54
f 32 54 33
f 33 54 55
f 33 55 34
f 34 55 56
f 34 56 35
f 35 56 36
f 36 57 37
f 36 56 58
f 36 58 57
f 37 59 39
f 37 39 38
f 37 57 59
f 39 60 61
f 39 61 62
f 39 62 63
f 39 63 40
f 39 59 60
f 41 64 42
f 42 64 65
f 42 65 66
f 42 66 67
f 42 67 68
f 42 68 43
f 43 68 44
f 44 69 70
f 44 70 45
f 44 68 67
f 44 67 66
f 44 66 71
f 44 71 72
f 44 72 69
f 45 70 73
f 45 73 50
f 46 74 80
f 46 80 48
f 46 47 75
f 46 75 74
f 47 76 75
f 47 52 77
f 47 77 78
f 47 78 79
f 47 79 76
f 48 80 81
f 48 81 49
f 49 81 80
f 49 80 82
f 49 82 53
f 50 73 83
f 50 83 51
f 51 84 52
f 51 83 84
f 52 84 77
f 53 82 85
f 53 85 54
f 54 85 86
f 54 86 87
f 54 87 55
f 55 87 56
f 56 88 58
f 56 87 88
f 57 58 89
f 57 89 90
f 57 90 91
f 57 91 59
f 58 88 92
f 58 92 93
f 58 93 89
f 59 91 60
f 60 91 61
f 61 91 94
f 61 94 95
f 61 95 62
f 62 95 96
f 62 96 97
f 62 97 63
f 63 97 98
f 64 99 100
f 64 100 65
f 65 100 66
f 66 101 71
f 66 100 102
f 66 102 101
f 69 103 104
f 69 104 70
f 69 72 103
f 70 104 105
f 70 105 73
f 71 106 107
f 71 107 108
f 71 108 72
f 71 101 106
f 72 109 110
f 72 110 111
f 72 111 103
f 72 108 109
f 73 105 83
f 74 75 112
f 74 112 113
f 74 113 80
f 75 76 112
f 76 114 113
f 76 113 112
f 76 79 114
f 77 115 78
f 77 84 83
f 77 83 116
f 77 116 115
f 78 115 114
f 78 114 79
f 80 113 117
f 80 117 118
f 80 118 82
f 82 118 119
f 82 119 85
f 83 105 120
f 83 120 121
f 83 121 116
f 85 119 86
f 86 119 122
f 86 122 87
f 87 123 124
f 87 124 92
f 87 92 88
f 87 122 123
f 89 93 125
f 89 125 126
f 89 126 127
f 89 127 90
f 90 127 128
f 90 128 129
f 90 129 91
f 91 129 94
f 92 124 93
f 93 124 169
f 93 169 125
f 94 129 130
f 94 130 95
f 95 130 96
f 96 130 131
f 96 131 132
f 96 132 133
f 96 133 97
f 97 133 134
f 97 134 135
f 97 135 98
f 99 136 137
f 99 137 138
f 99 138 100
f 100 138 102
f 101 102 106
f 102 139 140
f 102 140 141
f 102 141 142
f 102 142 106
f 102 138 139
f 103 111 143
f 103 143 104
f 104 143 120
f 104 120 105
f 106 142 107
f 107 142 144
f 107 144 108
f 108 145 146
f 108 146 109
f 108 144 147
f 108 147 145
f 109 146 148
f 109 148 149
f 109 149 110
f 110 150 151
f 110 151 152
f 110 152 153
f 110 153 154
f 110 154 143
f 110 143 111
f 110 149 150
f 113 155 156
f 113 156 117
f 113 114 157
f 113 157 155
f 114 115 157
f 115 116 158
f 115 158 159
f 115 159 160
f 115 160 157
f 116 121 161
f 116 161 162
f 116 162 158
f 117 156 163
f 117 163 122
f 117 122 119
f 117 119 118
f 120 143 154
f 120 154 121
f 121 154 153
f 121 153 161
f 122 163 164
f 122 164 123
f 123 164 165
f 123 165 166
f 123 166 124
f 124 166 167
f 124 167 168
f 124 168 169
f 125 169 170
f 125 170 126
f 126 170 127
f 127 170 171
f 127 171 172
f 127 172 128
f 128 172 173
f 128 173 174
f 128 174 175
f 128 175 129
f 129 175 130
f 130 175 131
f 131 175 176
f 131 176 177
f 131 177 178
f 131 178 179
f 131 179 132
f 132 179 133
f 133 179 180
f 133 180 134
f 134 180 181
f 134 181 135
f 135 181 182
f 136 183 137
f 137 183 184
f 137 184 139
f 137 139 138
f 139 184 140
f 140 184 141
f 141 184 144
f 141 144 142
f 144 184 185
f 144 185 186
f 144 186 187
f 144 187 188
f 144 188 147
f 145 189 146
f 145 147 189
f 146 189 148
f 147 188 190
f 147 190 191
f 147 191 192
f 147 192 193
f 147 193 194
f 147 194 195
f 147 195 189
f 148 196 149
f 148 189 195
f 148 195 196
f 149 197 150
f 149 196 197
f 150 198 199
f 150 199 151
f 150 197 198
f 151 199 152
f 152 199 200
f 152 200 201
f 152 201 153
f 153 201 162
f 153 162 161
f 155 202 156
f 155 157 203
f 155 203 202
f 156 202 163
f 157 204 205
f 157 205 203
f 157 160 204
f 158 162 206
f 158 206 159
f 159 206 207
f 159 207 204
f 159 204 160
f 162 201 200
f 162 200 208
f 162 208 206
f 163 202 164
f 164 209 165
f 164 202 209
f 165 209 210
f 165 210 166
f 166 210 211
f 166 211 167
f 167 211 212
f 167 212 168
f 168 212 213
f 168 213 214
f 168 214 169
f 169 214 215
f 169 215 170
f 170 215 216
f 170 216 217
f 170 217 171
f 171 217 172
f 172 217 218
f 172 218 173
f 173 218 219
f 173 219 174
f 174 219 220
f 174 220 176
f 174 176 175
f 176 220 221
f 176 221 177
f 177 221 222
f 177 222 223
f 177 223 178
f 178 223 179
f 179 223 180
f 180 223 181
f 181 223 182
f 182 223 224
f 182 224 225
f 182 225 226
f 185 227 228
f 185 228 186
f 186 228 229
f 186 229 187
f 187 229 230
f 187 230 231
f 187 231 192
f 187 192 190
f 187 190 188
f 190 192 232
f 190 232 191
f 191 232 192
f 192 231 233
f 192 233 193
f 193 233 194
f 194 234 235
f 194 235 195
f 194 233 236
f 194 236 237
f 194 237 234
f 195 235 238
f 195 238 196
f 196 238 197
f 197 239 198
f 197 238 239
f 198 240 199
f 198 239 240
f 199 240 200
f 200 240 247
f 200 247 208
f 202 241 242
f 202 242 209
f 202 203 241
f 203 205 241
f 204 243 246
f 204 246 205
f 204 207 244
f 204 244 245
f 204 245 243
f 205 246 241
f 206 208 207
f 207 208 247
f 207 247 248
f 207 248 244
f 209 242 210
f 210 242 249
f 210 249 211
f 211 249 250
f 211 250 212
f 212 250 251
f 212 251 213
f 213 252 214
f 213 251 252
f 214 252 253
f 214 253 215
f 215 253 254
f 215 254 216
f 216 254 218
f 216 218 217
f 218 254 255
f 218 255 219
f 219 255 256
f 219 256 222
f 219 222 220
f 220 222 221
f 222 257 224
f 222 224 223
f 222 256 257
f 224 258 311
f 224 311 362
f 224 362 366
f 224 366 413
f 224 413 417
f 224 417 371
f 224 371 324
f 224 324 272
f 224 272 225
f 224 257 259
f 224 259 260
f 224 260 261
f 224 261 262
f 224 262 263
f 224 263 264
f 224 264 265
f 224 265 266
f 224 266 267
f 224 267 268
f 224 268 269
f 224 269 270
f 224 270 271
f 224 271 258
f 225 272 226
f 226 272 273
f 226 273 274
f 227 275 228
f 228 275 229
f 229 275 276
f 229 276 277
f 229 277 278
f 229 278 279
f 229 279 230
f 230 279 280
f 230 280 281
f 230 281 231
f 231 236 233
f 231 281 282
f 231 282 283
f 231 283 236
f 234 284 285
f 234 285 235
f 234 237 284
f 235 285 238
f 236 283 286
f 236 286 287
f 236 287 288
f 236 288 289
f 236 289 290
f 236 290 291
f 236 291 237
f 237 291 292
f 237 292 284
f 238 285 239
f 239 293 240
f 239 285 293
f 240 294 248
f 240 248 247
f 240 293 294
f 241 295 296
f 241 296 242
f 241 246 297
f 241 297 295
f 242 298 299
f 242 299 249
f 242 296 300
f 242 300 298
f 243 301 246
f 243 245 301
f 244 248 302
f 244 302 245
f 245 302 303
f 245 303 301
f 246 301 297
f 248 294 347
f 248 347 302
f 249 299 250
f 250 299 251
f 251 304 305
f 251 305 252
f 251 299 306
f 251 306 304
f 252 305 307
f 252 307 308
f 252 308 253
f 253 308 309
f 253 309 255
f 253 255 254
f 255 309 256
f 256 310 259
f 256 259 257
f 256 309 310
f 258 271 312
f 258 312 313
f 258 313 314
f 258 314 311
f 259 310 260
f 260 310 261
f 261 310 315
f 261 315 262
f 262 315 316
f 262 316 317
f 262 317 263
f 263 317 318
f 263 318 264
f 264 318 319
f 264 319 265
f 265 319 266
f 266 319 320
f 266 320 321
f 266 321 267
f 267 321 268
f 268 321 322
f 268 322 323
f 268 323 269
f 269 323 312
f 269 312 270
f 270 312 271
f 272 324 372
f 272 372 419
f 272 419 467
f 272 467 511
f 272 511 510
f 272 510 545
f 272 545 544
f 272 544 572
f 272 572 606
f 272 606 608
f 272 608 642
f 272 642 616
f 272 616 581
f 272 581 580
f 272 580 579
f 272 579 552
f 272 552 551
f 272 551 550
f 272 550 520
f 272 520 519
f 272 519 517
f 272 517 475
f 272 475 473
f 272 473 425
f 272 425 424
f 272 424 472
f 272 472 516
f 272 516 549
f 272 549 578
f 272 578 577
f 272 577 615
f 272 615 648
f 272 648 647
f 272 647 655
f 272 655 654
f 272 654 653
f 272 653 644
f 272 644 643
f 272 643 609
f 272 609 574
f 272 574 546
f 272 546 512
f 272 512 468
f 272 468 420
f 272 420 373
f 272 373 325
f 272 325 273
f 273 325 274
f 274 325 326
f 277 327 328
f 277 328 278
f 278 328 279
f 279 328 280
f 280 328 329
f 280 329 281
f 281 329 330
f 281 330 282
f 282 330 331
f 282 331 286
f 282 286 283
f 284 292 332
f 284 332 285
f 285 332 293
f 286 331 333
f 286 333 287
f 287 333 288
f 288 333 289
f 289 334 335
f 289 335 336
f 289 336 290
f 289 333 337
f 289 337 338
f 289 338 334
f 290 336 339
f 290 339 291
f 291 340 341
f 291 341 292
f 291 339 340
f 292 341 342
f 292 342 343
f 292 343 332
f 293 344 345
f 293 345 346
f 293 346 294
f 293 332 344
f 294 346 347
f 295 300 296
f 295 297 300
f 297 301 300
f 298 348 299
f 298 300 349
f 298 349 350
f 298 350 348
f 299 348 351
f 299 351 352
f 299 352 353
f 299 353 354
f 299 354 306
f 300 301 349
f 301 355 349
f 301 303 356
f 301 356 355
f 302 347 303
f 303 357 356
f 303 347 342
f 303 342 357
f 304 306 354
f 304 354 358
f 304 358 359
f 304 359 305
f 305 359 360
f 305 360 361
f 305 361 307
f 307 361 316
f 307 316 315
f 307 315 308
f 308 315 310
f 308 310 309
f 311 314 362
f 312 323 363
f 312 363 313
f 313 363 364
f 313 364 314
f 314 365 366
f 314 366 362
f 314 364 365
f 316 361 317
f 317 361 318
f 318 361 360
f 318 360 359
f 318 359 319
f 319 359 367
f 319 367 320
f 320 367 368
f 320 368 321
f 321 368 369
f 321 369 322
f 322 369 370
f 322 370 323
f 323 370 363
f 324 371 372
f 325 373 374
f 325 374 326
f 327 375 328
f 328 375 329
f 329 376 333
f 329 333 331
f 329 331 330
f 329 375 377
f 329 377 378
f 329 378 379
f 329 379 376
f 332 343 344
f 333 376 337
f 334 338 380
f 334 380 381
f 334 381 382
f 334 382 383
f 334 383 335
f 335 383 384
f 335 384 385
f 335 385 386
f 335 386 387
f 335 387 340
f 335 340 336
f 336 340 339
f 337 376 379
f 337 379 338
f 338 379 380
f 340 387 388
f 340 388 341
f 341 388 389
f 341 389 342
f 342 390 343
f 342 389 357
f 342 347 390
f 343 390 346
f 343 346 345
f 343 345 344
f 346 390 347
f 348 391 392
f 348 392 393
f 348 393 351
f 348 350 394
f 348 394 391
f 349 355 395
f 349 395 396
f 349 396 397
f 349 397 350
f 350 397 394
f 351 393 398
f 351 398 399
f 351 399 352
f 352 400 353
f 352 399 400
f 353 400 401
f 353 401 402
f 353 402 403
f 353 403 358
f 353 358 354
f 355 356 395
f 356 357 404
f 356 404 405
f 356 405 395
f 357 389 404
f 358 406 367
f 358 367 359
f 358 403 406
f 363 370 407
f 363 407 408
f 363 408 409
f 363 409 364
f 364 409 410
f 364 410 411
f 364 411 365
f 365 412 413
f 365 413 366
f 365 411 414
f 365 414 415
f 365 415 412
f 367 406 368
f 368 406 369
f 369 406 416
f 369 416 407
f 369 407 370
f 371 417 418
f 371 418 372
f 372 418 419
f 373 420 421
f 373 421 374
f 375 422 377
f 377 422 423
f 377 423 378
f 378 423 424
f 378 424 425
f 378 425 426
f 378 426 427
f 378 427 379
f 379 427 428
f 379 428 380
f 380 428 381
f 381 428 427
f 381 427 429
f 381 429 430
f 381 430 382
f 382 430 431
f 382 431 383
f 383 431 384
f 384 432 433
f 384 433 385
f 384 431 430
f 384 430 434
f 384 434 435
f 384 435 436
f 384 436 437
f 384 437 432
f 385 433 387
f 385 387 386
f 387 433 432
f 387 432 438
f 387 438 439
f 387 439 388
f 388 439 440
f 388 440 389
f 389 440 441
f 389 441 404
f 391 394 397
f 391 397 442
f 391 442 443
f 391 443 444
f 391 444 392
f 392 444 445
f 392 445 393
f 393 445 446
f 393 446 447
f 393 447 448
f 393 448 398
f 395 405 449
f 395 449 450
f 395 450 397
f 395 397 396
f 397 450 451
f 397 451 452
f 397 452 442
f 398 448 399
f 399 448 453
f 399 453 400
f 400 453 454
f 400 454 401
f 401 454 455
f 401 455 402
f 402 455 456
f 402 456 403
f 403 456 406
f 404 441 405
f 405 457 449
f 405 441 457
f 406 456 416
f 407 416 456
f 407 456 458
f 407 458 408
f 408 458 459
f 408 459 409
f 409 459 460
f 409 460 461
f 409 461 462
f 409 462 410
f 410 414 411
f 410 462 414
f 412 418 417
f 412 417 413
f 412 415 418
f 414 462 463
f 414 463 464
f 414 464 465
f 414 465 415
f 415 465 466
f 415 466 418
f 418 466 419
f 419 466 465
f 419 465 467
f 420 468 469
f 420 469 470
f 420 470 421
f 422 471 472
f 422 472 423
f 423 472 424
f 425 473 426
f 426 473 474
f 426 474 427
f 427 474 429
f 429 473 475
f 429 475 430
f 429 474 473
f 430 475 476
f 430 476 477
f 430 477 434
f 432 478 479
f 432 479 438
f 432 437 480
f 432 480 478
f 434 477 435
f 435 481 482
f 435 482 436
f 435 477 481
f 436 483 479
f 436 479 437
f 436 482 484
f 436 484 485
f 436 485 483
f 437 479 480
f 438 479 486
f 438 486 439
f 439 486 440
f 440 486 441
f 441 486 487
f 441 487 457
f 442 452 488
f 442 488 443
f 443 488 489
f 443 489 444
f 444 489 490
f 444 490 445
f 445 490 446
f 446 490 447
f 447 490 491
f 447 491 492
f 447 492 493
f 447 493 448
f 448 494 495
f 448 495 453
f 448 493 494
f 449 496 451
f 449 451 450
f 449 457 496
f 451 496 497
f 451 497 498
f 451 498 488
f 451 488 452
f 453 495 499
f 453 499 454
f 454 499 455
f 455 499 500
f 455 500 459
f 455 459 458
f 455 458 456
f 457 487 496
f 459 500 460
f 460 500 501
f 460 501 502
f 460 502 461
f 461 502 503
f 461 503 504
f 461 504 505
f 461 505 506
f 461 506 462
f 462 506 463
f 463 506 504
f 463 504 507
f 463 507 508
f 463 508 509
f 463 509 464
f 464 510 511
f 464 511 467
f 464 467 465
f 464 509 510
f 468 512 513
f 468 513 514
f 468 514 469
f 471 515 516
f 471 516 472
f 475 517 518
f 475 518 477
f 475 477 476
f 477 519 520
f 477 520 521
f 477 521 481
f 477 518 519
f 478 480 479
f 479 483 522
f 479 522 486
f 481 521 523
f 481 523 524
f 481 524 484
f 481 484 482
f 483 485 525
f 483 525 526
f 483 526 527
f 483 527 528
f 483 528 522
f 484 524 529
f 484 529 525
f 484 525 485
f 486 522 528
f 486 528 487
f 487 528 496
f 488 530 489
f 488 498 531
f 488 531 530
f 489 532 533
f 489 533 490
f 489 530 532
f 490 533 491
f 491 533 532
f 491 532 534
f 491 534 492
f 492 534 493
f 493 534 494
f 494 534 535
f 494 535 495
f 495 535 499
f 496 528 497
f 497 531 498
f 497 528 527
f 497 527 531
f 499 535 536
f 499 536 537
f 499 537 500
f 500 537 538
f 500 538 501
f 501 538 502
f 502 538 537
f 502 537 539
f 502 539 540
f 502 540 503
f 503 540 504
f 504 541 507
f 504 506 505
f 504 540 542
f 504 542 541
f 507 541 508
f 508 541 543
f 508 543 544
f 508 544 509
f 509 544 545
f 509 545 510
f 512 546 513
f 513 546 547
f 515 548 549
f 515 549 516
f 517 519 518
f 520 550 523
f 520 523 521
f 523 550 551
f 523 551 552
f 523 552 553
f 523 553 524
f 524 553 554
f 524 554 555
f 524 555 556
f 524 556 557
f 524 557 558
f 524 558 559
f 524 559 529
f 525 529 559
f 525 559 526
f 526 559 558
f 526 558 557
f 526 557 556
f 526 556 560
f 526 560 527
f 527 560 561
f 527 561 562
f 527 562 531
f 530 531 532
f 531 562 532
f 532 563 535
f 532 535 534
f 532 562 563
f 535 563 564
f 535 564 565
f 535 565 566
f 535 566 567
f 535 567 536
f 536 539 537
f 536 567 568
f 536 568 539
f 539 568 540
f 540 568 600
f 540 600 569
f 540 569 570
f 540 570 542
f 541 542 571
f 541 571 543
f 542 570 571
f 543 572 544
f 543 571 573
f 543 573 572
f 546 574 575
f 546 575 547
f 548 576 577
f 548 577 578
f 548 578 549
f 552 579 554
f 552 554 553
f 554 579 580
f 554 580 581
f 554 581 582
f 554 582 583
f 554 583 584
f 554 584 555
f 555 584 585
f 555 585 586
f 555 586 587
f 555 587 556
f 556 587 562
f 556 562 561
f 556 561 560
f 562 587 588
f 562 588 589
f 562 589 590
f 562 590 591
f 562 591 592
f 562 592 593
f 562 593 563
f 563 594 595
f 563 595 564
f 563 593 594
f 564 596 597
f 564 597 598
f 564 598 565
f 564 595 599
f 564 599 596
f 565 598 600
f 565 600 566
f 566 600 567
f 567 600 568
f 569 600 601
f 569 601 570
f 570 602 571
f 570 601 603
f 570 603 604
f 570 604 605
f 570 605 602
f 571 602 573
f 572 573 606
f 573 602 607
f 573 607 608
f 573 608 606
f 574 609 610
f 574 610 611
f 574 611 612
f 574 612 613
f 574 613 575
f 576 614 615
f 576 615 577
f 581 616 617
f 581 617 618
f 581 618 582
f 582 618 619
f 582 619 605
f 582 605 583
f 583 605 584
f 584 605 620
f 584 620 585
f 585 620 605
f 585 605 604
f 585 604 636
f 585 636 621
f 585 621 622
f 585 622 623
f 585 623 586
f 586 623 626
f 586 626 624
f 586 624 587
f 587 624 625
f 587 625 588
f 588 625 624
f 588 624 589
f 589 624 590
f 590 624 591
f 591 624 626
f 591 626 592
f 592 627 594
f 592 594 593
f 592 626 628
f 592 628 627
f 594 627 595
f 595 627 629
f 595 629 630
f 595 630 599
f 596 599 601
f 596 601 597
f 597 601 598
f 598 601 600
f 599 630 631
f 599 631 601
f 601 632 633
f 601 633 603
f 601 631 632
f 602 605 634
f 602 634 607
f 603 633 604
f 604 635 636
f 604 633 632
f 604 632 635
f 605 619 637
f 605 637 638
f 605 638 639
f 605 639 640
f 605 640 634
f 607 634 640
f 607 640 641
f 607 641 608
f 608 641 642
f 609 643 610
f 610 643 644
f 610 644 645
f 614 646 647
f 614 647 648
f 614 648 615
f 616 642 652
f 616 652 649
f 616 649 617
f 617 649 637
f 617 637 619
f 617 619 618
f 621 636 650
f 621 650 651
f 621 651 628
f 621 628 622
f 622 628 626
f 622 626 623
f 627 628 651
f 627 651 650
f 627 650 629
f 629 650 631
f 629 631 630
f 631 650 636
f 631 636 635
f 631 635 632
f 637 649 638
f 638 649 652
f 638 652 639
f 639 652 641
f 639 641 640
f 641 652 642
f 644 653 645
f 645 653 654
f 645 654 655
f 645 655 646
f 646 655 647

