# https://github.com/mikedh/trimesh
v 0.01479086 -0.04875127 0.05832208
v 0.00033280 -0.04810698 0.05737315
v -0.00942946 -0.04810698 0.05814037
v -0.01164106 -0.04810698 0.05820094
v 0.01231584 -0.04875127 0.05838264
v 0.01161131 -0.04948664 0.05847350
v 0.01479086 -0.04945887 0.05823122
v 0.01479086 -0.04875127 0.05412258
v 0.00033280 -0.04810698 -0.01984293
v -0.01365354 -0.04810698 0.05823122
v -0.01574261 -0.04810698 0.05823122
v -0.00942946 -0.04948609 0.05841293
v -0.00101193 -0.05150892 0.05829179
v 0.00108940 -0.05148948 0.05828169
v 0.00950693 -0.05101571 0.05813027
v 0.01161131 -0.05083742 0.05803941
v 0.01385967 -0.04967215 0.05824131
v 0.01325623 -0.05066746 0.05790818
v 0.01479086 -0.05035421 0.05781733
v 0.01479086 -0.04892067 -0.04463606
v -0.01637668 -0.04810698 -0.04465625
v -0.01153384 -0.04948609 0.05839273
v -0.01609794 -0.04810698 0.05820094
v -0.01574261 -0.04907285 0.05812017
v -0.00311631 -0.05144116 0.05824131
v -0.00101193 -0.05256088 0.05770628
v 0.00033280 -0.05254922 0.05770628
v 0.00033280 -0.05187494 0.05807980
v 0.00108940 -0.05254200 0.05769619
v 0.00319378 -0.05244758 0.05760533
v 0.00529816 -0.05231928 0.05745391
v 0.00740255 -0.05219375 0.05717125
v 0.00952531 -0.05214376 0.05663622
v 0.01465915 -0.05049750 0.05776685
v 0.01479086 -0.05047196 0.05772647
v 0.01479086 -0.05115845 -0.04463606
v 0.00033280 -0.05122788 -0.04465625
v -0.01650227 -0.04810698 -0.04465625
v -0.01153384 -0.05082520 0.05803941
v -0.00942946 -0.05098461 0.05811008
v -0.01650227 -0.04810698 0.05816055
v -0.01650227 -0.04892567 0.05805960
v -0.01302560 -0.05066691 0.05791828
v -0.00311631 -0.05249423 0.05763562
v -0.00311631 -0.05304243 0.05658574
v -0.00101193 -0.05306854 0.05665641
v 0.00108940 -0.05306465 0.05664632
v 0.00319378 -0.05304521 0.05655546
v 0.00529816 -0.05296967 0.05639394
v 0.00740255 -0.05282193 0.05611128
v 0.00883916 -0.05270474 0.05586900
v 0.01385967 -0.05105015 0.05693907
v 0.01479086 -0.05094184 0.05667660
v 0.01371570 -0.05144671 -0.04463606
v 0.00033280 -0.05314574 -0.04465625
v 0.01479086 -0.05117123 -0.04443416
v 0.01371570 -0.05147171 -0.04424236
v -0.01650227 -0.05045363 -0.04465625
v -0.00522069 -0.05234983 0.05746400
v -0.01650227 -0.04996208 0.05693907
v -0.01442852 -0.05038920 0.05765581
v -0.01369030 -0.05102182 0.05687850
v -0.00862079 -0.05269363 0.05581853
v -0.00732508 -0.05281360 0.05608100
v -0.00732508 -0.05217931 0.05713087
v -0.00522069 -0.05296356 0.05640404
v -0.00311631 -0.05351065 0.05464752
v -0.00101193 -0.05358341 0.05464752
v 0.00033280 -0.05325127 0.05592958
v 0.00108940 -0.05357730 0.05464752
v 0.00319378 -0.05350843 0.05464752
v 0.00529816 -0.05333292 0.05464752
v 0.00740255 -0.05305298 0.05464752
v 0.00918530 -0.05277083 0.05464752
v 0.01023902 -0.05256366 0.05464752
v 0.01479086 -0.05138395 0.05464752
v 0.01479086 -0.05122066 0.05552578
v 0.00840113 -0.05256977 -0.04463606
v 0.00864006 -0.05267808 -0.04364676
v -0.00101193 -0.05312241 -0.04465625
v 0.00739642 -0.05276583 -0.04463606
v 0.00532267 -0.05298467 -0.04463606
v 0.00491221 -0.05300966 -0.04463606
v 0.00319378 -0.05311019 -0.04463606
v 0.00280782 -0.05311964 -0.04463606
v 0.00108940 -0.05315796 -0.04463606
v 0.00070344 -0.05315296 -0.04463606
v 0.00108940 -0.05319351 -0.04424236
v 0.00033280 -0.05318129 -0.04425245
v -0.00101193 -0.05315907 -0.04425245
v 0.01479086 -0.05124843 -0.04317230
v 0.01479086 -0.05134230 -0.04106246
v 0.00882385 -0.05271140 -0.04214262
v -0.01643182 -0.05048362 -0.04465625
v -0.01650227 -0.05046862 -0.04454521
v -0.01650227 -0.05042197 0.05617185
v -0.01574261 -0.05012482 0.05719144
v -0.01650227 -0.05060914 0.05584882
v -0.01574261 -0.05074244 0.05614157
v -0.01363823 -0.05158613 0.05464752
v -0.00892098 -0.05274917 0.05464752
v -0.00732508 -0.05304077 0.05464752
v -0.00522069 -0.05333791 0.05464752
v -0.00311631 -0.05357674 0.05253768
v -0.00101193 -0.05367394 0.05253768
v 0.00033280 -0.05367283 0.05254778
v 0.00108940 -0.05367172 0.05254778
v 0.00033280 -0.05357952 0.05464752
v 0.00319378 -0.05359063 0.05254778
v 0.00529816 -0.05339734 0.05254778
v 0.00740255 -0.05313241 0.05254778
v 0.00965090 -0.05278583 0.05239635
v 0.01056984 -0.05264531 0.05158876
v 0.01479086 -0.05142616 0.05254778
v 0.00740255 -0.05291857 -0.04214262
v 0.00752201 -0.05277861 -0.04430293
v -0.00311631 -0.05302744 -0.04425245
v -0.00311631 -0.05299022 -0.04465625
v 0.00529816 -0.05302355 -0.04424236
v 0.00319378 -0.05314685 -0.04424236
v 0.00108940 -0.05331847 -0.04214262
v 0.00033280 -0.05326127 -0.04289973
v 0.00033280 -0.05330403 -0.04214262
v -0.00101193 -0.05327793 -0.04214262
v -0.00311631 -0.05316795 -0.04214262
v 0.01479086 -0.05141783 -0.03896271
v 0.00898313 -0.05273751 -0.04003278
v 0.00740255 -0.05298911 -0.04003278
v -0.01558333 -0.05081854 -0.04465625
v -0.01650227 -0.05060803 -0.04344486
v -0.01650227 -0.05075799 0.05464752
v -0.01574261 -0.05101849 0.05464752
v -0.01574261 -0.05114568 0.05253768
v -0.01026264 -0.05254700 0.05253768
v -0.00920891 -0.05278916 0.05253768
v -0.00732508 -0.05311352 0.05253768
v -0.00522069 -0.05339179 0.05253768
v -0.00522069 -0.05348566 0.03780919
v -0.00311631 -0.05367117 0.03569934
v 0.00108940 -0.05371005 0.04622835
v -0.00101193 -0.05375004 0.03569934
v 0.00108940 -0.05373948 0.03991902
v 0.00319378 -0.05363895 0.04833819
v 0.00319378 -0.05362284 0.05043794
v 0.00529816 -0.05343955 0.05043794
v 0.00740255 -0.05317518 0.05043794
v 0.00950693 -0.05284693 0.05043794
v 0.01479086 -0.05143783 0.05151809
v 0.00950693 -0.05286414 0.04833819
v 0.01059129 -0.05265031 0.05043794
v 0.00529816 -0.05313519 -0.04214262
v 0.00529816 -0.05321406 -0.04003278
v -0.00522069 -0.05284248 -0.04425245
v -0.00561278 -0.05277639 -0.04465625
v -0.00350533 -0.05295801 -0.04465625
v 0.00319378 -0.05326182 -0.04214262
v 0.00108940 -0.05340623 -0.04003278
v 0.00033280 -0.05336013 -0.04079999
v 0.00033280 -0.05339123 -0.04003278
v -0.00101193 -0.05336291 -0.04004287
v -0.00311631 -0.05325849 -0.04004287
v -0.00522069 -0.05298189 -0.04214262
v 0.01479086 -0.05144616 -0.03793303
v 0.01053002 -0.05261198 -0.03208807
v 0.01056372 -0.05264253 -0.03068488
v 0.00912710 -0.05276139 -0.03793303
v 0.00927413 -0.05278361 -0.03582319
v 0.00740255 -0.05303188 -0.03793303
v 0.00529816 -0.05325793 -0.03793303
v -0.01395986 -0.05127065 -0.04465625
v -0.01363823 -0.05139728 -0.04425245
v -0.01564153 -0.05083909 -0.04425245
v -0.01650227 -0.05068912 -0.04201138
v -0.01650227 -0.05083464 0.05350680
v -0.01650227 -0.05089296 0.05253768
v -0.01650227 -0.05093128 0.05147771
v -0.01574261 -0.05121399 0.05042784
v -0.01039435 -0.05259088 0.05042784
v -0.00934063 -0.05280582 0.05042784
v -0.00732508 -0.05314019 0.05042784
v -0.00732508 -0.05321406 0.03991902
v -0.00732508 -0.05324183 0.03569934
v -0.00732508 -0.05325405 0.03359960
v -0.00522069 -0.05349621 0.03569934
v -0.00522069 -0.05350176 0.03359960
v -0.00311631 -0.05367561 0.03359960
v -0.00101193 -0.05376781 0.02939002
v -0.00101193 -0.05375670 0.03359960
v 0.00108940 -0.05377225 0.02939002
v 0.00319378 -0.05366394 0.04201877
v 0.00529816 -0.05348954 0.04412861
v 0.00529816 -0.05347621 0.04622835
v 0.00529816 -0.05346011 0.04833819
v 0.00740255 -0.05319906 0.04833819
v 0.01479086 -0.05144671 0.05043794
v 0.00740255 -0.05321461 0.04622835
v 0.00740255 -0.05325738 0.03570944
v 0.00950693 -0.05287247 0.04622835
v 0.01062192 -0.05265697 0.04833819
v 0.00319378 -0.05334125 -0.04003278
v 0.00319378 -0.05338790 -0.03793303
v -0.00653478 -0.05267641 -0.04465625
v 0.00108940 -0.05346066 -0.03793303
v -0.00101193 -0.05342734 -0.03793303
v -0.00522069 -0.05307020 -0.04004287
v -0.00311631 -0.05331792 -0.03793303
v -0.00707696 -0.05274917 -0.04214262
v -0.00663281 -0.05268974 -0.04425245
v 0.01479086 -0.05146393 -0.03685288
v 0.00969991 -0.05277694 -0.03147228
v 0.00940585 -0.05279916 -0.03372345
v 0.01479086 -0.05147837 -0.03582319
v 0.01479086 -0.05149170 -0.03475313
v 0.01479086 -0.05151503 -0.03264329
v 0.01479086 -0.05153725 -0.03054355
v 0.01479086 -0.05166999 -0.01688511
v 0.01058516 -0.05264753 -0.02951386
v 0.00950693 -0.05284637 -0.02740403
v 0.00950693 -0.05282860 -0.02951386
v 0.00740255 -0.05306409 -0.03582319
v 0.00529816 -0.05329015 -0.03582319
v 0.00319378 -0.05345566 -0.03372345
v 0.00319378 -0.05342289 -0.03582319
v -0.01363823 -0.05135618 -0.04465625
v -0.00833898 -0.05260032 -0.04089084
v -0.00845844 -0.05265531 -0.03948765
v -0.01363823 -0.05149393 -0.04214262
v -0.01574261 -0.05102182 -0.04004287
v -0.01595091 -0.05084742 -0.04233442
v -0.01650227 -0.05072911 -0.04117350
v -0.01650227 -0.05096350 0.05042784
v -0.01574261 -0.05123732 0.04832810
v -0.01048931 -0.05264309 0.04541067
v -0.00938658 -0.05282082 0.04832810
v -0.00942946 -0.05289525 0.03780919
v -0.00942946 -0.05291135 0.03569934
v -0.00942946 -0.05292357 0.03359960
v -0.00942946 -0.05292802 0.03148976
v -0.00732508 -0.05325738 0.03148976
v -0.00522069 -0.05352842 0.01887111
v -0.00522069 -0.05351009 0.02939002
v -0.00311631 -0.05369616 0.02097085
v 0.00108940 -0.05377614 0.02729028
v -0.00101193 -0.05377170 0.02519053
v 0.00319378 -0.05366783 0.03991902
v 0.00529816 -0.05351676 0.03570944
v 0.00529816 -0.05350454 0.03991902
v 0.00529816 -0.05349788 0.04201877
v 0.01479086 -0.05148504 0.04412861
v 0.00950693 -0.05291080 0.03570944
v 0.00740255 -0.05327349 0.02729028
v 0.00950693 -0.05294357 0.02097085
v 0.00950693 -0.05293912 0.02308069
v 0.00950693 -0.05291580 0.03359960
v 0.01073219 -0.05268141 0.03359960
v 0.01479086 -0.05155558 0.02836034
v 0.01479086 -0.05155113 0.02939002
v 0.00108940 -0.05349899 -0.03582319
v -0.00101193 -0.05352009 -0.03372345
v -0.00101193 -0.05348121 -0.03582319
v -0.00311631 -0.05337679 -0.03582319
v -0.00522069 -0.05318295 -0.03582319
v -0.00751499 -0.05276805 -0.04013373
v 0.00740255 -0.05309020 -0.03372345
v 0.00740255 -0.05316018 -0.02740403
v 0.00740255 -0.05313741 -0.02951386
v 0.01076895 -0.05268918 -0.01898486
v 0.01073219 -0.05268141 -0.02109470
v 0.01479086 -0.05167999 -0.01478537
v 0.01371570 -0.05196714 -0.01268563
v 0.00740255 -0.05317851 -0.02530428
v 0.00950693 -0.05286081 -0.02530428
v 0.00529816 -0.05334902 -0.03161361
v 0.00529816 -0.05332181 -0.03372345
v 0.00319378 -0.05348454 -0.03161361
v -0.00732508 -0.05284804 -0.03793303
v -0.00732508 -0.05289636 -0.03582319
v -0.00857484 -0.05267364 -0.03793303
v -0.01363823 -0.05154891 -0.04004287
v -0.01574261 -0.05109014 -0.03793303
v -0.01650227 -0.05077854 -0.04004287
v -0.01650227 -0.05098572 0.04832810
v -0.01574261 -0.05127453 0.04412861
v -0.01574261 -0.05132674 0.03780919
v -0.01061796 -0.05267197 0.03780919
v -0.01066697 -0.05268308 0.03359960
v -0.01068841 -0.05268863 0.03148976
v -0.01070067 -0.05269252 0.02939002
v -0.01064553 -0.05267752 0.03569934
v -0.01070986 -0.05269530 0.02308069
v -0.00942946 -0.05292524 0.01887111
v -0.00732508 -0.05327071 0.01676127
v -0.00522069 -0.05352676 0.01676127
v -0.00311631 -0.05368616 0.00416280
v -0.00311631 -0.05369616 0.01887111
v -0.00101193 -0.05378114 0.01255169
v 0.00319378 -0.05368894 0.02729028
v 0.00108940 -0.05378003 0.00205296
v 0.00319378 -0.05370116 0.00205296
v 0.00529816 -0.05352065 0.03359960
v 0.01074138 -0.05268474 0.03149986
v 0.00740255 -0.05328015 0.02308069
v 0.01079345 -0.05269752 0.02097085
v 0.01078733 -0.05269530 0.02308069
v 0.00740255 -0.05328348 0.02097085
v 0.00950693 -0.05294634 0.01887111
v 0.01076589 -0.05268974 0.02729028
v 0.01479086 -0.05168888 -0.00739589
v 0.00108940 -0.05352565 -0.03372345
v 0.00033280 -0.05352398 -0.03372345
v -0.00311631 -0.05342512 -0.03372345
v -0.00101193 -0.05354620 -0.03161361
v -0.00311631 -0.05345288 -0.03161361
v -0.00522069 -0.05323239 -0.03372345
v 0.00529816 -0.05337402 -0.02951386
v 0.00529816 -0.05339401 -0.02740403
v 0.01371570 -0.05197547 -0.01057579
v 0.01078733 -0.05269252 -0.01688511
v 0.00950693 -0.05291080 -0.01688511
v 0.00950693 -0.05290246 -0.01898486
v 0.00950693 -0.05288858 -0.02109470
v 0.01479086 -0.05168832 -0.01268563
v 0.00529816 -0.05340901 -0.02530428
v 0.00740255 -0.05319184 -0.02319444
v 0.00319378 -0.05351009 -0.02951386
v -0.00732508 -0.05294079 -0.03372345
v -0.00732508 -0.05298189 -0.03161361
v -0.00870962 -0.05269419 -0.03582319
v -0.00883215 -0.05271363 -0.03372345
v -0.00894548 -0.05273251 -0.03161361
v -0.01363823 -0.05159168 -0.03793303
v -0.01650227 -0.05084186 -0.03793303
v -0.01650227 -0.05080576 -0.03918480
v -0.01574261 -0.05112235 -0.03582319
v -0.01650227 -0.05108347 0.03688045
v -0.01574261 -0.05133952 0.03569934
v -0.01574261 -0.05134674 0.03359960
v -0.01574261 -0.05136285 0.02729028
v -0.01574261 -0.05136562 0.02519053
v -0.01574261 -0.05136562 0.02308069
v -0.01574261 -0.05136118 0.01045194
v -0.01070679 -0.05269363 0.02097085
v -0.00942946 -0.05292413 0.01676127
v -0.00732508 -0.05325294 0.00626255
v -0.00522069 -0.05351287 0.00205296
v -0.00522069 -0.05351620 0.00416280
v -0.00522069 -0.05351843 0.00626255
v -0.00311631 -0.05368394 0.00205296
v -0.00101193 -0.05377892 0.01045194
v 0.00529816 -0.05353731 0.00415271
v 0.00529816 -0.05353286 0.01255169
v -0.00101193 -0.05377225 0.00626255
v -0.00101193 -0.05376503 0.00205296
v 0.00108940 -0.05377447 -0.00005688
v 0.00319378 -0.05369449 -0.00005688
v 0.00529816 -0.05353342 -0.00005688
v 0.00529816 -0.05353787 0.00205296
v 0.00740255 -0.05328737 0.01676127
v 0.00740255 -0.05328570 0.01887111
v 0.00950693 -0.05295356 0.01045194
v 0.01082102 -0.05270252 0.00834210
v 0.01479086 -0.05169054 -0.00950572
v 0.00108940 -0.05354786 -0.03161361
v 0.00033280 -0.05354786 -0.03161361
v -0.00522069 -0.05326626 -0.03161361
v 0.00033280 -0.05356064 -0.03027099
v -0.00101193 -0.05356564 -0.02951386
v -0.00311631 -0.05349065 -0.02740403
v -0.00522069 -0.05331070 -0.02740403
v -0.00522069 -0.05329126 -0.02951386
v -0.00732508 -0.05302133 -0.02951386
v 0.00319378 -0.05353064 -0.02740403
v 0.00319378 -0.05354675 -0.02530428
v 0.01083327 -0.05270085 -0.00215662
v 0.01479086 -0.05169110 -0.01057579
v 0.01082715 -0.05270196 0.00415271
v 0.00950693 -0.05295245 -0.00215662
v 0.00740255 -0.05328682 -0.00215662
v 0.00529816 -0.05351620 -0.00426646
v 0.00319378 -0.05368338 -0.00215662
v 0.00319378 -0.05357563 -0.02109470
v 0.00319378 -0.05356175 -0.02319444
v 0.00529816 -0.05352620 -0.00215662
v -0.00904350 -0.05275306 -0.02951386
v -0.00912008 -0.05276861 -0.02740403
v -0.01037904 -0.05261420 -0.01899495
v -0.01650227 -0.05085575 -0.03700430
v -0.01574261 -0.05113735 -0.03372345
v -0.01650227 -0.05087074 -0.03582319
v -0.01042498 -0.05262920 -0.01688511
v -0.01046174 -0.05263753 -0.01478537
v -0.01650227 -0.05109014 0.03569934
v -0.01650227 -0.05109458 0.03478071
v -0.01650227 -0.05109847 0.03359960
v -0.01650227 -0.05110124 0.03268097
v -0.01650227 -0.05110680 0.03058122
v -0.01650227 -0.05111402 0.02729028
v -0.01650227 -0.05111680 0.02519053
v -0.01650227 -0.05111791 0.02428199
v -0.01650227 -0.05111791 0.02217215
v -0.01574261 -0.05135840 0.00835220
v -0.01650227 -0.05111680 0.02006231
v -0.01650227 -0.05111124 0.01255169
v -0.01063328 -0.05267475 0.00626255
v -0.00942946 -0.05289913 0.00416280
v -0.00942946 -0.05290358 0.00626255
v -0.00732508 -0.05324849 0.00416280
v -0.00732508 -0.05323627 -0.00004678
v -0.00732508 -0.05322794 -0.00215662
v -0.00522069 -0.05350454 -0.00004678
v -0.00311631 -0.05367839 -0.00004678
v 0.00740255 -0.05329126 0.00415271
v -0.00101193 -0.05375948 -0.00004678
v -0.00101193 -0.05375226 -0.00215662
v -0.00101193 -0.05374281 -0.00426646
v 0.00033280 -0.05375670 -0.00291374
v 0.00108940 -0.05376447 -0.00215662
v 0.00108940 -0.05372282 -0.01057579
v 0.00740255 -0.05329070 -0.00005688
v 0.00740255 -0.05329126 0.00205296
v 0.00950693 -0.05295467 0.00626255
v 0.00108940 -0.05356786 -0.02951386
v -0.00732508 -0.05305076 -0.02740403
v 0.00033280 -0.05356730 -0.02951386
v 0.00108940 -0.05367505 -0.01688511
v -0.00101193 -0.05358341 -0.02740403
v -0.00311631 -0.05355731 -0.01899495
v -0.00522069 -0.05336180 -0.02109470
v -0.00732508 -0.05311075 -0.02109470
v -0.00732508 -0.05309297 -0.02320454
v -0.00732508 -0.05307242 -0.02530428
v 0.00108940 -0.05370949 -0.01268563
v 0.00108940 -0.05365728 -0.01898486
v 0.00950693 -0.05295467 -0.00005688
v 0.00950693 -0.05295523 0.00205296
v -0.00918135 -0.05278083 -0.02530428
v -0.01650227 -0.05088574 -0.03372345
v -0.01363823 -0.05181996 -0.01267553
v -0.01574261 -0.05128342 -0.00846595
v -0.00923342 -0.05279305 -0.02320454
v -0.00928243 -0.05280138 -0.02109470
v -0.00942946 -0.05283582 -0.01056569
v -0.00942946 -0.05287025 -0.00426646
v -0.00942946 -0.05288025 -0.00215662
v -0.01047706 -0.05264142 -0.01336199
v -0.01650227 -0.05110791 0.01045194
v -0.01650227 -0.05110291 0.00835220
v -0.01650227 -0.05109736 0.00626255
v -0.01574261 -0.05135229 0.00626255
v -0.00942946 -0.05288803 -0.00004678
v -0.00732508 -0.05321739 -0.00426646
v -0.00522069 -0.05349065 -0.00215662
v -0.00311631 -0.05366617 -0.00215662
v -0.00101193 -0.05373060 -0.00636620
v 0.00033280 -0.05375004 -0.00426646
v -0.00101193 -0.05364228 -0.01899495
v -0.00522069 -0.05337679 -0.01899495
v -0.01650227 -0.05102849 -0.00846595
v -0.01574261 -0.05133508 0.00205296
v -0.01574261 -0.05131453 -0.00215662
v -0.01650227 -0.05105070 -0.00426646
v -0.01574261 -0.05134396 0.00416280
v -0.01650227 -0.05108514 0.00321388
v -0.01650227 -0.05107625 0.00110404
v -0.01650227 -0.05105625 -0.00311564
f 1 2 3
f 1 3 4
f 1 4 5
f 1 5 6
f 1 6 7
f 1 7 19
f 1 19 35
f 1 35 53
f 1 53 77
f 1 77 76
f 1 76 114
f 1 114 148
f 1 148 195
f 1 195 249
f 1 249 257
f 1 257 256
f 1 256 308
f 1 308 362
f 1 362 375
f 1 375 322
f 1 322 269
f 1 269 216
f 1 216 215
f 1 215 214
f 1 214 213
f 1 213 212
f 1 212 209
f 1 209 163
f 1 163 126
f 1 126 92
f 1 92 91
f 1 91 56
f 1 56 36
f 1 36 20
f 1 20 8
f 1 8 9
f 1 9 2
f 2 9 21
f 2 21 38
f 2 38 41
f 2 41 23
f 2 23 11
f 2 11 10
f 2 10 4
f 2 4 3
f 4 10 5
f 5 10 11
f 5 11 6
f 6 11 12
f 6 12 13
f 6 13 14
f 6 14 15
f 6 15 16
f 6 16 17
f 6 17 7
f 7 17 16
f 7 16 18
f 7 18 19
f 8 20 9
f 9 20 21
f 11 22 12
f 11 23 24
f 11 24 22
f 12 22 13
f 13 22 25
f 13 25 26
f 13 26 27
f 13 27 28
f 13 28 14
f 14 28 27
f 14 27 29
f 14 29 15
f 15 29 30
f 15 30 16
f 16 30 31
f 16 31 32
f 16 32 18
f 18 32 33
f 18 33 34
f 18 34 19
f 19 34 35
f 20 36 55
f 20 55 37
f 20 37 21
f 21 37 55
f 21 55 80
f 21 80 118
f 21 118 155
f 21 155 154
f 21 154 202
f 21 202 224
f 21 224 170
f 21 170 129
f 21 129 94
f 21 94 58
f 21 58 38
f 22 24 39
f 22 39 40
f 22 40 25
f 23 41 24
f 24 41 42
f 24 42 43
f 24 43 39
f 25 40 44
f 25 44 26
f 26 44 45
f 26 45 46
f 26 46 47
f 26 47 27
f 27 47 29
f 29 47 48
f 29 48 30
f 30 48 49
f 30 49 31
f 31 49 32
f 32 49 50
f 32 50 33
f 33 50 51
f 33 51 34
f 34 51 52
f 34 52 53
f 34 53 35
f 36 54 55
f 36 56 57
f 36 57 54
f 38 58 95
f 38 95 130
f 38 130 173
f 38 173 230
f 38 230 281
f 38 281 333
f 38 333 332
f 38 332 387
f 38 387 389
f 38 389 437
f 38 437 458
f 38 458 461
f 38 461 465
f 38 465 464
f 38 464 463
f 38 463 448
f 38 448 447
f 38 447 446
f 38 446 403
f 38 403 402
f 38 402 400
f 38 400 399
f 38 399 398
f 38 398 397
f 38 397 396
f 38 396 395
f 38 395 394
f 38 394 393
f 38 393 392
f 38 392 335
f 38 335 282
f 38 282 231
f 38 231 176
f 38 176 175
f 38 175 174
f 38 174 131
f 38 131 98
f 38 98 96
f 38 96 60
f 38 60 42
f 38 42 41
f 39 43 59
f 39 59 44
f 39 44 40
f 42 60 61
f 42 61 43
f 43 61 62
f 43 62 63
f 43 63 64
f 43 64 65
f 43 65 59
f 44 59 66
f 44 66 45
f 45 66 67
f 45 67 68
f 45 68 46
f 46 68 69
f 46 69 47
f 47 69 70
f 47 70 48
f 48 70 71
f 48 71 49
f 49 71 72
f 49 72 50
f 50 72 51
f 51 72 73
f 51 73 74
f 51 74 75
f 51 75 76
f 51 76 77
f 51 77 53
f 51 53 52
f 54 78 55
f 54 57 79
f 54 79 78
f 55 78 81
f 55 81 82
f 55 82 83
f 55 83 84
f 55 84 85
f 55 85 86
f 55 86 87
f 55 87 88
f 55 88 89
f 55 89 90
f 55 90 80
f 56 91 57
f 57 91 92
f 57 92 93
f 57 93 79
f 58 94 95
f 59 65 64
f 59 64 66
f 60 96 97
f 60 97 61
f 61 97 96
f 61 96 98
f 61 98 99
f 61 99 62
f 62 99 63
f 63 98 100
f 63 100 101
f 63 101 102
f 63 102 103
f 63 103 64
f 63 99 98
f 64 103 66
f 66 103 67
f 67 103 104
f 67 104 105
f 67 105 68
f 68 105 106
f 68 106 107
f 68 107 108
f 68 108 69
f 69 108 70
f 70 108 107
f 70 107 71
f 71 107 109
f 71 109 72
f 72 109 110
f 72 110 111
f 72 111 73
f 73 111 112
f 73 112 74
f 74 112 113
f 74 113 75
f 75 113 76
f 76 113 114
f 78 79 81
f 79 93 115
f 79 115 116
f 79 116 81
f 80 117 118
f 80 90 117
f 81 116 119
f 81 119 82
f 82 119 83
f 83 119 120
f 83 120 84
f 84 120 85
f 85 120 86
f 86 120 88
f 86 88 87
f 88 120 121
f 88 121 89
f 89 121 122
f 89 122 90
f 90 122 123
f 90 123 124
f 90 124 125
f 90 125 117
f 92 126 93
f 93 126 127
f 93 127 128
f 93 128 115
f 94 129 130
f 94 130 95
f 98 131 132
f 98 132 100
f 100 132 133
f 100 133 134
f 100 134 101
f 101 134 135
f 101 135 102
f 102 135 136
f 102 136 103
f 103 136 137
f 103 137 104
f 104 137 138
f 104 138 139
f 104 139 105
f 105 140 106
f 105 139 141
f 105 141 142
f 105 142 140
f 106 140 107
f 107 140 143
f 107 143 144
f 107 144 109
f 109 144 145
f 109 145 110
f 110 145 146
f 110 146 111
f 111 146 112
f 112 146 147
f 112 147 113
f 113 148 114
f 113 147 149
f 113 149 150
f 113 150 148
f 115 151 119
f 115 119 116
f 115 128 152
f 115 152 151
f 117 153 154
f 117 154 155
f 117 155 118
f 117 125 153
f 119 151 156
f 119 156 120
f 120 156 121
f 121 123 122
f 121 156 157
f 121 157 158
f 121 158 123
f 123 158 124
f 124 158 159
f 124 159 160
f 124 160 161
f 124 161 125
f 125 162 153
f 125 161 162
f 126 163 164
f 126 164 127
f 127 164 165
f 127 165 166
f 127 166 128
f 128 166 167
f 128 167 168
f 128 168 169
f 128 169 152
f 129 170 171
f 129 171 172
f 129 172 130
f 130 172 173
f 131 174 132
f 132 174 133
f 133 175 176
f 133 176 177
f 133 177 178
f 133 178 134
f 133 174 175
f 134 178 135
f 135 178 179
f 135 179 136
f 136 179 180
f 136 180 137
f 137 180 181
f 137 181 182
f 137 182 138
f 138 182 183
f 138 183 184
f 138 184 139
f 139 184 185
f 139 185 186
f 139 186 187
f 139 187 188
f 139 188 141
f 140 142 143
f 141 188 142
f 142 188 189
f 142 189 190
f 142 190 143
f 143 190 191
f 143 191 192
f 143 192 193
f 143 193 144
f 144 193 145
f 145 193 194
f 145 194 146
f 146 194 147
f 147 194 149
f 148 150 195
f 149 194 196
f 149 196 197
f 149 197 198
f 149 198 199
f 149 199 150
f 150 199 195
f 151 152 200
f 151 200 156
f 152 169 201
f 152 201 200
f 153 162 154
f 154 162 202
f 156 200 157
f 157 200 203
f 157 203 204
f 157 204 159
f 157 159 158
f 159 204 160
f 160 204 161
f 161 205 162
f 161 204 206
f 161 206 205
f 162 207 208
f 162 208 202
f 162 205 207
f 163 209 165
f 163 165 164
f 165 210 211
f 165 211 167
f 165 167 166
f 165 209 212
f 165 212 213
f 165 213 214
f 165 214 215
f 165 215 216
f 165 216 217
f 165 217 218
f 165 218 219
f 165 219 210
f 167 211 168
f 168 211 220
f 168 220 221
f 168 221 169
f 169 221 222
f 169 222 223
f 169 223 201
f 170 224 171
f 171 208 225
f 171 225 226
f 171 226 227
f 171 227 228
f 171 228 172
f 171 224 202
f 171 202 208
f 172 228 229
f 172 229 173
f 173 229 230
f 176 231 177
f 177 231 232
f 177 232 233
f 177 233 178
f 178 233 179
f 179 233 234
f 179 234 180
f 180 234 235
f 180 235 236
f 180 236 181
f 181 236 182
f 182 236 237
f 182 237 183
f 183 185 184
f 183 237 238
f 183 238 239
f 183 239 240
f 183 240 241
f 183 241 185
f 185 241 186
f 186 241 240
f 186 240 242
f 186 242 187
f 187 243 189
f 187 189 188
f 187 242 244
f 187 244 243
f 189 243 245
f 189 245 190
f 190 245 246
f 190 246 247
f 190 247 248
f 190 248 191
f 191 248 197
f 191 197 196
f 191 196 192
f 192 196 194
f 192 194 193
f 195 199 249
f 197 250 198
f 197 248 247
f 197 247 246
f 197 246 251
f 197 251 252
f 197 252 253
f 197 253 254
f 197 254 250
f 198 250 199
f 199 250 255
f 199 255 256
f 199 256 257
f 199 257 249
f 200 201 203
f 201 223 258
f 201 258 203
f 203 258 259
f 203 259 260
f 203 260 204
f 204 260 261
f 204 261 206
f 205 206 261
f 205 261 262
f 205 262 263
f 205 263 207
f 207 263 226
f 207 226 225
f 207 225 208
f 210 219 211
f 211 264 220
f 211 219 265
f 211 265 266
f 211 266 264
f 216 267 268
f 216 268 217
f 216 269 270
f 216 270 267
f 217 268 218
f 218 271 219
f 218 268 272
f 218 272 271
f 219 271 265
f 220 264 273
f 220 273 274
f 220 274 221
f 221 274 222
f 222 258 223
f 222 274 275
f 222 275 258
f 226 276 277
f 226 277 278
f 226 278 227
f 226 263 276
f 227 278 279
f 227 279 280
f 227 280 228
f 228 281 230
f 228 230 229
f 228 280 281
f 231 282 232
f 232 282 283
f 232 283 233
f 233 283 284
f 233 284 285
f 233 285 236
f 233 236 235
f 233 235 234
f 236 285 237
f 237 286 287
f 237 287 288
f 237 288 238
f 237 285 289
f 237 289 286
f 238 288 290
f 238 290 291
f 238 291 292
f 238 292 239
f 239 292 240
f 240 292 293
f 240 293 294
f 240 294 295
f 240 295 242
f 242 295 296
f 242 296 244
f 243 297 245
f 243 244 296
f 243 296 298
f 243 298 299
f 243 299 297
f 245 297 300
f 245 300 246
f 246 300 251
f 250 254 301
f 250 301 255
f 251 300 302
f 251 302 252
f 252 303 304
f 252 304 253
f 252 302 305
f 252 305 306
f 252 306 303
f 253 304 254
f 254 307 301
f 254 304 307
f 255 301 308
f 255 308 256
f 258 275 309
f 258 309 310
f 258 310 259
f 259 311 260
f 259 310 312
f 259 312 313
f 259 313 311
f 260 311 261
f 261 311 314
f 261 314 262
f 262 276 263
f 262 314 276
f 264 266 315
f 264 315 273
f 265 271 316
f 265 316 315
f 265 315 266
f 267 270 317
f 267 317 318
f 267 318 319
f 267 319 320
f 267 320 321
f 267 321 272
f 267 272 268
f 269 322 270
f 270 322 317
f 271 323 316
f 271 272 321
f 271 321 320
f 271 320 324
f 271 324 323
f 273 315 325
f 273 325 275
f 273 275 274
f 275 325 309
f 276 314 277
f 277 314 326
f 277 326 278
f 278 326 327
f 278 327 328
f 278 328 279
f 279 328 329
f 279 329 330
f 279 330 331
f 279 331 280
f 280 332 333
f 280 333 281
f 280 331 334
f 280 334 332
f 282 335 283
f 283 335 284
f 284 335 336
f 284 336 289
f 284 289 285
f 286 289 336
f 286 336 287
f 287 336 337
f 287 337 288
f 288 337 338
f 288 338 339
f 288 339 290
f 290 339 340
f 290 340 341
f 290 341 342
f 290 342 343
f 290 343 291
f 291 343 292
f 292 343 344
f 292 344 345
f 292 345 346
f 292 346 347
f 292 347 293
f 293 347 294
f 294 347 348
f 294 348 296
f 294 296 295
f 296 348 349
f 296 349 298
f 297 299 350
f 297 350 351
f 297 351 300
f 298 349 352
f 298 352 353
f 298 353 354
f 298 354 299
f 299 354 355
f 299 355 356
f 299 356 357
f 299 357 350
f 300 351 358
f 300 358 359
f 300 359 305
f 300 305 302
f 301 307 308
f 303 306 360
f 303 360 361
f 303 361 317
f 303 317 308
f 303 308 304
f 304 308 307
f 305 359 306
f 306 359 360
f 308 317 362
f 309 363 364
f 309 364 312
f 309 312 310
f 309 325 363
f 311 313 365
f 311 365 314
f 312 364 366
f 312 366 367
f 312 367 313
f 313 367 368
f 313 368 369
f 313 369 370
f 313 370 365
f 314 365 371
f 314 371 327
f 314 327 326
f 315 316 372
f 315 372 325
f 316 323 373
f 316 373 372
f 317 374 318
f 317 322 375
f 317 375 362
f 317 361 376
f 317 376 374
f 318 374 377
f 318 377 319
f 319 377 378
f 319 378 320
f 320 378 324
f 323 324 379
f 323 379 355
f 323 355 380
f 323 380 381
f 323 381 382
f 323 382 373
f 324 378 383
f 324 383 379
f 325 372 363
f 327 371 328
f 328 371 329
f 329 371 330
f 330 371 384
f 330 384 331
f 331 384 385
f 331 385 386
f 331 386 334
f 332 334 387
f 334 388 437
f 334 437 389
f 334 389 387
f 334 386 390
f 334 390 391
f 334 391 388
f 335 392 336
f 336 392 393
f 336 393 337
f 337 394 395
f 337 395 396
f 337 396 338
f 337 393 394
f 338 396 397
f 338 397 398
f 338 398 339
f 339 398 399
f 339 399 400
f 339 400 340
f 340 400 341
f 341 401 342
f 341 400 402
f 341 402 403
f 341 403 401
f 342 401 404
f 342 404 405
f 342 405 406
f 342 406 343
f 343 406 344
f 344 406 405
f 344 405 407
f 344 407 345
f 345 348 346
f 345 407 408
f 345 408 409
f 345 409 410
f 345 410 411
f 345 411 348
f 346 348 347
f 348 411 413
f 348 413 353
f 348 353 352
f 348 352 349
f 350 357 412
f 350 412 358
f 350 358 351
f 353 413 354
f 354 413 414
f 354 414 415
f 354 415 416
f 354 416 417
f 354 417 355
f 355 417 418
f 355 418 380
f 355 379 383
f 355 383 356
f 356 383 378
f 356 378 357
f 357 378 419
f 357 419 420
f 357 420 412
f 358 412 360
f 358 360 359
f 360 412 421
f 360 421 361
f 361 421 376
f 363 372 422
f 363 422 364
f 364 422 366
f 365 370 423
f 365 423 371
f 366 422 424
f 366 424 367
f 367 424 425
f 367 425 426
f 367 426 368
f 368 426 427
f 368 427 428
f 368 428 369
f 369 428 429
f 369 429 430
f 369 430 370
f 370 430 431
f 370 431 423
f 371 423 384
f 372 373 432
f 372 432 425
f 372 425 433
f 372 433 422
f 373 382 432
f 374 434 377
f 374 376 435
f 374 435 434
f 376 421 435
f 377 434 419
f 377 419 378
f 380 418 381
f 381 418 432
f 381 432 382
f 384 423 385
f 385 423 436
f 385 436 386
f 386 436 390
f 388 391 438
f 388 438 439
f 388 439 437
f 390 436 440
f 390 440 441
f 390 441 391
f 391 442 443
f 391 443 444
f 391 444 445
f 391 445 438
f 391 441 442
f 401 403 446
f 401 446 447
f 401 447 448
f 401 448 449
f 401 449 404
f 404 449 445
f 404 445 450
f 404 450 405
f 405 450 407
f 407 450 408
f 408 450 444
f 408 444 409
f 409 444 443
f 409 443 451
f 409 451 410
f 410 451 429
f 410 429 452
f 410 452 427
f 410 427 453
f 410 453 411
f 411 453 415
f 411 415 414
f 411 414 413
f 412 420 435
f 412 435 421
f 415 454 418
f 415 418 455
f 415 455 416
f 415 453 454
f 416 455 417
f 417 455 418
f 418 454 432
f 419 434 435
f 419 435 420
f 422 433 424
f 423 431 436
f 424 433 425
f 425 432 426
f 426 456 427
f 426 432 456
f 427 457 428
f 427 456 454
f 427 454 453
f 427 452 457
f 428 457 429
f 429 441 440
f 429 440 430
f 429 457 452
f 429 451 441
f 430 440 436
f 430 436 431
f 432 454 456
f 437 439 458
f 438 445 459
f 438 459 460
f 438 460 439
f 439 460 461
f 439 461 458
f 441 451 442
f 442 451 443
f 444 450 445
f 445 449 462
f 445 462 459
f 448 463 462
f 448 462 449
f 459 464 465
f 459 465 461
f 459 461 460
f 459 462 463
f 459 463 464

