# https://github.com/mikedh/trimesh
v 0.00109366 0.04946741 -0.05712163
v 0.00319827 0.04940130 -0.05712163
v 0.00109366 0.04877876 -0.05853022
v -0.00101094 0.04881182 -0.05856384
v -0.00101094 0.04946007 -0.05712163
v 0.00355151 0.04937376 -0.05712163
v 0.00319827 0.04871816 -0.05844136
v 0.00319827 0.04798911 -0.05949330
v 0.00109366 0.04804053 -0.05958216
v -0.00101094 0.04804971 -0.05961578
v -0.00311554 0.04803686 -0.05958096
v -0.00311554 0.04877509 -0.05852782
v -0.00311554 0.04940314 -0.05712163
v 0.00530287 0.04922684 -0.05712163
v 0.00530287 0.04862267 -0.05830446
v 0.00530287 0.04789546 -0.05935640
v 0.00319827 0.04693686 -0.06081182
v 0.00530287 0.04684320 -0.06072536
v 0.00109366 0.04698828 -0.06086706
v -0.00101094 0.04699746 -0.06090068
v -0.00311554 0.04698460 -0.06087426
v -0.00522015 0.04690013 -0.06076739
v -0.00522015 0.04795239 -0.05942364
v -0.00522015 0.04864838 -0.05837171
v -0.00698638 0.04908177 -0.05712163
v -0.00491524 0.04928010 -0.05712163
v 0.00571189 0.04918277 -0.05712163
v 0.00740376 0.04848861 -0.05811353
v 0.00740376 0.04776140 -0.05916547
v 0.00740376 0.04670914 -0.06057285
v 0.00319827 0.04598560 -0.06186376
v 0.00109366 0.04604253 -0.06192020
v 0.00530287 0.04590848 -0.06177730
v -0.00101094 0.04607926 -0.06195262
v -0.00311554 0.04605355 -0.06192620
v -0.00522015 0.04595990 -0.06181932
v -0.00732475 0.04580748 -0.06162599
v -0.00732475 0.04672567 -0.06057285
v -0.00732475 0.04777793 -0.05918588
v -0.00732475 0.04849412 -0.05813394
v -0.00732475 0.04903769 -0.05712163
v 0.00740376 0.04898444 -0.05712163
v 0.00856389 0.04839679 -0.05797423
v 0.00950836 0.04651449 -0.06034349
v 0.00740376 0.04576340 -0.06162479
v 0.00530287 0.04485622 -0.06281602
v 0.00319827 0.04493335 -0.06288567
v 0.00109366 0.04499028 -0.06293010
v 0.00740376 0.04471115 -0.06266712
v -0.00101094 0.04502701 -0.06294692
v -0.00311554 0.04500130 -0.06290128
v -0.00522015 0.04490764 -0.06281362
v -0.00732475 0.04475522 -0.06269834
v -0.00942935 0.04454771 -0.06252662
v -0.00942935 0.04559996 -0.06137622
v -0.00942935 0.04651082 -0.06032428
v -0.01091299 0.04635656 -0.06014535
v -0.00851835 0.04840230 -0.05798263
v -0.00917651 0.04872550 -0.05712163
v 0.00765661 0.04894771 -0.05712163
v 0.01096225 0.04635840 -0.06015736
v 0.00921461 0.04867041 -0.05712163
v 0.01161297 0.04809379 -0.05712163
v 0.01223394 0.04794137 -0.05712163
v 0.01367295 0.04758327 -0.05712163
v 0.01371757 0.04672567 -0.05862989
v 0.01272848 0.04418227 -0.06216156
v 0.00950836 0.04556507 -0.06139663
v 0.01161297 0.04430347 -0.06227204
v 0.00950836 0.04451282 -0.06247138
v 0.00530287 0.04367542 -0.06386676
v 0.00319827 0.04376908 -0.06393641
v 0.00109366 0.04382968 -0.06398084
v 0.00740376 0.04350096 -0.06371906
v -0.00101094 0.04384988 -0.06399765
v -0.00311554 0.04377459 -0.06395322
v -0.00522015 0.04363869 -0.06386436
v -0.00732475 0.04350280 -0.06375028
v -0.00942935 0.04333752 -0.06357736
v -0.01153396 0.04431449 -0.06229726
v -0.01182027 0.04428143 -0.06226484
v -0.01182027 0.04571566 -0.06062929
v -0.01182027 0.04665589 -0.05940924
v -0.01182027 0.04686156 -0.05908981
v -0.01153396 0.04801666 -0.05733778
v -0.01153396 0.04813602 -0.05712163
v 0.01236408 0.04616190 -0.05994601
v 0.01408941 0.04746574 -0.05712163
v 0.01535366 0.04647409 -0.05825403
v 0.01371757 0.04598193 -0.05968303
v 0.01354281 0.04478828 -0.06117927
v 0.01413031 0.04396006 -0.06193941
v 0.01581846 0.04263602 -0.06263950
v 0.01354281 0.04319980 -0.06275478
v 0.01216329 0.04191983 -0.06412014
v 0.01075774 0.04210347 -0.06427985
v 0.00950836 0.04328427 -0.06352212
v 0.00530287 0.04262317 -0.06462569
v 0.00740376 0.04244871 -0.06451641
v 0.00319827 0.04271682 -0.06468213
v 0.00109366 0.04277742 -0.06471456
v 0.00950836 0.04223202 -0.06436991
v -0.00101094 0.04279762 -0.06472896
v -0.00311554 0.04272233 -0.06470134
v -0.00522015 0.04258828 -0.06462209
v -0.00732475 0.04245055 -0.06452482
v -0.00942935 0.04228527 -0.06441074
v -0.01081631 0.04214387 -0.06431227
v -0.01182027 0.04326958 -0.06312704
v -0.01182027 0.04798177 -0.05725493
v -0.01182027 0.04805890 -0.05712163
v -0.01173475 0.04808277 -0.05712163
v 0.01581846 0.04462484 -0.06058486
v 0.01592257 0.04687993 -0.05712163
v 0.01603784 0.04683953 -0.05712163
v 0.01675549 0.04618027 -0.05785415
v 0.01876713 0.04405923 -0.05991839
v 0.01736530 0.04435305 -0.06027024
v 0.01581846 0.04368827 -0.06163680
v 0.01745083 0.04232935 -0.06237892
v 0.01581846 0.04126791 -0.06369024
v 0.01371757 0.04165355 -0.06394482
v 0.01371757 0.04060130 -0.06464851
v 0.01152001 0.04113385 -0.06475538
v 0.00530287 0.03868226 -0.06671155
v 0.00319827 0.03878877 -0.06677640
v 0.00950836 0.03935806 -0.06602107
v 0.00740376 0.03851148 -0.06663950
v 0.00950836 0.04100530 -0.06509162
v 0.00109366 0.04100530 -0.06566562
v -0.00101094 0.04100530 -0.06571606
v -0.00311554 0.04100530 -0.06569564
v -0.00522015 0.04100530 -0.06553113
v -0.00522015 0.03980430 -0.06620840
v -0.00942935 0.04100530 -0.06511323
v -0.01153396 0.03907893 -0.06591419
v -0.01152652 0.04115038 -0.06477700
v -0.01182027 0.04108243 -0.06476499
v -0.01182027 0.04148644 -0.06450561
v -0.01182027 0.04252767 -0.06374427
v -0.01182027 0.04534103 -0.05712163
v 0.01792306 0.04610497 -0.05712163
v 0.01792306 0.04594704 -0.05740503
v 0.02002766 0.04445772 -0.05841254
v 0.02308417 0.04200063 -0.05997123
v 0.02168234 0.04233118 -0.06033388
v 0.01810898 0.04319429 -0.06117207
v 0.01699718 0.04000631 -0.06428105
v 0.01885265 0.04199328 -0.06207390
v 0.02167119 0.04025054 -0.06240053
v 0.02002766 0.04065455 -0.06272836
v 0.01840273 0.03970147 -0.06406850
v 0.01269873 0.03786323 -0.06635730
v 0.01161297 0.03908260 -0.06590939
v 0.01778920 0.03896140 -0.06470615
v 0.00530287 0.03444387 -0.06885746
v 0.00319827 0.03456323 -0.06892230
v 0.00109366 0.03462016 -0.06895112
v 0.00109366 0.03883836 -0.06680762
v 0.00950836 0.03830580 -0.06655064
v 0.00740376 0.03427308 -0.06877580
v -0.00101094 0.03991449 -0.06628526
v -0.00311554 0.03991265 -0.06629246
v -0.00311554 0.03451181 -0.06892230
v -0.00522015 0.03437776 -0.06884425
v -0.00732475 0.03424186 -0.06875779
v -0.00732475 0.03852801 -0.06663590
v -0.00942935 0.03829111 -0.06654343
v -0.00942935 0.03934337 -0.06600185
v -0.01153396 0.03802667 -0.06642816
v -0.01182027 0.03798627 -0.06641134
v -0.01182027 0.03902384 -0.06588898
v -0.01182027 0.03929378 -0.06574728
v -0.01182027 0.03070864 -0.06700456
v 0.02616671 0.03882367 -0.05712163
v 0.01872251 0.04575973 -0.05712163
v 0.01990867 0.04524554 -0.05712163
v 0.02115061 0.04419512 -0.05799104
v 0.02307302 0.03988878 -0.06207991
v 0.02237768 0.04112650 -0.06120690
v 0.02423687 0.04234955 -0.05841134
v 0.02529289 0.04205939 -0.05793700
v 0.02616671 0.04088410 -0.05882203
v 0.02616671 0.04086023 -0.05885325
v 0.02616671 0.03995672 -0.06002527
v 0.02558664 0.04014403 -0.06023902
v 0.02423687 0.04057926 -0.06066772
v 0.02002766 0.04170681 -0.06178570
v 0.02213598 0.03890447 -0.06320630
v 0.02002766 0.03929195 -0.06378030
v 0.02002766 0.03823969 -0.06448880
v 0.01581846 0.03724804 -0.06602347
v 0.01721657 0.03590380 -0.06641735
v 0.01371757 0.03226774 -0.06879021
v 0.01105893 0.03382316 -0.06855845
v 0.00950836 0.03405088 -0.06867252
v 0.01161297 0.03803035 -0.06642936
v 0.01792306 0.03668243 -0.06585655
v 0.00950836 0.03258911 -0.06918889
v 0.00740376 0.03258911 -0.06929096
v 0.00530287 0.03258911 -0.06934500
v -0.00101094 0.03258911 -0.06938943
v -0.00101094 0.03461465 -0.06895593
v 0.00319827 0.03258911 -0.06937382
v -0.00732475 0.03258911 -0.06930176
v -0.00942935 0.03258911 -0.06917448
v -0.00942935 0.03398477 -0.06863170
v -0.01182027 0.03263318 -0.06887307
v 0.02616671 0.03070864 -0.06345727
v -0.01182027 0.03070864 -0.06931017
v 0.02616671 0.04194737 -0.05712163
v 0.02027679 0.04508026 -0.05712163
v 0.02171953 0.04438978 -0.05712163
v 0.02255244 0.04384988 -0.05735700
v 0.02423687 0.03951782 -0.06171965
v 0.02557177 0.03803402 -0.06229726
v 0.02423687 0.03846557 -0.06260828
v 0.02447857 0.04295372 -0.05712163
v 0.02564614 0.04228527 -0.05712163
v 0.02616671 0.04183352 -0.05732698
v 0.02616671 0.03907525 -0.06092350
v 0.02616671 0.03889896 -0.06109762
v 0.02260450 0.03750881 -0.06401086
v 0.02119895 0.03792016 -0.06429186
v 0.02199469 0.03680363 -0.06466652
v 0.02002766 0.03679812 -0.06522731
v 0.01540943 0.03189495 -0.06862209
v 0.02002766 0.03514721 -0.06603668
v 0.02120267 0.03372951 -0.06638733
v 0.02002766 0.03409495 -0.06652182
v 0.01371757 0.03070864 -0.06922011
v 0.01170221 0.03274887 -0.06888748
v 0.01594488 0.03070864 -0.06891990
v 0.01138986 0.03070864 -0.06935580
v 0.01351678 0.03070864 -0.06924293
v -0.00311554 0.03258911 -0.06937622
v -0.00942935 0.03070864 -0.06934860
v -0.01153024 0.03070864 -0.06933900
v -0.00522015 0.03258911 -0.06934380
v -0.01150049 0.03271398 -0.06888628
v 0.02616671 0.03070864 -0.06597904
v 0.02232562 0.04408861 -0.05712163
v 0.02314739 0.04366440 -0.05712163
v 0.02616671 0.03783201 -0.06212074
v 0.02435586 0.03680363 -0.06370945
v 0.02616671 0.03705705 -0.06268633
v 0.02373117 0.03610580 -0.06446718
v 0.02199841 0.03453569 -0.06576049
v 0.01746198 0.03070864 -0.06861729
v 0.01597834 0.03070864 -0.06891390
v 0.01839901 0.03070864 -0.06835310
v 0.02616671 0.03419044 -0.06452722
v 0.02354153 0.03179762 -0.06645217
v 0.02529661 0.03070864 -0.06630567
v 0.02616671 0.03258544 -0.06521050
v 0.02616671 0.03682934 -0.06284124
v 0.02616671 0.03532533 -0.06385595
v 0.02513672 0.03562283 -0.06413575
v 0.02616671 0.03524453 -0.06390879
v 0.02616671 0.03434837 -0.06444317
v 0.02414763 0.03070864 -0.06667793
f 1 2 3
f 1 3 4
f 1 4 5
f 1 5 13
f 1 13 26
f 1 26 25
f 1 25 41
f 1 41 59
f 1 59 86
f 1 86 112
f 1 112 111
f 1 111 141
f 1 141 175
f 1 175 211
f 1 211 219
f 1 219 218
f 1 218 243
f 1 243 242
f 1 242 213
f 1 213 212
f 1 212 177
f 1 177 176
f 1 176 142
f 1 142 115
f 1 115 114
f 1 114 88
f 1 88 65
f 1 65 64
f 1 64 63
f 1 63 62
f 1 62 60
f 1 60 42
f 1 42 27
f 1 27 14
f 1 14 6
f 1 6 2
f 2 6 7
f 2 7 3
f 3 8 9
f 3 9 4
f 3 7 8
f 4 10 11
f 4 11 12
f 4 12 5
f 4 9 10
f 5 12 13
f 6 14 15
f 6 15 7
f 7 15 16
f 7 16 8
f 8 17 9
f 8 16 18
f 8 18 17
f 9 19 20
f 9 20 10
f 9 17 19
f 10 20 21
f 10 21 11
f 11 21 22
f 11 22 23
f 11 23 12
f 12 23 24
f 12 24 25
f 12 25 26
f 12 26 13
f 14 27 15
f 15 27 28
f 15 28 29
f 15 29 16
f 16 29 30
f 16 30 18
f 17 31 32
f 17 32 19
f 17 18 33
f 17 33 31
f 18 30 33
f 19 32 34
f 19 34 20
f 20 34 21
f 21 34 35
f 21 35 22
f 22 36 37
f 22 37 38
f 22 38 23
f 22 35 36
f 23 38 39
f 23 39 40
f 23 40 24
f 24 40 41
f 24 41 25
f 27 42 28
f 28 42 43
f 28 43 29
f 29 43 44
f 29 44 30
f 30 45 33
f 30 44 45
f 31 33 46
f 31 46 47
f 31 47 32
f 32 48 34
f 32 47 48
f 33 45 49
f 33 49 46
f 34 50 35
f 34 48 50
f 35 50 51
f 35 51 52
f 35 52 36
f 36 52 53
f 36 53 37
f 37 53 54
f 37 54 55
f 37 55 38
f 38 55 56
f 38 56 39
f 39 56 57
f 39 57 58
f 39 58 40
f 40 58 41
f 41 58 59
f 42 60 43
f 43 61 44
f 43 60 62
f 43 62 63
f 43 63 64
f 43 64 65
f 43 65 66
f 43 66 61
f 44 61 67
f 44 67 68
f 44 68 45
f 45 68 69
f 45 69 70
f 45 70 49
f 46 71 72
f 46 72 47
f 46 49 71
f 47 72 73
f 47 73 48
f 48 73 50
f 49 74 71
f 49 70 74
f 50 75 51
f 50 73 75
f 51 75 76
f 51 76 52
f 52 76 77
f 52 77 78
f 52 78 53
f 53 78 79
f 53 79 54
f 54 79 80
f 54 80 55
f 55 80 81
f 55 81 57
f 55 57 56
f 57 81 82
f 57 82 83
f 57 83 58
f 58 83 84
f 58 84 85
f 58 85 59
f 59 85 86
f 61 66 87
f 61 87 67
f 65 88 66
f 66 88 89
f 66 89 90
f 66 90 87
f 67 87 91
f 67 91 92
f 67 92 93
f 67 93 94
f 67 94 95
f 67 95 96
f 67 96 69
f 67 69 68
f 69 96 97
f 69 97 74
f 69 74 70
f 71 98 72
f 71 74 99
f 71 99 98
f 72 98 100
f 72 100 73
f 73 101 75
f 73 100 101
f 74 97 96
f 74 96 102
f 74 102 99
f 75 103 104
f 75 104 76
f 75 101 103
f 76 104 105
f 76 105 77
f 77 105 106
f 77 106 78
f 78 106 107
f 78 107 79
f 79 107 108
f 79 108 80
f 80 108 81
f 81 109 140
f 81 140 139
f 81 139 138
f 81 138 173
f 81 173 172
f 81 172 171
f 81 171 208
f 81 208 210
f 81 210 174
f 81 174 141
f 81 141 111
f 81 111 110
f 81 110 84
f 81 84 83
f 81 83 82
f 81 108 109
f 84 110 85
f 85 110 111
f 85 111 112
f 85 112 86
f 87 90 113
f 87 113 91
f 88 114 89
f 89 114 115
f 89 115 116
f 89 116 117
f 89 117 118
f 89 118 90
f 90 118 113
f 91 113 92
f 92 113 119
f 92 119 93
f 93 119 120
f 93 120 121
f 93 121 122
f 93 122 95
f 93 95 94
f 95 122 123
f 95 123 124
f 95 124 96
f 96 124 102
f 98 125 126
f 98 126 100
f 98 99 127
f 98 127 128
f 98 128 125
f 99 102 124
f 99 124 129
f 99 129 127
f 100 126 130
f 100 130 101
f 101 130 131
f 101 131 103
f 103 131 132
f 103 132 104
f 104 132 105
f 105 132 133
f 105 133 106
f 106 133 134
f 106 134 107
f 107 135 136
f 107 136 137
f 107 137 108
f 107 134 135
f 108 137 138
f 108 138 139
f 108 139 140
f 108 140 109
f 113 118 119
f 115 142 116
f 116 142 143
f 116 143 144
f 116 144 117
f 117 144 145
f 117 145 146
f 117 146 147
f 117 147 118
f 118 120 119
f 118 147 120
f 120 148 121
f 120 147 149
f 120 149 150
f 120 150 151
f 120 151 152
f 120 152 148
f 121 148 122
f 122 148 123
f 123 153 154
f 123 154 124
f 123 148 155
f 123 155 153
f 124 154 129
f 125 156 157
f 125 157 126
f 125 128 156
f 126 157 158
f 126 158 159
f 126 159 130
f 127 160 161
f 127 161 128
f 127 129 154
f 127 154 160
f 128 161 156
f 130 159 131
f 131 162 163
f 131 163 132
f 131 159 162
f 132 163 134
f 132 134 133
f 134 163 164
f 134 164 165
f 134 165 166
f 134 166 167
f 134 167 168
f 134 168 169
f 134 169 135
f 135 169 136
f 136 170 171
f 136 171 172
f 136 172 173
f 136 173 138
f 136 138 137
f 136 169 168
f 136 168 170
f 141 174 175
f 142 176 143
f 143 176 177
f 143 177 144
f 144 177 178
f 144 178 145
f 145 179 180
f 145 180 146
f 145 178 181
f 145 181 182
f 145 182 183
f 145 183 184
f 145 184 185
f 145 185 186
f 145 186 187
f 145 187 179
f 146 180 188
f 146 188 149
f 146 149 147
f 148 152 155
f 149 188 179
f 149 179 150
f 150 179 189
f 150 189 190
f 150 190 151
f 151 190 152
f 152 190 191
f 152 191 155
f 153 155 192
f 153 192 193
f 153 193 194
f 153 194 195
f 153 195 196
f 153 196 197
f 153 197 154
f 154 197 196
f 154 196 160
f 155 193 192
f 155 191 198
f 155 198 193
f 156 161 199
f 156 199 200
f 156 200 157
f 157 200 201
f 157 201 158
f 158 202 203
f 158 203 163
f 158 163 162
f 158 162 159
f 158 201 204
f 158 204 202
f 160 196 161
f 161 196 199
f 163 203 164
f 164 203 205
f 164 205 165
f 165 205 206
f 165 206 166
f 166 206 207
f 166 207 170
f 166 170 168
f 166 168 167
f 170 207 171
f 171 207 208
f 174 209 175
f 174 210 238
f 174 238 237
f 174 237 234
f 174 234 235
f 174 235 231
f 174 231 233
f 174 233 250
f 174 250 249
f 174 249 251
f 174 251 261
f 174 261 254
f 174 254 241
f 174 241 209
f 175 209 241
f 175 241 255
f 175 255 252
f 175 252 260
f 175 260 259
f 175 259 257
f 175 257 256
f 175 256 246
f 175 246 244
f 175 244 222
f 175 222 221
f 175 221 185
f 175 185 184
f 175 184 183
f 175 183 220
f 175 220 211
f 177 212 178
f 178 212 213
f 178 213 214
f 178 214 181
f 179 188 180
f 179 187 215
f 179 215 216
f 179 216 217
f 179 217 189
f 181 214 182
f 182 214 218
f 182 218 219
f 182 219 220
f 182 220 183
f 185 221 186
f 186 221 222
f 186 222 215
f 186 215 187
f 189 217 223
f 189 223 224
f 189 224 190
f 190 224 191
f 191 224 225
f 191 225 226
f 191 226 198
f 193 227 194
f 193 198 228
f 193 228 229
f 193 229 230
f 193 230 227
f 194 231 199
f 194 199 232
f 194 232 195
f 194 227 233
f 194 233 231
f 195 232 196
f 196 232 199
f 198 226 228
f 199 234 200
f 199 231 235
f 199 235 234
f 200 234 201
f 201 234 204
f 202 236 203
f 202 204 234
f 202 234 237
f 202 237 238
f 202 238 236
f 203 236 239
f 203 239 205
f 205 239 238
f 205 238 206
f 206 238 210
f 206 210 208
f 206 208 240
f 206 240 207
f 207 240 208
f 211 220 219
f 213 242 214
f 214 242 243
f 214 243 218
f 215 222 244
f 215 244 216
f 216 245 217
f 216 244 246
f 216 246 245
f 217 245 223
f 223 245 247
f 223 247 224
f 224 247 225
f 225 248 229
f 225 229 228
f 225 228 226
f 225 247 248
f 227 230 229
f 227 229 249
f 227 249 250
f 227 250 233
f 229 251 249
f 229 248 252
f 229 252 253
f 229 253 251
f 236 238 239
f 241 254 255
f 245 246 256
f 245 256 257
f 245 257 247
f 247 257 258
f 247 258 259
f 247 259 260
f 247 260 252
f 247 252 248
f 251 253 261
f 252 255 253
f 253 255 254
f 253 254 261
f 257 259 258

