# https://github.com/mikedh/trimesh
v -0.05047749 0.00021896 -0.04469197
v -0.04240410 0.00021896 -0.06195111
v -0.05276727 0.00021896 -0.04469197
v -0.04696061 -0.01882060 -0.04469197
v -0.03803793 -0.01882060 -0.06195111
v -0.04605652 0.00021896 -0.06195111
v -0.05265192 0.00021896 -0.04642363
v -0.05275862 -0.00105780 -0.04469197
v -0.04925040 -0.01882060 -0.04469197
v -0.04196720 -0.01882060 -0.06195111
v -0.04606661 -0.00028616 -0.06195111
v -0.04663041 0.00021896 -0.06129392
v -0.05260289 0.00021896 -0.04708420
v -0.05257406 -0.00015196 -0.04742208
v -0.05263317 -0.00094597 -0.04651486
v -0.05273123 -0.00318822 -0.04469197
v -0.04914514 -0.01882060 -0.04630706
v -0.05058563 -0.01517299 -0.04469197
v -0.04293041 -0.01882060 -0.06092732
v -0.04203497 -0.01867149 -0.06195111
v -0.04607959 -0.00106899 -0.06195111
v -0.04697359 0.00021896 -0.06089353
v -0.05257550 0.00021896 -0.04743222
v -0.05139744 -0.00108390 -0.05267280
v -0.05129795 -0.00318822 -0.05267280
v -0.05252214 -0.00155546 -0.04731903
v -0.05263029 -0.00318822 -0.04598269
v -0.05260289 -0.00449294 -0.04559919
v -0.05271248 -0.00361319 -0.04469197
v -0.04893029 -0.01882060 -0.04846445
v -0.05053084 -0.01497355 -0.04635943
v -0.05094756 -0.01397078 -0.04469197
v -0.04292176 -0.01659140 -0.06195111
v -0.04253099 -0.01752707 -0.06195111
v -0.04376096 -0.01882060 -0.05999307
v -0.04454970 -0.01581416 -0.06049821
v -0.04361100 -0.01581416 -0.06155071
v -0.04607959 -0.00108390 -0.06195111
v -0.04697359 -0.00108390 -0.06090536
v -0.04762534 0.00021896 -0.06008430
v -0.05140321 0.00021896 -0.05267280
v -0.05079183 -0.00108390 -0.05453961
v -0.05073559 -0.00318822 -0.05441967
v -0.05067214 -0.00529254 -0.05423214
v -0.05116817 -0.00529254 -0.05267280
v -0.05142628 -0.00739687 -0.05056947
v -0.05149549 -0.00949933 -0.04846445
v -0.05138590 -0.01160365 -0.04635943
v -0.05264183 -0.00475947 -0.04469197
v -0.05048037 -0.01480207 -0.04747783
v -0.04924319 -0.01791849 -0.04846445
v -0.04874861 -0.01882060 -0.04954568
v -0.05102109 -0.01370984 -0.04469197
v -0.05088411 -0.01370984 -0.04635943
v -0.04319716 -0.01581416 -0.06195111
v -0.04394409 -0.01882060 -0.05977682
v -0.04399311 -0.01856712 -0.05984778
v -0.04594982 -0.01370984 -0.05963998
v -0.04490009 -0.01370984 -0.06088846
v -0.04485539 -0.01788680 -0.05908078
v -0.04569892 -0.01596886 -0.05894562
v -0.04394986 -0.01370984 -0.06194097
v -0.04392823 -0.01374152 -0.06195111
v -0.04606517 -0.00135975 -0.06195111
v -0.04601326 -0.00318822 -0.06189705
v -0.04690582 -0.00318822 -0.06084454
v -0.04802476 -0.00108390 -0.05958085
v -0.04802620 0.00021896 -0.05957916
v -0.05117250 0.00021896 -0.05338236
v -0.05079183 0.00021896 -0.05452441
v -0.04876879 -0.00108390 -0.05852834
v -0.04870968 -0.00318822 -0.05842697
v -0.04861018 -0.00529254 -0.05827492
v -0.04910477 -0.00739687 -0.05688115
v -0.05058275 -0.00699613 -0.05399731
v -0.05083941 -0.00757766 -0.05286540
v -0.05112347 -0.00949933 -0.05056947
v -0.05110761 -0.01160365 -0.04846445
v -0.05149837 -0.01160365 -0.04469197
v -0.05063033 -0.01365579 -0.04829382
v -0.05054237 -0.01291955 -0.04984302
v -0.04879331 -0.01808064 -0.05070632
v -0.04861018 -0.01882060 -0.05032957
v -0.04435504 -0.01882060 -0.05923789
v -0.04644728 -0.01537056 -0.05821749
v -0.04670395 -0.01370984 -0.05858916
v -0.04614304 -0.01231193 -0.05992549
v -0.04634491 -0.01090842 -0.06014343
v -0.04470255 -0.01882060 -0.05877837
v -0.04620360 -0.01677406 -0.05787960
v -0.04393832 -0.01370984 -0.06195111
v -0.04395995 -0.01363715 -0.06195111
v -0.04595270 -0.00318822 -0.06195111
v -0.04593684 -0.00332428 -0.06195111
v -0.04588060 -0.00529254 -0.06175851
v -0.04679191 -0.00529254 -0.06070600
v -0.04795843 -0.00318822 -0.05947948
v -0.04875870 0.00021896 -0.05852665
v -0.04784452 -0.00529254 -0.05932743
v -0.04771907 -0.00739687 -0.05912471
v -0.04846166 -0.00739687 -0.05807220
v -0.04877745 -0.00931294 -0.05697914
v -0.05042702 -0.00839964 -0.05369321
v -0.04863902 -0.01160365 -0.05633040
v -0.05066638 -0.00949933 -0.05229775
v -0.05053661 -0.01085996 -0.05185174
v -0.05069954 -0.01157942 -0.05055427
v -0.04886108 -0.01594277 -0.05281471
v -0.04858134 -0.01748607 -0.05220652
v -0.04831747 -0.01882060 -0.05142939
v -0.04844724 -0.01292887 -0.05598407
v -0.04801611 -0.01160365 -0.05738291
v -0.04687409 -0.01160738 -0.05912808
v -0.04819779 -0.00988888 -0.05774614
v -0.04837082 -0.00848910 -0.05794211
v -0.04649198 -0.00949933 -0.06033264
v -0.04553021 -0.00949933 -0.06138515
v -0.04474580 -0.01053751 -0.06195111
v -0.04428438 -0.01240698 -0.06195111
v -0.04535574 -0.01882060 -0.05786777
v -0.04599163 -0.01791849 -0.05747921
v -0.04656264 -0.01791849 -0.05642670
v -0.04567008 -0.00529254 -0.06195111
v -0.04559654 -0.00578461 -0.06195111
v -0.04534853 -0.00739687 -0.06195111
v -0.04572199 -0.00739687 -0.06160309
v -0.04666646 -0.00739687 -0.06055058
v -0.04929510 -0.01160365 -0.05477613
v -0.04877889 -0.01366138 -0.05482006
v -0.04950418 -0.01370984 -0.05267280
v -0.04855971 -0.01532955 -0.05414767
v -0.04698657 -0.01882060 -0.05474234
v -0.04747250 -0.01882060 -0.05357326
v -0.04780126 -0.01882060 -0.05276065
v -0.04828719 -0.01882060 -0.05153413
v -0.04495777 -0.00949933 -0.06195111
v -0.04519424 -0.00829340 -0.06195111
v -0.04579409 -0.01882060 -0.05715484
v -0.04639249 -0.01882060 -0.05609726
v -0.04658859 -0.01882060 -0.05566139
f 1 2 6
f 1 6 12
f 1 12 22
f 1 22 40
f 1 40 68
f 1 68 98
f 1 98 70
f 1 70 69
f 1 69 41
f 1 41 23
f 1 23 13
f 1 13 7
f 1 7 3
f 1 3 8
f 1 8 16
f 1 16 29
f 1 29 49
f 1 49 79
f 1 79 53
f 1 53 32
f 1 32 18
f 1 18 9
f 1 9 4
f 1 4 5
f 1 5 2
f 2 5 10
f 2 10 20
f 2 20 34
f 2 34 33
f 2 33 55
f 2 55 63
f 2 63 91
f 2 91 92
f 2 92 119
f 2 119 118
f 2 118 136
f 2 136 137
f 2 137 125
f 2 125 124
f 2 124 123
f 2 123 94
f 2 94 93
f 2 93 64
f 2 64 38
f 2 38 21
f 2 21 11
f 2 11 6
f 3 7 8
f 4 9 17
f 4 17 30
f 4 30 52
f 4 52 83
f 4 83 110
f 4 110 135
f 4 135 134
f 4 134 133
f 4 133 132
f 4 132 140
f 4 140 139
f 4 139 138
f 4 138 120
f 4 120 89
f 4 89 84
f 4 84 56
f 4 56 35
f 4 35 19
f 4 19 10
f 4 10 5
f 6 11 12
f 7 13 14
f 7 14 15
f 7 15 8
f 8 15 16
f 9 18 17
f 10 19 20
f 11 21 12
f 12 21 22
f 13 23 14
f 14 24 25
f 14 25 26
f 14 26 27
f 14 27 15
f 14 23 24
f 15 27 16
f 16 27 28
f 16 28 29
f 17 18 31
f 17 31 30
f 18 32 31
f 19 33 34
f 19 34 20
f 19 35 36
f 19 36 37
f 19 37 33
f 21 38 39
f 21 39 22
f 22 39 40
f 23 41 24
f 24 41 42
f 24 42 43
f 24 43 25
f 25 43 44
f 25 44 45
f 25 45 26
f 26 45 46
f 26 46 28
f 26 28 27
f 28 46 47
f 28 47 48
f 28 48 49
f 28 49 29
f 30 31 50
f 30 50 51
f 30 51 52
f 31 32 53
f 31 53 54
f 31 54 50
f 33 37 55
f 35 56 57
f 35 57 36
f 36 58 59
f 36 59 37
f 36 57 60
f 36 60 61
f 36 61 58
f 37 59 62
f 37 62 63
f 37 63 55
f 38 64 39
f 39 64 65
f 39 65 66
f 39 66 67
f 39 67 40
f 40 67 68
f 41 69 42
f 42 69 70
f 42 70 71
f 42 71 72
f 42 72 43
f 43 72 44
f 44 72 73
f 44 73 74
f 44 74 75
f 44 75 45
f 45 75 76
f 45 76 46
f 46 76 77
f 46 77 47
f 47 77 78
f 47 78 48
f 48 78 50
f 48 50 54
f 48 54 53
f 48 53 79
f 48 79 49
f 50 78 80
f 50 80 81
f 50 81 82
f 50 82 83
f 50 83 52
f 50 52 51
f 56 84 60
f 56 60 57
f 58 61 85
f 58 85 86
f 58 86 87
f 58 87 59
f 59 87 88
f 59 88 62
f 60 84 89
f 60 89 90
f 60 90 61
f 61 90 85
f 62 91 63
f 62 88 92
f 62 92 91
f 64 93 65
f 65 93 94
f 65 94 95
f 65 95 96
f 65 96 66
f 66 97 67
f 66 96 97
f 67 71 68
f 67 97 72
f 67 72 71
f 68 71 98
f 70 98 71
f 72 97 73
f 73 97 99
f 73 99 100
f 73 100 101
f 73 101 74
f 74 101 102
f 74 102 75
f 75 103 76
f 75 102 104
f 75 104 103
f 76 103 105
f 76 105 77
f 77 105 106
f 77 106 107
f 77 107 78
f 78 107 81
f 78 81 80
f 81 107 106
f 81 106 108
f 81 108 109
f 81 109 82
f 82 109 110
f 82 110 83
f 85 111 104
f 85 104 86
f 85 90 111
f 86 104 112
f 86 112 113
f 86 113 87
f 87 113 88
f 88 114 115
f 88 115 116
f 88 116 117
f 88 117 118
f 88 118 119
f 88 119 92
f 88 113 114
f 89 120 90
f 90 120 121
f 90 121 122
f 90 122 111
f 94 123 95
f 95 123 124
f 95 124 125
f 95 125 126
f 95 126 127
f 95 127 96
f 96 99 97
f 96 127 99
f 99 127 100
f 100 127 116
f 100 116 115
f 100 115 101
f 101 115 102
f 102 115 114
f 102 114 104
f 103 104 128
f 103 128 106
f 103 106 105
f 104 111 129
f 104 129 128
f 104 114 112
f 106 128 129
f 106 129 130
f 106 130 108
f 108 130 129
f 108 129 131
f 108 131 109
f 109 132 133
f 109 133 134
f 109 134 135
f 109 135 110
f 109 131 132
f 111 122 131
f 111 131 129
f 112 114 113
f 116 127 126
f 116 126 117
f 117 136 118
f 117 126 137
f 117 137 136
f 120 138 121
f 121 138 139
f 121 139 122
f 122 139 131
f 125 137 126
f 131 139 140
f 131 140 132

