# https://github.com/mikedh/trimesh
v -0.01832434 0.04708830 0.05799309
v -0.02837231 0.04100732 0.05804187
v -0.01993220 0.04513900 0.05800006
v -0.01832434 0.04563121 0.05798612
v -0.01832434 0.04739471 0.05798612
v -0.03257870 0.03677786 0.05802793
v -0.01995497 0.04690901 0.05797915
v -0.03030356 0.04092094 0.05794430
v -0.03251265 0.03883473 0.05800006
v -0.03566688 0.03360291 0.05800702
v -0.03514990 0.03360291 0.05793733
v -0.01832434 0.04529546 0.05788158
v -0.01832434 0.04837425 0.05781189
v -0.03774160 0.03360291 0.05797915
v -0.03671904 0.03360291 0.05799309
v -0.02152639 0.04648036 0.05788855
v -0.02948824 0.04210095 0.05783279
v -0.02837231 0.04238781 0.05789552
v -0.01877982 0.04831395 0.05777704
v -0.03176566 0.04016306 0.05789552
v -0.03388366 0.03808826 0.05789552
v -0.03600166 0.03599553 0.05789552
v -0.03823808 0.03360291 0.05790946
v -0.03455094 0.03360291 0.05777704
v -0.01832434 0.04460766 0.05751919
v -0.01832434 0.04870837 0.05730314
v -0.02292928 0.04610387 0.05775613
v -0.02680317 0.04385956 0.05770038
v -0.02837231 0.04344069 0.05723345
v -0.02837231 0.04452128 0.05618112
v -0.03088885 0.04156636 0.05741465
v -0.01995497 0.04863992 0.05625777
v -0.02541166 0.04635487 0.05592325
v -0.03316855 0.03949156 0.05752616
v -0.03528655 0.03739720 0.05757494
v -0.03740455 0.03530284 0.05759585
v -0.03808094 0.03390117 0.05788855
v -0.03861385 0.03360291 0.05775613
v -0.03408407 0.03360291 0.05751919
v -0.01832434 0.04356782 0.05645988
v -0.01832434 0.04893655 0.05682924
v -0.02945864 0.04418716 0.05574903
v -0.03017374 0.04288328 0.05658532
v -0.03178615 0.04226231 0.05601385
v -0.03247621 0.04092420 0.05676652
v -0.01832434 0.04961131 0.05497545
v -0.02105496 0.04839381 0.05576993
v -0.02563941 0.04647711 0.05465488
v -0.02669157 0.04591318 0.05465488
v -0.03680559 0.03680883 0.05688499
v -0.03400664 0.04028367 0.05611839
v -0.03620662 0.03826591 0.05617415
v -0.03929253 0.03360291 0.05733102
v -0.03826085 0.03621882 0.05618808
v -0.03295903 0.03360291 0.05648078
v -0.03226214 0.03360291 0.05553298
v -0.01832434 0.04329726 0.05586053
v -0.02837231 0.04493363 0.05465488
v -0.02952468 0.04423443 0.05465488
v -0.03057685 0.04346188 0.05465488
v -0.03197063 0.04240899 0.05465488
v -0.03302507 0.04154680 0.05465488
v -0.03424804 0.04049555 0.05465488
v -0.03530021 0.03957305 0.05465488
v -0.01832434 0.04973029 0.05450155
v -0.01995497 0.04904575 0.05465488
v -0.02124171 0.04847693 0.05465488
v -0.02157422 0.04862525 0.05255020
v -0.02178374 0.04872304 0.05044552
v -0.02580110 0.04658794 0.05255020
v -0.03647536 0.03852017 0.05465488
v -0.03752753 0.03753737 0.05465488
v -0.04028320 0.03402667 0.05613930
v -0.04044262 0.03360291 0.05629958
v -0.03851137 0.03648612 0.05465488
v -0.03195241 0.03360291 0.05496151
v -0.01832434 0.04286861 0.05465488
v -0.02959756 0.04428332 0.05255020
v -0.03064745 0.04353685 0.05255020
v -0.03207767 0.04248397 0.05255020
v -0.03312983 0.04163971 0.05255020
v -0.03435508 0.04058682 0.05255020
v -0.03540725 0.03966106 0.05255020
v -0.01832434 0.04993076 0.05255020
v -0.01832434 0.05001388 0.05044552
v -0.02184978 0.04875726 0.04834085
v -0.02584665 0.04663194 0.05044552
v -0.03653229 0.03860818 0.05255020
v -0.03758446 0.03759442 0.05255020
v -0.03858880 0.03654153 0.05255020
v -0.03956354 0.03531425 0.05465488
v -0.04047678 0.03426300 0.05465488
v -0.04100514 0.03360291 0.05465488
v -0.04077285 0.03360291 0.05555389
v -0.03964097 0.03539738 0.05255020
v -0.03171783 0.03360291 0.05444580
v -0.03148098 0.03360291 0.05371404
v -0.01832434 0.04245300 0.05235507
v -0.02964083 0.04431266 0.05044552
v -0.03069072 0.04357597 0.05044552
v -0.03213916 0.04252471 0.05044552
v -0.03319132 0.04169675 0.05044552
v -0.03443252 0.04064387 0.05044552
v -0.03548468 0.03971811 0.05044552
v -0.01832434 0.05019805 0.04011728
v -0.02189305 0.04877683 0.04623617
v -0.02967499 0.04433711 0.04834085
v -0.02603795 0.04673788 0.03992214
v -0.03656873 0.03866523 0.05044552
v -0.03762090 0.03763353 0.05044552
v -0.03863435 0.03658228 0.05044552
v -0.03968652 0.03545279 0.05044552
v -0.04052233 0.03434449 0.05255020
v -0.04110079 0.03360291 0.05255020
v -0.03129423 0.03360291 0.05255020
v -0.01832434 0.04130559 0.04361578
v -0.01832434 0.04178802 0.04795058
v -0.01832434 0.04183529 0.04834085
v -0.01832434 0.04214007 0.05044552
v -0.03072488 0.04359553 0.04834085
v -0.03075221 0.04361346 0.04623617
v -0.03080231 0.04364931 0.04202682
v -0.03216193 0.04254427 0.04834085
v -0.03323915 0.04173749 0.04623617
v -0.03446895 0.04066669 0.04834085
v -0.03552112 0.03974093 0.04834085
v -0.01832434 0.05020132 0.03992214
v -0.02192949 0.04878986 0.04413149
v -0.01832434 0.05022576 0.03807532
v -0.02970232 0.04435667 0.04623617
v -0.02606528 0.04674929 0.03781747
v -0.02975242 0.04438763 0.04202682
v -0.02972737 0.04437296 0.04413149
v -0.03764367 0.03765961 0.04834085
v -0.03766645 0.03768243 0.04623617
v -0.03768467 0.03770035 0.04413149
v -0.04058837 0.03441620 0.04834085
v -0.04055649 0.03440153 0.05044552
v -0.03769833 0.03771502 0.04202682
v -0.03975029 0.03556851 0.03571279
v -0.04066353 0.03449770 0.03781747
v -0.04065442 0.03447814 0.03992214
v -0.04064303 0.03445695 0.04202682
v -0.04118278 0.03360291 0.05044552
v -0.04114862 0.03360291 0.05133757
v -0.03036049 0.03360291 0.04623617
v -0.01832434 0.04014024 0.03222126
v -0.01832434 0.04114097 0.04206863
v -0.03082281 0.04366561 0.03992214
v -0.03223025 0.04259643 0.04202682
v -0.03218698 0.04256057 0.04623617
v -0.03325964 0.04175543 0.04413149
v -0.03448945 0.04068461 0.04623617
v -0.03450539 0.04070417 0.04413149
v -0.03554162 0.03975071 0.04623617
v -0.02195682 0.04880127 0.04202682
v -0.01832434 0.05022902 0.03781747
v -0.02608350 0.04675744 0.03571279
v -0.02983896 0.04444468 0.03150344
v -0.02982530 0.04443327 0.03360811
v -0.02979114 0.04441045 0.03781747
v -0.02977292 0.04439904 0.03992214
v -0.02197960 0.04881268 0.03992214
v -0.02416364 0.04782336 0.02729408
v -0.03084103 0.04368028 0.03781747
v -0.04131943 0.03360291 0.04413149
v -0.04130804 0.03360291 0.04486325
v -0.04127160 0.03360291 0.04700277
v -0.04135131 0.03360291 0.04202682
v -0.04124199 0.03360291 0.04834085
v -0.04122378 0.03360291 0.04914926
v -0.03555756 0.03976049 0.04413149
v -0.03771200 0.03772480 0.03992214
v -0.03975940 0.03558155 0.03360811
v -0.04067037 0.03451562 0.03571279
v -0.04137636 0.03360291 0.03992214
v -0.02944042 0.03360291 0.03982457
v -0.02879818 0.03360291 0.03511345
v -0.01832434 0.04007831 0.03150344
v -0.03224847 0.04261273 0.03992214
v -0.03328242 0.04177009 0.04202682
v -0.03330064 0.04177824 0.03992214
v -0.03451678 0.04071721 0.04202682
v -0.02200009 0.04882246 0.03781747
v -0.01832434 0.05023880 0.03571279
v -0.02203425 0.04885343 0.03150344
v -0.02202287 0.04884528 0.03360811
v -0.02201376 0.04883387 0.03571279
v -0.02610172 0.04676396 0.03360811
v -0.03088885 0.04370473 0.03150344
v -0.03085925 0.04369006 0.03571279
v -0.02611311 0.04677211 0.03150344
v -0.02984807 0.04445120 0.02939876
v -0.03090480 0.04372102 0.02729408
v -0.03089796 0.04371288 0.02939876
v -0.02310919 0.04836773 0.02603964
v -0.02395639 0.04794560 0.02528001
v -0.03226441 0.04262740 0.03781747
v -0.03562133 0.03982568 0.03150344
v -0.03564410 0.03985013 0.02518941
v -0.03776665 0.03777859 0.02518941
v -0.04067720 0.03452866 0.03360811
v -0.03781220 0.03782259 0.01256832
v -0.03976623 0.03558970 0.03150344
v -0.04141508 0.03360291 0.03571279
v -0.04139686 0.03360291 0.03781747
v -0.02859777 0.03360291 0.03360811
v -0.01832434 0.03992021 0.02939876
v -0.03331658 0.04178476 0.03781747
v -0.03336669 0.04181247 0.02939876
v -0.03452589 0.04072699 0.03992214
v -0.01832434 0.05024695 0.02974025
v -0.02204336 0.04885832 0.02939876
v -0.02311603 0.04837262 0.02463885
v -0.03231452 0.04266162 0.02939876
v -0.03228946 0.04264532 0.03360811
v -0.03087519 0.04369658 0.03360811
v -0.02612222 0.04677863 0.02939876
v -0.02612905 0.04678514 0.02729408
v -0.02985491 0.04445609 0.02729408
v -0.03091163 0.04372755 0.02518941
v -0.03232363 0.04266977 0.02729408
v -0.02312058 0.04837588 0.02308473
v -0.02312741 0.04837914 0.02098703
v -0.02313425 0.04838240 0.01888235
v -0.02417275 0.04784292 0.02308473
v -0.03456916 0.04075307 0.03150344
v -0.03457599 0.04076121 0.02939876
v -0.03337580 0.04181573 0.02729408
v -0.03568737 0.03991695 -0.00216441
v -0.03782359 0.03783400 0.00835897
v -0.03781904 0.03782911 0.01046365
v -0.03777349 0.03778674 0.02308473
v -0.04068403 0.03453681 0.03150344
v -0.04144241 0.03360291 0.03150344
v -0.03977078 0.03559622 0.02939876
v -0.04069769 0.03454822 0.02729408
v -0.04069086 0.03454333 0.02939876
v -0.02849529 0.03360291 0.03270213
v -0.01832434 0.03983220 0.02729408
v -0.02836320 0.03360291 0.03150344
v -0.02816278 0.03360291 0.02939876
v -0.02801020 0.03360291 0.02729408
v -0.01832434 0.05025184 -0.00390669
v -0.02205931 0.04886647 0.00625430
v -0.02613133 0.04679004 0.02518941
v -0.02986174 0.04445772 0.02518941
v -0.03092302 0.04374059 0.01677767
v -0.03092757 0.04374221 0.01467300
v -0.03233957 0.04269096 0.01256832
v -0.02313652 0.04838403 0.01256832
v -0.02613133 0.04679004 0.02308473
v -0.02313425 0.04838403 0.01046365
v -0.02417047 0.04782988 0.00204494
v -0.02612677 0.04678678 -0.00426909
v -0.03234868 0.04269096 0.00835897
v -0.03340085 0.04182877 0.00835897
v -0.03340312 0.04182877 0.00625430
v -0.03338946 0.04183855 -0.00216441
v -0.03338718 0.04183529 -0.00426909
v -0.03337124 0.04181084 -0.01315472
v -0.03567599 0.03988436 -0.01058311
v -0.03782131 0.03783074 -0.01058311
v -0.03678053 0.03886407 -0.00216441
v -0.03783042 0.03784052 0.00414962
v -0.03984821 0.03562718 -0.00216441
v -0.03979128 0.03561740 0.01888235
v -0.03978445 0.03560926 0.02308473
v -0.03977989 0.03560600 0.02518941
v -0.04145152 0.03360291 0.02997720
v -0.04148112 0.03360291 0.02363529
v -0.04146290 0.03360291 0.02786555
v -0.04070453 0.03455637 0.02308473
v -0.04158361 0.03360291 -0.00426909
v -0.02796465 0.03360291 0.02518941
v -0.01832434 0.03982242 0.02518941
v -0.01832434 0.05025184 -0.00426909
v -0.02205931 0.04886647 0.00414962
v -0.02988907 0.04447565 0.00414962
v -0.02988679 0.04447402 0.00835897
v -0.02988451 0.04447239 0.01046365
v -0.03093440 0.04374384 0.01046365
v -0.03093212 0.04374221 0.01256832
v -0.02205931 0.04886484 0.00204494
v -0.02311830 0.04837425 0.00204494
v -0.02395412 0.04794071 -0.00010155
v -0.02612222 0.04678351 -0.00637376
v -0.02987540 0.04447076 -0.00847844
v -0.02987996 0.04447239 -0.00637376
v -0.02988223 0.04447402 -0.00426909
v -0.02988679 0.04447565 -0.00005973
v -0.03235096 0.04269259 0.00625430
v -0.03234868 0.04269259 0.00414962
v -0.03233501 0.04268933 -0.00426909
v -0.03233046 0.04268770 -0.00637376
v -0.03232363 0.04267140 -0.01058311
v -0.03255365 0.04247093 -0.01315472
v -0.03566232 0.03986969 -0.01315472
v -0.03566688 0.03987457 -0.01268082
v -0.03232591 0.04268118 -0.00847844
v -0.03781448 0.03782422 -0.01268082
v -0.03980495 0.03562881 -0.01268082
v -0.03981178 0.03563370 -0.01058311
v -0.03983227 0.03564348 -0.00426909
v -0.03879605 0.03679090 -0.00216441
v -0.03783270 0.03784215 -0.00216441
v -0.03783270 0.03784215 -0.00005973
v -0.04075690 0.03459549 -0.00637376
v -0.04070680 0.03456126 0.02098703
v -0.04158816 0.03360291 -0.00637376
v -0.02800564 0.03360291 0.02380255
v -0.01832434 0.03984361 0.02098703
v -0.01832434 0.03982079 0.02278506
v -0.01832434 0.05025021 -0.00601834
v -0.03093896 0.04374547 0.00414962
v -0.03093668 0.04374384 0.00835897
v -0.02205020 0.04885832 -0.00216441
v -0.02311375 0.04837262 0.00057446
v -0.02310919 0.04836773 -0.00082634
v -0.02416364 0.04782173 -0.00216441
v -0.02611311 0.04677537 -0.00847844
v -0.03092529 0.04373406 -0.00847844
v -0.03092985 0.04374059 -0.00637376
v -0.02986174 0.04446261 -0.01058311
v -0.03093212 0.04374221 -0.00426909
v -0.03093668 0.04374384 -0.00005973
v -0.03093668 0.04374547 0.00204494
v -0.03231907 0.04265673 -0.01315472
v -0.03780993 0.03782096 -0.01315472
v -0.03980267 0.03562555 -0.01315472
v -0.04071591 0.03457430 -0.01315472
v -0.04152439 0.03360291 -0.01315472
v -0.02802842 0.03360291 0.02308473
v -0.02809446 0.03360291 0.02176757
v -0.02828804 0.03360291 0.01987197
v -0.01832434 0.03987132 0.02058282
v -0.01832434 0.05024043 -0.00815089
v -0.02200692 0.04884854 -0.01058311
v -0.02201831 0.04885180 -0.00847844
v -0.02199781 0.04884202 -0.01268082
v -0.02199554 0.04884039 -0.01315472
v -0.02609717 0.04676722 -0.01058311
v -0.03091163 0.04372265 -0.01058311
v -0.02607212 0.04675581 -0.01315472
v -0.02983896 0.04444631 -0.01315472
v -0.03088885 0.04370962 -0.01315472
v -0.03843166 0.03360291 -0.01315472
v -0.02840419 0.03360291 0.01888235
v -0.01832434 0.04001637 0.01888235
v -0.01832434 0.05023717 -0.00847844
v -0.01832434 0.05021435 -0.01058311
v -0.01832434 0.05017687 -0.01315472
v -0.01832434 0.04786900 -0.01315472
v -0.03308884 0.03360291 -0.00562110
v -0.02872531 0.03360291 0.01677767
v -0.03240106 0.03360291 -0.00426909
v -0.01890736 0.04206836 0.00102048
v -0.01832434 0.04243018 0.00155710
f 1 2 3
f 1 3 4
f 1 4 12
f 1 12 25
f 1 25 40
f 1 40 57
f 1 57 77
f 1 77 98
f 1 98 119
f 1 119 118
f 1 118 117
f 1 117 116
f 1 116 148
f 1 148 147
f 1 147 179
f 1 179 208
f 1 208 240
f 1 240 276
f 1 276 313
f 1 313 312
f 1 312 336
f 1 336 349
f 1 349 358
f 1 358 353
f 1 353 352
f 1 352 351
f 1 351 350
f 1 350 337
f 1 337 314
f 1 314 277
f 1 277 244
f 1 244 212
f 1 212 185
f 1 185 157
f 1 157 129
f 1 129 127
f 1 127 105
f 1 105 85
f 1 85 84
f 1 84 65
f 1 65 46
f 1 46 41
f 1 41 26
f 1 26 13
f 1 13 5
f 1 5 2
f 2 6 3
f 2 5 7
f 2 7 8
f 2 8 9
f 2 9 6
f 3 6 4
f 4 6 10
f 4 10 11
f 4 11 12
f 5 13 7
f 6 9 14
f 6 14 15
f 6 15 10
f 7 16 17
f 7 17 18
f 7 18 8
f 7 13 19
f 7 19 16
f 8 18 17
f 8 17 20
f 8 20 9
f 9 20 21
f 9 21 22
f 9 22 23
f 9 23 14
f 10 15 14
f 10 14 23
f 10 23 38
f 10 38 53
f 10 53 74
f 10 74 94
f 10 94 93
f 10 93 114
f 10 114 145
f 10 145 144
f 10 144 171
f 10 171 170
f 10 170 168
f 10 168 167
f 10 167 166
f 10 166 169
f 10 169 176
f 10 176 206
f 10 206 205
f 10 205 235
f 10 235 270
f 10 270 272
f 10 272 271
f 10 271 274
f 10 274 310
f 10 310 332
f 10 332 347
f 10 347 354
f 10 354 356
f 10 356 355
f 10 355 348
f 10 348 335
f 10 335 334
f 10 334 333
f 10 333 311
f 10 311 275
f 10 275 243
f 10 243 242
f 10 242 241
f 10 241 239
f 10 239 207
f 10 207 178
f 10 178 177
f 10 177 146
f 10 146 115
f 10 115 97
f 10 97 96
f 10 96 76
f 10 76 56
f 10 56 55
f 10 55 39
f 10 39 24
f 10 24 11
f 11 24 12
f 12 24 25
f 13 26 19
f 16 19 27
f 16 27 17
f 17 27 28
f 17 28 29
f 17 29 30
f 17 30 31
f 17 31 20
f 19 26 32
f 19 32 33
f 19 33 27
f 20 31 34
f 20 34 35
f 20 35 36
f 20 36 21
f 21 36 22
f 22 36 37
f 22 37 23
f 23 37 38
f 24 39 25
f 25 39 40
f 26 41 32
f 27 29 28
f 27 33 30
f 27 30 29
f 30 33 42
f 30 42 43
f 30 43 31
f 31 43 44
f 31 44 45
f 31 45 34
f 32 46 47
f 32 47 33
f 32 41 46
f 33 47 48
f 33 48 49
f 33 49 42
f 34 50 35
f 34 45 51
f 34 51 52
f 34 52 50
f 35 50 36
f 36 53 38
f 36 38 37
f 36 50 54
f 36 54 53
f 39 55 40
f 40 55 56
f 40 56 57
f 42 44 43
f 42 49 58
f 42 58 59
f 42 59 60
f 42 60 61
f 42 61 44
f 44 51 45
f 44 61 62
f 44 62 63
f 44 63 64
f 44 64 51
f 46 65 47
f 47 65 66
f 47 66 67
f 47 67 48
f 48 67 68
f 48 68 69
f 48 69 70
f 48 70 49
f 49 70 58
f 50 52 54
f 51 64 71
f 51 71 52
f 52 71 72
f 52 72 54
f 53 54 73
f 53 73 74
f 54 72 75
f 54 75 73
f 56 76 57
f 57 76 77
f 58 70 59
f 59 70 78
f 59 78 79
f 59 79 60
f 60 79 80
f 60 80 61
f 61 80 81
f 61 81 62
f 62 81 82
f 62 82 63
f 63 82 64
f 64 82 83
f 64 83 71
f 65 84 68
f 65 68 66
f 66 68 67
f 68 84 69
f 69 84 85
f 69 85 86
f 69 86 70
f 70 86 87
f 70 87 78
f 71 83 72
f 72 83 88
f 72 88 89
f 72 89 90
f 72 90 75
f 73 75 91
f 73 91 92
f 73 92 93
f 73 93 94
f 73 94 74
f 75 90 95
f 75 95 91
f 76 96 77
f 77 96 97
f 77 97 98
f 78 87 99
f 78 99 100
f 78 100 79
f 79 100 101
f 79 101 80
f 80 101 102
f 80 102 81
f 81 102 103
f 81 103 82
f 82 103 104
f 82 104 83
f 83 104 88
f 85 105 86
f 86 106 87
f 86 105 106
f 87 107 99
f 87 106 108
f 87 108 107
f 88 104 89
f 89 104 109
f 89 109 110
f 89 110 111
f 89 111 90
f 90 111 112
f 90 112 95
f 91 95 92
f 92 95 113
f 92 113 93
f 93 113 114
f 95 112 113
f 97 115 116
f 97 116 117
f 97 117 118
f 97 118 119
f 97 119 98
f 99 107 100
f 100 107 120
f 100 120 101
f 101 120 121
f 101 121 122
f 101 122 123
f 101 123 124
f 101 124 102
f 102 124 125
f 102 125 103
f 103 125 126
f 103 126 104
f 104 126 109
f 105 127 106
f 106 128 108
f 106 127 129
f 106 129 128
f 107 130 120
f 107 108 130
f 108 131 132
f 108 132 133
f 108 133 130
f 108 128 156
f 108 156 131
f 109 126 110
f 110 126 134
f 110 134 111
f 111 134 135
f 111 135 136
f 111 136 112
f 112 137 138
f 112 138 113
f 112 136 139
f 112 139 140
f 112 140 141
f 112 141 142
f 112 142 143
f 112 143 137
f 113 138 144
f 113 144 145
f 113 145 114
f 115 146 147
f 115 147 148
f 115 148 116
f 120 130 121
f 121 130 122
f 122 133 132
f 122 132 149
f 122 149 150
f 122 150 151
f 122 151 123
f 122 130 133
f 123 151 124
f 124 151 150
f 124 150 152
f 124 152 153
f 124 153 125
f 125 153 126
f 126 153 154
f 126 154 155
f 126 155 136
f 126 136 135
f 126 135 134
f 128 129 157
f 128 157 156
f 131 158 159
f 131 159 160
f 131 160 161
f 131 161 162
f 131 162 132
f 131 156 163
f 131 163 164
f 131 164 158
f 132 162 165
f 132 165 149
f 136 155 139
f 137 166 167
f 137 167 168
f 137 168 138
f 137 143 169
f 137 169 166
f 138 168 170
f 138 170 171
f 138 171 144
f 139 155 172
f 139 172 173
f 139 173 140
f 140 173 174
f 140 174 175
f 140 175 141
f 141 176 169
f 141 169 142
f 141 175 176
f 142 169 143
f 146 177 147
f 147 177 178
f 147 178 179
f 149 165 180
f 149 180 150
f 150 180 181
f 150 181 152
f 152 181 153
f 153 181 154
f 154 181 182
f 154 182 183
f 154 183 172
f 154 172 155
f 156 157 163
f 157 184 163
f 157 185 186
f 157 186 187
f 157 187 188
f 157 188 184
f 158 189 159
f 158 164 189
f 159 190 191
f 159 191 160
f 159 189 192
f 159 192 218
f 159 218 193
f 159 193 194
f 159 194 195
f 159 195 190
f 160 191 165
f 160 165 161
f 161 165 162
f 163 184 164
f 164 196 197
f 164 197 192
f 164 192 189
f 164 184 196
f 165 198 180
f 165 191 198
f 172 183 199
f 172 199 173
f 173 199 200
f 173 200 201
f 173 201 174
f 174 202 175
f 174 201 203
f 174 203 204
f 174 204 234
f 174 234 202
f 175 202 205
f 175 205 206
f 175 206 176
f 178 207 179
f 179 207 208
f 180 198 181
f 181 198 182
f 182 198 209
f 182 209 183
f 183 209 210
f 183 210 211
f 183 211 199
f 184 188 196
f 185 212 213
f 185 213 186
f 186 213 214
f 186 214 196
f 186 196 187
f 187 196 188
f 190 195 222
f 190 222 215
f 190 215 216
f 190 216 198
f 190 198 217
f 190 217 191
f 191 217 198
f 192 197 218
f 193 218 219
f 193 219 220
f 193 220 221
f 193 221 194
f 194 221 222
f 194 222 195
f 196 214 197
f 197 214 223
f 197 223 224
f 197 224 225
f 197 225 226
f 197 226 218
f 198 216 209
f 199 211 227
f 199 227 200
f 200 227 228
f 200 228 229
f 200 229 230
f 200 230 231
f 200 231 232
f 200 232 203
f 200 203 233
f 200 233 201
f 201 233 203
f 202 234 235
f 202 235 205
f 203 232 204
f 204 236 237
f 204 237 238
f 204 238 234
f 204 232 236
f 207 239 208
f 208 239 241
f 208 241 242
f 208 242 243
f 208 243 240
f 209 216 215
f 209 215 210
f 210 215 222
f 210 222 229
f 210 229 228
f 210 228 227
f 210 227 211
f 212 244 245
f 212 245 213
f 213 223 214
f 213 245 225
f 213 225 224
f 213 224 223
f 218 226 219
f 219 226 246
f 219 246 220
f 220 246 247
f 220 247 221
f 221 247 248
f 221 248 222
f 222 248 249
f 222 249 250
f 222 250 229
f 225 245 251
f 225 251 226
f 226 252 246
f 226 251 253
f 226 253 254
f 226 254 255
f 226 255 252
f 229 250 256
f 229 256 257
f 229 257 230
f 230 257 258
f 230 258 259
f 230 259 260
f 230 260 261
f 230 261 262
f 230 262 263
f 230 263 264
f 230 264 265
f 230 265 231
f 231 265 266
f 231 266 267
f 231 267 268
f 231 268 269
f 231 269 236
f 231 236 232
f 234 238 270
f 234 270 235
f 236 269 237
f 237 271 272
f 237 272 238
f 237 269 268
f 237 268 267
f 237 267 273
f 237 273 274
f 237 274 271
f 238 272 270
f 240 243 275
f 240 275 276
f 244 277 278
f 244 278 245
f 245 278 251
f 246 252 279
f 246 279 280
f 246 280 281
f 246 281 247
f 247 281 249
f 247 249 248
f 249 281 280
f 249 280 282
f 249 282 283
f 249 283 256
f 249 256 250
f 251 278 253
f 252 255 279
f 253 278 284
f 253 284 285
f 253 285 286
f 253 286 254
f 254 286 255
f 255 286 287
f 255 287 288
f 255 288 289
f 255 289 290
f 255 290 291
f 255 291 279
f 256 292 257
f 256 283 282
f 256 282 292
f 257 292 258
f 258 292 259
f 259 293 294
f 259 294 260
f 259 292 293
f 260 294 295
f 260 295 261
f 261 296 297
f 261 297 328
f 261 328 346
f 261 346 345
f 261 345 344
f 261 344 341
f 261 341 352
f 261 352 353
f 261 353 347
f 261 347 332
f 261 332 331
f 261 331 330
f 261 330 329
f 261 329 298
f 261 298 299
f 261 299 262
f 261 295 300
f 261 300 296
f 262 299 301
f 262 301 263
f 263 301 302
f 263 302 303
f 263 303 304
f 263 304 305
f 263 305 306
f 263 306 264
f 264 306 307
f 264 307 265
f 265 307 305
f 265 305 266
f 266 305 304
f 266 304 308
f 266 308 309
f 266 309 267
f 267 309 273
f 273 309 274
f 274 309 308
f 274 308 310
f 275 311 312
f 275 312 313
f 275 313 276
f 277 314 284
f 277 284 278
f 279 291 315
f 279 315 282
f 279 282 280
f 282 315 316
f 282 316 292
f 284 314 317
f 284 317 318
f 284 318 285
f 285 318 286
f 286 318 319
f 286 319 320
f 286 320 287
f 287 321 288
f 287 320 321
f 288 322 323
f 288 323 289
f 288 321 324
f 288 324 322
f 289 323 325
f 289 325 290
f 290 325 326
f 290 326 291
f 291 326 327
f 291 327 315
f 292 316 315
f 292 315 326
f 292 326 293
f 293 326 325
f 293 325 323
f 293 323 294
f 294 323 295
f 295 323 322
f 295 322 300
f 296 328 297
f 296 300 322
f 296 322 328
f 298 329 299
f 299 329 301
f 301 329 330
f 301 330 302
f 302 330 331
f 302 331 308
f 302 308 303
f 303 308 304
f 305 307 306
f 308 331 310
f 310 331 332
f 311 333 312
f 312 333 334
f 312 334 335
f 312 335 336
f 314 337 338
f 314 338 339
f 314 339 317
f 315 327 326
f 317 339 318
f 318 339 338
f 318 338 319
f 319 338 340
f 319 340 341
f 319 341 320
f 320 341 342
f 320 342 321
f 321 342 324
f 322 324 343
f 322 343 328
f 324 342 344
f 324 344 345
f 324 345 346
f 324 346 343
f 328 343 346
f 335 348 336
f 336 348 349
f 337 350 341
f 337 341 340
f 337 340 338
f 341 350 351
f 341 351 352
f 341 344 342
f 347 353 354
f 348 355 349
f 349 355 356
f 349 356 357
f 349 357 358
f 353 356 354
f 353 358 357
f 353 357 356

