# https://github.com/mikedh/trimesh
v -0.04944858 0.00022082 -0.05712163
v -0.04875896 0.00022082 -0.05852864
v -0.04690950 0.00022082 -0.05712163
v -0.04944121 0.00090625 -0.05712163
v -0.04875158 0.00102246 -0.05852746
v -0.04802508 0.00102246 -0.05957975
v -0.04802508 0.00022082 -0.05958094
v -0.03061288 0.00022082 -0.06655668
v -0.04226649 0.02034254 -0.05712163
v -0.04943936 0.00102246 -0.05712163
v -0.04867598 0.00312602 -0.05845865
v -0.04800479 0.00312602 -0.05951094
v -0.04695376 0.00312602 -0.06083966
v -0.04697404 0.00102246 -0.06088592
v -0.04697404 0.00022082 -0.06089423
v -0.04762494 0.00022082 -0.06008514
v -0.03061288 0.00022082 -0.06904802
v -0.03061288 0.02034254 -0.06518645
v -0.04520756 0.02034254 -0.05712163
v -0.04932320 0.00312602 -0.05712163
v -0.04921256 0.00491050 -0.05712163
v -0.04918859 0.00523155 -0.05712163
v -0.04858563 0.00523155 -0.05831985
v -0.04792550 0.00523155 -0.05937214
v -0.04687262 0.00523155 -0.06077204
v -0.04594697 0.00523155 -0.06182433
v -0.04601335 0.00312602 -0.06189195
v -0.04605761 0.00102246 -0.06193822
v -0.04663107 0.00022082 -0.06129522
v -0.03258219 0.00022082 -0.06924140
v -0.03061288 0.00027400 -0.06904921
v -0.03061288 0.02034254 -0.06767067
v -0.04444970 0.02034254 -0.05834002
v -0.04578839 0.01903077 -0.05712163
v -0.04903370 0.00698452 -0.05712163
v -0.04899498 0.00733512 -0.05712163
v -0.04846577 0.00733512 -0.05810393
v -0.04777983 0.00733512 -0.05915622
v -0.04672695 0.00733512 -0.06062612
v -0.04579577 0.00733512 -0.06167841
v -0.04474289 0.00733512 -0.06262986
v -0.04489409 0.00523155 -0.06276748
v -0.04496047 0.00312602 -0.06282798
v -0.04500473 0.00102246 -0.06284697
v -0.04606314 0.00022082 -0.06194652
v -0.03372174 0.00022082 -0.06895311
v -0.03442243 0.00102246 -0.06877160
v -0.03258219 0.00102246 -0.06923666
v -0.03061288 0.01153633 -0.06922716
v -0.03061288 0.00944065 -0.06922598
v -0.03061288 0.00733512 -0.06919750
v -0.03061288 0.01785687 -0.06843705
v -0.03074565 0.02034254 -0.06762559
v -0.04388915 0.02034254 -0.05907674
v -0.04373426 0.01996043 -0.05950382
v -0.04453268 0.01996043 -0.05845153
v -0.04625491 0.01679918 -0.05793191
v -0.04603364 0.01785687 -0.05755821
v -0.04613136 0.01823701 -0.05712163
v -0.04873314 0.00919051 -0.05712163
v -0.04838648 0.00851098 -0.05797106
v -0.04656837 0.00944065 -0.06041732
v -0.04557450 0.00944065 -0.06146961
v -0.04418786 0.01269447 -0.06217430
v -0.04430772 0.01154224 -0.06227752
v -0.04338760 0.00733512 -0.06368097
v -0.04354618 0.00523155 -0.06381859
v -0.04361625 0.00312602 -0.06387909
v -0.04363838 0.00102246 -0.06389807
v -0.04364575 0.00022082 -0.06390045
v -0.04449211 0.00022082 -0.06324914
v -0.04501026 0.00022082 -0.06284934
v -0.03441506 0.00022082 -0.06877279
v -0.03865793 0.00022082 -0.06670379
v -0.03865977 0.00102246 -0.06669667
v -0.03432839 0.00312602 -0.06874907
v -0.03258219 0.00733512 -0.06914886
v -0.03258219 0.00523155 -0.06919513
v -0.03061288 0.01364777 -0.06918327
v -0.03061288 0.01601527 -0.06889617
v -0.03147031 0.01669085 -0.06839197
v -0.03448697 0.02034254 -0.06611062
v -0.03296389 0.02034254 -0.06674887
v -0.04362547 0.02034254 -0.05941722
v -0.04401085 0.01857381 -0.05987871
v -0.04259840 0.02034254 -0.06064391
v -0.04647433 0.01739991 -0.05712163
v -0.04429850 0.01717144 -0.06020259
v -0.04574414 0.01595815 -0.05895811
v -0.04596357 0.01364777 -0.05967348
v -0.04616271 0.01240297 -0.05994989
v -0.04641164 0.01099862 -0.06022157
v -0.04645774 0.01539680 -0.05823680
v -0.04817259 0.01154224 -0.05712163
v -0.04691872 0.01594436 -0.05712163
v -0.04690581 0.01598966 -0.05712163
v -0.04839386 0.01063818 -0.05712163
v -0.04819287 0.00991336 -0.05774565
v -0.04158240 0.01364777 -0.06388977
v -0.04189034 0.01154224 -0.06409738
v -0.04203047 0.01040183 -0.06421601
v -0.04477976 0.01349611 -0.06116234
v -0.04456587 0.01575134 -0.06051460
v -0.04392787 0.01409685 -0.06191212
v -0.04227756 0.01735855 -0.06235226
v -0.04257627 0.01575134 -0.06259546
v -0.04121730 0.01575134 -0.06364657
v -0.04296534 0.00959822 -0.06363470
v -0.04217430 0.00900142 -0.06433346
v -0.04233657 0.00733512 -0.06443667
v -0.04249514 0.00523155 -0.06453040
v -0.04256337 0.00312602 -0.06457548
v -0.04258549 0.00102246 -0.06459565
v -0.04259471 0.00022082 -0.06459802
v -0.03962599 0.00312602 -0.06610231
v -0.03936600 0.00733512 -0.06603469
v -0.03857311 0.00312602 -0.06663854
v -0.03405180 0.00733512 -0.06865890
v -0.03258219 0.00944065 -0.06901243
v -0.03212306 0.01364777 -0.06874195
v -0.03061288 0.01540665 -0.06897566
v -0.03061288 0.01589118 -0.06891515
v -0.03065161 0.01589315 -0.06890684
v -0.03179853 0.01528650 -0.06859246
v -0.03402968 0.01960196 -0.06650449
v -0.03471378 0.02016724 -0.06604893
v -0.03679004 0.01996043 -0.06512239
v -0.03678635 0.02034254 -0.06502273
v -0.03578325 0.01689569 -0.06636924
v -0.04268138 0.01996043 -0.06073645
v -0.04184793 0.02034254 -0.06144707
v -0.04197884 0.01876093 -0.06206990
v -0.04314420 0.01796520 -0.06113624
v -0.04362731 0.01575134 -0.06156689
v -0.04800664 0.01154224 -0.05739568
v -0.04670667 0.01364777 -0.05862118
v -0.04052952 0.01364777 -0.06461344
v -0.04016442 0.01575134 -0.06439159
v -0.04083745 0.01154224 -0.06479377
v -0.04064568 0.01996043 -0.06271884
v -0.04097390 0.01781157 -0.06320287
v -0.03996896 0.01686024 -0.06426228
v -0.04119702 0.00959822 -0.06484122
v -0.04099787 0.00733512 -0.06517221
v -0.03913920 0.00944065 -0.06597656
v -0.03384529 0.00944065 -0.06856399
v -0.03268546 0.01142603 -0.06878821
v -0.03707584 0.01575134 -0.06598130
v -0.03367933 0.01064803 -0.06848095
v -0.03660749 0.01770127 -0.06578437
v -0.03817667 0.01996043 -0.06444142
v -0.03893268 0.01767960 -0.06465496
v -0.03807341 0.02034254 -0.06438092
v -0.04160084 0.02034254 -0.06169502
v -0.04169672 0.01996043 -0.06178874
v -0.04055349 0.02034254 -0.06264647
v -0.03889580 0.01575134 -0.06507375
v -0.03922955 0.01996043 -0.06376995
v -0.03965918 0.01826458 -0.06405467
v -0.03946373 0.02034254 -0.06345556
v -0.03916501 0.02034254 -0.06366555
f 1 2 7
f 1 7 16
f 1 16 15
f 1 15 29
f 1 29 45
f 1 45 72
f 1 72 71
f 1 71 70
f 1 70 114
f 1 114 74
f 1 74 73
f 1 73 46
f 1 46 30
f 1 30 17
f 1 17 8
f 1 8 3
f 1 3 9
f 1 9 19
f 1 19 34
f 1 34 59
f 1 59 87
f 1 87 96
f 1 96 95
f 1 95 94
f 1 94 97
f 1 97 60
f 1 60 36
f 1 36 35
f 1 35 22
f 1 22 21
f 1 21 20
f 1 20 10
f 1 10 4
f 1 4 5
f 1 5 2
f 2 5 6
f 2 6 7
f 3 8 9
f 4 10 5
f 5 10 11
f 5 11 12
f 5 12 6
f 6 12 13
f 6 13 14
f 6 14 15
f 6 15 16
f 6 16 7
f 8 17 31
f 8 31 51
f 8 51 50
f 8 50 49
f 8 49 79
f 8 79 121
f 8 121 122
f 8 122 80
f 8 80 52
f 8 52 32
f 8 32 18
f 8 18 9
f 9 18 32
f 9 32 53
f 9 53 83
f 9 83 82
f 9 82 128
f 9 128 153
f 9 153 161
f 9 161 160
f 9 160 156
f 9 156 154
f 9 154 131
f 9 131 86
f 9 86 84
f 9 84 54
f 9 54 33
f 9 33 19
f 10 20 11
f 11 20 21
f 11 21 22
f 11 22 23
f 11 23 24
f 11 24 12
f 12 24 25
f 12 25 13
f 13 25 26
f 13 26 27
f 13 27 28
f 13 28 14
f 14 28 29
f 14 29 15
f 17 30 31
f 19 33 34
f 22 35 23
f 23 35 36
f 23 36 37
f 23 37 24
f 24 37 38
f 24 38 39
f 24 39 25
f 25 39 26
f 26 39 40
f 26 40 41
f 26 41 42
f 26 42 27
f 27 42 43
f 27 43 28
f 28 43 44
f 28 44 45
f 28 45 29
f 30 46 47
f 30 47 48
f 30 48 49
f 30 49 50
f 30 50 51
f 30 51 31
f 32 52 53
f 33 54 55
f 33 55 56
f 33 56 57
f 33 57 58
f 33 58 34
f 34 58 59
f 36 60 61
f 36 61 37
f 37 61 38
f 38 61 62
f 38 62 39
f 39 62 40
f 40 62 63
f 40 63 64
f 40 64 65
f 40 65 41
f 41 66 67
f 41 67 42
f 41 65 66
f 42 67 68
f 42 68 43
f 43 68 44
f 44 68 69
f 44 69 70
f 44 70 71
f 44 71 72
f 44 72 45
f 46 73 47
f 47 73 74
f 47 74 75
f 47 75 76
f 47 76 77
f 47 77 78
f 47 78 48
f 48 78 49
f 49 78 79
f 52 80 81
f 52 81 82
f 52 82 83
f 52 83 53
f 54 84 55
f 55 85 57
f 55 57 56
f 55 84 86
f 55 86 85
f 57 87 59
f 57 59 58
f 57 85 88
f 57 88 89
f 57 89 90
f 57 90 91
f 57 91 92
f 57 92 93
f 57 93 94
f 57 94 95
f 57 95 96
f 57 96 87
f 60 97 98
f 60 98 61
f 61 98 92
f 61 92 62
f 62 92 63
f 63 92 64
f 64 99 100
f 64 100 101
f 64 101 65
f 64 92 102
f 64 102 103
f 64 103 104
f 64 104 105
f 64 105 106
f 64 106 107
f 64 107 99
f 65 101 108
f 65 108 66
f 66 109 110
f 66 110 67
f 66 108 101
f 66 101 109
f 67 110 111
f 67 111 68
f 68 111 112
f 68 112 113
f 68 113 69
f 69 113 114
f 69 114 70
f 74 114 75
f 75 113 112
f 75 112 111
f 75 111 115
f 75 115 116
f 75 116 117
f 75 117 76
f 75 114 113
f 76 116 118
f 76 118 77
f 76 117 116
f 77 118 119
f 77 119 79
f 77 79 78
f 79 120 121
f 79 119 120
f 80 122 123
f 80 123 124
f 80 124 81
f 81 124 125
f 81 125 82
f 82 126 127
f 82 127 128
f 82 125 129
f 82 129 126
f 85 86 130
f 85 130 88
f 86 131 132
f 86 132 130
f 88 130 133
f 88 133 134
f 88 134 103
f 88 103 89
f 89 103 90
f 90 103 91
f 91 103 92
f 92 98 135
f 92 135 136
f 92 136 93
f 92 103 102
f 93 136 94
f 94 136 135
f 94 135 97
f 97 135 98
f 99 137 100
f 99 107 138
f 99 138 137
f 100 137 101
f 101 137 139
f 101 139 109
f 103 134 104
f 104 134 105
f 105 133 132
f 105 132 140
f 105 140 141
f 105 141 142
f 105 142 107
f 105 107 106
f 105 134 133
f 107 142 138
f 109 139 143
f 109 143 110
f 110 144 111
f 110 143 144
f 111 144 116
f 111 116 115
f 116 144 145
f 116 145 118
f 118 145 146
f 118 146 119
f 119 146 147
f 119 147 120
f 120 148 124
f 120 124 123
f 120 123 121
f 120 147 146
f 120 146 149
f 120 149 148
f 121 123 122
f 124 148 129
f 124 129 125
f 126 129 150
f 126 150 127
f 127 151 128
f 127 150 152
f 127 152 151
f 128 151 153
f 129 152 150
f 129 148 152
f 130 132 133
f 131 154 155
f 131 155 132
f 132 155 156
f 132 156 140
f 137 149 145
f 137 145 139
f 137 138 157
f 137 157 148
f 137 148 149
f 138 142 152
f 138 152 157
f 139 145 143
f 140 158 159
f 140 159 141
f 140 156 160
f 140 160 158
f 141 159 142
f 142 159 152
f 143 145 144
f 145 149 146
f 148 157 152
f 151 152 159
f 151 159 158
f 151 158 153
f 153 158 161
f 154 156 155
f 158 160 161

