# https://github.com/mikedh/trimesh
v 0.02616671 0.01814340 -0.06916431
v 0.03159670 0.00022082 -0.06897447
v 0.03095141 0.00022082 -0.06881925
v 0.02616900 0.01800861 -0.06915357
v 0.02616900 0.00022082 -0.06598827
v 0.02616671 0.01814340 -0.06671542
v 0.02616671 0.02014070 -0.06931715
v 0.03266072 0.00022082 -0.06919536
v 0.02616900 0.00022082 -0.06358475
v 0.02616671 0.03881891 -0.05712163
v 0.02616671 0.02255870 -0.06897208
v 0.02634520 0.01996507 -0.06931953
v 0.02817121 0.01813932 -0.06927774
v 0.02845266 0.01785749 -0.06927058
v 0.03055555 0.01364642 -0.06919178
v 0.03266072 0.00943943 -0.06902581
v 0.03466522 0.00312895 -0.06876194
v 0.03400850 0.00022082 -0.06893865
v 0.04701711 0.00022082 -0.05712163
v 0.02616671 0.04194760 -0.05712163
v 0.02616671 0.02321221 -0.06881328
v 0.02653512 0.02224828 -0.06895298
v 0.02846639 0.01814340 -0.06922163
v 0.03055555 0.01574991 -0.06909984
v 0.03415723 0.00943943 -0.06867239
v 0.03436088 0.00734002 -0.06869627
v 0.03578645 0.00149517 -0.06841806
v 0.03495811 0.00088659 -0.06874164
v 0.03496040 0.00022082 -0.06875477
v 0.04954103 0.00022082 -0.05712163
v 0.02873640 0.04031790 -0.05712163
v 0.02922837 0.03974607 -0.05759684
v 0.02782568 0.04023621 -0.05831802
v 0.02616671 0.04183323 -0.05732700
v 0.02616671 0.02391473 -0.06861149
v 0.02796755 0.02166828 -0.06868552
v 0.02858309 0.02007126 -0.06888492
v 0.03053724 0.01773087 -0.06876194
v 0.03197883 0.01574991 -0.06864373
v 0.03243648 0.01364642 -0.06878223
v 0.03019858 0.01814340 -0.06878343
v 0.03400850 0.01063618 -0.06861149
v 0.03934694 0.00943943 -0.06598589
v 0.03852318 0.00734002 -0.06661751
v 0.03558967 0.00523653 -0.06828673
v 0.03571781 0.00312895 -0.06836314
v 0.04266260 0.00523653 -0.06461040
v 0.04275184 0.00312895 -0.06467368
v 0.03581849 0.00022082 -0.06845389
v 0.03567662 0.00022082 -0.06850403
v 0.04884083 0.00022082 -0.05855443
v 0.04952730 0.00102546 -0.05712163
v 0.03040910 0.03911707 -0.05712163
v 0.03153720 0.03778146 -0.05785117
v 0.03013222 0.03834102 -0.05854607
v 0.02861284 0.03901496 -0.05913352
v 0.02699277 0.03968481 -0.05972097
v 0.02616671 0.04088155 -0.05882308
v 0.02791721 0.02786032 -0.06652916
v 0.02616671 0.02911016 -0.06667124
v 0.02982331 0.01943409 -0.06861508
v 0.02990340 0.02570781 -0.06649453
v 0.03185069 0.02345319 -0.06645035
v 0.03036791 0.01814340 -0.06872850
v 0.03169966 0.01694666 -0.06850522
v 0.03593748 0.01704060 -0.06640259
v 0.03371331 0.01259671 -0.06845389
v 0.03393985 0.01119166 -0.06858283
v 0.04107456 0.00943943 -0.06507606
v 0.03886184 0.01172264 -0.06595842
v 0.04250928 0.00734002 -0.06450652
v 0.03868336 0.00523653 -0.06668557
v 0.04371518 0.00523653 -0.06386176
v 0.04380443 0.00312895 -0.06392146
v 0.04319347 0.00022082 -0.06441697
v 0.04278159 0.00102546 -0.06469398
v 0.03886184 0.00022082 -0.06681572
v 0.04839691 0.00022082 -0.05920636
v 0.04811546 0.00102546 -0.05959799
v 0.04883168 0.00102546 -0.05854488
v 0.04879049 0.00312895 -0.05848638
v 0.04951586 0.00133996 -0.05712163
v 0.03076149 0.03883933 -0.05712163
v 0.02940228 0.03776512 -0.05994902
v 0.03261038 0.03733217 -0.05712163
v 0.03281632 0.03715653 -0.05712163
v 0.03374535 0.03577599 -0.05797057
v 0.03072259 0.03734850 -0.05914307
v 0.02616671 0.03995438 -0.06002663
v 0.02799959 0.03828384 -0.06047916
v 0.03055555 0.02837904 -0.06526352
v 0.02616671 0.02971874 -0.06643961
v 0.02845266 0.03048254 -0.06527665
v 0.03259665 0.02190110 -0.06662706
v 0.03376594 0.02108829 -0.06637394
v 0.03265844 0.02627555 -0.06512979
v 0.03491235 0.02429459 -0.06482293
v 0.03687107 0.02192152 -0.06464383
v 0.03900371 0.01768594 -0.06466771
v 0.03896939 0.01574991 -0.06511785
v 0.03726465 0.01574991 -0.06599425
v 0.03826919 0.01996507 -0.06446712
v 0.03885726 0.01814340 -0.06462831
v 0.03790307 0.01254362 -0.06632379
v 0.04120042 0.01149391 -0.06474293
v 0.04220266 0.01076279 -0.06429876
v 0.04233538 0.00943943 -0.06438831
v 0.04069472 0.01364642 -0.06466055
v 0.04356187 0.00734002 -0.06374594
v 0.04482727 0.00734002 -0.06269642
v 0.04496685 0.00523653 -0.06281224
v 0.04507668 0.00312895 -0.06287194
v 0.04512016 0.00102546 -0.06289343
v 0.04384562 0.00022082 -0.06395012
v 0.04279303 0.00022082 -0.06469875
v 0.04811775 0.00022082 -0.05960635
v 0.04706287 0.00102546 -0.06092810
v 0.04701482 0.00312895 -0.06087318
v 0.04806741 0.00312895 -0.05953709
v 0.04870811 0.00523653 -0.05835265
v 0.04929848 0.00523653 -0.05712163
v 0.04942662 0.00312895 -0.05712163
v 0.03162644 0.03575965 -0.06005648
v 0.03055555 0.03622119 -0.06049588
v 0.02934278 0.03560036 -0.06203494
v 0.02867004 0.03695639 -0.06125765
v 0.03406112 0.03606190 -0.05712163
v 0.03488031 0.03527360 -0.05712163
v 0.03534254 0.03482022 -0.05712163
v 0.03585510 0.03368066 -0.05798609
v 0.03448902 0.03441178 -0.05867980
v 0.03383001 0.03374601 -0.06014126
v 0.03302913 0.03514698 -0.05937352
v 0.03245936 0.03615584 -0.05879801
v 0.02616671 0.03907214 -0.06092452
v 0.02628570 0.03885567 -0.06106183
v 0.02697675 0.03755272 -0.06188330
v 0.03249826 0.02817074 -0.06450175
v 0.03041597 0.03032324 -0.06454234
v 0.02616671 0.03418714 -0.06452563
v 0.02634520 0.03412587 -0.06449697
v 0.02747787 0.03370517 -0.06428444
v 0.02828791 0.03244716 -0.06452204
v 0.03617317 0.02367375 -0.06444802
v 0.03416181 0.02627555 -0.06446951
v 0.03798316 0.02112505 -0.06428802
v 0.04005172 0.01686905 -0.06426414
v 0.04029428 0.01574991 -0.06442175
v 0.03975654 0.01814340 -0.06406355
v 0.04338797 0.00943943 -0.06358475
v 0.04174502 0.01364642 -0.06395012
v 0.04328271 0.01352797 -0.06277403
v 0.04427580 0.01274375 -0.06218777
v 0.04442225 0.01154292 -0.06232389
v 0.04464879 0.00943943 -0.06253642
v 0.04587985 0.00734002 -0.06162779
v 0.04601944 0.00523653 -0.06179137
v 0.04612927 0.00312895 -0.06192629
v 0.04617275 0.00102546 -0.06198002
v 0.04511329 0.00022082 -0.06290179
v 0.04746560 0.00022082 -0.06043021
v 0.04706516 0.00022082 -0.06092214
v 0.04691643 0.00523653 -0.06073826
v 0.04796672 0.00523653 -0.05940575
v 0.04857082 0.00734002 -0.05814012
v 0.04909940 0.00734002 -0.05712163
v 0.02841147 0.03465276 -0.06317999
v 0.02794010 0.03614767 -0.06245404
v 0.03150974 0.03354179 -0.06206599
v 0.03010706 0.03419530 -0.06250418
v 0.03615715 0.03399517 -0.05712163
v 0.03729440 0.03274532 -0.05712163
v 0.03787561 0.03149140 -0.05788579
v 0.03523270 0.03297405 -0.05939023
v 0.03585052 0.03157309 -0.06007081
v 0.03462403 0.03239814 -0.06049229
v 0.03487802 0.03063366 -0.06161346
v 0.03361492 0.03143421 -0.06206360
v 0.03281175 0.03273715 -0.06168868
v 0.02616671 0.03889651 -0.06109885
v 0.02616671 0.03782638 -0.06212091
v 0.03371789 0.02733342 -0.06424862
v 0.03169051 0.02951860 -0.06429280
v 0.02962195 0.03165069 -0.06430951
v 0.02616671 0.03434234 -0.06444324
v 0.02888056 0.03305574 -0.06390594
v 0.02616671 0.03524092 -0.06390952
v 0.02634520 0.03517557 -0.06386893
v 0.03571094 0.02507472 -0.06414713
v 0.03687107 0.02429459 -0.06372565
v 0.03757356 0.02253010 -0.06402415
v 0.03895566 0.02204814 -0.06321700
v 0.04032402 0.02156617 -0.06240866
v 0.03932177 0.01996507 -0.06376385
v 0.04134686 0.01574991 -0.06368863
v 0.04100363 0.01814340 -0.06313103
v 0.04238572 0.01736735 -0.06236210
v 0.04271523 0.01574991 -0.06264030
v 0.04405384 0.01414472 -0.06196569
v 0.04626428 0.01243334 -0.05998007
v 0.04647708 0.01103237 -0.06020932
v 0.04570138 0.00943943 -0.06144272
v 0.04662582 0.00943943 -0.06039080
v 0.04677684 0.00734002 -0.06057468
v 0.04651370 0.00022082 -0.06157286
v 0.04616588 0.00022082 -0.06197405
v 0.04782714 0.00734002 -0.05919322
v 0.04847700 0.00856536 -0.05799325
v 0.04906050 0.00760551 -0.05712163
v 0.02616671 0.03682569 -0.06284208
v 0.02630401 0.03682569 -0.06277642
v 0.02616671 0.03705033 -0.06268687
v 0.02616671 0.03532261 -0.06385579
v 0.03221223 0.03213674 -0.06250776
v 0.03056470 0.03259828 -0.06320864
v 0.03742712 0.03259420 -0.05712163
v 0.03900371 0.03068676 -0.05712163
v 0.03983434 0.02916734 -0.05765177
v 0.03843165 0.03008634 -0.05853055
v 0.03781612 0.02930621 -0.05993350
v 0.03743169 0.03066634 -0.05913352
v 0.03836987 0.02790116 -0.06049588
v 0.03702439 0.02857101 -0.06125407
v 0.03565374 0.02924086 -0.06200987
v 0.03425105 0.03003325 -0.06249821
v 0.03309320 0.02873439 -0.06389758
v 0.03468581 0.02828510 -0.06316805
v 0.03521440 0.02627555 -0.06386415
v 0.03102464 0.03091957 -0.06390952
v 0.03265386 0.03047845 -0.06320506
v 0.03810901 0.02552809 -0.06230001
v 0.03623266 0.02783989 -0.06243374
v 0.03690769 0.02624696 -0.06277283
v 0.03852089 0.02417206 -0.06262120
v 0.03993273 0.02296714 -0.06205763
v 0.04118669 0.02228095 -0.06120631
v 0.04177476 0.01996507 -0.06180092
v 0.04205622 0.01877241 -0.06207076
v 0.04220495 0.01814340 -0.06220091
v 0.04072218 0.01996507 -0.06271552
v 0.04376781 0.01574991 -0.06167077
v 0.04307677 0.01814340 -0.06131138
v 0.04470370 0.01574991 -0.06061766
v 0.04607893 0.01364642 -0.05970784
v 0.04680659 0.01364642 -0.05865592
v 0.04698278 0.01165729 -0.05916218
v 0.04879507 0.00921479 -0.05712163
v 0.04809029 0.01154292 -0.05735327
v 0.04821843 0.01154292 -0.05712163
v 0.03915702 0.03048662 -0.05712163
v 0.04051623 0.02863228 -0.05712163
v 0.04083201 0.02815031 -0.05712163
v 0.04030800 0.02776637 -0.05834071
v 0.03910210 0.02853425 -0.05913710
v 0.03977256 0.02695357 -0.05974366
v 0.03894193 0.02624287 -0.06107616
v 0.03763763 0.02693314 -0.06189883
v 0.03957348 0.02417206 -0.06171495
v 0.04063980 0.02417206 -0.06066304
v 0.04204935 0.02299165 -0.05994902
v 0.04240860 0.02159068 -0.06035737
v 0.04322551 0.01814340 -0.06115616
v 0.04442911 0.01728975 -0.06028693
v 0.04655260 0.01530471 -0.05825355
v 0.04765552 0.01360557 -0.05712163
v 0.04150933 0.02708427 -0.05712163
v 0.04171069 0.02663090 -0.05726372
v 0.04212944 0.02522993 -0.05794191
v 0.04096701 0.02609175 -0.05884219
v 0.04022105 0.02555260 -0.06025469
v 0.04394401 0.02257912 -0.05748103
v 0.04431470 0.02117815 -0.05805534
v 0.04383189 0.01996507 -0.05950366
v 0.04244064 0.02417206 -0.05839802
v 0.04411563 0.01869480 -0.05990724
v 0.04423919 0.01814340 -0.06005648
v 0.04626428 0.01670976 -0.05787624
v 0.04491651 0.01814340 -0.05905114
v 0.04693015 0.01597047 -0.05712163
v 0.04696219 0.01587244 -0.05712163
v 0.04753883 0.01401402 -0.05712163
v 0.04188460 0.02649202 -0.05712163
v 0.04312711 0.02442121 -0.05712163
v 0.04329415 0.02413121 -0.05712163
v 0.04231707 0.02577724 -0.05712163
v 0.04370146 0.02341643 -0.05712163
v 0.04433072 0.02224011 -0.05712163
v 0.04457327 0.02176223 -0.05712163
v 0.04527119 0.02024281 -0.05712163
v 0.04541534 0.01989972 -0.05712163
v 0.04457556 0.01996507 -0.05845175
v 0.04604003 0.01785749 -0.05748222
v 0.04625512 0.01785749 -0.05712163
v 0.04584324 0.01814340 -0.05761117
v 0.04583867 0.01887452 -0.05712163
v 0.04598282 0.01814340 -0.05738312
v 0.04613843 0.01814340 -0.05712163
f 1 2 3
f 1 3 4
f 1 4 5
f 1 5 9
f 1 9 6
f 1 6 10
f 1 10 20
f 1 20 34
f 1 34 58
f 1 58 89
f 1 89 135
f 1 135 180
f 1 180 181
f 1 181 212
f 1 212 210
f 1 210 213
f 1 213 187
f 1 187 185
f 1 185 140
f 1 140 92
f 1 92 60
f 1 60 35
f 1 35 21
f 1 21 11
f 1 11 7
f 1 7 2
f 2 8 18
f 2 18 29
f 2 29 50
f 2 50 49
f 2 49 77
f 2 77 115
f 2 115 75
f 2 75 114
f 2 114 160
f 2 160 206
f 2 206 205
f 2 205 162
f 2 162 161
f 2 161 116
f 2 116 78
f 2 78 51
f 2 51 30
f 2 30 19
f 2 19 9
f 2 9 5
f 2 5 3
f 2 7 8
f 3 5 4
f 6 9 10
f 7 11 12
f 7 12 8
f 8 13 14
f 8 14 15
f 8 15 16
f 8 16 17
f 8 17 18
f 8 12 13
f 9 19 10
f 10 19 30
f 10 30 52
f 10 52 82
f 10 82 122
f 10 122 121
f 10 121 166
f 10 166 209
f 10 209 247
f 10 247 249
f 10 249 265
f 10 265 281
f 10 281 280
f 10 280 279
f 10 279 293
f 10 293 297
f 10 297 295
f 10 295 290
f 10 290 289
f 10 289 288
f 10 288 287
f 10 287 286
f 10 286 284
f 10 284 283
f 10 283 285
f 10 285 282
f 10 282 266
f 10 266 252
f 10 252 251
f 10 251 250
f 10 250 217
f 10 217 216
f 10 216 172
f 10 172 171
f 10 171 129
f 10 129 128
f 10 128 127
f 10 127 86
f 10 86 85
f 10 85 83
f 10 83 53
f 10 53 31
f 10 31 20
f 11 21 22
f 11 22 14
f 11 14 13
f 11 13 12
f 14 22 23
f 14 23 24
f 14 24 15
f 15 24 16
f 16 25 26
f 16 26 17
f 16 24 25
f 17 27 28
f 17 28 29
f 17 29 18
f 17 26 27
f 20 31 32
f 20 32 33
f 20 33 34
f 21 35 36
f 21 36 22
f 22 36 37
f 22 37 23
f 23 37 24
f 24 38 39
f 24 39 40
f 24 40 25
f 24 37 41
f 24 41 38
f 25 40 42
f 25 42 43
f 25 43 44
f 25 44 45
f 25 45 46
f 25 46 27
f 25 27 26
f 27 46 47
f 27 47 48
f 27 48 49
f 27 49 28
f 28 49 50
f 28 50 29
f 30 51 52
f 31 53 32
f 32 53 54
f 32 54 55
f 32 55 33
f 33 55 56
f 33 56 57
f 33 57 58
f 33 58 34
f 35 59 36
f 35 60 59
f 36 61 37
f 36 59 62
f 36 62 63
f 36 63 61
f 37 61 64
f 37 64 41
f 38 65 39
f 38 41 64
f 38 64 65
f 39 65 66
f 39 66 67
f 39 67 68
f 39 68 40
f 40 68 42
f 42 68 43
f 43 69 44
f 43 68 70
f 43 70 69
f 44 71 47
f 44 47 72
f 44 72 45
f 44 69 71
f 45 72 46
f 46 72 47
f 47 71 73
f 47 73 48
f 48 74 75
f 48 75 76
f 48 76 49
f 48 73 74
f 49 76 77
f 51 78 79
f 51 79 80
f 51 80 52
f 52 80 81
f 52 81 82
f 53 83 54
f 54 84 55
f 54 83 85
f 54 85 86
f 54 86 87
f 54 87 88
f 54 88 84
f 55 84 56
f 56 84 57
f 57 89 58
f 57 84 90
f 57 90 89
f 59 91 62
f 59 60 92
f 59 92 93
f 59 93 91
f 61 63 94
f 61 94 95
f 61 95 65
f 61 65 64
f 62 91 96
f 62 96 63
f 63 96 97
f 63 97 94
f 65 95 98
f 65 98 66
f 66 99 100
f 66 100 101
f 66 101 67
f 66 98 102
f 66 102 103
f 66 103 99
f 67 101 104
f 67 104 68
f 68 104 70
f 69 70 105
f 69 105 106
f 69 106 107
f 69 107 71
f 70 104 108
f 70 108 105
f 71 107 109
f 71 109 73
f 73 109 110
f 73 110 111
f 73 111 112
f 73 112 74
f 74 112 113
f 74 113 114
f 74 114 75
f 75 115 76
f 76 115 77
f 78 116 79
f 79 117 118
f 79 118 119
f 79 119 81
f 79 81 80
f 79 116 117
f 81 119 120
f 81 120 121
f 81 121 122
f 81 122 82
f 84 88 123
f 84 123 124
f 84 124 125
f 84 125 126
f 84 126 90
f 86 127 87
f 87 127 128
f 87 128 129
f 87 129 130
f 87 130 131
f 87 131 132
f 87 132 133
f 87 133 123
f 87 123 134
f 87 134 88
f 88 134 123
f 89 90 135
f 90 136 135
f 90 126 137
f 90 137 136
f 91 138 96
f 91 93 139
f 91 139 138
f 92 140 141
f 92 141 142
f 92 142 143
f 92 143 93
f 93 143 139
f 94 97 95
f 95 97 144
f 95 144 98
f 96 145 97
f 96 138 145
f 97 145 144
f 98 146 102
f 98 144 146
f 99 147 148
f 99 148 100
f 99 103 147
f 100 148 108
f 100 108 104
f 100 104 101
f 102 146 149
f 102 149 147
f 102 147 103
f 105 108 106
f 106 150 107
f 106 108 151
f 106 151 152
f 106 152 153
f 106 153 154
f 106 154 150
f 107 150 109
f 108 148 151
f 109 150 110
f 110 150 155
f 110 155 156
f 110 156 157
f 110 157 111
f 111 157 158
f 111 158 112
f 112 158 159
f 112 159 113
f 113 159 160
f 113 160 114
f 116 161 117
f 117 159 158
f 117 158 118
f 117 161 162
f 117 162 159
f 118 158 163
f 118 163 164
f 118 164 119
f 119 164 120
f 120 164 165
f 120 165 166
f 120 166 121
f 123 133 132
f 123 132 124
f 124 132 125
f 125 167 168
f 125 168 137
f 125 137 126
f 125 132 169
f 125 169 170
f 125 170 167
f 129 171 130
f 130 132 131
f 130 171 172
f 130 172 173
f 130 173 174
f 130 174 132
f 132 174 175
f 132 175 176
f 132 176 177
f 132 177 178
f 132 178 179
f 132 179 169
f 135 136 180
f 136 137 180
f 137 168 181
f 137 181 180
f 138 182 145
f 138 139 183
f 138 183 182
f 139 143 184
f 139 184 183
f 140 185 141
f 141 185 142
f 142 186 184
f 142 184 143
f 142 185 187
f 142 187 188
f 142 188 168
f 142 168 167
f 142 167 186
f 144 145 189
f 144 189 190
f 144 190 191
f 144 191 146
f 145 182 189
f 146 191 192
f 146 192 193
f 146 193 194
f 146 194 149
f 147 195 148
f 147 149 195
f 148 195 151
f 149 194 196
f 149 196 197
f 149 197 195
f 150 154 155
f 151 195 198
f 151 198 152
f 152 198 153
f 153 198 199
f 153 199 200
f 153 200 201
f 153 201 154
f 154 201 202
f 154 202 155
f 155 202 156
f 156 202 203
f 156 203 204
f 156 204 163
f 156 163 157
f 157 163 158
f 159 162 205
f 159 205 206
f 159 206 160
f 163 204 164
f 164 204 203
f 164 203 207
f 164 207 165
f 165 208 166
f 165 207 208
f 166 208 209
f 167 170 186
f 168 210 211
f 168 211 212
f 168 212 181
f 168 188 213
f 168 213 210
f 169 179 178
f 169 178 214
f 169 214 170
f 170 214 215
f 170 215 186
f 172 216 173
f 173 175 174
f 173 216 217
f 173 217 218
f 173 218 219
f 173 219 220
f 173 220 221
f 173 221 175
f 175 221 220
f 175 220 222
f 175 222 223
f 175 223 224
f 175 224 176
f 176 224 177
f 177 224 178
f 178 224 225
f 178 225 214
f 182 183 226
f 182 226 227
f 182 227 228
f 182 228 189
f 183 184 229
f 183 229 230
f 183 230 226
f 184 186 215
f 184 215 229
f 187 213 188
f 189 231 190
f 189 228 232
f 189 232 233
f 189 233 231
f 190 231 234
f 190 234 191
f 191 234 192
f 192 234 193
f 193 234 235
f 193 235 236
f 193 236 237
f 193 237 238
f 193 238 239
f 193 239 197
f 193 197 240
f 193 240 194
f 194 240 196
f 195 197 198
f 196 240 197
f 197 241 198
f 197 239 242
f 197 242 241
f 198 241 199
f 199 241 243
f 199 243 200
f 200 243 244
f 200 244 245
f 200 245 201
f 201 208 203
f 201 203 202
f 201 245 246
f 201 246 208
f 203 208 207
f 208 247 209
f 208 246 245
f 208 245 248
f 208 248 249
f 208 249 247
f 210 212 211
f 214 225 230
f 214 230 229
f 214 229 215
f 217 250 218
f 218 251 252
f 218 252 253
f 218 253 254
f 218 254 219
f 218 250 251
f 219 254 220
f 220 254 255
f 220 255 222
f 222 255 256
f 222 256 257
f 222 257 223
f 223 257 224
f 224 257 232
f 224 232 225
f 225 232 227
f 225 227 226
f 225 226 230
f 227 232 228
f 231 258 235
f 231 235 234
f 231 233 232
f 231 232 257
f 231 257 256
f 231 256 258
f 235 258 259
f 235 259 260
f 235 260 236
f 236 261 237
f 236 260 261
f 237 261 262
f 237 262 242
f 237 242 238
f 238 242 239
f 241 263 243
f 241 242 263
f 242 262 263
f 243 263 244
f 244 263 264
f 244 264 245
f 245 265 249
f 245 249 248
f 245 264 265
f 252 266 267
f 252 267 253
f 253 267 268
f 253 268 269
f 253 269 255
f 253 255 254
f 255 269 260
f 255 260 270
f 255 270 256
f 256 270 258
f 258 270 259
f 259 270 260
f 260 271 272
f 260 272 273
f 260 273 261
f 260 269 268
f 260 268 274
f 260 274 271
f 261 273 275
f 261 275 276
f 261 276 263
f 261 263 262
f 263 277 264
f 263 276 278
f 263 278 277
f 264 277 279
f 264 279 280
f 264 280 281
f 264 281 265
f 266 282 267
f 267 282 268
f 268 283 284
f 268 284 274
f 268 282 285
f 268 285 283
f 271 274 286
f 271 286 287
f 271 287 272
f 272 287 288
f 272 288 289
f 272 289 290
f 272 290 291
f 272 291 275
f 272 275 273
f 274 284 286
f 275 278 276
f 275 291 278
f 277 292 293
f 277 293 279
f 277 278 291
f 277 291 294
f 277 294 292
f 290 295 296
f 290 296 291
f 291 296 294
f 292 294 296
f 292 296 293
f 293 296 297
f 295 297 296

