# https://github.com/mikedh/trimesh
v 0.04751648 0.00022082 -0.01568189
v 0.04706007 0.00022082 -0.01478854
v 0.04413521 0.01653082 -0.02015648
v 0.04619236 0.01228348 -0.02014081
v 0.04648936 0.01228348 -0.02014081
v 0.04751648 0.01600889 -0.02119089
v 0.04751648 0.00022082 0.05772181
v 0.04358707 0.01770304 -0.01899669
v 0.04360381 0.01770304 -0.01912991
v 0.04372756 0.00022082 0.02097686
v 0.04396560 0.01770304 -0.02026619
v 0.04751648 0.01770304 -0.02166107
v 0.04751648 0.00733623 0.05811363
v 0.04587280 0.01575049 0.05809012
v 0.04560783 0.01770304 0.05811363
v 0.04454722 0.01770304 0.05747888
v 0.04688245 0.00022082 0.05705572
v 0.04036812 0.01770304 0.01886887
v 0.04365186 0.00022082 0.02308486
v 0.04011626 0.01770304 0.02308486
v 0.04021671 0.01770304 0.02098470
v 0.04751648 0.01770304 0.05823901
v 0.04751648 0.00943081 0.05821551
v 0.04738910 0.01364564 0.05837223
v 0.04738910 0.01575049 0.05839574
v 0.04738910 0.01770304 0.05827036
v 0.04371446 0.01770304 0.05644447
v 0.04661894 0.00022082 0.05665605
v 0.04372902 0.00022082 0.02940101
v 0.04007986 0.01770304 0.02519285
v 0.04751648 0.01575049 0.05837223
v 0.04751648 0.01364222 0.05835656
v 0.04305713 0.01770304 0.05465777
v 0.04619382 0.00022082 0.05600563
v 0.04376905 0.00022082 0.03070185
v 0.04379817 0.00022082 0.03150117
v 0.04013300 0.01770304 0.02646235
v 0.04271500 0.01770304 0.05248708
v 0.04593395 0.00022082 0.05464994
v 0.04043218 0.01770304 0.03146199
v 0.04017740 0.01770304 0.02729301
v 0.04390300 0.00022082 0.03280985
v 0.04058578 0.01770304 0.03358565
v 0.04183055 0.01770304 0.04602204
v 0.04571920 0.00022082 0.05254194
v 0.04161362 0.01770304 0.04391405
v 0.04396924 0.00022082 0.03360916
v 0.04544331 0.00022082 0.04964247
v 0.04564204 0.00022082 0.05174262
v 0.04140544 0.01770304 0.04184523
f 1 2 3
f 1 3 4
f 1 4 5
f 1 5 6
f 1 6 12
f 1 12 22
f 1 22 31
f 1 31 32
f 1 32 23
f 1 23 13
f 1 13 7
f 1 7 17
f 1 17 28
f 1 28 34
f 1 34 39
f 1 39 45
f 1 45 49
f 1 49 48
f 1 48 47
f 1 47 42
f 1 42 36
f 1 36 35
f 1 35 29
f 1 29 19
f 1 19 10
f 1 10 2
f 2 8 9
f 2 9 3
f 2 10 8
f 3 11 12
f 3 12 4
f 3 9 11
f 4 12 6
f 4 6 5
f 7 13 14
f 7 14 15
f 7 15 16
f 7 16 17
f 8 10 18
f 8 18 21
f 8 21 20
f 8 20 30
f 8 30 37
f 8 37 41
f 8 41 40
f 8 40 43
f 8 43 50
f 8 50 46
f 8 46 44
f 8 44 38
f 8 38 33
f 8 33 27
f 8 27 16
f 8 16 15
f 8 15 26
f 8 26 22
f 8 22 12
f 8 12 11
f 8 11 9
f 10 19 20
f 10 20 21
f 10 21 18
f 13 23 14
f 14 23 15
f 15 23 24
f 15 24 25
f 15 25 26
f 16 27 17
f 17 27 28
f 19 29 30
f 19 30 20
f 22 26 31
f 23 32 24
f 24 32 25
f 25 31 26
f 25 32 31
f 27 33 34
f 27 34 28
f 29 35 30
f 30 35 36
f 30 36 37
f 33 38 39
f 33 39 34
f 36 40 41
f 36 41 37
f 36 42 43
f 36 43 40
f 38 44 39
f 39 44 46
f 39 46 45
f 42 47 43
f 43 47 48
f 43 48 49
f 43 49 45
f 43 45 50
f 45 46 50

