# https://github.com/mikedh/trimesh
v -0.03803751 -0.01882061 -0.06195111
v -0.04196293 -0.01882061 -0.06195111
v -0.04695807 -0.01882061 -0.04469350
v -0.01729688 -0.03879121 -0.06195111
v -0.04184407 -0.01908745 -0.06195111
v -0.04231637 -0.02160257 -0.06031405
v -0.04265418 -0.02002602 -0.06068481
v -0.04292630 -0.01882061 -0.06092689
v -0.04924764 -0.01882061 -0.04469350
v -0.03136272 -0.03965003 -0.04465626
v -0.01729688 -0.04778120 -0.04465626
v -0.01729688 -0.04268043 -0.06195111
v -0.04160636 -0.02002602 -0.06173780
v -0.04110278 -0.02054131 -0.06195111
v -0.04309208 -0.02210866 -0.05897157
v -0.04450273 -0.02002602 -0.05838751
v -0.04370513 -0.02002602 -0.05944051
v -0.04393972 -0.01882061 -0.05977571
v -0.04375830 -0.01882061 -0.05999240
v -0.04046470 -0.02173445 -0.06195111
v -0.04105899 -0.02224668 -0.06114866
v -0.04194416 -0.02300735 -0.05991453
v -0.04914442 -0.01882061 -0.04630854
v -0.04886917 -0.02005669 -0.04469350
v -0.03136272 -0.04260068 -0.04465626
v -0.01729688 -0.05015522 -0.04465626
v -0.01729688 -0.04443487 -0.06025819
v -0.01732503 -0.04443180 -0.06025142
v -0.01752834 -0.04259454 -0.06195111
v -0.04386778 -0.02261474 -0.05751058
v -0.04421809 -0.02121303 -0.05802692
v -0.04435259 -0.01882061 -0.05923736
v -0.04535350 -0.01882061 -0.05786610
v -0.04469978 -0.01882061 -0.05877689
v -0.03982975 -0.02285705 -0.06195111
v -0.04052725 -0.02423730 -0.06057477
v -0.04206302 -0.02530775 -0.05795074
v -0.04236955 -0.02423730 -0.05838074
v -0.04012377 -0.02555006 -0.06020740
v -0.04157821 -0.02423730 -0.05943374
v -0.04892860 -0.01882061 -0.04846532
v -0.04870027 -0.02016404 -0.04622728
v -0.04840625 -0.02117009 -0.04469350
v -0.04837498 -0.02110568 -0.04543669
v -0.03256381 -0.04169892 -0.04469350
v -0.03178810 -0.04231543 -0.04469350
v -0.02820361 -0.04479374 -0.04465626
v -0.04809034 -0.02183261 -0.04469350
v -0.04765558 -0.02272516 -0.04469350
v -0.04688613 -0.02426490 -0.04469350
v -0.04670471 -0.02462683 -0.04469350
v -0.04631061 -0.02537830 -0.04469350
v -0.04591651 -0.02605002 -0.04469350
v -0.04464035 -0.02817559 -0.04469350
v -0.04391156 -0.02922765 -0.04469350
v -0.04213809 -0.03171515 -0.04469350
v -0.04159385 -0.03244822 -0.04469350
v -0.04113406 -0.03305246 -0.04469350
v -0.04030205 -0.03414438 -0.04469350
v -0.03940750 -0.03519337 -0.04469350
v -0.03918854 -0.03543875 -0.04469350
v -0.03835342 -0.03636198 -0.04469350
v -0.03756833 -0.03719319 -0.04469350
v -0.03735251 -0.03741403 -0.04469350
v -0.03630156 -0.03843848 -0.04469350
v -0.03539136 -0.03926969 -0.04469350
v -0.03408706 -0.04041069 -0.04469350
v -0.01998056 -0.04920745 -0.04465626
v -0.01729688 -0.05003253 -0.04558228
v -0.01729688 -0.04445327 -0.06023449
v -0.01776605 -0.04523541 -0.05894110
v -0.01872942 -0.04413429 -0.05994838
v -0.01862933 -0.04218047 -0.06195111
v -0.01729688 -0.04535810 -0.05901051
v -0.04342988 -0.02421276 -0.05683849
v -0.04432131 -0.02349503 -0.05610885
v -0.04457154 -0.02199824 -0.05683849
v -0.04555368 -0.01991867 -0.05676062
v -0.04579139 -0.01882061 -0.05715338
v -0.03972966 -0.02302882 -0.06195111
v -0.03936058 -0.02423730 -0.06162776
v -0.04085881 -0.02612977 -0.05880905
v -0.04019258 -0.02774925 -0.05826393
v -0.04159385 -0.02670947 -0.05729050
v -0.04208804 -0.02745173 -0.05588707
v -0.04236016 -0.02614204 -0.05670475
v -0.03965146 -0.02695484 -0.05966736
v -0.03858800 -0.02489061 -0.06195111
v -0.03813134 -0.02561448 -0.06195111
v -0.03760587 -0.02643955 -0.06195111
v -0.03747137 -0.02684442 -0.06183937
v -0.03825020 -0.02795169 -0.06043595
v -0.04874719 -0.01882061 -0.04954710
v -0.04864710 -0.01963955 -0.04846532
v -0.04662965 -0.02388764 -0.04846532
v -0.04669533 -0.02436919 -0.04624929
v -0.03167863 -0.04223875 -0.04591748
v -0.02807224 -0.04469865 -0.04635933
v -0.02688054 -0.04564642 -0.04465626
v -0.04627933 -0.02532616 -0.04547224
v -0.04455277 -0.02804064 -0.04636102
v -0.04385839 -0.02909269 -0.04636102
v -0.04267920 -0.03073058 -0.04637965
v -0.04208492 -0.03164768 -0.04568724
v -0.04020822 -0.03403090 -0.04636102
v -0.03932617 -0.03507988 -0.04636102
v -0.03827209 -0.03626996 -0.04636102
v -0.03723678 -0.03732201 -0.04636102
v -0.03618583 -0.03831272 -0.04636102
v -0.03497223 -0.03936477 -0.04636102
v -0.03392128 -0.04025733 -0.04636102
v -0.01729688 -0.04992824 -0.04635933
v -0.02029646 -0.04907863 -0.04465626
v -0.02008690 -0.04891606 -0.04641520
v -0.01995553 -0.04463730 -0.05853649
v -0.01729688 -0.04576604 -0.05845354
v -0.02128486 -0.04436126 -0.05812850
v -0.01995553 -0.04385210 -0.05958949
v -0.02158513 -0.04241358 -0.06035638
v -0.01995553 -0.04280005 -0.06073898
v -0.01995553 -0.04176333 -0.06179197
v -0.01921736 -0.04192590 -0.06195111
v -0.04455277 -0.02421276 -0.05464617
v -0.04636691 -0.02128971 -0.05394868
v -0.04601972 -0.02055051 -0.05535380
v -0.04632938 -0.01914880 -0.05597849
v -0.04391782 -0.02489675 -0.05526408
v -0.04639193 -0.01882061 -0.05609700
v -0.03830337 -0.03016008 -0.05851279
v -0.03780605 -0.03155873 -0.05788980
v -0.03970464 -0.02915097 -0.05758846
v -0.04235704 -0.02784434 -0.05477483
v -0.04019258 -0.02983189 -0.05618503
v -0.03967649 -0.03123360 -0.05526916
v -0.03773098 -0.02935647 -0.05991622
v -0.03718986 -0.02703766 -0.06195111
v -0.03689898 -0.02858047 -0.06119945
v -0.04860956 -0.01882061 -0.05033092
v -0.04849384 -0.01928069 -0.05009560
v -0.04640132 -0.02346743 -0.05056962
v -0.04581016 -0.02451948 -0.05056962
v -0.04424625 -0.02753762 -0.04991784
v -0.04438387 -0.02776152 -0.04846532
v -0.03150347 -0.04207925 -0.04731921
v -0.03136585 -0.04215900 -0.04744957
v -0.02890112 -0.04382143 -0.04846701
v -0.02785017 -0.04458516 -0.04846701
v -0.03373987 -0.04010397 -0.04783386
v -0.02523843 -0.04633961 -0.04749020
v -0.02550743 -0.04650524 -0.04465626
v -0.04370200 -0.02881357 -0.04846532
v -0.04265105 -0.03035331 -0.04846532
v -0.04198170 -0.03155259 -0.04709236
v -0.04004870 -0.03383153 -0.04846532
v -0.03913850 -0.03488051 -0.04846532
v -0.03808755 -0.03606139 -0.04846532
v -0.03697717 -0.03711344 -0.04846532
v -0.03592309 -0.03807348 -0.04846532
v -0.01729688 -0.04960619 -0.04849579
v -0.02138808 -0.04860934 -0.04465626
v -0.02122543 -0.04853880 -0.04574988
v -0.02357130 -0.04653898 -0.05056962
v -0.01954266 -0.04873203 -0.04846701
v -0.01801941 -0.04890993 -0.05070336
v -0.01785050 -0.04940682 -0.04846701
v -0.01729688 -0.04622612 -0.05777129
v -0.02069683 -0.04617091 -0.05552310
v -0.02201677 -0.04476306 -0.05688251
v -0.02268925 -0.04400239 -0.05758677
v -0.02539170 -0.04223261 -0.05808618
v -0.02416559 -0.04256387 -0.05851448
v -0.02213563 -0.04320799 -0.05904437
v -0.01820395 -0.04604209 -0.05747673
v -0.01998056 -0.04572310 -0.05681479
v -0.01929556 -0.04647150 -0.05607160
v -0.02298640 -0.04203938 -0.05995854
v -0.02416559 -0.04066527 -0.06067803
v -0.02226700 -0.04117749 -0.06119945
v -0.02181346 -0.04063460 -0.06195111
v -0.02037779 -0.04137993 -0.06195111
v -0.04420558 -0.02538137 -0.05385896
v -0.04626682 -0.02319751 -0.05164462
v -0.04600096 -0.02269142 -0.05304805
v -0.04656084 -0.02204424 -0.05247754
v -0.04738345 -0.02002602 -0.05267392
v -0.04660462 -0.01991867 -0.05470034
v -0.04698622 -0.01882061 -0.05474097
v -0.04658586 -0.01882061 -0.05566022
v -0.04341737 -0.02618498 -0.05464617
v -0.03827209 -0.03210776 -0.05648637
v -0.03734938 -0.03073058 -0.05912224
v -0.03576045 -0.03162620 -0.06006181
v -0.03617019 -0.03245742 -0.05879212
v -0.03576358 -0.03373031 -0.05796090
v -0.03615455 -0.03415972 -0.05688082
v -0.03731498 -0.03274574 -0.05706365
v -0.04000804 -0.03167835 -0.05386573
v -0.04189412 -0.02933500 -0.05339848
v -0.04270110 -0.02855900 -0.05269084
v -0.04381460 -0.02684136 -0.05267392
v -0.03767155 -0.03350947 -0.05551463
v -0.03885700 -0.03259544 -0.05469018
v -0.03619834 -0.03054655 -0.06044610
v -0.03637350 -0.02809278 -0.06195111
v -0.03551335 -0.02920004 -0.06195111
v -0.04831555 -0.01882061 -0.05142962
v -0.04827176 -0.01889422 -0.05149903
v -0.04703627 -0.02213012 -0.05056962
v -0.04469352 -0.02647329 -0.05060009
v -0.04403355 -0.02726463 -0.05132127
v -0.04240082 -0.02999752 -0.05056962
v -0.03233548 -0.04066527 -0.05056962
v -0.03136272 -0.04144434 -0.05056962
v -0.03101866 -0.04171732 -0.05056962
v -0.03028362 -0.04276938 -0.04846701
v -0.02754677 -0.04439500 -0.05056962
v -0.03338330 -0.03977885 -0.05056962
v -0.02423753 -0.04665553 -0.04830111
v -0.02736223 -0.04425391 -0.05170387
v -0.03995486 -0.03371191 -0.04954540
v -0.03792490 -0.03588963 -0.04977056
v -0.03576358 -0.03793546 -0.04961312
v -0.01729688 -0.04930560 -0.05004481
v -0.02324913 -0.04639788 -0.05181222
v -0.01918296 -0.04855413 -0.05009221
v -0.01883577 -0.04834556 -0.05149565
v -0.01729688 -0.04863695 -0.05267561
v -0.01729688 -0.04916758 -0.05066103
v -0.01729688 -0.04652057 -0.05727358
v -0.02131927 -0.04647150 -0.05412136
v -0.02494755 -0.04406681 -0.05552648
v -0.02354628 -0.04443794 -0.05618333
v -0.01729688 -0.04806951 -0.05421786
v -0.01998056 -0.04675981 -0.05480191
v -0.02421563 -0.04364353 -0.05688251
v -0.02557937 -0.04026040 -0.06028697
v -0.02416559 -0.04171426 -0.05956578
v -0.02616427 -0.04257614 -0.05676231
v -0.02746857 -0.04222341 -0.05598526
v -0.02679296 -0.04175106 -0.05738700
v -0.02778136 -0.04034628 -0.05835535
v -0.02618617 -0.04100266 -0.05892078
v -0.01764094 -0.04665553 -0.05681479
v -0.01729688 -0.04691931 -0.05653038
v -0.01729688 -0.04782721 -0.05471727
v -0.02332107 -0.03980032 -0.06195111
v -0.02287380 -0.04005490 -0.06195111
v -0.04443079 -0.02578931 -0.05267392
v -0.04828740 -0.01882061 -0.05153458
v -0.04779946 -0.01882061 -0.05276195
v -0.04747103 -0.01882061 -0.05357285
v -0.03546643 -0.02925525 -0.06195111
v -0.03474703 -0.03064470 -0.06154989
v -0.03362101 -0.03130415 -0.06195111
v -0.03334264 -0.03159860 -0.06195111
v -0.03449368 -0.03245742 -0.06041055
v -0.03366480 -0.03373338 -0.06006689
v -0.03506920 -0.03302792 -0.05936602
v -0.03435918 -0.03443577 -0.05865838
v -0.03364916 -0.03582215 -0.05794905
v -0.03408706 -0.03625156 -0.05688082
v -0.03513801 -0.03520870 -0.05688082
v -0.03562282 -0.03568412 -0.05563144
v -0.03803751 -0.03393581 -0.05411290
v -0.03938560 -0.03301872 -0.05267392
v -0.04023324 -0.03196667 -0.05267392
v -0.04218501 -0.02967853 -0.05199844
v -0.03684267 -0.03480997 -0.05487132
v -0.04162512 -0.03104957 -0.05056962
v -0.03302047 -0.03948746 -0.05267392
v -0.03196639 -0.04036162 -0.05267392
v -0.03136585 -0.04122657 -0.05133651
v -0.02967995 -0.04231236 -0.05215588
v -0.02996771 -0.04253320 -0.05056962
v -0.02859772 -0.04358832 -0.05056962
v -0.03555401 -0.03773915 -0.05101486
v -0.03166612 -0.04011931 -0.05394699
v -0.02835062 -0.04314358 -0.05263329
v -0.02691808 -0.04397479 -0.05310899
v -0.02623621 -0.04458823 -0.05251309
v -0.03970464 -0.03340826 -0.05094883
v -0.03833465 -0.03427934 -0.05267392
v -0.03768719 -0.03563811 -0.05117568
v -0.03635786 -0.03641105 -0.05267392
v -0.02551368 -0.04438580 -0.05412136
v -0.02203554 -0.04669540 -0.05257911
v -0.01729688 -0.04836396 -0.05344081
v -0.01729688 -0.04675981 -0.05682834
v -0.02623621 -0.04362206 -0.05480361
v -0.02567633 -0.03831579 -0.06195111
v -0.02468794 -0.03895990 -0.06195111
v -0.02416559 -0.03954267 -0.06172934
v -0.02698376 -0.03976658 -0.05975539
v -0.02934840 -0.03784957 -0.05997716
v -0.02794400 -0.03836486 -0.06046811
v -0.02622683 -0.03892616 -0.06107926
v -0.02789396 -0.04253627 -0.05477483
v -0.03121884 -0.03977271 -0.05535211
v -0.02981445 -0.04031254 -0.05627306
v -0.02918575 -0.03984019 -0.05767649
v -0.03010533 -0.03843848 -0.05857374
v -0.02856644 -0.03910099 -0.05916626
v -0.03152537 -0.03341439 -0.06195111
v -0.03268579 -0.03274880 -0.06158036
v -0.03136272 -0.03357388 -0.06195111
v -0.03237927 -0.03455846 -0.06040040
v -0.03154100 -0.03581295 -0.06004657
v -0.03294540 -0.03513509 -0.05935248
v -0.03150973 -0.03788638 -0.05790673
v -0.03271081 -0.03741403 -0.05707550
v -0.03349590 -0.03779130 -0.05558912
v -0.03601693 -0.03608286 -0.05422971
v -0.03741194 -0.03532833 -0.05267392
v -0.03420592 -0.03843541 -0.05267392
v -0.03387437 -0.03812869 -0.05418739
v -0.03525686 -0.03746311 -0.05267392
v -0.03136585 -0.04025120 -0.05414168
v -0.02933902 -0.04202098 -0.05355423
v -0.02687429 -0.03758579 -0.06187154
v -0.02659904 -0.03768087 -0.06195111
v -0.03136272 -0.03781277 -0.05812511
v -0.03067460 -0.03744777 -0.05915779
v -0.03136272 -0.03614727 -0.05986712
v -0.03136272 -0.03589576 -0.06011429
v -0.03047755 -0.03629450 -0.06045457
v -0.02916073 -0.03566572 -0.06195111
v -0.02856644 -0.03701529 -0.06122654
v -0.03136585 -0.03794466 -0.05797614
v -0.03209776 -0.03837100 -0.05650499
v -0.03066209 -0.03910713 -0.05708904
v -0.03136585 -0.03874520 -0.05680463
v -0.03136272 -0.03809802 -0.05776960
v -0.03124074 -0.03369044 -0.06195111
v -0.03057451 -0.03483757 -0.06155158
v -0.03136272 -0.03471795 -0.06104878
v -0.02930774 -0.03553076 -0.06195111
v -0.02700566 -0.03738029 -0.06195111
f 1 2 8
f 1 8 19
f 1 19 18
f 1 18 32
f 1 32 34
f 1 34 33
f 1 33 79
f 1 79 128
f 1 128 188
f 1 188 187
f 1 187 251
f 1 251 250
f 1 250 249
f 1 249 206
f 1 206 138
f 1 138 93
f 1 93 41
f 1 41 23
f 1 23 9
f 1 9 3
f 1 3 4
f 1 4 12
f 1 12 29
f 1 29 73
f 1 73 122
f 1 122 180
f 1 180 179
f 1 179 247
f 1 247 246
f 1 246 291
f 1 291 290
f 1 290 320
f 1 320 337
f 1 337 326
f 1 326 336
f 1 336 333
f 1 333 305
f 1 305 303
f 1 303 255
f 1 255 254
f 1 254 252
f 1 252 205
f 1 205 204
f 1 204 136
f 1 136 90
f 1 90 89
f 1 89 88
f 1 88 80
f 1 80 35
f 1 35 20
f 1 20 14
f 1 14 5
f 1 5 2
f 2 5 6
f 2 6 7
f 2 7 8
f 3 9 10
f 3 10 11
f 3 11 4
f 4 11 26
f 4 26 69
f 4 69 112
f 4 112 159
f 4 159 223
f 4 223 228
f 4 228 227
f 4 227 287
f 4 287 233
f 4 233 245
f 4 245 244
f 4 244 288
f 4 288 229
f 4 229 166
f 4 166 116
f 4 116 74
f 4 74 70
f 4 70 27
f 4 27 12
f 5 13 6
f 5 14 13
f 6 15 16
f 6 16 17
f 6 17 18
f 6 18 19
f 6 19 7
f 6 13 14
f 6 14 20
f 6 20 21
f 6 21 22
f 6 22 15
f 7 19 8
f 9 23 24
f 9 24 25
f 9 25 10
f 10 25 47
f 10 47 99
f 10 99 150
f 10 150 160
f 10 160 113
f 10 113 68
f 10 68 26
f 10 26 11
f 12 27 28
f 12 28 29
f 15 22 30
f 15 30 31
f 15 31 16
f 16 32 17
f 16 31 33
f 16 33 34
f 16 34 32
f 17 32 18
f 20 35 21
f 21 35 36
f 21 36 22
f 22 37 38
f 22 38 30
f 22 36 39
f 22 39 40
f 22 40 37
f 23 41 42
f 23 42 24
f 24 43 25
f 24 42 44
f 24 44 43
f 25 45 46
f 25 46 47
f 25 43 48
f 25 48 49
f 25 49 50
f 25 50 51
f 25 51 52
f 25 52 53
f 25 53 54
f 25 54 55
f 25 55 56
f 25 56 57
f 25 57 58
f 25 58 59
f 25 59 60
f 25 60 61
f 25 61 62
f 25 62 63
f 25 63 64
f 25 64 65
f 25 65 66
f 25 66 67
f 25 67 45
f 26 68 69
f 27 70 28
f 28 71 72
f 28 72 73
f 28 73 29
f 28 70 74
f 28 74 71
f 30 75 76
f 30 76 31
f 30 38 37
f 30 37 75
f 31 76 77
f 31 77 78
f 31 78 79
f 31 79 33
f 35 80 36
f 36 80 81
f 36 81 39
f 37 40 82
f 37 82 83
f 37 83 84
f 37 84 85
f 37 85 86
f 37 86 75
f 39 87 40
f 39 81 88
f 39 88 89
f 39 89 90
f 39 90 91
f 39 91 92
f 39 92 87
f 40 87 82
f 41 93 94
f 41 94 42
f 42 94 44
f 43 44 48
f 44 49 48
f 44 94 95
f 44 95 96
f 44 96 49
f 45 97 46
f 45 67 97
f 46 97 98
f 46 98 47
f 47 98 99
f 49 96 50
f 50 96 51
f 51 96 100
f 51 100 52
f 52 100 53
f 53 100 54
f 54 101 102
f 54 102 55
f 54 100 101
f 55 102 56
f 56 102 103
f 56 103 104
f 56 104 57
f 57 105 58
f 57 104 105
f 58 105 59
f 59 105 106
f 59 106 60
f 60 106 107
f 60 107 61
f 61 107 62
f 62 107 63
f 63 107 64
f 64 107 108
f 64 108 65
f 65 108 109
f 65 109 66
f 66 109 67
f 67 109 110
f 67 110 111
f 67 111 97
f 68 112 69
f 68 113 114
f 68 114 112
f 71 115 72
f 71 74 116
f 71 116 115
f 72 115 117
f 72 117 118
f 72 118 119
f 72 119 120
f 72 120 121
f 72 121 122
f 72 122 73
f 75 86 76
f 76 123 124
f 76 124 125
f 76 125 126
f 76 126 78
f 76 78 77
f 76 86 85
f 76 85 127
f 76 127 123
f 78 126 79
f 79 126 128
f 80 88 81
f 82 87 83
f 83 87 129
f 83 129 130
f 83 130 131
f 83 131 85
f 83 85 84
f 85 132 127
f 85 131 130
f 85 130 133
f 85 133 134
f 85 134 132
f 87 92 135
f 87 135 129
f 90 136 91
f 91 136 137
f 91 137 92
f 92 137 135
f 93 138 139
f 93 139 94
f 94 139 95
f 95 100 96
f 95 139 140
f 95 140 141
f 95 141 142
f 95 142 143
f 95 143 100
f 97 144 145
f 97 145 146
f 97 146 147
f 97 147 98
f 97 111 148
f 97 148 144
f 98 147 149
f 98 149 99
f 99 149 150
f 100 143 101
f 101 143 151
f 101 151 102
f 102 151 152
f 102 152 103
f 103 152 153
f 103 153 104
f 104 153 105
f 105 153 154
f 105 154 106
f 106 155 107
f 106 154 155
f 107 155 156
f 107 156 108
f 108 157 109
f 108 156 157
f 109 157 158
f 109 158 110
f 110 148 111
f 110 158 148
f 112 114 159
f 113 160 161
f 113 161 114
f 114 161 162
f 114 162 163
f 114 163 164
f 114 164 165
f 114 165 159
f 115 116 166
f 115 166 117
f 117 167 168
f 117 168 169
f 117 169 170
f 117 170 171
f 117 171 172
f 117 172 118
f 117 166 173
f 117 173 174
f 117 174 175
f 117 175 167
f 118 172 176
f 118 176 119
f 119 176 177
f 119 177 178
f 119 178 179
f 119 179 180
f 119 180 121
f 119 121 120
f 121 180 122
f 123 127 181
f 123 181 182
f 123 182 183
f 123 183 124
f 124 184 185
f 124 185 186
f 124 186 125
f 124 183 184
f 125 186 126
f 126 186 187
f 126 187 188
f 126 188 128
f 127 189 181
f 127 132 189
f 129 135 130
f 130 190 133
f 130 135 191
f 130 191 192
f 130 192 193
f 130 193 194
f 130 194 195
f 130 195 196
f 130 196 190
f 132 134 197
f 132 197 198
f 132 198 199
f 132 199 200
f 132 200 189
f 133 190 134
f 134 190 201
f 134 201 202
f 134 202 197
f 135 137 203
f 135 203 192
f 135 192 191
f 136 204 137
f 137 204 205
f 137 205 203
f 138 206 207
f 138 207 139
f 139 207 184
f 139 184 182
f 139 182 208
f 139 208 140
f 140 182 141
f 140 208 182
f 141 182 209
f 141 209 142
f 142 210 211
f 142 211 152
f 142 152 151
f 142 151 143
f 142 209 210
f 144 148 212
f 144 212 213
f 144 213 145
f 145 213 214
f 145 214 215
f 145 215 146
f 146 215 216
f 146 216 147
f 147 216 149
f 148 158 217
f 148 217 212
f 149 162 218
f 149 218 161
f 149 161 160
f 149 160 150
f 149 216 219
f 149 219 162
f 152 211 220
f 152 220 154
f 152 154 153
f 154 220 155
f 155 220 156
f 156 221 157
f 156 220 221
f 157 222 158
f 157 221 222
f 158 222 217
f 159 165 223
f 161 218 162
f 162 224 225
f 162 225 163
f 162 219 224
f 163 225 164
f 164 225 224
f 164 224 226
f 164 226 227
f 164 227 228
f 164 228 223
f 164 223 165
f 166 229 175
f 166 175 173
f 167 230 231
f 167 231 232
f 167 232 168
f 167 175 233
f 167 233 234
f 167 234 230
f 168 232 169
f 169 232 235
f 169 235 170
f 170 236 237
f 170 237 171
f 170 235 231
f 170 231 238
f 170 238 239
f 170 239 240
f 170 240 241
f 170 241 242
f 170 242 236
f 171 237 176
f 171 176 172
f 173 175 174
f 175 229 243
f 175 243 244
f 175 244 245
f 175 245 233
f 176 237 236
f 176 236 177
f 177 246 247
f 177 247 178
f 177 236 246
f 178 247 179
f 181 248 182
f 181 189 200
f 181 200 248
f 182 184 183
f 182 248 210
f 182 210 209
f 184 207 185
f 185 207 249
f 185 249 250
f 185 250 186
f 186 250 251
f 186 251 187
f 190 196 201
f 192 194 193
f 192 203 205
f 192 205 252
f 192 252 253
f 192 253 254
f 192 254 255
f 192 255 256
f 192 256 257
f 192 257 258
f 192 258 194
f 194 258 257
f 194 257 259
f 194 259 260
f 194 260 261
f 194 261 262
f 194 262 263
f 194 263 195
f 195 263 196
f 196 263 201
f 197 202 264
f 197 264 265
f 197 265 266
f 197 266 267
f 197 267 198
f 198 267 199
f 199 267 210
f 199 210 200
f 200 210 248
f 201 264 202
f 201 263 268
f 201 268 264
f 206 249 207
f 210 267 211
f 211 267 269
f 211 269 220
f 212 270 271
f 212 271 272
f 212 272 213
f 212 217 270
f 213 272 214
f 214 273 219
f 214 219 274
f 214 274 215
f 214 272 273
f 215 274 275
f 215 275 216
f 216 275 219
f 217 222 276
f 217 276 270
f 219 275 274
f 219 273 277
f 219 277 278
f 219 278 279
f 219 279 280
f 219 280 224
f 220 266 281
f 220 281 282
f 220 282 283
f 220 283 221
f 220 269 266
f 221 283 284
f 221 284 276
f 221 276 222
f 224 280 285
f 224 285 230
f 224 230 286
f 224 286 226
f 226 286 227
f 227 286 230
f 227 230 287
f 229 288 243
f 230 285 231
f 230 234 287
f 231 285 289
f 231 289 239
f 231 239 238
f 231 235 232
f 233 287 234
f 236 290 291
f 236 291 292
f 236 292 246
f 236 242 293
f 236 293 294
f 236 294 295
f 236 295 296
f 236 296 290
f 239 297 298
f 239 298 299
f 239 299 300
f 239 300 240
f 239 289 297
f 240 300 241
f 241 300 301
f 241 301 302
f 241 302 293
f 241 293 242
f 243 288 244
f 246 292 291
f 252 254 253
f 255 303 304
f 255 304 256
f 256 304 257
f 257 304 303
f 257 303 305
f 257 305 306
f 257 306 307
f 257 307 308
f 257 308 259
f 259 308 260
f 260 308 307
f 260 307 309
f 260 309 310
f 260 310 261
f 261 310 311
f 261 311 263
f 261 263 262
f 263 311 312
f 263 312 268
f 264 282 265
f 264 268 312
f 264 312 313
f 264 313 282
f 265 282 281
f 265 281 266
f 266 269 267
f 270 277 271
f 270 276 314
f 270 314 315
f 270 315 277
f 271 277 273
f 271 273 272
f 276 284 316
f 276 316 314
f 277 298 317
f 277 317 297
f 277 297 318
f 277 318 278
f 277 315 311
f 277 311 298
f 278 318 297
f 278 297 279
f 279 289 285
f 279 285 280
f 279 297 289
f 282 313 283
f 283 313 284
f 284 313 312
f 284 312 316
f 290 296 319
f 290 319 320
f 293 302 294
f 294 321 322
f 294 322 323
f 294 323 307
f 294 307 324
f 294 324 325
f 294 325 326
f 294 326 327
f 294 327 319
f 294 319 295
f 294 302 301
f 294 301 328
f 294 328 309
f 294 309 321
f 295 319 296
f 297 317 298
f 298 329 299
f 298 311 329
f 299 330 300
f 299 329 331
f 299 331 330
f 300 330 332
f 300 332 309
f 300 309 328
f 300 328 301
f 305 333 334
f 305 334 335
f 305 335 306
f 306 335 307
f 307 335 334
f 307 334 336
f 307 336 324
f 307 323 321
f 307 321 309
f 309 332 329
f 309 329 311
f 309 311 310
f 311 315 312
f 312 315 316
f 314 316 315
f 319 337 320
f 319 327 326
f 319 326 337
f 321 323 322
f 324 336 325
f 325 336 326
f 329 332 331
f 330 331 332
f 333 336 334

