# https://github.com/mikedh/trimesh
v 0.02816879 -0.03203433 -0.06195110
v 0.02816879 -0.04244423 -0.04464240
v 0.02816879 -0.03657341 -0.06195110
v 0.00033684 -0.04256210 -0.06195110
v 0.00033684 -0.05122874 -0.04464240
v 0.02816879 -0.04517595 -0.04464240
v 0.02816879 -0.03720205 -0.06144113
v 0.02693466 -0.03759496 -0.06189011
v 0.02688562 -0.03754533 -0.06195110
v 0.00033684 -0.04616855 -0.06195110
v 0.00033684 -0.05314570 -0.04464240
v 0.02816879 -0.04502499 -0.04627737
v 0.02686111 -0.04598450 -0.04464240
v 0.02669492 -0.04593073 -0.04636039
v 0.02816879 -0.03816984 -0.06061940
v 0.02630534 -0.03894324 -0.06108533
v 0.02423756 -0.03955121 -0.06173762
v 0.02573867 -0.03831046 -0.06195110
v 0.02805982 -0.03840558 -0.06048725
v 0.00033684 -0.04711979 -0.06091421
v 0.00109421 -0.04618716 -0.06195110
v 0.00033684 -0.05311261 -0.04501175
v 0.00070735 -0.05315190 -0.04464240
v 0.02816879 -0.04472307 -0.04832575
v 0.02600021 -0.04650148 -0.04464240
v 0.02564332 -0.04651595 -0.04636039
v 0.02544172 -0.04640842 -0.04783610
v 0.02813883 -0.04472100 -0.04846468
v 0.02816879 -0.03853172 -0.06027885
v 0.02567874 -0.04026464 -0.06028055
v 0.02313420 -0.03999788 -0.06195110
v 0.02344750 -0.03980349 -0.06195110
v 0.02708178 -0.03980970 -0.05981124
v 0.00109421 -0.04711979 -0.06092437
v 0.00033684 -0.04817236 -0.05968755
v 0.00251904 -0.04613339 -0.06195110
v 0.00320013 -0.04708463 -0.06088540
v 0.00033684 -0.05298854 -0.04636039
v 0.00109421 -0.05315811 -0.04464240
v 0.02816879 -0.04470033 -0.04846468
v 0.02580678 -0.04660901 -0.04464240
v 0.02150776 -0.04863557 -0.04636039
v 0.02127074 -0.04852184 -0.04799537
v 0.02438740 -0.04683028 -0.04850873
v 0.02386705 -0.04668139 -0.05056897
v 0.02775197 -0.04446458 -0.05056897
v 0.02816879 -0.04467758 -0.04855786
v 0.02816879 -0.03938784 -0.05941308
v 0.02423756 -0.04175768 -0.05962656
v 0.02313692 -0.04208854 -0.06000946
v 0.02423756 -0.04070718 -0.06068548
v 0.02295166 -0.04009921 -0.06195110
v 0.02630806 -0.04104838 -0.05896410
v 0.02816879 -0.04012402 -0.05860152
v 0.02798899 -0.04042801 -0.05840838
v 0.00109421 -0.04817236 -0.05968925
v 0.00033684 -0.04861489 -0.05901323
v 0.00109421 -0.04886304 -0.05863710
v 0.00317016 -0.04610651 -0.06195110
v 0.00320013 -0.04611891 -0.06193755
v 0.00530333 -0.04699985 -0.06079730
v 0.00320013 -0.04813720 -0.05964520
v 0.00033684 -0.05290582 -0.04698050
v 0.00109421 -0.05299681 -0.04636039
v 0.00281055 -0.05311882 -0.04464240
v 0.00320013 -0.05294925 -0.04636039
v 0.02167667 -0.04872036 -0.04464240
v 0.02002844 -0.04922906 -0.04636039
v 0.02020824 -0.04884650 -0.04860361
v 0.02102827 -0.04837295 -0.04939822
v 0.02747953 -0.04428260 -0.05178715
v 0.02349381 -0.04648287 -0.05205146
v 0.02816879 -0.04417714 -0.05056897
v 0.02553435 -0.04226225 -0.05811696
v 0.02141241 -0.04439220 -0.05816101
v 0.02002844 -0.04388763 -0.05963503
v 0.01887331 -0.04415853 -0.05997727
v 0.02173660 -0.04243802 -0.06036865
v 0.02238500 -0.04119727 -0.06121409
v 0.02423756 -0.04260552 -0.05857441
v 0.02002844 -0.04174940 -0.06180201
v 0.02002844 -0.04156743 -0.06195110
v 0.02816879 -0.04066168 -0.05790179
v 0.02816879 -0.04125931 -0.05706990
v 0.02693739 -0.04183005 -0.05749177
v 0.00320013 -0.04886097 -0.05859305
v 0.00033684 -0.04886097 -0.05863541
v 0.00033684 -0.05043879 -0.05575684
v 0.00320013 -0.04610444 -0.06195110
v 0.00530333 -0.04602793 -0.06184945
v 0.00530333 -0.04805242 -0.05951643
v 0.00740653 -0.04687577 -0.06066854
v 0.00530333 -0.04878653 -0.05846429
v 0.00033684 -0.05275073 -0.04808177
v 0.00109421 -0.05275487 -0.04808347
v 0.00320013 -0.05272591 -0.04795979
v 0.00320013 -0.05310848 -0.04464240
v 0.00483746 -0.05268662 -0.04772767
v 0.00544499 -0.05279622 -0.04652473
v 0.00532785 -0.05298440 -0.04464240
v 0.00491647 -0.05300922 -0.04464240
v 0.02140423 -0.04882789 -0.04464240
v 0.01687636 -0.05053806 -0.04532180
v 0.01961706 -0.04866452 -0.05056897
v 0.01523631 -0.05067040 -0.04810041
v 0.01918116 -0.04850736 -0.05186000
v 0.02066866 -0.04821372 -0.05056897
v 0.02816879 -0.04359192 -0.05244792
v 0.02636255 -0.04468998 -0.05256313
v 0.02707905 -0.04402411 -0.05319001
v 0.02221064 -0.04683855 -0.05272070
v 0.02156225 -0.04655111 -0.05421505
v 0.02296529 -0.04617061 -0.05345262
v 0.02567601 -0.04446044 -0.05416761
v 0.02627810 -0.04260966 -0.05682592
v 0.02363003 -0.04446251 -0.05622784
v 0.02281272 -0.04403032 -0.05763070
v 0.02002844 -0.04470033 -0.05858458
v 0.01946450 -0.04655318 -0.05618718
v 0.01839928 -0.04609410 -0.05759004
v 0.01793614 -0.04528555 -0.05899121
v 0.01747027 -0.04447492 -0.06031274
v 0.01932556 -0.04191898 -0.06195110
v 0.02816879 -0.04154261 -0.05662769
v 0.02761575 -0.04227052 -0.05608891
v 0.00320013 -0.05092476 -0.05461659
v 0.00109421 -0.05042639 -0.05574836
v 0.00109421 -0.05094130 -0.05469622
v 0.00033684 -0.05076759 -0.05508251
v 0.00530333 -0.04591419 -0.06195110
v 0.00740653 -0.04564950 -0.06195110
v 0.00740653 -0.04590385 -0.06172068
v 0.00740653 -0.04792628 -0.05930973
v 0.00950972 -0.04669173 -0.06045845
v 0.00530333 -0.05082550 -0.05446580
v 0.00740653 -0.04863971 -0.05825928
v 0.00740653 -0.04936761 -0.05688183
v 0.00033684 -0.05157201 -0.05267326
v 0.00109421 -0.05157201 -0.05267326
v 0.00320013 -0.05154720 -0.05267326
v 0.00530333 -0.05142106 -0.05267326
v 0.00950972 -0.05144587 -0.05056897
v 0.00624051 -0.05257909 -0.04733629
v 0.00690525 -0.05271351 -0.04593343
v 0.00740108 -0.05276520 -0.04464240
v 0.01694720 -0.05056080 -0.04464240
v 0.01543246 -0.05098266 -0.04464240
v 0.01371884 -0.05133834 -0.04636039
v 0.01589015 -0.05073864 -0.04615877
v 0.01792524 -0.04923941 -0.05056897
v 0.01392317 -0.05093716 -0.04866630
v 0.01475955 -0.05052151 -0.04950327
v 0.01790345 -0.04875137 -0.05260718
v 0.01718694 -0.04855492 -0.05399479
v 0.02816879 -0.04352575 -0.05262412
v 0.02816879 -0.04266136 -0.05466064
v 0.02816879 -0.04274407 -0.05446580
v 0.02143965 -0.04648494 -0.05446580
v 0.02429477 -0.04483267 -0.05483345
v 0.02505759 -0.04462795 -0.05446580
v 0.02011017 -0.04689232 -0.05486056
v 0.02553980 -0.04437359 -0.05446580
v 0.02816879 -0.04247731 -0.05502660
v 0.02503307 -0.04404893 -0.05557216
v 0.02086754 -0.04617888 -0.05561790
v 0.01676194 -0.04846393 -0.05446580
v 0.01581932 -0.04826128 -0.05550269
v 0.01778902 -0.04678065 -0.05688522
v 0.01699896 -0.04637534 -0.05800344
v 0.01581932 -0.04582320 -0.05935717
v 0.01581932 -0.04477270 -0.06063296
v 0.01581932 -0.04372427 -0.06168510
v 0.01766098 -0.04266342 -0.06195110
v 0.01873165 -0.04219194 -0.06195110
v 0.00512625 -0.05083997 -0.05446580
v 0.00109421 -0.05101368 -0.05446580
v 0.00033684 -0.05093716 -0.05470469
v 0.00950972 -0.04523178 -0.06195110
v 0.00950972 -0.04569913 -0.06151059
v 0.00963777 -0.04785183 -0.05885905
v 0.00902207 -0.04851770 -0.05807460
v 0.01119337 -0.04649321 -0.06022972
v 0.00530333 -0.05083170 -0.05445055
v 0.00740653 -0.05020926 -0.05518078
v 0.00740653 -0.05068488 -0.05412694
v 0.00963777 -0.04896644 -0.05706820
v 0.00740653 -0.05115843 -0.05267326
v 0.00949883 -0.05081723 -0.05277661
v 0.01161565 -0.05068901 -0.05212092
v 0.01161565 -0.05111707 -0.05056897
v 0.01161565 -0.05152859 -0.04846468
v 0.00840636 -0.05256875 -0.04464240
v 0.01371884 -0.05144587 -0.04464240
v 0.01330474 -0.05072003 -0.05056897
v 0.01282798 -0.05058148 -0.05176343
v 0.01580842 -0.04876585 -0.05446580
v 0.01581932 -0.04747961 -0.05688183
v 0.01475955 -0.04842257 -0.05582461
v 0.01581932 -0.04659867 -0.05830333
v 0.01371884 -0.04693574 -0.05875739
v 0.01371884 -0.04613546 -0.05980954
v 0.01259641 -0.04629469 -0.06001285
v 0.01353086 -0.04491746 -0.06119037
v 0.01411660 -0.04402618 -0.06195110
v 0.01581932 -0.04341615 -0.06195110
v 0.01287430 -0.04437566 -0.06195110
v 0.01042511 -0.04838122 -0.05789501
v 0.01178456 -0.04711565 -0.05918096
v 0.00815300 -0.05041191 -0.05446580
v 0.00878777 -0.05058355 -0.05385755
v 0.01161565 -0.04882789 -0.05659550
v 0.01392317 -0.04902021 -0.05498425
v 0.01576755 -0.04877619 -0.05446580
v 0.01392317 -0.04807310 -0.05688692
v 0.01335923 -0.04861696 -0.05618888
v 0.01161565 -0.04824060 -0.05764764
f 1 2 6
f 1 6 12
f 1 12 24
f 1 24 40
f 1 40 47
f 1 47 73
f 1 73 108
f 1 108 155
f 1 155 157
f 1 157 156
f 1 156 163
f 1 163 124
f 1 124 84
f 1 84 83
f 1 83 54
f 1 54 48
f 1 48 29
f 1 29 15
f 1 15 7
f 1 7 3
f 1 3 9
f 1 9 18
f 1 18 32
f 1 32 31
f 1 31 52
f 1 52 82
f 1 82 123
f 1 123 174
f 1 174 173
f 1 173 205
f 1 205 204
f 1 204 206
f 1 206 178
f 1 178 131
f 1 131 130
f 1 130 89
f 1 89 59
f 1 59 36
f 1 36 21
f 1 21 10
f 1 10 4
f 1 4 5
f 1 5 2
f 2 5 11
f 2 11 23
f 2 23 39
f 2 39 65
f 2 65 97
f 2 97 101
f 2 101 100
f 2 100 145
f 2 145 192
f 2 192 193
f 2 193 147
f 2 147 146
f 2 146 102
f 2 102 67
f 2 67 41
f 2 41 25
f 2 25 13
f 2 13 6
f 3 7 8
f 3 8 9
f 4 10 20
f 4 20 35
f 4 35 57
f 4 57 87
f 4 87 88
f 4 88 129
f 4 129 177
f 4 177 138
f 4 138 94
f 4 94 63
f 4 63 38
f 4 38 22
f 4 22 11
f 4 11 5
f 6 13 14
f 6 14 12
f 7 15 8
f 8 16 17
f 8 17 18
f 8 18 9
f 8 15 19
f 8 19 16
f 10 21 20
f 11 22 23
f 12 14 24
f 13 25 14
f 14 25 26
f 14 26 27
f 14 27 28
f 14 28 24
f 15 29 19
f 16 30 17
f 16 19 30
f 17 30 31
f 17 31 32
f 17 32 18
f 19 29 33
f 19 33 30
f 20 21 34
f 20 34 35
f 21 36 37
f 21 37 34
f 22 38 39
f 22 39 23
f 24 28 40
f 25 41 26
f 26 41 42
f 26 42 27
f 27 42 43
f 27 43 44
f 27 44 45
f 27 45 46
f 27 46 28
f 28 46 47
f 28 47 40
f 29 48 33
f 30 49 50
f 30 50 51
f 30 51 31
f 30 33 49
f 31 51 50
f 31 50 52
f 33 53 49
f 33 48 54
f 33 54 55
f 33 55 53
f 34 37 56
f 34 56 35
f 35 56 58
f 35 58 57
f 36 59 60
f 36 60 37
f 37 60 61
f 37 61 62
f 37 62 56
f 38 63 64
f 38 64 39
f 39 64 66
f 39 66 65
f 41 67 42
f 42 67 68
f 42 68 43
f 43 68 69
f 43 69 70
f 43 70 44
f 44 70 45
f 45 71 46
f 45 70 72
f 45 72 71
f 46 71 73
f 46 73 47
f 49 53 74
f 49 74 50
f 50 75 76
f 50 76 77
f 50 77 78
f 50 78 79
f 50 79 52
f 50 74 80
f 50 80 75
f 52 79 81
f 52 81 82
f 53 55 74
f 54 83 55
f 55 83 84
f 55 84 85
f 55 85 74
f 56 62 86
f 56 86 58
f 57 58 87
f 58 88 87
f 58 86 88
f 59 89 60
f 60 89 90
f 60 90 61
f 61 91 62
f 61 90 132
f 61 132 92
f 61 92 91
f 62 91 93
f 62 93 86
f 63 94 95
f 63 95 64
f 64 95 96
f 64 96 66
f 65 66 97
f 66 96 98
f 66 98 99
f 66 99 100
f 66 100 101
f 66 101 97
f 67 102 68
f 68 102 103
f 68 103 69
f 69 104 70
f 69 103 105
f 69 105 104
f 70 104 106
f 70 106 107
f 70 107 72
f 71 108 73
f 71 72 109
f 71 109 110
f 71 110 108
f 72 107 106
f 72 106 111
f 72 111 112
f 72 112 113
f 72 113 114
f 72 114 109
f 74 85 115
f 74 115 116
f 74 116 117
f 74 117 75
f 74 75 80
f 75 118 77
f 75 77 76
f 75 117 119
f 75 119 120
f 75 120 118
f 77 121 122
f 77 122 78
f 77 118 121
f 78 81 79
f 78 122 81
f 81 122 123
f 81 123 82
f 84 124 125
f 84 125 85
f 85 125 115
f 86 93 126
f 86 126 127
f 86 127 88
f 88 127 128
f 88 128 129
f 89 130 90
f 90 130 131
f 90 131 132
f 91 92 133
f 91 133 93
f 92 132 134
f 92 134 133
f 93 135 126
f 93 133 136
f 93 136 137
f 93 137 135
f 94 138 95
f 95 139 140
f 95 140 96
f 95 138 139
f 96 140 98
f 98 140 141
f 98 141 142
f 98 142 143
f 98 143 144
f 98 144 99
f 99 144 100
f 100 144 145
f 102 146 103
f 103 146 147
f 103 147 148
f 103 148 149
f 103 149 105
f 104 150 106
f 104 105 150
f 105 148 151
f 105 151 152
f 105 152 150
f 105 149 148
f 106 150 153
f 106 153 154
f 106 154 112
f 106 112 111
f 108 110 155
f 109 114 110
f 110 114 156
f 110 156 157
f 110 157 155
f 112 158 116
f 112 116 159
f 112 159 160
f 112 160 114
f 112 114 113
f 112 154 161
f 112 161 119
f 112 119 158
f 114 160 116
f 114 116 162
f 114 162 125
f 114 125 163
f 114 163 156
f 115 164 116
f 115 125 164
f 116 158 165
f 116 165 119
f 116 119 117
f 116 164 162
f 116 160 159
f 118 120 121
f 119 154 166
f 119 166 167
f 119 167 168
f 119 168 120
f 119 165 158
f 119 161 154
f 120 168 169
f 120 169 121
f 121 169 170
f 121 170 122
f 122 170 171
f 122 171 172
f 122 172 173
f 122 173 174
f 122 174 123
f 124 163 125
f 125 162 164
f 126 135 175
f 126 175 141
f 126 141 140
f 126 140 128
f 126 128 127
f 128 140 176
f 128 176 177
f 128 177 129
f 131 178 132
f 132 178 179
f 132 179 134
f 133 134 180
f 133 180 181
f 133 181 136
f 134 179 182
f 134 182 180
f 135 183 175
f 135 137 184
f 135 184 185
f 135 185 183
f 136 181 186
f 136 186 137
f 137 186 184
f 138 177 176
f 138 176 139
f 139 176 140
f 141 175 183
f 141 183 185
f 141 185 187
f 141 187 142
f 142 188 189
f 142 189 190
f 142 190 191
f 142 191 143
f 142 187 188
f 143 191 144
f 144 191 145
f 145 191 192
f 147 193 148
f 148 193 192
f 148 192 191
f 148 191 151
f 150 152 153
f 151 191 194
f 151 194 152
f 152 194 195
f 152 195 153
f 153 195 154
f 154 195 196
f 154 196 166
f 166 196 167
f 167 197 168
f 167 196 198
f 167 198 197
f 168 197 169
f 169 197 199
f 169 199 170
f 170 199 200
f 170 200 201
f 170 201 171
f 171 201 202
f 171 202 203
f 171 203 204
f 171 204 172
f 172 205 173
f 172 204 205
f 178 206 179
f 179 206 182
f 180 182 207
f 180 207 181
f 181 207 186
f 182 206 204
f 182 204 203
f 182 203 202
f 182 202 200
f 182 200 208
f 182 208 207
f 184 186 209
f 184 209 185
f 185 209 210
f 185 210 187
f 186 210 209
f 186 207 211
f 186 211 210
f 187 210 188
f 188 210 189
f 189 195 190
f 189 210 195
f 190 195 194
f 190 194 191
f 195 212 213
f 195 213 196
f 195 210 212
f 196 213 212
f 196 212 198
f 197 198 214
f 197 214 199
f 198 212 215
f 198 215 214
f 199 214 200
f 200 214 216
f 200 216 207
f 200 207 208
f 200 202 201
f 207 216 211
f 210 211 212
f 211 216 215
f 211 215 212
f 214 215 216

