# https://github.com/mikedh/trimesh
v 0.01479086 -0.04858560 0.05833696
v 0.01231584 -0.04874920 0.05839261
v 0.01464690 -0.04874920 0.05832107
v 0.01479086 -0.04874920 0.05831312
v 0.01479086 -0.04731769 0.05832902
v -0.01574261 -0.04737983 0.05832107
v -0.01574261 -0.04810660 0.05823363
v 0.01036461 -0.04874920 0.05836877
v 0.01479086 -0.04874920 0.05411582
v 0.01479086 -0.04660587 0.05813028
v -0.01650227 -0.04567382 0.05800309
v -0.01650227 -0.04737983 0.05827337
v -0.01650227 -0.04810660 0.05815413
v 0.00033280 -0.04874920 0.05798719
v 0.01246287 -0.04874920 -0.01273092
v 0.01479086 -0.04776995 -0.01478187
v 0.01479086 -0.04616855 0.05790770
v -0.01650227 -0.04461592 0.05722405
v -0.01650227 -0.04810660 -0.02281874
v 0.00033280 -0.04874920 -0.01986950
v 0.01233115 -0.04874920 -0.01478187
v 0.01479086 -0.04772276 -0.01688847
v 0.01479086 -0.04591135 0.05760562
v -0.01650227 -0.04416759 0.05663579
v -0.01650227 -0.04405747 -0.02032262
v 0.01371570 -0.04574067 -0.01855785
v 0.00817140 -0.04874920 -0.02021133
v 0.00609152 -0.04874920 -0.02021928
v 0.00108940 -0.04874920 -0.01996490
v 0.00049821 -0.04874920 -0.01989335
v 0.01232196 -0.04874920 -0.01490906
v 0.01213511 -0.04874920 -0.01688847
v 0.01158681 -0.04874920 -0.01898712
v 0.01479086 -0.04748916 -0.01755622
v 0.01479086 -0.04529549 0.05679478
v -0.01650227 -0.04392533 0.05630191
v -0.01650227 -0.04402837 -0.02020338
v 0.01479086 -0.04500525 -0.01689642
v 0.01479086 -0.04582405 -0.01835911
v 0.01479086 -0.04653665 -0.01851015
v 0.00966621 -0.04874920 -0.01985360
v 0.01479086 -0.04711240 -0.01851015
v 0.01479086 -0.04470007 0.05561826
v 0.01479086 -0.04445703 0.05506180
v -0.01650227 -0.04345340 0.05477563
v -0.01650227 -0.04390724 -0.01898712
v 0.01479086 -0.04133760 0.02095876
v 0.01479086 -0.04430759 0.05456894
v 0.01479086 -0.04412747 0.05394093
v 0.01479086 -0.04405983 0.05362296
v 0.01479086 -0.04383330 0.05254183
v -0.01650227 -0.04312856 0.05251004
v -0.01650227 -0.04100332 0.01886011
v 0.01479086 -0.04126917 0.02200808
v 0.01479086 -0.04355015 0.05048293
v 0.01479086 -0.04316160 0.04727932
v -0.01650227 -0.04212336 0.04412339
v -0.01650227 -0.04089006 0.02097466
v 0.01479086 -0.04120625 0.02308126
v 0.01479086 -0.04183548 0.03571290
v -0.01650227 -0.04189998 0.04225528
v -0.01650227 -0.04080118 0.02307331
v -0.01650227 -0.04072331 0.02518786
v -0.01650227 -0.04071466 0.02620538
v -0.01650227 -0.04072567 0.02728650
v 0.01479086 -0.04125973 0.02517990
v 0.01479086 -0.04162784 0.03359835
v -0.01650227 -0.04169941 0.04045871
v -0.01650227 -0.04076264 0.02821659
v 0.01479086 -0.04149334 0.03145200
v 0.01479086 -0.04129277 0.02621333
v -0.01650227 -0.04103478 0.03363015
v -0.01650227 -0.04123692 0.03571290
v -0.01650227 -0.04081297 0.02939310
v -0.01650227 -0.04090500 0.03149970
f 1 2 3
f 1 3 4
f 1 4 9
f 1 9 16
f 1 16 22
f 1 22 34
f 1 34 42
f 1 42 40
f 1 40 39
f 1 39 38
f 1 38 47
f 1 47 54
f 1 54 59
f 1 59 66
f 1 66 71
f 1 71 70
f 1 70 67
f 1 67 60
f 1 60 56
f 1 56 55
f 1 55 51
f 1 51 50
f 1 50 49
f 1 49 48
f 1 48 44
f 1 44 43
f 1 43 35
f 1 35 23
f 1 23 17
f 1 17 10
f 1 10 5
f 1 5 2
f 2 5 6
f 2 6 7
f 2 7 8
f 2 8 14
f 2 14 20
f 2 20 30
f 2 30 29
f 2 29 28
f 2 28 27
f 2 27 41
f 2 41 33
f 2 33 32
f 2 32 31
f 2 31 21
f 2 21 15
f 2 15 9
f 2 9 4
f 2 4 3
f 5 10 11
f 5 11 6
f 6 12 7
f 6 11 12
f 7 12 13
f 7 13 14
f 7 14 8
f 9 15 16
f 10 17 11
f 11 17 18
f 11 18 24
f 11 24 36
f 11 36 45
f 11 45 52
f 11 52 57
f 11 57 61
f 11 61 68
f 11 68 73
f 11 73 72
f 11 72 75
f 11 75 74
f 11 74 69
f 11 69 65
f 11 65 64
f 11 64 63
f 11 63 62
f 11 62 58
f 11 58 53
f 11 53 46
f 11 46 37
f 11 37 25
f 11 25 19
f 11 19 13
f 11 13 12
f 13 19 20
f 13 20 14
f 15 21 22
f 15 22 16
f 17 23 18
f 18 23 24
f 19 25 26
f 19 26 27
f 19 27 28
f 19 28 29
f 19 29 30
f 19 30 20
f 21 31 22
f 22 31 32
f 22 32 33
f 22 33 34
f 23 35 24
f 24 35 36
f 25 37 38
f 25 38 26
f 26 38 39
f 26 39 40
f 26 40 27
f 27 40 41
f 33 42 34
f 33 41 42
f 35 43 36
f 36 43 44
f 36 44 45
f 37 46 38
f 38 46 47
f 40 42 41
f 44 48 45
f 45 48 49
f 45 49 50
f 45 50 51
f 45 51 52
f 46 53 47
f 47 53 54
f 51 55 52
f 52 55 56
f 52 56 57
f 53 58 59
f 53 59 54
f 56 60 61
f 56 61 57
f 58 62 59
f 59 63 64
f 59 64 65
f 59 65 66
f 59 62 63
f 60 67 68
f 60 68 61
f 65 69 70
f 65 70 71
f 65 71 66
f 67 72 73
f 67 73 68
f 67 70 72
f 69 74 70
f 70 74 75
f 70 75 72

