# https://github.com/mikedh/trimesh
v -0.00102075 0.05102201 0.05800070
v -0.00312055 0.05099730 0.05800070
v -0.00732861 0.04942373 0.05811349
v -0.00102075 0.04976666 0.05800070
v -0.00102075 0.05207244 0.05741414
v -0.00522373 0.05090770 0.05798941
v -0.00943180 0.04942373 0.05809093
v -0.01795460 0.04754327 0.05797813
v -0.01392942 0.04754327 0.05800070
v -0.01370082 0.04754327 0.05800070
v -0.00732861 0.04814674 0.05793301
v -0.00732861 0.05080781 0.05797813
v -0.00560136 0.04826105 0.05786533
v -0.00102075 0.04871521 0.05768486
v -0.00102075 0.05288600 0.05636511
v -0.00312055 0.05204978 0.05734646
v -0.00943180 0.05068629 0.05793301
v -0.01363816 0.04910139 0.05800070
v -0.01574304 0.04874095 0.05795557
v -0.01832037 0.04754327 0.05795557
v -0.01832037 0.04316445 -0.05712163
v -0.01208533 0.04754327 0.05789917
v -0.01030219 0.04754327 0.05775253
v -0.00842423 0.04754327 0.05757206
v -0.00419754 0.04838566 0.05779765
v -0.00102075 0.04758858 0.05662455
v -0.00102075 0.05328866 0.05465057
v -0.00312055 0.05283966 0.05629743
v -0.00522373 0.05278405 0.05615080
v -0.00522373 0.05196019 0.05719982
v -0.01098294 0.05056477 0.05786533
v -0.01832037 0.04837536 0.05780894
v -0.01737377 0.04849689 0.05786533
v -0.01832037 0.04604590 -0.05712163
v -0.00102075 0.04699849 -0.05712163
v -0.00102075 0.04754327 0.05652303
v -0.00312055 0.05320422 0.05465057
v -0.00102075 0.05343901 0.05254124
v -0.00312055 0.05335972 0.05254124
v -0.00522373 0.05305798 0.05465057
v -0.00686124 0.05269548 0.05593648
v -0.01238506 0.05038147 0.05776382
v -0.01363816 0.05015387 0.05752694
v -0.01363816 0.05087269 0.05647791
v -0.01512834 0.05062656 0.05607184
v -0.01832037 0.04870903 0.05730134
v -0.01832037 0.04652683 -0.05629821
v -0.01819845 0.04609430 -0.05712163
v -0.00102075 0.04942991 -0.05712163
v -0.00102075 0.05351831 0.05043190
v -0.00312055 0.05343078 0.05043190
v -0.00522373 0.05317229 0.05254124
v -0.00732861 0.05289733 0.05254124
v -0.00746916 0.05275315 0.05466185
v -0.00826336 0.05255542 0.05537248
v -0.01162473 0.05105291 0.05694039
v -0.01363816 0.05137731 0.05465057
v -0.01579553 0.05072748 0.05443625
v -0.01653216 0.05035881 0.05500025
v -0.01832037 0.04961219 0.05497769
v -0.01832037 0.04893765 0.05682759
v -0.01832037 0.04718797 -0.05476414
v -0.01525365 0.04856485 -0.05412119
v -0.01784622 0.04660715 -0.05645612
v -0.01784622 0.04621891 -0.05712163
v -0.00282082 0.04941034 -0.05712163
v -0.00102075 0.04946080 -0.05711036
v -0.00102075 0.05356877 0.04833385
v -0.00312055 0.05347403 0.04833385
v -0.00522373 0.05328763 0.04833385
v -0.00522373 0.05324232 0.05043190
v -0.00732861 0.05298280 0.05043190
v -0.00895426 0.05270166 0.05043190
v -0.00873751 0.05265326 0.05254124
v -0.00851737 0.05260692 0.05397378
v -0.01363816 0.05150500 0.05254124
v -0.01574304 0.05093448 0.05254124
v -0.01679463 0.05047621 0.05360155
v -0.01763624 0.05001794 0.05443625
v -0.01832037 0.04973164 0.05449266
v -0.01832037 0.04789341 -0.05276761
v -0.01730095 0.04854940 -0.05216977
v -0.01587004 0.04884291 -0.05279017
v -0.01363816 0.04947522 -0.05266609
v -0.01073062 0.05052976 -0.05179754
v -0.01356365 0.04875949 -0.05480926
v -0.01357720 0.04756180 -0.05712163
v -0.01584634 0.04685946 -0.05712163
v -0.01729418 0.04640943 -0.05712163
v -0.01281179 0.04843612 -0.05594853
v -0.00312055 0.04940313 -0.05712163
v -0.00102075 0.05074808 -0.05443702
v -0.00102075 0.05361099 0.04622451
v -0.00312055 0.05351522 0.04622451
v -0.00522373 0.05332368 0.04622451
v -0.00732861 0.05303017 0.04833385
v -0.00907957 0.05272843 0.04833385
v -0.01574304 0.05107042 0.04833385
v -0.01574304 0.05101687 0.05043190
v -0.01047492 0.05256881 0.04084401
v -0.01691147 0.05051534 0.05254124
v -0.01706727 0.05056889 0.05043190
v -0.01832037 0.04993040 0.05254124
v -0.01832037 0.04869358 -0.05042139
v -0.01793936 0.04877699 -0.05062443
v -0.01285920 0.05054727 -0.04980100
v -0.00943180 0.05109307 -0.05055675
v -0.00943180 0.05067393 -0.05222617
v -0.01147232 0.05068217 -0.05052291
v -0.01153498 0.04923630 -0.05476414
v -0.01153498 0.04860192 -0.05627565
v -0.01173480 0.04808496 -0.05712163
v -0.00491723 0.04928058 -0.05712163
v -0.00312055 0.05072645 -0.05436935
v -0.00312055 0.05131654 -0.05266609
v -0.00102075 0.05135259 -0.05266609
v -0.00102075 0.05364704 0.04412646
v -0.00312055 0.05355024 0.04412646
v -0.00522373 0.05335045 0.04412646
v -0.00732861 0.05306519 0.04622451
v -0.00919303 0.05275006 0.04622451
v -0.01574304 0.05111779 0.04622451
v -0.01714347 0.05059670 0.04833385
v -0.01051556 0.05258838 0.03944531
v -0.01832037 0.05001485 0.05043190
v -0.01832037 0.04908491 -0.04845870
v -0.01784622 0.04925380 -0.04845870
v -0.01473717 0.05049063 -0.04747735
v -0.01359075 0.05064407 -0.04828950
v -0.01153498 0.05108895 -0.04845870
v -0.00732861 0.05142365 -0.05055675
v -0.00745053 0.05083973 -0.05283529
v -0.00943180 0.05145351 -0.04845870
v -0.00683076 0.05056065 -0.05396327
v -0.00823457 0.05038455 -0.05364744
v -0.00930648 0.04878729 -0.05694116
v -0.00917779 0.04872448 -0.05712163
v -0.01153498 0.04813747 -0.05712163
v -0.00698993 0.04908182 -0.05712163
v -0.00522373 0.05065643 -0.05420015
v -0.00522373 0.05117649 -0.05266609
v -0.00522373 0.05160696 -0.05055675
v -0.00102075 0.05258117 -0.04650728
v -0.00102075 0.05367382 0.04201712
v -0.00312055 0.05357598 0.04201712
v -0.00732861 0.05308784 0.04412646
v -0.00522373 0.05337310 0.04201712
v -0.00928108 0.05276345 0.04412646
v -0.01574304 0.05115692 0.04412646
v -0.01726708 0.05064098 0.04412646
v -0.01720951 0.05062038 0.04622451
v -0.00943180 0.05279846 0.03780973
v -0.01054435 0.05259353 0.03780973
v -0.01574304 0.05120224 0.03990778
v -0.01574304 0.05118576 0.04201712
v -0.00936745 0.05277169 0.04201712
v -0.00963839 0.05274285 0.04005442
v -0.01732297 0.05066055 0.04201712
v -0.01832037 0.05019919 0.04011082
v -0.01832037 0.04914568 -0.04798494
v -0.01832037 0.04937944 -0.04587561
v -0.01493191 0.05054315 -0.04634936
v -0.01363816 0.05088608 -0.04634936
v -0.01153498 0.05136598 -0.04634936
v -0.00630919 0.05258529 -0.04326996
v -0.00254480 0.05260383 -0.04562745
v -0.00732861 0.04916627 -0.05687348
v -0.00732861 0.04903651 -0.05712163
v -0.00102075 0.05262545 -0.04627040
v -0.00102075 0.05368514 0.03990778
v -0.00312055 0.05358937 0.03990778
v -0.00522373 0.05339267 0.03990778
v -0.00732861 0.05310432 0.04201712
v -0.01737038 0.05067393 0.03990778
v -0.00732861 0.05311977 0.03990778
v -0.00732861 0.05314551 0.03570039
v -0.00732861 0.05315787 0.03360234
v -0.00732861 0.05316920 0.03150429
v -0.00943180 0.05281906 0.03360234
v -0.01056467 0.05259765 0.03570039
v -0.01574304 0.05121150 0.03780973
v -0.01741949 0.05068835 0.03570039
v -0.01740086 0.05068114 0.03780973
v -0.01832037 0.05020227 0.03990778
v -0.01832037 0.04951023 -0.04425131
v -0.01524518 0.05063480 -0.04425131
v -0.01363816 0.05107866 -0.04425131
v -0.01153498 0.05151942 -0.04425131
v -0.00654119 0.05262442 -0.04214197
v -0.00522373 0.05284584 -0.04003263
v -0.00522373 0.05272329 -0.04214197
v -0.00312055 0.05283451 -0.04214197
v -0.00522373 0.05261310 -0.04366475
v -0.00102075 0.05263060 -0.04620272
v -0.00102075 0.05367484 0.02308950
v -0.00312055 0.05358525 0.01467472
v -0.00522373 0.05341945 0.02939495
v -0.00522373 0.05341430 0.03360234
v -0.00522373 0.05341018 0.03570039
v -0.00522373 0.05340400 0.03780973
v -0.00522373 0.05342460 0.02308950
v -0.00522373 0.05342357 0.02518756
v -0.01832037 0.05022596 0.03806917
v -0.01832037 0.05022905 0.03780973
v -0.00732861 0.05317744 0.02939495
v -0.00943180 0.05282627 0.03150429
v -0.01057991 0.05260074 0.03360234
v -0.01574304 0.05125887 0.02518756
v -0.01574304 0.05125167 0.02728561
v -0.01742796 0.05069453 0.03360234
v -0.01832037 0.05024038 0.03570039
v -0.01832037 0.04964411 -0.04214197
v -0.01547548 0.05070380 -0.04214197
v -0.01363816 0.05121974 -0.04214197
v -0.00837512 0.05257396 -0.03685171
v -0.00689849 0.05267694 -0.04003263
v -0.00312055 0.05298383 -0.04003263
v -0.00522373 0.05292307 -0.03793458
v -0.00312055 0.05308064 -0.03793458
v -0.00102075 0.05291277 -0.04214197
v -0.00102075 0.05365116 -0.00215484
v -0.00312055 0.05357495 -0.00005679
v -0.00522373 0.05341224 -0.00005679
v -0.00732861 0.05318362 0.02728561
v -0.00732861 0.05318774 0.02308950
v -0.00732861 0.05318671 0.02098017
v -0.00943180 0.05282936 0.02939495
v -0.01060362 0.05260692 0.01256539
v -0.01574304 0.05127741 -0.00215484
v -0.01744150 0.05070586 0.02728561
v -0.01743981 0.05070174 0.02939495
v -0.01743473 0.05069865 0.03150429
v -0.01832037 0.05024759 0.02939495
v -0.01832037 0.04975533 -0.04003263
v -0.01681495 0.05048341 -0.03715627
v -0.01562789 0.05075529 -0.04003263
v -0.01363816 0.05130934 -0.04003263
v -0.00847503 0.05259662 -0.03544173
v -0.00753520 0.05271093 -0.03601700
v -0.00717959 0.05270578 -0.03793458
v -0.01363816 0.05138142 -0.03793458
v -0.00522373 0.05298692 -0.03582524
v -0.00102075 0.05305592 -0.04003263
v -0.00102075 0.05315169 -0.03793458
v -0.00522373 0.05304562 -0.03372719
v -0.00312055 0.05313419 -0.03582524
v -0.00102075 0.05364601 -0.00426418
v -0.00312055 0.05357186 -0.00215484
v -0.00522373 0.05340812 -0.00215484
v -0.00732861 0.05314036 -0.00426418
v -0.00732861 0.05314449 -0.00215484
v -0.00943180 0.05282833 0.01045605
v -0.00943180 0.05282627 0.00835800
v -0.01059515 0.05260485 0.00835800
v -0.01574304 0.05127844 -0.00426418
v -0.01744658 0.05071513 -0.00005679
v -0.01832037 0.05025377 -0.00390322
v -0.01832037 0.04985831 -0.03790074
v -0.01686067 0.05049784 -0.03582524
v -0.01574304 0.05085415 -0.03582524
v -0.01593100 0.05073778 -0.03787818
v -0.00859188 0.05261619 -0.03372719
v -0.00732861 0.05283657 -0.03162914
v -0.00732861 0.05279228 -0.03372719
v -0.01363816 0.05143085 -0.03582524
v -0.00312055 0.05318671 -0.03372719
v -0.00102075 0.05329793 -0.03162914
v -0.00522373 0.05308887 -0.03162914
v -0.00312055 0.05323408 -0.03162914
v -0.00102075 0.05363983 -0.00636223
v -0.00312055 0.05356362 -0.00426418
v -0.00522373 0.05339473 -0.00636223
v -0.00522373 0.05340194 -0.00426418
v -0.00732861 0.05313419 -0.00636223
v -0.00943180 0.05282112 0.00624866
v -0.01058668 0.05260280 0.00624866
v -0.01744658 0.05070998 -0.00426418
v -0.01744828 0.05071307 -0.00215484
v -0.01053080 0.05258941 -0.00215484
v -0.01051556 0.05258632 -0.00426418
v -0.01049693 0.05258323 -0.00585464
v -0.01574304 0.05126608 -0.00636223
v -0.01744320 0.05070586 -0.00636223
v -0.01832037 0.05025068 -0.00601255
v -0.01832037 0.04990877 -0.03582524
v -0.01692672 0.05052049 -0.03372719
v -0.01574304 0.05089741 -0.03372719
v -0.00870703 0.05263678 -0.03162914
v -0.00732861 0.05297868 -0.02320307
v -0.01574304 0.05109513 -0.02320307
v -0.01574304 0.05112500 -0.02110502
v -0.00928108 0.05273152 -0.01899568
v -0.00920996 0.05271402 -0.02110502
v -0.00102075 0.05334633 -0.02951980
v -0.00522373 0.05325262 -0.02110502
v -0.00312055 0.05347815 -0.01689763
v -0.00102075 0.05356568 -0.01689763
v -0.00102075 0.05353067 -0.01899568
v -0.00102075 0.05363468 -0.00763686
v -0.00312055 0.05354715 -0.00847157
v -0.00395878 0.05348639 -0.00763686
v -0.00522373 0.05338546 -0.00847157
v -0.00732861 0.05311874 -0.01058090
v -0.00732861 0.05312698 -0.00847157
v -0.00732861 0.05313007 -0.00763686
v -0.00943180 0.05278919 -0.00426418
v -0.00950630 0.05276345 -0.00763686
v -0.00937930 0.05277581 -0.01058090
v -0.00935221 0.05277169 -0.01269024
v -0.00933189 0.05276345 -0.01478829
v -0.00930818 0.05274903 -0.01689763
v -0.01574304 0.05116928 -0.01689763
v -0.01736869 0.05068217 -0.01269024
v -0.01742626 0.05069659 -0.00847157
v -0.01743304 0.05070071 -0.00763686
v -0.01806636 0.05037529 -0.00763686
v -0.01832037 0.05024347 -0.00763686
v -0.01832037 0.05024964 -0.00636223
v -0.01832037 0.04994173 -0.03372719
v -0.01719935 0.05061833 -0.02320307
v -0.00732861 0.05300855 -0.02110502
v -0.01732974 0.05067291 -0.01478829
v -0.00732861 0.05308784 -0.01478829
v -0.00732861 0.05306416 -0.01689763
v -0.00522373 0.05328145 -0.01899568
v -0.00312055 0.05350389 -0.01478829
v -0.00102075 0.05358937 -0.01478829
v -0.00102075 0.05363056 -0.00847157
v -0.00312055 0.05353685 -0.01058090
v -0.00522373 0.05337414 -0.01058090
v -0.00732861 0.05310741 -0.01269024
v -0.01832037 0.05006016 -0.02531241
v -0.01832037 0.05023729 -0.00847157
v -0.01832037 0.05024038 -0.00815573
v -0.00522373 0.05335457 -0.01269024
v -0.00312055 0.05352140 -0.01269024
v -0.00102075 0.05360379 -0.01269024
f 1 2 3
f 1 3 4
f 1 4 14
f 1 14 26
f 1 26 36
f 1 36 35
f 1 35 49
f 1 49 67
f 1 67 92
f 1 92 116
f 1 116 143
f 1 143 169
f 1 169 194
f 1 194 220
f 1 220 243
f 1 243 244
f 1 244 267
f 1 267 294
f 1 294 298
f 1 298 297
f 1 297 327
f 1 327 337
f 1 337 328
f 1 328 299
f 1 299 270
f 1 270 247
f 1 247 221
f 1 221 195
f 1 195 170
f 1 170 144
f 1 144 117
f 1 117 93
f 1 93 68
f 1 68 50
f 1 50 38
f 1 38 27
f 1 27 15
f 1 15 5
f 1 5 2
f 2 6 3
f 2 5 6
f 3 7 8
f 3 8 9
f 3 9 10
f 3 10 11
f 3 11 4
f 3 6 12
f 3 12 7
f 4 11 13
f 4 13 14
f 5 15 16
f 5 16 12
f 5 12 6
f 7 12 17
f 7 17 18
f 7 18 8
f 8 18 19
f 8 19 20
f 8 20 21
f 8 21 9
f 9 21 10
f 10 21 22
f 10 22 11
f 11 22 23
f 11 23 13
f 12 16 17
f 13 23 24
f 13 24 25
f 13 25 14
f 14 24 26
f 14 25 24
f 15 27 28
f 15 28 16
f 16 28 29
f 16 29 30
f 16 30 17
f 17 31 19
f 17 19 18
f 17 30 31
f 19 31 32
f 19 32 33
f 19 33 20
f 20 33 32
f 20 32 46
f 20 46 61
f 20 61 60
f 20 60 80
f 20 80 103
f 20 103 125
f 20 125 159
f 20 159 184
f 20 184 203
f 20 203 204
f 20 204 211
f 20 211 233
f 20 233 257
f 20 257 284
f 20 284 318
f 20 318 317
f 20 317 334
f 20 334 333
f 20 333 332
f 20 332 319
f 20 319 285
f 20 285 258
f 20 258 234
f 20 234 212
f 20 212 185
f 20 185 161
f 20 161 160
f 20 160 126
f 20 126 104
f 20 104 81
f 20 81 62
f 20 62 47
f 20 47 34
f 20 34 21
f 21 34 48
f 21 48 65
f 21 65 89
f 21 89 88
f 21 88 87
f 21 87 112
f 21 112 138
f 21 138 137
f 21 137 168
f 21 168 139
f 21 139 113
f 21 113 91
f 21 91 66
f 21 66 49
f 21 49 35
f 21 35 36
f 21 36 24
f 21 24 23
f 21 23 22
f 24 36 26
f 27 37 28
f 27 38 39
f 27 39 37
f 28 37 29
f 29 37 40
f 29 40 41
f 29 41 31
f 29 31 30
f 31 42 32
f 31 41 42
f 32 42 43
f 32 43 44
f 32 44 45
f 32 45 46
f 34 47 48
f 37 39 40
f 38 50 39
f 39 50 51
f 39 51 52
f 39 52 40
f 40 52 53
f 40 53 54
f 40 54 41
f 41 54 55
f 41 55 44
f 41 44 56
f 41 56 42
f 42 56 44
f 42 44 43
f 44 55 45
f 45 55 57
f 45 57 58
f 45 58 59
f 45 59 60
f 45 60 61
f 45 61 46
f 47 62 63
f 47 63 64
f 47 64 48
f 48 64 65
f 49 66 67
f 50 68 51
f 51 68 69
f 51 69 70
f 51 70 71
f 51 71 52
f 52 71 72
f 52 72 53
f 53 72 73
f 53 73 74
f 53 74 54
f 54 74 75
f 54 75 55
f 55 75 57
f 57 75 74
f 57 74 76
f 57 76 77
f 57 77 58
f 58 77 78
f 58 78 59
f 59 78 79
f 59 79 80
f 59 80 60
f 62 81 82
f 62 82 83
f 62 83 63
f 63 83 84
f 63 84 85
f 63 85 86
f 63 86 64
f 64 87 88
f 64 88 89
f 64 89 65
f 64 86 90
f 64 90 87
f 66 91 67
f 67 91 92
f 68 93 69
f 69 93 94
f 69 94 70
f 70 94 95
f 70 95 96
f 70 96 71
f 71 96 72
f 72 96 97
f 72 97 73
f 73 76 74
f 73 97 76
f 76 98 99
f 76 99 77
f 76 97 100
f 76 100 98
f 77 101 78
f 77 99 102
f 77 102 101
f 78 80 79
f 78 101 103
f 78 103 80
f 81 104 82
f 82 104 105
f 82 105 83
f 83 105 106
f 83 106 85
f 83 85 84
f 85 107 108
f 85 108 86
f 85 106 109
f 85 109 107
f 86 110 111
f 86 111 90
f 86 108 110
f 87 90 112
f 90 111 112
f 91 113 114
f 91 114 92
f 92 114 115
f 92 115 116
f 93 117 94
f 94 117 118
f 94 118 95
f 95 118 119
f 95 119 120
f 95 120 96
f 96 120 121
f 96 121 97
f 97 121 100
f 98 122 123
f 98 123 99
f 98 100 122
f 99 123 102
f 100 124 122
f 100 121 124
f 101 102 103
f 102 123 125
f 102 125 103
f 104 126 127
f 104 127 128
f 104 128 105
f 105 128 106
f 106 128 129
f 106 129 130
f 106 130 107
f 106 107 109
f 107 131 132
f 107 132 108
f 107 130 133
f 107 133 131
f 108 132 134
f 108 134 135
f 108 135 110
f 110 135 134
f 110 134 111
f 111 136 137
f 111 137 138
f 111 138 112
f 111 134 136
f 113 139 140
f 113 140 114
f 114 140 115
f 115 140 141
f 115 141 142
f 115 142 143
f 115 143 116
f 117 144 118
f 118 144 145
f 118 145 119
f 119 146 120
f 119 145 147
f 119 147 146
f 120 146 148
f 120 148 121
f 121 148 124
f 122 149 150
f 122 150 151
f 122 151 123
f 122 124 149
f 123 151 125
f 124 152 153
f 124 153 154
f 124 154 155
f 124 155 149
f 124 148 156
f 124 156 157
f 124 157 152
f 125 151 150
f 125 150 158
f 125 158 159
f 126 160 128
f 126 128 127
f 128 130 129
f 128 160 161
f 128 161 162
f 128 162 163
f 128 163 164
f 128 164 130
f 130 164 133
f 131 141 132
f 131 133 165
f 131 165 166
f 131 166 142
f 131 142 141
f 132 141 134
f 133 164 165
f 134 141 140
f 134 140 167
f 134 167 136
f 136 167 137
f 137 167 168
f 139 168 167
f 139 167 140
f 142 166 169
f 142 169 143
f 144 170 171
f 144 171 145
f 145 171 172
f 145 172 147
f 146 147 172
f 146 172 173
f 146 173 152
f 146 152 156
f 146 156 148
f 149 155 174
f 149 174 158
f 149 158 150
f 152 157 156
f 152 173 175
f 152 175 176
f 152 176 177
f 152 177 178
f 152 178 179
f 152 179 153
f 153 179 180
f 153 180 154
f 154 180 181
f 154 181 182
f 154 182 183
f 154 183 155
f 155 183 174
f 158 174 159
f 159 174 184
f 161 185 186
f 161 186 162
f 162 186 187
f 162 187 163
f 163 187 164
f 164 187 188
f 164 188 189
f 164 189 165
f 165 189 190
f 165 190 191
f 165 191 192
f 165 192 193
f 165 193 166
f 166 194 169
f 166 193 192
f 166 192 194
f 170 195 196
f 170 196 171
f 171 197 198
f 171 198 199
f 171 199 200
f 171 200 172
f 171 196 201
f 171 201 202
f 171 202 197
f 172 175 173
f 172 200 178
f 172 178 177
f 172 177 176
f 172 176 175
f 174 203 184
f 174 183 204
f 174 204 203
f 178 205 179
f 178 200 205
f 179 205 206
f 179 206 180
f 180 206 207
f 180 207 208
f 180 208 209
f 180 209 181
f 181 210 182
f 181 209 210
f 182 211 204
f 182 204 183
f 182 210 211
f 185 212 213
f 185 213 186
f 186 213 214
f 186 214 187
f 187 214 188
f 188 214 215
f 188 215 189
f 189 216 190
f 189 215 216
f 190 217 191
f 190 216 218
f 190 218 219
f 190 219 217
f 191 217 192
f 192 217 194
f 194 217 220
f 195 221 222
f 195 222 196
f 196 222 223
f 196 223 201
f 197 224 198
f 197 202 225
f 197 225 224
f 198 224 199
f 199 224 205
f 199 205 200
f 201 226 225
f 201 225 202
f 201 223 226
f 205 224 206
f 206 224 227
f 206 227 207
f 207 227 228
f 207 228 229
f 207 229 208
f 208 229 230
f 208 230 231
f 208 231 232
f 208 232 210
f 208 210 209
f 210 232 211
f 211 232 231
f 211 231 230
f 211 230 233
f 212 234 235
f 212 235 213
f 213 236 214
f 213 235 236
f 214 236 237
f 214 237 215
f 215 238 239
f 215 239 240
f 215 240 216
f 215 237 241
f 215 241 238
f 216 240 242
f 216 242 218
f 217 243 220
f 217 219 243
f 218 242 219
f 219 244 243
f 219 242 245
f 219 245 246
f 219 246 244
f 221 247 248
f 221 248 222
f 222 248 223
f 223 248 249
f 223 249 250
f 223 250 251
f 223 251 226
f 224 225 227
f 225 226 252
f 225 252 227
f 226 253 252
f 226 251 253
f 227 252 228
f 228 252 254
f 228 254 255
f 228 255 229
f 229 255 230
f 230 255 256
f 230 256 233
f 233 256 257
f 234 258 235
f 235 259 260
f 235 260 261
f 235 261 236
f 235 258 259
f 236 261 241
f 236 241 237
f 238 262 263
f 238 263 264
f 238 264 239
f 238 241 262
f 239 264 245
f 239 245 240
f 240 245 242
f 241 261 260
f 241 260 265
f 241 265 262
f 244 246 266
f 244 266 267
f 245 266 246
f 245 264 263
f 245 263 268
f 245 268 269
f 245 269 266
f 247 270 248
f 248 270 271
f 248 271 272
f 248 272 273
f 248 273 249
f 249 273 250
f 250 273 274
f 250 274 275
f 250 275 253
f 250 253 251
f 252 253 254
f 253 275 276
f 253 276 254
f 254 276 255
f 255 277 278
f 255 278 256
f 255 276 279
f 255 279 280
f 255 280 281
f 255 281 282
f 255 282 283
f 255 283 277
f 256 278 257
f 257 278 284
f 258 285 259
f 259 285 286
f 259 286 260
f 260 286 287
f 260 287 265
f 262 288 263
f 262 265 288
f 263 288 289
f 263 289 268
f 265 287 290
f 265 290 291
f 265 291 292
f 265 292 293
f 265 293 288
f 266 269 294
f 266 294 267
f 268 289 295
f 268 295 296
f 268 296 269
f 269 296 297
f 269 297 298
f 269 298 294
f 270 299 300
f 270 300 271
f 271 300 301
f 271 301 272
f 272 301 302
f 272 302 303
f 272 303 304
f 272 304 305
f 272 305 273
f 273 305 274
f 274 306 275
f 274 305 306
f 275 306 280
f 275 280 276
f 276 280 279
f 277 284 278
f 277 283 284
f 280 306 307
f 280 307 308
f 280 308 281
f 281 308 309
f 281 309 310
f 281 310 311
f 281 311 291
f 281 291 312
f 281 312 282
f 282 312 313
f 282 313 314
f 282 314 315
f 282 315 283
f 283 315 316
f 283 316 317
f 283 317 318
f 283 318 284
f 285 319 320
f 285 320 286
f 286 320 290
f 286 290 287
f 288 293 289
f 289 293 321
f 289 321 295
f 290 320 291
f 291 311 292
f 291 320 322
f 291 322 312
f 292 311 323
f 292 323 324
f 292 324 321
f 292 321 293
f 295 321 325
f 295 325 296
f 296 325 326
f 296 326 297
f 297 326 327
f 299 328 329
f 299 329 300
f 300 329 302
f 300 302 301
f 302 329 330
f 302 330 331
f 302 331 303
f 303 331 309
f 303 309 308
f 303 308 304
f 304 308 305
f 305 308 306
f 306 308 307
f 309 331 310
f 310 331 311
f 311 331 323
f 312 322 313
f 313 322 332
f 313 332 333
f 313 333 314
f 314 333 334
f 314 334 315
f 315 334 316
f 316 334 317
f 319 332 320
f 320 332 322
f 321 324 325
f 323 331 335
f 323 335 324
f 324 335 325
f 325 335 326
f 326 335 330
f 326 330 336
f 326 336 327
f 327 336 329
f 327 329 337
f 328 337 329
f 329 336 330
f 330 335 331

