# https://github.com/mikedh/trimesh
v -0.01650583 -0.04737998 0.05828286
v -0.02837365 -0.04106327 0.05827278
v -0.02626830 -0.04317031 0.05825262
v -0.01784967 -0.04737998 0.05820222
v -0.01650583 -0.04892161 0.05806110
v -0.01650583 -0.04567270 0.05801071
v -0.03894242 -0.02855353 0.05797039
v -0.03889203 -0.03054793 0.05811150
v -0.03687066 -0.03481503 0.05808126
v -0.03477091 -0.03694415 0.05811150
v -0.03264875 -0.03904236 0.05810143
v -0.03045661 -0.04107652 0.05809134
v -0.02820287 -0.04308196 0.05803086
v -0.02626830 -0.04449108 0.05796031
v -0.02428053 -0.04516030 0.05805102
v -0.02399776 -0.04525306 0.05806110
v -0.02206039 -0.04659592 0.05798047
v -0.01784967 -0.04866099 0.05796031
v -0.01650583 -0.04995967 0.05694225
v -0.03771336 -0.02929342 0.05786959
v -0.01650583 -0.04461476 0.05723456
v -0.03962554 -0.02855353 0.05799055
v -0.03732421 -0.02855353 0.05672050
v -0.04110097 -0.02855353 0.05803086
v -0.04126055 -0.02855353 0.05803086
v -0.03886683 -0.03255117 0.05801071
v -0.03814731 -0.03415022 0.05794015
v -0.03622674 -0.03630144 0.05798047
v -0.03412698 -0.03839523 0.05799055
v -0.03136370 -0.04066350 0.05802079
v -0.02973989 -0.04231999 0.05793007
v -0.02739096 -0.04426580 0.05783935
v -0.02318865 -0.04636180 0.05783935
v -0.01891355 -0.04843792 0.05780911
v -0.02139126 -0.04859915 0.05597459
v -0.01650583 -0.05041907 0.05617619
v -0.01650583 -0.04416420 0.05663986
v -0.03729341 -0.02855353 0.05669026
v -0.04194927 -0.02941490 0.05775871
v -0.04048784 -0.03054793 0.05796031
v -0.04312513 -0.02855353 0.05712369
v -0.04006509 -0.03178035 0.05786959
v -0.03762937 -0.03555271 0.05763775
v -0.03552682 -0.03770393 0.05765791
v -0.03199083 -0.04037859 0.05797039
v -0.03339347 -0.03979772 0.05762768
v -0.03114253 -0.04178329 0.05751680
v -0.03136370 -0.04197102 0.05707329
v -0.03136370 -0.04258944 0.05628706
v -0.02951592 -0.04428567 0.05580324
v -0.02820287 -0.04456618 0.05660962
v -0.02554038 -0.04650536 0.05599475
v -0.02428053 -0.04672843 0.05658946
v -0.02399776 -0.04677702 0.05672050
v -0.01683339 -0.05054938 0.05573268
v -0.02163763 -0.04870517 0.05464406
v -0.01650583 -0.05060681 0.05585364
v -0.01650583 -0.04392125 0.05630723
v -0.03640032 -0.02855353 0.05469446
v -0.04327352 -0.02855353 0.05701281
v -0.04154052 -0.03054793 0.05735552
v -0.03954995 -0.03318505 0.05748656
v -0.04023867 -0.03403096 0.05607539
v -0.03820890 -0.03619984 0.05623667
v -0.03688746 -0.03695299 0.05694225
v -0.03614555 -0.03832014 0.05624675
v -0.03477091 -0.03906003 0.05694225
v -0.03401499 -0.04036092 0.05622659
v -0.03183965 -0.04237520 0.05610563
v -0.03203562 -0.04252539 0.05464406
v -0.03136370 -0.04303117 0.05464406
v -0.03064139 -0.04357449 0.05464406
v -0.02958871 -0.04433868 0.05464406
v -0.02575596 -0.04662683 0.05464406
v -0.01695938 -0.05059797 0.05464406
v -0.01650583 -0.05075478 0.05464406
v -0.02585394 -0.04667543 0.05254748
v -0.02173842 -0.04874934 0.05254748
v -0.01714696 -0.05067527 0.05254748
v -0.01650583 -0.04345081 0.05477510
v -0.03598876 -0.02855353 0.05254748
v -0.04338550 -0.02855353 0.05688177
v -0.04214805 -0.03175164 0.05584356
v -0.04043745 -0.03426286 0.05464406
v -0.03949676 -0.03531638 0.05464406
v -0.03844408 -0.03645163 0.05464406
v -0.03745579 -0.03750515 0.05464406
v -0.03640312 -0.03859622 0.05464406
v -0.03534764 -0.03964974 0.05464406
v -0.03429776 -0.04059945 0.05464406
v -0.03309110 -0.04165077 0.05464406
v -0.03315549 -0.04173470 0.05254748
v -0.03210281 -0.04256294 0.05254748
v -0.03136370 -0.04307534 0.05360585
v -0.03068618 -0.04361425 0.05254748
v -0.03071698 -0.04365180 0.05044081
v -0.02963350 -0.04436298 0.05254748
v -0.02591554 -0.04670855 0.05044081
v -0.01650583 -0.05083209 0.05350505
v -0.02182241 -0.04879130 0.05044081
v -0.01724495 -0.05071724 0.05044081
v -0.01650583 -0.05089172 0.05254748
v -0.01650583 -0.04312614 0.05250716
v -0.03580119 -0.02855353 0.05149918
v -0.04443538 -0.02855353 0.05464406
v -0.04224884 -0.03189962 0.05464406
v -0.04149012 -0.03295314 0.05464406
v -0.04155452 -0.03305032 0.05254748
v -0.04050184 -0.03435342 0.05254748
v -0.03958914 -0.03540694 0.05254748
v -0.03853647 -0.03656647 0.05254748
v -0.03755938 -0.03762000 0.05254748
v -0.03650670 -0.03870002 0.05254748
v -0.03546243 -0.03975355 0.05254748
v -0.03441255 -0.04068117 0.05254748
v -0.03319749 -0.04176341 0.05044081
v -0.03214481 -0.04260269 0.05044081
v -0.03136370 -0.04314602 0.05155966
v -0.03136370 -0.04317694 0.05044081
v -0.03074777 -0.04368272 0.04833414
v -0.02969510 -0.04440052 0.04833414
v -0.02594353 -0.04673506 0.04833414
v -0.02188121 -0.04882223 0.04833414
v -0.02192040 -0.04884210 0.04622747
v -0.02194560 -0.04885977 0.04412080
v -0.01728414 -0.05072607 0.04833414
v -0.01650583 -0.05098448 0.04833414
v -0.01650583 -0.05096240 0.05044081
v -0.01650583 -0.05092927 0.05147902
v -0.03526645 -0.02855353 0.04833414
v -0.03534204 -0.02855353 0.04879780
v -0.01650583 -0.04212121 0.04412080
v -0.04456417 -0.02855353 0.05305146
v -0.04417221 -0.02952312 0.04965458
v -0.04232443 -0.03199680 0.05254748
v -0.04237482 -0.03205201 0.05044081
v -0.04242241 -0.03210281 0.04833414
v -0.04160491 -0.03315413 0.04833414
v -0.03963394 -0.03544449 0.05044081
v -0.04163851 -0.03319388 0.04622747
v -0.04058583 -0.03446827 0.04622747
v -0.03858406 -0.03664378 0.05044081
v -0.03762377 -0.03769730 0.05044081
v -0.03657390 -0.03873536 0.05044081
v -0.03549882 -0.03978668 0.05044081
v -0.03444894 -0.04071209 0.05044081
v -0.03322549 -0.04178329 0.04833414
v -0.03217561 -0.04263140 0.04833414
v -0.03077577 -0.04370260 0.04622747
v -0.02974829 -0.04443807 0.04412080
v -0.02596593 -0.04675715 0.04622747
v -0.02598273 -0.04678144 0.04412080
v -0.02308227 -0.04838050 0.03570419
v -0.02196800 -0.04887302 0.04201413
v -0.02199319 -0.04888407 0.03991753
v -0.02201559 -0.04889511 0.03781086
v -0.01746052 -0.05077466 0.03570419
v -0.01650583 -0.05107504 0.03781086
v -0.01650583 -0.04189814 0.04224596
v -0.01650583 -0.04169936 0.04045176
v -0.01650583 -0.04123554 0.03570419
v -0.03498928 -0.02855353 0.04622747
v -0.04460056 -0.02855353 0.05254748
v -0.04470415 -0.02855353 0.05092463
v -0.04468175 -0.02862862 0.05039041
v -0.04475734 -0.02855353 0.04957394
v -0.04419461 -0.02956067 0.04833414
v -0.04347509 -0.03061198 0.04833414
v -0.04350309 -0.03065173 0.04622747
v -0.04245041 -0.03214036 0.04622747
v -0.03965914 -0.03547982 0.04833414
v -0.04166650 -0.03321376 0.04413087
v -0.04061382 -0.03449477 0.04413087
v -0.03967874 -0.03551958 0.04622747
v -0.03860646 -0.03667249 0.04833414
v -0.03764337 -0.03772601 0.04833414
v -0.03553802 -0.03980876 0.04622747
v -0.03450494 -0.04076731 0.04413087
v -0.03446854 -0.04073197 0.04833414
v -0.03325068 -0.04180095 0.04622747
v -0.03219801 -0.04264907 0.04622747
v -0.03136370 -0.04329179 0.04413087
v -0.03079817 -0.04370922 0.04412080
v -0.02979029 -0.04447120 0.03990745
v -0.02604992 -0.04681236 0.03780079
v -0.02428053 -0.04775987 0.03570419
v -0.02309347 -0.04839816 0.03359753
v -0.02203239 -0.04890174 0.03570419
v -0.01747732 -0.05077908 0.03359753
v -0.01650583 -0.05109492 0.03477685
v -0.01650583 -0.05109050 0.03570419
v -0.01650583 -0.04103235 0.03361768
v -0.03411018 -0.02855353 0.03933291
v -0.04472375 -0.02855353 0.05046096
v -0.04479934 -0.02855353 0.04833414
v -0.04480494 -0.02855353 0.04813254
v -0.04510170 -0.02855353 0.03552276
v -0.04421981 -0.02960042 0.04622747
v -0.04424500 -0.02963576 0.04413087
v -0.04429260 -0.02969760 0.03990745
v -0.04431500 -0.02972411 0.03780079
v -0.04434859 -0.02976607 0.03359753
v -0.04246161 -0.03216465 0.04413087
v -0.04247841 -0.03217570 0.04201413
v -0.04168050 -0.03322701 0.04201413
v -0.04062782 -0.03451907 0.04201413
v -0.03969273 -0.03554829 0.04413087
v -0.03970673 -0.03557038 0.04201413
v -0.03971513 -0.03558805 0.03990745
v -0.03769936 -0.03777681 0.03780079
v -0.03560521 -0.03986839 0.03569411
v -0.03557161 -0.03983526 0.04201413
v -0.03555481 -0.03982201 0.04413087
v -0.03452173 -0.04078056 0.04201413
v -0.03330668 -0.04184292 0.03990745
v -0.03327028 -0.04181863 0.04413087
v -0.03221760 -0.04265791 0.04413087
v -0.03081777 -0.04371585 0.04201413
v -0.03086536 -0.04374235 0.03570419
v -0.02980428 -0.04448224 0.03780079
v -0.02607792 -0.04681678 0.03570419
v -0.02416294 -0.04783938 0.03359753
v -0.02416294 -0.04785263 0.03149085
v -0.02309906 -0.04840700 0.03149085
v -0.02204079 -0.04890615 0.03359753
v -0.01749971 -0.05078350 0.02938419
v -0.01650583 -0.05110596 0.03058368
v -0.01650583 -0.04090425 0.03149085
v -0.03313310 -0.02855353 0.02973698
v -0.03332907 -0.02855353 0.03210572
v -0.03346346 -0.02855353 0.03359753
v -0.03367623 -0.02855353 0.03569411
v -0.03380782 -0.02855353 0.03686336
v -0.03391701 -0.02855353 0.03780079
v -0.04510450 -0.02855353 0.03359753
v -0.04432620 -0.02975061 -0.00846532
v -0.04358708 -0.03080413 -0.00846532
v -0.04253720 -0.03224637 -0.00426206
v -0.04357588 -0.03082180 0.03149085
v -0.04357028 -0.03081738 0.03359753
v -0.04248961 -0.03218895 0.03990745
v -0.04250081 -0.03219999 0.03780079
v -0.04168890 -0.03324026 0.03990745
v -0.04063902 -0.03453452 0.03990745
v -0.04065302 -0.03455441 0.03569411
v -0.03972633 -0.03560572 0.03569411
v -0.03770496 -0.03778344 0.03569411
v -0.03455533 -0.04080044 0.03569411
v -0.03454413 -0.04079823 0.03780079
v -0.03453293 -0.04079161 0.03990745
v -0.03772736 -0.03780331 0.02517084
v -0.03773296 -0.03780552 0.02307425
v -0.03776376 -0.03783203 -0.00215539
v -0.03671108 -0.03884138 -0.00215539
v -0.03559681 -0.03989269 -0.00215539
v -0.03332067 -0.04185175 0.03780079
v -0.03226800 -0.04267779 0.03780079
v -0.03227639 -0.04268883 0.03569411
v -0.03087936 -0.04374898 0.03359753
v -0.02981548 -0.04449329 0.03570419
v -0.02428053 -0.04777754 0.03359753
v -0.02982668 -0.04449991 0.03359753
v -0.02609192 -0.04682120 0.03359753
v -0.02428053 -0.04779079 0.03149085
v -0.02416854 -0.04788576 0.00834772
v -0.02204639 -0.04891499 0.02938419
v -0.02204639 -0.04891057 0.03149085
v -0.02311586 -0.04843350 0.00834772
v -0.01750531 -0.05078792 0.02519100
v -0.01650583 -0.05111258 0.02728759
v -0.01650583 -0.04081148 0.02938419
v -0.03296791 -0.02855353 0.02741863
v -0.03310790 -0.02855353 0.02938419
v -0.04499812 -0.02855353 -0.01057199
v -0.04432340 -0.02974398 -0.01057199
v -0.04357588 -0.03079751 -0.01057199
v -0.04253440 -0.03223754 -0.00846532
v -0.04253720 -0.03224196 -0.00635865
v -0.04172530 -0.03329990 -0.00215539
v -0.04172810 -0.03329990 -0.00004872
v -0.04172810 -0.03329106 0.02938419
v -0.04252600 -0.03223975 0.02938419
v -0.04252320 -0.03223533 0.03149085
v -0.04251760 -0.03222429 0.03359753
v -0.04171690 -0.03327560 0.03359753
v -0.04172250 -0.03328664 0.03149085
v -0.04066142 -0.03455882 0.03359753
v -0.04066982 -0.03456324 0.03149085
v -0.04067542 -0.03456986 0.02938419
v -0.03972913 -0.03561234 0.03359753
v -0.03334027 -0.04186059 0.02517084
v -0.03333747 -0.04185396 0.03149085
v -0.03332907 -0.04185396 0.03569411
v -0.03974313 -0.03563222 0.02307425
v -0.03873244 -0.03678071 -0.00215539
v -0.03873524 -0.03677851 -0.00426206
v -0.03873524 -0.03677630 -0.00635865
v -0.03775816 -0.03782982 -0.00635865
v -0.03670828 -0.03883917 -0.00426206
v -0.03559681 -0.03988606 -0.00426206
v -0.03454693 -0.04078719 -0.00426206
v -0.03334027 -0.04186059 0.02307425
v -0.03228199 -0.04269766 0.03359753
v -0.03136370 -0.04338676 0.03359753
v -0.03088496 -0.04375560 0.03149085
v -0.02983508 -0.04450433 0.03149085
v -0.02609752 -0.04683003 0.02728759
v -0.02610311 -0.04683445 0.01676432
v -0.02610311 -0.04683445 0.01465765
v -0.02608912 -0.04683445 0.01044431
v -0.02608072 -0.04683224 0.00833764
v -0.02603032 -0.04679911 -0.00425198
v -0.02428053 -0.04781067 0.00579754
v -0.02395576 -0.04798957 0.00609994
v -0.02311586 -0.04843350 0.00669464
v -0.02609472 -0.04683445 0.02518092
v -0.02204919 -0.04892161 0.01465765
v -0.02206039 -0.04891719 0.00834772
v -0.02226756 -0.04882223 0.01036368
v -0.01650583 -0.05111480 0.02519100
v -0.01750251 -0.05079012 0.02097766
v -0.01650583 -0.04076290 0.02821493
v -0.03295952 -0.02855353 0.02727751
v -0.04497012 -0.02855353 -0.01478533
v -0.04431500 -0.02973073 -0.01267866
v -0.04490853 -0.02855353 -0.02320193
v -0.04349749 -0.03067161 -0.02740519
v -0.04244761 -0.03212711 -0.02740519
v -0.04246721 -0.03215361 -0.02320193
v -0.04167490 -0.03323143 -0.01898859
v -0.04170290 -0.03326677 -0.01267866
v -0.04171970 -0.03328885 -0.00846532
v -0.04171970 -0.03329548 -0.00635865
v -0.04066982 -0.03458091 -0.00635865
v -0.04067542 -0.03458091 -0.00004872
v -0.04067542 -0.03458091 0.02307425
v -0.03978512 -0.03563222 -0.00215539
v -0.03974873 -0.03563443 0.01886091
v -0.03229039 -0.04270650 0.02517084
v -0.03228759 -0.04270650 0.02727751
v -0.03228479 -0.04270208 0.03149085
v -0.03978792 -0.03563222 -0.00426206
v -0.03978792 -0.03563222 -0.00846532
v -0.03873524 -0.03677188 -0.00846532
v -0.03775256 -0.03782540 -0.00846532
v -0.03669988 -0.03882812 -0.00846532
v -0.03558561 -0.03987723 -0.00846532
v -0.03328708 -0.04184071 -0.00426206
v -0.03330947 -0.04184734 0.00416462
v -0.03333187 -0.04185396 0.01464757
v -0.03557721 -0.03987281 -0.01057199
v -0.03453573 -0.04077173 -0.00846532
v -0.03228199 -0.04270650 0.01886091
v -0.03136370 -0.04339559 0.03149085
v -0.02983788 -0.04450654 0.02728759
v -0.03136370 -0.04340001 0.02938419
v -0.03136370 -0.04340222 0.02728759
v -0.03088776 -0.04375781 0.02518092
v -0.02983788 -0.04450654 0.02307425
v -0.02983788 -0.04450433 0.01887099
v -0.02979868 -0.04448666 0.00415454
v -0.02982108 -0.04449771 0.01255098
v -0.02977629 -0.04446678 -0.00425198
v -0.02599673 -0.04677923 -0.01057199
v -0.02311026 -0.04843129 0.00529356
v -0.02582595 -0.04667984 -0.04003513
v -0.02227036 -0.04881781 0.00609994
v -0.02205199 -0.04891057 0.00415454
v -0.01749412 -0.05078792 0.01465765
v -0.01749691 -0.05079012 0.01676432
v -0.01650583 -0.05111480 0.02007049
v -0.01650583 -0.04072535 0.02728759
v -0.03289233 -0.02855353 0.02517084
v -0.04487493 -0.02855353 -0.02760678
v -0.04423660 -0.02961809 -0.02740519
v -0.04348629 -0.03065173 -0.02951186
v -0.04163291 -0.03318063 -0.02740519
v -0.04164690 -0.03319388 -0.02529852
v -0.04243361 -0.03210723 -0.02951186
v -0.04065022 -0.03456986 -0.01267866
v -0.04066422 -0.03458091 -0.00846532
v -0.04065862 -0.03457649 -0.01057199
v -0.03978512 -0.03563001 -0.01057199
v -0.03136370 -0.04340222 0.02096758
v -0.03873244 -0.03676305 -0.01057199
v -0.03872684 -0.03675200 -0.01267866
v -0.03774416 -0.03781657 -0.01057199
v -0.03669428 -0.03882150 -0.01057199
v -0.03452173 -0.04075627 -0.01267866
v -0.03327028 -0.04182525 -0.00846532
v -0.03220641 -0.04265128 -0.01057199
v -0.03221760 -0.04265570 -0.00846532
v -0.03222600 -0.04265791 -0.00635865
v -0.03227639 -0.04269325 0.01255098
v -0.03228199 -0.04270208 0.01675424
v -0.03557161 -0.03986398 -0.01267866
v -0.03088496 -0.04375781 0.02096758
v -0.03088216 -0.04375560 0.01676432
v -0.03080937 -0.04370922 -0.00846532
v -0.03080097 -0.04370480 -0.01057199
v -0.02976789 -0.04445795 -0.00635865
v -0.02203519 -0.04890615 0.00204787
v -0.02174402 -0.04878026 -0.03792846
v -0.02958591 -0.04434089 -0.03582179
v -0.02955791 -0.04432101 -0.03792846
v -0.02687582 -0.04600400 -0.04003513
v -0.02573916 -0.04664671 -0.04214180
v -0.02170483 -0.04875597 -0.04003513
v -0.02974829 -0.04444028 -0.01057199
v -0.02973429 -0.04443365 -0.01267866
v -0.01740173 -0.05075037 -0.00425198
v -0.01744092 -0.05076362 0.00204787
v -0.01747172 -0.05077687 0.00834772
v -0.01748012 -0.05078129 0.01045439
v -0.01748572 -0.05078571 0.01255098
v -0.01650583 -0.05110817 0.01045439
v -0.01650583 -0.05111038 0.01255098
v -0.01650583 -0.04071430 0.02619898
v -0.03297351 -0.02855353 0.02307425
v -0.01650583 -0.04072093 0.02519100
v -0.04485533 -0.02855353 -0.02951186
v -0.04422261 -0.02960042 -0.02951186
v -0.04346669 -0.03062523 -0.03161853
v -0.04058023 -0.03446164 -0.02740519
v -0.04059423 -0.03448152 -0.02529852
v -0.04160771 -0.03316075 -0.02951186
v -0.04061382 -0.03451023 -0.02109526
v -0.04239442 -0.03204760 -0.03372520
v -0.03977672 -0.03561897 -0.01267866
v -0.03136370 -0.04339780 0.01886091
v -0.03976552 -0.03560572 -0.01478533
v -0.03868765 -0.03671004 -0.01898859
v -0.03773296 -0.03780552 -0.01267866
v -0.03668028 -0.03881487 -0.01267866
v -0.03556041 -0.03985514 -0.01478533
v -0.03451054 -0.04074743 -0.01478533
v -0.03321149 -0.04177666 -0.02109526
v -0.03219801 -0.04264245 -0.01267866
v -0.03136370 -0.04339118 0.01602850
v -0.03217001 -0.04261374 -0.01898859
v -0.03214761 -0.04259165 -0.02320193
v -0.03077297 -0.04368492 -0.01477525
v -0.01710216 -0.05064214 -0.03792846
v -0.01713576 -0.05065760 -0.03582179
v -0.01715255 -0.05066644 -0.03371512
v -0.03211681 -0.04256956 -0.02740519
v -0.03210002 -0.04255631 -0.02951186
v -0.03207482 -0.04254085 -0.03161853
v -0.03063859 -0.04355020 -0.03582179
v -0.03061059 -0.04353032 -0.03792846
v -0.03136370 -0.04293840 -0.03908763
v -0.03197683 -0.04245471 -0.04003513
v -0.03136370 -0.04291190 -0.04003513
v -0.02951032 -0.04428567 -0.04003513
v -0.02679183 -0.04596645 -0.04214180
v -0.02823647 -0.04481575 -0.04424847
v -0.02660146 -0.04586927 -0.04424847
v -0.02554878 -0.04653186 -0.04424847
v -0.02144446 -0.04863891 -0.04424847
v -0.02161804 -0.04870958 -0.04214180
v -0.01701537 -0.05061122 -0.04003513
v -0.01650583 -0.05102866 -0.00846532
v -0.01650583 -0.05106620 -0.00100629
v -0.01650583 -0.05107062 -0.00004872
v -0.01650583 -0.05109271 0.00532380
v -0.01650583 -0.04079823 0.02308433
v -0.01650583 -0.04088658 0.02097766
v -0.01650583 -0.04100143 0.01887099
v -0.03315269 -0.02855353 0.02096758
v -0.04482733 -0.02855353 -0.03161853
v -0.04420301 -0.02957171 -0.03161853
v -0.04344429 -0.03058327 -0.03372520
v -0.04234682 -0.03198355 -0.03792846
v -0.04237202 -0.03201667 -0.03582179
v -0.03967874 -0.03551295 -0.02740519
v -0.04055783 -0.03443514 -0.02951186
v -0.03972353 -0.03556375 -0.02109526
v -0.04157971 -0.03312983 -0.03161853
v -0.03867365 -0.03669679 -0.02109526
v -0.03771896 -0.03779227 -0.01478533
v -0.03666628 -0.03880383 -0.01478533
v -0.03663829 -0.03877512 -0.01898859
v -0.03544843 -0.03975134 -0.02951186
v -0.03441535 -0.04068780 -0.02740519
v -0.03444894 -0.04071209 -0.02320193
v -0.03446574 -0.04072314 -0.02109526
v -0.03318629 -0.04175016 -0.02529852
v -0.01650583 -0.05083871 -0.03792846
v -0.01650583 -0.05085417 -0.03700112
v -0.01650583 -0.05080337 -0.03918843
v -0.01650583 -0.05086743 -0.03582179
v -0.01650583 -0.05088288 -0.03371512
v -0.03316949 -0.04173911 -0.02740519
v -0.03315269 -0.04172365 -0.02951186
v -0.03310510 -0.04169494 -0.03372520
v -0.03305471 -0.04165960 -0.03792846
v -0.03202723 -0.04250109 -0.03582179
v -0.03136370 -0.04300245 -0.03582179
v -0.03200483 -0.04247680 -0.03792846
v -0.03302951 -0.04163752 -0.04003513
v -0.03298471 -0.04160880 -0.04214180
v -0.03193203 -0.04241496 -0.04214180
v -0.03136370 -0.04286773 -0.04126486
v -0.02946272 -0.04424813 -0.04143622
v -0.02856403 -0.04479146 -0.04214180
v -0.03182565 -0.04234207 -0.04424847
v -0.02820287 -0.04479366 -0.04465166
v -0.02688142 -0.04564620 -0.04465166
v -0.02938713 -0.04416199 -0.04284738
v -0.02550958 -0.04650757 -0.04465166
v -0.02138566 -0.04861240 -0.04465166
v -0.02029659 -0.04907842 -0.04465166
v -0.01995503 -0.04927500 -0.04424847
v -0.01690339 -0.05057147 -0.04175877
v -0.01650583 -0.05072607 -0.04116406
v -0.01650583 -0.05077466 -0.04003513
v -0.01650583 -0.04390579 -0.01898859
v -0.03695465 -0.02855353 -0.02109526
v -0.04478814 -0.02855353 -0.03372520
v -0.04476574 -0.02855353 -0.03484405
v -0.04469015 -0.02864187 -0.03572099
v -0.04417501 -0.02952975 -0.03372520
v -0.04231883 -0.03194600 -0.04003513
v -0.04154892 -0.03309891 -0.03372520
v -0.04038985 -0.03424520 -0.04214180
v -0.03862606 -0.03664599 -0.02740519
v -0.03965634 -0.03548645 -0.02951186
v -0.03855046 -0.03659077 -0.03372520
v -0.03857846 -0.03661065 -0.03161853
v -0.03860646 -0.03662832 -0.02951186
v -0.03769096 -0.03776356 -0.01898859
v -0.03655710 -0.03869782 -0.02951186
v -0.03653750 -0.03868014 -0.03161853
v -0.03542603 -0.03973367 -0.03161853
v -0.03432856 -0.04062596 -0.03582179
v -0.03437615 -0.04065688 -0.03161853
v -0.03439855 -0.04067234 -0.02951186
v -0.03430056 -0.04060829 -0.03792846
v -0.03426977 -0.04058620 -0.04003513
v -0.03423337 -0.04055749 -0.04214180
v -0.03413258 -0.04045368 -0.04424847
v -0.03287833 -0.04150500 -0.04424847
v -0.03178645 -0.04231557 -0.04469198
v -0.03136370 -0.04259386 -0.04469198
v -0.01998023 -0.04920874 -0.04465166
v -0.01650583 -0.05060681 -0.04344209
v -0.01679420 -0.05052730 -0.04316993
v -0.01650583 -0.05044999 -0.04465166
v -0.01650583 -0.05046545 -0.04454078
v -0.01650583 -0.05068632 -0.04200068
v -0.01650583 -0.04402505 -0.02020824
v -0.03718143 -0.02855353 -0.02309105
v -0.04472655 -0.02855353 -0.03646689
v -0.04415821 -0.02950324 -0.03494485
v -0.04455017 -0.02855353 -0.04162773
v -0.04452777 -0.02855353 -0.04214180
v -0.04442138 -0.02855353 -0.04424847
v -0.04225444 -0.03187311 -0.04214180
v -0.04144253 -0.03292664 -0.04214180
v -0.04463136 -0.02855353 -0.03962186
v -0.04032546 -0.03417452 -0.04424847
v -0.03942676 -0.03522804 -0.04424847
v -0.03948836 -0.03529651 -0.04214180
v -0.03757338 -0.03764209 -0.03372520
v -0.03760978 -0.03767963 -0.02951186
v -0.03762377 -0.03769951 -0.02740519
v -0.03846368 -0.03650684 -0.04003513
v -0.03851687 -0.03657089 -0.03582179
v -0.03752858 -0.03759570 -0.03792846
v -0.03755378 -0.03762220 -0.03582179
v -0.03652070 -0.03865585 -0.03372520
v -0.03650111 -0.03862935 -0.03582179
v -0.03540363 -0.03970716 -0.03372520
v -0.03537843 -0.03968287 -0.03582179
v -0.03535044 -0.03965636 -0.03792846
v -0.03531964 -0.03962544 -0.04003513
v -0.03528325 -0.03958569 -0.04214180
v -0.03633032 -0.03847033 -0.04424847
v -0.03518246 -0.03952385 -0.04424847
v -0.03538963 -0.03927206 -0.04469198
v -0.03408779 -0.04041172 -0.04469198
v -0.03256196 -0.04169715 -0.04469198
v -0.03136370 -0.03964532 -0.04469198
v -0.01650583 -0.04806245 -0.04465166
v -0.03720102 -0.02855353 -0.02320193
v -0.04158251 -0.02855353 -0.04469198
v -0.04469015 -0.02855353 -0.03768655
v -0.04437379 -0.02855353 -0.04469198
v -0.04390904 -0.02922716 -0.04469198
v -0.04392304 -0.02926250 -0.04424847
v -0.04215645 -0.03174943 -0.04424847
v -0.04137814 -0.03279853 -0.04424847
v -0.04113456 -0.03305695 -0.04469198
v -0.04030026 -0.03414581 -0.04469198
v -0.03940436 -0.03519712 -0.04469198
v -0.03837408 -0.03638758 -0.04424847
v -0.03918599 -0.03544670 -0.04469198
v -0.03843568 -0.03645383 -0.04214180
v -0.03748939 -0.03755816 -0.04003513
v -0.03647591 -0.03860505 -0.03792846
v -0.03643671 -0.03857192 -0.04003513
v -0.03638632 -0.03853438 -0.04214180
v -0.03743900 -0.03750736 -0.04214180
v -0.03738300 -0.03744110 -0.04424847
v -0.03735220 -0.03741680 -0.04469198
v -0.03629953 -0.03843940 -0.04469198
v -0.04213685 -0.03171851 -0.04469198
v -0.04159371 -0.03244957 -0.04469198
v -0.03835169 -0.03636549 -0.04469198
v -0.03756498 -0.03719815 -0.04469198
f 1 2 3
f 1 3 4
f 1 4 5
f 1 5 19
f 1 19 36
f 1 36 57
f 1 57 76
f 1 76 99
f 1 99 102
f 1 102 129
f 1 129 128
f 1 128 127
f 1 127 158
f 1 158 191
f 1 191 190
f 1 190 227
f 1 227 270
f 1 270 320
f 1 320 371
f 1 371 417
f 1 417 416
f 1 416 465
f 1 465 464
f 1 464 463
f 1 463 462
f 1 462 492
f 1 492 491
f 1 491 489
f 1 489 488
f 1 488 490
f 1 490 516
f 1 516 515
f 1 515 550
f 1 550 546
f 1 546 549
f 1 549 548
f 1 548 584
f 1 584 551
f 1 551 517
f 1 517 468
f 1 468 467
f 1 467 466
f 1 466 420
f 1 420 418
f 1 418 372
f 1 372 322
f 1 322 271
f 1 271 228
f 1 228 192
f 1 192 161
f 1 161 160
f 1 160 159
f 1 159 132
f 1 132 103
f 1 103 80
f 1 80 58
f 1 58 37
f 1 37 21
f 1 21 6
f 1 6 7
f 1 7 8
f 1 8 2
f 2 8 9
f 2 9 10
f 2 10 11
f 2 11 3
f 3 11 12
f 3 12 13
f 3 13 14
f 3 14 15
f 3 15 16
f 3 16 5
f 3 5 4
f 5 16 17
f 5 17 18
f 5 18 19
f 6 20 7
f 6 21 20
f 7 22 8
f 7 20 23
f 7 23 38
f 7 38 59
f 7 59 81
f 7 81 104
f 7 104 131
f 7 131 130
f 7 130 162
f 7 162 193
f 7 193 234
f 7 234 233
f 7 233 232
f 7 232 231
f 7 231 230
f 7 230 229
f 7 229 273
f 7 273 272
f 7 272 323
f 7 323 373
f 7 373 419
f 7 419 469
f 7 469 518
f 7 518 552
f 7 552 585
f 7 585 586
f 7 586 588
f 7 588 557
f 7 557 556
f 7 556 555
f 7 555 560
f 7 560 587
f 7 587 553
f 7 553 520
f 7 520 519
f 7 519 470
f 7 470 421
f 7 421 374
f 7 374 326
f 7 326 324
f 7 324 274
f 7 274 235
f 7 235 197
f 7 197 196
f 7 196 195
f 7 195 166
f 7 166 194
f 7 194 164
f 7 164 163
f 7 163 133
f 7 133 105
f 7 105 82
f 7 82 60
f 7 60 41
f 7 41 25
f 7 25 24
f 7 24 22
f 8 24 25
f 8 25 9
f 8 22 24
f 9 25 26
f 9 26 27
f 9 27 28
f 9 28 10
f 10 28 29
f 10 29 11
f 11 29 12
f 12 30 31
f 12 31 13
f 12 29 30
f 13 31 32
f 13 32 14
f 14 32 17
f 14 17 15
f 15 17 16
f 17 32 33
f 17 33 18
f 18 33 34
f 18 34 19
f 19 35 36
f 19 34 35
f 20 21 23
f 21 37 38
f 21 38 23
f 25 39 40
f 25 40 26
f 25 41 39
f 26 40 27
f 27 40 42
f 27 42 43
f 27 43 28
f 28 43 44
f 28 44 29
f 29 45 30
f 29 44 46
f 29 46 45
f 30 45 31
f 31 45 46
f 31 46 47
f 31 47 32
f 32 47 48
f 32 48 49
f 32 49 50
f 32 50 51
f 32 51 52
f 32 52 53
f 32 53 54
f 32 54 33
f 33 54 35
f 33 35 34
f 35 55 36
f 35 54 53
f 35 53 52
f 35 52 56
f 35 56 55
f 36 55 57
f 37 58 38
f 38 58 59
f 39 42 40
f 39 41 60
f 39 60 61
f 39 61 62
f 39 62 43
f 39 43 42
f 43 62 63
f 43 63 64
f 43 64 65
f 43 65 44
f 44 65 66
f 44 66 67
f 44 67 46
f 46 67 68
f 46 68 69
f 46 69 48
f 46 48 47
f 48 69 49
f 49 69 50
f 50 52 51
f 50 69 70
f 50 70 71
f 50 71 72
f 50 72 73
f 50 73 74
f 50 74 52
f 52 74 56
f 55 56 75
f 55 75 76
f 55 76 57
f 56 74 77
f 56 77 78
f 56 78 79
f 56 79 75
f 58 80 59
f 59 80 81
f 60 82 83
f 60 83 61
f 61 83 62
f 62 83 63
f 63 83 84
f 63 84 85
f 63 85 64
f 64 85 86
f 64 86 87
f 64 87 88
f 64 88 66
f 64 66 65
f 66 68 67
f 66 88 89
f 66 89 68
f 68 89 69
f 69 89 90
f 69 90 91
f 69 91 70
f 70 91 92
f 70 92 93
f 70 93 94
f 70 94 71
f 71 94 72
f 72 94 95
f 72 95 73
f 73 95 96
f 73 96 97
f 73 97 98
f 73 98 77
f 73 77 74
f 75 79 99
f 75 99 76
f 77 98 100
f 77 100 78
f 78 100 101
f 78 101 79
f 79 101 102
f 79 102 99
f 80 103 81
f 81 103 104
f 82 105 83
f 83 105 106
f 83 106 107
f 83 107 84
f 84 107 108
f 84 108 109
f 84 109 110
f 84 110 85
f 85 110 111
f 85 111 86
f 86 111 112
f 86 112 87
f 87 112 88
f 88 112 113
f 88 113 114
f 88 114 89
f 89 114 90
f 90 114 115
f 90 115 91
f 91 115 92
f 92 115 116
f 92 116 117
f 92 117 93
f 93 117 118
f 93 118 94
f 94 118 95
f 95 118 96
f 96 118 119
f 96 119 120
f 96 120 97
f 97 120 121
f 97 121 122
f 97 122 98
f 98 122 123
f 98 123 100
f 100 123 101
f 101 123 124
f 101 124 125
f 101 125 126
f 101 126 127
f 101 127 128
f 101 128 129
f 101 129 102
f 103 130 131
f 103 131 104
f 103 132 130
f 105 133 106
f 106 133 134
f 106 134 135
f 106 135 107
f 107 135 108
f 108 135 136
f 108 136 137
f 108 137 138
f 108 138 109
f 109 139 110
f 109 138 140
f 109 140 141
f 109 141 139
f 110 139 142
f 110 142 111
f 111 142 143
f 111 143 112
f 112 143 113
f 113 143 114
f 114 143 144
f 114 144 145
f 114 145 115
f 115 145 146
f 115 146 116
f 116 146 147
f 116 147 148
f 116 148 117
f 117 148 120
f 117 120 119
f 117 119 118
f 120 148 149
f 120 149 121
f 121 149 150
f 121 150 151
f 121 151 122
f 122 151 124
f 122 124 123
f 124 151 152
f 124 152 125
f 125 152 153
f 125 153 154
f 125 154 126
f 126 154 155
f 126 155 156
f 126 156 157
f 126 157 158
f 126 158 127
f 130 132 159
f 130 159 160
f 130 160 161
f 130 161 162
f 133 163 134
f 134 163 164
f 134 164 165
f 134 165 166
f 134 166 167
f 134 167 168
f 134 168 135
f 135 168 136
f 136 168 137
f 137 168 169
f 137 169 170
f 137 170 140
f 137 140 138
f 139 141 171
f 139 171 142
f 140 170 172
f 140 172 173
f 140 173 141
f 141 173 174
f 141 174 171
f 142 171 174
f 142 174 175
f 142 175 143
f 143 175 176
f 143 176 144
f 144 176 145
f 145 176 177
f 145 177 178
f 145 178 179
f 145 179 146
f 146 179 180
f 146 180 147
f 147 180 148
f 148 180 181
f 148 181 149
f 149 181 182
f 149 182 183
f 149 183 184
f 149 184 150
f 150 184 152
f 150 152 151
f 152 184 185
f 152 185 186
f 152 186 153
f 153 186 187
f 153 187 155
f 153 155 154
f 155 187 156
f 156 188 157
f 156 187 188
f 157 188 189
f 157 189 190
f 157 190 191
f 157 191 158
f 161 192 162
f 162 192 193
f 164 194 165
f 165 194 166
f 166 195 167
f 167 195 196
f 167 196 197
f 167 197 198
f 167 198 169
f 167 169 168
f 169 198 199
f 169 199 200
f 169 200 201
f 169 201 170
f 170 201 202
f 170 202 203
f 170 203 172
f 172 203 204
f 172 204 205
f 172 205 206
f 172 206 173
f 173 207 174
f 173 206 207
f 174 207 175
f 175 207 208
f 175 208 176
f 176 208 209
f 176 209 210
f 176 210 211
f 176 211 212
f 176 212 213
f 176 213 177
f 177 213 178
f 178 213 212
f 178 212 214
f 178 214 215
f 178 215 216
f 178 216 179
f 179 216 180
f 180 216 181
f 181 216 215
f 181 215 217
f 181 217 182
f 182 218 183
f 182 217 219
f 182 219 218
f 183 218 220
f 183 220 184
f 184 220 221
f 184 221 185
f 185 221 186
f 186 221 222
f 186 222 187
f 187 222 223
f 187 223 224
f 187 224 188
f 188 224 225
f 188 225 189
f 189 225 226
f 189 226 190
f 190 226 227
f 192 228 229
f 192 229 230
f 192 230 231
f 192 231 232
f 192 232 233
f 192 233 234
f 192 234 193
f 197 235 202
f 197 202 201
f 197 201 200
f 197 200 199
f 197 199 198
f 202 235 236
f 202 236 237
f 202 237 238
f 202 238 239
f 202 239 240
f 202 240 204
f 202 204 203
f 204 241 205
f 204 240 241
f 205 241 242
f 205 242 243
f 205 243 244
f 205 244 206
f 206 208 207
f 206 244 208
f 208 244 209
f 209 244 245
f 209 245 246
f 209 246 210
f 210 246 247
f 210 247 211
f 211 248 249
f 211 249 250
f 211 250 214
f 211 214 212
f 211 247 251
f 211 251 252
f 211 252 253
f 211 253 254
f 211 254 255
f 211 255 248
f 214 250 256
f 214 256 215
f 215 256 217
f 217 256 257
f 217 257 219
f 218 219 220
f 219 258 259
f 219 259 260
f 219 260 220
f 219 257 258
f 220 260 221
f 221 261 222
f 221 260 262
f 221 262 263
f 221 263 264
f 221 264 261
f 222 261 264
f 222 264 223
f 223 264 265
f 223 265 224
f 224 266 267
f 224 267 225
f 224 265 268
f 224 268 266
f 225 267 226
f 226 267 266
f 226 266 269
f 226 269 270
f 226 270 227
f 228 271 272
f 228 272 273
f 228 273 229
f 235 274 236
f 236 274 275
f 236 275 237
f 237 275 276
f 237 276 277
f 237 277 278
f 237 278 238
f 238 278 279
f 238 279 280
f 238 280 281
f 238 281 282
f 238 282 239
f 239 282 283
f 239 283 240
f 240 283 284
f 240 284 242
f 240 242 241
f 242 284 285
f 242 285 243
f 243 285 244
f 244 285 245
f 245 285 286
f 245 286 287
f 245 287 246
f 246 287 288
f 246 288 289
f 246 289 290
f 246 290 247
f 247 290 251
f 248 255 291
f 248 291 292
f 248 292 293
f 248 293 256
f 248 256 249
f 249 256 250
f 251 290 252
f 252 290 294
f 252 294 253
f 253 294 295
f 253 295 296
f 253 296 297
f 253 297 298
f 253 298 254
f 254 298 299
f 254 299 255
f 255 299 300
f 255 300 301
f 255 301 302
f 255 302 291
f 256 293 303
f 256 303 258
f 256 258 257
f 258 303 304
f 258 304 259
f 259 262 260
f 259 304 305
f 259 305 262
f 262 305 306
f 262 306 263
f 263 306 307
f 263 307 264
f 264 307 265
f 265 308 309
f 265 309 310
f 265 310 311
f 265 311 312
f 265 312 313
f 265 313 314
f 265 314 315
f 265 315 268
f 265 307 316
f 265 316 308
f 266 268 317
f 266 317 269
f 268 315 318
f 268 318 319
f 268 319 317
f 269 320 270
f 269 317 321
f 269 321 320
f 271 322 323
f 271 323 272
f 274 324 275
f 275 325 276
f 275 324 326
f 275 326 325
f 276 325 327
f 276 327 328
f 276 328 329
f 276 329 277
f 277 330 331
f 277 331 332
f 277 332 278
f 277 329 330
f 278 333 279
f 278 332 333
f 279 333 334
f 279 334 280
f 280 334 335
f 280 335 336
f 280 336 281
f 281 289 286
f 281 286 283
f 281 283 282
f 281 336 289
f 283 286 285
f 283 285 284
f 286 288 287
f 286 289 288
f 289 336 337
f 289 337 338
f 289 338 294
f 289 294 290
f 291 302 339
f 291 339 340
f 291 340 292
f 292 340 341
f 292 341 293
f 293 341 303
f 294 338 295
f 295 338 337
f 295 337 342
f 295 342 296
f 296 342 343
f 296 343 297
f 297 343 344
f 297 344 298
f 298 344 345
f 298 345 346
f 298 346 299
f 299 346 300
f 300 346 347
f 300 347 301
f 301 348 349
f 301 349 350
f 301 350 302
f 301 347 351
f 301 351 352
f 301 352 348
f 302 350 353
f 302 353 339
f 303 341 354
f 303 354 305
f 303 305 304
f 305 355 306
f 305 354 356
f 305 356 357
f 305 357 358
f 305 358 355
f 306 355 316
f 306 316 307
f 308 316 355
f 308 355 359
f 308 359 309
f 309 359 360
f 309 360 310
f 310 361 311
f 310 360 362
f 310 362 361
f 311 361 363
f 311 363 312
f 312 314 313
f 312 363 364
f 312 364 314
f 314 365 315
f 314 364 366
f 314 366 365
f 315 365 367
f 315 367 318
f 317 319 318
f 317 318 321
f 318 367 368
f 318 368 369
f 318 369 370
f 318 370 321
f 320 321 371
f 321 370 371
f 322 372 323
f 323 372 373
f 325 326 374
f 325 374 375
f 325 375 327
f 327 375 376
f 327 376 328
f 328 377 378
f 328 378 329
f 328 376 379
f 328 379 377
f 329 378 330
f 330 380 331
f 330 378 380
f 331 380 332
f 332 381 334
f 332 334 333
f 332 380 382
f 332 382 381
f 334 381 383
f 334 383 343
f 334 343 335
f 335 343 342
f 335 342 336
f 336 342 337
f 339 353 384
f 339 384 357
f 339 357 340
f 340 357 356
f 340 356 341
f 341 356 354
f 343 383 344
f 344 383 385
f 344 385 345
f 345 385 386
f 345 386 387
f 345 387 388
f 345 388 346
f 346 388 347
f 347 388 351
f 348 352 389
f 348 389 390
f 348 390 391
f 348 391 392
f 348 392 393
f 348 393 394
f 348 394 395
f 348 395 349
f 349 395 350
f 350 395 353
f 351 388 396
f 351 396 352
f 352 396 389
f 353 395 430
f 353 430 384
f 355 358 359
f 357 384 358
f 358 384 397
f 358 397 359
f 359 397 360
f 360 398 362
f 360 397 398
f 361 362 398
f 361 398 399
f 361 399 363
f 363 399 400
f 363 400 401
f 363 401 364
f 364 401 366
f 365 402 368
f 365 368 367
f 365 366 403
f 365 403 402
f 366 404 405
f 366 405 406
f 366 406 407
f 366 407 408
f 366 408 403
f 366 401 409
f 366 409 410
f 366 410 404
f 368 402 411
f 368 411 412
f 368 412 413
f 368 413 414
f 368 414 415
f 368 415 369
f 369 415 416
f 369 416 370
f 370 416 417
f 370 417 371
f 372 418 373
f 373 418 420
f 373 420 419
f 374 421 375
f 375 421 422
f 375 422 376
f 376 422 423
f 376 423 379
f 377 424 425
f 377 425 378
f 377 379 426
f 377 426 424
f 378 425 427
f 378 427 380
f 379 423 428
f 379 428 426
f 380 427 429
f 380 429 383
f 380 383 382
f 381 382 383
f 383 429 386
f 383 386 385
f 384 430 398
f 384 398 397
f 386 429 431
f 386 431 432
f 386 432 433
f 386 433 387
f 387 433 434
f 387 434 388
f 388 434 435
f 388 435 396
f 389 396 435
f 389 435 436
f 389 436 437
f 389 437 390
f 390 437 438
f 390 438 391
f 391 400 392
f 391 438 400
f 392 399 393
f 392 400 399
f 393 399 398
f 393 398 394
f 394 398 439
f 394 439 395
f 395 439 398
f 395 398 430
f 400 438 440
f 400 440 441
f 400 441 442
f 400 442 404
f 400 404 410
f 400 410 409
f 400 409 401
f 402 403 411
f 403 408 443
f 403 443 444
f 403 444 445
f 403 445 411
f 404 446 447
f 404 447 448
f 404 448 449
f 404 449 450
f 404 450 405
f 404 442 441
f 404 441 446
f 405 450 451
f 405 451 452
f 405 452 453
f 405 453 454
f 405 454 406
f 406 454 455
f 406 455 407
f 407 455 456
f 407 456 457
f 407 457 458
f 407 458 459
f 407 459 460
f 407 460 408
f 408 461 443
f 408 460 461
f 411 462 463
f 411 463 464
f 411 464 412
f 411 445 462
f 412 464 465
f 412 465 413
f 413 465 414
f 414 465 416
f 414 416 415
f 419 420 466
f 419 466 467
f 419 467 468
f 419 468 469
f 421 470 422
f 422 470 471
f 422 471 423
f 423 471 472
f 423 472 473
f 423 473 474
f 423 474 428
f 424 475 425
f 424 426 476
f 424 476 527
f 424 527 475
f 425 475 477
f 425 477 431
f 425 431 429
f 425 429 427
f 426 428 474
f 426 474 473
f 426 473 478
f 426 478 476
f 431 477 479
f 431 479 432
f 432 479 480
f 432 480 433
f 433 480 481
f 433 481 434
f 434 481 435
f 435 481 482
f 435 482 483
f 435 483 484
f 435 484 485
f 435 485 486
f 435 486 436
f 436 486 437
f 437 441 440
f 437 440 438
f 437 486 487
f 437 487 446
f 437 446 441
f 443 488 489
f 443 489 444
f 443 461 490
f 443 490 488
f 444 489 491
f 444 491 492
f 444 492 445
f 445 492 462
f 446 487 493
f 446 493 447
f 447 493 494
f 447 494 495
f 447 495 448
f 448 495 496
f 448 496 497
f 448 497 498
f 448 498 449
f 449 498 450
f 450 499 451
f 450 498 497
f 450 497 499
f 451 499 452
f 452 499 500
f 452 500 501
f 452 501 502
f 452 502 453
f 453 502 503
f 453 503 454
f 454 503 502
f 454 502 504
f 454 504 455
f 455 504 505
f 455 505 456
f 456 506 507
f 456 507 508
f 456 508 457
f 456 505 504
f 456 504 509
f 456 509 506
f 457 508 458
f 458 508 510
f 458 510 459
f 459 510 511
f 459 511 512
f 459 512 513
f 459 513 460
f 460 513 461
f 461 513 514
f 461 514 515
f 461 515 516
f 461 516 490
f 468 517 518
f 468 518 469
f 470 519 471
f 471 519 520
f 471 520 521
f 471 521 522
f 471 522 472
f 472 522 523
f 472 523 473
f 473 524 478
f 473 523 525
f 473 525 524
f 475 526 479
f 475 479 477
f 475 527 528
f 475 528 529
f 475 529 530
f 475 530 526
f 476 478 525
f 476 525 563
f 476 563 527
f 478 524 525
f 479 531 480
f 479 526 531
f 480 531 482
f 480 482 481
f 482 531 532
f 482 532 483
f 483 532 533
f 483 533 534
f 483 534 535
f 483 535 536
f 483 536 537
f 483 537 484
f 484 537 494
f 484 494 493
f 484 493 485
f 485 493 487
f 485 487 486
f 494 537 536
f 494 536 495
f 495 536 535
f 495 535 496
f 496 535 538
f 496 538 500
f 496 500 497
f 497 500 499
f 500 538 539
f 500 539 540
f 500 540 501
f 501 540 541
f 501 541 542
f 501 542 506
f 501 506 502
f 502 506 504
f 504 506 509
f 506 542 543
f 506 543 507
f 507 543 544
f 507 544 508
f 508 544 510
f 510 544 511
f 511 544 512
f 512 544 545
f 512 545 513
f 513 546 547
f 513 547 514
f 513 545 548
f 513 548 549
f 513 549 546
f 514 547 546
f 514 546 550
f 514 550 515
f 517 551 552
f 517 552 518
f 520 553 521
f 521 553 522
f 522 553 554
f 522 554 523
f 523 555 556
f 523 556 557
f 523 557 558
f 523 558 559
f 523 559 525
f 523 554 560
f 523 560 555
f 525 559 561
f 525 561 562
f 525 562 563
f 526 530 564
f 526 564 565
f 526 565 566
f 526 566 531
f 527 563 567
f 527 567 568
f 527 568 528
f 528 568 569
f 528 569 570
f 528 570 529
f 529 570 530
f 530 570 564
f 531 566 532
f 532 565 564
f 532 564 533
f 532 566 565
f 533 571 534
f 533 564 570
f 533 570 571
f 534 571 572
f 534 572 573
f 534 573 538
f 534 538 535
f 538 573 574
f 538 574 539
f 539 574 575
f 539 575 576
f 539 576 540
f 540 576 577
f 540 577 578
f 540 578 579
f 540 579 541
f 541 579 580
f 541 580 581
f 541 581 582
f 541 582 542
f 542 582 543
f 543 582 581
f 543 581 580
f 543 580 606
f 543 606 605
f 543 605 610
f 543 610 609
f 543 609 597
f 543 597 595
f 543 595 594
f 543 594 593
f 543 593 608
f 543 608 607
f 543 607 589
f 543 589 588
f 543 588 586
f 543 586 583
f 543 583 544
f 544 583 584
f 544 584 548
f 544 548 545
f 551 585 552
f 551 584 586
f 551 586 585
f 553 587 554
f 554 587 560
f 557 588 589
f 557 589 590
f 557 590 558
f 558 590 589
f 558 589 591
f 558 591 592
f 558 592 561
f 558 561 559
f 561 592 593
f 561 593 594
f 561 594 595
f 561 595 562
f 562 596 563
f 562 595 597
f 562 597 596
f 563 598 567
f 563 596 598
f 567 598 599
f 567 599 569
f 567 569 568
f 569 600 570
f 569 599 601
f 569 601 600
f 570 572 571
f 570 600 572
f 572 600 573
f 573 600 574
f 574 600 575
f 575 600 576
f 576 600 601
f 576 601 577
f 577 601 602
f 577 602 578
f 578 602 603
f 578 603 604
f 578 604 605
f 578 605 606
f 578 606 579
f 579 606 580
f 583 586 584
f 589 607 591
f 591 607 592
f 592 607 608
f 592 608 593
f 596 604 598
f 596 597 609
f 596 609 604
f 598 603 599
f 598 604 603
f 599 603 602
f 599 602 601
f 604 609 610
f 604 610 605

