# https://github.com/mikedh/trimesh
v -0.03836543 0.03360291 -0.02960264
v -0.03287573 0.03360291 -0.05712163
v -0.04134810 0.03360291 -0.02960264
v -0.04769593 0.01767976 -0.02960264
v -0.05121965 0.00022082 -0.03406074
v -0.03701381 0.03360291 -0.05712163
v -0.04690914 0.00022082 -0.05712163
v -0.04132630 0.03360291 -0.03092256
v -0.04169096 0.03317811 -0.02960264
v -0.05011576 0.01767976 -0.02960264
v -0.05311627 0.00022082 -0.03406074
v -0.03782240 0.03360291 -0.05633507
v -0.03746171 0.03316178 -0.05712163
v -0.04944986 0.00022082 -0.05712163
v -0.04131441 0.03360291 -0.03163101
v -0.04167114 0.03315851 -0.03163101
v -0.04246784 0.03216515 -0.02960264
v -0.05074202 0.01559174 -0.03584129
v -0.05075590 0.01563749 -0.03406074
v -0.05131478 0.01365077 -0.03406074
v -0.05265847 0.00692272 -0.03406074
v -0.05286061 0.00523336 -0.03406074
v -0.05289034 0.00490987 -0.03406074
v -0.05304294 0.00312901 -0.03406074
v -0.05305682 0.00280225 -0.03406074
v -0.05312023 0.00102466 -0.03406074
v -0.05312023 0.00090049 -0.03406074
v -0.04925763 0.01996056 -0.02960264
v -0.04921601 0.01996056 -0.03373480
v -0.04919222 0.01996056 -0.03584129
v -0.04916646 0.01996056 -0.03794508
v -0.04913475 0.01996056 -0.04004887
v -0.05308852 0.00022082 -0.03584129
v -0.05309447 0.00102466 -0.03584129
v -0.03793537 0.03360291 -0.05620308
v -0.03826832 0.03202138 -0.05712163
v -0.05079157 0.00022082 -0.05452220
v -0.05079157 0.00102466 -0.05451142
v -0.04943797 0.00102466 -0.05712163
v -0.04128864 0.03360291 -0.03299134
v -0.04165330 0.03313237 -0.03373480
v -0.04247775 0.03210633 -0.03163101
v -0.04354596 0.03064897 -0.02960264
v -0.05070833 0.01545450 -0.04004887
v -0.05125532 0.01365077 -0.03794508
v -0.05264063 0.00679855 -0.03584129
v -0.05121767 0.01365077 -0.04004887
v -0.05281701 0.00523336 -0.03584129
v -0.05296168 0.00312901 -0.03794508
v -0.05261486 0.00662210 -0.03794508
v -0.05300727 0.00312901 -0.03584129
v -0.05305682 0.00102466 -0.03794508
v -0.04861749 0.02158457 -0.02960264
v -0.04853029 0.02139832 -0.04004887
v -0.04907331 0.01996056 -0.04215266
v -0.05068257 0.01537281 -0.04215266
v -0.05304691 0.00022082 -0.03794508
v -0.03800473 0.03360291 -0.05611957
v -0.04001630 0.02954778 -0.05712163
v -0.05117209 0.00022082 -0.05338276
v -0.05140594 0.00102466 -0.05267162
v -0.05132072 0.00312901 -0.05267162
v -0.05073608 0.00312901 -0.05439020
v -0.04932302 0.00312901 -0.05712163
v -0.04124702 0.03360291 -0.03504933
v -0.04163150 0.03310623 -0.03584129
v -0.04245595 0.03208019 -0.03373480
v -0.04344092 0.03052480 -0.04004887
v -0.04418411 0.02947263 -0.04004887
v -0.04424159 0.02963274 -0.02960264
v -0.05116217 0.01365077 -0.04215266
v -0.05276152 0.00523336 -0.03794508
v -0.05290818 0.00312901 -0.04004887
v -0.05259108 0.00643912 -0.03965289
v -0.05155854 0.01154315 -0.04215266
v -0.05300330 0.00102466 -0.04004887
v -0.05299538 0.00022082 -0.04004887
v -0.04657025 0.02578674 -0.02960264
v -0.04655242 0.02575733 -0.03163101
v -0.04849264 0.02130356 -0.04215266
v -0.04650881 0.02568218 -0.03584129
v -0.04648503 0.02564296 -0.03794508
v -0.04646125 0.02560049 -0.04004887
v -0.04642161 0.02552206 -0.04215266
v -0.04708751 0.02416926 -0.04215266
v -0.04894648 0.01996056 -0.04425107
v -0.05062510 0.01522250 -0.04425376
v -0.03865478 0.03360291 -0.05478888
v -0.04063266 0.02861651 -0.05712163
v -0.04098741 0.02834529 -0.05684688
v -0.04026998 0.02992356 -0.05633776
v -0.04212300 0.02743689 -0.05595256
v -0.03979830 0.03132537 -0.05555389
v -0.03937221 0.03257687 -0.05482120
v -0.05140198 0.00022082 -0.05267162
v -0.05257919 0.00102466 -0.04745389
v -0.05257919 0.00217486 -0.04745658
v -0.05117010 0.00523336 -0.05267162
v -0.05065086 0.00523336 -0.05419087
v -0.05013955 0.00523336 -0.05524142
v -0.04918826 0.00523336 -0.05712163
v -0.04921204 0.00491313 -0.05712163
v -0.04119550 0.03360291 -0.03710194
v -0.04160376 0.03307355 -0.03794508
v -0.04238857 0.03198543 -0.04004887
v -0.04241037 0.03202138 -0.03794508
v -0.04243217 0.03205405 -0.03584129
v -0.04416430 0.02944648 -0.04126374
v -0.04485596 0.02837797 -0.04004887
v -0.04429311 0.02955431 -0.02960264
v -0.04426537 0.02959679 -0.02960264
v -0.05103930 0.01365077 -0.04425376
v -0.05148522 0.01154315 -0.04425376
v -0.05267630 0.00543595 -0.04023204
v -0.05265847 0.00506018 -0.04215266
v -0.05262477 0.00470074 -0.04425376
v -0.05283287 0.00312901 -0.04215266
v -0.05255937 0.00627247 -0.04105901
v -0.05291610 0.00102466 -0.04215266
v -0.05296565 0.00022082 -0.04084890
v -0.04588057 0.02665266 -0.04004887
v -0.04698842 0.02416926 -0.04425107
v -0.04793574 0.02220542 -0.04425107
v -0.04842525 0.02115324 -0.04425107
v -0.04636216 0.02540443 -0.04425107
v -0.04582706 0.02657424 -0.04215266
v -0.04838165 0.02105522 -0.04556560
v -0.04870866 0.02012394 -0.04630098
v -0.05052997 0.01491861 -0.04635486
v -0.03940193 0.03360291 -0.05266892
v -0.04015305 0.03187106 -0.05415047
v -0.03967741 0.03327288 -0.05266892
v -0.04136990 0.02748917 -0.05712163
v -0.04177419 0.02685526 -0.05712163
v -0.04435852 0.02347653 -0.05615998
v -0.04394629 0.02488161 -0.05542190
v -0.04429311 0.02545018 -0.05401847
v -0.05257523 0.00022082 -0.04742695
v -0.05266441 0.00102466 -0.04635486
v -0.05274369 0.00312901 -0.04425376
v -0.05262675 0.00297543 -0.04628212
v -0.05259504 0.00438705 -0.04553058
v -0.05146540 0.00733771 -0.05056513
v -0.05280116 0.00102466 -0.04425376
v -0.05084706 0.00744881 -0.05283863
v -0.05055375 0.00682143 -0.05394305
v -0.04912286 0.00733771 -0.05687920
v -0.04903368 0.00698481 -0.05712163
v -0.04113802 0.03360291 -0.03914647
v -0.04157403 0.03303760 -0.04004887
v -0.04234100 0.03191354 -0.04215266
v -0.04152845 0.03296572 -0.04215266
v -0.04465777 0.02854788 -0.04203952
v -0.04225380 0.03180244 -0.04425107
v -0.04215273 0.03167174 -0.04635755
v -0.04467561 0.02818518 -0.04425107
v -0.05084904 0.01365077 -0.04635486
v -0.05134054 0.01154315 -0.04635486
v -0.05286854 0.00022082 -0.04295539
v -0.05291016 0.00022082 -0.04215266
v -0.04630667 0.02530313 -0.04579726
v -0.04672880 0.02435552 -0.04644105
v -0.04826869 0.02093431 -0.04696633
v -0.04863533 0.01959785 -0.04846134
v -0.05047051 0.01471275 -0.04742965
v -0.04008170 0.03360291 -0.04989170
v -0.04225578 0.02974057 -0.05215981
v -0.04042654 0.03222070 -0.05266892
v -0.04248964 0.03007714 -0.05056513
v -0.04173654 0.03112931 -0.05056513
v -0.04198427 0.02650235 -0.05712163
v -0.04464390 0.02417580 -0.05474039
v -0.04233902 0.02589784 -0.05712163
v -0.04350434 0.02417580 -0.05686842
v -0.04333985 0.02417580 -0.05712163
v -0.04405727 0.02289816 -0.05712163
v -0.04438032 0.02221522 -0.05712163
v -0.04463994 0.02198322 -0.05686842
v -0.04637405 0.01918940 -0.05602799
v -0.04606290 0.02059448 -0.05541382
v -0.04570617 0.02200609 -0.05473770
v -0.04602921 0.02266942 -0.05312416
v -0.04629279 0.02318244 -0.05172343
v -0.04451706 0.02583576 -0.05266892
v -0.05265054 0.00022082 -0.04641951
v -0.05279719 0.00022082 -0.04425376
v -0.05149116 0.00943880 -0.04846134
v -0.05115623 0.00943880 -0.05056513
v -0.05069248 0.00943880 -0.05227833
v -0.04930915 0.01154315 -0.05477541
v -0.04864127 0.01154315 -0.05634045
v -0.04878991 0.00930483 -0.05697617
v -0.04899404 0.00733771 -0.05712163
v -0.04873244 0.00919046 -0.05712163
v -0.04111028 0.03360291 -0.04004887
v -0.04101515 0.03360291 -0.04215266
v -0.04145710 0.03285462 -0.04425107
v -0.04087047 0.03360291 -0.04425107
v -0.04208138 0.03157698 -0.04757241
v -0.04457057 0.02799566 -0.04635755
v -0.04134413 0.03272391 -0.04635755
v -0.05110074 0.01154315 -0.04846134
v -0.04619964 0.02518223 -0.04720068
v -0.04665745 0.02388825 -0.04846134
v -0.04848471 0.01919920 -0.04999676
v -0.04923979 0.01785621 -0.04846134
v -0.04643152 0.02344058 -0.05056513
v -0.05055177 0.01289268 -0.04985938
v -0.05062906 0.01361809 -0.04826470
v -0.04878397 0.01797711 -0.05064325
v -0.04033340 0.03360291 -0.04843979
v -0.04428519 0.02753492 -0.04998868
v -0.04258279 0.03059996 -0.04834820
v -0.04374216 0.02881910 -0.04846134
v -0.04637207 0.02126761 -0.05401039
v -0.04456066 0.02182637 -0.05712163
v -0.04613226 0.01823852 -0.05712163
v -0.04647314 0.01739874 -0.05712163
v -0.04657619 0.01767649 -0.05674451
v -0.04663961 0.01785621 -0.05650208
v -0.04743235 0.01785621 -0.05477271
v -0.04664556 0.01991808 -0.05473770
v -0.04560113 0.01991808 -0.05678761
v -0.04657025 0.02200609 -0.05252077
v -0.05070833 0.01153008 -0.05056244
v -0.05054186 0.01082101 -0.05186889
v -0.04879189 0.01363770 -0.05484814
v -0.04845498 0.01293189 -0.05599836
v -0.04817158 0.01154315 -0.05712163
v -0.04839156 0.01063802 -0.05712163
v -0.04078328 0.03360291 -0.04509958
v -0.04064653 0.03360291 -0.04635755
v -0.04443382 0.02777019 -0.04846134
v -0.04856993 0.01735953 -0.05226756
v -0.04868091 0.01767976 -0.05143251
v -0.04885928 0.01593158 -0.05284940
v -0.04830436 0.01675502 -0.05367098
v -0.04578742 0.01902929 -0.05712163
v -0.04690716 0.01599366 -0.05712163
v -0.04856795 0.01534994 -0.05419626
f 1 2 6
f 1 6 12
f 1 12 35
f 1 35 58
f 1 58 88
f 1 88 130
f 1 130 166
f 1 166 211
f 1 211 232
f 1 232 231
f 1 231 198
f 1 198 196
f 1 196 195
f 1 195 149
f 1 149 103
f 1 103 65
f 1 65 40
f 1 40 15
f 1 15 8
f 1 8 3
f 1 3 9
f 1 9 17
f 1 17 43
f 1 43 70
f 1 70 111
f 1 111 110
f 1 110 78
f 1 78 53
f 1 53 28
f 1 28 10
f 1 10 4
f 1 4 5
f 1 5 2
f 2 5 7
f 2 7 14
f 2 14 39
f 2 39 64
f 2 64 102
f 2 102 101
f 2 101 148
f 2 148 193
f 2 193 194
f 2 194 230
f 2 230 229
f 2 229 239
f 2 239 218
f 2 218 217
f 2 217 238
f 2 238 216
f 2 216 177
f 2 177 176
f 2 176 175
f 2 175 173
f 2 173 171
f 2 171 134
f 2 134 133
f 2 133 89
f 2 89 59
f 2 59 36
f 2 36 13
f 2 13 6
f 3 8 9
f 4 10 11
f 4 11 5
f 5 11 33
f 5 33 57
f 5 57 77
f 5 77 120
f 5 120 160
f 5 160 159
f 5 159 186
f 5 186 185
f 5 185 138
f 5 138 95
f 5 95 60
f 5 60 37
f 5 37 14
f 5 14 7
f 6 13 12
f 8 15 9
f 9 15 16
f 9 16 17
f 10 18 19
f 10 19 20
f 10 20 21
f 10 21 22
f 10 22 23
f 10 23 24
f 10 24 25
f 10 25 26
f 10 26 27
f 10 27 11
f 10 28 29
f 10 29 30
f 10 30 31
f 10 31 32
f 10 32 18
f 11 27 34
f 11 34 33
f 12 13 35
f 13 36 35
f 14 37 38
f 14 38 39
f 15 40 41
f 15 41 16
f 16 41 42
f 16 42 17
f 17 42 43
f 18 44 45
f 18 45 20
f 18 20 19
f 18 32 44
f 20 45 21
f 21 46 22
f 21 45 47
f 21 47 46
f 22 48 49
f 22 49 23
f 22 46 50
f 22 50 48
f 23 49 51
f 23 51 24
f 24 51 52
f 24 52 25
f 25 52 34
f 25 34 26
f 26 34 27
f 28 53 29
f 29 53 30
f 30 53 31
f 31 53 32
f 32 53 54
f 32 54 55
f 32 55 56
f 32 56 44
f 33 34 52
f 33 52 57
f 35 36 59
f 35 59 58
f 37 60 38
f 38 60 61
f 38 61 62
f 38 62 63
f 38 63 64
f 38 64 39
f 40 65 41
f 41 65 66
f 41 66 42
f 42 66 67
f 42 67 68
f 42 68 43
f 43 68 69
f 43 69 70
f 44 56 47
f 44 47 45
f 46 47 71
f 46 71 50
f 47 56 71
f 48 72 73
f 48 73 49
f 48 50 74
f 48 74 72
f 49 73 76
f 49 76 52
f 49 52 51
f 50 71 75
f 50 75 74
f 52 76 77
f 52 77 57
f 53 78 79
f 53 79 54
f 54 80 55
f 54 79 81
f 54 81 82
f 54 82 83
f 54 83 84
f 54 84 85
f 54 85 80
f 55 80 86
f 55 86 87
f 55 87 56
f 56 87 71
f 58 59 89
f 58 89 90
f 58 90 91
f 58 91 92
f 58 92 93
f 58 93 94
f 58 94 88
f 60 95 61
f 61 95 96
f 61 96 97
f 61 97 62
f 62 97 98
f 62 98 63
f 63 98 99
f 63 99 100
f 63 100 101
f 63 101 102
f 63 102 64
f 65 103 66
f 66 103 104
f 66 104 105
f 66 105 106
f 66 106 107
f 66 107 67
f 67 107 68
f 68 108 69
f 68 107 106
f 68 106 105
f 68 105 108
f 69 108 109
f 69 109 110
f 69 110 111
f 69 111 70
f 71 87 112
f 71 112 113
f 71 113 75
f 72 74 114
f 72 114 115
f 72 115 73
f 73 116 117
f 73 117 76
f 73 115 116
f 74 118 116
f 74 116 115
f 74 115 114
f 74 75 113
f 74 113 118
f 76 119 120
f 76 120 77
f 76 117 119
f 78 121 79
f 78 110 109
f 78 109 121
f 79 121 81
f 80 85 122
f 80 122 123
f 80 123 124
f 80 124 86
f 81 121 82
f 82 121 83
f 83 121 84
f 84 125 122
f 84 122 85
f 84 121 126
f 84 126 125
f 86 124 127
f 86 127 128
f 86 128 87
f 87 129 112
f 87 128 129
f 88 94 131
f 88 131 132
f 88 132 130
f 89 133 90
f 90 133 92
f 90 92 91
f 92 133 134
f 92 134 135
f 92 135 136
f 92 136 137
f 92 137 131
f 92 131 94
f 92 94 93
f 95 138 96
f 96 139 97
f 96 138 139
f 97 140 141
f 97 141 142
f 97 142 143
f 97 143 98
f 97 139 144
f 97 144 140
f 98 143 145
f 98 145 146
f 98 146 99
f 99 146 147
f 99 147 100
f 100 147 148
f 100 148 101
f 103 149 150
f 103 150 104
f 104 150 105
f 105 151 108
f 105 150 152
f 105 152 151
f 108 153 126
f 108 126 121
f 108 121 109
f 108 151 154
f 108 154 155
f 108 155 156
f 108 156 153
f 112 129 157
f 112 157 158
f 112 158 113
f 113 158 142
f 113 142 116
f 113 116 118
f 116 142 117
f 117 142 140
f 117 140 119
f 119 144 159
f 119 159 160
f 119 160 120
f 119 140 144
f 122 125 161
f 122 161 162
f 122 162 123
f 123 127 124
f 123 162 127
f 125 126 161
f 126 153 161
f 127 163 128
f 127 162 163
f 128 163 164
f 128 164 129
f 129 165 157
f 129 164 165
f 130 132 166
f 131 167 168
f 131 168 132
f 131 137 167
f 132 168 169
f 132 169 170
f 132 170 166
f 134 171 135
f 135 172 136
f 135 171 173
f 135 173 174
f 135 174 175
f 135 175 176
f 135 176 177
f 135 177 178
f 135 178 179
f 135 179 180
f 135 180 181
f 135 181 172
f 136 172 137
f 137 172 182
f 137 182 183
f 137 183 184
f 137 184 167
f 138 185 139
f 139 185 186
f 139 186 144
f 140 142 141
f 142 187 143
f 142 158 187
f 143 187 188
f 143 188 145
f 144 186 159
f 145 188 189
f 145 189 146
f 146 189 190
f 146 190 191
f 146 191 192
f 146 192 147
f 147 193 148
f 147 192 194
f 147 194 193
f 149 195 150
f 150 195 196
f 150 196 152
f 151 152 197
f 151 197 154
f 152 196 198
f 152 198 197
f 153 156 161
f 154 197 155
f 155 199 200
f 155 200 156
f 155 197 201
f 155 201 199
f 156 200 161
f 157 202 158
f 157 165 202
f 158 202 187
f 161 203 162
f 161 200 203
f 162 203 204
f 162 204 163
f 163 204 164
f 164 205 206
f 164 206 165
f 164 204 207
f 164 207 205
f 165 208 209
f 165 209 202
f 165 206 210
f 165 210 208
f 166 170 199
f 166 199 211
f 167 169 168
f 167 184 212
f 167 212 169
f 169 213 199
f 169 199 170
f 169 212 214
f 169 214 213
f 172 181 215
f 172 215 182
f 173 175 174
f 177 216 178
f 178 216 179
f 179 217 218
f 179 218 219
f 179 219 220
f 179 220 221
f 179 221 222
f 179 222 180
f 179 216 223
f 179 223 217
f 180 222 215
f 180 215 181
f 182 215 224
f 182 224 183
f 183 207 212
f 183 212 184
f 183 224 205
f 183 205 207
f 187 202 188
f 188 202 208
f 188 208 225
f 188 225 226
f 188 226 189
f 189 226 190
f 190 226 227
f 190 227 191
f 191 227 228
f 191 228 229
f 191 229 230
f 191 230 194
f 191 194 192
f 197 198 201
f 198 231 201
f 199 201 232
f 199 232 211
f 199 213 214
f 199 214 233
f 199 233 200
f 200 233 203
f 201 231 232
f 202 209 208
f 203 233 212
f 203 212 204
f 204 212 207
f 205 210 206
f 205 224 234
f 205 234 235
f 205 235 210
f 208 235 234
f 208 234 236
f 208 236 226
f 208 226 225
f 208 210 235
f 212 233 214
f 215 222 237
f 215 237 234
f 215 234 224
f 216 238 223
f 217 223 238
f 218 239 228
f 218 228 219
f 219 228 220
f 220 228 240
f 220 240 221
f 221 240 237
f 221 237 222
f 226 236 240
f 226 240 227
f 227 240 228
f 228 239 229
f 234 237 236
f 236 237 240

