# https://github.com/mikedh/trimesh
v -0.05311708 0.00022082 -0.03405568
v -0.05122067 0.00022082 -0.03405568
v -0.05312377 0.00022082 -0.03372227
v -0.05311976 0.00102230 -0.03405568
v -0.04762457 0.01767911 -0.03405568
v -0.04593426 0.00022082 -0.03090172
v -0.05315455 0.00022082 -0.03162263
v -0.05305686 0.00280128 -0.03405568
v -0.05317329 0.00022082 -0.03031599
v -0.05323218 0.00022082 -0.02610771
v -0.05321210 0.00102230 -0.02741435
v -0.05308630 0.00312598 -0.03162263
v -0.04594899 0.00102230 -0.03088370
v -0.04995327 0.01767911 -0.03405568
v -0.04308764 0.01767911 -0.02110643
v -0.04404856 0.01499611 -0.02435952
v -0.04566794 0.00022082 -0.02951398
v -0.05305016 0.00312598 -0.03372227
v -0.05304347 0.00312598 -0.03405568
v -0.05326028 0.00022082 -0.02400807
v -0.05326965 0.00102230 -0.02320607
v -0.05290964 0.00523136 -0.03162263
v -0.05313983 0.00312598 -0.02741435
v -0.05296986 0.00523136 -0.02741435
v -0.05294310 0.00523136 -0.02951398
v -0.05075626 0.01563524 -0.03405568
v -0.05044310 0.01679047 -0.03034303
v -0.05011654 0.01767911 -0.02959509
v -0.03985423 0.01767911 0.02098539
v -0.03971237 0.01767911 0.02308503
v -0.04320139 0.00022082 0.02518466
v -0.05286815 0.00523136 -0.03372227
v -0.05288957 0.00490667 -0.03405568
v -0.05327099 0.00022082 -0.02320607
v -0.05316660 0.00312598 -0.02530570
v -0.05329508 0.00102230 -0.02110643
v -0.05268346 0.00707870 -0.03162263
v -0.05265937 0.00691977 -0.03405568
v -0.05270220 0.00720003 -0.02951398
v -0.05299663 0.00523136 -0.02530570
v -0.05273967 0.00733675 -0.02530570
v -0.05131569 0.01364777 -0.03405568
v -0.05135450 0.01364777 -0.03162263
v -0.05082987 0.01574974 -0.02741435
v -0.05073351 0.01595310 -0.02959509
v -0.05047522 0.01682636 -0.02893726
v -0.05048726 0.01686054 -0.02741435
v -0.05015268 0.01767911 -0.02741435
v -0.03965348 0.01767911 0.02518466
v -0.04319202 0.00022082 0.02598667
v -0.05286012 0.00523136 -0.03405568
v -0.05329641 0.00022082 -0.02110643
v -0.05319069 0.00312598 -0.02320607
v -0.05302206 0.00523136 -0.02320607
v -0.05331515 0.00022082 -0.01899779
v -0.05330846 0.00102230 -0.01899779
v -0.05322950 0.00312598 -0.01899779
v -0.05321344 0.00312598 -0.02110643
v -0.05257372 0.00839627 -0.02647717
v -0.05268882 0.00751618 -0.02727017
v -0.05276510 0.00733675 -0.02320607
v -0.05138394 0.01364777 -0.02951398
v -0.05089144 0.01574974 -0.02320607
v -0.05091954 0.01574974 -0.02110643
v -0.05053009 0.01698016 -0.02110643
v -0.05054347 0.01701776 -0.01899779
v -0.05015937 0.01767911 -0.02692774
v -0.03966151 0.01767911 0.02678868
v -0.04318132 0.00022082 0.02729331
v -0.05304615 0.00523136 -0.02110643
v -0.05332185 0.00022082 -0.01689815
v -0.05331248 0.00102230 -0.01689815
v -0.05323485 0.00312598 -0.01689815
v -0.05308228 0.00523136 -0.01689815
v -0.05306756 0.00523136 -0.01899779
v -0.05278919 0.00733675 -0.02110643
v -0.05258041 0.00843387 -0.02530570
v -0.05140803 0.01364777 -0.02741435
v -0.05239706 0.00973436 -0.01689815
v -0.05094363 0.01574974 -0.01899779
v -0.05055685 0.01705193 -0.01689815
v -0.05029588 0.01767911 -0.01478951
v -0.03967757 0.01767911 0.02729331
v -0.04329374 0.00022082 0.02939294
v -0.05332452 0.00022082 -0.01348286
v -0.05331917 0.00083945 -0.01316747
v -0.05331783 0.00102230 -0.01268086
v -0.05323485 0.00312598 -0.01057221
v -0.05308362 0.00523136 -0.01478951
v -0.05284272 0.00733675 -0.01316747
v -0.05284138 0.00733675 -0.01478951
v -0.05282934 0.00733675 -0.01689815
v -0.05281060 0.00733675 -0.01899779
v -0.05259111 0.00850052 -0.02320607
v -0.05144684 0.01364777 -0.02320607
v -0.05098646 0.01574974 -0.01478951
v -0.05096638 0.01574974 -0.01689815
v -0.05240643 0.00977879 -0.01478951
v -0.05263394 0.00873122 -0.01478951
v -0.05261253 0.00862527 -0.01899779
v -0.05056756 0.01707928 -0.01478951
v -0.05031060 0.01767911 -0.01268086
v -0.03975653 0.01767911 0.02867204
v -0.04055418 0.01767911 0.03772840
v -0.04347976 0.00022082 0.03150159
v -0.05332452 0.00022082 -0.01316747
v -0.05331783 0.00102230 -0.01057221
v -0.05323351 0.00312598 -0.00847258
v -0.05307961 0.00523136 -0.01316747
v -0.05284272 0.00733675 -0.01268086
v -0.05268614 0.00843216 -0.01316747
v -0.05263930 0.00875173 -0.01316747
v -0.05146424 0.01364777 -0.02110643
v -0.05151510 0.01364777 -0.01478951
v -0.05152982 0.01364777 -0.01268086
v -0.05099717 0.01574974 -0.01268086
v -0.05241044 0.00980613 -0.01268086
v -0.05057024 0.01709124 -0.01268086
v -0.05031194 0.01767911 -0.01057221
v -0.04139866 0.01767911 0.04623508
v -0.04395353 0.00022082 0.03641275
v -0.04355605 0.00022082 0.03229459
v -0.05332318 0.00022082 -0.01137422
v -0.05331649 0.00102230 -0.00847258
v -0.05322682 0.00312598 -0.00636393
v -0.05307827 0.00523136 -0.01268086
v -0.05263930 0.00875515 -0.01268086
v -0.05306221 0.00523136 -0.00847258
v -0.05283335 0.00733675 -0.01057221
v -0.05263662 0.00874831 -0.01057221
v -0.05153651 0.01364777 -0.01057221
v -0.05099984 0.01574974 -0.01057221
v -0.05241312 0.00979588 -0.01057221
v -0.05056756 0.01708953 -0.01057221
v -0.05055953 0.01707244 -0.00636393
v -0.05055551 0.01706219 -0.00426430
v -0.05030793 0.01767911 -0.00965306
v -0.04142409 0.01767911 0.04646036
v -0.04539090 0.00022082 0.05044336
v -0.04407265 0.00022082 0.03761126
v -0.05331917 0.00022082 -0.00927458
v -0.05330846 0.00102230 -0.00636393
v -0.05305284 0.00523136 -0.00636393
v -0.05297923 0.00312598 0.03570987
v -0.05281863 0.00523136 0.03570987
v -0.05265669 0.00687534 0.03150159
v -0.05262859 0.00871072 -0.00847258
v -0.05132372 0.01364777 0.03780951
v -0.05136387 0.01364777 0.03150159
v -0.05152848 0.01364777 -0.00847258
v -0.05099181 0.01574974 -0.00847258
v -0.05137457 0.01364777 0.02939294
v -0.05055150 0.01704852 -0.00215565
v -0.05012859 0.01767911 0.02956416
v -0.05029856 0.01767911 -0.00757145
v -0.04164224 0.01767911 0.04838878
v -0.04563180 0.00022082 0.05254300
v -0.05331114 0.00022082 -0.00716594
v -0.05306087 0.00022082 0.03490786
v -0.05305284 0.00102230 0.03570987
v -0.05296585 0.00312598 0.03780951
v -0.05264866 0.00683262 0.03360122
v -0.05280123 0.00523136 0.03780951
v -0.05127152 0.01364777 0.04412643
v -0.05076296 0.01566600 0.03990914
v -0.05076965 0.01569335 0.03780951
v -0.05077500 0.01571215 0.03570987
v -0.05046986 0.01681098 0.02894238
v -0.05046451 0.01680243 0.03033913
v -0.05011253 0.01767911 0.03130334
v -0.04165428 0.01767911 0.04848791
v -0.04188046 0.01767911 0.05001983
v -0.04267409 0.01767911 0.05457054
v -0.04603196 0.00022082 0.05461560
v -0.05305552 0.00022082 0.03570987
v -0.05304481 0.00022082 0.03700750
v -0.05303544 0.00102230 0.03780951
v -0.05291767 0.00102230 0.04833472
v -0.05289090 0.00102230 0.05044336
v -0.05293774 0.00312598 0.03990914
v -0.05264063 0.00538517 0.05034424
v -0.05267811 0.00523136 0.04833472
v -0.05277714 0.00523136 0.03990914
v -0.05263796 0.00677451 0.03570987
v -0.05125279 0.01364777 0.04623508
v -0.05257506 0.00630456 0.04957828
v -0.05074422 0.01560448 0.04412643
v -0.05073218 0.01557372 0.04623508
v -0.04983014 0.01767911 0.05438130
v -0.04274101 0.01767911 0.05479582
v -0.04617382 0.00022082 0.05505715
v -0.05303812 0.00022082 0.03780951
v -0.05299931 0.00022082 0.04122479
v -0.05292704 0.00022082 0.04753271
v -0.05289358 0.00022082 0.05044336
v -0.05279320 0.00312598 0.05044336
v -0.05283068 0.00022082 0.05254300
v -0.05281730 0.00102230 0.05254300
v -0.05273298 0.00312598 0.05254300
v -0.05262725 0.00482122 0.05254300
v -0.05254829 0.00619006 0.05098404
v -0.05122468 0.01364777 0.04833472
v -0.05071879 0.01553271 0.04833472
v -0.05148432 0.01154239 0.05465164
v -0.05153250 0.01154239 0.05254300
v -0.05118721 0.01364777 0.05044336
v -0.04982613 0.01767911 0.05465164
v -0.04632773 0.00022082 0.05550771
v -0.04361360 0.01767911 0.05675128
v -0.05274369 0.00022082 0.05384963
v -0.05267811 0.00102230 0.05465164
v -0.05258041 0.00225443 0.05571498
v -0.05262190 0.00302515 0.05464263
v -0.05259379 0.00442817 0.05393074
v -0.05249342 0.00587391 0.05254300
v -0.05070139 0.01546948 0.05044336
v -0.05101858 0.01364777 0.05465164
v -0.05112431 0.01364777 0.05254300
v -0.05179882 0.00943701 0.05465164
v -0.05254294 0.00365745 0.05532749
v -0.05096103 0.01154239 0.05646291
v -0.05071076 0.01364777 0.05612950
v -0.05054079 0.01498927 0.05585015
v -0.05066794 0.01539770 0.05254300
v -0.05027179 0.01630172 0.05465164
v -0.04918507 0.01767911 0.05639082
v -0.04715348 0.00022082 0.05663413
v -0.04441526 0.01767911 0.05767043
v -0.05268748 0.00022082 0.05465164
v -0.05262859 0.00022082 0.05531848
v -0.05258442 0.00102230 0.05572399
v -0.05163823 0.00102230 0.05676930
v -0.05180284 0.00302515 0.05655303
v -0.05056221 0.00523136 0.05785967
v -0.05051537 0.00733675 0.05784164
v -0.05047522 0.00844583 0.05781461
v -0.05100653 0.00926099 0.05689546
v -0.05243052 0.00516984 0.05464263
v -0.05061039 0.01524903 0.05465164
v -0.04830846 0.01669135 0.05778758
v -0.04907532 0.01767911 0.05663413
v -0.04756970 0.00022082 0.05710272
v -0.04532532 0.01767911 0.05794077
v -0.04825225 0.00022082 0.05785967
v -0.05258308 0.00022082 0.05572399
v -0.05199690 0.00022082 0.05637280
v -0.05163823 0.00022082 0.05676930
v -0.05058630 0.00102230 0.05786868
v -0.05057961 0.00312598 0.05786868
v -0.04941526 0.00733675 0.05800385
v -0.04945675 0.00926099 0.05794077
v -0.04844229 0.01528833 0.05784164
v -0.04807291 0.01767911 0.05768845
v -0.04718158 0.01767911 0.05790472
v -0.04551269 0.01767911 0.05794077
v -0.04794310 0.00733675 0.05796781
v -0.04806756 0.00523136 0.05794077
v -0.04822548 0.00102230 0.05787769
v -0.04867784 0.00022082 0.05788670
v -0.05058630 0.00022082 0.05786868
v -0.04941526 0.00523136 0.05799484
v -0.04702366 0.01767911 0.05792275
v -0.04941526 0.00022082 0.05793176
v -0.04986092 0.00022082 0.05791374
f 1 2 6
f 1 6 17
f 1 17 31
f 1 31 50
f 1 50 69
f 1 69 84
f 1 84 105
f 1 105 122
f 1 122 121
f 1 121 140
f 1 140 139
f 1 139 157
f 1 157 174
f 1 174 191
f 1 191 208
f 1 208 227
f 1 227 242
f 1 242 244
f 1 244 259
f 1 259 263
f 1 263 264
f 1 264 260
f 1 260 247
f 1 247 246
f 1 246 245
f 1 245 230
f 1 230 229
f 1 229 210
f 1 210 197
f 1 197 195
f 1 195 194
f 1 194 193
f 1 193 192
f 1 192 176
f 1 176 175
f 1 175 159
f 1 159 158
f 1 158 141
f 1 141 123
f 1 123 106
f 1 106 85
f 1 85 71
f 1 71 55
f 1 55 52
f 1 52 34
f 1 34 20
f 1 20 10
f 1 10 9
f 1 9 7
f 1 7 3
f 1 3 4
f 1 4 8
f 1 8 19
f 1 19 33
f 1 33 51
f 1 51 38
f 1 38 42
f 1 42 26
f 1 26 14
f 1 14 5
f 1 5 2
f 2 5 6
f 3 7 4
f 4 7 9
f 4 9 10
f 4 10 11
f 4 11 12
f 4 12 8
f 5 13 6
f 5 14 28
f 5 28 48
f 5 48 67
f 5 67 82
f 5 82 102
f 5 102 119
f 5 119 137
f 5 137 155
f 5 155 154
f 5 154 170
f 5 170 189
f 5 189 207
f 5 207 226
f 5 226 241
f 5 241 253
f 5 253 254
f 5 254 262
f 5 262 255
f 5 255 243
f 5 243 228
f 5 228 209
f 5 209 190
f 5 190 173
f 5 173 172
f 5 172 171
f 5 171 156
f 5 156 138
f 5 138 120
f 5 120 104
f 5 104 103
f 5 103 83
f 5 83 68
f 5 68 49
f 5 49 30
f 5 30 29
f 5 29 15
f 5 15 16
f 5 16 13
f 6 13 16
f 6 16 15
f 6 15 17
f 8 12 18
f 8 18 19
f 10 20 21
f 10 21 11
f 11 21 12
f 12 22 18
f 12 21 23
f 12 23 24
f 12 24 25
f 12 25 22
f 14 26 27
f 14 27 28
f 15 29 17
f 17 29 30
f 17 30 31
f 18 22 32
f 18 32 33
f 18 33 19
f 20 34 21
f 21 35 23
f 21 34 52
f 21 52 36
f 21 36 35
f 22 37 38
f 22 38 32
f 22 25 39
f 22 39 37
f 23 35 40
f 23 40 24
f 24 40 41
f 24 41 25
f 25 41 39
f 26 42 43
f 26 43 44
f 26 44 45
f 26 45 46
f 26 46 27
f 27 46 28
f 28 46 47
f 28 47 48
f 30 49 31
f 31 49 50
f 32 38 51
f 32 51 33
f 35 36 53
f 35 53 70
f 35 70 54
f 35 54 40
f 36 52 55
f 36 55 56
f 36 56 57
f 36 57 58
f 36 58 53
f 37 39 59
f 37 59 38
f 38 59 42
f 39 41 60
f 39 60 59
f 40 54 61
f 40 61 41
f 41 59 60
f 41 61 59
f 42 59 43
f 43 62 63
f 43 63 44
f 43 59 62
f 44 47 46
f 44 46 45
f 44 63 47
f 47 63 64
f 47 64 65
f 47 65 48
f 48 65 66
f 48 66 67
f 49 68 69
f 49 69 50
f 53 58 70
f 54 70 76
f 54 76 61
f 55 71 56
f 56 71 72
f 56 72 73
f 56 73 57
f 57 73 74
f 57 74 75
f 57 75 58
f 58 75 70
f 59 61 76
f 59 76 77
f 59 77 62
f 62 78 64
f 62 64 63
f 62 77 79
f 62 79 78
f 64 78 80
f 64 80 81
f 64 81 66
f 64 66 65
f 66 81 67
f 67 81 82
f 68 83 69
f 69 83 84
f 70 75 93
f 70 93 76
f 71 85 86
f 71 86 87
f 71 87 72
f 72 87 73
f 73 87 107
f 73 107 88
f 73 88 89
f 73 89 74
f 74 89 90
f 74 90 91
f 74 91 92
f 74 92 75
f 75 92 93
f 76 93 77
f 77 93 94
f 77 94 79
f 78 95 96
f 78 96 97
f 78 97 80
f 78 79 98
f 78 98 95
f 79 99 98
f 79 94 100
f 79 100 99
f 80 97 81
f 81 97 96
f 81 96 101
f 81 101 82
f 82 101 102
f 83 103 84
f 84 103 104
f 84 104 105
f 85 106 107
f 85 107 87
f 85 87 86
f 88 107 124
f 88 124 108
f 88 108 89
f 89 109 110
f 89 110 90
f 89 108 109
f 90 110 111
f 90 111 91
f 91 99 92
f 91 111 112
f 91 112 99
f 92 99 93
f 93 99 100
f 93 100 94
f 95 113 96
f 95 98 113
f 96 113 114
f 96 114 115
f 96 115 116
f 96 116 101
f 98 114 113
f 98 99 112
f 98 112 117
f 98 117 115
f 98 115 114
f 101 116 118
f 101 118 102
f 102 118 119
f 104 120 121
f 104 121 122
f 104 122 105
f 106 123 124
f 106 124 107
f 108 124 125
f 108 125 126
f 108 126 109
f 109 126 110
f 110 127 111
f 110 126 128
f 110 128 143
f 110 143 129
f 110 129 130
f 110 130 127
f 111 127 112
f 112 127 117
f 115 117 131
f 115 131 116
f 116 131 132
f 116 132 118
f 117 127 133
f 117 133 131
f 118 132 134
f 118 134 119
f 119 134 135
f 119 135 136
f 119 136 137
f 120 138 139
f 120 139 140
f 120 140 121
f 123 141 124
f 124 141 158
f 124 158 142
f 124 142 125
f 125 143 128
f 125 128 126
f 125 142 144
f 125 144 145
f 125 145 143
f 127 130 133
f 129 143 146
f 129 146 130
f 130 146 147
f 130 147 148
f 130 148 149
f 130 149 133
f 131 133 150
f 131 150 151
f 131 151 132
f 132 151 136
f 132 136 135
f 132 135 134
f 133 149 152
f 133 152 150
f 136 153 154
f 136 154 155
f 136 155 137
f 136 151 153
f 138 156 139
f 139 156 157
f 142 158 159
f 142 159 160
f 142 160 144
f 143 145 146
f 144 160 161
f 144 161 145
f 145 162 146
f 145 161 163
f 145 163 162
f 146 162 147
f 147 162 148
f 148 162 164
f 148 164 165
f 148 165 166
f 148 166 149
f 149 166 151
f 149 151 152
f 150 152 151
f 151 166 167
f 151 167 168
f 151 168 153
f 153 168 154
f 154 168 169
f 154 169 170
f 156 171 157
f 157 171 172
f 157 172 173
f 157 173 174
f 159 175 160
f 160 175 176
f 160 176 177
f 160 177 161
f 161 177 178
f 161 178 179
f 161 179 180
f 161 180 181
f 161 181 182
f 161 182 183
f 161 183 163
f 162 163 184
f 162 184 185
f 162 185 164
f 163 183 186
f 163 186 184
f 164 185 187
f 164 187 165
f 165 187 169
f 165 169 166
f 166 169 168
f 166 168 167
f 169 187 188
f 169 188 189
f 169 189 170
f 173 190 174
f 174 190 191
f 176 192 177
f 177 192 178
f 178 192 193
f 178 193 194
f 178 194 195
f 178 195 179
f 179 196 180
f 179 195 197
f 179 197 198
f 179 198 199
f 179 199 196
f 180 196 181
f 181 186 182
f 181 196 200
f 181 200 201
f 181 201 186
f 182 186 183
f 184 186 185
f 185 188 187
f 185 186 202
f 185 202 203
f 185 203 188
f 186 201 204
f 186 204 205
f 186 205 206
f 186 206 202
f 188 203 189
f 189 203 207
f 190 208 191
f 190 209 208
f 196 199 200
f 197 210 211
f 197 211 198
f 198 211 212
f 198 212 213
f 198 213 199
f 199 213 214
f 199 214 200
f 200 214 201
f 201 214 215
f 201 215 204
f 202 206 216
f 202 216 203
f 203 216 207
f 204 217 218
f 204 218 206
f 204 206 205
f 204 215 219
f 204 219 220
f 204 220 221
f 204 221 222
f 204 222 223
f 204 223 217
f 206 218 224
f 206 224 216
f 207 216 224
f 207 224 225
f 207 225 223
f 207 223 226
f 208 209 227
f 209 228 227
f 210 229 211
f 211 229 212
f 212 220 213
f 212 229 230
f 212 230 231
f 212 231 232
f 212 232 233
f 212 233 234
f 212 234 235
f 212 235 236
f 212 236 237
f 212 237 221
f 212 221 220
f 213 220 214
f 214 220 238
f 214 238 215
f 215 238 219
f 217 239 218
f 217 223 239
f 218 239 224
f 219 238 220
f 221 237 236
f 221 236 240
f 221 240 222
f 222 240 241
f 222 241 223
f 223 241 226
f 223 225 239
f 224 239 225
f 227 228 242
f 228 243 244
f 228 244 242
f 230 245 231
f 231 246 247
f 231 247 232
f 231 245 246
f 232 247 260
f 232 260 248
f 232 248 249
f 232 249 234
f 232 234 233
f 234 249 250
f 234 250 235
f 235 250 251
f 235 251 236
f 236 251 252
f 236 252 240
f 240 253 241
f 240 252 254
f 240 254 253
f 243 255 250
f 243 250 256
f 243 256 257
f 243 257 258
f 243 258 244
f 244 258 259
f 248 260 250
f 248 250 249
f 250 261 256
f 250 255 262
f 250 262 251
f 250 260 261
f 251 262 254
f 251 254 252
f 256 261 263
f 256 263 257
f 257 263 258
f 258 263 259
f 260 264 261
f 261 264 263

