# https://github.com/mikedh/trimesh
v 0.04344037 0.01770475 -0.05712163
v 0.02753634 0.03793169 -0.05712163
v 0.04630853 0.01770475 -0.05712163
v 0.04781112 0.01770475 -0.02954043
v 0.04305406 0.01771029 0.05464948
v 0.04271266 0.01771029 0.05248005
v 0.04182099 0.01771029 0.04598304
v 0.04160987 0.01771029 0.04391530
v 0.04140324 0.01771029 0.04184755
v 0.04058344 0.01771029 0.03357658
v 0.04043296 0.01771029 0.03149754
v 0.04017467 0.01771029 0.02728296
v 0.04012975 0.01771029 0.02644683
v 0.04007809 0.01771029 0.02517002
v 0.04011178 0.01771029 0.02307968
v 0.02753634 0.04107422 -0.05712163
v 0.02753410 0.03415733 0.02307968
v 0.02753410 0.03427372 0.02097804
v 0.02753410 0.03816170 -0.01687409
v 0.02753410 0.03819496 -0.01698708
v 0.02753410 0.04289767 -0.02954043
v 0.04625463 0.01785994 -0.05712163
v 0.04667014 0.01785994 -0.05642109
v 0.04669484 0.01770475 -0.05646628
v 0.05021884 0.01770475 -0.02954043
v 0.04738662 0.01771029 0.05826521
v 0.04560328 0.01771029 0.05809572
v 0.04454541 0.01771029 0.05747427
v 0.04371214 0.01771029 0.05643475
v 0.02753410 0.03807025 0.05521444
v 0.02753410 0.03759361 0.05403933
v 0.02753410 0.03725275 0.05258174
v 0.02753410 0.03706431 0.05128234
v 0.02753410 0.03682044 0.04948578
v 0.02753410 0.03502471 0.03570082
v 0.02753410 0.03489723 0.03455961
v 0.02753410 0.03479193 0.03359918
v 0.02753410 0.03439011 0.02939590
v 0.02753410 0.03423769 0.02728296
v 0.02753410 0.03418227 0.02518132
v 0.02753410 0.03422383 0.02683099
v 0.02838758 0.04053661 -0.05712163
v 0.02753410 0.04557465 -0.02954043
v 0.02753634 0.04120170 -0.05687305
v 0.02849764 0.04059481 -0.05688435
v 0.04583912 0.01887419 -0.05712163
v 0.04642308 0.01912360 -0.05598042
v 0.04746747 0.01785994 -0.05477141
v 0.04678244 0.01770475 -0.05629679
v 0.05027050 0.01771029 -0.02741619
v 0.05030644 0.01771029 -0.02530325
v 0.05038954 0.01771029 -0.01987966
v 0.05045018 0.01771029 -0.01478375
v 0.05047040 0.01771029 -0.01268211
v 0.05047938 0.01771029 -0.01058047
v 0.05047938 0.01771029 -0.00846753
v 0.05042548 0.01771029 0.01149806
v 0.05036259 0.01771029 0.03359918
v 0.05035585 0.01771029 0.03570082
v 0.05034687 0.01771029 0.03780246
v 0.05033564 0.01771029 0.03911316
v 0.05028847 0.01771029 0.04347463
v 0.05020537 0.01771029 0.05043490
v 0.05017168 0.01771029 0.05243485
v 0.05015595 0.01771029 0.05299981
v 0.05010879 0.01771029 0.05463818
v 0.04952482 0.01771029 0.05676242
v 0.04870952 0.01771029 0.05794883
v 0.05008408 0.01770475 -0.03583405
v 0.04528435 0.02206938 0.05831040
v 0.02845047 0.04100218 0.05816352
v 0.04558307 0.01785994 0.05811831
v 0.04868482 0.01785994 0.05794883
v 0.04738662 0.01785994 0.05825391
v 0.02753410 0.03973574 0.05788104
v 0.02753410 0.03886559 0.05679632
v 0.02873572 0.04031492 -0.05712163
v 0.02753410 0.04560236 -0.02818453
v 0.02753634 0.04557465 -0.02954043
v 0.02753634 0.04555802 -0.03034267
v 0.02753634 0.04536958 -0.03792439
v 0.02753634 0.04529752 -0.04003733
v 0.02753634 0.04523379 -0.04120114
v 0.02753634 0.04517836 -0.04215027
v 0.02753634 0.04506752 -0.04346097
v 0.02753634 0.04478485 -0.04586769
v 0.02753634 0.04444954 -0.04821791
v 0.02753634 0.04441352 -0.04845519
v 0.02753634 0.04424447 -0.04942692
v 0.02753634 0.04420013 -0.04966420
v 0.02753634 0.04417519 -0.04974329
v 0.02753634 0.04354336 -0.05155116
v 0.02753634 0.04316371 -0.05262458
v 0.02753634 0.04267875 -0.05389008
v 0.02753634 0.04247922 -0.05437594
v 0.02977337 0.04014033 -0.05618380
v 0.04541462 0.01989953 -0.05712163
v 0.04611987 0.02052582 -0.05539286
v 0.04671281 0.01988013 -0.05472621
v 0.04527312 0.02024039 -0.05712163
v 0.04751689 0.01770475 -0.05477141
v 0.04759101 0.01770475 -0.05461322
v 0.04924632 0.01996604 -0.04003733
v 0.04881508 0.02187817 -0.01688539
v 0.04883081 0.02190588 -0.01478375
v 0.04927552 0.01996604 -0.03793569
v 0.04883979 0.02192528 -0.01268211
v 0.04884653 0.02193913 -0.01058047
v 0.04884878 0.02194468 -0.00846753
v 0.04885102 0.02194190 -0.00426425
v 0.04884653 0.02192250 0.01676346
v 0.04883530 0.02191419 0.03149754
v 0.04883081 0.02190588 0.03359918
v 0.04881958 0.02188094 0.03570082
v 0.04874097 0.02172021 0.04623162
v 0.04872749 0.02167033 0.04833326
v 0.04871177 0.02160936 0.05043490
v 0.04930247 0.01996604 0.05254784
v 0.04923734 0.01996604 0.05463818
v 0.04854781 0.02128236 0.05600538
v 0.04876343 0.01981917 0.05671723
v 0.04847594 0.01902107 0.05783584
v 0.05003916 0.01770475 -0.03764191
v 0.04675773 0.02206938 0.05803923
v 0.04533152 0.02415886 0.05808442
v 0.04317759 0.02627882 0.05820871
v 0.04107532 0.02838216 0.05820871
v 0.03275383 0.03899583 0.05809572
v 0.02753410 0.04104374 0.05808442
v 0.03053253 0.04104374 0.05805053
v 0.02753410 0.04306117 0.05803923
v 0.03040900 0.03911776 -0.05712163
v 0.02753410 0.04569103 -0.02319031
v 0.02979808 0.04435809 -0.02319031
v 0.02966557 0.04426941 -0.03161947
v 0.02962963 0.04424724 -0.03373241
v 0.02957572 0.04421122 -0.03583405
v 0.02834266 0.04479040 -0.04003733
v 0.02825058 0.04473774 -0.04215027
v 0.02813154 0.04463244 -0.04425191
v 0.02794736 0.04448834 -0.04635355
v 0.02769132 0.04433315 -0.04845519
v 0.02989691 0.04233235 -0.05055683
v 0.02874021 0.04366806 -0.04845519
v 0.03028771 0.04261501 -0.04845519
v 0.02960492 0.04212451 -0.05181104
v 0.02849539 0.04256790 -0.05256808
v 0.02922759 0.04186402 -0.05321213
v 0.02782383 0.04233512 -0.05429685
v 0.03050557 0.04038697 -0.05459063
v 0.03164206 0.03997683 -0.05377709
v 0.03117713 0.03962766 -0.05517818
v 0.03207105 0.03822544 -0.05644368
v 0.03065606 0.03898752 -0.05701994
v 0.04457461 0.02176455 -0.05712163
v 0.04465771 0.02195576 -0.05681656
v 0.04437471 0.02339678 -0.05607081
v 0.04645902 0.02126573 -0.05399177
v 0.04818620 0.01770475 -0.05300875
v 0.04919241 0.01996604 -0.04215027
v 0.04863091 0.02143201 -0.04003733
v 0.04865562 0.02149297 -0.03793569
v 0.04868032 0.02154562 -0.03583405
v 0.04870054 0.02158719 -0.03373241
v 0.04871626 0.02162599 -0.03161947
v 0.04836588 0.02295893 -0.01478375
v 0.04837262 0.02297833 -0.01268211
v 0.04837711 0.02299219 -0.01058047
v 0.04679592 0.02604881 0.02939590
v 0.04678469 0.02604050 0.03359918
v 0.04677346 0.02603219 0.03570082
v 0.04676447 0.02601833 0.03780246
v 0.04675549 0.02599339 0.03991540
v 0.04673977 0.02596845 0.04201704
v 0.04672180 0.02594351 0.04411868
v 0.04670383 0.02591580 0.04623162
v 0.04667912 0.02587700 0.04833326
v 0.04664768 0.02582989 0.05043490
v 0.04661399 0.02576892 0.05254784
v 0.04867808 0.02154008 0.05254784
v 0.04863091 0.02145695 0.05463818
v 0.04657132 0.02567470 0.05463818
v 0.04647474 0.02548349 0.05607317
v 0.04678918 0.02415886 0.05676242
v 0.04815925 0.02042329 0.05740647
v 0.04647698 0.02344943 0.05790364
v 0.05003018 0.01770475 -0.03793569
v 0.04459258 0.02627882 0.05796013
v 0.04307876 0.02822420 0.05798273
v 0.04112697 0.03049935 0.05802793
v 0.03908760 0.03269968 0.05805053
v 0.03493921 0.03696177 0.05808442
v 0.03434851 0.03835846 0.05798273
v 0.03211372 0.04037034 0.05798273
v 0.02825956 0.04303346 0.05797143
v 0.02753410 0.04403386 0.05783584
v 0.03076162 0.03884341 -0.05712163
v 0.02753410 0.04578802 -0.01687409
v 0.02984974 0.04439689 -0.01898703
v 0.02982503 0.04437749 -0.02108867
v 0.03084921 0.04362372 -0.02319031
v 0.03087841 0.04364589 -0.02108867
v 0.03081552 0.04360155 -0.02529195
v 0.03074814 0.04355167 -0.02954043
v 0.03068076 0.04348517 -0.03373241
v 0.03062910 0.04344637 -0.03583405
v 0.03201265 0.04235452 -0.03793569
v 0.03194976 0.04230186 -0.04003733
v 0.02952856 0.04417797 -0.03716735
v 0.03177233 0.04217439 -0.04425191
v 0.03167799 0.04211065 -0.04564170
v 0.02900075 0.04381771 -0.04635355
v 0.03095028 0.04159798 -0.05055683
v 0.03071894 0.04265658 -0.04634225
v 0.03134109 0.04183076 -0.04845519
v 0.03236977 0.04054493 -0.05055683
v 0.03191383 0.04019022 -0.05266977
v 0.03040675 0.04129038 -0.05256808
v 0.03387909 0.03798435 -0.05401437
v 0.03347481 0.03764349 -0.05541546
v 0.03296496 0.03932283 -0.05266977
v 0.03281672 0.03715576 -0.05712163
v 0.03261234 0.03733311 -0.05712163
v 0.04433204 0.02224396 -0.05712163
v 0.04399065 0.02479900 -0.05533637
v 0.04465322 0.02412838 -0.05469232
v 0.04370091 0.02342172 -0.05712163
v 0.04349652 0.02412838 -0.05681656
v 0.04432530 0.02538650 -0.05393527
v 0.04609965 0.02266796 -0.05313304
v 0.04638041 0.02320557 -0.05173194
v 0.04666116 0.02200841 -0.05252288
v 0.04742480 0.01996604 -0.05266977
v 0.04833219 0.01770475 -0.05260197
v 0.04859947 0.02136272 -0.04215027
v 0.04984151 0.01770475 -0.04189039
v 0.04972472 0.01770475 -0.04425191
v 0.04906664 0.01996604 -0.04425191
v 0.04853658 0.02123248 -0.04425191
v 0.04658030 0.02566362 -0.04003733
v 0.04661174 0.02570796 -0.03793569
v 0.04663421 0.02574675 -0.03583405
v 0.04665442 0.02578555 -0.03373241
v 0.04668811 0.02585483 -0.02954043
v 0.04672180 0.02592411 -0.02530325
v 0.04775946 0.02417272 -0.01478375
v 0.04777742 0.02417272 -0.01268211
v 0.04779090 0.02417272 -0.01058047
v 0.04679816 0.02605159 0.02728296
v 0.04450498 0.02984258 0.03148624
v 0.04451397 0.02984812 0.02728296
v 0.04448702 0.02981209 0.03780246
v 0.04447578 0.02980101 0.03991540
v 0.04448252 0.02975113 0.04206224
v 0.04441065 0.02975113 0.04626552
v 0.04434776 0.02960425 0.05463818
v 0.04430509 0.02954052 0.05585849
v 0.04606372 0.02485166 0.05747427
v 0.04428038 0.02741501 0.05783584
v 0.04046440 0.03207062 0.05791493
v 0.03637890 0.03637151 0.05797143
v 0.03575226 0.03777373 0.05775675
v 0.03351523 0.03976345 0.05765506
v 0.03122205 0.04177257 0.05753076
v 0.02981605 0.04227970 0.05790364
v 0.02753410 0.04421676 0.05765506
v 0.02753410 0.04582959 -0.01325836
v 0.03090087 0.04366529 -0.01898703
v 0.02988343 0.04442460 -0.01478375
v 0.03091884 0.04368192 -0.01687409
v 0.03227768 0.04257344 -0.02319031
v 0.03219009 0.04249862 -0.02954043
v 0.03234057 0.04261224 -0.01898703
v 0.03215864 0.04246814 -0.03161947
v 0.03211821 0.04243211 -0.03373241
v 0.03206880 0.04239331 -0.03583405
v 0.03306378 0.04155364 -0.03793569
v 0.03300090 0.04150653 -0.04003733
v 0.03312218 0.04160352 -0.03583405
v 0.03292453 0.04145665 -0.04215027
v 0.03187115 0.04224090 -0.04215027
v 0.03282346 0.04135966 -0.04425191
v 0.03395321 0.04014587 -0.04635355
v 0.03380272 0.04002394 -0.04783374
v 0.03365224 0.03987984 -0.04923483
v 0.03412839 0.04030661 -0.04425191
v 0.03342090 0.03969140 -0.05055683
v 0.03605772 0.03598077 -0.05416126
v 0.03477300 0.03681213 -0.05479401
v 0.03419353 0.03827255 -0.05266977
v 0.03524242 0.03734143 -0.05266977
v 0.03566692 0.03559280 -0.05556235
v 0.03415086 0.03614150 -0.05687305
v 0.03405877 0.03605837 -0.05712163
v 0.04241619 0.02607098 -0.05668097
v 0.04214442 0.02735682 -0.05585613
v 0.04347406 0.02616243 -0.05469232
v 0.04329438 0.02413669 -0.05712163
v 0.04312818 0.02442489 -0.05712163
v 0.04231736 0.02578278 -0.05712163
v 0.04391204 0.02686909 -0.05266977
v 0.04457686 0.02581326 -0.05266977
v 0.04241619 0.02776418 -0.05477141
v 0.04414113 0.02725151 -0.05144946
v 0.04483739 0.02644232 -0.05066982
v 0.04654436 0.02351871 -0.05055683
v 0.04857701 0.01924276 -0.04998057
v 0.04853433 0.01770475 -0.05201442
v 0.04653538 0.02559711 -0.04215027
v 0.04804245 0.02228830 -0.04425191
v 0.04712833 0.02417272 -0.04425191
v 0.04960568 0.01770475 -0.04615017
v 0.04959221 0.01770475 -0.04635355
v 0.04941028 0.01770475 -0.04828570
v 0.04934065 0.01785994 -0.04845519
v 0.04880161 0.02011292 -0.04633095
v 0.04847594 0.02110223 -0.04561911
v 0.04595366 0.02665016 -0.04215027
v 0.04596489 0.02671390 -0.04003733
v 0.04433204 0.02958486 -0.03583405
v 0.04430958 0.02954883 -0.03793569
v 0.04434776 0.02960980 -0.03373241
v 0.04448702 0.02981487 -0.01478375
v 0.04673528 0.02594905 -0.02320161
v 0.04678918 0.02604050 -0.01268211
v 0.04680041 0.02605713 -0.01058047
v 0.04680490 0.02607375 -0.00846753
v 0.04680490 0.02608484 -0.00636589
v 0.04680266 0.02608761 -0.00426425
v 0.04377503 0.03089563 0.03148624
v 0.04451621 0.02985643 -0.00215131
v 0.04378850 0.03090949 -0.00004967
v 0.04378850 0.03090395 0.00835690
v 0.04375706 0.03086515 0.03780246
v 0.04374808 0.03085129 0.03991540
v 0.04373684 0.03083467 0.04201704
v 0.04373011 0.03080972 0.04411868
v 0.04446231 0.02978161 0.04201704
v 0.04371663 0.03078478 0.04622032
v 0.04370540 0.03075430 0.04833326
v 0.04368968 0.03072105 0.05042360
v 0.04423995 0.02975113 0.05463818
v 0.04263855 0.03222026 0.05042360
v 0.04259587 0.03217592 0.05253654
v 0.04235330 0.03184338 0.05618617
v 0.04186592 0.03121155 0.05759856
v 0.04356615 0.03065731 0.05463818
v 0.04172891 0.03311536 0.05463818
v 0.03986696 0.03347561 0.05772285
v 0.03841379 0.03624958 0.05632176
v 0.03631601 0.03831134 0.05635565
v 0.03414187 0.04032323 0.05625396
v 0.03272464 0.04104929 0.05689801
v 0.03192730 0.04231572 0.05612967
v 0.03040001 0.04300021 0.05667203
v 0.02883454 0.04368469 0.05721439
v 0.02753410 0.04489016 0.05667203
v 0.02958022 0.04421122 0.05582459
v 0.02753410 0.04585176 -0.01113412
v 0.03236078 0.04262886 -0.01687409
v 0.02990364 0.04443291 -0.01267081
v 0.03096825 0.04370686 -0.01056917
v 0.03324571 0.04168943 -0.02954043
v 0.03321202 0.04166726 -0.03161947
v 0.03341641 0.04181968 -0.01687409
v 0.03317159 0.04164232 -0.03373241
v 0.03429236 0.04045348 -0.04003733
v 0.03422947 0.04040637 -0.04215027
v 0.03440241 0.04055047 -0.03583405
v 0.03434851 0.04050336 -0.03793569
v 0.03445407 0.04058927 -0.03373241
v 0.03500434 0.03927849 -0.04635355
v 0.03624189 0.03822821 -0.04635355
v 0.03583088 0.03785964 -0.04955121
v 0.03600607 0.03800928 -0.04845519
v 0.03517953 0.03939488 -0.04425191
v 0.03558606 0.03763517 -0.05095230
v 0.03810160 0.03384418 -0.05409346
v 0.03690447 0.03471711 -0.05482791
v 0.03639013 0.03628837 -0.05266977
v 0.03744351 0.03523809 -0.05266977
v 0.03774673 0.03344513 -0.05549456
v 0.03624414 0.03408250 -0.05687305
v 0.03615879 0.03399383 -0.05712163
v 0.03534573 0.03481687 -0.05712163
v 0.03520199 0.03513556 -0.05687305
v 0.03488081 0.03527689 -0.05712163
v 0.04188388 0.02649775 -0.05712163
v 0.04026900 0.02977053 -0.05624030
v 0.04168399 0.02881724 -0.05477141
v 0.04150880 0.02708801 -0.05712163
v 0.04083275 0.02814938 -0.05712163
v 0.04051606 0.02863434 -0.05712163
v 0.04199394 0.02928834 -0.05346071
v 0.04281823 0.02850409 -0.05272627
v 0.04229939 0.02967353 -0.05205962
v 0.04438145 0.02755357 -0.05004837
v 0.04677346 0.02396211 -0.04845519
v 0.04872524 0.01961133 -0.04845519
v 0.04886450 0.01796247 -0.05063592
v 0.04877016 0.01770475 -0.05127998
v 0.04647249 0.02548349 -0.04425191
v 0.04684533 0.02437224 -0.04650044
v 0.04938782 0.01770475 -0.04844389
v 0.04894311 0.01770475 -0.05062463
v 0.04477900 0.02858168 -0.04218417
v 0.04496092 0.02838216 -0.04003733
v 0.04589077 0.02653654 -0.04425191
v 0.04357963 0.03063514 -0.03583405
v 0.04360882 0.03066008 -0.03373241
v 0.04363353 0.03067948 -0.03161947
v 0.04365150 0.03070165 -0.02954043
v 0.04355043 0.03060188 -0.03793569
v 0.04427589 0.02950449 -0.04003733
v 0.04351898 0.03055755 -0.04003733
v 0.04374808 0.03084298 -0.01687409
v 0.04376380 0.03086515 -0.01478375
v 0.04449824 0.02982872 -0.01267081
v 0.04451172 0.02984812 -0.00846753
v 0.04451621 0.02985643 -0.00636589
v 0.04450498 0.02983981 -0.01056917
v 0.04273288 0.03235605 0.01256018
v 0.04271940 0.03234774 0.03148624
v 0.04271715 0.03234219 0.03359918
v 0.04271266 0.03233388 0.03570082
v 0.04378850 0.03090949 -0.00425295
v 0.04270368 0.03232557 0.03780246
v 0.04267897 0.03228123 0.04411868
v 0.04266774 0.03226183 0.04622032
v 0.04265427 0.03224243 0.04833326
v 0.04182998 0.03327332 0.05042360
v 0.04180752 0.03322898 0.05253654
v 0.04067778 0.03440396 0.05463818
v 0.04041499 0.03410467 0.05632176
v 0.03975691 0.03545702 0.05463818
v 0.03870802 0.03654055 0.05463818
v 0.03765689 0.03759361 0.05463818
v 0.03660575 0.03859955 0.05463818
v 0.03548723 0.03964983 0.05463818
v 0.03443385 0.04059481 0.05463818
v 0.03321651 0.04164786 0.05463818
v 0.03216762 0.04248476 0.05463818
v 0.02753410 0.04559127 0.05463818
v 0.03073916 0.04353782 0.05463818
v 0.02968578 0.04428881 0.05463818
v 0.02753410 0.04587116 -0.00902118
v 0.03237201 0.04263718 -0.01478375
v 0.02991487 0.04444400 -0.01056917
v 0.02993059 0.04444954 -0.00846753
v 0.03097948 0.04371240 -0.00846753
v 0.03238773 0.04265381 -0.01056917
v 0.03460455 0.04068072 -0.02529195
v 0.03457086 0.04066132 -0.02740489
v 0.03449674 0.04061421 -0.03161947
v 0.03453268 0.04063915 -0.02954043
v 0.03467193 0.04076662 -0.01687409
v 0.03344336 0.04184185 -0.01056917
v 0.03468091 0.04077494 -0.01478375
v 0.03534573 0.03953898 -0.04003733
v 0.03528285 0.03947802 -0.04215027
v 0.03654511 0.03848593 -0.04003733
v 0.03545579 0.03963320 -0.03583405
v 0.03550745 0.03967477 -0.03373241
v 0.03554788 0.03970249 -0.03161947
v 0.03729528 0.03722227 -0.04635355
v 0.03705720 0.03701720 -0.04845519
v 0.03636318 0.03834183 -0.04425191
v 0.03741656 0.03735251 -0.04425191
v 0.03797807 0.03580064 -0.04968680
v 0.03678768 0.03672068 -0.05031955
v 0.03646874 0.03842497 -0.04215027
v 0.03774223 0.03556787 -0.05108789
v 0.04007809 0.03161060 -0.05383358
v 0.03891915 0.03252232 -0.05466972
v 0.03842278 0.03418781 -0.05266977
v 0.03947166 0.03297125 -0.05266977
v 0.03973670 0.03117275 -0.05523467
v 0.03833743 0.03204013 -0.05647758
v 0.03743004 0.03259437 -0.05712163
v 0.03729752 0.03274402 -0.05712163
v 0.03915497 0.03049658 -0.05712163
v 0.03900449 0.03069056 -0.05712163
v 0.04032515 0.03192097 -0.05266977
v 0.03980857 0.03338139 -0.05091840
v 0.04173115 0.03104528 -0.05055683
v 0.04253298 0.02999222 -0.05055683
v 0.04383118 0.02889206 -0.04845519
v 0.04457012 0.02784178 -0.04845519
v 0.04629730 0.02520360 -0.04730268
v 0.04640287 0.02534770 -0.04590159
v 0.04483739 0.02826300 -0.04425191
v 0.04419503 0.02941581 -0.04291861
v 0.04424894 0.02946292 -0.04151752
v 0.04587281 0.02614303 -0.04650044
v 0.04473632 0.02809395 -0.04635355
v 0.04255769 0.03209001 -0.03373241
v 0.04258239 0.03212881 -0.03161947
v 0.04260261 0.03216207 -0.02950653
v 0.04261833 0.03218701 -0.02740489
v 0.04252849 0.03205122 -0.03583405
v 0.04246560 0.03197363 -0.04003733
v 0.04242742 0.03191820 -0.04215027
v 0.04263405 0.03220641 -0.02529195
v 0.04266774 0.03223689 -0.02108867
v 0.04271042 0.03228400 -0.01478375
v 0.04271715 0.03230617 -0.01267081
v 0.04272389 0.03232279 -0.01056917
v 0.04376829 0.03088178 -0.01267081
v 0.04377952 0.03090117 -0.00846753
v 0.04273512 0.03234219 -0.00215131
v 0.04192881 0.03339248 -0.00425295
v 0.04192881 0.03339248 -0.00215131
v 0.04189511 0.03340079 0.02939590
v 0.04189287 0.03340079 0.03148624
v 0.04187490 0.03336754 0.03991540
v 0.04272839 0.03233665 -0.00846753
v 0.04273063 0.03233942 -0.00636589
v 0.04185019 0.03331488 0.04622032
v 0.04077660 0.03453975 0.05042360
v 0.04075639 0.03450096 0.05253654
v 0.03982878 0.03555401 0.05253654
v 0.03784106 0.03776819 0.04833326
v 0.03559280 0.03972465 0.05253654
v 0.03454391 0.04069180 0.05253654
v 0.03331534 0.04174486 0.05253654
v 0.03226196 0.04254296 0.05253654
v 0.03083799 0.04359324 0.05253654
v 0.02753410 0.04563561 0.05384725
v 0.02978460 0.04436363 0.05253654
v 0.02753410 0.04588225 -0.00689695
v 0.02753410 0.04594598 0.00835690
v 0.02753410 0.04595430 0.01045854
v 0.03002717 0.04451605 0.02518132
v 0.03107831 0.04378445 0.02518132
v 0.03239672 0.04265935 -0.00846753
v 0.03242592 0.04267875 -0.00004967
v 0.03565568 0.03977454 -0.02529195
v 0.03572756 0.03987153 -0.01687409
v 0.03562199 0.03974960 -0.02740489
v 0.03344785 0.04185016 -0.00846753
v 0.03470113 0.04079711 -0.00846753
v 0.03659228 0.03853027 -0.03793569
v 0.03764565 0.03758529 -0.03793569
v 0.03759624 0.03754095 -0.04003733
v 0.03665741 0.03862172 -0.03373241
v 0.03831721 0.03617198 -0.04635355
v 0.03812630 0.03596415 -0.04845519
v 0.03844973 0.03629946 -0.04425191
v 0.03752212 0.03746059 -0.04215027
v 0.03855978 0.03641031 -0.04215027
v 0.04002418 0.03364188 -0.04951731
v 0.03889444 0.03460626 -0.05030825
v 0.04215565 0.03157735 -0.04752866
v 0.04360882 0.03029151 -0.04218417
v 0.04223651 0.03168265 -0.04635355
v 0.04235330 0.03182675 -0.04425191
v 0.04173340 0.03314307 -0.03373241
v 0.04176260 0.03317910 -0.03161947
v 0.04179854 0.03320403 -0.02954043
v 0.04167725 0.03306270 -0.03793569
v 0.04180752 0.03324006 -0.02740489
v 0.04164805 0.03302391 -0.04003733
v 0.04159864 0.03297125 -0.04215027
v 0.04182099 0.03325946 -0.02529195
v 0.04191308 0.03337585 -0.01056917
v 0.04192431 0.03338694 -0.00846753
v 0.04192656 0.03339248 -0.00636589
v 0.04087767 0.03465337 -0.00215131
v 0.03998376 0.03571474 0.02728296
v 0.03997926 0.03571197 0.02939590
v 0.04188613 0.03339525 0.03359918
v 0.04082152 0.03460903 0.03991540
v 0.04185693 0.03333428 0.04411868
v 0.04188164 0.03338694 0.03570082
v 0.03994782 0.03568425 0.03570082
v 0.03993659 0.03567317 0.03780246
v 0.03984899 0.03559280 0.05042360
v 0.03788373 0.03781253 0.04622032
v 0.03563772 0.03975514 0.05042360
v 0.03574328 0.03986321 0.04411868
v 0.03458883 0.04071397 0.05042360
v 0.03335577 0.04176702 0.05042360
v 0.03237201 0.04264826 0.04622032
v 0.03233832 0.04261501 0.04833326
v 0.03230463 0.04257898 0.05042360
v 0.03088964 0.04363204 0.05042360
v 0.02983851 0.04440243 0.05042360
v 0.02753410 0.04570489 0.05253654
v 0.02753410 0.04599864 0.02728296
v 0.02753410 0.04601249 0.03530535
v 0.03002717 0.04451605 0.02728296
v 0.03107831 0.04378445 0.02728296
v 0.03248881 0.04273417 0.02728296
v 0.03248881 0.04273140 0.02518132
v 0.03248207 0.04272309 0.02097804
v 0.03346807 0.04186402 -0.00215131
v 0.03771079 0.03763240 -0.03373241
v 0.03768159 0.03761301 -0.03583405
v 0.03684383 0.03881847 -0.01687409
v 0.03789496 0.03782361 -0.01687409
v 0.03573430 0.03987707 -0.01478375
v 0.03791518 0.03784301 -0.01478375
v 0.03472359 0.04081096 -0.00215131
v 0.03866984 0.03653224 -0.03793569
v 0.03863165 0.03648790 -0.04003733
v 0.03936610 0.03503580 -0.04635355
v 0.03949412 0.03517990 -0.04425191
v 0.03917519 0.03482241 -0.04845519
v 0.03960867 0.03529906 -0.04215027
v 0.04013873 0.03376936 -0.04845519
v 0.04033189 0.03398274 -0.04635355
v 0.04138527 0.03273293 -0.04635355
v 0.04151329 0.03287703 -0.04425191
v 0.04059692 0.03431528 -0.04003733
v 0.04062612 0.03435408 -0.03793569
v 0.04065531 0.03439011 -0.03583405
v 0.04073842 0.03447878 -0.02954043
v 0.04075639 0.03450096 -0.02740489
v 0.03993659 0.03564546 -0.01898703
v 0.04054526 0.03424600 -0.04215027
v 0.03994782 0.03566209 -0.01687409
v 0.04086868 0.03463951 -0.00846753
v 0.04087542 0.03464783 -0.00636589
v 0.03997028 0.03570642 -0.00004967
v 0.03998376 0.03571474 0.02518132
v 0.03798256 0.03791229 0.02097804
v 0.03798256 0.03790952 0.02728296
v 0.03798031 0.03790675 0.02939590
v 0.03794887 0.03787627 0.03780246
v 0.03792641 0.03785687 0.04158767
v 0.03791967 0.03784579 0.04298877
v 0.03790844 0.03783747 0.04411868
v 0.03576799 0.03989647 0.04201704
v 0.03339170 0.04178088 0.04833326
v 0.03240121 0.04267320 0.04411868
v 0.03096376 0.04369855 0.04622032
v 0.03093232 0.04366529 0.04833326
v 0.02988118 0.04442460 0.04833326
v 0.02753410 0.04572152 0.05184730
v 0.02753410 0.04601249 0.03570082
v 0.03002268 0.04451328 0.02939590
v 0.03107157 0.04378168 0.02939590
v 0.03248656 0.04273140 0.02939590
v 0.03583537 0.03996852 0.02728296
v 0.03583761 0.03996852 0.02518132
v 0.03583312 0.03996575 0.02097804
v 0.03581965 0.03995189 0.01345281
v 0.03870353 0.03655995 -0.03583405
v 0.03890791 0.03678996 -0.01478375
v 0.03791967 0.03784579 -0.01331486
v 0.03975017 0.03544316 -0.03583405
v 0.03971648 0.03540713 -0.03793569
v 0.03968054 0.03536834 -0.04003733
v 0.04046216 0.03412961 -0.04425191
v 0.04068002 0.03442336 -0.03373241
v 0.03977488 0.03547642 -0.03373241
v 0.03995456 0.03567040 -0.01478375
v 0.03798031 0.03790675 0.01676346
v 0.03798256 0.03790952 0.01886510
v 0.03688875 0.03896258 0.02518132
v 0.03688650 0.03896258 0.02728296
v 0.03583312 0.03996298 0.02939590
v 0.03582189 0.03995466 0.03293253
v 0.03579943 0.03992972 0.03780246
v 0.03578820 0.03991587 0.03991540
v 0.03345459 0.04180859 0.04411868
v 0.03342764 0.04179473 0.04622032
v 0.03242816 0.04268429 0.04201704
v 0.03098622 0.04372626 0.04411868
v 0.02991263 0.04443845 0.04622032
v 0.02753410 0.04599864 0.03780246
v 0.02753410 0.04596538 0.03991540
v 0.02753410 0.04600418 0.03739569
v 0.03106034 0.04377614 0.03148624
v 0.02993509 0.04444954 0.04411868
v 0.03100194 0.04373735 0.04201704
v 0.03102440 0.04375397 0.03780246
v 0.03245287 0.04270092 0.03780246
v 0.03350625 0.04183630 0.03780246
v 0.03349277 0.04183076 0.03991540
v 0.03347705 0.04181968 0.04201704
f 1 2 16
f 1 16 42
f 1 42 77
f 1 77 132
f 1 132 197
f 1 197 223
f 1 223 222
f 1 222 294
f 1 294 387
f 1 387 385
f 1 385 384
f 1 384 480
f 1 480 479
f 1 479 482
f 1 482 481
f 1 481 393
f 1 393 392
f 1 392 391
f 1 391 388
f 1 388 300
f 1 300 299
f 1 299 298
f 1 298 227
f 1 227 224
f 1 224 155
f 1 155 100
f 1 100 97
f 1 97 46
f 1 46 22
f 1 22 3
f 1 3 24
f 1 24 49
f 1 49 101
f 1 101 102
f 1 102 159
f 1 159 234
f 1 234 308
f 1 308 401
f 1 401 405
f 1 405 404
f 1 404 314
f 1 314 313
f 1 313 312
f 1 312 237
f 1 237 236
f 1 236 187
f 1 187 123
f 1 123 69
f 1 69 25
f 1 25 4
f 1 4 5
f 1 5 6
f 1 6 7
f 1 7 8
f 1 8 9
f 1 9 10
f 1 10 11
f 1 11 12
f 1 12 13
f 1 13 14
f 1 14 15
f 1 15 2
f 2 15 17
f 2 17 18
f 2 18 19
f 2 19 20
f 2 20 21
f 2 21 43
f 2 43 16
f 3 22 23
f 3 23 24
f 4 25 26
f 4 26 27
f 4 27 28
f 4 28 29
f 4 29 5
f 5 29 30
f 5 30 31
f 5 31 32
f 5 32 6
f 6 32 7
f 7 32 33
f 7 33 34
f 7 34 8
f 8 34 9
f 9 34 35
f 9 35 10
f 10 35 36
f 10 36 37
f 10 37 38
f 10 38 11
f 11 38 12
f 12 39 13
f 12 38 39
f 13 39 14
f 14 40 17
f 14 17 15
f 14 39 41
f 14 41 40
f 16 43 44
f 16 44 45
f 16 45 42
f 17 40 41
f 17 41 39
f 17 39 38
f 17 38 37
f 17 37 36
f 17 36 35
f 17 35 34
f 17 34 33
f 17 33 32
f 17 32 31
f 17 31 30
f 17 30 76
f 17 76 75
f 17 75 129
f 17 129 131
f 17 131 196
f 17 196 266
f 17 266 357
f 17 357 443
f 17 443 528
f 17 528 588
f 17 588 639
f 17 639 672
f 17 672 671
f 17 671 673
f 17 673 640
f 17 640 590
f 17 590 589
f 17 589 532
f 17 532 531
f 17 531 530
f 17 530 446
f 17 446 359
f 17 359 267
f 17 267 198
f 17 198 133
f 17 133 78
f 17 78 43
f 17 43 21
f 17 21 20
f 17 20 19
f 17 19 18
f 22 46 47
f 22 47 23
f 23 47 48
f 23 48 49
f 23 49 24
f 25 50 51
f 25 51 52
f 25 52 53
f 25 53 54
f 25 54 55
f 25 55 56
f 25 56 57
f 25 57 58
f 25 58 59
f 25 59 60
f 25 60 61
f 25 61 62
f 25 62 63
f 25 63 64
f 25 64 65
f 25 65 66
f 25 66 67
f 25 67 68
f 25 68 26
f 25 69 50
f 26 70 71
f 26 71 72
f 26 72 27
f 26 68 73
f 26 73 74
f 26 74 70
f 27 72 75
f 27 75 28
f 28 75 29
f 29 75 76
f 29 76 30
f 42 45 77
f 43 78 79
f 43 79 80
f 43 80 81
f 43 81 82
f 43 82 83
f 43 83 84
f 43 84 85
f 43 85 86
f 43 86 87
f 43 87 88
f 43 88 89
f 43 89 90
f 43 90 91
f 43 91 92
f 43 92 93
f 43 93 94
f 43 94 95
f 43 95 44
f 44 95 45
f 45 95 96
f 45 96 77
f 46 97 47
f 47 98 99
f 47 99 48
f 47 97 100
f 47 100 98
f 48 101 49
f 48 99 102
f 48 102 101
f 50 69 103
f 50 103 51
f 51 103 52
f 52 104 105
f 52 105 53
f 52 103 106
f 52 106 104
f 53 105 54
f 54 107 108
f 54 108 55
f 54 105 107
f 55 108 109
f 55 109 110
f 55 110 56
f 56 110 111
f 56 111 112
f 56 112 57
f 57 112 58
f 58 112 59
f 59 112 113
f 59 113 60
f 60 113 61
f 61 113 114
f 61 114 62
f 62 114 63
f 63 115 116
f 63 116 64
f 63 114 115
f 64 116 117
f 64 117 118
f 64 118 65
f 65 118 66
f 66 118 119
f 66 119 120
f 66 120 67
f 67 121 122
f 67 122 73
f 67 73 68
f 67 120 121
f 69 123 103
f 70 74 124
f 70 124 125
f 70 125 126
f 70 126 127
f 70 127 128
f 70 128 71
f 71 129 72
f 71 128 130
f 71 130 131
f 71 131 129
f 72 129 75
f 73 124 74
f 73 122 124
f 77 96 132
f 78 133 134
f 78 134 79
f 79 135 136
f 79 136 80
f 79 134 135
f 80 136 81
f 81 137 82
f 81 136 137
f 82 137 138
f 82 138 139
f 82 139 83
f 83 139 84
f 84 139 85
f 85 139 140
f 85 140 86
f 86 141 142
f 86 142 87
f 86 140 141
f 87 142 88
f 88 142 89
f 89 142 90
f 90 143 91
f 90 142 144
f 90 144 145
f 90 145 143
f 91 143 146
f 91 146 92
f 92 146 93
f 93 146 147
f 93 147 148
f 93 148 94
f 94 148 149
f 94 149 95
f 95 149 96
f 96 149 150
f 96 150 151
f 96 151 152
f 96 152 153
f 96 153 154
f 96 154 132
f 98 100 155
f 98 155 156
f 98 156 157
f 98 157 158
f 98 158 99
f 99 158 102
f 102 158 159
f 103 160 161
f 103 161 162
f 103 162 163
f 103 163 164
f 103 164 165
f 103 165 106
f 103 123 160
f 104 166 105
f 104 106 165
f 104 165 166
f 105 166 107
f 107 167 108
f 107 166 167
f 108 167 168
f 108 168 109
f 109 168 110
f 110 168 111
f 111 168 112
f 112 169 170
f 112 170 113
f 112 168 169
f 113 170 171
f 113 171 172
f 113 172 173
f 113 173 114
f 114 173 174
f 114 174 175
f 114 175 176
f 114 176 115
f 115 176 116
f 116 176 177
f 116 177 117
f 117 178 179
f 117 179 180
f 117 180 118
f 117 177 178
f 118 180 119
f 119 181 120
f 119 180 181
f 120 181 182
f 120 182 183
f 120 183 184
f 120 184 185
f 120 185 121
f 121 185 122
f 122 185 186
f 122 186 124
f 123 187 160
f 124 186 188
f 124 188 125
f 125 188 126
f 126 188 189
f 126 189 190
f 126 190 191
f 126 191 192
f 126 192 128
f 126 128 127
f 128 192 193
f 128 193 194
f 128 194 130
f 130 194 195
f 130 195 131
f 131 195 196
f 132 154 197
f 133 198 199
f 133 199 200
f 133 200 134
f 134 201 135
f 134 200 202
f 134 202 201
f 135 203 136
f 135 201 203
f 136 203 204
f 136 204 205
f 136 205 137
f 137 206 207
f 137 207 208
f 137 208 209
f 137 209 138
f 137 205 206
f 138 209 139
f 139 210 140
f 139 209 210
f 140 210 211
f 140 211 212
f 140 212 141
f 141 212 144
f 141 144 142
f 143 145 213
f 143 213 146
f 144 212 214
f 144 214 145
f 145 215 216
f 145 216 213
f 145 214 211
f 145 211 215
f 146 217 218
f 146 218 148
f 146 148 147
f 146 213 217
f 148 151 150
f 148 150 149
f 148 218 151
f 151 219 220
f 151 220 152
f 151 218 217
f 151 217 221
f 151 221 219
f 152 220 153
f 153 220 222
f 153 222 223
f 153 223 197
f 153 197 154
f 155 224 157
f 155 157 156
f 157 225 226
f 157 226 158
f 157 224 227
f 157 227 228
f 157 228 225
f 158 226 229
f 158 229 230
f 158 230 231
f 158 231 232
f 158 232 233
f 158 233 234
f 158 234 159
f 160 235 161
f 160 187 236
f 160 236 237
f 160 237 238
f 160 238 239
f 160 239 235
f 161 240 162
f 161 235 240
f 162 241 163
f 162 240 241
f 163 241 242
f 163 242 164
f 164 242 243
f 164 243 166
f 164 166 165
f 166 243 244
f 166 244 245
f 166 245 246
f 166 246 247
f 166 247 167
f 167 247 248
f 167 248 168
f 168 248 249
f 168 249 169
f 169 250 170
f 169 249 251
f 169 251 250
f 170 250 252
f 170 252 171
f 171 252 172
f 172 252 253
f 172 253 254
f 172 254 173
f 173 254 174
f 174 254 175
f 175 254 176
f 176 255 256
f 176 256 177
f 176 254 255
f 177 256 178
f 178 256 179
f 179 256 182
f 179 182 181
f 179 181 180
f 182 256 257
f 182 257 183
f 183 257 258
f 183 258 184
f 184 258 186
f 184 186 185
f 186 258 259
f 186 259 188
f 188 259 189
f 189 259 260
f 189 260 190
f 190 260 191
f 191 260 261
f 191 261 192
f 192 261 193
f 193 261 262
f 193 262 194
f 194 262 263
f 194 263 264
f 194 264 265
f 194 265 195
f 195 265 196
f 196 265 264
f 196 264 266
f 198 267 199
f 199 268 202
f 199 202 200
f 199 267 269
f 199 269 270
f 199 270 268
f 201 202 271
f 201 271 272
f 201 272 203
f 202 268 273
f 202 273 271
f 203 272 204
f 204 272 274
f 204 274 205
f 205 275 276
f 205 276 206
f 205 274 275
f 206 276 207
f 207 277 278
f 207 278 208
f 207 276 279
f 207 279 277
f 208 278 280
f 208 280 281
f 208 281 209
f 209 281 210
f 210 282 211
f 210 281 280
f 210 280 282
f 211 283 284
f 211 284 285
f 211 285 215
f 211 214 212
f 211 282 286
f 211 286 283
f 213 216 217
f 215 285 216
f 216 285 287
f 216 287 217
f 217 287 221
f 219 288 289
f 219 289 220
f 219 221 290
f 219 290 291
f 219 291 288
f 220 289 292
f 220 292 293
f 220 293 222
f 221 287 290
f 222 293 294
f 225 228 295
f 225 295 296
f 225 296 297
f 225 297 229
f 225 229 226
f 227 298 228
f 228 298 299
f 228 299 300
f 228 300 295
f 229 301 302
f 229 302 231
f 229 231 230
f 229 297 303
f 229 303 301
f 231 304 305
f 231 305 306
f 231 306 307
f 231 307 232
f 231 302 304
f 232 307 308
f 232 308 233
f 233 308 234
f 235 309 240
f 235 239 310
f 235 310 311
f 235 311 309
f 237 312 238
f 238 312 313
f 238 313 314
f 238 314 315
f 238 315 316
f 238 316 317
f 238 317 239
f 239 317 310
f 240 309 318
f 240 318 241
f 241 318 319
f 241 319 242
f 242 320 243
f 242 319 321
f 242 321 320
f 243 320 244
f 244 320 245
f 245 320 322
f 245 322 323
f 245 323 324
f 245 324 246
f 246 325 326
f 246 326 247
f 246 324 325
f 247 326 248
f 248 326 327
f 248 327 328
f 248 328 329
f 248 329 249
f 249 329 251
f 250 251 330
f 250 330 334
f 250 334 252
f 251 329 328
f 251 328 331
f 251 331 332
f 251 332 333
f 251 333 330
f 252 334 335
f 252 335 253
f 253 335 336
f 253 336 337
f 253 337 338
f 253 338 254
f 254 338 337
f 254 337 339
f 254 339 340
f 254 340 255
f 255 340 341
f 255 341 256
f 256 342 257
f 256 341 343
f 256 343 344
f 256 344 342
f 257 345 346
f 257 346 259
f 257 259 258
f 257 342 344
f 257 344 347
f 257 347 348
f 257 348 345
f 259 346 349
f 259 349 260
f 260 349 261
f 261 349 262
f 262 349 350
f 262 350 351
f 262 351 352
f 262 352 353
f 262 353 263
f 263 353 264
f 264 353 354
f 264 354 355
f 264 355 356
f 264 356 266
f 266 356 358
f 266 358 357
f 267 359 269
f 268 270 360
f 268 360 273
f 269 359 361
f 269 361 270
f 270 361 362
f 270 362 360
f 271 363 272
f 271 273 363
f 272 363 364
f 272 364 274
f 273 360 365
f 273 365 363
f 274 364 366
f 274 366 275
f 275 366 279
f 275 279 276
f 277 367 368
f 277 368 278
f 277 279 367
f 278 368 280
f 279 369 370
f 279 370 367
f 279 366 371
f 279 371 369
f 280 368 282
f 282 368 286
f 283 286 372
f 283 372 284
f 284 372 373
f 284 373 285
f 285 374 287
f 285 373 375
f 285 375 374
f 286 376 373
f 286 373 372
f 286 368 376
f 287 374 377
f 287 377 290
f 288 378 379
f 288 379 292
f 288 292 289
f 288 291 380
f 288 380 381
f 288 381 378
f 290 377 291
f 291 377 380
f 292 379 382
f 292 382 383
f 292 383 384
f 292 384 385
f 292 385 386
f 292 386 387
f 292 387 293
f 293 387 294
f 295 300 388
f 295 388 296
f 296 389 390
f 296 390 303
f 296 303 297
f 296 388 391
f 296 391 392
f 296 392 393
f 296 393 389
f 301 303 394
f 301 394 395
f 301 395 304
f 301 304 302
f 303 390 394
f 304 396 397
f 304 397 305
f 304 395 396
f 305 397 306
f 306 397 398
f 306 398 399
f 306 399 307
f 307 399 315
f 307 315 400
f 307 400 401
f 307 401 308
f 309 311 402
f 309 402 408
f 309 408 318
f 310 317 403
f 310 403 311
f 311 403 402
f 314 404 315
f 315 405 400
f 315 399 316
f 315 404 405
f 316 399 317
f 317 399 398
f 317 398 403
f 318 406 407
f 318 407 321
f 318 321 319
f 318 408 406
f 320 409 410
f 320 410 411
f 320 411 412
f 320 412 322
f 320 321 409
f 321 413 409
f 321 407 406
f 321 406 414
f 321 414 415
f 321 415 413
f 322 412 416
f 322 416 417
f 322 417 323
f 323 417 418
f 323 418 326
f 323 326 325
f 323 325 324
f 326 418 327
f 327 419 420
f 327 420 328
f 327 418 421
f 327 421 419
f 328 420 331
f 330 333 422
f 330 422 423
f 330 423 424
f 330 424 425
f 330 425 334
f 331 420 426
f 331 426 332
f 332 422 333
f 332 426 422
f 334 427 428
f 334 428 335
f 334 425 427
f 335 428 336
f 336 428 337
f 337 428 429
f 337 429 430
f 337 430 339
f 339 430 343
f 339 343 340
f 340 343 341
f 343 430 431
f 343 431 432
f 343 432 344
f 344 432 348
f 344 348 347
f 345 348 433
f 345 433 434
f 345 434 346
f 346 434 349
f 348 432 433
f 349 434 350
f 350 434 435
f 350 435 436
f 350 436 437
f 350 437 351
f 351 437 438
f 351 438 439
f 351 439 352
f 352 439 440
f 352 440 354
f 352 354 353
f 354 440 441
f 354 441 442
f 354 442 358
f 354 358 355
f 355 358 356
f 357 358 443
f 358 442 444
f 358 444 445
f 358 445 443
f 359 446 361
f 360 362 447
f 360 447 365
f 361 446 448
f 361 448 362
f 362 448 449
f 362 449 450
f 362 450 451
f 362 451 447
f 363 452 453
f 363 453 364
f 363 365 452
f 364 454 366
f 364 453 455
f 364 455 454
f 365 456 452
f 365 447 451
f 365 451 457
f 365 457 458
f 365 458 456
f 366 454 371
f 367 370 459
f 367 459 368
f 368 460 376
f 368 459 461
f 368 461 460
f 369 462 370
f 369 371 463
f 369 463 462
f 370 462 459
f 371 454 464
f 371 464 463
f 373 465 466
f 373 466 375
f 373 376 467
f 373 467 468
f 373 468 465
f 374 375 469
f 374 469 470
f 374 470 377
f 375 466 469
f 376 460 471
f 376 471 467
f 377 472 380
f 377 470 472
f 378 473 474
f 378 474 382
f 378 382 379
f 378 381 475
f 378 475 476
f 378 476 473
f 380 472 381
f 381 472 475
f 382 474 477
f 382 477 478
f 382 478 479
f 382 479 480
f 382 480 384
f 382 384 383
f 385 387 386
f 389 478 477
f 389 477 394
f 389 394 390
f 389 393 481
f 389 481 482
f 389 482 478
f 394 473 396
f 394 396 395
f 394 477 473
f 396 483 484
f 396 484 485
f 396 485 486
f 396 486 397
f 396 473 483
f 397 486 487
f 397 487 488
f 397 488 398
f 398 488 489
f 398 489 403
f 400 405 401
f 402 403 490
f 402 490 408
f 403 489 490
f 406 408 491
f 406 491 492
f 406 492 493
f 406 493 414
f 408 490 494
f 408 494 495
f 408 495 491
f 409 413 496
f 409 496 497
f 409 497 410
f 410 497 498
f 410 498 411
f 411 498 412
f 412 498 499
f 412 499 416
f 413 500 496
f 413 415 501
f 413 501 500
f 414 493 415
f 415 493 502
f 415 502 501
f 416 499 417
f 417 499 503
f 417 503 504
f 417 504 505
f 417 505 506
f 417 506 507
f 417 507 508
f 417 508 418
f 418 508 421
f 419 509 420
f 419 421 508
f 419 508 509
f 420 509 426
f 422 426 510
f 422 510 511
f 422 511 512
f 422 512 513
f 422 513 423
f 423 513 514
f 423 514 424
f 424 514 515
f 424 515 425
f 425 515 427
f 426 509 516
f 426 516 517
f 426 517 510
f 427 515 428
f 428 515 518
f 428 518 431
f 428 431 429
f 429 431 430
f 431 518 519
f 431 519 520
f 431 520 432
f 432 520 433
f 433 435 434
f 433 520 435
f 435 520 521
f 435 521 436
f 436 521 437
f 437 521 522
f 437 522 523
f 437 523 438
f 438 523 439
f 439 523 524
f 439 524 440
f 440 524 441
f 441 524 525
f 441 525 442
f 442 525 526
f 442 526 527
f 442 527 444
f 443 445 529
f 443 529 528
f 444 527 529
f 444 529 445
f 446 530 449
f 446 449 448
f 449 530 531
f 449 531 532
f 449 532 533
f 449 533 534
f 449 534 450
f 450 535 451
f 450 534 536
f 450 536 535
f 451 535 457
f 452 537 453
f 452 456 538
f 452 538 537
f 453 537 539
f 453 539 455
f 454 455 464
f 455 539 464
f 456 458 538
f 457 535 540
f 457 540 541
f 457 541 458
f 458 541 538
f 459 462 461
f 460 461 471
f 461 542 543
f 461 543 544
f 461 544 471
f 461 462 463
f 461 463 542
f 463 464 545
f 463 545 543
f 463 543 542
f 464 539 545
f 465 546 547
f 465 547 466
f 465 468 548
f 465 548 546
f 466 547 469
f 467 471 549
f 467 549 468
f 468 549 550
f 468 550 548
f 469 551 552
f 469 552 472
f 469 472 470
f 469 547 551
f 471 544 549
f 472 552 484
f 472 484 475
f 473 477 474
f 473 476 483
f 475 484 476
f 476 484 483
f 478 482 479
f 484 552 551
f 484 551 485
f 485 551 553
f 485 553 486
f 486 553 487
f 487 553 488
f 488 553 495
f 488 495 494
f 488 494 489
f 489 494 490
f 491 495 492
f 492 554 493
f 492 495 555
f 492 555 556
f 492 556 554
f 493 554 502
f 495 553 555
f 496 557 558
f 496 558 559
f 496 559 497
f 496 500 562
f 496 562 560
f 496 560 557
f 497 559 498
f 498 561 499
f 498 559 561
f 499 561 503
f 500 501 562
f 501 502 562
f 502 554 556
f 502 556 563
f 502 563 562
f 503 561 504
f 504 561 564
f 504 564 505
f 505 564 565
f 505 565 506
f 506 565 566
f 506 566 507
f 507 566 516
f 507 516 508
f 508 516 509
f 510 517 567
f 510 567 511
f 511 568 512
f 511 567 568
f 512 568 569
f 512 569 513
f 513 569 514
f 514 569 570
f 514 570 571
f 514 571 515
f 515 572 519
f 515 519 573
f 515 573 518
f 515 571 574
f 515 574 570
f 515 570 575
f 515 575 572
f 516 566 567
f 516 567 517
f 518 573 519
f 519 572 576
f 519 576 577
f 519 577 521
f 519 521 520
f 521 577 578
f 521 578 522
f 522 578 523
f 523 578 579
f 523 579 524
f 524 579 580
f 524 580 581
f 524 581 525
f 525 581 582
f 525 582 583
f 525 583 584
f 525 584 585
f 525 585 526
f 526 585 586
f 526 586 527
f 527 586 587
f 527 587 529
f 528 529 588
f 529 587 588
f 532 589 533
f 533 589 590
f 533 590 640
f 533 640 591
f 533 591 592
f 533 592 534
f 534 592 593
f 534 593 594
f 534 594 595
f 534 595 536
f 535 536 540
f 536 595 596
f 536 596 540
f 537 597 598
f 537 598 545
f 537 545 539
f 537 538 599
f 537 599 600
f 537 600 597
f 538 541 601
f 538 601 602
f 538 602 599
f 540 596 603
f 540 603 541
f 541 603 601
f 543 598 604
f 543 604 605
f 543 605 544
f 543 545 598
f 544 605 550
f 544 550 549
f 546 606 547
f 546 548 607
f 546 607 606
f 547 608 551
f 547 606 608
f 548 550 609
f 548 609 607
f 550 605 609
f 551 608 610
f 551 610 553
f 553 610 611
f 553 611 612
f 553 612 555
f 555 612 613
f 555 613 556
f 556 613 563
f 557 560 562
f 557 562 614
f 557 614 615
f 557 615 616
f 557 616 558
f 558 616 559
f 559 617 561
f 559 616 617
f 561 617 618
f 561 618 619
f 561 619 564
f 562 563 614
f 563 620 614
f 563 613 620
f 564 619 565
f 565 619 621
f 565 621 566
f 566 622 623
f 566 623 567
f 566 621 622
f 567 623 568
f 568 624 625
f 568 625 569
f 568 623 624
f 569 625 626
f 569 626 627
f 569 627 628
f 569 628 570
f 570 574 571
f 570 628 629
f 570 629 575
f 572 575 576
f 575 629 576
f 576 629 630
f 576 630 631
f 576 631 577
f 577 631 632
f 577 632 578
f 578 632 633
f 578 633 580
f 578 580 579
f 580 633 581
f 581 633 582
f 582 633 634
f 582 634 635
f 582 635 583
f 583 636 637
f 583 637 584
f 583 635 636
f 584 637 585
f 585 637 586
f 586 637 587
f 587 637 636
f 587 636 638
f 587 638 639
f 587 639 588
f 591 641 592
f 591 640 641
f 592 641 642
f 592 642 643
f 592 643 593
f 593 644 645
f 593 645 594
f 593 643 644
f 594 645 646
f 594 646 596
f 594 596 595
f 596 646 647
f 596 647 603
f 597 648 598
f 597 600 648
f 598 648 604
f 599 602 600
f 600 619 648
f 600 602 619
f 601 603 647
f 601 647 602
f 602 649 621
f 602 621 619
f 602 647 650
f 602 650 649
f 604 648 651
f 604 651 652
f 604 652 653
f 604 653 605
f 605 653 609
f 606 611 608
f 606 607 654
f 606 654 611
f 607 609 654
f 608 611 610
f 609 653 620
f 609 620 654
f 611 654 612
f 612 654 613
f 613 654 620
f 614 653 652
f 614 652 651
f 614 651 615
f 614 620 653
f 615 651 616
f 616 651 656
f 616 656 655
f 616 655 617
f 617 655 656
f 617 656 619
f 617 619 618
f 619 656 648
f 621 649 657
f 621 657 622
f 622 657 623
f 623 657 624
f 624 658 659
f 624 659 626
f 624 626 625
f 624 657 658
f 626 645 660
f 626 660 627
f 626 659 645
f 627 661 628
f 627 660 661
f 628 661 662
f 628 662 663
f 628 663 629
f 629 664 630
f 629 663 664
f 630 664 665
f 630 665 631
f 631 665 632
f 632 665 633
f 633 666 667
f 633 667 634
f 633 665 666
f 634 667 635
f 635 666 668
f 635 668 669
f 635 669 636
f 635 667 666
f 636 669 638
f 638 669 670
f 638 670 671
f 638 671 672
f 638 672 639
f 640 673 641
f 641 674 642
f 641 673 675
f 641 675 676
f 641 676 677
f 641 677 674
f 642 674 678
f 642 678 643
f 643 663 662
f 643 662 644
f 643 678 679
f 643 679 663
f 644 661 660
f 644 660 645
f 644 662 661
f 645 659 646
f 646 659 658
f 646 658 647
f 647 658 650
f 648 656 651
f 649 650 658
f 649 658 657
f 663 679 680
f 663 680 664
f 664 680 665
f 665 680 681
f 665 681 666
f 666 681 668
f 668 676 669
f 668 681 680
f 668 680 678
f 668 678 676
f 669 675 670
f 669 676 675
f 670 675 673
f 670 673 671
f 674 677 678
f 676 678 677
f 678 680 679

