# https://github.com/mikedh/trimesh
v -0.01832207 0.05017717 -0.01315472
v -0.02198330 0.04883059 -0.01479444
v -0.02199466 0.04884033 -0.01315472
v -0.01832207 0.04787014 -0.01315472
v -0.01832207 0.05006036 -0.02531707
v -0.02196286 0.04881437 -0.01689897
v -0.02601021 0.04672312 -0.01900349
v -0.02603292 0.04673772 -0.01689897
v -0.02605563 0.04674907 -0.01479444
v -0.02607153 0.04675557 -0.01315472
v -0.03843161 0.03360291 -0.01315472
v -0.01832207 0.04316361 -0.05712163
v -0.01832207 0.04994193 -0.03373516
v -0.02191289 0.04877543 -0.02110802
v -0.02587620 0.04663875 -0.02952611
v -0.02598749 0.04670689 -0.02110802
v -0.02972595 0.04436580 -0.02531707
v -0.02974867 0.04438040 -0.02321254
v -0.02983725 0.04444691 -0.01315472
v -0.04152277 0.03360291 -0.01315472
v -0.03287162 0.03360291 -0.05712163
v -0.01832207 0.04604334 -0.05712163
v -0.01832207 0.04990948 -0.03583538
v -0.02184249 0.04873812 -0.02531707
v -0.02188109 0.04875596 -0.02321254
v -0.02584668 0.04661604 -0.03163064
v -0.02964419 0.04430901 -0.03163064
v -0.02967371 0.04433010 -0.02952611
v -0.02970097 0.04434795 -0.02742159
v -0.03077527 0.04363572 -0.02531707
v -0.03079798 0.04365195 -0.02321254
v -0.03081615 0.04366655 -0.02110802
v -0.02982362 0.04443556 -0.01479444
v -0.03085476 0.04368926 -0.01689897
v -0.03088883 0.04370873 -0.01315472
v -0.04089364 0.03436056 -0.01315472
v -0.04151823 0.03360291 -0.01429952
v -0.03700982 0.03360291 -0.05712163
v -0.01918286 0.04637917 -0.05603279
v -0.01832207 0.04612770 -0.05698391
v -0.01992102 0.04540087 -0.05712163
v -0.01832207 0.04985919 -0.03790548
v -0.01995509 0.04921023 -0.04004443
v -0.01995509 0.04924755 -0.03793991
v -0.02175163 0.04869918 -0.02952611
v -0.02170394 0.04867971 -0.03163064
v -0.02165397 0.04865862 -0.03373516
v -0.02580807 0.04658684 -0.03373516
v -0.02950564 0.04421816 -0.04004443
v -0.03069350 0.04357407 -0.03163064
v -0.03072530 0.04359679 -0.02952611
v -0.03221523 0.04258442 -0.02531707
v -0.03219252 0.04256495 -0.02742159
v -0.03223794 0.04260064 -0.02321254
v -0.03226066 0.04261362 -0.02110802
v -0.03228110 0.04262660 -0.01900349
v -0.03231517 0.04264769 -0.01479444
v -0.03231971 0.04265743 -0.01315472
v -0.03230154 0.04263633 -0.01689897
v -0.04071648 0.03457309 -0.01315472
v -0.04071420 0.03456660 -0.01479444
v -0.04151595 0.03360291 -0.01479444
v -0.03636478 0.03425673 -0.05712163
v -0.03781838 0.03360291 -0.05633835
v -0.01832207 0.04652519 -0.05630823
v -0.01832207 0.04627534 -0.05673430
v -0.01991193 0.04560854 -0.05679455
v -0.02058649 0.04606930 -0.05543888
v -0.01991193 0.04665660 -0.05475028
v -0.01832207 0.04718550 -0.05476749
v -0.02178343 0.04452641 -0.05712163
v -0.01832207 0.04975535 -0.04004443
v -0.01995509 0.04914696 -0.04214896
v -0.02147000 0.04857912 -0.04004443
v -0.02154041 0.04860995 -0.03793991
v -0.02159946 0.04863591 -0.03583538
v -0.02575583 0.04655601 -0.03583538
v -0.02837230 0.04488982 -0.04004443
v -0.02946703 0.04419220 -0.04172288
v -0.03055496 0.04345888 -0.04004443
v -0.03058903 0.04349133 -0.03793991
v -0.03062309 0.04352216 -0.03583538
v -0.03065943 0.04354974 -0.03373516
v -0.03214028 0.04252115 -0.03163064
v -0.03216754 0.04254386 -0.02952611
v -0.03326909 0.04176512 -0.02531707
v -0.03322139 0.04173104 -0.02952611
v -0.03335312 0.04180730 -0.01689897
v -0.03328953 0.04177809 -0.02321254
v -0.03336675 0.04181217 -0.01479444
v -0.03255364 0.04247085 -0.01315472
v -0.03980344 0.03562602 -0.01315472
v -0.04070512 0.03454389 -0.01900349
v -0.04150460 0.03360291 -0.01689897
v -0.03560619 0.03494949 -0.05712163
v -0.03796374 0.03377974 -0.05602418
v -0.03657374 0.03447899 -0.05667835
v -0.03800235 0.03360291 -0.05612317
v -0.02196286 0.04461078 -0.05683328
v -0.02223541 0.04431226 -0.05712163
v -0.02340510 0.04431550 -0.05609734
v -0.02201510 0.04568155 -0.05475028
v -0.02128376 0.04640189 -0.05403586
v -0.01995509 0.04734449 -0.05267158
v -0.01832207 0.04869431 -0.05042933
v -0.01832207 0.04789124 -0.05277056
v -0.01832207 0.04964503 -0.04214896
v -0.01995509 0.04901717 -0.04425348
v -0.02135644 0.04853045 -0.04214896
v -0.02568542 0.04652032 -0.03793991
v -0.02544694 0.04639378 -0.04425348
v -0.02552643 0.04643758 -0.04214896
v -0.02560593 0.04647976 -0.04004443
v -0.02665751 0.04588759 -0.04004443
v -0.02857898 0.04469189 -0.04231250
v -0.03193814 0.04236377 -0.04214896
v -0.03199946 0.04240758 -0.04004443
v -0.02941934 0.04415164 -0.04312590
v -0.03203807 0.04244003 -0.03793991
v -0.03207441 0.04246923 -0.03583538
v -0.03210621 0.04249681 -0.03373516
v -0.03316007 0.04168886 -0.03373516
v -0.03319186 0.04171158 -0.03163064
v -0.03449555 0.04069597 -0.02742159
v -0.03447739 0.04067812 -0.02952611
v -0.03442969 0.04063594 -0.03373516
v -0.03445467 0.04065865 -0.03163064
v -0.03566297 0.03986855 -0.01315472
v -0.03451145 0.04071219 -0.02531707
v -0.03452735 0.04072517 -0.02321254
v -0.03433657 0.04099286 -0.01315472
v -0.03337129 0.04181054 -0.01315472
v -0.03781156 0.03782110 -0.01315472
v -0.03978300 0.03560817 -0.01689897
v -0.04069831 0.03453253 -0.02110802
v -0.04149324 0.03360291 -0.01846983
v -0.03524279 0.03527883 -0.05712163
v -0.03583104 0.03583044 -0.05592950
v -0.03865192 0.03360291 -0.05478901
v -0.03828398 0.03412856 -0.05477610
v -0.03722558 0.03517986 -0.05477610
v -0.02281912 0.04402509 -0.05712163
v -0.02480645 0.04394722 -0.05539153
v -0.02347096 0.04368602 -0.05712163
v -0.02412962 0.04351080 -0.05683328
v -0.02412962 0.04461078 -0.05472446
v -0.02542877 0.04428467 -0.05398852
v -0.02268738 0.04603847 -0.05311916
v -0.02201510 0.04658846 -0.05251664
v -0.01919422 0.04849963 -0.04996883
v -0.01832207 0.04908531 -0.04846253
v -0.01832207 0.04951037 -0.04425348
v -0.01832207 0.04937896 -0.04588459
v -0.01832207 0.04914534 -0.04799342
v -0.02007319 0.04874623 -0.04626332
v -0.02106572 0.04839904 -0.04550156
v -0.02118837 0.04845582 -0.04425348
v -0.02416369 0.04702488 -0.04425348
v -0.02657802 0.04585352 -0.04214896
v -0.02534246 0.04633699 -0.04585447
v -0.02649852 0.04579187 -0.04425348
v -0.03299199 0.04155421 -0.04214896
v -0.03305332 0.04160774 -0.04004443
v -0.03184502 0.04230212 -0.04425348
v -0.02827009 0.04473894 -0.04425348
v -0.02804978 0.04461726 -0.04635800
v -0.03160200 0.04211717 -0.04767925
v -0.03171556 0.04220641 -0.04635800
v -0.03309193 0.04163857 -0.03793991
v -0.03312600 0.04166453 -0.03583538
v -0.03440016 0.04061160 -0.03583538
v -0.03550853 0.03972903 -0.03163064
v -0.03545402 0.03969496 -0.03583538
v -0.03548127 0.03971280 -0.03373516
v -0.03780021 0.03780975 -0.01479444
v -0.03972622 0.03552867 -0.02952611
v -0.03974212 0.03555950 -0.02531707
v -0.04147507 0.03360291 -0.02055284
v -0.04148870 0.03360291 -0.01900349
v -0.04068695 0.03451955 -0.02321254
v -0.03429569 0.03611760 -0.05712163
v -0.03617400 0.03613707 -0.05477610
v -0.03470905 0.03728571 -0.05493104
v -0.03356889 0.03779028 -0.05573583
v -0.03072530 0.03907034 -0.05712163
v -0.03188363 0.03812773 -0.05712163
v -0.03269674 0.03745607 -0.05712163
v -0.03939916 0.03360291 -0.05267158
v -0.03862240 0.03452929 -0.05267158
v -0.03765939 0.03558221 -0.05267158
v -0.02613058 0.04243678 -0.05673430
v -0.02742973 0.04212691 -0.05593810
v -0.02618509 0.04347835 -0.05472446
v -0.02413416 0.04332423 -0.05712163
v -0.02589664 0.04234593 -0.05712163
v -0.02786354 0.04241569 -0.05477610
v -0.02933757 0.04195493 -0.05355384
v -0.02971005 0.04224209 -0.05215082
v -0.02580125 0.04451668 -0.05267158
v -0.02317343 0.04629968 -0.05171615
v -0.02345961 0.04644082 -0.05056705
v -0.01953264 0.04865538 -0.04846253
v -0.02390704 0.04664687 -0.04846253
v -0.02434993 0.04673610 -0.04647420
v -0.02517439 0.04621207 -0.04725749
v -0.03289660 0.04146011 -0.04425348
v -0.03426389 0.04050128 -0.04214896
v -0.03432294 0.04055482 -0.04004443
v -0.03436609 0.04058564 -0.03793991
v -0.02774543 0.04442582 -0.04846253
v -0.03381873 0.04011191 -0.04846253
v -0.03401405 0.04027901 -0.04635800
v -0.03276714 0.04133194 -0.04635800
v -0.03060038 0.04260226 -0.04841519
v -0.03005755 0.04246923 -0.05056705
v -0.03138623 0.04192086 -0.04908227
v -0.03368245 0.03999510 -0.04966327
v -0.03416622 0.04040718 -0.04425348
v -0.03659418 0.03866150 -0.03373516
v -0.03541995 0.03966575 -0.03793991
v -0.03656920 0.03864203 -0.03583538
v -0.03764576 0.03765724 -0.03373516
v -0.03864511 0.03660431 -0.03373516
v -0.03971486 0.03550758 -0.03163064
v -0.04067332 0.03450820 -0.02531707
v -0.04144555 0.03360291 -0.02321254
v -0.03660780 0.03653942 -0.05267158
v -0.03544947 0.03759072 -0.05267158
v -0.03402314 0.03816018 -0.05433282
v -0.03126812 0.03975174 -0.05542166
v -0.02986677 0.04028226 -0.05635127
v -0.02952608 0.04003241 -0.05712163
v -0.04007826 0.03360291 -0.04989137
v -0.04001239 0.03372134 -0.04980529
v -0.03798418 0.03589209 -0.05013668
v -0.03781384 0.03571849 -0.05153970
v -0.03587874 0.03798983 -0.05001187
v -0.03566524 0.03777081 -0.05141489
v -0.02685057 0.04175538 -0.05712163
v -0.02833823 0.04098313 -0.05684619
v -0.02891512 0.04170022 -0.05477610
v -0.03052997 0.04059213 -0.05474167
v -0.03171102 0.04009244 -0.05401864
v -0.03043685 0.04148444 -0.05277917
v -0.03110914 0.04173916 -0.05056705
v -0.02748424 0.04426359 -0.04990428
v -0.03205397 0.04036662 -0.05267158
v -0.02639859 0.04473083 -0.05058857
v -0.02451119 0.04584865 -0.05056705
v -0.02495862 0.04607092 -0.04846253
v -0.03521781 0.03951000 -0.04425348
v -0.03531774 0.03958463 -0.04214896
v -0.03537452 0.03962681 -0.04004443
v -0.03487031 0.03920013 -0.04846253
v -0.03506564 0.03937048 -0.04635800
v -0.03267856 0.04056455 -0.05044655
v -0.03344851 0.03978905 -0.05106629
v -0.03467271 0.03889025 -0.05054123
v -0.03645109 0.03853333 -0.04214896
v -0.03653513 0.03861282 -0.03793991
v -0.03762078 0.03763290 -0.03583538
v -0.03862240 0.03657998 -0.03583538
v -0.03969896 0.03547676 -0.03373516
v -0.04061881 0.03445628 -0.03163064
v -0.04063699 0.03447575 -0.02952611
v -0.04141602 0.03360291 -0.02531707
v -0.03439789 0.03848466 -0.05267158
v -0.03310556 0.03953758 -0.05267158
v -0.02861078 0.04063594 -0.05712163
v -0.04033037 0.03360291 -0.04844101
v -0.04013050 0.03385924 -0.04846253
v -0.03919248 0.03491217 -0.04846253
v -0.03814089 0.03605595 -0.04846253
v -0.03709612 0.03710725 -0.04846253
v -0.03604454 0.03814720 -0.04846253
v -0.03623305 0.03831917 -0.04635800
v -0.03637614 0.03845708 -0.04425348
v -0.03750267 0.03750149 -0.04214896
v -0.03754583 0.03755017 -0.04004443
v -0.03758671 0.03759559 -0.03793991
v -0.03858832 0.03654428 -0.03793991
v -0.03967398 0.03544106 -0.03583538
v -0.04060064 0.03442545 -0.03373516
v -0.04057793 0.03438814 -0.03583538
v -0.04131154 0.03360291 -0.03163064
v -0.04134788 0.03360291 -0.02952611
v -0.04128656 0.03360291 -0.03299062
v -0.04064380 0.03360291 -0.04635800
v -0.04028948 0.03404906 -0.04635800
v -0.03935827 0.03510199 -0.04635800
v -0.03830670 0.03623279 -0.04635800
v -0.03728464 0.03728409 -0.04635800
v -0.03742772 0.03742524 -0.04425348
v -0.03843615 0.03637232 -0.04425348
v -0.03850883 0.03645019 -0.04214896
v -0.03854972 0.03649724 -0.04004443
v -0.03963991 0.03540213 -0.03793991
v -0.03956042 0.03532101 -0.04214896
v -0.03960130 0.03536319 -0.04004443
v -0.04052115 0.03431026 -0.04004443
v -0.04055295 0.03435082 -0.03793991
v -0.04119344 0.03360291 -0.03709638
v -0.04124340 0.03360291 -0.03504780
v -0.04078007 0.03360291 -0.04510131
v -0.04040078 0.03419345 -0.04425348
v -0.03949001 0.03524638 -0.04425348
v -0.04047345 0.03426808 -0.04214896
v -0.04110713 0.03360291 -0.04004443
v -0.04113438 0.03360291 -0.03914065
v -0.04086638 0.03360291 -0.04425348
v -0.04101174 0.03360291 -0.04214896
f 1 2 3
f 1 3 10
f 1 10 19
f 1 19 35
f 1 35 58
f 1 58 91
f 1 91 132
f 1 132 131
f 1 131 128
f 1 128 133
f 1 133 92
f 1 92 60
f 1 60 36
f 1 36 20
f 1 20 11
f 1 11 4
f 1 4 12
f 1 12 22
f 1 22 40
f 1 40 66
f 1 66 65
f 1 65 70
f 1 70 106
f 1 106 105
f 1 105 151
f 1 151 154
f 1 154 153
f 1 153 152
f 1 152 107
f 1 107 72
f 1 72 42
f 1 42 23
f 1 23 13
f 1 13 5
f 1 5 2
f 2 6 7
f 2 7 8
f 2 8 9
f 2 9 3
f 2 5 6
f 3 9 10
f 4 11 12
f 5 13 14
f 5 14 6
f 6 14 15
f 6 15 16
f 6 16 7
f 7 16 17
f 7 17 18
f 7 18 8
f 8 18 9
f 9 19 10
f 9 18 19
f 11 20 37
f 11 37 62
f 11 62 94
f 11 94 136
f 11 136 179
f 11 179 178
f 11 178 226
f 11 226 266
f 11 266 286
f 11 286 285
f 11 285 287
f 11 287 303
f 11 303 302
f 11 302 309
f 11 309 308
f 11 308 311
f 11 311 310
f 11 310 304
f 11 304 288
f 11 288 270
f 11 270 233
f 11 233 188
f 11 188 139
f 11 139 98
f 11 98 64
f 11 64 38
f 11 38 21
f 11 21 12
f 12 21 38
f 12 38 63
f 12 63 95
f 12 95 137
f 12 137 181
f 12 181 187
f 12 187 186
f 12 186 185
f 12 185 232
f 12 232 269
f 12 269 239
f 12 239 195
f 12 195 194
f 12 194 144
f 12 144 142
f 12 142 100
f 12 100 71
f 12 71 41
f 12 41 22
f 13 23 24
f 13 24 25
f 13 25 14
f 14 25 15
f 15 24 26
f 15 26 27
f 15 27 28
f 15 28 29
f 15 29 16
f 15 25 24
f 16 29 17
f 17 29 30
f 17 30 31
f 17 31 18
f 18 31 32
f 18 32 33
f 18 33 19
f 19 33 32
f 19 32 34
f 19 34 35
f 20 36 37
f 22 39 40
f 22 41 39
f 23 42 43
f 23 43 44
f 23 44 24
f 24 44 45
f 24 45 26
f 26 45 46
f 26 46 47
f 26 47 48
f 26 48 49
f 26 49 27
f 27 50 51
f 27 51 28
f 27 49 50
f 28 51 30
f 28 30 29
f 30 52 54
f 30 54 31
f 30 51 53
f 30 53 52
f 31 54 55
f 31 55 56
f 31 56 32
f 32 56 34
f 34 56 35
f 35 57 58
f 35 56 59
f 35 59 57
f 36 60 61
f 36 61 62
f 36 62 37
f 38 64 63
f 39 65 66
f 39 66 40
f 39 41 67
f 39 67 68
f 39 68 69
f 39 69 70
f 39 70 65
f 41 71 67
f 42 72 73
f 42 73 43
f 43 74 75
f 43 75 76
f 43 76 47
f 43 47 46
f 43 46 45
f 43 45 44
f 43 73 74
f 47 76 48
f 48 76 75
f 48 75 77
f 48 77 78
f 48 78 49
f 49 78 79
f 49 79 80
f 49 80 81
f 49 81 82
f 49 82 83
f 49 83 50
f 50 83 121
f 50 121 84
f 50 84 51
f 51 84 85
f 51 85 53
f 52 86 54
f 52 53 87
f 52 87 86
f 53 85 87
f 54 86 55
f 55 86 89
f 55 89 56
f 56 88 59
f 56 89 88
f 57 59 88
f 57 88 58
f 58 88 90
f 58 90 91
f 60 92 61
f 61 92 93
f 61 93 94
f 61 94 62
f 63 64 96
f 63 96 97
f 63 97 95
f 64 98 96
f 67 99 68
f 67 71 100
f 67 100 99
f 68 99 101
f 68 101 102
f 68 102 103
f 68 103 69
f 69 103 104
f 69 104 105
f 69 105 106
f 69 106 70
f 72 107 73
f 73 107 108
f 73 108 109
f 73 109 74
f 74 110 77
f 74 77 75
f 74 109 111
f 74 111 112
f 74 112 113
f 74 113 110
f 77 110 114
f 77 114 78
f 78 114 115
f 78 115 79
f 79 116 117
f 79 117 80
f 79 115 118
f 79 118 116
f 80 117 119
f 80 119 81
f 81 119 120
f 81 120 82
f 82 120 83
f 83 120 121
f 84 121 122
f 84 122 123
f 84 123 85
f 85 123 87
f 86 124 89
f 86 87 125
f 86 125 124
f 87 123 126
f 87 126 127
f 87 127 125
f 88 128 90
f 88 89 129
f 88 129 130
f 88 130 128
f 89 124 129
f 90 128 131
f 90 131 132
f 90 132 91
f 92 133 134
f 92 134 135
f 92 135 93
f 93 135 136
f 93 136 94
f 95 97 137
f 96 138 97
f 96 98 139
f 96 139 140
f 96 140 141
f 96 141 138
f 97 138 137
f 99 100 142
f 99 142 101
f 101 143 102
f 101 142 144
f 101 144 145
f 101 145 143
f 102 143 103
f 103 143 146
f 103 146 147
f 103 147 148
f 103 148 149
f 103 149 150
f 103 150 105
f 103 105 104
f 105 150 151
f 107 152 108
f 108 152 153
f 108 153 154
f 108 154 155
f 108 155 156
f 108 156 157
f 108 157 109
f 109 157 158
f 109 158 111
f 110 113 159
f 110 159 114
f 111 158 160
f 111 160 161
f 111 161 159
f 111 159 112
f 112 159 113
f 114 159 115
f 115 161 118
f 115 159 161
f 116 162 163
f 116 163 117
f 116 118 164
f 116 164 162
f 117 163 119
f 118 161 165
f 118 165 166
f 118 166 167
f 118 167 168
f 118 168 164
f 119 163 169
f 119 169 120
f 120 169 170
f 120 170 121
f 121 170 122
f 122 170 171
f 122 171 123
f 123 171 126
f 124 125 172
f 124 172 128
f 124 128 129
f 125 127 172
f 126 171 173
f 126 173 127
f 127 173 174
f 127 174 172
f 128 175 133
f 128 130 129
f 128 172 175
f 133 175 176
f 133 176 177
f 133 177 134
f 134 177 135
f 135 178 179
f 135 179 136
f 135 177 176
f 135 176 180
f 135 180 178
f 137 138 181
f 138 141 182
f 138 182 183
f 138 183 184
f 138 184 185
f 138 185 186
f 138 186 187
f 138 187 181
f 139 188 140
f 140 188 189
f 140 189 190
f 140 190 141
f 141 190 227
f 141 227 182
f 143 145 191
f 143 191 192
f 143 192 193
f 143 193 147
f 143 147 146
f 144 194 145
f 145 194 195
f 145 195 191
f 147 193 196
f 147 196 197
f 147 197 198
f 147 198 199
f 147 199 200
f 147 200 148
f 148 200 149
f 149 200 150
f 150 200 201
f 150 201 202
f 150 202 151
f 151 202 155
f 151 155 154
f 155 202 203
f 155 203 204
f 155 204 156
f 156 204 160
f 156 160 157
f 157 160 158
f 160 165 161
f 160 204 205
f 160 205 166
f 160 166 165
f 162 164 206
f 162 206 207
f 162 207 163
f 163 208 209
f 163 209 169
f 163 207 208
f 164 168 206
f 166 205 210
f 166 210 167
f 167 211 212
f 167 212 213
f 167 213 168
f 167 210 214
f 167 214 215
f 167 215 216
f 167 216 217
f 167 217 211
f 168 213 218
f 168 218 206
f 169 209 171
f 169 171 170
f 171 209 173
f 172 174 219
f 172 219 175
f 173 209 220
f 173 220 260
f 173 260 221
f 173 221 174
f 174 221 219
f 175 219 222
f 175 222 223
f 175 223 224
f 175 224 176
f 176 224 225
f 176 225 180
f 178 180 225
f 178 225 226
f 182 227 228
f 182 228 229
f 182 229 183
f 183 229 184
f 184 230 231
f 184 231 232
f 184 232 185
f 184 229 230
f 188 233 234
f 188 234 189
f 189 234 235
f 189 235 236
f 189 236 190
f 190 236 237
f 190 237 238
f 190 238 227
f 191 195 192
f 192 195 239
f 192 239 240
f 192 240 231
f 192 231 196
f 192 196 193
f 196 241 197
f 196 231 241
f 197 241 242
f 197 242 243
f 197 243 244
f 197 244 198
f 198 245 215
f 198 215 246
f 198 246 199
f 198 244 247
f 198 247 245
f 199 246 248
f 199 248 249
f 199 249 200
f 200 249 201
f 201 249 250
f 201 250 205
f 201 205 203
f 201 203 202
f 203 205 204
f 205 250 246
f 205 246 210
f 206 218 207
f 207 218 251
f 207 251 252
f 207 252 208
f 208 253 220
f 208 220 209
f 208 252 253
f 210 246 215
f 210 215 214
f 211 254 255
f 211 255 212
f 211 217 254
f 212 255 251
f 212 251 218
f 212 218 213
f 215 245 216
f 216 245 256
f 216 256 217
f 217 256 257
f 217 257 258
f 217 258 237
f 217 237 254
f 219 221 222
f 220 253 259
f 220 259 260
f 221 260 261
f 221 261 222
f 222 261 262
f 222 262 223
f 223 263 224
f 223 262 263
f 224 264 265
f 224 265 225
f 224 263 264
f 225 266 226
f 225 265 266
f 227 238 228
f 228 267 229
f 228 238 258
f 228 258 257
f 228 257 267
f 229 267 268
f 229 268 247
f 229 247 243
f 229 243 230
f 230 243 242
f 230 242 231
f 231 242 241
f 231 240 269
f 231 269 232
f 233 270 234
f 234 270 271
f 234 271 272
f 234 272 235
f 235 237 236
f 235 272 273
f 235 273 274
f 235 274 275
f 235 275 237
f 237 258 238
f 237 275 254
f 239 269 240
f 243 247 244
f 245 247 257
f 245 257 256
f 246 249 248
f 246 250 249
f 247 268 257
f 251 255 276
f 251 276 277
f 251 277 252
f 252 277 259
f 252 259 253
f 254 275 255
f 255 275 276
f 257 268 267
f 259 277 293
f 259 293 278
f 259 278 279
f 259 279 280
f 259 280 260
f 260 280 261
f 261 280 281
f 261 281 262
f 262 281 282
f 262 282 263
f 263 283 264
f 263 282 284
f 263 284 283
f 264 285 286
f 264 286 266
f 264 266 265
f 264 283 287
f 264 287 285
f 270 288 271
f 271 288 289
f 271 289 290
f 271 290 272
f 272 290 273
f 273 290 291
f 273 291 292
f 273 292 274
f 274 292 275
f 275 292 276
f 276 292 293
f 276 293 277
f 278 293 294
f 278 294 295
f 278 295 279
f 279 295 296
f 279 296 280
f 280 296 281
f 281 297 282
f 281 296 298
f 281 298 299
f 281 299 297
f 282 297 300
f 282 300 301
f 282 301 284
f 283 284 302
f 283 302 303
f 283 303 287
f 284 301 302
f 288 304 289
f 289 304 305
f 289 305 306
f 289 306 290
f 290 306 291
f 291 306 294
f 291 294 293
f 291 293 292
f 294 306 295
f 295 306 298
f 295 298 296
f 297 299 300
f 298 307 300
f 298 300 299
f 298 306 307
f 300 308 301
f 300 307 308
f 301 309 302
f 301 308 309
f 304 310 305
f 305 310 311
f 305 311 307
f 305 307 306
f 307 311 308

